<?xml version="1.0" standalone="no"?>
<!DOCTYPE svg PUBLIC "-//W3C//DTD SVG 1.1//EN" "http://www.w3.org/Graphics/SVG/1.1/DTD/svg11.dtd" >
<svg xmlns="http://www.w3.org/2000/svg" xmlns:xlink="http://www.w3.org/1999/xlink" version="1.1">
<metadata>
Created by FontForge 20201107 at Fri Jul  5 09:34:30 2024
 By 
(c) 2015, Copyright by Lineto. All rights reserved.
</metadata>
<defs>
<font id="CircularSpotifyText-Light" horiz-adv-x="1157" >
  <font-face 
    font-family="Circular Spotify Text Light"
    font-weight="300"
    font-stretch="normal"
    units-per-em="2048"
    panose-1="2 11 4 4 2 1 1 2 1 2"
    ascent="1536"
    descent="-512"
    x-height="977"
    cap-height="1452"
    bbox="-406 -774 10056 2116"
    underline-thickness="102"
    underline-position="-204"
    unicode-range="U+000D-FEFF"
  />
<missing-glyph horiz-adv-x="1099" 
d="M164 0v1452h772v-1452h-772zM266 102h568v1248h-568v-1248z" />
    <glyph glyph-name="f_f" unicode="ff" horiz-adv-x="1277" 
d="M1241 977v-111h-272v-866h-123v866h-488v-866h-122v866h-201v111h201v203q0 150 81 232.5t209 82.5q65 0 111 -20v-111q-36 16 -92 16q-82 0 -134.5 -48.5t-52.5 -157.5v-197h488v203q0 150 81.5 232.5t209.5 82.5q64 0 110 -20v-111q-36 16 -92 16q-82 0 -134 -48.5
t-52 -157.5v-197h272z" />
    <glyph glyph-name="f_f_i" unicode="ffi" horiz-adv-x="1746" 
d="M1583 977v-977h-123v866h-491v-866h-123v866h-488v-866h-122v866h-201v111h201v203q0 150 81 232.5t209 82.5q65 0 111 -20v-111q-36 16 -92 16q-82 0 -134.5 -48.5t-52.5 -157.5v-197h488v203q0 150 81.5 232.5t209.5 82.5q64 0 110 -20v-111q-36 16 -92 16
q-82 0 -134 -48.5t-52 -157.5v-197h614zM1419 1382q0 44 30 73.5t73 29.5t72.5 -29.5t29.5 -73.5t-29.5 -73t-72.5 -29t-73 29t-30 73z" />
    <glyph glyph-name="f_f_l" unicode="ffl" horiz-adv-x="1746" 
d="M969 1174v-197h491v502h123v-1479h-123v866h-491v-866h-123v866h-488v-866h-122v866h-201v111h201v203q0 150 81 232.5t209 82.5q65 0 111 -20v-111q-36 16 -92 16q-82 0 -134.5 -48.5t-52.5 -157.5v-197h488v203q0 150 81.5 232.5t209.5 82.5q64 0 110 -20v-111
q-36 16 -92 16q-82 0 -134 -48.5t-52 -157.5z" />
    <glyph glyph-name="f_i" unicode="fi" horiz-adv-x="1136" 
d="M809 1382q0 44 29.5 73.5t72.5 29.5t73 -29.5t30 -73.5t-30 -73t-73 -29t-72.5 29t-29.5 73zM850 866h-492v-866h-122v866h-201v111h201v203q0 150 81 232.5t209 82.5q65 0 111 -20v-111q-36 16 -92 16q-82 0 -134.5 -48.5t-52.5 -157.5v-197h615v-977h-123v866z" />
    <glyph glyph-name="f_l" unicode="fl" horiz-adv-x="1136" 
d="M850 977v502h123v-1479h-123v866h-492v-866h-122v866h-201v111h201v203q0 150 81 232.5t209 82.5q65 0 111 -20v-111q-36 16 -92 16q-82 0 -134.5 -48.5t-52.5 -157.5v-197h492z" />
    <glyph glyph-name="f_y" unicode="fy" horiz-adv-x="1652" 
d="M983 -389h-133l244 516l-363 739h-373v-866h-122v866h-201v111h201v203q0 150 81 232.5t209 82.5q65 0 111 -20v-111q-36 16 -92 16q-82 0 -134.5 -48.5t-52.5 -157.5v-197h457l342 -721l324 721h135z" />
    <glyph glyph-name=".notdef" horiz-adv-x="1099" 
d="M164 0v1452h772v-1452h-772zM266 102h568v1248h-568v-1248z" />
    <glyph glyph-name=".null" horiz-adv-x="0" 
 />
    <glyph glyph-name=".null" horiz-adv-x="0" 
 />
    <glyph glyph-name="uni000D" unicode="&#xd;" horiz-adv-x="530" 
 />
    <glyph glyph-name="space" unicode=" " horiz-adv-x="530" 
 />
    <glyph glyph-name="exclam" unicode="!" horiz-adv-x="464" 
d="M311 1452l-35 -1065h-83l-37 1065h155zM229 -8q-43 0 -72.5 29.5t-29.5 70.5q0 43 29.5 73t72.5 30t73 -30t30 -73q0 -41 -30 -70.5t-73 -29.5z" />
    <glyph glyph-name="quotedbl" unicode="&#x22;" horiz-adv-x="653" 
d="M102 1378q0 40 25 65t63 25t63.5 -25t25.5 -65q0 -22 -9 -67l-57 -312h-47l-55 312q-9 41 -9 67zM375 1378q0 40 25 65t63 25q39 0 63.5 -24.5t24.5 -65.5q0 -37 -6 -67l-60 -312h-45l-57 312q-8 36 -8 67z" />
    <glyph glyph-name="numbersign" unicode="#" horiz-adv-x="1482" 
d="M870 526l80 394h-356l-78 -394h354zM768 0l84 424h-354l-84 -424h-113l84 424h-303v102h321l78 394h-299v100h318l86 432h112l-86 -432h355l86 432h112l-86 -432h322v-100h-340l-78 -394h315v-102h-333l-84 -424h-113z" />
    <glyph glyph-name="dollar" unicode="$" horiz-adv-x="1136" 
d="M467 819l61 -14v532q-120 -14 -199 -88t-79 -178q0 -198 217 -252zM674 647l-43 10v-548q136 13 213.5 90.5t77.5 183.5q0 102 -64 169t-184 95zM631 -231h-103v233q-100 7 -183.5 44.5t-139 95.5t-88.5 129.5t-41 150.5l110 35q13 -133 103 -232.5t239 -115.5v573
l-86 20q-144 32 -228.5 124t-84.5 235q0 157 115 266t284 123v236h103v-238q167 -14 266 -109t131 -235l-110 -37q-24 105 -96 179.5t-191 88.5v-553l65 -14q165 -38 256.5 -133.5t91.5 -243.5q0 -156 -113.5 -266t-299.5 -123v-233z" />
    <glyph glyph-name="percent" unicode="%" horiz-adv-x="1636" 
d="M393 0h-121l969 1452h121zM705 1155q0 -131 -93 -223t-223 -92q-131 0 -223 91.5t-92 223.5q0 130 92 221.5t223 91.5q130 0 223 -91.5t93 -221.5zM182 1155q0 -91 59.5 -152t147.5 -61q87 0 146 61.5t59 151.5q0 89 -59.5 150t-145.5 61q-88 0 -147.5 -61t-59.5 -150z
M932 299q0 130 92 221.5t223 91.5t223.5 -91.5t92.5 -221.5q0 -132 -92.5 -223.5t-223.5 -91.5t-223 91.5t-92 223.5zM1452 299q0 89 -58.5 150t-146.5 61q-86 0 -145.5 -61t-59.5 -150q0 -90 59 -151.5t146 -61.5q88 0 146.5 61t58.5 152z" />
    <glyph glyph-name="ampersand" unicode="&#x26;" horiz-adv-x="1357" 
d="M1143 0l-215 225q-102 -124 -202.5 -186t-219.5 -62q-92 0 -168.5 30.5t-125 81t-75 115t-26.5 134.5q0 124 63 214.5t188 184.5l41 31l-63 63q-154 154 -154 306q0 148 103.5 245t247.5 97q154 0 253 -93t99 -239q0 -160 -199 -311l-108 -80l344 -355l299 361v-176
l-219 -267l309 -319h-172zM428 915l76 -81l121 94q69 53 103 106t34 117q0 92 -63 154.5t-160 62.5t-162.5 -63.5t-65.5 -159.5q0 -113 117 -230zM510 96q91 0 170.5 55.5t165.5 157.5l-365 375l-67 -53q-83 -67 -127.5 -132t-44.5 -151q0 -105 72.5 -178.5t195.5 -73.5z
" />
    <glyph glyph-name="quotesingle" unicode="'" horiz-adv-x="380" 
d="M102 1378q0 40 25 65t63 25t63.5 -25t25.5 -65q0 -22 -9 -67l-57 -312h-47l-55 312q-9 41 -9 67z" />
    <glyph glyph-name="parenleft" unicode="(" horiz-adv-x="583" 
d="M100 649q0 308 100 543.5t277 423.5l76 -66q-166 -185 -255 -405t-89 -496t89 -496t255 -405l-76 -65q-377 391 -377 966z" />
    <glyph glyph-name="parenright" unicode=")" horiz-adv-x="583" 
d="M483 649q0 -575 -377 -966l-75 65q166 185 255 405t89 496t-89 496t-255 405l75 66q177 -188 277 -423.5t100 -543.5z" />
    <glyph glyph-name="asterisk" unicode="*" horiz-adv-x="915" 
d="M508 1452v-301l285 98l30 -94l-286 -98l186 -252l-80 -62l-188 258l-181 -256l-79 62l180 250l-285 96l33 96l280 -100v303h105z" />
    <glyph glyph-name="plus" unicode="+" horiz-adv-x="1099" 
d="M602 1188v-424h399v-102h-399v-431h-108v431h-398v102h398v424h108z" />
    <glyph glyph-name="comma" unicode="," horiz-adv-x="489" 
d="M129 98q0 42 32 72.5t79 30.5q50 0 85 -38.5t35 -107.5q0 -144 -71.5 -238t-171.5 -118v76q67 21 109 87t44 140q-10 -10 -39 -10q-43 0 -72.5 29.5t-29.5 76.5z" />
    <glyph glyph-name="hyphen" unicode="-" horiz-adv-x="821" 
d="M680 532h-539v111h539v-111z" />
    <glyph glyph-name="period" unicode="." horiz-adv-x="468" 
d="M127 98q0 45 31 77t75 32q45 0 77 -32t32 -77q0 -44 -31.5 -75t-77.5 -31q-44 0 -75 31t-31 75z" />
    <glyph glyph-name="slash" unicode="/" horiz-adv-x="952" 
d="M889 1452l-701 -1452h-122l702 1452h121z" />
    <glyph glyph-name="zero" unicode="0" horiz-adv-x="1331" 
d="M244 725q0 -140 25 -254.5t75 -201.5t132 -135t190 -48q107 0 189 48.5t132 136t75 201.5t25 253t-25 253.5t-75 202t-132 136.5t-189 49q-108 0 -190 -48.5t-132 -136t-75 -202t-25 -254.5zM119 725q0 115 17 219t57.5 203.5t101.5 171.5t156.5 116t214.5 44t214 -44
t156 -116t101.5 -171t57.5 -204t17 -219q0 -95 -12.5 -183t-38 -174t-69 -156.5t-102.5 -124.5t-141.5 -84t-182.5 -30q-119 0 -214.5 43.5t-156.5 115.5t-101.5 171t-57.5 203t-17 219z" />
    <glyph glyph-name="one" unicode="1" horiz-adv-x="706" 
d="M545 1452v-1452h-125v1217q-49 -66 -155 -117.5t-208 -52.5v106q143 12 243.5 96t127.5 203h117z" />
    <glyph glyph-name="two" unicode="2" horiz-adv-x="1183" 
d="M1073 0h-960q3 166 90.5 296.5t271.5 254.5l215 145q236 160 236 355q0 134 -88 224.5t-240 90.5q-159 0 -255.5 -98t-96.5 -258q0 -45 4 -70l-127 18q-4 36 -4 66q0 193 136.5 324t342.5 131q107 0 194.5 -34t144.5 -92.5t87.5 -135.5t30.5 -164q0 -59 -15.5 -113.5
t-40 -98.5t-64.5 -88.5t-78 -77.5t-93 -72t-96.5 -65.5t-101.5 -64.5t-97 -63q-177 -122 -203 -291h807v-119z" />
    <glyph glyph-name="three" unicode="3" horiz-adv-x="1239" 
d="M686 856q86 0 164 -27.5t140 -79t99 -135t37 -186.5q0 -199 -145.5 -327t-362.5 -128q-221 0 -365 124.5t-155 316.5l123 28q5 -109 62.5 -191.5t145.5 -123.5t192 -41q163 0 270.5 96t107.5 242q0 154 -102.5 241t-255.5 87q-63 0 -137 -19l-62 107l488 493h-795v119
h961v-119l-480 -483q37 6 70 6z" />
    <glyph glyph-name="four" unicode="4" horiz-adv-x="1239" 
d="M63 358v150l668 944h184v-979h259v-115h-259v-358h-122v358h-730zM793 473v864l-611 -864h611z" />
    <glyph glyph-name="five" unicode="5" horiz-adv-x="1202" 
d="M78 399l123 37q11 -151 120.5 -250.5t268.5 -99.5q164 0 272.5 103t108.5 260q0 166 -108 268t-271 102q-94 0 -179 -38.5t-149 -108.5l-127 51l187 729h720v-117h-636l-138 -542q63 69 154.5 104t189.5 35q213 0 349.5 -133t136.5 -346q0 -98 -37 -186t-103 -153
t-162 -103t-208 -38q-211 0 -352.5 123t-159.5 303z" />
    <glyph glyph-name="six" unicode="6" horiz-adv-x="1273" 
d="M279 459q0 -164 112 -269.5t268 -105.5q160 0 270.5 105t110.5 270q0 170 -108 273.5t-268 103.5q-159 0 -272 -109t-113 -268zM682 948q213 0 350 -134t137 -357q0 -143 -71.5 -255t-187.5 -170.5t-253 -58.5q-116 0 -214.5 44t-171.5 127.5t-114.5 213t-41.5 291.5
q0 161 37 297.5t102.5 233.5t154.5 165t193 101t219 33q188 0 312 -80l-41 -109q-109 72 -277 72q-112 0 -206.5 -37.5t-161.5 -102t-114.5 -152.5t-71 -189t-25.5 -211q57 132 174.5 205t271.5 73z" />
    <glyph glyph-name="seven" unicode="7" horiz-adv-x="1112" 
d="M1087 1452v-129q-91 -84 -167.5 -170t-160.5 -210.5t-146.5 -258t-113 -311.5t-71.5 -373h-131q79 786 655 1335h-899v117h1034z" />
    <glyph glyph-name="eight" unicode="8" horiz-adv-x="1241" 
d="M621 -27q-231 0 -367.5 114.5t-136.5 287.5q0 133 87 232.5t224 135.5q-120 33 -198 127.5t-78 219.5q0 168 131.5 278.5t337.5 110.5q205 0 337 -110.5t132 -278.5q0 -123 -79 -218.5t-200 -128.5q137 -36 224 -135.5t87 -232.5q0 -173 -135 -287.5t-366 -114.5z
M621 797q150 0 246 81t96 207q0 125 -93 206t-249 81q-157 0 -251 -81t-94 -206q0 -126 96.5 -207t248.5 -81zM621 86q171 0 271.5 84.5t100.5 214.5q0 132 -99.5 217.5t-272.5 85.5q-175 0 -275 -85.5t-100 -217.5q0 -130 101 -214.5t274 -84.5z" />
    <glyph glyph-name="nine" unicode="9" horiz-adv-x="1271" 
d="M1026 788q-34 -122 -155.5 -201t-278.5 -79q-94 0 -181.5 34t-156 95t-109.5 153t-41 201q0 106 42 198t111.5 155t162 99t192.5 36q242 0 391.5 -177.5t149.5 -498.5q0 -409 -172 -619.5t-502 -210.5q-89 0 -185 24t-157 64l47 109q56 -36 139 -59t158 -23
q268 0 405.5 172t139.5 498v30zM989 993q0 162 -112.5 266.5t-266.5 104.5q-153 0 -265 -104.5t-112 -266.5q0 -165 110 -267.5t267 -102.5q156 0 267.5 103t111.5 267z" />
    <glyph glyph-name="colon" unicode=":" horiz-adv-x="497" 
d="M141 877q0 44 31.5 76t75.5 32q45 0 76.5 -31.5t31.5 -76.5t-31 -76t-77 -31q-44 0 -75.5 31.5t-31.5 75.5zM141 98q0 44 31.5 76.5t75.5 32.5q45 0 76.5 -32t31.5 -77q0 -44 -31 -75t-77 -31q-44 0 -75.5 31t-31.5 75z" />
    <glyph glyph-name="semicolon" unicode=";" horiz-adv-x="536" 
d="M158 96q0 42 30.5 71.5t77.5 29.5q49 0 84 -37.5t35 -104.5q0 -143 -71 -235.5t-169 -114.5v74q65 21 107.5 86t44.5 137q-10 -10 -39 -10q-43 0 -71.5 29.5t-28.5 74.5zM154 877q0 44 31 76t75 32q46 0 77.5 -31.5t31.5 -76.5q0 -44 -31.5 -75.5t-77.5 -31.5
q-44 0 -75 31.5t-31 75.5z" />
    <glyph glyph-name="less" unicode="&#x3c;" horiz-adv-x="1073" 
d="M205 713l702 -357v-125l-823 424v113l823 424v-123z" />
    <glyph glyph-name="equal" unicode="=" horiz-adv-x="1210" 
d="M1063 860h-916v103h916v-103zM1063 463h-916v104h916v-104z" />
    <glyph glyph-name="greater" unicode="&#x3e;" horiz-adv-x="1073" 
d="M166 356l704 357l-704 356v123l823 -424v-113l-823 -424v125z" />
    <glyph glyph-name="question" unicode="?" horiz-adv-x="1001" 
d="M535 387h-113q-6 20 -6 78q0 96 35 169t112 132l90 70q142 109 142 251q0 115 -77 196t-212 81q-99 0 -169.5 -44t-102 -110.5t-31.5 -146.5q0 -52 16 -111l-125 19q-16 47 -16 104q0 75 26.5 145t77 129t135 94.5t189.5 35.5q127 0 224.5 -56.5t145.5 -144t48 -188.5
q0 -201 -205 -353l-92 -67q-97 -70 -97 -217q0 -21 5 -66zM479 -8q-43 0 -72.5 29.5t-29.5 70.5q0 43 29.5 73t72.5 30t73 -30t30 -73q0 -41 -30 -70.5t-73 -29.5z" />
    <glyph glyph-name="at" unicode="@" horiz-adv-x="1689" 
d="M1231 297q-85 0 -136 44t-57 116q-41 -75 -110 -118.5t-146 -43.5q-129 0 -214 95t-85 247q0 122 51.5 228t142.5 169.5t200 63.5q81 0 145.5 -44.5t81.5 -121.5l24 141h105l-103 -512q-6 -30 -6 -57q0 -52 27 -83.5t86 -31.5q102 0 184 124.5t82 299.5
q0 111 -42.5 213.5t-119 181.5t-195 126.5t-259.5 47.5q-140 0 -263.5 -52.5t-213 -144.5t-141.5 -222.5t-52 -280.5q0 -192 82 -344.5t239.5 -242t364.5 -89.5q135 0 259 48t222 139l56 -70q-96 -99 -242 -156t-295 -57q-139 0 -263 36.5t-220.5 105.5t-166.5 163.5
t-107 214.5t-37 254q0 168 62 316.5t166.5 253t247.5 165t300 60.5q159 0 296 -55t229.5 -146.5t145 -212t52.5 -250.5q0 -146 -55 -267t-141 -186t-181 -65zM1067 784q0 97 -52 156t-145 59q-115 0 -196.5 -103.5t-81.5 -244.5q0 -110 52 -184t151 -74q65 0 117.5 33t85 89
t50 124.5t19.5 144.5z" />
    <glyph glyph-name="A" unicode="A" horiz-adv-x="1421" 
d="M1237 0l-180 449h-695l-178 -449h-139l588 1452h155l588 -1452h-139zM709 1323l-299 -756h600z" />
    <glyph glyph-name="B" unicode="B" horiz-adv-x="1234" 
d="M207 1452h418q206 0 323 -106t117 -281q0 -114 -61 -199.5t-160 -120.5q119 -29 193.5 -128t74.5 -226q0 -172 -123.5 -281.5t-322.5 -109.5h-459v1452zM336 791h321q120 0 198.5 74.5t78.5 191.5q0 130 -85.5 205t-236.5 75h-276v-546zM336 115h317q150 0 239 77t89 207
q0 124 -83.5 201.5t-217.5 77.5h-344v-563z" />
    <glyph glyph-name="C" unicode="C" horiz-adv-x="1527" 
d="M817 -27q-109 0 -212 31t-193.5 94.5t-158.5 152t-107.5 211t-39.5 263.5t39.5 264t108 211.5t159 152t193.5 95t211 31.5q241 0 407 -126t218 -337l-117 -41q-43 179 -177.5 282t-330.5 103q-113 0 -216 -41.5t-184.5 -119t-130 -200.5t-48.5 -274q0 -150 48.5 -272.5
t130 -200t184.5 -119t216 -41.5q199 0 335.5 107.5t182.5 283.5l113 -41q-54 -209 -222.5 -339t-408.5 -130z" />
    <glyph glyph-name="D" unicode="D" horiz-adv-x="1458" 
d="M336 115h315q115 0 216 38.5t179.5 112.5t124.5 191.5t46 265.5t-45 267t-123 193.5t-178.5 114t-215.5 39.5h-319v-1222zM655 0h-448v1452h452q140 0 264 -47.5t219.5 -137t151.5 -230t56 -314.5q0 -173 -56.5 -312.5t-153 -228t-221 -135.5t-264.5 -47z" />
    <glyph glyph-name="E" unicode="E" horiz-adv-x="1177" 
d="M1063 0h-856v1452h856v-119h-725v-547h661v-118h-661v-549h725v-119z" />
    <glyph glyph-name="F" unicode="F" horiz-adv-x="1169" 
d="M338 0h-131v1452h860v-119h-729v-563h666v-119h-666v-651z" />
    <glyph glyph-name="G" unicode="G" horiz-adv-x="1568" 
d="M1432 0h-103l-12 281q-18 -41 -45.5 -80.5t-73 -81.5t-101.5 -73.5t-136 -52t-170 -20.5q-129 0 -250.5 50t-219 142.5t-156.5 238.5t-59 323q0 176 59.5 321.5t159 238t224.5 142.5t260 50q230 0 398.5 -119.5t232.5 -317.5l-117 -49q-55 171 -190 269t-324 98
q-89 0 -172 -25.5t-155.5 -77.5t-127 -126t-85.5 -178t-31 -226t31.5 -226.5t85.5 -179t125.5 -127.5t151.5 -78.5t163 -25.5q109 0 198.5 32t146 81.5t96 114t56 125.5t17.5 120h-537v119h660v-682z" />
    <glyph glyph-name="H" unicode="H" horiz-adv-x="1507" 
d="M1300 0h-131v678h-831v-678h-131v1452h131v-655h831v655h131v-1452z" />
    <glyph glyph-name="I" unicode="I" horiz-adv-x="544" 
d="M338 0h-131v1452h131v-1452z" />
    <glyph glyph-name="J" unicode="J" horiz-adv-x="1099" 
d="M68 426v92l129 31v-117q0 -161 78.5 -250.5t216.5 -89.5q137 0 211.5 88.5t74.5 245.5v1026h131v-1024q0 -202 -112 -328.5t-305 -126.5q-197 0 -310.5 121.5t-113.5 331.5z" />
    <glyph glyph-name="K" unicode="K" horiz-adv-x="1306" 
d="M1122 0l-534 715l-250 -266v-449h-131v1452h131v-831l770 831h170l-604 -645l612 -807h-164z" />
    <glyph glyph-name="L" unicode="L" horiz-adv-x="1114" 
d="M1071 0h-864v1452h131v-1333h733v-119z" />
    <glyph glyph-name="M" unicode="M" horiz-adv-x="1935" 
d="M1729 0h-132v1257l-569 -1257h-123l-567 1257v-1257h-131v1452h184l578 -1282l577 1282h183v-1452z" />
    <glyph glyph-name="N" unicode="N" horiz-adv-x="1562" 
d="M1356 0h-139l-879 1290v-1290h-131v1452h180l838 -1239v1239h131v-1452z" />
    <glyph glyph-name="O" unicode="O" horiz-adv-x="1632" 
d="M238 725q0 -150 48 -272.5t129.5 -200t184 -119t215.5 -41.5t216 41.5t185 119t130.5 200t48.5 272.5q0 151 -48.5 274t-130.5 200.5t-185 119t-216 41.5t-215.5 -41.5t-184 -119t-129.5 -200.5t-48 -274zM106 725q0 176 60.5 321.5t161 238.5t226.5 143.5t261 50.5
q108 0 211 -31.5t193.5 -95t159 -152t108 -211.5t39.5 -264t-39.5 -263.5t-108 -211t-159 -152t-193.5 -94.5t-211 -31t-210.5 31t-193 94.5t-158.5 152t-107.5 211t-39.5 263.5z" />
    <glyph glyph-name="P" unicode="P" horiz-adv-x="1198" 
d="M338 731h328q153 0 243 83t90 218t-90 219t-243 84h-328v-604zM686 614h-348v-614h-131v1452h479q197 0 320.5 -119t123.5 -301t-123 -300t-321 -118z" />
    <glyph glyph-name="Q" unicode="Q" horiz-adv-x="1632" 
d="M1417 -109l-192 211q-179 -129 -410 -129q-108 0 -210.5 31t-193 94.5t-158.5 152t-107.5 211t-39.5 263.5q0 176 60.5 321.5t161 238.5t226.5 143.5t261 50.5q108 0 211 -31.5t193.5 -95t159 -152t108 -211.5t39.5 -264q0 -333 -211 -547l188 -209zM815 92
q181 0 328 101l-289 319l90 78l287 -320q164 177 164 455q0 151 -48.5 274t-130.5 200.5t-185 119t-216 41.5t-215.5 -41.5t-184 -119t-129.5 -200.5t-48 -274q0 -150 48 -272.5t129.5 -200t184 -119t215.5 -41.5z" />
    <glyph glyph-name="R" unicode="R" horiz-adv-x="1255" 
d="M991 0l-350 629h-303v-629h-131v1452h506q192 0 312 -118t120 -296q0 -159 -99 -269t-264 -132l361 -637h-152zM338 745h354q145 0 233.5 80.5t88.5 212.5q0 134 -88.5 215.5t-233.5 81.5h-354v-590z" />
    <glyph glyph-name="S" unicode="S" horiz-adv-x="1191" 
d="M1071 1122l-115 -41q-26 124 -114 203.5t-240 79.5q-135 0 -233.5 -81.5t-98.5 -205.5q0 -98 59.5 -164t170.5 -92l221 -51q173 -41 268.5 -139.5t95.5 -249.5q0 -172 -133 -290t-348 -118q-115 0 -211.5 36.5t-159.5 97.5t-101 137.5t-48 161.5l121 38
q14 -149 120.5 -251.5t278.5 -102.5q163 0 257.5 79.5t94.5 201.5q0 101 -67.5 172t-192.5 100l-219 51q-154 35 -245 130.5t-91 244.5q0 110 64 205t169 150t224 55q107 0 192.5 -29.5t141 -81t89.5 -112.5t50 -134z" />
    <glyph glyph-name="T" unicode="T" horiz-adv-x="1234" 
d="M1196 1333h-514v-1333h-131v1333h-512v119h1157v-119z" />
    <glyph glyph-name="U" unicode="U" horiz-adv-x="1376" 
d="M688 -27q-227 0 -362.5 133t-135.5 377v969h132v-963q0 -192 94 -294.5t272 -102.5t272.5 102.5t94.5 294.5v963h131v-969q0 -243 -135.5 -376.5t-362.5 -133.5z" />
    <glyph glyph-name="V" unicode="V" horiz-adv-x="1341" 
d="M672 156l483 1296h137l-559 -1452h-129l-551 1452h140z" />
    <glyph glyph-name="W" unicode="W" horiz-adv-x="2027" 
d="M1487 182l356 1270h133l-417 -1452h-142l-405 1282l-406 -1282h-135l-424 1452h135l359 -1270l401 1270h141z" />
    <glyph glyph-name="X" unicode="X" horiz-adv-x="1210" 
d="M1169 1452l-489 -723l487 -729h-153l-408 625l-416 -625h-151l491 729l-487 723h156l407 -623l410 623h153z" />
    <glyph glyph-name="Y" unicode="Y" horiz-adv-x="1261" 
d="M567 621l-508 831h154l418 -711l420 711h151l-508 -831v-621h-127v621z" />
    <glyph glyph-name="Z" unicode="Z" horiz-adv-x="1277" 
d="M1194 0h-1112v133l954 1200h-942v119h1094v-129l-957 -1204h963v-119z" />
    <glyph glyph-name="bracketleft" unicode="[" horiz-adv-x="532" 
d="M471 -289h-315v1880h315v-100h-207v-1679h207v-101z" />
    <glyph glyph-name="backslash" unicode="\" horiz-adv-x="954" 
d="M764 0l-701 1452h125l699 -1452h-123z" />
    <glyph glyph-name="bracketright" unicode="]" horiz-adv-x="532" 
d="M377 -289h-316v101h207v1679h-207v100h316v-1880z" />
    <glyph glyph-name="asciicircum" unicode="^" horiz-adv-x="1085" 
d="M993 727h-129l-319 600l-324 -600h-129l397 725h109z" />
    <glyph glyph-name="underscore" unicode="_" horiz-adv-x="1069" 
d="M1059 -102h-1049v102h1049v-102z" />
    <glyph glyph-name="grave" unicode="`" horiz-adv-x="507" 
d="M326 1100l-242 284h156l182 -284h-96z" />
    <glyph glyph-name="a" unicode="a" horiz-adv-x="1024" 
d="M412 -25q-147 0 -233.5 82.5t-86.5 194.5q0 121 78 194.5t215 94.5l260 39q59 8 81 32t22 62q0 99 -64.5 160t-181.5 61t-190 -60.5t-85 -166.5l-114 24q17 139 123.5 224t263.5 85q182 0 276 -95.5t94 -243.5v-494q0 -91 15 -168h-121q-12 69 -12 168
q-38 -78 -127 -135.5t-213 -57.5zM426 80q142 0 232 86.5t90 232.5v111q-16 -16 -72 -25l-273 -41q-88 -12 -137 -60t-49 -126q0 -72 56.5 -125t152.5 -53z" />
    <glyph glyph-name="b" unicode="b" horiz-adv-x="1181" 
d="M285 0h-121v1479h123v-691q39 86 129.5 151t224.5 65q200 0 321 -146t121 -369t-123 -369.5t-323 -146.5q-129 0 -218.5 63t-133.5 154v-190zM623 84q150 0 244 113t94 292q0 178 -94 291t-244 113t-244 -113t-94 -291q0 -179 94 -292t244 -113z" />
    <glyph glyph-name="c" unicode="c" horiz-adv-x="1083" 
d="M575 893q-151 0 -253.5 -111t-102.5 -295q0 -182 102 -292.5t254 -110.5q67 0 123.5 21.5t94.5 58t62.5 76.5t37.5 84l108 -45q-18 -59 -53.5 -112t-87.5 -97.5t-126 -70.5t-159 -26q-207 0 -343 145t-136 369q0 225 136.5 371t342.5 146q165 0 273.5 -87.5t144.5 -220.5
l-108 -45q-13 47 -36.5 87t-60 76.5t-91.5 57.5t-122 21z" />
    <glyph glyph-name="d" unicode="d" horiz-adv-x="1175" 
d="M219 489q0 -175 93 -290t245 -115q150 0 241 115t91 290q0 176 -90.5 290t-239.5 114q-153 0 -246.5 -113t-93.5 -291zM889 154v39q-17 -40 -45.5 -77t-69.5 -70t-100 -53t-127 -20q-202 0 -326.5 147t-124.5 369q0 219 126 367t325 148q74 0 135.5 -20.5t101 -54.5
t64 -67t39.5 -69v686h123v-1293q0 -136 10 -186h-121q-10 62 -10 154z" />
    <glyph glyph-name="e" unicode="e" horiz-adv-x="1095" 
d="M225 567h652q-3 142 -90 234t-236 92q-134 0 -225.5 -94t-100.5 -232zM891 315l108 -39q-44 -133 -155.5 -218t-272.5 -85q-97 0 -183 35.5t-151 100.5t-103 164t-38 219q0 112 36.5 209t98.5 162.5t144.5 103t173.5 37.5q213 0 334 -136.5t123 -357.5q0 -29 -2 -45h-783
v-8q1 -83 28.5 -153t74.5 -118t111 -75t136 -27q125 0 206 63.5t114 167.5z" />
    <glyph glyph-name="f" unicode="f" horiz-adv-x="667" 
d="M631 866h-273v-866h-122v866h-201v111h201v203q0 150 81 232.5t209 82.5q65 0 111 -20v-111q-36 16 -92 16q-82 0 -134.5 -48.5t-52.5 -157.5v-197h273v-111z" />
    <glyph glyph-name="g" unicode="g" horiz-adv-x="1150" 
d="M98 -55l117 28q12 -119 99 -199.5t214 -80.5q93 0 160.5 29.5t104.5 83.5t54 119t17 145v180q-36 -84 -120.5 -141.5t-208.5 -57.5q-191 0 -314 135t-123 340q0 202 122 337.5t315 135.5q127 0 208.5 -53t122.5 -137v168h121v-905q0 -72 -13 -138t-46 -131.5
t-83.5 -112.5t-132.5 -76.5t-186 -29.5q-175 0 -292 102t-136 259zM549 158q143 0 231 103.5t88 264.5q0 160 -88 263.5t-231 103.5q-145 0 -236.5 -103t-91.5 -264t91 -264.5t237 -103.5z" />
    <glyph glyph-name="h" unicode="h" horiz-adv-x="1099" 
d="M287 588v-588h-123v1479h123v-656q41 79 123 130t190 51q166 0 256 -103t90 -262v-639h-123v618q0 123 -66 199t-198 76q-121 0 -196.5 -90t-75.5 -215z" />
    <glyph glyph-name="i" unicode="i" horiz-adv-x="450" 
d="M287 0h-123v977h123v-977zM123 1382q0 44 29.5 73.5t72.5 29.5t73 -29.5t30 -73.5t-30 -73t-73 -29t-72.5 29t-29.5 73z" />
    <glyph glyph-name="j" unicode="j" horiz-adv-x="450" 
d="M164 -129v1106h123v-1110q0 -132 -70 -207.5t-188 -75.5q-71 0 -109 19v104q34 -12 84 -12q82 0 121 42.5t39 133.5zM123 1382q0 44 29.5 73.5t72.5 29.5t73 -29.5t30 -73.5t-30 -73t-73 -29t-72.5 29t-29.5 73z" />
    <glyph glyph-name="k" unicode="k" horiz-adv-x="1015" 
d="M969 977l-416 -416l424 -561h-154l-356 477l-180 -178v-299h-123v1479h123v-1018l512 516h170z" />
    <glyph glyph-name="l" unicode="l" horiz-adv-x="450" 
d="M287 0h-123v1479h123v-1479z" />
    <glyph glyph-name="m" unicode="m" horiz-adv-x="1730" 
d="M287 0h-123v977h121v-162q34 81 118 135t193 54q114 0 196 -59.5t111 -162.5q44 106 131.5 164t204.5 58q147 0 242.5 -96t95.5 -261v-647h-123v633q0 115 -65.5 188.5t-184.5 73.5t-195.5 -86t-76.5 -209v-600h-123v633q0 115 -65 188.5t-185 73.5q-119 0 -195.5 -85.5
t-76.5 -209.5v-600z" />
    <glyph glyph-name="n" unicode="n" horiz-adv-x="1099" 
d="M287 584v-584h-123v977h119v-156q41 81 124.5 130.5t192.5 49.5q165 0 255.5 -103t90.5 -261v-637h-123v616q0 124 -65 199.5t-199 75.5q-122 0 -197 -89t-75 -218z" />
    <glyph glyph-name="o" unicode="o" horiz-adv-x="1163" 
d="M582 -27q-101 0 -190.5 38t-154.5 104.5t-103 163t-38 208.5q0 227 139 370.5t347 143.5q207 0 346 -143.5t139 -370.5q0 -226 -139 -370t-346 -144zM221 487q0 -184 105 -293.5t256 -109.5t255.5 109.5t104.5 293.5q0 185 -104.5 294.5t-255.5 109.5t-256 -109.5
t-105 -294.5z" />
    <glyph glyph-name="p" unicode="p" horiz-adv-x="1181" 
d="M287 -389h-123v1366h121v-195q19 41 49 77.5t73 70.5t103.5 54t130.5 20q135 0 236.5 -68.5t153.5 -185t52 -261.5q0 -146 -53.5 -262.5t-156 -185t-236.5 -68.5q-67 0 -126 18.5t-101.5 50.5t-72.5 67.5t-50 74.5v-573zM961 489q0 174 -94 289t-246 115
q-150 0 -243 -115.5t-93 -288.5q0 -176 93 -290.5t243 -114.5q152 0 246 115.5t94 289.5z" />
    <glyph glyph-name="q" unicode="q" horiz-adv-x="1175" 
d="M1012 -389h-123v575q-40 -89 -128 -151t-216 -62q-200 0 -323.5 147.5t-123.5 368.5q0 219 124.5 367t320.5 148q73 0 134 -19.5t102 -53.5t68 -70t44 -77v193h121v-1366zM221 489q0 -175 93 -290t243 -115t242 115t92 290q0 176 -92 290t-242 114q-151 0 -243.5 -114
t-92.5 -290z" />
    <glyph glyph-name="r" unicode="r" horiz-adv-x="690" 
d="M662 979v-129q-38 10 -87 10q-130 0 -209 -84.5t-79 -245.5v-530h-123v977h121v-182q43 98 121.5 146t179.5 48q49 0 76 -10z" />
    <glyph glyph-name="s" unicode="s" horiz-adv-x="899" 
d="M82 256l113 39q14 -94 83.5 -154.5t184.5 -60.5q92 0 154.5 49t62.5 125q0 124 -166 164l-158 37q-111 26 -175 92t-64 168q0 118 97.5 202t231.5 84q81 0 146 -22t105.5 -60t64.5 -80t35 -89l-109 -41q-15 80 -74.5 133t-167.5 53q-85 0 -146.5 -48.5t-61.5 -123.5
q0 -121 153 -156l156 -35q123 -28 188.5 -96.5t65.5 -173.5q0 -116 -92.5 -202.5t-247.5 -86.5q-86 0 -157 25.5t-116.5 68t-72 90.5t-33.5 99z" />
    <glyph glyph-name="t" unicode="t" horiz-adv-x="671" 
d="M362 1286v-309h254v-111h-254v-590q0 -176 166 -176q50 0 88 17v-109q-36 -18 -120 -18q-120 0 -188 71t-68 203v602h-207v111h73q72 0 105 34t33 109v166h118z" />
    <glyph glyph-name="u" unicode="u" horiz-adv-x="1103" 
d="M823 152q-37 -76 -117.5 -127.5t-189.5 -51.5q-119 0 -203.5 55.5t-122.5 141.5t-38 192v615h122v-594q0 -129 65 -214t200 -85q127 0 201.5 85t74.5 212v596h123v-791q0 -100 12 -186h-116q-11 55 -11 137v15z" />
    <glyph glyph-name="v" unicode="v" horiz-adv-x="1021" 
d="M963 977l-388 -977h-129l-387 977h140l311 -838l315 838h138z" />
    <glyph glyph-name="w" unicode="w" horiz-adv-x="1628" 
d="M750 977h133l291 -825l256 825h133l-320 -977h-137l-291 827l-291 -827h-137l-324 977h136l260 -825z" />
    <glyph glyph-name="x" unicode="x" horiz-adv-x="978" 
d="M41 0l373 498l-357 479h146l286 -391l287 391h146l-361 -479l375 -498h-148l-301 410l-299 -410h-147z" />
    <glyph glyph-name="y" unicode="y" horiz-adv-x="1026" 
d="M356 -389h-133l244 516l-416 850h137l342 -721l324 721h135z" />
    <glyph glyph-name="z" unicode="z" horiz-adv-x="950" 
d="M864 0h-776v109l619 757h-613v111h760v-109l-614 -757h624v-111z" />
    <glyph glyph-name="braceleft" unicode="{" horiz-adv-x="636" 
d="M47 592v119q97 6 156 61.5t59 155.5v327q0 324 301 324h19v-100h-19q-107 0 -149.5 -52t-42.5 -165v-359q0 -100 -57.5 -167.5t-157.5 -84.5q101 -17 158 -84.5t57 -167.5v-358q0 -113 42.5 -165t149.5 -52h19v-98h-19q-301 0 -301 323v326q0 100 -59 155.5t-156 61.5z
" />
    <glyph glyph-name="bar" unicode="|" horiz-adv-x="419" 
d="M264 -289h-108v1880h108v-1880z" />
    <glyph glyph-name="braceright" unicode="}" horiz-adv-x="636" 
d="M590 711v-119q-97 -6 -156 -61.5t-59 -155.5v-326q0 -323 -301 -323h-19v98h19q107 0 149.5 52t42.5 165v358q0 100 57 167.5t158 84.5q-100 17 -157.5 84.5t-57.5 167.5v359q0 113 -42.5 165t-149.5 52h-19v100h19q301 0 301 -324v-327q0 -100 59 -155.5t156 -61.5z" />
    <glyph glyph-name="asciitilde" unicode="~" horiz-adv-x="1267" 
d="M653 518l-96 51q-70 39 -131 39q-119 0 -203 -116l-76 61q108 164 277 164q91 0 186 -53l95 -52q77 -41 141 -41q123 0 198 113l76 -61q-107 -162 -274 -162q-82 0 -193 57z" />
    <glyph glyph-name="uni00A0" unicode="&#xa0;" horiz-adv-x="530" 
 />
    <glyph glyph-name="exclamdown" unicode="&#xa1;" horiz-adv-x="436" 
d="M139 -463l35 1065h84l37 -1065h-156zM221 997q43 0 73 -29.5t30 -70.5q0 -43 -30 -72.5t-73 -29.5t-72.5 29.5t-29.5 72.5q0 41 29.5 70.5t72.5 29.5z" />
    <glyph glyph-name="cent" unicode="&#xa2;" horiz-adv-x="1105" 
d="M633 201v-201h-103v203q-188 19 -306 159t-118 351q0 209 119 350.5t305 161.5v227h103v-227q147 -12 244 -96t131 -211l-109 -44q-26 90 -90.5 157t-175.5 81v-797q74 8 133.5 47.5t92 86.5t50.5 102l105 -41q-34 -122 -134.5 -209t-246.5 -100zM227 713
q0 -160 83.5 -269.5t219.5 -128.5v795q-136 -20 -219.5 -129.5t-83.5 -267.5z" />
    <glyph glyph-name="sterling" unicode="&#xa3;" horiz-adv-x="1214" 
d="M823 635h-370q16 -74 16 -121q0 -130 -56.5 -232t-144.5 -169h477q120 0 189.5 74.5t77.5 199.5l116 -16q-9 -169 -104.5 -270t-257.5 -101h-655v115q99 63 165 165.5t66 229.5q0 64 -18 125h-195v108h162q-2 6 -16.5 40t-18.5 44.5t-15 41t-15 47.5t-10.5 44t-8.5 52
t-2 51q0 180 116.5 297t307.5 117q184 0 294 -106.5t121 -262.5l-118 -27q-8 124 -88.5 203.5t-206.5 79.5q-131 0 -215 -83t-84 -222q0 -56 12.5 -104.5t42.5 -119.5t37 -92h399v-108z" />
    <glyph glyph-name="currency" unicode="&#xa4;" horiz-adv-x="1257" 
d="M1036 217l-143 145q-113 -86 -258 -86q-152 0 -268 95l-148 -154l-78 78l150 154q-92 112 -92 264q0 153 96 270l-152 158l78 76l152 -156q118 88 262 88t252 -82l147 150l76 -76l-141 -150q104 -122 104 -278q0 -157 -100 -275l141 -143zM309 713q0 -139 95 -234.5
t231 -95.5q137 0 230 95.5t93 234.5q0 141 -93 235t-230 94q-136 0 -231 -94.5t-95 -234.5z" />
    <glyph glyph-name="yen" unicode="&#xa5;" horiz-adv-x="1265" 
d="M698 0h-129v358h-387v103h387v172h-387v102h328l-438 717h149l416 -692l414 692h143l-438 -717h331v-102h-389v-172h389v-103h-389v-358z" />
    <glyph glyph-name="brokenbar" unicode="&#xa6;" horiz-adv-x="440" 
d="M166 1591h108v-817h-108v817zM166 530h108v-819h-108v819z" />
    <glyph glyph-name="section" unicode="&#xa7;" horiz-adv-x="1026" 
d="M139 575q0 88 52.5 159t127.5 100q-184 114 -184 301q0 152 112.5 248t268.5 96q174 0 276 -102t107 -265l-119 -27q-2 132 -72.5 210.5t-193.5 78.5q-105 0 -180.5 -63.5t-75.5 -165.5q0 -140 156 -223l217 -117q49 -26 83 -48t69.5 -51.5t57 -60t35 -71t13.5 -87.5
q0 -89 -52 -156t-132 -102q192 -115 192 -301q0 -152 -113 -248t-274 -96q-176 0 -278.5 101t-108.5 268l117 24q3 -130 76 -209t198 -79q112 0 186 62.5t74 164.5q0 76 -40.5 130.5t-119.5 96.5l-217 117q-63 33 -104.5 60.5t-79.5 65t-56 84.5t-18 105zM420 385l203 -111
q61 22 103 75t42 120q0 68 -40 118t-120 93l-205 108q-60 -23 -100.5 -76t-40.5 -118q0 -67 39 -117t119 -92z" />
    <glyph glyph-name="dieresis" unicode="&#xa8;" horiz-adv-x="716" 
d="M453 1251q0 35 25.5 60.5t60.5 25.5t60.5 -25.5t25.5 -60.5t-25.5 -60.5t-60.5 -25.5t-60.5 25.5t-25.5 60.5zM92 1251q0 35 25.5 60.5t60.5 25.5t60.5 -25.5t25.5 -60.5t-25.5 -60.5t-60.5 -25.5t-60.5 25.5t-25.5 60.5z" />
    <glyph glyph-name="copyright" unicode="&#xa9;" horiz-adv-x="1708" 
d="M860 1051q-123 0 -204 -88.5t-81 -235.5q0 -148 80.5 -236t204.5 -88q106 0 171.5 56t90.5 135l92 -41q-33 -103 -124 -175.5t-226 -72.5q-173 0 -284 118.5t-111 303.5t110.5 303.5t280.5 118.5q138 0 228 -72t120 -180l-96 -37q-24 85 -87.5 138t-164.5 53zM854 1380
q-131 0 -249.5 -51t-204 -138t-135.5 -208.5t-50 -257.5q0 -180 85 -330.5t232 -236.5t322 -86t322 86t232 236.5t85 330.5q0 136 -50 257.5t-135.5 208.5t-204 138t-249.5 51zM854 -27q-122 0 -236 37.5t-205.5 107t-160 162t-106 207.5t-37.5 238q0 155 58.5 294.5
t158 240.5t237.5 160t291 59t291 -59t237.5 -160t158 -240.5t58.5 -294.5q0 -123 -37.5 -238t-106 -207.5t-160 -162t-205.5 -107t-236 -37.5z" />
    <glyph glyph-name="ordfeminine" unicode="&#xaa;" horiz-adv-x="804" 
d="M563 1077v47q-10 -13 -47 -18l-186 -31q-121 -20 -121 -123q0 -49 37 -83.5t104 -34.5q103 0 158 64t55 179zM104 948q0 84 55 136.5t148 64.5l191 29q65 11 65 63q0 65 -44 105t-124 40q-77 0 -126 -42.5t-58 -114.5l-94 24q11 97 86.5 159.5t189.5 62.5q137 0 205 -69
t68 -177v-346q0 -71 8 -117h-101q-8 40 -8 108q-28 -53 -87.5 -89.5t-141.5 -36.5q-108 0 -170 58.5t-62 141.5z" />
    <glyph glyph-name="guillemotleft" unicode="&#xab;" horiz-adv-x="952" 
d="M494 195h-123l-273 391l273 391h123l-271 -391zM840 195h-123l-273 391l273 391h123l-271 -391z" />
    <glyph glyph-name="logicalnot" unicode="&#xac;" horiz-adv-x="1183" 
d="M1024 446h-113v412h-788v109h901v-521z" />
    <glyph glyph-name="uni00AD" unicode="&#xad;" horiz-adv-x="821" 
d="M680 535h-539v106h539v-106z" />
    <glyph glyph-name="registered" unicode="&#xae;" horiz-adv-x="1708" 
d="M721 741h151q80 0 126 41t46 111q0 73 -46 114.5t-126 41.5h-151v-308zM721 651v-332h-103v820h269q114 0 187 -69.5t73 -174.5q0 -89 -53 -153t-140 -83l197 -340h-121l-188 332h-121zM854 1380q-131 0 -249.5 -51t-204 -138t-135.5 -208.5t-50 -257.5q0 -180 85 -330.5
t232 -236.5t322 -86t322 86t232 236.5t85 330.5q0 136 -50 257.5t-135.5 208.5t-204 138t-249.5 51zM854 -27q-122 0 -236 37.5t-205.5 107t-160 162t-106 207.5t-37.5 238q0 155 58.5 294.5t158 240.5t237.5 160t291 59t291 -59t237.5 -160t158 -240.5t58.5 -294.5
q0 -123 -37.5 -238t-106 -207.5t-160 -162t-205.5 -107t-236 -37.5z" />
    <glyph glyph-name="macron" unicode="&#xaf;" horiz-adv-x="704" 
d="M612 1194h-520v102h520v-102z" />
    <glyph glyph-name="degree" unicode="&#xb0;" horiz-adv-x="802" 
d="M401 946q88 0 146.5 61t58.5 152q0 89 -58.5 150t-146.5 61q-86 0 -145 -61t-59 -150q0 -91 59 -152t145 -61zM86 1159q0 130 92 222t223 92t223.5 -92t92.5 -222q0 -132 -92.5 -223.5t-223.5 -91.5t-223 91.5t-92 223.5z" />
    <glyph glyph-name="plusminus" unicode="&#xb1;" horiz-adv-x="1236" 
d="M1059 786h-387v-297h-109v297h-385v103h385v297h109v-297h387v-103zM1059 256h-881v104h881v-104z" />
    <glyph glyph-name="twosuperior" unicode="&#xb2;" horiz-adv-x="690" 
d="M190 1178l-102 6q-4 28 -4 49q0 98 72 165.5t190 67.5q115 0 185.5 -65t70.5 -160q0 -129 -147 -221l-152 -94q-83 -55 -94 -125h401v-90h-528v10q0 179 160 276l141 86q113 70 113 160q0 56 -42 95.5t-110 39.5q-70 0 -114 -41.5t-44 -111.5q0 -15 4 -47z" />
    <glyph glyph-name="threesuperior" unicode="&#xb3;" horiz-adv-x="727" 
d="M303 1071l-45 80l234 213h-400v90h537v-86l-238 -213q2 0 9.5 1t9.5 1q99 -3 167 -60t68 -159t-79 -172t-204 -70q-121 0 -199.5 61.5t-90.5 155.5l94 35q6 -73 62 -118.5t132 -45.5q77 0 128 44t51 110q0 69 -49 106t-121 37q-36 0 -66 -10z" />
    <glyph glyph-name="acute" unicode="&#xb4;" horiz-adv-x="509" 
d="M426 1384l-242 -284h-100l182 284h160z" />
    <glyph glyph-name="mu" unicode="&#xb5;" horiz-adv-x="1087" 
d="M514 -27q-166 0 -244 111v-473h-123v1366h123v-596q0 -61 15 -112.5t45.5 -94t83.5 -66.5t123 -24q127 0 201.5 85t74.5 212v596h123v-791q0 -100 12 -186h-117q-10 50 -10 137v15q-37 -76 -117.5 -127.5t-189.5 -51.5z" />
    <glyph glyph-name="paragraph" unicode="&#xb6;" horiz-adv-x="1257" 
d="M639 1350v-1739h-111v1059h-67q-160 0 -275.5 114t-115.5 275q0 172 125.5 282.5t318.5 110.5h651v-102h-188v-1739h-111v1739h-227z" />
    <glyph glyph-name="periodcentered" unicode="&#xb7;" horiz-adv-x="497" 
d="M141 582q0 44 31.5 76t75.5 32q45 0 76.5 -31.5t31.5 -76.5q0 -44 -31 -75.5t-77 -31.5q-44 0 -75.5 31.5t-31.5 75.5z" />
    <glyph glyph-name="cedilla" unicode="&#xb8;" horiz-adv-x="626" 
d="M246 -195l-49 60l98 151h98l-88 -131q24 9 49 9q81 0 131 -43.5t50 -112.5q0 -73 -58.5 -120.5t-163.5 -47.5q-69 0 -128.5 27.5t-92.5 68.5l55 66q67 -80 164 -80q59 0 93 22.5t34 63.5q0 39 -30 61.5t-86 22.5q-41 0 -76 -17z" />
    <glyph glyph-name="onesuperior" unicode="&#xb9;" horiz-adv-x="444" 
d="M338 711h-105v585q-27 -29 -75 -50t-103 -25v79q74 10 123 53t60 101h100v-743z" />
    <glyph glyph-name="ordmasculine" unicode="&#xba;" horiz-adv-x="866" 
d="M432 748q-148 0 -246 101.5t-98 262.5q0 160 98 261.5t246 101.5t247 -102t99 -261q0 -161 -98.5 -262.5t-247.5 -101.5zM190 1112q0 -126 70.5 -199t171.5 -73t171.5 73t70.5 199q0 124 -70.5 197t-171.5 73t-171.5 -73t-70.5 -197z" />
    <glyph glyph-name="guillemotright" unicode="&#xbb;" horiz-adv-x="952" 
d="M582 195h-123l270 391l-270 391h123l272 -391zM236 195h-123l270 391l-270 391h123l272 -391z" />
    <glyph glyph-name="onequarter" unicode="&#xbc;" horiz-adv-x="1533" 
d="M293 0h-117l971 1452h113zM362 709h-104v585q-27 -29 -75 -50t-103 -25v79q74 10 122.5 53t59.5 101h100v-743zM821 168v104l369 471h125v-483h145v-92h-145v-168h-105v168h-389zM1210 260v367l-286 -367h286z" />
    <glyph glyph-name="onehalf" unicode="&#xbd;" horiz-adv-x="1568" 
d="M289 0h-117l971 1452h112zM358 709h-104v585q-27 -29 -75 -50t-103 -25v79q74 10 122.5 53t59.5 101h100v-743zM1057 467l-103 6q-4 28 -4 49q0 98 72 166t190 68q115 0 185.5 -65.5t70.5 -160.5q0 -129 -147 -221l-152 -94q-83 -55 -94 -125h402v-90h-529v10
q0 180 160 277l141 86q113 70 113 159q0 56 -42 96t-110 40q-70 0 -113.5 -42t-43.5 -112q0 -15 4 -47z" />
    <glyph glyph-name="threequarters" unicode="&#xbe;" horiz-adv-x="1695" 
d="M455 0h-117l971 1452h112zM983 168v104l369 471h125v-483h145v-92h-145v-168h-105v168h-389zM1372 260v367l-287 -367h287zM317 1069l-45 80l234 213h-400v90h537v-86l-237 -213q2 0 9 1t9 1q99 -3 167 -60t68 -159t-78.5 -172t-203.5 -70q-121 0 -200 61.5t-91 155.5
l94 35q6 -73 62.5 -118.5t132.5 -45.5t127 44t51 110q0 69 -49 106t-121 37q-36 0 -66 -10z" />
    <glyph glyph-name="questiondown" unicode="&#xbf;" horiz-adv-x="980" 
d="M457 602h112q6 -20 6 -78q0 -96 -35 -169t-112 -132l-90 -69q-141 -108 -141 -252q0 -115 76.5 -196t211.5 -81q99 0 169.5 44t102 110.5t31.5 146.5q0 52 -16 111l125 -19q16 -47 16 -104q0 -75 -26.5 -145t-77 -128.5t-135 -94t-189.5 -35.5q-127 0 -224 56.5t-145 144
t-48 188.5q0 200 204 352l93 67q96 69 96 218q0 29 -4 65zM512 997q43 0 72.5 -29.5t29.5 -70.5q0 -43 -29.5 -72.5t-72.5 -29.5t-72.5 29.5t-29.5 72.5q0 41 29.5 70.5t72.5 29.5z" />
    <glyph glyph-name="Agrave" unicode="&#xc0;" horiz-adv-x="1421" 
d="M1237 0l-180 449h-695l-178 -449h-139l588 1452h155l588 -1452h-139zM709 1323l-299 -756h600zM645 1554l-274 244h172l219 -244h-117z" />
    <glyph glyph-name="Aacute" unicode="&#xc1;" horiz-adv-x="1421" 
d="M1237 0l-180 449h-695l-178 -449h-139l588 1452h155l588 -1452h-139zM709 1323l-299 -756h600zM1049 1798l-275 -244h-117l220 244h172z" />
    <glyph glyph-name="Acircumflex" unicode="&#xc2;" horiz-adv-x="1421" 
d="M1237 0l-180 449h-695l-178 -449h-139l588 1452h155l588 -1452h-139zM709 1323l-299 -756h600zM510 1554h-121l236 244h168l237 -244h-121l-200 172z" />
    <glyph glyph-name="Atilde" unicode="&#xc3;" horiz-adv-x="1421" 
d="M1237 0l-180 449h-695l-178 -449h-139l588 1452h155l588 -1452h-139zM709 1323l-299 -756h600zM1026 1784v-23q0 -93 -49.5 -145.5t-122.5 -52.5q-71 0 -135 47l-43 30q-59 41 -103 41q-79 0 -79 -112h-97v24q0 91 50 143t126 52q75 0 148 -55l37 -27q50 -37 92 -37
q80 0 80 115h96z" />
    <glyph glyph-name="Adieresis" unicode="&#xc4;" horiz-adv-x="1421" 
d="M866 1677q0 37 25.5 62.5t62.5 25.5t62.5 -25.5t25.5 -62.5t-25.5 -62.5t-62.5 -25.5t-62.5 25.5t-25.5 62.5zM379 1677q0 37 25.5 62.5t62.5 25.5t62.5 -25.5t25.5 -62.5t-25.5 -62.5t-62.5 -25.5t-62.5 25.5t-25.5 62.5zM1237 0l-180 449h-695l-178 -449h-139l588 1452
h155l588 -1452h-139zM709 1323l-299 -756h600z" />
    <glyph glyph-name="Aring" unicode="&#xc5;" horiz-adv-x="1421" 
d="M709 1323l-299 -756h600zM827 1573q0 53 -33.5 88t-84.5 35q-50 0 -83.5 -35.5t-33.5 -87.5t33.5 -86.5t83.5 -34.5q51 0 84.5 34.5t33.5 86.5zM926 1573q0 -58 -32 -107.5t-81 -76.5l563 -1389h-139l-180 449h-695l-178 -449h-139l563 1386q-52 27 -83 76.5t-31 110.5
q0 90 64 152.5t153 62.5q88 0 151.5 -62.5t63.5 -152.5z" />
    <glyph glyph-name="AE" unicode="&#xc6;" horiz-adv-x="2004" 
d="M1890 0h-856v449h-579l-293 -449h-162l967 1452h923v-119h-725v-547h662v-118h-662v-549h725v-119zM1034 1335l-502 -768h502v768z" />
    <glyph glyph-name="Ccedilla" unicode="&#xc7;" horiz-adv-x="1527" 
d="M764 -195l-49 60l69 108q-105 5 -204 38.5t-185 98t-150.5 151.5t-101.5 207t-37 257q0 141 39.5 264t108 211.5t159 152t193.5 95t211 31.5q241 0 407 -126t218 -337l-117 -41q-43 179 -177.5 282t-330.5 103q-113 0 -216 -41.5t-184.5 -119t-130 -200.5t-48.5 -274
q0 -150 48.5 -272.5t130 -200t184.5 -119t216 -41.5q199 0 335.5 107.5t182.5 283.5l113 -41q-50 -194 -199.5 -320.5t-363.5 -144.5l-62 -92q24 9 49 9q81 0 131 -43.5t50 -112.5q0 -73 -58.5 -120.5t-163.5 -47.5q-69 0 -128.5 27.5t-92.5 68.5l56 66q67 -80 163 -80
q59 0 93 22.5t34 63.5q0 39 -30 61.5t-86 22.5q-41 0 -76 -17z" />
    <glyph glyph-name="Egrave" unicode="&#xc8;" horiz-adv-x="1177" 
d="M629 1554l-275 244h172l219 -244h-116zM1063 0h-856v1452h856v-119h-725v-547h661v-118h-661v-549h725v-119z" />
    <glyph glyph-name="Eacute" unicode="&#xc9;" horiz-adv-x="1177" 
d="M905 1798l-274 -244h-117l219 244h172zM1063 0h-856v1452h856v-119h-725v-547h661v-118h-661v-549h725v-119z" />
    <glyph glyph-name="Ecircumflex" unicode="&#xca;" horiz-adv-x="1177" 
d="M438 1554h-121l236 244h168l237 -244h-120l-201 172zM1063 0h-856v1452h856v-119h-725v-547h661v-118h-661v-549h725v-119z" />
    <glyph glyph-name="Edieresis" unicode="&#xcb;" horiz-adv-x="1177" 
d="M1063 0h-856v1452h856v-119h-725v-547h661v-118h-661v-549h725v-119zM342 1677q0 37 25.5 62.5t62.5 25.5t62.5 -25.5t25.5 -62.5t-25.5 -62.5t-62.5 -25.5t-62.5 25.5t-25.5 62.5zM760 1677q0 37 25.5 62.5t62.5 25.5t62.5 -25.5t25.5 -62.5t-25.5 -62.5t-62.5 -25.5
t-62.5 25.5t-25.5 62.5z" />
    <glyph glyph-name="Igrave" unicode="&#xcc;" horiz-adv-x="544" 
d="M338 0h-131v1452h131v-1452zM213 1554l-274 244h172l219 -244h-117z" />
    <glyph glyph-name="Iacute" unicode="&#xcd;" horiz-adv-x="544" 
d="M338 0h-131v1452h131v-1452zM606 1798l-274 -244h-117l219 244h172z" />
    <glyph glyph-name="Icircumflex" unicode="&#xce;" horiz-adv-x="544" 
d="M338 0h-131v1452h131v-1452zM74 1554h-121l235 244h168l238 -244h-121l-201 172z" />
    <glyph glyph-name="Idieresis" unicode="&#xcf;" horiz-adv-x="544" 
d="M338 0h-131v1452h131v-1452zM55 1677q0 34 24 58t58 24t58 -24t24 -58t-24 -58t-58 -24t-58 24t-24 58zM328 1677q0 34 24 58t58 24t58 -24t24 -58t-24 -58t-58 -24t-58 24t-24 58z" />
    <glyph glyph-name="Eth" unicode="&#xd0;" horiz-adv-x="1460" 
d="M657 0h-448v694h-160v111h160v647h453q111 0 213 -29.5t189 -90t151 -146.5t100.5 -204.5t36.5 -258.5q0 -173 -56.5 -312.5t-153 -228t-221 -135.5t-264.5 -47zM338 115h315q115 0 216 38.5t179.5 112.5t124.5 191.5t46 265.5t-45 267t-123 193.5t-178.5 114
t-215.5 39.5h-319v-532h293v-111h-293v-579z" />
    <glyph glyph-name="Ntilde" unicode="&#xd1;" horiz-adv-x="1562" 
d="M1110 1784v-23q0 -93 -49.5 -145.5t-122.5 -52.5q-71 0 -135 47l-43 30q-59 41 -103 41q-79 0 -79 -112h-97v24q0 91 50 143t126 52q75 0 148 -55l37 -27q50 -37 92 -37q80 0 80 115h96zM1356 0h-139l-879 1290v-1290h-131v1452h180l838 -1239v1239h131v-1452z" />
    <glyph glyph-name="Ograve" unicode="&#xd2;" horiz-adv-x="1632" 
d="M772 1554l-274 244h172l219 -244h-117zM238 725q0 -150 48 -272.5t129.5 -200t184 -119t215.5 -41.5t216 41.5t185 119t130.5 200t48.5 272.5q0 151 -48.5 274t-130.5 200.5t-185 119t-216 41.5t-215.5 -41.5t-184 -119t-129.5 -200.5t-48 -274zM106 725
q0 176 60.5 321.5t161 238.5t226.5 143.5t261 50.5q108 0 211 -31.5t193.5 -95t159 -152t108 -211.5t39.5 -264t-39.5 -263.5t-108 -211t-159 -152t-193.5 -94.5t-211 -31t-210.5 31t-193 94.5t-158.5 152t-107.5 211t-39.5 263.5z" />
    <glyph glyph-name="Oacute" unicode="&#xd3;" horiz-adv-x="1632" 
d="M1133 1798l-275 -244h-117l220 244h172zM238 725q0 -150 48 -272.5t129.5 -200t184 -119t215.5 -41.5t216 41.5t185 119t130.5 200t48.5 272.5q0 151 -48.5 274t-130.5 200.5t-185 119t-216 41.5t-215.5 -41.5t-184 -119t-129.5 -200.5t-48 -274zM106 725
q0 176 60.5 321.5t161 238.5t226.5 143.5t261 50.5q108 0 211 -31.5t193.5 -95t159 -152t108 -211.5t39.5 -264t-39.5 -263.5t-108 -211t-159 -152t-193.5 -94.5t-211 -31t-210.5 31t-193 94.5t-158.5 152t-107.5 211t-39.5 263.5z" />
    <glyph glyph-name="Ocircumflex" unicode="&#xd4;" horiz-adv-x="1632" 
d="M616 1554h-120l235 244h168l238 -244h-121l-201 172zM238 725q0 -150 48 -272.5t129.5 -200t184 -119t215.5 -41.5t216 41.5t185 119t130.5 200t48.5 272.5q0 151 -48.5 274t-130.5 200.5t-185 119t-216 41.5t-215.5 -41.5t-184 -119t-129.5 -200.5t-48 -274zM106 725
q0 176 60.5 321.5t161 238.5t226.5 143.5t261 50.5q108 0 211 -31.5t193.5 -95t159 -152t108 -211.5t39.5 -264t-39.5 -263.5t-108 -211t-159 -152t-193.5 -94.5t-211 -31t-210.5 31t-193 94.5t-158.5 152t-107.5 211t-39.5 263.5z" />
    <glyph glyph-name="Otilde" unicode="&#xd5;" horiz-adv-x="1632" 
d="M1133 1784v-23q0 -93 -49.5 -145.5t-122.5 -52.5q-72 0 -136 47l-43 30q-59 41 -102 41q-80 0 -80 -112h-96v24q0 91 50 143t126 52q74 0 147 -55l37 -27q50 -37 92 -37q80 0 80 115h97zM238 725q0 -150 48 -272.5t129.5 -200t184 -119t215.5 -41.5t216 41.5t185 119
t130.5 200t48.5 272.5q0 151 -48.5 274t-130.5 200.5t-185 119t-216 41.5t-215.5 -41.5t-184 -119t-129.5 -200.5t-48 -274zM106 725q0 176 60.5 321.5t161 238.5t226.5 143.5t261 50.5q108 0 211 -31.5t193.5 -95t159 -152t108 -211.5t39.5 -264t-39.5 -263.5t-108 -211
t-159 -152t-193.5 -94.5t-211 -31t-210.5 31t-193 94.5t-158.5 152t-107.5 211t-39.5 263.5z" />
    <glyph glyph-name="Odieresis" unicode="&#xd6;" horiz-adv-x="1632" 
d="M436 1677q0 37 25.5 62.5t62.5 25.5t62.5 -25.5t25.5 -62.5t-25.5 -62.5t-62.5 -25.5t-62.5 25.5t-25.5 62.5zM1018 1677q0 37 25.5 62.5t62.5 25.5t62.5 -25.5t25.5 -62.5t-25.5 -62.5t-62.5 -25.5t-62.5 25.5t-25.5 62.5zM238 725q0 -150 48 -272.5t129.5 -200
t184 -119t215.5 -41.5t216 41.5t185 119t130.5 200t48.5 272.5q0 151 -48.5 274t-130.5 200.5t-185 119t-216 41.5t-215.5 -41.5t-184 -119t-129.5 -200.5t-48 -274zM106 725q0 176 60.5 321.5t161 238.5t226.5 143.5t261 50.5q108 0 211 -31.5t193.5 -95t159 -152
t108 -211.5t39.5 -264t-39.5 -263.5t-108 -211t-159 -152t-193.5 -94.5t-211 -31t-210.5 31t-193 94.5t-158.5 152t-107.5 211t-39.5 263.5z" />
    <glyph glyph-name="multiply" unicode="&#xd7;" horiz-adv-x="1165" 
d="M219 1165l365 -377l362 377l74 -73l-367 -379l369 -381l-74 -76l-366 381l-365 -379l-74 74l365 381l-363 377z" />
    <glyph glyph-name="Oslash" unicode="&#xd8;" horiz-adv-x="1634" 
d="M106 725q0 176 60.5 321.5t161 238.5t226.5 143.5t261 50.5q234 0 424 -142l152 197l88 -66l-158 -202q205 -212 205 -541q0 -141 -39.5 -263.5t-108 -211t-159 -152t-193.5 -94.5t-211 -31q-218 0 -401 123l-144 -184l-88 65l146 189q-104 100 -163 241t-59 318z
M238 725q0 -286 165 -461l762 979q-150 117 -350 117q-113 0 -215.5 -41.5t-184 -119t-129.5 -200.5t-48 -274zM1395 725q0 267 -152 442l-756 -974q143 -101 328 -101q113 0 216 41.5t185 119t130.5 200t48.5 272.5z" />
    <glyph glyph-name="Ugrave" unicode="&#xd9;" horiz-adv-x="1376" 
d="M680 1554l-274 244h172l219 -244h-117zM688 -27q-227 0 -362.5 133t-135.5 377v969h132v-963q0 -192 94 -294.5t272 -102.5t272.5 102.5t94.5 294.5v963h131v-969q0 -243 -135.5 -376.5t-362.5 -133.5z" />
    <glyph glyph-name="Uacute" unicode="&#xda;" horiz-adv-x="1376" 
d="M971 1798l-275 -244h-116l219 244h172zM688 -27q-227 0 -362.5 133t-135.5 377v969h132v-963q0 -192 94 -294.5t272 -102.5t272.5 102.5t94.5 294.5v963h131v-969q0 -243 -135.5 -376.5t-362.5 -133.5z" />
    <glyph glyph-name="Ucircumflex" unicode="&#xdb;" horiz-adv-x="1376" 
d="M489 1554h-120l235 244h168l238 -244h-121l-201 172zM688 -27q-227 0 -362.5 133t-135.5 377v969h132v-963q0 -192 94 -294.5t272 -102.5t272.5 102.5t94.5 294.5v963h131v-969q0 -243 -135.5 -376.5t-362.5 -133.5z" />
    <glyph glyph-name="Udieresis" unicode="&#xdc;" horiz-adv-x="1376" 
d="M399 1677q0 37 25.5 62.5t62.5 25.5t62.5 -25.5t25.5 -62.5t-25.5 -62.5t-62.5 -25.5t-62.5 25.5t-25.5 62.5zM807 1677q0 37 25.5 62.5t62.5 25.5t62.5 -25.5t25.5 -62.5t-25.5 -62.5t-62.5 -25.5t-62.5 25.5t-25.5 62.5zM688 -27q-227 0 -362.5 133t-135.5 377v969h132
v-963q0 -192 94 -294.5t272 -102.5t272.5 102.5t94.5 294.5v963h131v-969q0 -243 -135.5 -376.5t-362.5 -133.5z" />
    <glyph glyph-name="Yacute" unicode="&#xdd;" horiz-adv-x="1261" 
d="M567 621l-508 831h154l418 -711l420 711h151l-508 -831v-621h-127v621zM911 1798l-274 -244h-117l219 244h172z" />
    <glyph glyph-name="Thorn" unicode="&#xde;" horiz-adv-x="1198" 
d="M338 0h-131v1452h131v-299h348q197 0 320.5 -119t123.5 -301t-123 -300t-321 -118h-348v-315zM338 432h328q153 0 243 83t90 218t-90 219t-243 84h-328v-604z" />
    <glyph glyph-name="germandbls" unicode="&#xdf;" horiz-adv-x="1116" 
d="M678 702q0 -20 13.5 -38t28.5 -27.5t48 -28.5l78 -41q88 -45 143 -121.5t55 -173.5q0 -54 -20 -106.5t-58 -96t-100 -70t-139 -26.5q-81 0 -144.5 27t-99.5 70.5t-54.5 91.5t-20.5 96l114 29q1 -34 12.5 -68t34 -66.5t64 -52.5t94.5 -20q92 0 143.5 55.5t51.5 126.5
q0 129 -144 205l-78 41q-145 75 -145 190q0 104 102 174l78 54q117 75 117 204q0 101 -72.5 169.5t-197.5 68.5q-127 0 -211 -97t-84 -270v-1001h-123v1008q0 109 33 199t89.5 149t132.5 91t163 32q177 0 285 -98.5t108 -247.5q0 -182 -160 -289l-76 -51q-31 -21 -46 -41
t-15 -50z" />
    <glyph glyph-name="agrave" unicode="&#xe0;" horiz-adv-x="1024" 
d="M412 -25q-147 0 -233.5 82.5t-86.5 194.5q0 121 78 194.5t215 94.5l260 39q59 8 81 32t22 62q0 99 -64.5 160t-181.5 61t-190 -60.5t-85 -166.5l-114 24q17 139 123.5 224t263.5 85q182 0 276 -95.5t94 -243.5v-494q0 -91 15 -168h-121q-12 69 -12 168
q-38 -78 -127 -135.5t-213 -57.5zM426 80q142 0 232 86.5t90 232.5v111q-16 -16 -72 -25l-273 -41q-88 -12 -137 -60t-49 -126q0 -72 56.5 -125t152.5 -53zM471 1100l-242 284h156l182 -284h-96z" />
    <glyph glyph-name="aacute" unicode="&#xe1;" horiz-adv-x="1024" 
d="M412 -25q-147 0 -233.5 82.5t-86.5 194.5q0 121 78 194.5t215 94.5l260 39q59 8 81 32t22 62q0 99 -64.5 160t-181.5 61t-190 -60.5t-85 -166.5l-114 24q17 139 123.5 224t263.5 85q182 0 276 -95.5t94 -243.5v-494q0 -91 15 -168h-121q-12 69 -12 168
q-38 -78 -127 -135.5t-213 -57.5zM426 80q142 0 232 86.5t90 232.5v111q-16 -16 -72 -25l-273 -41q-88 -12 -137 -60t-49 -126q0 -72 56.5 -125t152.5 -53zM782 1384l-241 -284h-101l183 284h159z" />
    <glyph glyph-name="acircumflex" unicode="&#xe2;" horiz-adv-x="1024" 
d="M322 1102h-111l225 280h148l225 -280h-111l-188 203zM412 -25q-147 0 -233.5 82.5t-86.5 194.5q0 121 78 194.5t215 94.5l260 39q59 8 81 32t22 62q0 99 -64.5 160t-181.5 61t-190 -60.5t-85 -166.5l-114 24q17 139 123.5 224t263.5 85q182 0 276 -95.5t94 -243.5v-494
q0 -91 15 -168h-121q-12 69 -12 168q-38 -78 -127 -135.5t-213 -57.5zM426 80q142 0 232 86.5t90 232.5v111q-16 -16 -72 -25l-273 -41q-88 -12 -137 -60t-49 -126q0 -72 56.5 -125t152.5 -53z" />
    <glyph glyph-name="atilde" unicode="&#xe3;" horiz-adv-x="1024" 
d="M412 -25q-147 0 -233.5 82.5t-86.5 194.5q0 121 78 194.5t215 94.5l260 39q59 8 81 32t22 62q0 99 -64.5 160t-181.5 61t-190 -60.5t-85 -166.5l-114 24q17 139 123.5 224t263.5 85q182 0 276 -95.5t94 -243.5v-494q0 -91 15 -168h-121q-12 69 -12 168
q-38 -78 -127 -135.5t-213 -57.5zM426 80q142 0 232 86.5t90 232.5v111q-16 -16 -72 -25l-273 -41q-88 -12 -137 -60t-49 -126q0 -72 56.5 -125t152.5 -53zM821 1350v-23q0 -93 -49 -146t-121 -53q-67 0 -133 48l-43 30q-59 41 -100 41q-78 0 -78 -112h-96v24q0 91 49 143
t125 52q71 0 145 -56l37 -26q50 -37 90 -37q78 0 78 115h96z" />
    <glyph glyph-name="adieresis" unicode="&#xe4;" horiz-adv-x="1024" 
d="M596 1251q0 35 25.5 60.5t60.5 25.5t60.5 -25.5t25.5 -60.5t-25.5 -60.5t-60.5 -25.5t-60.5 25.5t-25.5 60.5zM236 1251q0 35 25.5 60.5t60.5 25.5t60.5 -25.5t25.5 -60.5t-25.5 -60.5t-60.5 -25.5t-60.5 25.5t-25.5 60.5zM412 -25q-147 0 -233.5 82.5t-86.5 194.5
q0 121 78 194.5t215 94.5l260 39q59 8 81 32t22 62q0 99 -64.5 160t-181.5 61t-190 -60.5t-85 -166.5l-114 24q17 139 123.5 224t263.5 85q182 0 276 -95.5t94 -243.5v-494q0 -91 15 -168h-121q-12 69 -12 168q-38 -78 -127 -135.5t-213 -57.5zM426 80q142 0 232 86.5
t90 232.5v111q-16 -16 -72 -25l-273 -41q-88 -12 -137 -60t-49 -126q0 -72 56.5 -125t152.5 -53z" />
    <glyph glyph-name="aring" unicode="&#xe5;" horiz-adv-x="1024" 
d="M412 -25q-147 0 -233.5 82.5t-86.5 194.5q0 121 78 194.5t215 94.5l260 39q59 8 81 32t22 62q0 99 -64.5 160t-181.5 61t-190 -60.5t-85 -166.5l-114 24q17 139 123.5 224t263.5 85q182 0 276 -95.5t94 -243.5v-494q0 -91 15 -168h-121q-12 69 -12 168
q-38 -78 -127 -135.5t-213 -57.5zM426 80q142 0 232 86.5t90 232.5v111q-16 -16 -72 -25l-273 -41q-88 -12 -137 -60t-49 -126q0 -72 56.5 -125t152.5 -53zM719 1300q0 -89 -63 -152t-152 -63q-88 0 -151.5 63t-63.5 152t63.5 152.5t151.5 63.5q89 0 152 -63.5t63 -152.5z
M629 1300q0 55 -35.5 92.5t-89.5 37.5t-89.5 -37.5t-35.5 -92.5q0 -54 35.5 -91.5t89.5 -37.5t89.5 37.5t35.5 91.5z" />
    <glyph glyph-name="ae" unicode="&#xe6;" horiz-adv-x="1746" 
d="M428 78q142 0 232 87t90 234v119q-10 -11 -51 -23.5t-78 -17.5l-220 -33q-86 -12 -134 -60t-48 -126q0 -73 56 -126.5t153 -53.5zM877 567h651q-3 142 -90 234t-236 92q-134 0 -225 -94t-100 -232zM414 -27q-147 0 -234.5 83.5t-87.5 195.5q0 121 78 194t217 95l260 39
q103 16 103 96q0 99 -65 160t-181 61q-117 0 -189.5 -61.5t-83.5 -167.5l-118 26q17 140 124.5 225t264.5 85q130 0 217 -51t125 -140q61 91 155 141t201 50q213 0 334 -136.5t123 -357.5q0 -29 -2 -45h-783v-25q6 -159 106.5 -257.5t244.5 -98.5q125 0 205.5 63.5
t113.5 167.5l109 -39q-44 -133 -155.5 -218t-272.5 -85q-134 0 -243.5 65.5t-170.5 186.5q-46 -111 -144.5 -181.5t-250.5 -70.5z" />
    <glyph glyph-name="ccedilla" unicode="&#xe7;" horiz-adv-x="1083" 
d="M516 -195l-49 60l72 110q-195 14 -319 156t-124 356q0 225 136.5 371t342.5 146q165 0 273.5 -87.5t144.5 -220.5l-108 -45q-13 47 -36.5 87t-60 76.5t-91.5 57.5t-122 21q-151 0 -253.5 -111t-102.5 -295q0 -182 102 -292.5t254 -110.5q67 0 123.5 21.5t94.5 58
t62.5 76.5t37.5 84l108 -45q-35 -114 -129.5 -200t-234.5 -102l-62 -92q24 9 50 9q81 0 130.5 -43.5t49.5 -112.5q0 -74 -58 -121t-163 -47q-69 0 -129 27.5t-93 68.5l56 66q67 -80 164 -80q59 0 93 22.5t34 63.5q0 39 -30.5 61.5t-86.5 22.5q-41 0 -76 -17z" />
    <glyph glyph-name="egrave" unicode="&#xe8;" horiz-adv-x="1095" 
d="M225 567h652q-3 142 -90 234t-236 92q-134 0 -225.5 -94t-100.5 -232zM891 315l108 -39q-44 -133 -155.5 -218t-272.5 -85q-97 0 -183 35.5t-151 100.5t-103 164t-38 219q0 112 36.5 209t98.5 162.5t144.5 103t173.5 37.5q213 0 334 -136.5t123 -357.5q0 -29 -2 -45h-783
v-8q1 -83 28.5 -153t74.5 -118t111 -75t136 -27q125 0 206 63.5t114 167.5zM522 1100l-241 284h155l182 -284h-96z" />
    <glyph glyph-name="eacute" unicode="&#xe9;" horiz-adv-x="1095" 
d="M846 1384l-242 -284h-100l182 284h160zM225 567h652q-3 142 -90 234t-236 92q-134 0 -225.5 -94t-100.5 -232zM891 315l108 -39q-44 -133 -155.5 -218t-272.5 -85q-97 0 -183 35.5t-151 100.5t-103 164t-38 219q0 112 36.5 209t98.5 162.5t144.5 103t173.5 37.5
q213 0 334 -136.5t123 -357.5q0 -29 -2 -45h-783v-8q1 -83 28.5 -153t74.5 -118t111 -75t136 -27q125 0 206 63.5t114 167.5z" />
    <glyph glyph-name="ecircumflex" unicode="&#xea;" horiz-adv-x="1095" 
d="M362 1102h-110l225 280h148l225 -280h-111l-188 203zM225 567h652q-3 142 -90 234t-236 92q-134 0 -225.5 -94t-100.5 -232zM891 315l108 -39q-44 -133 -155.5 -218t-272.5 -85q-97 0 -183 35.5t-151 100.5t-103 164t-38 219q0 112 36.5 209t98.5 162.5t144.5 103
t173.5 37.5q213 0 334 -136.5t123 -357.5q0 -29 -2 -45h-783v-8q1 -83 28.5 -153t74.5 -118t111 -75t136 -27q125 0 206 63.5t114 167.5z" />
    <glyph glyph-name="edieresis" unicode="&#xeb;" horiz-adv-x="1095" 
d="M647 1251q0 35 25.5 60.5t60.5 25.5t60.5 -25.5t25.5 -60.5t-25.5 -60.5t-60.5 -25.5t-60.5 25.5t-25.5 60.5zM287 1251q0 35 25.5 60.5t60.5 25.5t60.5 -25.5t25.5 -60.5t-25.5 -60.5t-60.5 -25.5t-60.5 25.5t-25.5 60.5zM225 567h652q-3 142 -90 234t-236 92
q-134 0 -225.5 -94t-100.5 -232zM891 315l108 -39q-44 -133 -155.5 -218t-272.5 -85q-97 0 -183 35.5t-151 100.5t-103 164t-38 219q0 112 36.5 209t98.5 162.5t144.5 103t173.5 37.5q213 0 334 -136.5t123 -357.5q0 -29 -2 -45h-783v-8q1 -83 28.5 -153t74.5 -118t111 -75
t136 -27q125 0 206 63.5t114 167.5z" />
    <glyph glyph-name="igrave" unicode="&#xec;" horiz-adv-x="450" 
d="M287 0h-123v977h123v-977zM184 1100l-241 284h155l183 -284h-97z" />
    <glyph glyph-name="iacute" unicode="&#xed;" horiz-adv-x="450" 
d="M516 1384l-242 -284h-100l182 284h160zM287 0h-123v977h123v-977z" />
    <glyph glyph-name="icircumflex" unicode="&#xee;" horiz-adv-x="450" 
d="M37 1102h-111l226 280h147l225 -280h-110l-189 203zM287 0h-123v977h123v-977z" />
    <glyph glyph-name="idieresis" unicode="&#xef;" horiz-adv-x="450" 
d="M287 0h-123v977h123v-977zM14 1249q0 34 24 58t58 24t58 -24t24 -58t-24 -58t-58 -24t-58 24t-24 58zM272 1249q0 34 24 58t58 24t58 -24t24 -58t-24 -58t-58 -24t-58 24t-24 58z" />
    <glyph glyph-name="eth" unicode="&#xf0;" horiz-adv-x="1159" 
d="M961 1331l-195 -96q131 -130 208 -312t77 -401q0 -157 -55.5 -280.5t-165 -196t-257.5 -72.5q-209 0 -343 140.5t-134 351.5q0 109 38.5 201t103 153t147 95t172.5 34q106 0 193.5 -40t138.5 -117q-64 230 -234 389l-272 -138l-39 84l227 113q-127 98 -280 139l39 101
q195 -52 358 -181l232 117zM573 84q158 0 256.5 112t98.5 287q0 160 -104 257.5t-251 97.5q-95 0 -175 -43t-129.5 -129.5t-49.5 -200.5q0 -170 101.5 -275.5t252.5 -105.5z" />
    <glyph glyph-name="ntilde" unicode="&#xf1;" horiz-adv-x="1099" 
d="M881 1350v-23q0 -93 -49 -146t-121 -53q-67 0 -133 48l-43 30q-59 41 -101 41q-78 0 -78 -112h-96v24q0 91 49 143t125 52q72 0 146 -56l36 -26q50 -37 91 -37q77 0 77 115h97zM287 584v-584h-123v977h119v-156q41 81 124.5 130.5t192.5 49.5q165 0 255.5 -103t90.5 -261
v-637h-123v616q0 124 -65 199.5t-199 75.5q-122 0 -197 -89t-75 -218z" />
    <glyph glyph-name="ograve" unicode="&#xf2;" horiz-adv-x="1163" 
d="M537 1100l-242 284h156l182 -284h-96zM582 -27q-101 0 -190.5 38t-154.5 104.5t-103 163t-38 208.5q0 227 139 370.5t347 143.5q207 0 346 -143.5t139 -370.5q0 -226 -139 -370t-346 -144zM221 487q0 -184 105 -293.5t256 -109.5t255.5 109.5t104.5 293.5
q0 185 -104.5 294.5t-255.5 109.5t-256 -109.5t-105 -294.5z" />
    <glyph glyph-name="oacute" unicode="&#xf3;" horiz-adv-x="1163" 
d="M850 1384l-242 -284h-100l182 284h160zM582 -27q-101 0 -190.5 38t-154.5 104.5t-103 163t-38 208.5q0 227 139 370.5t347 143.5q207 0 346 -143.5t139 -370.5q0 -226 -139 -370t-346 -144zM221 487q0 -184 105 -293.5t256 -109.5t255.5 109.5t104.5 293.5
q0 185 -104.5 294.5t-255.5 109.5t-256 -109.5t-105 -294.5z" />
    <glyph glyph-name="ocircumflex" unicode="&#xf4;" horiz-adv-x="1163" 
d="M387 1102h-111l226 280h147l225 -280h-110l-189 203zM582 -27q-101 0 -190.5 38t-154.5 104.5t-103 163t-38 208.5q0 227 139 370.5t347 143.5q207 0 346 -143.5t139 -370.5q0 -226 -139 -370t-346 -144zM221 487q0 -184 105 -293.5t256 -109.5t255.5 109.5t104.5 293.5
q0 185 -104.5 294.5t-255.5 109.5t-256 -109.5t-105 -294.5z" />
    <glyph glyph-name="otilde" unicode="&#xf5;" horiz-adv-x="1163" 
d="M582 -27q-101 0 -190.5 38t-154.5 104.5t-103 163t-38 208.5q0 227 139 370.5t347 143.5q207 0 346 -143.5t139 -370.5q0 -226 -139 -370t-346 -144zM221 487q0 -184 105 -293.5t256 -109.5t255.5 109.5t104.5 293.5q0 185 -104.5 294.5t-255.5 109.5t-256 -109.5
t-105 -294.5zM889 1350v-23q0 -93 -49 -146t-121 -53q-67 0 -133 48l-43 30q-59 41 -101 41q-77 0 -77 -112h-97v24q0 91 49 143t125 52q72 0 146 -56l37 -26q50 -37 90 -37q78 0 78 115h96z" />
    <glyph glyph-name="odieresis" unicode="&#xf6;" horiz-adv-x="1163" 
d="M672 1251q0 35 25.5 60.5t60.5 25.5t60.5 -25.5t25.5 -60.5t-25.5 -60.5t-60.5 -25.5t-60.5 25.5t-25.5 60.5zM311 1251q0 35 25.5 60.5t60.5 25.5t60.5 -25.5t25.5 -60.5t-25.5 -60.5t-60.5 -25.5t-60.5 25.5t-25.5 60.5zM582 -27q-101 0 -190.5 38t-154.5 104.5
t-103 163t-38 208.5q0 227 139 370.5t347 143.5q207 0 346 -143.5t139 -370.5q0 -226 -139 -370t-346 -144zM221 487q0 -184 105 -293.5t256 -109.5t255.5 109.5t104.5 293.5q0 185 -104.5 294.5t-255.5 109.5t-256 -109.5t-105 -294.5z" />
    <glyph glyph-name="divide" unicode="&#xf7;" horiz-adv-x="1228" 
d="M514 348q0 39 29.5 67.5t68.5 28.5q40 0 69.5 -28.5t29.5 -67.5q0 -40 -29.5 -69t-69.5 -29q-39 0 -68.5 29.5t-29.5 68.5zM1067 659h-905v109h905v-109zM514 1075q0 41 29.5 70t68.5 29q40 0 69.5 -29t29.5 -70q0 -39 -29.5 -68.5t-69.5 -29.5q-38 0 -68 30t-30 68z" />
    <glyph glyph-name="oslash" unicode="&#xf8;" 
d="M578 1004q154 0 276 -89l113 146l80 -64l-117 -149q129 -145 129 -361q0 -226 -138 -370t-343 -144q-150 0 -269 80l-106 -137l-78 64l108 139q-135 145 -135 368q0 228 137 372.5t343 144.5zM221 487q0 -164 86 -274l477 612q-89 68 -206 68q-149 0 -253 -110.5
t-104 -295.5zM578 84q151 0 254.5 109.5t103.5 293.5q0 156 -80 267l-475 -611q86 -59 197 -59z" />
    <glyph glyph-name="ugrave" unicode="&#xf9;" horiz-adv-x="1103" 
d="M823 152q-37 -76 -117.5 -127.5t-189.5 -51.5q-119 0 -203.5 55.5t-122.5 141.5t-38 192v615h122v-594q0 -129 65 -214t200 -85q127 0 201.5 85t74.5 212v596h123v-791q0 -100 12 -186h-116q-11 55 -11 137v15zM537 1100l-242 284h156l182 -284h-96z" />
    <glyph glyph-name="uacute" unicode="&#xfa;" horiz-adv-x="1103" 
d="M788 1384l-241 -284h-101l183 284h159zM823 152q-37 -76 -117.5 -127.5t-189.5 -51.5q-119 0 -203.5 55.5t-122.5 141.5t-38 192v615h122v-594q0 -129 65 -214t200 -85q127 0 201.5 85t74.5 212v596h123v-791q0 -100 12 -186h-116q-11 55 -11 137v15z" />
    <glyph glyph-name="ucircumflex" unicode="&#xfb;" horiz-adv-x="1103" 
d="M358 1102h-110l225 280h148l225 -280h-111l-188 203zM823 152q-37 -76 -117.5 -127.5t-189.5 -51.5q-119 0 -203.5 55.5t-122.5 141.5t-38 192v615h122v-594q0 -129 65 -214t200 -85q127 0 201.5 85t74.5 212v596h123v-791q0 -100 12 -186h-116q-11 55 -11 137v15z" />
    <glyph glyph-name="udieresis" unicode="&#xfc;" horiz-adv-x="1103" 
d="M637 1251q0 35 25.5 60.5t60.5 25.5t60.5 -25.5t25.5 -60.5t-25.5 -60.5t-60.5 -25.5t-60.5 25.5t-25.5 60.5zM276 1251q0 35 25.5 60.5t60.5 25.5t61 -25.5t26 -60.5t-26 -60.5t-61 -25.5t-60.5 25.5t-25.5 60.5zM823 152q-37 -76 -117.5 -127.5t-189.5 -51.5
q-119 0 -203.5 55.5t-122.5 141.5t-38 192v615h122v-594q0 -129 65 -214t200 -85q127 0 201.5 85t74.5 212v596h123v-791q0 -100 12 -186h-116q-11 55 -11 137v15z" />
    <glyph glyph-name="yacute" unicode="&#xfd;" horiz-adv-x="1026" 
d="M356 -389h-133l244 516l-416 850h137l342 -721l324 721h135zM764 1384l-242 -284h-100l182 284h160z" />
    <glyph glyph-name="thorn" unicode="&#xfe;" horiz-adv-x="1181" 
d="M164 1479h123v-693q19 40 49 76t72.5 69t103 53t129.5 20q135 0 236.5 -68.5t153.5 -185t52 -261.5q0 -146 -53.5 -262.5t-156 -185t-236.5 -68.5q-67 0 -126 18.5t-101.5 50.5t-72.5 67.5t-50 74.5v-573h-123v1868zM961 489q0 174 -94 289t-246 115q-150 0 -243 -115.5
t-93 -288.5q0 -176 93 -290.5t243 -114.5q152 0 246 115.5t94 289.5z" />
    <glyph glyph-name="ydieresis" unicode="&#xff;" horiz-adv-x="1026" 
d="M614 1251q0 35 25.5 60.5t60.5 25.5t60.5 -25.5t25.5 -60.5t-25.5 -60.5t-60.5 -25.5t-60.5 25.5t-25.5 60.5zM254 1251q0 35 25.5 60.5t60.5 25.5t60.5 -25.5t25.5 -60.5t-25.5 -60.5t-60.5 -25.5t-60.5 25.5t-25.5 60.5zM356 -389h-133l244 516l-416 850h137l342 -721
l324 721h135z" />
    <glyph glyph-name="Amacron" unicode="&#x100;" horiz-adv-x="1421" 
d="M1237 0l-180 449h-695l-178 -449h-139l588 1452h155l588 -1452h-139zM709 1323l-299 -756h600zM987 1624h-557v107h557v-107z" />
    <glyph glyph-name="amacron" unicode="&#x101;" horiz-adv-x="1024" 
d="M412 -25q-147 0 -233.5 82.5t-86.5 194.5q0 121 78 194.5t215 94.5l260 39q59 8 81 32t22 62q0 99 -64.5 160t-181.5 61t-190 -60.5t-85 -166.5l-114 24q17 139 123.5 224t263.5 85q182 0 276 -95.5t94 -243.5v-494q0 -91 15 -168h-121q-12 69 -12 168
q-38 -78 -127 -135.5t-213 -57.5zM426 80q142 0 232 86.5t90 232.5v111q-16 -16 -72 -25l-273 -41q-88 -12 -137 -60t-49 -126q0 -72 56.5 -125t152.5 -53zM768 1194h-520v102h520v-102z" />
    <glyph glyph-name="Abreve" unicode="&#x102;" horiz-adv-x="1421" 
d="M1237 0l-180 449h-695l-178 -449h-139l588 1452h155l588 -1452h-139zM709 1323l-299 -756h600zM711 1544q-131 0 -210 76t-87 182h106q7 -66 55.5 -113t135.5 -47t135 47.5t53 112.5h107q-6 -106 -85 -182t-210 -76z" />
    <glyph glyph-name="abreve" unicode="&#x103;" horiz-adv-x="1024" 
d="M412 -25q-147 0 -233.5 82.5t-86.5 194.5q0 121 78 194.5t215 94.5l260 39q59 8 81 32t22 62q0 99 -64.5 160t-181.5 61t-190 -60.5t-85 -166.5l-114 24q17 139 123.5 224t263.5 85q182 0 276 -95.5t94 -243.5v-494q0 -91 15 -168h-121q-12 69 -12 168
q-38 -78 -127 -135.5t-213 -57.5zM426 80q142 0 232 86.5t90 232.5v111q-16 -16 -72 -25l-273 -41q-88 -12 -137 -60t-49 -126q0 -72 56.5 -125t152.5 -53zM506 1102q-132 0 -208.5 84.5t-78.5 197.5h96q3 -74 52 -128t139 -54t138.5 54t51.5 128h97q-2 -113 -78.5 -197.5
t-208.5 -84.5z" />
    <glyph glyph-name="Aogonek" unicode="&#x104;" horiz-adv-x="1421" 
d="M1237 0l-180 449h-695l-178 -449h-139l588 1452h155l588 -1452q-69 -35 -119.5 -91.5t-50.5 -125.5q0 -56 37 -86.5t92 -30.5q40 0 70 10v-90q-40 -16 -92 -16q-91 0 -151 51t-60 139q0 144 149 240h-14zM709 1323l-299 -756h600z" />
    <glyph glyph-name="aogonek" unicode="&#x105;" horiz-adv-x="1024" 
d="M610 -240q0 144 152 242q-10 63 -10 166q-38 -78 -127 -135.5t-213 -57.5q-147 0 -233.5 82.5t-86.5 194.5q0 121 78 194.5t215 94.5l260 39q59 8 81 32t22 62q0 99 -64.5 160t-181.5 61t-190 -60.5t-85 -166.5l-114 24q17 139 123.5 224t263.5 85q182 0 276 -95.5
t94 -243.5v-494q0 -91 15 -168q-69 -35 -119.5 -91.5t-50.5 -125.5q0 -56 37 -86.5t92 -30.5q39 0 69 10v-90q-40 -16 -92 -16q-91 0 -151 51t-60 139zM426 80q142 0 232 86.5t90 232.5v111q-16 -16 -72 -25l-273 -41q-88 -12 -137 -60t-49 -126q0 -72 56.5 -125t152.5 -53z
" />
    <glyph glyph-name="Cacute" unicode="&#x106;" horiz-adv-x="1527" 
d="M1116 1798l-274 -244h-117l219 244h172zM817 -27q-109 0 -212 31t-193.5 94.5t-158.5 152t-107.5 211t-39.5 263.5t39.5 264t108 211.5t159 152t193.5 95t211 31.5q241 0 407 -126t218 -337l-117 -41q-43 179 -177.5 282t-330.5 103q-113 0 -216 -41.5t-184.5 -119
t-130 -200.5t-48.5 -274q0 -150 48.5 -272.5t130 -200t184.5 -119t216 -41.5q199 0 335.5 107.5t182.5 283.5l113 -41q-54 -209 -222.5 -339t-408.5 -130z" />
    <glyph glyph-name="cacute" unicode="&#x107;" horiz-adv-x="1083" 
d="M852 1384l-242 -284h-100l182 284h160zM575 893q-151 0 -253.5 -111t-102.5 -295q0 -182 102 -292.5t254 -110.5q67 0 123.5 21.5t94.5 58t62.5 76.5t37.5 84l108 -45q-18 -59 -53.5 -112t-87.5 -97.5t-126 -70.5t-159 -26q-207 0 -343 145t-136 369q0 225 136.5 371
t342.5 146q165 0 273.5 -87.5t144.5 -220.5l-108 -45q-13 47 -36.5 87t-60 76.5t-91.5 57.5t-122 21z" />
    <glyph glyph-name="Ccircumflex" unicode="&#x108;" horiz-adv-x="1527" 
d="M618 1554h-120l235 244h168l238 -244h-121l-201 172zM817 -27q-109 0 -212 31t-193.5 94.5t-158.5 152t-107.5 211t-39.5 263.5t39.5 264t108 211.5t159 152t193.5 95t211 31.5q241 0 407 -126t218 -337l-117 -41q-43 179 -177.5 282t-330.5 103q-113 0 -216 -41.5
t-184.5 -119t-130 -200.5t-48.5 -274q0 -150 48.5 -272.5t130 -200t184.5 -119t216 -41.5q199 0 335.5 107.5t182.5 283.5l113 -41q-54 -209 -222.5 -339t-408.5 -130z" />
    <glyph glyph-name="ccircumflex" unicode="&#x109;" horiz-adv-x="1083" 
d="M391 1102h-110l225 280h147l226 -280h-111l-188 203zM575 893q-151 0 -253.5 -111t-102.5 -295q0 -182 102 -292.5t254 -110.5q67 0 123.5 21.5t94.5 58t62.5 76.5t37.5 84l108 -45q-18 -59 -53.5 -112t-87.5 -97.5t-126 -70.5t-159 -26q-207 0 -343 145t-136 369
q0 225 136.5 371t342.5 146q165 0 273.5 -87.5t144.5 -220.5l-108 -45q-13 47 -36.5 87t-60 76.5t-91.5 57.5t-122 21z" />
    <glyph glyph-name="Cdotaccent" unicode="&#x10a;" horiz-adv-x="1527" 
d="M817 -27q-109 0 -212 31t-193.5 94.5t-158.5 152t-107.5 211t-39.5 263.5t39.5 264t108 211.5t159 152t193.5 95t211 31.5q241 0 407 -126t218 -337l-117 -41q-43 179 -177.5 282t-330.5 103q-113 0 -216 -41.5t-184.5 -119t-130 -200.5t-48.5 -274q0 -150 48.5 -272.5
t130 -200t184.5 -119t216 -41.5q199 0 335.5 107.5t182.5 283.5l113 -41q-54 -209 -222.5 -339t-408.5 -130zM725 1675q0 40 28 68.5t68 28.5t68.5 -28.5t28.5 -68.5t-28.5 -68t-68.5 -28t-68 28t-28 68z" />
    <glyph glyph-name="cdotaccent" unicode="&#x10b;" horiz-adv-x="1083" 
d="M575 893q-151 0 -253.5 -111t-102.5 -295q0 -182 102 -292.5t254 -110.5q67 0 123.5 21.5t94.5 58t62.5 76.5t37.5 84l108 -45q-18 -59 -53.5 -112t-87.5 -97.5t-126 -70.5t-159 -26q-207 0 -343 145t-136 369q0 225 136.5 371t342.5 146q165 0 273.5 -87.5t144.5 -220.5
l-108 -45q-13 47 -36.5 87t-60 76.5t-91.5 57.5t-122 21zM485 1243q0 40 28.5 68t68.5 28t68 -28t28 -68t-28 -68t-68 -28t-68.5 28t-28.5 68z" />
    <glyph glyph-name="Ccaron" unicode="&#x10c;" horiz-adv-x="1527" 
d="M498 1798h120l199 -172l201 172h121l-238 -244h-168zM817 -27q-109 0 -212 31t-193.5 94.5t-158.5 152t-107.5 211t-39.5 263.5t39.5 264t108 211.5t159 152t193.5 95t211 31.5q241 0 407 -126t218 -337l-117 -41q-43 179 -177.5 282t-330.5 103q-113 0 -216 -41.5
t-184.5 -119t-130 -200.5t-48.5 -274q0 -150 48.5 -272.5t130 -200t184.5 -119t216 -41.5q199 0 335.5 107.5t182.5 283.5l113 -41q-54 -209 -222.5 -339t-408.5 -130z" />
    <glyph glyph-name="ccaron" unicode="&#x10d;" horiz-adv-x="1083" 
d="M268 1382h111l188 -202l189 202h110l-225 -280h-147zM575 893q-151 0 -253.5 -111t-102.5 -295q0 -182 102 -292.5t254 -110.5q67 0 123.5 21.5t94.5 58t62.5 76.5t37.5 84l108 -45q-18 -59 -53.5 -112t-87.5 -97.5t-126 -70.5t-159 -26q-207 0 -343 145t-136 369
q0 225 136.5 371t342.5 146q165 0 273.5 -87.5t144.5 -220.5l-108 -45q-13 47 -36.5 87t-60 76.5t-91.5 57.5t-122 21z" />
    <glyph glyph-name="Dcaron" unicode="&#x10e;" horiz-adv-x="1458" 
d="M397 1798h121l199 -172l201 172h120l-237 -244h-168zM336 115h315q115 0 216 38.5t179.5 112.5t124.5 191.5t46 265.5t-45 267t-123 193.5t-178.5 114t-215.5 39.5h-319v-1222zM655 0h-448v1452h452q140 0 264 -47.5t219.5 -137t151.5 -230t56 -314.5
q0 -173 -56.5 -312.5t-153 -228t-221 -135.5t-264.5 -47z" />
    <glyph glyph-name="dcaron" unicode="&#x10f;" horiz-adv-x="1175" 
d="M1307 1479l-119 -361h-94l73 361h140zM219 489q0 -175 93 -290t245 -115q150 0 241 115t91 290q0 176 -90.5 290t-239.5 114q-153 0 -246.5 -113t-93.5 -291zM889 154v39q-17 -40 -45.5 -77t-69.5 -70t-100 -53t-127 -20q-202 0 -326.5 147t-124.5 369q0 219 126 367
t325 148q74 0 135.5 -20.5t101 -54.5t64 -67t39.5 -69v686h123v-1293q0 -136 10 -186h-121q-10 62 -10 154z" />
    <glyph glyph-name="Dcroat" unicode="&#x110;" horiz-adv-x="1460" 
d="M657 0h-448v694h-160v111h160v647h453q111 0 213 -29.5t189 -90t151 -146.5t100.5 -204.5t36.5 -258.5q0 -173 -56.5 -312.5t-153 -228t-221 -135.5t-264.5 -47zM338 115h315q115 0 216 38.5t179.5 112.5t124.5 191.5t46 265.5t-45 267t-123 193.5t-178.5 114
t-215.5 39.5h-319v-532h293v-111h-293v-579z" />
    <glyph glyph-name="dcroat" unicode="&#x111;" horiz-adv-x="1175" 
d="M889 154v39q-17 -40 -45.5 -77t-69.5 -70t-100 -53t-127 -20q-202 0 -326.5 147t-124.5 369q0 219 126 367t325 148q74 0 135.5 -20.5t101 -54.5t64 -67t39.5 -69v374h-271v103h271v209h123v-209h192v-103h-192v-981q0 -136 10 -186h-121q-10 62 -10 154zM219 489
q0 -175 93 -290t245 -115q150 0 241 115t91 290q0 176 -90.5 290t-239.5 114q-153 0 -246.5 -113t-93.5 -291z" />
    <glyph glyph-name="Emacron" unicode="&#x112;" horiz-adv-x="1177" 
d="M1063 0h-856v1452h856v-119h-725v-547h661v-118h-661v-549h725v-119zM911 1624h-557v107h557v-107z" />
    <glyph glyph-name="emacron" unicode="&#x113;" horiz-adv-x="1095" 
d="M811 1194h-520v102h520v-102zM225 567h652q-3 142 -90 234t-236 92q-134 0 -225.5 -94t-100.5 -232zM891 315l108 -39q-44 -133 -155.5 -218t-272.5 -85q-97 0 -183 35.5t-151 100.5t-103 164t-38 219q0 112 36.5 209t98.5 162.5t144.5 103t173.5 37.5q213 0 334 -136.5
t123 -357.5q0 -29 -2 -45h-783v-8q1 -83 28.5 -153t74.5 -118t111 -75t136 -27q125 0 206 63.5t114 167.5z" />
    <glyph glyph-name="Ebreve" unicode="&#x114;" horiz-adv-x="1177" 
d="M639 1544q-131 0 -210 76t-87 182h107q7 -66 55 -113t135 -47t135 47.5t53 112.5h107q-6 -106 -85 -182t-210 -76zM1063 0h-856v1452h856v-119h-725v-547h661v-118h-661v-549h725v-119z" />
    <glyph glyph-name="ebreve" unicode="&#x115;" horiz-adv-x="1095" 
d="M225 567h652q-3 142 -90 234t-236 92q-134 0 -225.5 -94t-100.5 -232zM891 315l108 -39q-44 -133 -155.5 -218t-272.5 -85q-97 0 -183 35.5t-151 100.5t-103 164t-38 219q0 112 36.5 209t98.5 162.5t144.5 103t173.5 37.5q213 0 334 -136.5t123 -357.5q0 -29 -2 -45h-783
v-8q1 -83 28.5 -153t74.5 -118t111 -75t136 -27q125 0 206 63.5t114 167.5zM551 1102q-132 0 -208.5 84.5t-78.5 197.5h96q3 -74 52 -128t139 -54t138.5 54t51.5 128h97q-2 -113 -78.5 -197.5t-208.5 -84.5z" />
    <glyph glyph-name="Edotaccent" unicode="&#x116;" horiz-adv-x="1177" 
d="M545 1675q0 40 28 68.5t68 28.5t68 -28.5t28 -68.5t-28 -68t-68 -28t-68 28t-28 68zM1063 0h-856v1452h856v-119h-725v-547h661v-118h-661v-549h725v-119z" />
    <glyph glyph-name="edotaccent" unicode="&#x117;" horiz-adv-x="1095" 
d="M225 567h652q-3 142 -90 234t-236 92q-134 0 -225.5 -94t-100.5 -232zM891 315l108 -39q-44 -133 -155.5 -218t-272.5 -85q-97 0 -183 35.5t-151 100.5t-103 164t-38 219q0 112 36.5 209t98.5 162.5t144.5 103t173.5 37.5q213 0 334 -136.5t123 -357.5q0 -29 -2 -45h-783
v-8q1 -83 28.5 -153t74.5 -118t111 -75t136 -27q125 0 206 63.5t114 167.5zM455 1243q0 40 28 68t68 28t68 -28t28 -68t-28 -68t-68 -28t-68 28t-28 68z" />
    <glyph glyph-name="Eogonek" unicode="&#x118;" horiz-adv-x="1177" 
d="M788 -240q0 143 150 240h-731v1452h856v-119h-725v-547h661v-118h-661v-549h725v-119q-69 -35 -119.5 -91.5t-50.5 -125.5q0 -56 36.5 -86.5t92.5 -30.5q40 0 70 10v-90q-40 -16 -93 -16q-91 0 -151 51t-60 139z" />
    <glyph glyph-name="eogonek" unicode="&#x119;" horiz-adv-x="1095" 
d="M459 -240q0 123 112 213q-97 0 -183 35.5t-151 100.5t-103 164t-38 219q0 112 36.5 209t98.5 162.5t144.5 103t173.5 37.5q213 0 334 -136.5t123 -357.5q0 -29 -2 -45h-783v-8q1 -83 28.5 -153t74.5 -118t111 -75t136 -27q125 0 206 63.5t114 167.5l108 -39
q-68 -194 -249 -270q-75 -31 -131 -91.5t-56 -131.5q0 -56 36.5 -86.5t92.5 -30.5q40 0 70 10v-90q-40 -16 -92 -16q-91 0 -151 51t-60 139zM225 567h652q-3 142 -90 234t-236 92q-134 0 -225.5 -94t-100.5 -232z" />
    <glyph glyph-name="Ecaron" unicode="&#x11a;" horiz-adv-x="1177" 
d="M330 1798h121l198 -172l201 172h121l-238 -244h-168zM1063 0h-856v1452h856v-119h-725v-547h661v-118h-661v-549h725v-119z" />
    <glyph glyph-name="ecaron" unicode="&#x11b;" horiz-adv-x="1095" 
d="M252 1382h110l189 -202l188 202h111l-225 -280h-148zM225 567h652q-3 142 -90 234t-236 92q-134 0 -225.5 -94t-100.5 -232zM891 315l108 -39q-44 -133 -155.5 -218t-272.5 -85q-97 0 -183 35.5t-151 100.5t-103 164t-38 219q0 112 36.5 209t98.5 162.5t144.5 103
t173.5 37.5q213 0 334 -136.5t123 -357.5q0 -29 -2 -45h-783v-8q1 -83 28.5 -153t74.5 -118t111 -75t136 -27q125 0 206 63.5t114 167.5z" />
    <glyph glyph-name="Gcircumflex" unicode="&#x11c;" horiz-adv-x="1568" 
d="M610 1554h-121l236 244h168l237 -244h-120l-201 172zM1432 0h-103l-12 281q-18 -41 -45.5 -80.5t-73 -81.5t-101.5 -73.5t-136 -52t-170 -20.5q-129 0 -250.5 50t-219 142.5t-156.5 238.5t-59 323q0 176 59.5 321.5t159 238t224.5 142.5t260 50q230 0 398.5 -119.5
t232.5 -317.5l-117 -49q-55 171 -190 269t-324 98q-89 0 -172 -25.5t-155.5 -77.5t-127 -126t-85.5 -178t-31 -226t31.5 -226.5t85.5 -179t125.5 -127.5t151.5 -78.5t163 -25.5q109 0 198.5 32t146 81.5t96 114t56 125.5t17.5 120h-537v119h660v-682z" />
    <glyph glyph-name="gcircumflex" unicode="&#x11d;" horiz-adv-x="1150" 
d="M381 1102h-111l226 280h147l225 -280h-110l-189 203zM98 -55l117 28q12 -119 99 -199.5t214 -80.5q93 0 160.5 29.5t104.5 83.5t54 119t17 145v180q-36 -84 -120.5 -141.5t-208.5 -57.5q-191 0 -314 135t-123 340q0 202 122 337.5t315 135.5q127 0 208.5 -53t122.5 -137
v168h121v-905q0 -72 -13 -138t-46 -131.5t-83.5 -112.5t-132.5 -76.5t-186 -29.5q-175 0 -292 102t-136 259zM549 158q143 0 231 103.5t88 264.5q0 160 -88 263.5t-231 103.5q-145 0 -236.5 -103t-91.5 -264t91 -264.5t237 -103.5z" />
    <glyph glyph-name="Gbreve" unicode="&#x11e;" horiz-adv-x="1568" 
d="M811 1544q-131 0 -210 76t-87 182h107q7 -66 55 -113t135 -47t135 47.5t53 112.5h107q-6 -106 -85 -182t-210 -76zM1432 0h-103l-12 281q-18 -41 -45.5 -80.5t-73 -81.5t-101.5 -73.5t-136 -52t-170 -20.5q-129 0 -250.5 50t-219 142.5t-156.5 238.5t-59 323
q0 176 59.5 321.5t159 238t224.5 142.5t260 50q230 0 398.5 -119.5t232.5 -317.5l-117 -49q-55 171 -190 269t-324 98q-89 0 -172 -25.5t-155.5 -77.5t-127 -126t-85.5 -178t-31 -226t31.5 -226.5t85.5 -179t125.5 -127.5t151.5 -78.5t163 -25.5q109 0 198.5 32t146 81.5
t96 114t56 125.5t17.5 120h-537v119h660v-682z" />
    <glyph glyph-name="gbreve" unicode="&#x11f;" horiz-adv-x="1150" 
d="M98 -55l117 28q12 -119 99 -199.5t214 -80.5q93 0 160.5 29.5t104.5 83.5t54 119t17 145v180q-36 -84 -120.5 -141.5t-208.5 -57.5q-191 0 -314 135t-123 340q0 202 122 337.5t315 135.5q127 0 208.5 -53t122.5 -137v168h121v-905q0 -72 -13 -138t-46 -131.5
t-83.5 -112.5t-132.5 -76.5t-186 -29.5q-175 0 -292 102t-136 259zM549 158q143 0 231 103.5t88 264.5q0 160 -88 263.5t-231 103.5q-145 0 -236.5 -103t-91.5 -264t91 -264.5t237 -103.5zM569 1102q-132 0 -208 84.5t-78 197.5h96q3 -74 51.5 -128t138.5 -54t139 54t52 128
h96q-2 -113 -78.5 -197.5t-208.5 -84.5z" />
    <glyph glyph-name="Gdotaccent" unicode="&#x120;" horiz-adv-x="1568" 
d="M715 1675q0 40 28 68.5t68 28.5t68 -28.5t28 -68.5t-28 -68t-68 -28t-68 28t-28 68zM1432 0h-103l-12 281q-18 -41 -45.5 -80.5t-73 -81.5t-101.5 -73.5t-136 -52t-170 -20.5q-129 0 -250.5 50t-219 142.5t-156.5 238.5t-59 323q0 176 59.5 321.5t159 238t224.5 142.5
t260 50q230 0 398.5 -119.5t232.5 -317.5l-117 -49q-55 171 -190 269t-324 98q-89 0 -172 -25.5t-155.5 -77.5t-127 -126t-85.5 -178t-31 -226t31.5 -226.5t85.5 -179t125.5 -127.5t151.5 -78.5t163 -25.5q109 0 198.5 32t146 81.5t96 114t56 125.5t17.5 120h-537v119h660
v-682z" />
    <glyph glyph-name="gdotaccent" unicode="&#x121;" horiz-adv-x="1150" 
d="M473 1243q0 40 28 68t68 28t68.5 -28t28.5 -68t-28.5 -68t-68.5 -28t-68 28t-28 68zM98 -55l117 28q12 -119 99 -199.5t214 -80.5q93 0 160.5 29.5t104.5 83.5t54 119t17 145v180q-36 -84 -120.5 -141.5t-208.5 -57.5q-191 0 -314 135t-123 340q0 202 122 337.5
t315 135.5q127 0 208.5 -53t122.5 -137v168h121v-905q0 -72 -13 -138t-46 -131.5t-83.5 -112.5t-132.5 -76.5t-186 -29.5q-175 0 -292 102t-136 259zM549 158q143 0 231 103.5t88 264.5q0 160 -88 263.5t-231 103.5q-145 0 -236.5 -103t-91.5 -264t91 -264.5t237 -103.5z
" />
    <glyph glyph-name="Gcommaaccent" unicode="&#x122;" horiz-adv-x="1568" 
d="M719 -172q0 38 27.5 62t66.5 24q42 0 73.5 -30.5t31.5 -90.5q0 -98 -60 -156t-143 -63v61q52 4 89 38.5t40 80.5q-12 -12 -39 -12q-37 0 -61.5 23.5t-24.5 62.5zM1432 0h-103l-12 281q-18 -41 -45.5 -80.5t-73 -81.5t-101.5 -73.5t-136 -52t-170 -20.5q-129 0 -250.5 50
t-219 142.5t-156.5 238.5t-59 323q0 176 59.5 321.5t159 238t224.5 142.5t260 50q230 0 398.5 -119.5t232.5 -317.5l-117 -49q-55 171 -190 269t-324 98q-89 0 -172 -25.5t-155.5 -77.5t-127 -126t-85.5 -178t-31 -226t31.5 -226.5t85.5 -179t125.5 -127.5t151.5 -78.5
t163 -25.5q109 0 198.5 32t146 81.5t96 114t56 125.5t17.5 120h-537v119h660v-682z" />
    <glyph glyph-name="gcommaaccent" unicode="&#x123;" horiz-adv-x="1150" 
d="M668 1174q0 -38 -28 -62.5t-67 -24.5q-42 0 -73 30.5t-31 90.5q0 98 60 156t143 63v-61q-52 -4 -89 -38.5t-40 -80.5q13 13 39 13q37 0 61.5 -23.5t24.5 -62.5zM98 -55l117 28q12 -119 99 -199.5t214 -80.5q93 0 160.5 29.5t104.5 83.5t54 119t17 145v180
q-36 -84 -120.5 -141.5t-208.5 -57.5q-191 0 -314 135t-123 340q0 202 122 337.5t315 135.5q127 0 208.5 -53t122.5 -137v168h121v-905q0 -72 -13 -138t-46 -131.5t-83.5 -112.5t-132.5 -76.5t-186 -29.5q-175 0 -292 102t-136 259zM549 158q143 0 231 103.5t88 264.5
q0 160 -88 263.5t-231 103.5q-145 0 -236.5 -103t-91.5 -264t91 -264.5t237 -103.5z" />
    <glyph glyph-name="Hcircumflex" unicode="&#x124;" horiz-adv-x="1507" 
d="M553 1554h-121l236 244h168l237 -244h-121l-200 172zM1300 0h-131v678h-831v-678h-131v1452h131v-655h831v655h131v-1452z" />
    <glyph glyph-name="hcircumflex" unicode="&#x125;" horiz-adv-x="1099" 
d="M360 1563h-120l235 243h168l238 -243h-121l-201 172zM287 588v-588h-123v1479h123v-656q41 79 123 130t190 51q166 0 256 -103t90 -262v-639h-123v618q0 123 -66 199t-198 76q-121 0 -196.5 -90t-75.5 -215z" />
    <glyph glyph-name="Hbar" unicode="&#x126;" horiz-adv-x="1507" 
d="M63 1071v111h144v270h131v-270h831v270h131v-270h144v-111h-144v-1071h-131v678h-831v-678h-131v1071h-144zM338 797h831v274h-831v-274z" />
    <glyph glyph-name="hbar" unicode="&#x127;" horiz-adv-x="1099" 
d="M287 588v-588h-123v1167h-193v103h193v209h123v-209h270v-103h-270v-344q41 79 123 130t190 51q166 0 256 -103t90 -262v-639h-123v618q0 123 -66 199t-198 76q-121 0 -196.5 -90t-75.5 -215z" />
    <glyph glyph-name="Itilde" unicode="&#x128;" horiz-adv-x="544" 
d="M338 0h-131v1452h131v-1452zM590 1784v-23q0 -93 -49.5 -145.5t-122.5 -52.5q-71 0 -135 47l-43 30q-59 41 -103 41q-80 0 -80 -112h-96v24q0 91 50 143t126 52q75 0 148 -55l37 -27q50 -37 92 -37q80 0 80 115h96z" />
    <glyph glyph-name="itilde" unicode="&#x129;" horiz-adv-x="450" 
d="M287 0h-123v977h123v-977zM537 1350v-23q0 -93 -49 -146t-121 -53q-68 0 -134 48l-43 30q-59 41 -100 41q-78 0 -78 -112h-96v24q0 91 49 143t125 52q72 0 146 -56l36 -26q50 -37 90 -37q78 0 78 115h97z" />
    <glyph glyph-name="Imacron" unicode="&#x12a;" horiz-adv-x="544" 
d="M338 0h-131v1452h131v-1452zM551 1624h-557v107h557v-107z" />
    <glyph glyph-name="imacron" unicode="&#x12b;" horiz-adv-x="450" 
d="M287 0h-123v977h123v-977zM485 1194h-520v102h520v-102z" />
    <glyph glyph-name="Ibreve" unicode="&#x12c;" horiz-adv-x="544" 
d="M338 0h-131v1452h131v-1452zM274 1544q-131 0 -210 76t-87 182h107q7 -66 55 -113t135 -47t135.5 47.5t53.5 112.5h106q-6 -106 -85 -182t-210 -76z" />
    <glyph glyph-name="ibreve" unicode="&#x12d;" horiz-adv-x="450" 
d="M287 0h-123v977h123v-977zM225 1102q-132 0 -208 84.5t-78 197.5h96q3 -74 51.5 -128t138.5 -54t139 54t52 128h96q-2 -113 -78.5 -197.5t-208.5 -84.5z" />
    <glyph glyph-name="Iogonek" unicode="&#x12e;" horiz-adv-x="544" 
d="M63 -240q0 143 150 240h-6v1452h131v-1452q-69 -35 -119.5 -91.5t-50.5 -125.5q0 -56 37 -86.5t92 -30.5q40 0 70 10v-90q-40 -16 -93 -16q-91 0 -151 51t-60 139z" />
    <glyph glyph-name="iogonek" unicode="&#x12f;" horiz-adv-x="450" 
d="M12 -240q0 145 152 240v977h123v-977q-69 -35 -119.5 -91.5t-50.5 -125.5q0 -56 36.5 -86.5t92.5 -30.5q39 0 69 10v-90q-40 -16 -92 -16q-91 0 -151 51t-60 139zM123 1382q0 44 29.5 73.5t72.5 29.5t73 -29.5t30 -73.5t-30 -73t-73 -29t-72.5 29t-29.5 73z" />
    <glyph glyph-name="Idotaccent" unicode="&#x130;" horiz-adv-x="544" 
d="M338 0h-131v1452h131v-1452zM178 1675q0 40 28 68.5t68 28.5t68.5 -28.5t28.5 -68.5t-28.5 -68t-68.5 -28t-68 28t-28 68z" />
    <glyph glyph-name="dotlessi" unicode="&#x131;" horiz-adv-x="450" 
d="M287 0h-123v977h123v-977z" />
    <glyph glyph-name="IJ" unicode="&#x132;" horiz-adv-x="1222" 
d="M322 614h-132v838h132v-838zM190 426v35l129 31v-60q0 -161 78.5 -250.5t216.5 -89.5q137 0 212 88.5t75 245.5v1026h131v-1024q0 -202 -112.5 -328.5t-305.5 -126.5q-197 0 -310.5 121.5t-113.5 331.5z" />
    <glyph glyph-name="ij" unicode="&#x133;" horiz-adv-x="901" 
d="M287 0h-123v977h123v-977zM123 1382q0 44 29.5 73.5t72.5 29.5t73 -29.5t30 -73.5t-30 -73t-73 -29t-72.5 29t-29.5 73zM614 -129v1106h123v-1110q0 -132 -70 -207.5t-188 -75.5q-70 0 -108 19v104q35 -12 84 -12q82 0 120.5 42.5t38.5 133.5zM573 1382q0 44 30 73.5
t73 29.5t72.5 -29.5t29.5 -73.5t-29.5 -73t-72.5 -29t-73 29t-30 73z" />
    <glyph glyph-name="Jcircumflex" unicode="&#x134;" horiz-adv-x="1099" 
d="M645 1554h-121l236 244h168l237 -244h-121l-200 172zM68 426v92l129 31v-117q0 -161 78.5 -250.5t216.5 -89.5q137 0 211.5 88.5t74.5 245.5v1026h131v-1024q0 -202 -112 -328.5t-305 -126.5q-197 0 -310.5 121.5t-113.5 331.5z" />
    <glyph glyph-name="jcircumflex" unicode="&#x135;" horiz-adv-x="450" 
d="M37 1102h-111l226 280h147l225 -280h-110l-189 203zM164 -129v1106h123v-1110q0 -132 -70 -207.5t-188 -75.5q-71 0 -109 19v104q34 -12 84 -12q82 0 121 42.5t39 133.5z" />
    <glyph glyph-name="Kcommaaccent" unicode="&#x136;" horiz-adv-x="1306" 
d="M1122 0l-534 715l-250 -266v-449h-131v1452h131v-831l770 831h170l-604 -645l612 -807h-164zM621 -172q0 38 27.5 62t66.5 24q42 0 73 -30.5t31 -90.5q0 -98 -60 -156t-143 -63v61q52 4 89 38.5t40 80.5q-12 -12 -38 -12q-37 0 -61.5 23.5t-24.5 62.5z" />
    <glyph glyph-name="kcommaaccent" unicode="&#x137;" horiz-adv-x="1015" 
d="M969 977l-416 -416l424 -561h-154l-356 477l-180 -178v-299h-123v1479h123v-1018l512 516h170zM463 -172q0 38 27.5 62t66.5 24q42 0 73.5 -30.5t31.5 -90.5q0 -98 -60 -156t-143 -63v61q52 4 89 38.5t40 80.5q-12 -12 -39 -12q-37 0 -61.5 23.5t-24.5 62.5z" />
    <glyph glyph-name="kgreenlandic" unicode="&#x138;" horiz-adv-x="1013" 
d="M967 977l-416 -416l424 -561h-154l-356 477l-180 -178v-299h-121v977h121v-516l512 516h170z" />
    <glyph glyph-name="Lacute" unicode="&#x139;" horiz-adv-x="1114" 
d="M606 1798l-274 -244h-117l219 244h172zM1071 0h-864v1452h131v-1333h733v-119z" />
    <glyph glyph-name="lacute" unicode="&#x13a;" horiz-adv-x="450" 
d="M559 1806l-274 -243h-117l219 243h172zM287 0h-123v1479h123v-1479z" />
    <glyph glyph-name="Lcommaaccent" unicode="&#x13b;" horiz-adv-x="1114" 
d="M553 -172q0 38 27.5 62t66.5 24q42 0 73.5 -30.5t31.5 -90.5q0 -98 -60 -156t-143 -63v61q52 4 89 38.5t40 80.5q-12 -12 -39 -12q-37 0 -61.5 23.5t-24.5 62.5zM1071 0h-864v1452h131v-1333h733v-119z" />
    <glyph glyph-name="lcommaaccent" unicode="&#x13c;" horiz-adv-x="450" 
d="M127 -172q0 38 27.5 62t66.5 24q42 0 73.5 -30.5t31.5 -90.5q0 -98 -60 -156t-143 -63v61q52 4 89 38.5t40 80.5q-12 -12 -39 -12q-37 0 -61.5 23.5t-24.5 62.5zM287 0h-123v1479h123v-1479z" />
    <glyph glyph-name="Lcaron" unicode="&#x13d;" horiz-adv-x="1114" 
d="M788 1554l-126 -380h-97l78 380h145zM1071 0h-864v1452h131v-1333h733v-119z" />
    <glyph glyph-name="lcaron" unicode="&#x13e;" horiz-adv-x="450" 
d="M584 1479l-119 -361h-94l73 361h140zM287 0h-123v1479h123v-1479z" />
    <glyph glyph-name="Ldot" unicode="&#x13f;" horiz-adv-x="1114" 
d="M1071 0h-864v1452h131v-1333h733v-119zM612 764q0 44 31.5 76t75.5 32q45 0 76.5 -31.5t31.5 -76.5q0 -44 -31.5 -75.5t-76.5 -31.5q-44 0 -75.5 31.5t-31.5 75.5z" />
    <glyph glyph-name="ldot" unicode="&#x140;" horiz-adv-x="567" 
d="M287 0h-123v1479h123v-1479zM403 664q0 40 28.5 68t68.5 28t68 -28t28 -68t-28 -68.5t-68 -28.5t-68.5 28.5t-28.5 68.5z" />
    <glyph glyph-name="Lslash" unicode="&#x141;" horiz-adv-x="1136" 
d="M1094 0h-865v621l-202 -91v115l202 90v717h131v-659l332 147v-115l-332 -147v-559h734v-119z" />
    <glyph glyph-name="lslash" unicode="&#x142;" horiz-adv-x="630" 
d="M356 0h-123v602l-194 -84v115l194 84v762h123v-707l219 96v-114l-219 -97v-657z" />
    <glyph glyph-name="Nacute" unicode="&#x143;" horiz-adv-x="1562" 
d="M1356 0h-139l-879 1290v-1290h-131v1452h180l838 -1239v1239h131v-1452zM1073 1798l-274 -244h-117l219 244h172z" />
    <glyph glyph-name="nacute" unicode="&#x144;" horiz-adv-x="1099" 
d="M811 1384l-242 -284h-100l182 284h160zM287 584v-584h-123v977h119v-156q41 81 124.5 130.5t192.5 49.5q165 0 255.5 -103t90.5 -261v-637h-123v616q0 124 -65 199.5t-199 75.5q-122 0 -197 -89t-75 -218z" />
    <glyph glyph-name="Ncommaaccent" unicode="&#x145;" horiz-adv-x="1562" 
d="M709 -172q0 38 27.5 62t66.5 24q42 0 73 -30.5t31 -90.5q0 -98 -59.5 -156t-142.5 -63v61q52 4 89 38.5t40 80.5q-12 -12 -39 -12q-37 0 -61.5 23.5t-24.5 62.5zM1356 0h-139l-879 1290v-1290h-131v1452h180l838 -1239v1239h131v-1452z" />
    <glyph glyph-name="ncommaaccent" unicode="&#x146;" horiz-adv-x="1099" 
d="M471 -172q0 38 27.5 62t66.5 24q42 0 73.5 -30.5t31.5 -90.5q0 -98 -60 -156t-143 -63v61q52 4 89 38.5t40 80.5q-12 -12 -39 -12q-37 0 -61.5 23.5t-24.5 62.5zM287 584v-584h-123v977h119v-156q41 81 124.5 130.5t192.5 49.5q165 0 255.5 -103t90.5 -261v-637h-123v616
q0 124 -65 199.5t-199 75.5q-122 0 -197 -89t-75 -218z" />
    <glyph glyph-name="Ncaron" unicode="&#x147;" horiz-adv-x="1562" 
d="M465 1798h121l198 -172l201 172h121l-238 -244h-168zM1356 0h-139l-879 1290v-1290h-131v1452h180l838 -1239v1239h131v-1452z" />
    <glyph glyph-name="ncaron" unicode="&#x148;" horiz-adv-x="1099" 
d="M240 1382h110l189 -202l188 202h111l-226 -280h-147zM287 584v-584h-123v977h119v-156q41 81 124.5 130.5t192.5 49.5q165 0 255.5 -103t90.5 -261v-637h-123v616q0 124 -65 199.5t-199 75.5q-122 0 -197 -89t-75 -218z" />
    <glyph glyph-name="napostrophe" unicode="&#x149;" horiz-adv-x="1099" 
d="M168 1329q0 38 27.5 62t66.5 24q42 0 73.5 -30.5t31.5 -90.5q0 -98 -60 -156t-143 -63v62q52 4 89 38t40 80q-12 -12 -39 -12q-37 0 -61.5 23.5t-24.5 62.5zM287 584v-584h-123v977h119v-156q41 81 124.5 130.5t192.5 49.5q165 0 255.5 -103t90.5 -261v-637h-123v616
q0 124 -65 199.5t-199 75.5q-122 0 -197 -89t-75 -218z" />
    <glyph glyph-name="Eng" unicode="&#x14a;" horiz-adv-x="1562" 
d="M1356 1452v-1612q0 -115 -63 -185.5t-169 -70.5q-76 0 -114 17v106q30 -12 82 -12q135 0 135 147v144l-889 1304v-1290h-131v1452h180l838 -1239v1239h131z" />
    <glyph glyph-name="eng" unicode="&#x14b;" horiz-adv-x="1099" 
d="M287 586v-586h-123v977h121v-164q40 86 123 138.5t192 52.5q166 0 256 -103t90 -262v-801q0 -114 -61 -184t-168 -70q-73 0 -115 17v106q34 -12 84 -12q137 0 137 149v774q0 123 -66 199t-198 76q-122 0 -197 -90.5t-75 -216.5z" />
    <glyph glyph-name="Omacron" unicode="&#x14c;" horiz-adv-x="1632" 
d="M238 725q0 -150 48 -272.5t129.5 -200t184 -119t215.5 -41.5t216 41.5t185 119t130.5 200t48.5 272.5q0 151 -48.5 274t-130.5 200.5t-185 119t-216 41.5t-215.5 -41.5t-184 -119t-129.5 -200.5t-48 -274zM106 725q0 176 60.5 321.5t161 238.5t226.5 143.5t261 50.5
q108 0 211 -31.5t193.5 -95t159 -152t108 -211.5t39.5 -264t-39.5 -263.5t-108 -211t-159 -152t-193.5 -94.5t-211 -31t-210.5 31t-193 94.5t-158.5 152t-107.5 211t-39.5 263.5zM1094 1624h-557v107h557v-107z" />
    <glyph glyph-name="omacron" unicode="&#x14d;" horiz-adv-x="1163" 
d="M836 1194h-521v102h521v-102zM582 -27q-101 0 -190.5 38t-154.5 104.5t-103 163t-38 208.5q0 227 139 370.5t347 143.5q207 0 346 -143.5t139 -370.5q0 -226 -139 -370t-346 -144zM221 487q0 -184 105 -293.5t256 -109.5t255.5 109.5t104.5 293.5q0 185 -104.5 294.5
t-255.5 109.5t-256 -109.5t-105 -294.5z" />
    <glyph glyph-name="Obreve" unicode="&#x14e;" horiz-adv-x="1632" 
d="M817 1544q-131 0 -210 76t-87 182h107q7 -66 55 -113t135 -47t135.5 47.5t53.5 112.5h106q-6 -106 -85 -182t-210 -76zM238 725q0 -150 48 -272.5t129.5 -200t184 -119t215.5 -41.5t216 41.5t185 119t130.5 200t48.5 272.5q0 151 -48.5 274t-130.5 200.5t-185 119
t-216 41.5t-215.5 -41.5t-184 -119t-129.5 -200.5t-48 -274zM106 725q0 176 60.5 321.5t161 238.5t226.5 143.5t261 50.5q108 0 211 -31.5t193.5 -95t159 -152t108 -211.5t39.5 -264t-39.5 -263.5t-108 -211t-159 -152t-193.5 -94.5t-211 -31t-210.5 31t-193 94.5
t-158.5 152t-107.5 211t-39.5 263.5z" />
    <glyph glyph-name="obreve" unicode="&#x14f;" horiz-adv-x="1163" 
d="M582 -27q-101 0 -190.5 38t-154.5 104.5t-103 163t-38 208.5q0 227 139 370.5t347 143.5q207 0 346 -143.5t139 -370.5q0 -226 -139 -370t-346 -144zM221 487q0 -184 105 -293.5t256 -109.5t255.5 109.5t104.5 293.5q0 185 -104.5 294.5t-255.5 109.5t-256 -109.5
t-105 -294.5zM573 1102q-132 0 -208 84.5t-78 197.5h96q3 -74 51.5 -128t138.5 -54t139 54t52 128h96q-2 -113 -78.5 -197.5t-208.5 -84.5z" />
    <glyph glyph-name="Ohungarumlaut" unicode="&#x150;" horiz-adv-x="1632" 
d="M1169 1798l-198 -244h-92l151 244h139zM934 1798l-199 -244h-92l152 244h139zM238 725q0 -150 48 -272.5t129.5 -200t184 -119t215.5 -41.5t216 41.5t185 119t130.5 200t48.5 272.5q0 151 -48.5 274t-130.5 200.5t-185 119t-216 41.5t-215.5 -41.5t-184 -119
t-129.5 -200.5t-48 -274zM106 725q0 176 60.5 321.5t161 238.5t226.5 143.5t261 50.5q108 0 211 -31.5t193.5 -95t159 -152t108 -211.5t39.5 -264t-39.5 -263.5t-108 -211t-159 -152t-193.5 -94.5t-211 -31t-210.5 31t-193 94.5t-158.5 152t-107.5 211t-39.5 263.5z" />
    <glyph glyph-name="ohungarumlaut" unicode="&#x151;" horiz-adv-x="1163" 
d="M582 -27q-101 0 -190.5 38t-154.5 104.5t-103 163t-38 208.5q0 227 139 370.5t347 143.5q207 0 346 -143.5t139 -370.5q0 -226 -139 -370t-346 -144zM221 487q0 -184 105 -293.5t256 -109.5t255.5 109.5t104.5 293.5q0 185 -104.5 294.5t-255.5 109.5t-256 -109.5
t-105 -294.5zM907 1384l-184 -284h-90l137 284h137zM690 1384l-184 -284h-90l137 284h137z" />
    <glyph glyph-name="OE" unicode="&#x152;" horiz-adv-x="2365" 
d="M2251 0h-856v289q-96 -155 -251.5 -235.5t-328.5 -80.5q-108 0 -210.5 31t-193 94.5t-158.5 152t-107.5 211t-39.5 263.5q0 176 60.5 321.5t161 238.5t226.5 143.5t261 50.5q172 0 328 -82t252 -238v293h856v-119h-725v-547h661v-118h-661v-549h725v-119zM238 725
q0 -150 48 -272.5t129.5 -200t184 -119t215.5 -41.5t216 41.5t185 119t130.5 200t48.5 272.5q0 151 -48.5 274t-130.5 200.5t-185 119t-216 41.5t-215.5 -41.5t-184 -119t-129.5 -200.5t-48 -274z" />
    <glyph glyph-name="oe" unicode="&#x153;" horiz-adv-x="1933" 
d="M1729 315l108 -39q-44 -133 -155.5 -218t-272.5 -85q-135 0 -245.5 66t-170.5 190q-61 -121 -172 -188.5t-246 -67.5q-203 0 -341 144.5t-138 369.5q0 228 136.5 372.5t342.5 144.5q135 0 246 -69t172 -192q58 123 162.5 192t230.5 69q213 0 334 -136.5t123 -357.5
q0 -29 -2 -45h-782v-8q1 -83 28.5 -153t74.5 -118t111 -75t136 -27q125 0 206 63.5t114 167.5zM575 84q151 0 255 109.5t104 293.5q0 186 -104 296t-255 110q-149 0 -252.5 -110.5t-103.5 -295.5q0 -184 103.5 -293.5t252.5 -109.5zM1063 567h651q-3 142 -89.5 234
t-235.5 92q-134 0 -225.5 -94t-100.5 -232z" />
    <glyph glyph-name="Racute" unicode="&#x154;" horiz-adv-x="1255" 
d="M915 1798l-274 -244h-117l219 244h172zM991 0l-350 629h-303v-629h-131v1452h506q192 0 312 -118t120 -296q0 -159 -99 -269t-264 -132l361 -637h-152zM338 745h354q145 0 233.5 80.5t88.5 212.5q0 134 -88.5 215.5t-233.5 81.5h-354v-590z" />
    <glyph glyph-name="racute" unicode="&#x155;" horiz-adv-x="690" 
d="M649 1384l-241 -284h-101l182 284h160zM662 979v-129q-38 10 -87 10q-130 0 -209 -84.5t-79 -245.5v-530h-123v977h121v-182q43 98 121.5 146t179.5 48q49 0 76 -10z" />
    <glyph glyph-name="Rcommaaccent" unicode="&#x156;" horiz-adv-x="1255" 
d="M991 0l-350 629h-303v-629h-131v1452h506q192 0 312 -118t120 -296q0 -159 -99 -269t-264 -132l361 -637h-152zM338 745h354q145 0 233.5 80.5t88.5 212.5q0 134 -88.5 215.5t-233.5 81.5h-354v-590zM582 -172q0 38 27.5 62t66.5 24q42 0 73 -30.5t31 -90.5
q0 -98 -59.5 -156t-142.5 -63v61q52 4 89 38.5t40 80.5q-12 -12 -39 -12q-37 0 -61.5 23.5t-24.5 62.5z" />
    <glyph glyph-name="rcommaaccent" unicode="&#x157;" horiz-adv-x="690" 
d="M662 979v-129q-38 10 -87 10q-130 0 -209 -84.5t-79 -245.5v-530h-123v977h121v-182q43 98 121.5 146t179.5 48q49 0 76 -10zM127 -172q0 38 27.5 62t66.5 24q42 0 73.5 -30.5t31.5 -90.5q0 -98 -60 -156t-143 -63v61q52 4 89 38.5t40 80.5q-12 -12 -39 -12
q-37 0 -61.5 23.5t-24.5 62.5z" />
    <glyph glyph-name="Rcaron" unicode="&#x158;" horiz-adv-x="1255" 
d="M297 1798h121l198 -172l201 172h121l-238 -244h-168zM991 0l-350 629h-303v-629h-131v1452h506q192 0 312 -118t120 -296q0 -159 -99 -269t-264 -132l361 -637h-152zM338 745h354q145 0 233.5 80.5t88.5 212.5q0 134 -88.5 215.5t-233.5 81.5h-354v-590z" />
    <glyph glyph-name="rcaron" unicode="&#x159;" horiz-adv-x="690" 
d="M106 1382h111l189 -202l188 202h111l-226 -280h-147zM662 979v-129q-38 10 -87 10q-130 0 -209 -84.5t-79 -245.5v-530h-123v977h121v-182q43 98 121.5 146t179.5 48q49 0 76 -10z" />
    <glyph glyph-name="Sacute" unicode="&#x15a;" horiz-adv-x="1191" 
d="M920 1798l-275 -244h-117l220 244h172zM1071 1122l-115 -41q-26 124 -114 203.5t-240 79.5q-135 0 -233.5 -81.5t-98.5 -205.5q0 -98 59.5 -164t170.5 -92l221 -51q173 -41 268.5 -139.5t95.5 -249.5q0 -172 -133 -290t-348 -118q-115 0 -211.5 36.5t-159.5 97.5
t-101 137.5t-48 161.5l121 38q14 -149 120.5 -251.5t278.5 -102.5q163 0 257.5 79.5t94.5 201.5q0 101 -67.5 172t-192.5 100l-219 51q-154 35 -245 130.5t-91 244.5q0 110 64 205t169 150t224 55q107 0 192.5 -29.5t141 -81t89.5 -112.5t50 -134z" />
    <glyph glyph-name="sacute" unicode="&#x15b;" horiz-adv-x="899" 
d="M727 1384l-242 -284h-100l182 284h160zM82 256l113 39q14 -94 83.5 -154.5t184.5 -60.5q92 0 154.5 49t62.5 125q0 124 -166 164l-158 37q-111 26 -175 92t-64 168q0 118 97.5 202t231.5 84q81 0 146 -22t105.5 -60t64.5 -80t35 -89l-109 -41q-15 80 -74.5 133t-167.5 53
q-85 0 -146.5 -48.5t-61.5 -123.5q0 -121 153 -156l156 -35q123 -28 188.5 -96.5t65.5 -173.5q0 -116 -92.5 -202.5t-247.5 -86.5q-86 0 -157 25.5t-116.5 68t-72 90.5t-33.5 99z" />
    <glyph glyph-name="Scircumflex" unicode="&#x15c;" horiz-adv-x="1191" 
d="M426 1554h-121l236 244h168l237 -244h-121l-200 172zM1071 1122l-115 -41q-26 124 -114 203.5t-240 79.5q-135 0 -233.5 -81.5t-98.5 -205.5q0 -98 59.5 -164t170.5 -92l221 -51q173 -41 268.5 -139.5t95.5 -249.5q0 -172 -133 -290t-348 -118q-115 0 -211.5 36.5
t-159.5 97.5t-101 137.5t-48 161.5l121 38q14 -149 120.5 -251.5t278.5 -102.5q163 0 257.5 79.5t94.5 201.5q0 101 -67.5 172t-192.5 100l-219 51q-154 35 -245 130.5t-91 244.5q0 110 64 205t169 150t224 55q107 0 192.5 -29.5t141 -81t89.5 -112.5t50 -134z" />
    <glyph glyph-name="scircumflex" unicode="&#x15d;" horiz-adv-x="899" 
d="M279 1102h-111l225 280h148l225 -280h-111l-188 203zM82 256l113 39q14 -94 83.5 -154.5t184.5 -60.5q92 0 154.5 49t62.5 125q0 124 -166 164l-158 37q-111 26 -175 92t-64 168q0 118 97.5 202t231.5 84q81 0 146 -22t105.5 -60t64.5 -80t35 -89l-109 -41
q-15 80 -74.5 133t-167.5 53q-85 0 -146.5 -48.5t-61.5 -123.5q0 -121 153 -156l156 -35q123 -28 188.5 -96.5t65.5 -173.5q0 -116 -92.5 -202.5t-247.5 -86.5q-86 0 -157 25.5t-116.5 68t-72 90.5t-33.5 99z" />
    <glyph glyph-name="Scedilla" unicode="&#x15e;" horiz-adv-x="1191" 
d="M557 -195l-49 60l70 108q-215 9 -345 134.5t-149 298.5l121 38q14 -149 120.5 -251.5t278.5 -102.5q163 0 257.5 79.5t94.5 201.5q0 101 -67.5 172t-192.5 100l-219 51q-154 35 -245 130.5t-91 244.5q0 110 64 205t169 150t224 55q107 0 192.5 -29.5t141 -81t89.5 -112.5
t50 -134l-115 -41q-26 124 -114 203.5t-240 79.5q-135 0 -233.5 -81.5t-98.5 -205.5q0 -98 59.5 -164t170.5 -92l221 -51q173 -41 268.5 -139.5t95.5 -249.5q0 -157 -111.5 -270.5t-295.5 -133.5l-62 -92q24 9 50 9q81 0 130.5 -43.5t49.5 -112.5q0 -74 -58 -121t-163 -47
q-69 0 -129 27.5t-93 68.5l56 66q67 -80 164 -80q59 0 93 22.5t34 63.5q0 39 -30.5 61.5t-86.5 22.5q-41 0 -76 -17z" />
    <glyph glyph-name="scedilla" unicode="&#x15f;" horiz-adv-x="899" 
d="M395 -195l-49 60l72 110q-100 8 -176 53.5t-113.5 104.5t-46.5 123l113 39q14 -94 83.5 -154.5t184.5 -60.5q92 0 154.5 49t62.5 125q0 124 -166 164l-158 37q-111 26 -175 92t-64 168q0 118 97.5 202t231.5 84q81 0 146 -22t105.5 -60t64.5 -80t35 -89l-109 -41
q-15 80 -74.5 133t-167.5 53q-85 0 -146.5 -48.5t-61.5 -123.5q0 -121 153 -156l156 -35q123 -28 188.5 -96.5t65.5 -173.5t-77 -186.5t-208 -98.5l-61 -92q24 9 49 9q81 0 130.5 -43.5t49.5 -112.5q0 -74 -58 -121t-163 -47q-69 0 -128.5 27.5t-92.5 68.5l55 66
q67 -80 164 -80q59 0 93 22.5t34 63.5q0 39 -30.5 61.5t-86.5 22.5q-41 0 -76 -17z" />
    <glyph glyph-name="Scaron" unicode="&#x160;" horiz-adv-x="1191" 
d="M287 1798h121l198 -172l201 172h121l-238 -244h-168zM1071 1122l-115 -41q-26 124 -114 203.5t-240 79.5q-135 0 -233.5 -81.5t-98.5 -205.5q0 -98 59.5 -164t170.5 -92l221 -51q173 -41 268.5 -139.5t95.5 -249.5q0 -172 -133 -290t-348 -118q-115 0 -211.5 36.5
t-159.5 97.5t-101 137.5t-48 161.5l121 38q14 -149 120.5 -251.5t278.5 -102.5q163 0 257.5 79.5t94.5 201.5q0 101 -67.5 172t-192.5 100l-219 51q-154 35 -245 130.5t-91 244.5q0 110 64 205t169 150t224 55q107 0 192.5 -29.5t141 -81t89.5 -112.5t50 -134z" />
    <glyph glyph-name="scaron" unicode="&#x161;" horiz-adv-x="899" 
d="M156 1382h110l189 -202l188 202h111l-226 -280h-147zM82 256l113 39q14 -94 83.5 -154.5t184.5 -60.5q92 0 154.5 49t62.5 125q0 124 -166 164l-158 37q-111 26 -175 92t-64 168q0 118 97.5 202t231.5 84q81 0 146 -22t105.5 -60t64.5 -80t35 -89l-109 -41
q-15 80 -74.5 133t-167.5 53q-85 0 -146.5 -48.5t-61.5 -123.5q0 -121 153 -156l156 -35q123 -28 188.5 -96.5t65.5 -173.5q0 -116 -92.5 -202.5t-247.5 -86.5q-86 0 -157 25.5t-116.5 68t-72 90.5t-33.5 99z" />
    <glyph glyph-name="Tcommaaccent" unicode="&#x162;" horiz-adv-x="1234" 
d="M1196 1333h-514v-1333h-14l-76 -115q24 9 49 9q81 0 130.5 -43.5t49.5 -112.5q0 -74 -58 -121t-163 -47q-69 0 -128.5 27.5t-92.5 68.5l55 66q67 -80 164 -80q59 0 93 22.5t34 63.5q0 39 -30.5 61.5t-86.5 22.5q-41 0 -76 -17l-49 60l88 135h-20v1333h-512v119h1157v-119
z" />
    <glyph glyph-name="tcommaaccent" unicode="&#x163;" horiz-adv-x="671" 
d="M348 -172q0 38 27.5 62t66.5 24q42 0 73.5 -30.5t31.5 -90.5q0 -98 -60 -156t-143 -63v61q52 4 89 38.5t40 80.5q-12 -12 -39 -12q-37 0 -61.5 23.5t-24.5 62.5zM362 1286v-309h254v-111h-254v-590q0 -176 166 -176q50 0 88 17v-109q-36 -18 -120 -18q-120 0 -188 71
t-68 203v602h-207v111h73q72 0 105 34t33 109v166h118z" />
    <glyph glyph-name="Tcaron" unicode="&#x164;" horiz-adv-x="1234" 
d="M295 1798h121l198 -172l201 172h121l-238 -244h-168zM1196 1333h-514v-1333h-131v1333h-512v119h1157v-119z" />
    <glyph glyph-name="tcaron" unicode="&#x165;" horiz-adv-x="671" 
d="M659 1479l-118 -361h-95l74 361h139zM362 1286v-309h254v-111h-254v-590q0 -176 166 -176q50 0 88 17v-109q-36 -18 -120 -18q-120 0 -188 71t-68 203v602h-207v111h73q72 0 105 34t33 109v166h118z" />
    <glyph glyph-name="Tbar" unicode="&#x166;" horiz-adv-x="1255" 
d="M1206 1333h-514v-571h256v-111h-256v-651h-131v651h-256v111h256v571h-512v119h1157v-119z" />
    <glyph glyph-name="tbar" unicode="&#x167;" horiz-adv-x="696" 
d="M381 1286v-309h254v-111h-254v-297h254v-102h-254v-191q0 -176 166 -176q50 0 88 17v-109q-36 -18 -121 -18q-120 0 -188 71t-68 203v203h-207v102h207v297h-207v111h74q72 0 104.5 34t32.5 109v166h119z" />
    <glyph glyph-name="Utilde" unicode="&#x168;" horiz-adv-x="1376" 
d="M1008 1784v-23q0 -93 -49.5 -145.5t-122.5 -52.5q-72 0 -136 47l-43 30q-59 41 -102 41q-80 0 -80 -112h-96v24q0 91 50 143t126 52q74 0 147 -55l37 -27q50 -37 92 -37q80 0 80 115h97zM688 -27q-227 0 -362.5 133t-135.5 377v969h132v-963q0 -192 94 -294.5t272 -102.5
t272.5 102.5t94.5 294.5v963h131v-969q0 -243 -135.5 -376.5t-362.5 -133.5z" />
    <glyph glyph-name="utilde" unicode="&#x169;" horiz-adv-x="1103" 
d="M823 152q-37 -76 -117.5 -127.5t-189.5 -51.5q-119 0 -203.5 55.5t-122.5 141.5t-38 192v615h122v-594q0 -129 65 -214t200 -85q127 0 201.5 85t74.5 212v596h123v-791q0 -100 12 -186h-116q-11 55 -11 137v15zM856 1350v-23q0 -93 -49 -146t-121 -53q-67 0 -133 48
l-43 30q-59 41 -100 41q-78 0 -78 -112h-96v24q0 91 49 143t125 52q71 0 145 -56l37 -26q50 -37 90 -37q78 0 78 115h96z" />
    <glyph glyph-name="Umacron" unicode="&#x16a;" horiz-adv-x="1376" 
d="M688 -27q-227 0 -362.5 133t-135.5 377v969h132v-963q0 -192 94 -294.5t272 -102.5t272.5 102.5t94.5 294.5v963h131v-969q0 -243 -135.5 -376.5t-362.5 -133.5zM969 1624h-557v107h557v-107z" />
    <glyph glyph-name="umacron" unicode="&#x16b;" horiz-adv-x="1103" 
d="M805 1194h-520v102h520v-102zM823 152q-37 -76 -117.5 -127.5t-189.5 -51.5q-119 0 -203.5 55.5t-122.5 141.5t-38 192v615h122v-594q0 -129 65 -214t200 -85q127 0 201.5 85t74.5 212v596h123v-791q0 -100 12 -186h-116q-11 55 -11 137v15z" />
    <glyph glyph-name="Ubreve" unicode="&#x16c;" horiz-adv-x="1376" 
d="M692 1544q-131 0 -210 76t-87 182h107q7 -66 55 -113t135 -47t135.5 47.5t53.5 112.5h106q-6 -106 -85 -182t-210 -76zM688 -27q-227 0 -362.5 133t-135.5 377v969h132v-963q0 -192 94 -294.5t272 -102.5t272.5 102.5t94.5 294.5v963h131v-969q0 -243 -135.5 -376.5
t-362.5 -133.5z" />
    <glyph glyph-name="ubreve" unicode="&#x16d;" horiz-adv-x="1103" 
d="M823 152q-37 -76 -117.5 -127.5t-189.5 -51.5q-119 0 -203.5 55.5t-122.5 141.5t-38 192v615h122v-594q0 -129 65 -214t200 -85q127 0 201.5 85t74.5 212v596h123v-791q0 -100 12 -186h-116q-11 55 -11 137v15zM541 1102q-132 0 -208.5 84.5t-78.5 197.5h96
q3 -74 52 -128t139 -54t138.5 54t51.5 128h96q-2 -113 -78 -197.5t-208 -84.5z" />
    <glyph glyph-name="Uring" unicode="&#x16e;" horiz-adv-x="1376" 
d="M688 -27q-227 0 -362.5 133t-135.5 377v969h132v-963q0 -192 94 -294.5t272 -102.5t272.5 102.5t94.5 294.5v963h131v-969q0 -243 -135.5 -376.5t-362.5 -133.5zM690 1614q49 0 82 33.5t33 83.5q0 51 -33 85.5t-82 34.5t-82 -34.5t-33 -85.5q0 -50 33 -83.5t82 -33.5z
M690 1526q-85 0 -146 59.5t-61 145.5q0 87 61 147.5t146 60.5t146 -60.5t61 -147.5q0 -86 -61 -145.5t-146 -59.5z" />
    <glyph glyph-name="uring" unicode="&#x16f;" horiz-adv-x="1103" 
d="M754 1300q0 -89 -63 -152t-152 -63q-88 0 -151.5 63t-63.5 152t63.5 152.5t151.5 63.5q89 0 152 -63.5t63 -152.5zM664 1300q0 55 -35.5 92.5t-89.5 37.5t-89.5 -37.5t-35.5 -92.5q0 -54 35.5 -91.5t89.5 -37.5t89.5 37.5t35.5 91.5zM823 152q-37 -76 -117.5 -127.5
t-189.5 -51.5q-119 0 -203.5 55.5t-122.5 141.5t-38 192v615h122v-594q0 -129 65 -214t200 -85q127 0 201.5 85t74.5 212v596h123v-791q0 -100 12 -186h-116q-11 55 -11 137v15z" />
    <glyph glyph-name="Uhungarumlaut" unicode="&#x170;" horiz-adv-x="1376" 
d="M1018 1798l-199 -244h-92l152 244h139zM782 1798l-198 -244h-92l151 244h139zM688 -27q-227 0 -362.5 133t-135.5 377v969h132v-963q0 -192 94 -294.5t272 -102.5t272.5 102.5t94.5 294.5v963h131v-969q0 -243 -135.5 -376.5t-362.5 -133.5z" />
    <glyph glyph-name="uhungarumlaut" unicode="&#x171;" horiz-adv-x="1103" 
d="M823 152q-37 -76 -117.5 -127.5t-189.5 -51.5q-119 0 -203.5 55.5t-122.5 141.5t-38 192v615h122v-594q0 -129 65 -214t200 -85q127 0 201.5 85t74.5 212v596h123v-791q0 -100 12 -186h-116q-11 55 -11 137v15zM848 1384l-184 -284h-91l138 284h137zM631 1384l-185 -284
h-90l138 284h137z" />
    <glyph glyph-name="Uogonek" unicode="&#x172;" horiz-adv-x="1376" 
d="M571 -240q0 122 113 213q-225 2 -359.5 135t-134.5 375v969h132v-963q0 -192 94 -294.5t272 -102.5t272.5 102.5t94.5 294.5v963h131v-969q0 -201 -93 -327.5t-257 -163.5q-13 -2 -33 -17q-127 -90 -127 -192q0 -56 37 -86.5t92 -30.5q39 0 69 10v-90q-40 -16 -92 -16
q-91 0 -151 51t-60 139z" />
    <glyph glyph-name="uogonek" unicode="&#x173;" horiz-adv-x="1103" 
d="M676 -240q0 147 155 244q-8 46 -8 133v15q-37 -76 -117.5 -127.5t-189.5 -51.5q-119 0 -203.5 55.5t-122.5 141.5t-38 192v615h122v-594q0 -129 65 -214t200 -85q127 0 201.5 85t74.5 212v596h123v-791q0 -100 12 -186q-69 -35 -119.5 -91.5t-50.5 -125.5q0 -56 37 -86.5
t92 -30.5q40 0 70 10v-90q-40 -16 -92 -16q-91 0 -151 51t-60 139z" />
    <glyph glyph-name="Wcircumflex" unicode="&#x174;" horiz-adv-x="2027" 
d="M813 1554h-121l236 244h168l237 -244h-121l-200 172zM1487 182l356 1270h133l-417 -1452h-142l-405 1282l-406 -1282h-135l-424 1452h135l359 -1270l401 1270h141z" />
    <glyph glyph-name="wcircumflex" unicode="&#x175;" horiz-adv-x="1628" 
d="M627 1102h-111l225 280h148l225 -280h-110l-189 203zM750 977h133l291 -825l256 825h133l-320 -977h-137l-291 827l-291 -827h-137l-324 977h136l260 -825z" />
    <glyph glyph-name="Ycircumflex" unicode="&#x176;" horiz-adv-x="1261" 
d="M567 621l-508 831h154l418 -711l420 711h151l-508 -831v-621h-127v621zM432 1554h-121l236 244h168l237 -244h-121l-200 172z" />
    <glyph glyph-name="ycircumflex" unicode="&#x177;" horiz-adv-x="1026" 
d="M328 1102h-111l225 280h148l225 -280h-110l-189 203zM356 -389h-133l244 516l-416 850h137l342 -721l324 721h135z" />
    <glyph glyph-name="Ydieresis" unicode="&#x178;" horiz-adv-x="1261" 
d="M567 621l-508 831h154l418 -711l420 711h151l-508 -831v-621h-127v621zM334 1677q0 37 25.5 62.5t62.5 25.5t62.5 -25.5t25.5 -62.5t-25.5 -62.5t-62.5 -25.5t-62.5 25.5t-25.5 62.5zM752 1677q0 37 25.5 62.5t62.5 25.5t62.5 -25.5t25.5 -62.5t-25.5 -62.5t-62.5 -25.5
t-62.5 25.5t-25.5 62.5z" />
    <glyph glyph-name="Zacute" unicode="&#x179;" horiz-adv-x="1277" 
d="M922 1798l-275 -244h-117l220 244h172zM1194 0h-1112v133l954 1200h-942v119h1094v-129l-957 -1204h963v-119z" />
    <glyph glyph-name="zacute" unicode="&#x17a;" horiz-adv-x="950" 
d="M721 1384l-242 -284h-100l182 284h160zM864 0h-776v109l619 757h-613v111h760v-109l-614 -757h624v-111z" />
    <glyph glyph-name="Zdotaccent" unicode="&#x17b;" horiz-adv-x="1277" 
d="M1194 0h-1112v133l954 1200h-942v119h1094v-129l-957 -1204h963v-119zM549 1675q0 40 28 68.5t68 28.5t68 -28.5t28 -68.5t-28 -68t-68 -28t-68 28t-28 68z" />
    <glyph glyph-name="zdotaccent" unicode="&#x17c;" horiz-adv-x="950" 
d="M864 0h-776v109l619 757h-613v111h760v-109l-614 -757h624v-111zM371 1243q0 40 28 68t68 28t68 -28t28 -68t-28 -68t-68 -28t-68 28t-28 68z" />
    <glyph glyph-name="Zcaron" unicode="&#x17d;" horiz-adv-x="1277" 
d="M330 1798h121l198 -172l201 172h121l-238 -244h-168zM1194 0h-1112v133l954 1200h-942v119h1094v-129l-957 -1204h963v-119z" />
    <glyph glyph-name="zcaron" unicode="&#x17e;" horiz-adv-x="950" 
d="M170 1382h111l188 -202l188 202h111l-225 -280h-148zM864 0h-776v109l619 757h-613v111h760v-109l-614 -757h624v-111z" />
    <glyph glyph-name="uni018F" unicode="&#x18f;" horiz-adv-x="1605" 
d="M786 1360q-192 0 -345.5 -108t-207.5 -283l-116 41q66 208 252 338.5t417 130.5q108 0 211 -31.5t194 -95t159.5 -152t108.5 -211.5t40 -264t-39.5 -263.5t-108 -211t-159 -152t-193.5 -94.5t-211 -31t-210 31t-191.5 94.5t-157 152t-106.5 211t-39 263.5v14h1284
q-2 118 -35 220t-88.5 174.5t-129 124.5t-157 77t-172.5 25zM788 92q102 0 197.5 34.5t173.5 99.5t131.5 167t69.5 228h-1139q15 -126 67.5 -228t129.5 -167t172 -99.5t198 -34.5z" />
    <glyph glyph-name="florin" unicode="&#x192;" horiz-adv-x="10485" 
d="M4358 782q227 -55 326.5 -148t99.5 -249q0 -183 -130 -293t-347 -110q-312 0 -549 211q-6 6 -6 10q0 8 4 12l137 164q6 6 10 6q9 0 13 -4q99 -87 193.5 -126.5t203.5 -39.5q98 0 155.5 40.5t57.5 109.5q0 44 -19.5 72.5t-81 56t-179.5 55.5q-89 21 -154 43.5t-122 55
t-92 74t-55 98.5t-20 130q0 173 128.5 283t330.5 110q278 0 479 -165q6 -6 6 -13q0 -2 -4 -10l-121 -172q-4 -8 -14 -8q-6 0 -10 4q-174 131 -340 131q-88 0 -141.5 -38t-53.5 -101q0 -47 21.5 -75.5t85 -55.5t188.5 -58zM5442 1028q89 0 172 -34.5t149.5 -98t107 -165.5
t40.5 -226t-40 -225.5t-107 -165t-150 -97.5t-172 -34q-191 0 -314 141v-399q0 -8 -5.5 -13.5t-12.5 -5.5h-221q-7 0 -13 5.5t-6 13.5v1267q0 7 5.5 12t13.5 5h221q18 0 18 -17v-114q127 151 314 151zM5652 504q0 129 -74 213t-188 84q-115 0 -191.5 -84.5t-76.5 -212.5
t76.5 -212.5t191.5 -84.5q116 0 189 82.5t73 214.5zM6519 1028q147 0 270 -69.5t193.5 -190t70.5 -264.5q0 -145 -71.5 -265.5t-195 -189.5t-271.5 -69q-147 0 -269.5 68.5t-193 188t-70.5 263.5q0 145 71 266.5t194.5 191.5t271.5 70zM6519 205q120 0 198 83.5t78 211.5
q0 129 -80 214t-200 85q-122 0 -200.5 -83t-78.5 -212q0 -128 81 -213.5t202 -85.5zM7449 1008h245q17 0 17 -17v-192q0 -6 -5 -11.5t-12 -5.5h-245v-460q0 -56 25 -81.5t79 -25.5q61 0 111 25q25 10 26 10q6 0 11.5 -5t5.5 -14v-178q0 -11 -13 -18q-87 -51 -204 -51
q-297 0 -297 303v495h-109q-5 0 -9.5 5.5t-4.5 11.5v192q0 7 4.5 12t9.5 5h109v252q0 6 5 10t11 4h223q6 0 11.5 -4t5.5 -10v-252zM8794 1145q-2 0 -7 1.5l-15 4.5t-21 6q-53 12 -88 12q-59 0 -86 -32t-27 -101v-28h381q13 0 17 -9l260 -684l237 682q4 11 15 11h233
q5 0 11 -5t6 -12q0 -4 -5 -14l-385 -993q-60 -156 -135.5 -220.5t-199.5 -64.5q-120 0 -238 59q-8 4 -8 13q0 6 2 10l74 168q3 10 14 10q1 0 4 -1t4 -1q73 -37 123 -37q40 0 67.5 20t53.5 78l-318 764h-209v-764q0 -8 -5 -13t-13 -5h-221q-8 0 -13.5 5.5t-5.5 12.5v764h-106
q-6 0 -10 5.5t-4 11.5v194q0 15 14 15h106v49q0 163 81.5 248.5t236.5 85.5q104 0 184 -25q12 -4 12 -16v-189q0 -5 -4.5 -10.5t-11.5 -5.5zM7830 1008h225q14 0 14 -17v-973q0 -18 -14 -18h-225q-5 0 -10 5.5t-5 12.5v973q0 7 5 12t10 5zM7942 1450q66 0 114 -46t48 -112
q0 -67 -48 -114.5t-114 -47.5t-112 47t-46 115q0 66 46 112t112 46zM9898 692q-65 0 -110.5 46.5t-45.5 111.5t45.5 111.5t110.5 46.5q66 0 112 -45.5t46 -110.5q0 -66 -46 -113t-112 -47zM9898 991q-59 0 -99 -41t-40 -100q0 -60 39.5 -101.5t99.5 -41.5q61 0 102 42
t41 103q0 58 -41 98.5t-102 40.5zM9935 834l45 -62h-39l-41 55h-33v-55h-30v166h71q30 0 48 -14.5t18 -40.5q0 -33 -39 -49zM9908 909h-41v-53h41q14 0 23.5 7.5t9.5 17.5q0 13 -9.5 20.5t-23.5 7.5zM2458 -12q36 0 63 27t27 65q0 51 -43 76q-367 227 -863 227
q-249 0 -538 -66q-31 -8 -50.5 -31.5t-19.5 -54.5q0 -37 24.5 -63.5t63.5 -26.5q8 0 24 3t35 8t25 6q226 47 441 47q429 0 763 -203q24 -14 48 -14zM2615 371q45 0 79 33.5t34 80.5q0 67 -53 97q-216 132 -489 202t-556 70q-306 0 -577 -82q-36 -10 -58 -40.5t-22 -67.5
q0 -46 29 -78.5t77 -32.5q21 0 33 2.5t36.5 10t53.5 14.5q199 49 424 49q254 0 498 -62.5t432 -179.5q29 -16 59 -16zM2728 836q32 -19 68 -19q57 0 97 39t40 96q0 34 -18 65.5t-50 49.5q-247 144 -558.5 214.5t-655.5 70.5q-378 0 -678 -90q-44 -13 -70 -49t-26 -80
q0 -54 38 -96t95 -42q21 0 39 6q267 80 614 80q295 0 576.5 -61t488.5 -184zM430 670q0 197 52 384.5t145.5 346t227 292t292 226.5t346 145t383.5 52t383.5 -52t345.5 -145t291.5 -226.5t226.5 -292t145 -346t52 -384.5t-52 -384t-145 -345.5t-226.5 -292t-291.5 -226
t-345.5 -144.5t-383.5 -52t-383.5 52t-346 144.5t-292 226t-227 292t-145.5 345.5t-52 384z" />
    <glyph glyph-name="uni01B5" unicode="&#x1b5;" horiz-adv-x="1294" 
d="M1202 0h-1112v133l447 561h-336v111h424l419 528h-942v119h1094v-129l-412 -518h318v-111h-406l-456 -575h962v-119z" />
    <glyph glyph-name="uni01B6" unicode="&#x1b6;" horiz-adv-x="972" 
d="M879 0h-777v109l287 352h-272v102h356l248 303h-612v111h759v-109l-247 -305h217v-102h-301l-283 -350h625v-111z" />
    <glyph glyph-name="Aringacute" unicode="&#x1fa;" horiz-adv-x="1421" 
d="M709 1323l-299 -756h600zM823 1571q0 51 -32.5 85t-83.5 34q-48 0 -80.5 -34t-32.5 -85t32.5 -84t80.5 -33q51 0 83.5 33t32.5 84zM915 1571q0 -57 -28.5 -104t-75.5 -72l565 -1395h-139l-180 449h-695l-178 -449h-139l565 1393q-49 27 -77.5 73.5t-28.5 104.5
q0 87 60 147t145 60t145.5 -60t60.5 -147zM1047 2091l-275 -244h-117l219 244h173z" />
    <glyph glyph-name="aringacute" unicode="&#x1fb;" horiz-adv-x="1024" 
d="M412 -25q-147 0 -233.5 82.5t-86.5 194.5q0 121 78 194.5t215 94.5l260 39q59 8 81 32t22 62q0 99 -64.5 160t-181.5 61t-190 -60.5t-85 -166.5l-114 24q17 139 123.5 224t263.5 85q182 0 276 -95.5t94 -243.5v-494q0 -91 15 -168h-121q-12 69 -12 168
q-38 -78 -127 -135.5t-213 -57.5zM426 80q142 0 232 86.5t90 232.5v111q-16 -16 -72 -25l-273 -41q-88 -12 -137 -60t-49 -126q0 -72 56.5 -125t152.5 -53zM795 1880l-242 -285h-100l182 285h160zM717 1296q0 -89 -63 -152t-152 -63q-88 0 -151.5 63t-63.5 152t63.5 152
t151.5 63q89 0 152 -63t63 -152zM627 1296q0 54 -35.5 91.5t-89.5 37.5t-89.5 -37.5t-35.5 -91.5t35.5 -91.5t89.5 -37.5t89.5 37.5t35.5 91.5z" />
    <glyph glyph-name="AEacute" unicode="&#x1fc;" horiz-adv-x="2004" 
d="M1423 1798l-274 -244h-117l219 244h172zM1890 0h-856v449h-579l-293 -449h-162l967 1452h923v-119h-725v-547h662v-118h-662v-549h725v-119zM1034 1335l-502 -768h502v768z" />
    <glyph glyph-name="aeacute" unicode="&#x1fd;" horiz-adv-x="1746" 
d="M1143 1384l-242 -284h-100l182 284h160zM428 78q142 0 232 87t90 234v119q-10 -11 -51 -23.5t-78 -17.5l-220 -33q-86 -12 -134 -60t-48 -126q0 -73 56 -126.5t153 -53.5zM877 567h651q-3 142 -90 234t-236 92q-134 0 -225 -94t-100 -232zM414 -27q-147 0 -234.5 83.5
t-87.5 195.5q0 121 78 194t217 95l260 39q103 16 103 96q0 99 -65 160t-181 61q-117 0 -189.5 -61.5t-83.5 -167.5l-118 26q17 140 124.5 225t264.5 85q130 0 217 -51t125 -140q61 91 155 141t201 50q213 0 334 -136.5t123 -357.5q0 -29 -2 -45h-783v-25
q6 -159 106.5 -257.5t244.5 -98.5q125 0 205.5 63.5t113.5 167.5l109 -39q-44 -133 -155.5 -218t-272.5 -85q-134 0 -243.5 65.5t-170.5 186.5q-46 -111 -144.5 -181.5t-250.5 -70.5z" />
    <glyph glyph-name="Oslashacute" unicode="&#x1fe;" horiz-adv-x="1634" 
d="M106 725q0 176 60.5 321.5t161 238.5t226.5 143.5t261 50.5q234 0 424 -142l152 197l88 -66l-158 -202q205 -212 205 -541q0 -141 -39.5 -263.5t-108 -211t-159 -152t-193.5 -94.5t-211 -31q-218 0 -401 123l-144 -184l-88 65l146 189q-104 100 -163 241t-59 318z
M238 725q0 -286 165 -461l762 979q-150 117 -350 117q-113 0 -215.5 -41.5t-184 -119t-129.5 -200.5t-48 -274zM1395 725q0 267 -152 442l-756 -974q143 -101 328 -101q113 0 216 41.5t185 119t130.5 200t48.5 272.5zM1133 1798l-275 -244h-117l220 244h172z" />
    <glyph glyph-name="oslashacute" unicode="&#x1ff;" 
d="M578 1004q154 0 276 -89l113 146l80 -64l-117 -149q129 -145 129 -361q0 -226 -138 -370t-343 -144q-150 0 -269 80l-106 -137l-78 64l108 139q-135 145 -135 368q0 228 137 372.5t343 144.5zM221 487q0 -164 86 -274l477 612q-89 68 -206 68q-149 0 -253 -110.5
t-104 -295.5zM578 84q151 0 254.5 109.5t103.5 293.5q0 156 -80 267l-475 -611q86 -59 197 -59zM852 1384l-242 -284h-100l182 284h160z" />
    <glyph glyph-name="Scommaaccent" unicode="&#x218;" horiz-adv-x="1191" 
d="M1071 1122l-115 -41q-26 124 -114 203.5t-240 79.5q-135 0 -233.5 -81.5t-98.5 -205.5q0 -98 59.5 -164t170.5 -92l221 -51q173 -41 268.5 -139.5t95.5 -249.5q0 -172 -133 -290t-348 -118q-115 0 -211.5 36.5t-159.5 97.5t-101 137.5t-48 161.5l121 38
q14 -149 120.5 -251.5t278.5 -102.5q163 0 257.5 79.5t94.5 201.5q0 101 -67.5 172t-192.5 100l-219 51q-154 35 -245 130.5t-91 244.5q0 110 64 205t169 150t224 55q107 0 192.5 -29.5t141 -81t89.5 -112.5t50 -134zM518 -172q0 38 27.5 62t66.5 24q42 0 73.5 -30.5
t31.5 -90.5q0 -98 -60 -156t-143 -63v61q52 4 89 38.5t40 80.5q-12 -12 -39 -12q-37 0 -61.5 23.5t-24.5 62.5z" />
    <glyph glyph-name="scommaaccent" unicode="&#x219;" horiz-adv-x="899" 
d="M82 256l113 39q14 -94 83.5 -154.5t184.5 -60.5q92 0 154.5 49t62.5 125q0 124 -166 164l-158 37q-111 26 -175 92t-64 168q0 118 97.5 202t231.5 84q81 0 146 -22t105.5 -60t64.5 -80t35 -89l-109 -41q-15 80 -74.5 133t-167.5 53q-85 0 -146.5 -48.5t-61.5 -123.5
q0 -121 153 -156l156 -35q123 -28 188.5 -96.5t65.5 -173.5q0 -116 -92.5 -202.5t-247.5 -86.5q-86 0 -157 25.5t-116.5 68t-72 90.5t-33.5 99zM362 -172q0 37 28 61.5t67 24.5q42 0 73 -30.5t31 -90.5q0 -98 -60 -156t-143 -63v61q52 4 89 38.5t40 80.5q-12 -12 -38 -12
q-38 0 -62.5 23.5t-24.5 62.5z" />
    <glyph glyph-name="uni021A" unicode="&#x21a;" horiz-adv-x="1234" 
d="M520 -172q0 38 27.5 62t66.5 24q42 0 73.5 -30.5t31.5 -90.5q0 -98 -60 -156t-143 -63v61q52 4 89 38.5t40 80.5q-12 -12 -39 -12q-37 0 -61.5 23.5t-24.5 62.5zM1196 1333h-514v-1333h-131v1333h-512v119h1157v-119z" />
    <glyph glyph-name="uni021B" unicode="&#x21b;" horiz-adv-x="671" 
d="M362 1286v-309h254v-111h-254v-590q0 -176 166 -176q50 0 88 17v-109q-30 -15 -108 -18l-70 -105q24 9 49 9q81 0 131 -43.5t50 -112.5q0 -73 -58.5 -120.5t-163.5 -47.5q-69 0 -128.5 27.5t-92.5 68.5l56 66q67 -80 163 -80q59 0 93 22.5t34 63.5q0 39 -30 61.5
t-86 22.5q-41 0 -76 -17l-49 60l86 135q-84 21 -130 88t-46 176v602h-207v111h73q72 0 105 34t33 109v166h118z" />
    <glyph glyph-name="dotlessj" unicode="&#x237;" horiz-adv-x="450" 
d="M164 -129v1106h123v-1110q0 -132 -70 -207.5t-188 -75.5q-71 0 -109 19v104q34 -12 84 -12q82 0 121 42.5t39 133.5z" />
    <glyph glyph-name="uni0259" unicode="&#x259;" horiz-adv-x="1095" 
d="M870 410h-651q3 -142 90 -234t236 -92q134 0 225 94t100 232zM205 662l-109 38q44 133 155.5 218.5t272.5 85.5q97 0 183 -35.5t151 -100.5t103 -164t38 -219q0 -112 -36.5 -209t-98 -162.5t-144 -103t-173.5 -37.5q-213 0 -334 136.5t-123 357.5q0 29 2 45h782v8
q-1 83 -28.5 153t-74.5 118t-111 75t-136 27q-125 0 -205.5 -63.5t-113.5 -167.5z" />
    <glyph glyph-name="circumflex" unicode="&#x2c6;" horiz-adv-x="782" 
d="M203 1102h-111l225 280h148l225 -280h-110l-189 203z" />
    <glyph glyph-name="caron" unicode="&#x2c7;" horiz-adv-x="765" 
d="M84 1382h111l188 -202l188 202h111l-225 -280h-148z" />
    <glyph glyph-name="uni02C9" unicode="&#x2c9;" horiz-adv-x="704" 
d="M612 1194h-520v102h520v-102z" />
    <glyph glyph-name="breve" unicode="&#x2d8;" horiz-adv-x="757" 
d="M379 1102q-132 0 -208.5 84.5t-78.5 197.5h96q3 -74 52 -128t139 -54t138.5 54t51.5 128h97q-2 -113 -78.5 -197.5t-208.5 -84.5z" />
    <glyph glyph-name="dotaccent" unicode="&#x2d9;" horiz-adv-x="344" 
d="M76 1243q0 40 28 68t68 28t68 -28t28 -68t-28 -68t-68 -28t-68 28t-28 68z" />
    <glyph glyph-name="ring" unicode="&#x2da;" horiz-adv-x="614" 
d="M522 1300q0 -89 -63 -152t-152 -63q-88 0 -151.5 63t-63.5 152t63.5 152.5t151.5 63.5q89 0 152 -63.5t63 -152.5zM432 1300q0 55 -35.5 92.5t-89.5 37.5t-89.5 -37.5t-35.5 -92.5q0 -54 35.5 -91.5t89.5 -37.5t89.5 37.5t35.5 91.5z" />
    <glyph glyph-name="ogonek" unicode="&#x2db;" horiz-adv-x="471" 
d="M84 -240q0 159 190 265l84 -25q-69 -35 -119.5 -91.5t-50.5 -125.5q0 -56 37 -86.5t92 -30.5q40 0 70 10v-90q-40 -16 -92 -16q-91 0 -151 51t-60 139z" />
    <glyph glyph-name="tilde" unicode="&#x2dc;" horiz-adv-x="804" 
d="M713 1350v-23q0 -93 -49 -146t-121 -53q-67 0 -133 48l-43 30q-59 41 -101 41q-78 0 -78 -112h-96v24q0 91 49 143t125 52q72 0 146 -56l37 -26q50 -37 90 -37q77 0 77 115h97z" />
    <glyph glyph-name="hungarumlaut" unicode="&#x2dd;" horiz-adv-x="675" 
d="M584 1384l-185 -284h-90l137 284h138zM367 1384l-185 -284h-90l137 284h138z" />
    <glyph glyph-name="uni0394" unicode="&#x394;" horiz-adv-x="1404" 
d="M49 0l580 1452h147l582 -1452h-1309zM702 1315l-469 -1196h938z" />
    <glyph glyph-name="uni03A9" unicode="&#x3a9;" horiz-adv-x="1679" 
d="M840 1362q-114 0 -220.5 -41.5t-189 -116t-132.5 -188t-50 -246.5q0 -120 41.5 -226t111 -181t158 -125t184.5 -68v-170h-606v113h455q-95 30 -179.5 88.5t-151 141t-105.5 193.5t-39 234q0 157 59 291.5t158.5 225t231 141.5t274.5 51t274 -51t230.5 -141.5t159 -225
t59.5 -291.5q0 -123 -39 -234t-106 -193.5t-151.5 -141t-179.5 -88.5h455v-113h-606v170q96 18 184.5 68t158.5 125t111.5 181t41.5 226q0 133 -50 246.5t-132.5 188t-189 116t-220.5 41.5z" />
    <glyph glyph-name="uni03BC" unicode="&#x3bc;" horiz-adv-x="1118" 
d="M530 -27q-165 0 -243 111v-473h-123v1366h123v-596q0 -61 15 -112.5t45.5 -94t83 -66.5t122.5 -24q127 0 201.5 85t74.5 212v596h123v-791q0 -93 13 -186h-117q-10 50 -10 137v15q-36 -76 -117.5 -127.5t-190.5 -51.5z" />
    <glyph glyph-name="pi" unicode="&#x3c0;" horiz-adv-x="1187" 
d="M1104 10q-58 -20 -117 -20q-102 0 -156.5 62t-54.5 157v657h-418v-866h-122v866h-195v111h1055v-111h-197v-645q0 -60 33.5 -90.5t91.5 -30.5q36 0 80 13v-103z" />
    <glyph glyph-name="Wgrave" unicode="&#x1e80;" horiz-adv-x="2027" 
d="M954 1554l-274 244h172l219 -244h-117zM1487 182l356 1270h133l-417 -1452h-142l-405 1282l-406 -1282h-135l-424 1452h135l359 -1270l401 1270h141z" />
    <glyph glyph-name="wgrave" unicode="&#x1e81;" horiz-adv-x="1628" 
d="M766 1100l-242 284h156l182 -284h-96zM750 977h133l291 -825l256 825h133l-320 -977h-137l-291 827l-291 -827h-137l-324 977h136l260 -825z" />
    <glyph glyph-name="Wacute" unicode="&#x1e82;" horiz-adv-x="2027" 
d="M1348 1798l-275 -244h-117l220 244h172zM1487 182l356 1270h133l-417 -1452h-142l-405 1282l-406 -1282h-135l-424 1452h135l359 -1270l401 1270h141z" />
    <glyph glyph-name="wacute" unicode="&#x1e83;" horiz-adv-x="1628" 
d="M1110 1384l-242 -284h-100l182 284h160zM750 977h133l291 -825l256 825h133l-320 -977h-137l-291 827l-291 -827h-137l-324 977h136l260 -825z" />
    <glyph glyph-name="Wdieresis" unicode="&#x1e84;" horiz-adv-x="2027" 
d="M653 1677q0 37 25.5 62.5t62.5 25.5t62.5 -25.5t25.5 -62.5t-25.5 -62.5t-62.5 -25.5t-62.5 25.5t-25.5 62.5zM1194 1677q0 37 25.5 62.5t62.5 25.5t62.5 -25.5t25.5 -62.5t-25.5 -62.5t-62.5 -25.5t-62.5 25.5t-25.5 62.5zM1487 182l356 1270h133l-417 -1452h-142
l-405 1282l-406 -1282h-135l-424 1452h135l359 -1270l401 1270h141z" />
    <glyph glyph-name="wdieresis" unicode="&#x1e85;" horiz-adv-x="1628" 
d="M512 1249q0 35 25.5 61.5t60.5 26.5q36 0 62 -26t26 -62q0 -37 -25.5 -61.5t-62.5 -24.5q-36 0 -61 25t-25 61zM948 1249q0 36 25 62t61 26q35 0 60.5 -26.5t25.5 -61.5q0 -36 -25 -61t-61 -25q-37 0 -61.5 24.5t-24.5 61.5zM750 977h133l291 -825l256 825h133l-320 -977
h-137l-291 827l-291 -827h-137l-324 977h136l260 -825z" />
    <glyph glyph-name="uni1E8A" unicode="&#x1e8a;" horiz-adv-x="1210" 
d="M1169 1452l-489 -723l487 -729h-153l-408 625l-416 -625h-151l491 729l-487 723h156l407 -623l410 623h153zM512 1675q0 40 28 68.5t68 28.5t68.5 -28.5t28.5 -68.5t-28.5 -68t-68.5 -28t-68 28t-28 68z" />
    <glyph glyph-name="uni1E8B" unicode="&#x1e8b;" horiz-adv-x="978" 
d="M41 0l373 498l-357 479h146l286 -391l287 391h146l-361 -479l375 -498h-148l-301 410l-299 -410h-147zM391 1243q0 40 28 68t68 28t68.5 -28t28.5 -68t-28.5 -68t-68.5 -28t-68 28t-28 68z" />
    <glyph glyph-name="Ygrave" unicode="&#x1ef2;" horiz-adv-x="1261" 
d="M567 621l-508 831h154l418 -711l420 711h151l-508 -831v-621h-127v621zM600 1554l-274 244h172l219 -244h-117z" />
    <glyph glyph-name="ygrave" unicode="&#x1ef3;" horiz-adv-x="1026" 
d="M356 -389h-133l244 516l-416 850h137l342 -721l324 721h135zM506 1100l-242 284h156l182 -284h-96z" />
    <glyph glyph-name="uni2007" unicode="&#x2007;" horiz-adv-x="1241" 
 />
    <glyph glyph-name="uni2008" unicode="&#x2008;" horiz-adv-x="468" 
 />
    <glyph glyph-name="uni200B" unicode="&#x200b;" horiz-adv-x="0" 
 />
    <glyph glyph-name="endash" unicode="&#x2013;" horiz-adv-x="1306" 
d="M1165 532h-1024v111h1024v-111z" />
    <glyph glyph-name="emdash" unicode="&#x2014;" horiz-adv-x="2164" 
d="M2023 532h-1882v111h1882v-111z" />
    <glyph glyph-name="quoteleft" unicode="&#x2018;" horiz-adv-x="432" 
d="M315 1100q0 -39 -29.5 -67.5t-72.5 -28.5q-47 0 -81 36.5t-34 100.5q0 136 68.5 225t163.5 111v-74q-64 -18 -104 -80t-42 -133q10 10 37 10q40 0 67 -28t27 -72z" />
    <glyph glyph-name="quoteright" unicode="&#x2019;" horiz-adv-x="440" 
d="M137 1370q0 39 29.5 67.5t73.5 28.5q47 0 80.5 -36.5t33.5 -100.5q0 -136 -68.5 -225t-162.5 -111v74q64 18 103.5 80t41.5 133q-10 -10 -37 -10q-40 0 -67 28t-27 72z" />
    <glyph glyph-name="quotesinglbase" unicode="&#x201a;" horiz-adv-x="479" 
d="M131 94q0 39 29.5 67.5t72.5 28.5q47 0 81 -36.5t34 -100.5q0 -136 -68.5 -225t-162.5 -111v74q64 18 103.5 80t41.5 133q-10 -10 -37 -10q-40 0 -67 28t-27 72z" />
    <glyph glyph-name="quotedblleft" unicode="&#x201c;" horiz-adv-x="722" 
d="M315 1100q0 -39 -29.5 -67.5t-72.5 -28.5q-47 0 -81 36.5t-34 100.5q0 136 68.5 225t163.5 111v-74q-64 -18 -104 -80t-42 -133q10 10 37 10q40 0 67 -28t27 -72zM606 1100q0 -39 -29.5 -67.5t-72.5 -28.5q-47 0 -81 36.5t-34 100.5q0 136 68.5 225t163.5 111v-74
q-64 -18 -104 -80t-42 -133q10 10 37 10q40 0 67 -28t27 -72z" />
    <glyph glyph-name="quotedblright" unicode="&#x201d;" horiz-adv-x="731" 
d="M137 1370q0 39 29.5 67.5t73.5 28.5q47 0 80.5 -36.5t33.5 -100.5q0 -136 -68.5 -225t-162.5 -111v74q64 18 103.5 80t41.5 133q-10 -10 -37 -10q-40 0 -67 28t-27 72zM428 1370q0 39 29.5 67.5t72.5 28.5q47 0 81 -36.5t34 -100.5q0 -136 -68.5 -225t-162.5 -111v74
q64 18 103.5 80t41.5 133q-10 -10 -37 -10q-40 0 -67 28t-27 72z" />
    <glyph glyph-name="quotedblbase" unicode="&#x201e;" horiz-adv-x="784" 
d="M131 94q0 39 29.5 67.5t72.5 28.5q47 0 81 -36.5t34 -100.5q0 -136 -68.5 -225t-162.5 -111v74q64 18 103.5 80t41.5 133q-10 -10 -37 -10q-40 0 -67 28t-27 72zM436 94q0 39 29.5 67.5t73.5 28.5q47 0 80.5 -36.5t33.5 -100.5q0 -136 -68.5 -225t-162.5 -111v74
q64 18 103.5 80t41.5 133q-10 -10 -37 -10q-40 0 -67 28t-27 72z" />
    <glyph glyph-name="dagger" unicode="&#x2020;" horiz-adv-x="837" 
d="M473 332h-108v686h-279v104h279v330h108v-330h279v-104h-279v-686z" />
    <glyph glyph-name="daggerdbl" unicode="&#x2021;" horiz-adv-x="3749" 
d="M2458 -12q36 0 63 27t27 65q0 51 -43 76q-367 227 -863 227q-249 0 -538 -66q-31 -8 -50.5 -31.5t-19.5 -54.5q0 -37 24.5 -63.5t63.5 -26.5q8 0 24 3t35 8t25 6q226 47 441 47q429 0 763 -203q24 -14 48 -14zM2615 371q45 0 79 33.5t34 80.5q0 67 -53 97
q-216 132 -489 202t-556 70q-306 0 -577 -82q-36 -10 -58 -40.5t-22 -67.5q0 -46 29 -78.5t77 -32.5q21 0 33 2.5t36.5 10t53.5 14.5q199 49 424 49q254 0 498 -62.5t432 -179.5q29 -16 59 -16zM2728 836q32 -19 68 -19q57 0 97 39t40 96q0 34 -18 65.5t-50 49.5
q-247 144 -558.5 214.5t-655.5 70.5q-378 0 -678 -90q-44 -13 -70 -49t-26 -80q0 -54 38 -96t95 -42q21 0 39 6q267 80 614 80q295 0 576.5 -61t488.5 -184zM430 670q0 197 52 384.5t145.5 346t227 292t292 226.5t346 145t383.5 52t383.5 -52t345.5 -145t291.5 -226.5
t226.5 -292t145 -346t52 -384.5t-52 -384t-145 -345.5t-226.5 -292t-291.5 -226t-345.5 -144.5t-383.5 -52t-383.5 52t-346 144.5t-292 226t-227 292t-145.5 345.5t-52 384z" />
    <glyph glyph-name="bullet" unicode="&#x2022;" horiz-adv-x="1159" 
d="M154 578q0 179 124 302.5t302 123.5t302 -123.5t124 -302.5t-124 -302.5t-302 -123.5t-302 123.5t-124 302.5z" />
    <glyph glyph-name="ellipsis" unicode="&#x2026;" horiz-adv-x="1478" 
d="M131 92q0 42 29.5 71.5t70.5 29.5q42 0 71.5 -29.5t29.5 -71.5t-29.5 -71t-71.5 -29t-71 29t-29 71zM639 92q0 42 29.5 71.5t70.5 29.5q42 0 71.5 -29.5t29.5 -71.5t-29.5 -71t-71.5 -29t-71 29t-29 71zM1147 92q0 42 29.5 71.5t70.5 29.5q42 0 71.5 -29.5t29.5 -71.5
t-29.5 -71t-71.5 -29t-71 29t-29 71z" />
    <glyph glyph-name="perthousand" unicode="&#x2030;" horiz-adv-x="2162" 
d="M393 0h-121l969 1452h121zM389 942q87 0 146 61.5t59 151.5q0 89 -59.5 150t-145.5 61q-88 0 -147.5 -61t-59.5 -150q0 -91 59.5 -152t147.5 -61zM74 1155q0 130 92 221.5t223 91.5q130 0 223 -91.5t93 -221.5q0 -131 -93 -223t-223 -92q-131 0 -223 91.5t-92 223.5z
M932 299q0 130 92 221.5t223 91.5q82 0 152 -39t112 -106q42 67 112 106t153 39q131 0 223 -91.5t92 -221.5q0 -132 -92 -223.5t-223 -91.5q-83 0 -153 39t-112 106q-42 -67 -112 -106t-152 -39q-131 0 -223 91.5t-92 223.5zM1042 299q0 -90 59 -151.5t146 -61.5
q88 0 146.5 62t58.5 157q0 86 -60 145.5t-145 59.5q-86 0 -145.5 -61t-59.5 -150zM1571 299q0 -90 59 -151.5t146 -61.5q88 0 146 62t58 157q0 86 -59.5 145.5t-144.5 59.5q-86 0 -145.5 -61t-59.5 -150z" />
    <glyph glyph-name="guilsinglleft" unicode="&#x2039;" horiz-adv-x="606" 
d="M494 195h-123l-273 391l273 391h123l-271 -391z" />
    <glyph glyph-name="guilsinglright" unicode="&#x203a;" horiz-adv-x="606" 
d="M236 195h-123l270 391l-270 391h123l272 -391z" />
    <glyph glyph-name="uni2042" unicode="&#x2042;" horiz-adv-x="1683" 
d="M887 1452v-270l256 88l28 -84l-258 -90l168 -226l-71 -55l-170 232l-162 -230l-74 55l164 224l-256 88l29 86l252 -90v272h94zM446 639v-270l256 88l29 -84l-258 -90l168 -226l-72 -55l-170 231l-161 -229l-74 55l164 224l-256 88l28 86l252 -90v272h94zM1329 639v-270
l256 88l29 -84l-258 -90l168 -226l-72 -55l-170 231l-162 -229l-73 55l163 224l-256 88l29 86l252 -90v272h94z" />
    <glyph glyph-name="fraction" unicode="&#x2044;" horiz-adv-x="268" 
d="M565 1452h113l-967 -1452h-117z" />
    <glyph glyph-name="uni2051" unicode="&#x2051;" horiz-adv-x="909" 
d="M500 1452v-270l256 88l28 -84l-258 -90l168 -226l-71 -55l-170 232l-162 -230l-74 55l164 224l-256 88l29 86l252 -90v272h94zM500 639v-270l256 88l28 -84l-258 -90l168 -226l-71 -55l-170 231l-162 -229l-74 55l164 224l-256 88l29 86l252 -90v272h94z" />
    <glyph glyph-name="uni2070" unicode="&#x2070;" horiz-adv-x="774" 
d="M190 1081q0 -57 9 -105.5t30 -93.5t61 -70.5t97 -25.5t97 25.5t61 70.5t30 93.5t9 105.5q0 56 -9 104.5t-30 93t-61 70t-97 25.5t-97 -25.5t-61 -70t-30 -93t-9 -104.5zM84 1081q0 170 74 275q81 110 229 110t229 -110q74 -101 74 -275q0 -175 -74 -274
q-82 -111 -229 -111t-229 111q-74 102 -74 274z" />
    <glyph glyph-name="uni2074" unicode="&#x2074;" horiz-adv-x="751" 
d="M55 879v104l369 471h125v-483h145v-92h-145v-168h-105v168h-389zM444 971v366l-286 -366h286z" />
    <glyph glyph-name="uni2075" unicode="&#x2075;" horiz-adv-x="696" 
d="M61 899l93 41q11 -67 62 -110.5t122 -43.5q78 0 127 46t49 118q0 73 -49 117.5t-125 44.5q-93 0 -160 -70l-92 33l100 379h402v-90h-332l-61 -231q63 63 170 63q114 0 184 -67.5t70 -176.5q0 -108 -77.5 -182t-205.5 -74q-107 0 -185 60t-92 143z" />
    <glyph glyph-name="uni2076" unicode="&#x2076;" horiz-adv-x="741" 
d="M641 1427l-27 -81q-59 32 -141 32q-128 0 -203 -82t-84 -213q22 52 83.5 87.5t133.5 35.5q116 0 190.5 -69.5t74.5 -184.5q0 -112 -82.5 -184t-204.5 -72q-129 0 -214 91.5t-85 252.5q0 199 110 312.5t275 113.5q110 0 174 -39zM205 952q0 -73 53 -119.5t125 -46.5
q73 0 125.5 46.5t52.5 119.5q0 74 -52.5 120t-125.5 46q-72 0 -125 -46t-53 -120z" />
    <glyph glyph-name="uni2077" unicode="&#x2077;" horiz-adv-x="673" 
d="M633 1454v-96q-295 -238 -340 -647h-111q11 106 41.5 204.5t64.5 166t79 130t74 93.5t59 59h-451v90h584z" />
    <glyph glyph-name="uni2078" unicode="&#x2078;" horiz-adv-x="727" 
d="M365 1135q69 0 112 33.5t43 88.5t-42 90t-113 35q-72 0 -114 -35t-42 -90t42.5 -88.5t113.5 -33.5zM365 786q81 0 127.5 36.5t46.5 95.5t-46 96t-128 37q-83 0 -130 -37t-47 -96q0 -58 47.5 -95t129.5 -37zM365 696q-131 0 -207 60.5t-76 152.5q0 63 41.5 113t109.5 70
q-58 21 -93.5 66.5t-35.5 103.5q0 90 72.5 147t188.5 57q115 0 187.5 -57t72.5 -147q0 -58 -36 -103.5t-95 -66.5q69 -20 110 -70t41 -113q0 -93 -74.5 -153t-205.5 -60z" />
    <glyph glyph-name="uni2079" unicode="&#x2079;" horiz-adv-x="737" 
d="M98 739l27 82q66 -37 149 -37q123 0 198 77.5t79 223.5q-23 -55 -82.5 -89.5t-130.5 -34.5q-113 0 -188.5 69t-75.5 182q0 109 82 181.5t202 72.5q128 0 212.5 -90.5t84.5 -249.5q0 -198 -97.5 -315t-278.5 -117q-109 0 -181 45zM530 1212q0 73 -51.5 118.5t-124.5 45.5
t-123.5 -45.5t-50.5 -118.5t50.5 -118t123.5 -45t124.5 45t51.5 118z" />
    <glyph glyph-name="uni2080" unicode="&#x2080;" horiz-adv-x="778" 
d="M193 205q0 -57 9 -105.5t29.5 -93.5t60.5 -70.5t97 -25.5t97 25.5t61 70.5t30 93.5t9 105.5q0 56 -9 104.5t-30 93t-61 70t-97 25.5t-97 -25.5t-60.5 -70.5t-29.5 -93t-9 -104zM86 205q0 169 74 274q82 111 229 111t229 -111q74 -101 74 -274q0 -176 -74 -275
q-81 -110 -229 -110t-229 110q-74 102 -74 275z" />
    <glyph glyph-name="uni2081" unicode="&#x2081;" horiz-adv-x="448" 
d="M338 -166h-105v586q-28 -29 -75.5 -50.5t-102.5 -25.5v80q74 10 123 53t60 101h100v-744z" />
    <glyph glyph-name="uni2082" unicode="&#x2082;" horiz-adv-x="704" 
d="M197 301l-103 6q-4 28 -4 49q0 98 72 166t190 68q115 0 185.5 -65t70.5 -160q0 -130 -147 -222l-152 -94q-83 -55 -94 -125h401v-90h-528v10q0 180 160 277l141 86q113 70 113 160q0 56 -42 95.5t-110 39.5q-70 0 -113.5 -42t-43.5 -112q0 -15 4 -47z" />
    <glyph glyph-name="uni2083" unicode="&#x2083;" horiz-adv-x="729" 
d="M303 195l-45 79l234 213h-400v91h537v-86l-238 -213q2 0 9.5 1t9.5 1q99 -3 167 -60.5t68 -159.5t-79 -171.5t-204 -69.5q-121 0 -199.5 61.5t-90.5 155.5l94 35q6 -73 62 -118.5t132 -45.5q77 0 128 43.5t51 109.5q0 69 -49 106.5t-121 37.5q-36 0 -66 -10z" />
    <glyph glyph-name="uni2084" unicode="&#x2084;" horiz-adv-x="753" 
d="M57 2v104l369 472h125v-484h145v-92h-145v-168h-105v168h-389zM446 94v367l-286 -367h286z" />
    <glyph glyph-name="uni2085" unicode="&#x2085;" horiz-adv-x="698" 
d="M63 23l93 40q11 -67 62 -110t122 -43q78 0 127 46t49 118q0 73 -49 117.5t-125 44.5q-93 0 -160 -70l-92 33l100 379h402v-91h-332l-61 -231q63 63 170 63q114 0 184 -67t70 -176q0 -108 -77.5 -182t-205.5 -74q-107 0 -185 60t-92 143z" />
    <glyph glyph-name="uni2086" unicode="&#x2086;" horiz-adv-x="745" 
d="M643 551l-27 -82q-61 33 -141 33q-128 0 -203 -82t-84 -213q22 52 84 87.5t134 35.5q116 0 190 -69.5t74 -184.5q0 -112 -82.5 -184t-204.5 -72q-129 0 -214 91.5t-85 252.5q0 199 110 312.5t275 113.5q110 0 174 -39zM207 76q0 -73 53 -119.5t125 -46.5q73 0 125.5 46.5
t52.5 119.5q0 74 -52.5 120t-125.5 46q-72 0 -125 -46t-53 -120z" />
    <glyph glyph-name="uni2087" unicode="&#x2087;" horiz-adv-x="673" 
d="M635 578v-97q-295 -238 -340 -647h-111q11 106 41.5 204.5t64.5 166t79 130t74 93.5t59 59h-451v91h584z" />
    <glyph glyph-name="uni2088" unicode="&#x2088;" horiz-adv-x="731" 
d="M367 258q69 0 112 34t43 89t-42 90t-113 35q-72 0 -114 -35t-42 -90q0 -56 43 -89.5t113 -33.5zM367 -90q81 0 127.5 36.5t46.5 94.5q0 59 -46 96t-128 37q-83 0 -130 -37t-47 -96q0 -58 47.5 -94.5t129.5 -36.5zM367 -180q-131 0 -207 60.5t-76 152.5q0 62 42 112
t110 70q-58 21 -94 66.5t-36 103.5q0 90 72.5 147.5t188.5 57.5q115 0 187.5 -57.5t72.5 -147.5q0 -58 -36 -103.5t-95 -66.5q69 -20 110 -69.5t41 -112.5q0 -93 -74.5 -153t-205.5 -60z" />
    <glyph glyph-name="uni2089" unicode="&#x2089;" horiz-adv-x="743" 
d="M102 -137l27 82q66 -37 150 -37q123 0 197.5 77.5t78.5 223.5q-23 -55 -82.5 -90t-130.5 -35q-113 0 -188.5 69.5t-75.5 182.5q0 109 82 181.5t202 72.5q128 0 212.5 -90.5t84.5 -249.5q0 -198 -97.5 -315t-278.5 -117q-109 0 -181 45zM535 336q0 73 -52 118.5t-125 45.5
t-123.5 -45.5t-50.5 -118.5t50.5 -118.5t123.5 -45.5t125 45.5t52 118.5z" />
    <glyph glyph-name="Euro" unicode="&#x20ac;" horiz-adv-x="1521" 
d="M1440 131q-77 -69 -192.5 -113.5t-248.5 -44.5q-164 0 -308.5 63t-251.5 190.5t-146 301.5h-203v103h184q-6 50 -6 98q0 20 4 82h-182v100h199q39 176 151 307t260.5 195t313.5 64q223 0 368 -103l-51 -100q-124 88 -313 88q-134 0 -254.5 -49.5t-214 -154t-129.5 -247.5
h713l-48 -100h-684q-4 -47 -4 -86q0 -36 4 -94h600l-47 -103h-530q27 -106 86 -190.5t136.5 -137t166.5 -80.5t182 -28q114 0 215 37.5t162 95.5z" />
    <glyph glyph-name="uni2113" unicode="&#x2113;" horiz-adv-x="774" 
d="M674 141v-106q-76 -45 -176 -45q-120 0 -190 71.5t-70 200.5v330q-89 -40 -144 -53v110q62 19 144 62v458q0 147 66 227.5t169 80.5q116 0 174 -73.5t58 -197.5q0 -119 -48 -227t-124 -188t-179 -144v-368q0 -87 41.5 -134t112.5 -47q88 0 166 43zM354 1171v-391
q106 78 170 186.5t64 241.5q0 74 -27 118t-82 44q-125 0 -125 -199z" />
    <glyph glyph-name="trademark" unicode="&#x2122;" horiz-adv-x="1695" 
d="M653 1360h-237v-633h-103v633h-237v92h577v-92zM1536 727h-102v549l-246 -549h-84l-246 549v-549h-102v725h131l260 -584l260 584h129v-725z" />
    <glyph glyph-name="Omega" unicode="&#x2126;" horiz-adv-x="1687" 
d="M844 1362q-114 0 -220.5 -41.5t-189 -116t-132.5 -188t-50 -246.5q0 -120 41.5 -226t111.5 -181t158.5 -125t184.5 -68v-170h-607v113h455q-95 30 -179.5 88.5t-151 141t-105.5 193.5t-39 234q0 157 59 291.5t158.5 225t231 141.5t274.5 51t274 -51t230.5 -141.5
t159 -225t59.5 -291.5q0 -123 -39 -234t-105.5 -193.5t-151 -141t-179.5 -88.5h454v-113h-606v170q96 18 184.5 68t158.5 125t111.5 181t41.5 226q0 133 -50 246.5t-132.5 188t-189 116t-220.5 41.5z" />
    <glyph glyph-name="uni2160" unicode="&#x2160;" horiz-adv-x="933" 
d="M864 1452v-115h-336v-1222h336v-115h-794v115h333v1222h-333v115h794z" />
    <glyph glyph-name="uni2161" unicode="&#x2161;" horiz-adv-x="1486" 
d="M1417 1452v-115h-332v-1222h332v-115h-1347v115h329v1222h-329v115h1347zM526 1337v-1222h435v1222h-435z" />
    <glyph glyph-name="uni2162" unicode="&#x2162;" horiz-adv-x="2035" 
d="M1966 1452v-115h-330v-1222h330v-115h-1896v115h329v1222h-329v115h1896zM526 1337v-1222h428v1222h-428zM1081 115h430v1222h-430v-1222z" />
    <glyph glyph-name="uni2163" unicode="&#x2163;" horiz-adv-x="1988" 
d="M1917 115v-115h-1847v115h323v1222h-323v115h1847v-115h-231l-365 -1222h596zM721 1337h-201v-1222h565zM1204 156l348 1181h-698z" />
    <glyph glyph-name="uni2164" unicode="&#x2164;" horiz-adv-x="1538" 
d="M1466 115v-115h-1394v115h579l-364 1222h-215v115h1394v-115h-215l-364 -1222h579zM768 156l350 1181h-698z" />
    <glyph glyph-name="uni2165" unicode="&#x2165;" horiz-adv-x="1986" 
d="M1489 115v1222h-221l-365 -1222h586zM784 156l349 1181h-697zM72 0v115h594l-365 1222h-229v115h1843v-115h-299v-1222h299v-115h-1843z" />
    <glyph glyph-name="uni2166" unicode="&#x2166;" horiz-adv-x="2574" 
d="M2507 1452v-115h-336v-1222h332v-115h-2431v115h594l-365 1222h-229v115h2435zM1268 1337l-365 -1222h586v1222h-221zM1616 1337v-1222h430v1222h-430zM784 156l349 1181h-697z" />
    <glyph glyph-name="uni2167" unicode="&#x2167;" horiz-adv-x="3094" 
d="M3029 1452v-115h-336v-1222h328v-115h-2949v115h594l-365 1222h-229v115h2957zM1268 1337l-365 -1222h584v1222h-219zM1612 1337v-1222h416v1222h-416zM2152 1337v-1222h414v1222h-414zM786 156l349 1181h-699z" />
    <glyph glyph-name="uni2168" unicode="&#x2168;" horiz-adv-x="1927" 
d="M1647 1337l-396 -612l394 -610h213v-115h-1788v115h323v1222h-323v115h1785v-115h-208zM1102 725l-393 612h-189v-1222h191zM858 115h637l-317 499zM858 1337l320 -503l321 503h-641z" />
    <glyph glyph-name="uni2169" unicode="&#x2169;" horiz-adv-x="1478" 
d="M1210 1337l-401 -618l389 -604h211v-115h-1339v115h204l388 600l-398 622h-194v115h1339v-115h-199zM422 115h627l-314 493zM412 1337l323 -512l328 512h-651z" />
    <glyph glyph-name="uni216C" unicode="&#x216c;" horiz-adv-x="1255" 
d="M1176 0h-1104v115h295v1222h-295v115h735v-115h-315v-1222h561v454h123v-569z" />
    <glyph glyph-name="uni216D" unicode="&#x216d;" horiz-adv-x="1523" 
d="M1262 0v231q-63 -113 -178.5 -184.5t-290.5 -71.5q-141 0 -265.5 50.5t-219.5 143.5t-150.5 237t-55.5 319q0 141 36 262.5t100 210.5t150.5 152.5t188 95t211.5 31.5q315 0 465 -250v225h125v-485h-125q-35 180 -150.5 289.5t-311.5 109.5q-113 0 -214 -42t-180 -121
t-125.5 -202.5t-46.5 -275.5t45 -274.5t123 -201t180.5 -120t219.5 -41.5q104 0 188.5 33t140.5 91t91 128.5t49 151.5h124v-492h-124z" />
    <glyph glyph-name="uni216E" unicode="&#x216e;" horiz-adv-x="1486" 
d="M500 115h211q89 0 167.5 21.5t148 68.5t119 117t78.5 173t29 230q0 156 -42.5 275.5t-117.5 192t-171 108.5t-209 36h-213v-1222zM70 1452h649q138 0 256 -45t210 -132.5t144.5 -228.5t52.5 -321t-53 -321t-145.5 -228t-212 -131.5t-258.5 -44.5h-643v115h305v1222h-305
v115z" />
    <glyph glyph-name="uni216F" unicode="&#x216f;" horiz-adv-x="2088" 
d="M522 1452l518 -1274l512 1274h461v-115h-276v-1222h284v-115h-649v115h240v1159l-516 -1274h-113l-516 1272v-1157h250v-115h-645v115h272v1222h-272v115h450z" />
    <glyph glyph-name="arrowleft" unicode="&#x2190;" horiz-adv-x="2086" 
d="M506 238l-422 356l422 354v-301h1433v-108h-1433v-301z" />
    <glyph glyph-name="arrowup" unicode="&#x2191;" horiz-adv-x="851" 
d="M426 1630l346 -418h-291v-1513h-110v1513h-291z" />
    <glyph glyph-name="arrowright" unicode="&#x2192;" horiz-adv-x="2086" 
d="M2003 594l-422 -356v301h-1434v108h1434v301z" />
    <glyph glyph-name="arrowdown" unicode="&#x2193;" horiz-adv-x="866" 
d="M788 98l-356 -422l-354 422h299v1510h110v-1510h301z" />
    <glyph glyph-name="uni2196" unicode="&#x2196;" horiz-adv-x="1636" 
d="M111 1452h512l-217 -217l1175 -1174l-78 -77l-1173 1173l-219 -221v516z" />
    <glyph glyph-name="uni2197" unicode="&#x2197;" horiz-adv-x="1638" 
d="M1014 1452h514v-516l-219 221l-1174 -1173l-80 77l1176 1174z" />
    <glyph glyph-name="uni2198" unicode="&#x2198;" horiz-adv-x="1640" 
d="M1528 0h-512l217 217l-1176 1174l78 77l1174 -1173l219 221v-516z" />
    <glyph glyph-name="uni2199" unicode="&#x2199;" horiz-adv-x="1642" 
d="M627 0h-514v516l219 -221l1173 1173l80 -77l-1175 -1174z" />
    <glyph glyph-name="uni21A9" unicode="&#x21a9;" horiz-adv-x="1742" 
d="M885 1231v108h344q173 0 294.5 -117t121.5 -286q0 -176 -125.5 -290t-296.5 -114h-756v-280l-399 336l399 336v-281h752q130 0 223.5 81t93.5 212q0 127 -91.5 211t-223.5 84h-336z" />
    <glyph glyph-name="uni21B0" unicode="&#x21b0;" horiz-adv-x="1484" 
d="M461 809l-400 336l400 336v-281h856v-1200h-109v1090h-747v-281z" />
    <glyph glyph-name="uni21B1" unicode="&#x21b1;" horiz-adv-x="1521" 
d="M276 0h-108v1200h895v281l397 -336l-397 -336v281h-787v-1090z" />
    <glyph glyph-name="uni21B2" unicode="&#x21b2;" horiz-adv-x="1519" 
d="M1243 1468h109v-1198h-895v-282l-398 336l398 335v-280h786v1089z" />
    <glyph glyph-name="uni21B3" unicode="&#x21b3;" horiz-adv-x="1521" 
d="M1063 659l399 -335l-399 -336v282h-895v1198h111v-1089h784v280z" />
    <glyph glyph-name="uni21B4" unicode="&#x21b4;" horiz-adv-x="1574" 
d="M70 1343v109h1157v-1081h280l-336 -398l-335 398h280v972h-1046z" />
    <glyph glyph-name="uni21B5" unicode="&#x21b5;" horiz-adv-x="2166" 
d="M387 336l-326 391h267q0 153 59.5 292.5t160 240t239.5 160t292 59.5q194 0 371 -99l-47 -96q-156 86 -324 86q-174 0 -321.5 -86.5t-233.5 -234.5t-86 -322h275zM1831 727q0 -153 -59.5 -292.5t-160.5 -240t-240 -160t-292 -59.5q-197 0 -370 97l47 98q150 -86 323 -86
q174 0 321.5 86t233.5 234t86 323h-270l326 391l325 -391h-270z" />
    <glyph glyph-name="uni21C6" unicode="&#x21c6;" horiz-adv-x="2140" 
d="M506 770l-400 336l400 336v-281h1476v-110h-1476v-281zM2038 348l-398 -336v281h-1478v110h1478v281z" />
    <glyph glyph-name="partialdiff" unicode="&#x2202;" horiz-adv-x="1236" 
d="M479 1366q-152 0 -284 -66l-41 101q149 78 344 78q137 0 252 -50.5t199 -146.5t130.5 -243t46.5 -332q0 -158 -34 -290t-100 -232t-172 -156t-242 -56q-97 0 -184 33t-153.5 92.5t-105.5 151t-39 201.5q0 139 66 247.5t176.5 166t245.5 57.5q134 0 243 -51t172 -138
q-5 137 -35 247.5t-89.5 199t-160 137.5t-235.5 49zM602 813q-175 0 -278 -104t-103 -265q0 -160 105.5 -259t257.5 -99q84 0 153 30t115 79.5t78 115.5t47.5 135.5t17.5 143.5q-63 108 -167 165.5t-226 57.5z" />
    <glyph glyph-name="Delta" unicode="&#x2206;" horiz-adv-x="1435" 
d="M63 0l580 1452h148l581 -1452h-1309zM717 1315l-469 -1196h938z" />
    <glyph glyph-name="product" unicode="&#x220f;" horiz-adv-x="1361" 
d="M1200 0h-123v1333h-788v-1333h-127v1452h1038v-1452z" />
    <glyph glyph-name="summation" unicode="&#x2211;" horiz-adv-x="1202" 
d="M96 0v119l578 612l-578 600v121h994v-119h-834l573 -602l-585 -612h846v-119h-994z" />
    <glyph glyph-name="minus" unicode="&#x2212;" horiz-adv-x="1161" 
d="M1012 662h-862v102h862v-102z" />
    <glyph glyph-name="uni2215" unicode="&#x2215;" horiz-adv-x="751" 
d="M748 1327l-644 -1327h-120l643 1327h121z" />
    <glyph glyph-name="uni2219" unicode="&#x2219;" horiz-adv-x="493" 
d="M141 582q0 44 30.5 75t74.5 31q45 0 75.5 -30.5t30.5 -75.5q0 -44 -30 -74.5t-76 -30.5q-44 0 -74.5 30.5t-30.5 74.5z" />
    <glyph glyph-name="radical" unicode="&#x221a;" horiz-adv-x="1351" 
d="M1337 1630h-258l-549 -1630h-116l-373 1061h141l293 -854l506 1538h356v-115z" />
    <glyph glyph-name="infinity" unicode="&#x221e;" horiz-adv-x="1640" 
d="M211 715q0 -95 66 -162.5t163 -67.5q87 0 163 61t153 169q-77 110 -153 170.5t-163 60.5q-97 0 -163 -67.5t-66 -163.5zM1432 715q0 96 -66.5 163.5t-163.5 67.5q-88 0 -162 -59t-155 -170q79 -111 154 -171.5t163 -60.5q97 0 163.5 67.5t66.5 162.5zM819 633
q-189 -252 -383 -252q-141 0 -238.5 98t-97.5 238t97.5 238t238.5 98q205 0 385 -254q188 254 383 254q141 0 238.5 -98t97.5 -238t-97.5 -238t-238.5 -98q-203 0 -385 252z" />
    <glyph glyph-name="integral" unicode="&#x222b;" horiz-adv-x="659" 
d="M268 -66v1207q0 145 79.5 228t215.5 83h58v-111h-50q-83 0 -131.5 -54t-48.5 -154v-1209q0 -147 -76.5 -230t-210.5 -83h-65v110h49q81 0 130.5 56t49.5 157z" />
    <glyph glyph-name="approxequal" unicode="&#x2248;" horiz-adv-x="1269" 
d="M1053 981l69 -61q-108 -148 -270 -148q-85 0 -197 59l-96 52q-74 41 -143 41q-113 0 -195 -101l-71 64q56 76 120 113.5t146 37.5q79 0 194 -61l95 -49q83 -47 159 -47q113 0 189 100zM1053 584l69 -60q-109 -149 -270 -149q-88 0 -197 61l-96 51q-80 41 -143 41
q-114 0 -195 -100l-71 61q56 76 120 114t146 38t194 -59l95 -52q85 -45 159 -45q112 0 189 99z" />
    <glyph glyph-name="notequal" unicode="&#x2260;" horiz-adv-x="1228" 
d="M330 238h-127l166 225h-213v104h290l216 293h-506v103h583l162 219h127l-162 -219h205v-103h-283l-215 -293h498v-104h-575z" />
    <glyph glyph-name="lessequal" unicode="&#x2264;" horiz-adv-x="1191" 
d="M1001 479l-829 301v109l829 301v-111l-688 -245l688 -242v-113zM1001 256h-829v104h829v-104z" />
    <glyph glyph-name="greaterequal" unicode="&#x2265;" horiz-adv-x="1191" 
d="M190 479v113l689 242l-689 245v111l830 -301v-109zM1020 256h-830v104h830v-104z" />
    <glyph glyph-name="dotmath" unicode="&#x22c5;" horiz-adv-x="493" 
d="M141 582q0 44 30.5 75t74.5 31q45 0 75.5 -30.5t30.5 -75.5q0 -44 -30 -74.5t-76 -30.5q-44 0 -74.5 30.5t-30.5 74.5z" />
    <glyph glyph-name="uni24C5" unicode="&#x24c5;" horiz-adv-x="1687" 
d="M844 1380q-131 0 -249.5 -51t-204 -138t-135.5 -208.5t-50 -257.5q0 -180 85 -330.5t232 -236.5t322 -86t322 86t232 236.5t85 330.5q0 136 -50 257.5t-135.5 208.5t-204 138t-249.5 51zM844 -27q-153 0 -291 59t-237.5 159.5t-158.5 240t-59 293.5q0 155 59 294.5
t158.5 240.5t237.5 160t291 59t291 -59t237.5 -160t158 -240.5t58.5 -294.5q0 -123 -37.5 -238t-106 -207.5t-160 -162t-205.5 -107t-236 -37.5zM719 731h172q80 0 128 43t48 115q0 73 -48 117.5t-128 44.5h-172v-320zM907 643h-188v-324h-101v820h289q114 0 188 -71.5
t74 -176.5t-74 -176.5t-188 -71.5z" />
    <glyph glyph-name="filledbox" unicode="&#x25a0;" horiz-adv-x="1751" 
d="M158 0v1452h1435v-1452h-1435z" />
    <glyph glyph-name="H22073" unicode="&#x25a1;" horiz-adv-x="1751" 
d="M1593 0h-1435v1452h1435v-1452zM264 1352v-1252h1221v1252h-1221z" />
    <glyph glyph-name="uni25AF" unicode="&#x25af;" horiz-adv-x="1175" 
d="M1018 0h-860v1452h860v-1452zM266 1348v-1244h645v1244h-645z" />
    <glyph glyph-name="triagup" unicode="&#x25b2;" horiz-adv-x="1826" 
d="M918 1487l856 -1487h-1721z" />
    <glyph glyph-name="uni25B3" unicode="&#x25b3;" horiz-adv-x="1826" 
d="M918 1487l856 -1487h-1721zM1589 100l-674 1172l-677 -1172h1351z" />
    <glyph glyph-name="lozenge" unicode="&#x25ca;" horiz-adv-x="1101" 
d="M205 725l346 -578l344 578l-344 580zM72 725l428 727h102l426 -727l-426 -725h-102z" />
    <glyph glyph-name="circle" unicode="&#x25cb;" horiz-adv-x="1716" 
d="M102 725q0 154 60 294t161 241t240.5 161t292.5 60q154 0 294.5 -60t242 -161t161.5 -241t60 -294t-60 -293.5t-161.5 -240.5t-242 -160.5t-294.5 -59.5q-153 0 -292.5 59.5t-240.5 160.5t-161 240.5t-60 293.5zM213 725q0 -177 86 -326.5t234 -236t323 -86.5
q133 0 252.5 51t205.5 138t136.5 207t50.5 253t-50.5 253t-136.5 207t-205.5 138t-252.5 51q-175 0 -323 -86.5t-234 -236t-86 -326.5z" />
    <glyph glyph-name="H18533" unicode="&#x25cf;" horiz-adv-x="1716" 
d="M102 725q0 154 60 294t161 241t240.5 161t292.5 60q154 0 294.5 -60t242 -161t161.5 -241t60 -294t-60 -293.5t-161.5 -240.5t-242 -160.5t-294.5 -59.5q-153 0 -292.5 59.5t-240.5 160.5t-161 240.5t-60 293.5z" />
    <glyph glyph-name="uni262E" unicode="&#x262e;" horiz-adv-x="1695" 
d="M1593 725q0 -152 -59 -291t-159 -240t-239 -161t-292 -60q-152 0 -289.5 60t-236.5 161t-157.5 240t-58.5 291q0 153 58.5 292.5t157.5 240.5t236.5 161t289.5 60q153 0 292 -60t239 -161t159 -240.5t59 -292.5zM1485 725q0 171 -77.5 316.5t-211.5 234.5t-297 102v-559
l469 -469q117 168 117 375zM207 725q0 -208 115 -373l466 467v559q-122 -10 -229.5 -65t-185 -141t-122 -202.5t-44.5 -244.5zM899 74q231 15 401 188l-401 404v-592zM387 266q78 -84 181 -134.5t220 -57.5v592z" />
    <glyph glyph-name="uni2713" unicode="&#x2713;" horiz-adv-x="2002" 
d="M1950 1374l-1305 -1407l-575 643l77 74l504 -553l1221 1319z" />
    <glyph glyph-name="uni2715" unicode="&#x2715;" horiz-adv-x="1554" 
d="M1401 -8l-625 637l-622 -637l-78 78l622 637l-620 636l78 78l620 -635l621 635l80 -78l-625 -636l625 -637z" />
    <glyph glyph-name="uni2780" unicode="&#x2780;" horiz-adv-x="1699" 
d="M850 1479q152 0 290.5 -60t238.5 -161t159 -240.5t59 -292.5q0 -152 -59 -291t-159 -240t-238.5 -161t-290.5 -60q-203 0 -375.5 101.5t-272.5 274.5t-100 376q0 153 59 292.5t159 240.5t239 161t291 60zM850 1382q-131 0 -250 -51t-204.5 -138.5t-136 -209.5t-50.5 -258
q0 -180 85.5 -330.5t233 -237.5t322.5 -87t322.5 87t233 237.5t85.5 330.5q0 136 -50.5 258t-136 209.5t-204.5 138.5t-250 51zM922 356h-105v586q-28 -29 -75.5 -50.5t-102.5 -25.5v80q74 10 122.5 53t59.5 101h101v-744z" />
    <glyph glyph-name="uni2781" unicode="&#x2781;" horiz-adv-x="1699" 
d="M850 1479q152 0 290.5 -60t238.5 -161t159 -240.5t59 -292.5q0 -152 -59 -291t-159 -240t-238.5 -161t-290.5 -60q-203 0 -375.5 101.5t-272.5 274.5t-100 376q0 153 59 292.5t159 240.5t239 161t291 60zM850 1382q-131 0 -250 -51t-204.5 -138.5t-136 -209.5t-50.5 -258
q0 -180 85.5 -330.5t233 -237.5t322.5 -87t322.5 87t233 237.5t85.5 330.5q0 136 -50.5 258t-136 209.5t-204.5 138.5t-250 51zM690 827l-102 7q-4 28 -4 49q0 98 72 165.5t190 67.5q115 0 185.5 -65t70.5 -160q0 -129 -148 -221l-151 -95q-84 -55 -94 -124h401v-91h-528v11
q0 179 159 276l142 86q112 70 112 160q0 56 -41.5 95.5t-109.5 39.5q-70 0 -114 -42t-44 -112q0 -15 4 -47z" />
    <glyph glyph-name="uni2782" unicode="&#x2782;" horiz-adv-x="1699" 
d="M850 1479q152 0 290.5 -60t238.5 -161t159 -240.5t59 -292.5q0 -152 -59 -291t-159 -240t-238.5 -161t-290.5 -60q-203 0 -375.5 101.5t-272.5 274.5t-100 376q0 153 59 292.5t159 240.5t239 161t291 60zM850 1382q-131 0 -250 -51t-204.5 -138.5t-136 -209.5t-50.5 -258
q0 -180 85.5 -330.5t233 -237.5t322.5 -87t322.5 87t233 237.5t85.5 330.5q0 136 -50.5 258t-136 209.5t-204.5 138.5t-250 51zM784 721l-45 80l234 213h-400v90h537v-86l-238 -213q2 0 9.5 1t9.5 1q99 -3 167 -60t68 -159t-78.5 -172t-203.5 -70q-121 0 -200 61.5
t-91 155.5l94 35q6 -73 62.5 -118.5t132.5 -45.5t127 44t51 110q0 69 -49 106t-121 37q-36 0 -66 -10z" />
    <glyph glyph-name="uni2783" unicode="&#x2783;" horiz-adv-x="1699" 
d="M850 1479q152 0 290.5 -60t238.5 -161t159 -240.5t59 -292.5q0 -152 -59 -291t-159 -240t-238.5 -161t-290.5 -60q-203 0 -375.5 101.5t-272.5 274.5t-100 376q0 153 59 292.5t159 240.5t239 161t291 60zM850 1382q-131 0 -250 -51t-204.5 -138.5t-136 -209.5t-50.5 -258
q0 -180 85.5 -330.5t233 -237.5t322.5 -87t322.5 87t233 237.5t85.5 330.5q0 136 -50.5 258t-136 209.5t-204.5 138.5t-250 51zM489 528v105l369 471h125v-483h145v-93h-145v-168h-104v168h-390zM879 621v366l-287 -366h287z" />
    <glyph glyph-name="uni2784" unicode="&#x2784;" horiz-adv-x="1699" 
d="M850 1479q152 0 290.5 -60t238.5 -161t159 -240.5t59 -292.5q0 -152 -59 -291t-159 -240t-238.5 -161t-290.5 -60q-203 0 -375.5 101.5t-272.5 274.5t-100 376q0 153 59 292.5t159 240.5t239 161t291 60zM850 1382q-131 0 -250 -51t-204.5 -138.5t-136 -209.5t-50.5 -258
q0 -180 85.5 -330.5t233 -237.5t322.5 -87t322.5 87t233 237.5t85.5 330.5q0 136 -50.5 258t-136 209.5t-204.5 138.5t-250 51zM555 543l92 41q11 -67 62 -110.5t122 -43.5q78 0 127.5 46t49.5 118q0 73 -49 117.5t-125 44.5q-93 0 -160 -70l-92 33l100 379h401v-90h-331
l-62 -232q64 64 170 64q114 0 184 -67.5t70 -176.5q0 -108 -77.5 -182t-205.5 -74q-107 0 -184.5 60t-91.5 143z" />
    <glyph glyph-name="uni2785" unicode="&#x2785;" horiz-adv-x="1699" 
d="M850 1479q152 0 290.5 -60t238.5 -161t159 -240.5t59 -292.5q0 -152 -59 -291t-159 -240t-238.5 -161t-290.5 -60q-203 0 -375.5 101.5t-272.5 274.5t-100 376q0 153 59 292.5t159 240.5t239 161t291 60zM850 1382q-131 0 -250 -51t-204.5 -138.5t-136 -209.5t-50.5 -258
q0 -180 85.5 -330.5t233 -237.5t322.5 -87t322.5 87t233 237.5t85.5 330.5q0 136 -50.5 258t-136 209.5t-204.5 138.5t-250 51zM1077 1073l-26 -82q-61 33 -142 33q-128 0 -202.5 -82t-83.5 -213q22 52 83.5 87.5t133.5 35.5q116 0 190 -69.5t74 -184.5q0 -112 -82.5 -184
t-204.5 -72q-129 0 -214 91.5t-85 252.5q0 199 110 312.5t275 113.5q110 0 174 -39zM641 598q0 -73 53 -119.5t125 -46.5q73 0 125.5 46.5t52.5 119.5q0 74 -52.5 120t-125.5 46q-72 0 -125 -46t-53 -120z" />
    <glyph glyph-name="uni2786" unicode="&#x2786;" horiz-adv-x="1699" 
d="M850 1479q152 0 290.5 -60t238.5 -161t159 -240.5t59 -292.5q0 -152 -59 -291t-159 -240t-238.5 -161t-290.5 -60q-203 0 -375.5 101.5t-272.5 274.5t-100 376q0 153 59 292.5t159 240.5t239 161t291 60zM850 1382q-131 0 -250 -51t-204.5 -138.5t-136 -209.5t-50.5 -258
q0 -180 85.5 -330.5t233 -237.5t322.5 -87t322.5 87t233 237.5t85.5 330.5q0 136 -50.5 258t-136 209.5t-204.5 138.5t-250 51zM1133 1098v-97q-295 -238 -340 -647h-111q11 106 41.5 204.5t64.5 166.5t78.5 130t73.5 93.5t59 59.5h-450v90h584z" />
    <glyph glyph-name="uni2787" unicode="&#x2787;" horiz-adv-x="1699" 
d="M850 1479q152 0 290.5 -60t238.5 -161t159 -240.5t59 -292.5q0 -152 -59 -291t-159 -240t-238.5 -161t-290.5 -60q-203 0 -375.5 101.5t-272.5 274.5t-100 376q0 153 59 292.5t159 240.5t239 161t291 60zM850 1382q-131 0 -250 -51t-204.5 -138.5t-136 -209.5t-50.5 -258
q0 -180 85.5 -330.5t233 -237.5t322.5 -87t322.5 87t233 237.5t85.5 330.5q0 136 -50.5 258t-136 209.5t-204.5 138.5t-250 51zM850 780q69 0 112.5 34t43.5 89t-42.5 90t-113.5 35q-72 0 -114 -35t-42 -90q0 -56 43 -89.5t113 -33.5zM850 432q81 0 127.5 36.5t46.5 94.5
q0 59 -46 96t-128 37q-83 0 -129.5 -37t-46.5 -96q0 -58 47 -94.5t129 -36.5zM850 342q-131 0 -207 60.5t-76 152.5q0 62 42 112t110 70q-58 21 -93.5 66.5t-35.5 103.5q0 90 72 147.5t188 57.5q115 0 187.5 -57.5t72.5 -147.5q0 -58 -36 -103.5t-95 -66.5q69 -20 110 -69.5
t41 -112.5q0 -93 -74.5 -153t-205.5 -60z" />
    <glyph glyph-name="uni2788" unicode="&#x2788;" horiz-adv-x="1699" 
d="M850 1479q152 0 290.5 -60t238.5 -161t159 -240.5t59 -292.5q0 -152 -59 -291t-159 -240t-238.5 -161t-290.5 -60q-203 0 -375.5 101.5t-272.5 274.5t-100 376q0 153 59 292.5t159 240.5t239 161t291 60zM850 1382q-131 0 -250 -51t-204.5 -138.5t-136 -209.5t-50.5 -258
q0 -180 85.5 -330.5t233 -237.5t322.5 -87t322.5 87t233 237.5t85.5 330.5q0 136 -50.5 258t-136 209.5t-204.5 138.5t-250 51zM600 385l27 82q66 -37 149 -37q123 0 198 77.5t79 223.5q-23 -55 -82.5 -90t-130.5 -35q-113 0 -189 69.5t-76 182.5q0 109 82.5 181.5
t202.5 72.5q128 0 212.5 -90.5t84.5 -249.5q0 -198 -98 -315t-279 -117q-108 0 -180 45zM1032 858q0 73 -51.5 118.5t-124.5 45.5t-123.5 -45.5t-50.5 -118.5t50.5 -118.5t123.5 -45.5t124.5 45.5t51.5 118.5z" />
    <glyph glyph-name="uniE000" unicode="&#xe000;" horiz-adv-x="1574" 
d="M403 -27l-335 398h280v1081h1157v-109h-1046v-972h280z" />
    <glyph glyph-name="uniE002" unicode="&#xe002;" horiz-adv-x="1955" 
d="M1241 727l326 391l325 -391h-264q0 -153 -60 -292.5t-161 -240t-240.5 -160t-292.5 -59.5t-292.5 59.5t-239.5 160t-159.5 240t-59.5 292.5t59.5 292.5t159.5 240t239.5 160t292.5 59.5q194 0 371 -99l-47 -96q-153 86 -324 86q-174 0 -321.5 -86.5t-233.5 -234.5
t-86 -322q0 -175 86 -323.5t233.5 -235t321.5 -86.5q175 0 323.5 86.5t234.5 235t86 323.5h-277z" />
    <glyph glyph-name="commaaccent" unicode="&#xf6c3;" horiz-adv-x="387" 
d="M96 1329q0 38 27.5 62t66.5 24q42 0 73.5 -30.5t31.5 -90.5q0 -98 -60 -156t-143 -63v62q52 4 89 38t40 80q-12 -12 -39 -12q-37 0 -61.5 23.5t-24.5 62.5z" />
    <glyph glyph-name="uniFB00" unicode="&#xfb00;" horiz-adv-x="1277" 
d="M1241 977v-111h-272v-866h-123v866h-488v-866h-122v866h-201v111h201v203q0 150 81 232.5t209 82.5q65 0 111 -20v-111q-36 16 -92 16q-82 0 -134.5 -48.5t-52.5 -157.5v-197h488v203q0 150 81.5 232.5t209.5 82.5q64 0 110 -20v-111q-36 16 -92 16q-82 0 -134 -48.5
t-52 -157.5v-197h272z" />
    <glyph glyph-name="fi" unicode="&#xfb01;" horiz-adv-x="1136" 
d="M809 1382q0 44 29.5 73.5t72.5 29.5t73 -29.5t30 -73.5t-30 -73t-73 -29t-72.5 29t-29.5 73zM850 866h-492v-866h-122v866h-201v111h201v203q0 150 81 232.5t209 82.5q65 0 111 -20v-111q-36 16 -92 16q-82 0 -134.5 -48.5t-52.5 -157.5v-197h615v-977h-123v866z" />
    <glyph glyph-name="fl" unicode="&#xfb02;" horiz-adv-x="1136" 
d="M850 977v502h123v-1479h-123v866h-492v-866h-122v866h-201v111h201v203q0 150 81 232.5t209 82.5q65 0 111 -20v-111q-36 16 -92 16q-82 0 -134.5 -48.5t-52.5 -157.5v-197h492z" />
    <glyph glyph-name="uniFB03" unicode="&#xfb03;" horiz-adv-x="1746" 
d="M1583 977v-977h-123v866h-491v-866h-123v866h-488v-866h-122v866h-201v111h201v203q0 150 81 232.5t209 82.5q65 0 111 -20v-111q-36 16 -92 16q-82 0 -134.5 -48.5t-52.5 -157.5v-197h488v203q0 150 81.5 232.5t209.5 82.5q64 0 110 -20v-111q-36 16 -92 16
q-82 0 -134 -48.5t-52 -157.5v-197h614zM1419 1382q0 44 30 73.5t73 29.5t72.5 -29.5t29.5 -73.5t-29.5 -73t-72.5 -29t-73 29t-30 73z" />
    <glyph glyph-name="uniFB04" unicode="&#xfb04;" horiz-adv-x="1746" 
d="M969 1174v-197h491v502h123v-1479h-123v866h-491v-866h-123v866h-488v-866h-122v866h-201v111h201v203q0 150 81 232.5t209 82.5q65 0 111 -20v-111q-36 16 -92 16q-82 0 -134.5 -48.5t-52.5 -157.5v-197h488v203q0 150 81.5 232.5t209.5 82.5q64 0 110 -20v-111
q-36 16 -92 16q-82 0 -134 -48.5t-52 -157.5z" />
    <glyph glyph-name="uniFEFF" unicode="&#xfeff;" horiz-adv-x="0" 
 />
    <glyph glyph-name="i.latn_TRK" horiz-adv-x="450" 
d="M287 0h-123v977h123v-977zM123 1382q0 44 29.5 73.5t72.5 29.5t73 -29.5t30 -73.5t-30 -73t-73 -29t-72.5 29t-29.5 73z" />
    <glyph glyph-name="Ldot.latn_CAT" horiz-adv-x="1124" 
d="M1071 0h-864v1452h131v-1333h733v-119zM612 764q0 44 31.5 76t75.5 32q45 0 76.5 -31.5t31.5 -76.5q0 -44 -31.5 -75.5t-76.5 -31.5q-44 0 -75.5 31.5t-31.5 75.5z" />
    <glyph glyph-name="ldot.latn_CAT" horiz-adv-x="567" 
d="M287 0h-123v1479h123v-1479zM403 664q0 40 28.5 68t68.5 28t68 -28t28 -68t-28 -68.5t-68 -28.5t-68.5 28.5t-28.5 68.5z" />
    <glyph glyph-name="zero.dnom" horiz-adv-x="778" 
d="M193 371q0 -57 9 -105.5t29.5 -93.5t60.5 -70.5t97 -25.5t97 25.5t61 70.5t30 93.5t9 105.5q0 56 -9 104.5t-30 93t-61 70t-97 25.5t-97 -25.5t-60.5 -70.5t-29.5 -93t-9 -104zM86 371q0 169 74 274q82 111 229 111t229 -111q74 -101 74 -274q0 -176 -74 -275
q-81 -110 -229 -110t-229 110q-74 102 -74 275z" />
    <glyph glyph-name="one.dnom" horiz-adv-x="446" 
d="M338 0h-105v586q-28 -29 -75.5 -50.5t-102.5 -25.5v80q74 10 123 53t60 100h100v-743z" />
    <glyph glyph-name="two.dnom" horiz-adv-x="696" 
d="M193 467l-103 6q-4 28 -4 49q0 98 72 166t190 68q115 0 185.5 -65.5t70.5 -160.5q0 -129 -147 -221l-152 -94q-83 -55 -94 -125h401v-90h-528v10q0 180 160 277l141 86q113 70 113 159q0 56 -42 96t-110 40q-70 0 -114 -42t-44 -112q0 -7 5 -47z" />
    <glyph glyph-name="three.dnom" horiz-adv-x="729" 
d="M303 360l-45 80l234 213h-400v90h537v-86l-238 -213q2 0 9.5 1t9.5 1q99 -3 167 -60t68 -159t-79 -171.5t-204 -69.5q-121 0 -199.5 61.5t-90.5 155.5l94 35q6 -73 62 -118.5t132 -45.5q77 0 128 43.5t51 109.5q0 69 -49 106.5t-121 37.5q-33 0 -66 -11z" />
    <glyph glyph-name="four.dnom" horiz-adv-x="753" 
d="M57 168v104l369 471h125v-483h145v-92h-145v-168h-105v168h-389zM446 260v367l-286 -367h286z" />
    <glyph glyph-name="five.dnom" horiz-adv-x="700" 
d="M63 188l93 41q11 -67 62 -110t122 -43q78 0 127 46t49 118q0 73 -49 117t-125 44q-94 0 -160 -69l-92 33l100 378h402v-90h-332l-61 -231q63 63 170 63q114 0 184 -67t70 -176q0 -108 -77.5 -182t-205.5 -74q-107 0 -185 60t-92 142z" />
    <glyph glyph-name="six.dnom" horiz-adv-x="745" 
d="M643 717l-27 -82q-61 33 -141 33q-128 0 -203 -82t-84 -213q22 52 84 87.5t134 35.5q116 0 190 -69.5t74 -184.5q0 -112 -82.5 -184t-204.5 -72q-129 0 -214 91.5t-85 252.5q0 199 110 312.5t275 113.5q110 0 174 -39zM207 242q0 -73 53 -119.5t125 -46.5
q73 0 125.5 46.5t52.5 119.5q0 74 -52.5 120t-125.5 46q-72 0 -125 -46t-53 -120z" />
    <glyph glyph-name="seven.dnom" horiz-adv-x="675" 
d="M635 743v-96q-295 -238 -340 -647h-111q11 106 41.5 204.5t64.5 166t79 130t74 93.5t59 59h-451v90h584z" />
    <glyph glyph-name="eight.dnom" horiz-adv-x="731" 
d="M367 424q69 0 112 34t43 89t-42 90t-113 35q-72 0 -114 -35t-42 -90q0 -56 43 -89.5t113 -33.5zM367 76q81 0 127.5 36.5t46.5 94.5q0 59 -46 96t-128 37q-83 0 -130 -37t-47 -96q0 -58 47.5 -94.5t129.5 -36.5zM367 -14q-131 0 -207 60.5t-76 152.5q0 62 42 112t110 70
q-58 21 -94 66.5t-36 103.5q0 90 72.5 147.5t188.5 57.5q115 0 187.5 -57.5t72.5 -147.5q0 -58 -36 -103.5t-95 -66.5q69 -20 110 -69.5t41 -112.5q0 -93 -74.5 -153t-205.5 -60z" />
    <glyph glyph-name="nine.dnom" horiz-adv-x="741" 
d="M100 31l27 82q66 -37 149 -37q123 0 198 77.5t79 223.5q-23 -55 -82.5 -90t-130.5 -35q-113 0 -188.5 69.5t-75.5 182.5q0 109 82 181.5t202 72.5q128 0 212.5 -90.5t84.5 -249.5q0 -198 -97.5 -315t-278.5 -117q-109 0 -181 45zM532 504q0 73 -51.5 118.5t-124.5 45.5
t-123.5 -45.5t-50.5 -118.5t50.5 -118.5t123.5 -45.5t124.5 45.5t51.5 118.5z" />
    <glyph glyph-name="space.frac" horiz-adv-x="104" 
 />
    <glyph glyph-name="space.tf" 
 />
    <glyph glyph-name="comma.tf" 
d="M465 98q0 42 31.5 72.5t78.5 30.5q50 0 85.5 -38.5t35.5 -107.5q0 -144 -71.5 -238t-171.5 -118v76q67 21 109 87t44 140q-10 -10 -39 -10q-43 0 -72.5 29.5t-29.5 76.5z" />
    <glyph glyph-name="period.tf" 
d="M471 98q0 44 31.5 76.5t75.5 32.5q45 0 76.5 -32t31.5 -77q0 -44 -31 -75t-77 -31q-44 0 -75.5 31t-31.5 75z" />
    <glyph glyph-name="colon.tf" 
d="M471 877q0 44 31.5 76t75.5 32q45 0 76.5 -31.5t31.5 -76.5t-31 -76t-77 -31q-44 0 -75.5 31.5t-31.5 75.5zM471 98q0 44 31.5 76.5t75.5 32.5q45 0 76.5 -32t31.5 -77q0 -44 -31 -75t-77 -31q-44 0 -75.5 31t-31.5 75z" />
    <glyph glyph-name="semicolon.tf" 
d="M467 877q0 44 31 76t75 32q45 0 77 -31.5t32 -76.5q0 -44 -31.5 -75.5t-77.5 -31.5q-44 0 -75 31.5t-31 75.5zM469 98q0 42 32 72.5t79 30.5q50 0 85 -38.5t35 -107.5q0 -144 -71.5 -238t-171.5 -118v76q67 21 109 87t44 140q-10 -10 -39 -10q-43 0 -72.5 29.5
t-29.5 76.5z" />
    <glyph glyph-name="section.tf" 
d="M207 582q0 88 51.5 157.5t126.5 98.5q-182 113 -182 299q0 151 111.5 246.5t265.5 95.5q173 0 274.5 -101.5t106.5 -263.5l-119 -27q-2 132 -71.5 209.5t-192.5 77.5q-104 0 -179 -62.5t-75 -164.5q0 -139 155 -221l215 -117q61 -32 101.5 -59.5t79 -65.5t57 -85
t18.5 -105q0 -88 -52 -154.5t-132 -101.5q192 -115 192 -299q0 -150 -113 -246t-272 -96q-174 0 -275.5 100t-107.5 266l115 25q3 -128 76 -207.5t197 -79.5q112 0 185 62t73 163q0 143 -158 228l-215 114q-63 33 -104.5 61t-78.5 65.5t-55 84t-18 103.5zM485 393l201 -110
q60 21 101.5 73.5t41.5 118.5q0 68 -39 118t-118 93l-203 107q-60 -23 -100.5 -75.5t-40.5 -117.5q0 -67 38.5 -115.5t118.5 -91.5z" />
    <glyph glyph-name="florin.tf" 
d="M319 23l168 843h-239v111h262l47 231q28 141 114 213t201 72q76 0 132 -18v-111q-47 14 -107 14q-176 0 -221 -211l-39 -190h272v-111h-293l-176 -884q-28 -141 -114 -213t-201 -72q-77 0 -133 18v111q63 -14 108 -14q177 0 219 211z" />
    <glyph glyph-name="uni2007.tf" 
 />
    <glyph glyph-name="uni2008.tf" 
 />
    <glyph glyph-name="parenleft.case" horiz-adv-x="612" 
d="M111 721q0 515 366 899l74 -66q-163 -179 -248.5 -382t-85.5 -451q0 -250 85 -452.5t249 -381.5l-74 -65q-366 384 -366 899z" />
    <glyph glyph-name="parenright.case" horiz-adv-x="614" 
d="M502 721q0 -514 -367 -899l-74 65q163 179 247.5 381t84.5 453q0 249 -85 452t-247 381l74 66q367 -385 367 -899z" />
    <glyph glyph-name="hyphen.case" horiz-adv-x="833" 
d="M686 635h-539v110h539v-110z" />
    <glyph glyph-name="bracketleft.case" horiz-adv-x="565" 
d="M477 -127h-315v1753h315v-102h-205v-1551h205v-100z" />
    <glyph glyph-name="bracketright.case" horiz-adv-x="565" 
d="M403 -127h-315v100h205v1551h-205v102h315v-1753z" />
    <glyph glyph-name="braceleft.case" horiz-adv-x="686" 
d="M63 690v115q97 10 159.5 65.5t62.5 155.5v281q0 160 74.5 238.5t226.5 78.5h18v-98h-18q-107 0 -151 -50t-44 -161v-316q0 -98 -55.5 -163.5t-151.5 -87.5q95 -21 151 -87.5t56 -164.5v-314q0 -110 44 -159.5t151 -49.5h18v-100h-18q-152 0 -226.5 78.5t-74.5 238.5v281
q0 99 -63 155t-159 64z" />
    <glyph glyph-name="braceright.case" horiz-adv-x="686" 
d="M623 805v-115q-96 -8 -159 -64t-63 -155v-281q0 -160 -74.5 -238.5t-226.5 -78.5h-18v100h18q107 0 151 49.5t44 159.5v314q0 98 56 164.5t151 87.5q-96 22 -151.5 87.5t-55.5 163.5v316q0 111 -44 161t-151 50h-18v98h18q152 0 226.5 -78.5t74.5 -238.5v-281
q0 -100 62.5 -155.5t159.5 -65.5z" />
    <glyph glyph-name="exclamdown.case" horiz-adv-x="485" 
d="M164 0l35 1065h84l36 -1065h-155zM246 1460q43 0 72.5 -29.5t29.5 -70.5q0 -43 -29.5 -73t-72.5 -30t-73 30t-30 73q0 41 30 70.5t73 29.5z" />
    <glyph glyph-name="guillemotleft.case" horiz-adv-x="983" 
d="M508 301h-123l-272 391l272 391h123l-270 -391zM848 301h-123l-272 391l272 391h123l-270 -391z" />
    <glyph glyph-name="uni00AD.case" horiz-adv-x="817" 
d="M678 649h-539v109h539v-109z" />
    <glyph glyph-name="guillemotright.case" horiz-adv-x="983" 
d="M598 301h-123l270 391l-270 391h123l272 -391zM258 301h-123l273 391l-273 391h123l272 -391z" />
    <glyph glyph-name="questiondown.case" horiz-adv-x="997" 
d="M465 1065h113q6 -20 6 -78q0 -96 -35.5 -169t-112.5 -132l-90 -70q-141 -108 -141 -251q0 -115 77 -196t212 -81q99 0 169.5 44t102 110.5t31.5 146.5q0 48 -17 111l125 -19q17 -50 17 -104q0 -75 -26.5 -145t-77 -129t-135 -94.5t-189.5 -35.5q-127 0 -224.5 56.5
t-145.5 144t-48 188.5q0 201 205 353l92 67q96 69 96 217q0 30 -4 66zM520 1460q43 0 73 -29.5t30 -70.5q0 -43 -30 -73t-73 -30t-72.5 30t-29.5 73q0 41 29.5 70.5t72.5 29.5z" />
    <glyph glyph-name="endash.case" horiz-adv-x="1318" 
d="M1171 635h-1024v110h1024v-110z" />
    <glyph glyph-name="emdash.case" horiz-adv-x="2177" 
d="M2030 635h-1883v110h1883v-110z" />
    <glyph glyph-name="guilsinglleft.case" horiz-adv-x="643" 
d="M508 301h-123l-272 391l272 391h123l-270 -391z" />
    <glyph glyph-name="guilsinglright.case" horiz-adv-x="643" 
d="M258 301h-123l271 391l-271 391h123l272 -391z" />
    <glyph glyph-name="G.ss01" horiz-adv-x="1566" 
d="M821 -27q-108 0 -212 32t-194.5 96t-159.5 153t-109 211t-40 262t40 262t108.5 210.5t159.5 152.5t194.5 95.5t210.5 31.5q232 0 401 -122t228 -327l-119 -43q-53 178 -186 275.5t-324 97.5q-90 0 -174.5 -25.5t-158.5 -78.5t-129 -127t-87 -177.5t-32 -224.5
q0 -150 49 -273t131 -201t185.5 -120t217.5 -43q215 0 354 127t166 324h-608v114h742v-45q-10 -180 -92 -324t-228.5 -228.5t-333.5 -84.5z" />
    <glyph glyph-name="Gcircumflex.ss01" horiz-adv-x="1566" 
d="M821 -27q-108 0 -212 32t-194.5 96t-159.5 153t-109 211t-40 262t40 262t108.5 210.5t159.5 152.5t194.5 95.5t210.5 31.5q232 0 401 -122t228 -327l-119 -43q-53 178 -186 275.5t-324 97.5q-90 0 -174.5 -25.5t-158.5 -78.5t-129 -127t-87 -177.5t-32 -224.5
q0 -150 49 -273t131 -201t185.5 -120t217.5 -43q215 0 354 127t166 324h-608v114h742v-45q-10 -180 -92 -324t-228.5 -228.5t-333.5 -84.5zM625 1554h-121l235 244h168l238 -244h-121l-201 172z" />
    <glyph glyph-name="Gbreve.ss01" horiz-adv-x="1566" 
d="M821 -27q-108 0 -212 32t-194.5 96t-159.5 153t-109 211t-40 262t40 262t108.5 210.5t159.5 152.5t194.5 95.5t210.5 31.5q232 0 401 -122t228 -327l-119 -43q-53 178 -186 275.5t-324 97.5q-90 0 -174.5 -25.5t-158.5 -78.5t-129 -127t-87 -177.5t-32 -224.5
q0 -150 49 -273t131 -201t185.5 -120t217.5 -43q215 0 354 127t166 324h-608v114h742v-45q-10 -180 -92 -324t-228.5 -228.5t-333.5 -84.5zM821 1544q-131 0 -210 76t-87 182h107q7 -66 55 -113t135 -47t135.5 47.5t53.5 112.5h106q-6 -106 -85 -182t-210 -76z" />
    <glyph glyph-name="Gdotaccent.ss01" horiz-adv-x="1566" 
d="M821 -27q-108 0 -212 32t-194.5 96t-159.5 153t-109 211t-40 262t40 262t108.5 210.5t159.5 152.5t194.5 95.5t210.5 31.5q232 0 401 -122t228 -327l-119 -43q-53 178 -186 275.5t-324 97.5q-90 0 -174.5 -25.5t-158.5 -78.5t-129 -127t-87 -177.5t-32 -224.5
q0 -150 49 -273t131 -201t185.5 -120t217.5 -43q215 0 354 127t166 324h-608v114h742v-45q-10 -180 -92 -324t-228.5 -228.5t-333.5 -84.5zM725 1675q0 40 28 68.5t68 28.5t68.5 -28.5t28.5 -68.5t-28.5 -68t-68.5 -28t-68 28t-28 68z" />
    <glyph glyph-name="Gcommaaccent.ss01" horiz-adv-x="1566" 
d="M821 -27q-108 0 -212 32t-194.5 96t-159.5 153t-109 211t-40 262t40 262t108.5 210.5t159.5 152.5t194.5 95.5t210.5 31.5q232 0 401 -122t228 -327l-119 -43q-53 178 -186 275.5t-324 97.5q-90 0 -174.5 -25.5t-158.5 -78.5t-129 -127t-87 -177.5t-32 -224.5
q0 -150 49 -273t131 -201t185.5 -120t217.5 -43q215 0 354 127t166 324h-608v114h742v-45q-10 -180 -92 -324t-228.5 -228.5t-333.5 -84.5zM739 -172q0 37 28 61.5t67 24.5q42 0 73 -30.5t31 -90.5q0 -98 -60 -156t-143 -63v61q52 4 89 38.5t40 80.5q-12 -12 -39 -12
q-37 0 -61.5 23.5t-24.5 62.5z" />
    <glyph glyph-name="a.ss02" horiz-adv-x="1175" 
d="M221 492q0 -176 92 -292t244 -116q150 0 241 115.5t91 292.5q0 174 -90.5 287.5t-239.5 113.5q-152 0 -245 -112t-93 -289zM889 154v39q-38 -89 -125 -153.5t-217 -64.5q-202 0 -326.5 147.5t-124.5 369.5q0 218 125.5 363.5t325.5 145.5q74 0 135.5 -20t101 -53t64 -66
t39.5 -69v184h123v-791q0 -136 10 -186h-121q-10 62 -10 154z" />
    <glyph glyph-name="agrave.ss02" horiz-adv-x="1175" 
d="M221 492q0 -176 92 -292t244 -116q150 0 241 115.5t91 292.5q0 174 -90.5 287.5t-239.5 113.5q-152 0 -245 -112t-93 -289zM889 154v39q-38 -89 -125 -153.5t-217 -64.5q-202 0 -326.5 147.5t-124.5 369.5q0 218 125.5 363.5t325.5 145.5q74 0 135.5 -20t101 -53t64 -66
t39.5 -69v184h123v-791q0 -136 10 -186h-121q-10 62 -10 154zM535 1100l-242 284h156l182 -284h-96z" />
    <glyph glyph-name="aacute.ss02" horiz-adv-x="1175" 
d="M825 1384l-241 -284h-101l183 284h159zM221 492q0 -176 92 -292t244 -116q150 0 241 115.5t91 292.5q0 174 -90.5 287.5t-239.5 113.5q-152 0 -245 -112t-93 -289zM889 154v39q-38 -89 -125 -153.5t-217 -64.5q-202 0 -326.5 147.5t-124.5 369.5q0 218 125.5 363.5
t325.5 145.5q74 0 135.5 -20t101 -53t64 -66t39.5 -69v184h123v-791q0 -136 10 -186h-121q-10 62 -10 154z" />
    <glyph glyph-name="acircumflex.ss02" horiz-adv-x="1175" 
d="M383 1102h-111l226 280h147l225 -280h-110l-189 203zM221 492q0 -176 92 -292t244 -116q150 0 241 115.5t91 292.5q0 174 -90.5 287.5t-239.5 113.5q-152 0 -245 -112t-93 -289zM889 154v39q-38 -89 -125 -153.5t-217 -64.5q-202 0 -326.5 147.5t-124.5 369.5
q0 218 125.5 363.5t325.5 145.5q74 0 135.5 -20t101 -53t64 -66t39.5 -69v184h123v-791q0 -136 10 -186h-121q-10 62 -10 154z" />
    <glyph glyph-name="atilde.ss02" horiz-adv-x="1175" 
d="M221 492q0 -176 92 -292t244 -116q150 0 241 115.5t91 292.5q0 174 -90.5 287.5t-239.5 113.5q-152 0 -245 -112t-93 -289zM889 154v39q-38 -89 -125 -153.5t-217 -64.5q-202 0 -326.5 147.5t-124.5 369.5q0 218 125.5 363.5t325.5 145.5q74 0 135.5 -20t101 -53t64 -66
t39.5 -69v184h123v-791q0 -136 10 -186h-121q-10 62 -10 154zM877 1350v-23q0 -93 -49 -146t-121 -53q-68 0 -134 48l-43 30q-59 41 -100 41q-78 0 -78 -112h-96v24q0 91 49 143t125 52q71 0 145 -56l37 -26q50 -37 90 -37q78 0 78 115h97z" />
    <glyph glyph-name="adieresis.ss02" horiz-adv-x="1175" 
d="M672 1251q0 35 25.5 60.5t60.5 25.5t60.5 -25.5t25.5 -60.5t-25.5 -60.5t-60.5 -25.5t-60.5 25.5t-25.5 60.5zM311 1251q0 35 25.5 60.5t60.5 25.5t60.5 -25.5t25.5 -60.5t-25.5 -60.5t-60.5 -25.5t-60.5 25.5t-25.5 60.5zM221 492q0 -176 92 -292t244 -116
q150 0 241 115.5t91 292.5q0 174 -90.5 287.5t-239.5 113.5q-152 0 -245 -112t-93 -289zM889 154v39q-38 -89 -125 -153.5t-217 -64.5q-202 0 -326.5 147.5t-124.5 369.5q0 218 125.5 363.5t325.5 145.5q74 0 135.5 -20t101 -53t64 -66t39.5 -69v184h123v-791
q0 -136 10 -186h-121q-10 62 -10 154z" />
    <glyph glyph-name="aring.ss02" horiz-adv-x="1175" 
d="M778 1300q0 -89 -63 -152t-152 -63q-88 0 -151.5 63t-63.5 152t63.5 152.5t151.5 63.5q89 0 152 -63.5t63 -152.5zM688 1300q0 55 -35.5 92.5t-89.5 37.5t-89.5 -37.5t-35.5 -92.5q0 -54 35.5 -91.5t89.5 -37.5t89.5 37.5t35.5 91.5zM221 492q0 -176 92 -292t244 -116
q150 0 241 115.5t91 292.5q0 174 -90.5 287.5t-239.5 113.5q-152 0 -245 -112t-93 -289zM889 154v39q-38 -89 -125 -153.5t-217 -64.5q-202 0 -326.5 147.5t-124.5 369.5q0 218 125.5 363.5t325.5 145.5q74 0 135.5 -20t101 -53t64 -66t39.5 -69v184h123v-791
q0 -136 10 -186h-121q-10 62 -10 154z" />
    <glyph glyph-name="amacron.ss02" horiz-adv-x="1175" 
d="M221 492q0 -176 92 -292t244 -116q150 0 241 115.5t91 292.5q0 174 -90.5 287.5t-239.5 113.5q-152 0 -245 -112t-93 -289zM889 154v39q-38 -89 -125 -153.5t-217 -64.5q-202 0 -326.5 147.5t-124.5 369.5q0 218 125.5 363.5t325.5 145.5q74 0 135.5 -20t101 -53t64 -66
t39.5 -69v184h123v-791q0 -136 10 -186h-121q-10 62 -10 154zM813 1194h-520v102h520v-102z" />
    <glyph glyph-name="abreve.ss02" horiz-adv-x="1175" 
d="M221 492q0 -176 92 -292t244 -116q150 0 241 115.5t91 292.5q0 174 -90.5 287.5t-239.5 113.5q-152 0 -245 -112t-93 -289zM889 154v39q-38 -89 -125 -153.5t-217 -64.5q-202 0 -326.5 147.5t-124.5 369.5q0 218 125.5 363.5t325.5 145.5q74 0 135.5 -20t101 -53t64 -66
t39.5 -69v184h123v-791q0 -136 10 -186h-121q-10 62 -10 154zM561 1102q-132 0 -208.5 84.5t-78.5 197.5h97q3 -74 51.5 -128t138.5 -54t139 54t52 128h96q-2 -113 -78.5 -197.5t-208.5 -84.5z" />
    <glyph glyph-name="aogonek.ss02" horiz-adv-x="1175" 
d="M745 -240q0 144 152 242q-8 50 -8 152v39q-38 -89 -125 -153.5t-217 -64.5q-202 0 -326.5 147.5t-124.5 369.5q0 218 125.5 363.5t325.5 145.5q74 0 135.5 -20t101 -53t64 -66t39.5 -69v184h123v-791q0 -136 10 -186q-69 -35 -119.5 -91.5t-50.5 -125.5q0 -56 37 -86.5
t92 -30.5q40 0 70 10v-90q-40 -16 -93 -16q-91 0 -151 51t-60 139zM221 492q0 -176 92 -292t244 -116q150 0 241 115.5t91 292.5q0 174 -90.5 287.5t-239.5 113.5q-152 0 -245 -112t-93 -289z" />
    <glyph glyph-name="aringacute.ss02" horiz-adv-x="1175" 
d="M852 1860l-242 -285h-100l182 285h160zM774 1292q0 -89 -63 -152t-152 -63q-88 0 -151.5 63t-63.5 152t63.5 152t151.5 63q89 0 152 -63t63 -152zM684 1292q0 54 -35.5 91.5t-89.5 37.5t-89.5 -37.5t-35.5 -91.5t35.5 -91.5t89.5 -37.5t89.5 37.5t35.5 91.5zM221 492
q0 -176 92 -292t244 -116q150 0 241 115.5t91 292.5q0 174 -90.5 287.5t-239.5 113.5q-152 0 -245 -112t-93 -289zM889 154v39q-38 -89 -125 -153.5t-217 -64.5q-202 0 -326.5 147.5t-124.5 369.5q0 218 125.5 363.5t325.5 145.5q74 0 135.5 -20t101 -53t64 -66t39.5 -69
v184h123v-791q0 -136 10 -186h-121q-10 62 -10 154z" />
    <glyph glyph-name="r.ss03" horiz-adv-x="532" 
d="M287 0h-123v977h123v-78q5 40 33 65t69 25q43 0 73 -29t30 -73t-30 -73.5t-73 -29.5q-41 0 -69.5 24t-32.5 64v-872z" />
    <glyph glyph-name="racute.ss03" horiz-adv-x="532" 
d="M287 0h-123v977h123v-78q5 40 33 65t69 25q43 0 73 -29t30 -73t-30 -73.5t-73 -29.5q-41 0 -69.5 24t-32.5 64v-872zM547 1384l-242 -284h-100l182 284h160z" />
    <glyph glyph-name="rcommaaccent.ss03" horiz-adv-x="532" 
d="M287 0h-123v977h123v-78q5 40 33 65t69 25q43 0 73 -29t30 -73t-30 -73.5t-73 -29.5q-41 0 -69.5 24t-32.5 64v-872zM127 -172q0 38 27.5 62t66.5 24q42 0 73.5 -30.5t31.5 -90.5q0 -98 -60 -156t-143 -63v61q52 4 89 38.5t40 80.5q-12 -12 -39 -12q-37 0 -61.5 23.5
t-24.5 62.5z" />
    <glyph glyph-name="rcaron.ss03" horiz-adv-x="532" 
d="M287 0h-123v977h123v-78q5 40 33 65t69 25q43 0 73 -29t30 -73t-30 -73.5t-73 -29.5q-41 0 -69.5 24t-32.5 64v-872zM25 1382h110l189 -202l188 202h111l-226 -280h-147z" />
    <glyph glyph-name="ampersand.ss04" horiz-adv-x="1357" 
d="M774 528v119h518v-119h-172v-53q0 -141 -62.5 -255t-180 -180.5t-267.5 -66.5q-217 0 -358 121t-141 303q0 140 85 245.5t224 145.5q-113 34 -176.5 120t-63.5 204q0 150 118.5 258.5t283.5 108.5q205 0 316.5 -104t131.5 -279l-125 -25q-14 140 -93 217.5t-222 77.5
q-115 0 -199 -75t-84 -183q0 -115 81.5 -186t221.5 -74v-115q-157 -3 -263.5 -91.5t-106.5 -238.5q0 -133 102.5 -224t267.5 -91q168 0 275.5 109t107.5 278v53h-219z" />
    <glyph glyph-name="registered.ss06" horiz-adv-x="958" 
d="M100 1081q0 158 110.5 269.5t268.5 111.5t268.5 -111.5t110.5 -269.5t-110.5 -269.5t-268.5 -111.5t-268.5 111.5t-110.5 269.5zM422 1090h61q34 0 54 17.5t20 49.5q0 30 -19.5 48t-54.5 18h-61v-133zM549 883l-76 145h-51v-145h-74v401h148q59 0 98 -37t39 -90
q0 -41 -24 -74t-64 -45l86 -155h-82zM479 766q131 0 219 91t88 222q0 133 -88 224.5t-219 91.5t-219 -91.5t-88 -224.5q0 -131 88 -222t219 -91z" />
    <glyph glyph-name="zero.numr" horiz-adv-x="774" 
d="M190 1079q0 -57 9 -105.5t30 -93.5t61 -70.5t97 -25.5t97 25.5t61 70.5t30 93.5t9 105.5q0 56 -9 104.5t-30 93t-61 70t-97 25.5t-97 -25.5t-61 -70t-30 -93t-9 -104.5zM84 1079q0 170 74 275q81 110 229 110t229 -110q74 -101 74 -275q0 -175 -74 -274
q-82 -111 -229 -111t-229 111q-74 102 -74 274z" />
    <glyph glyph-name="one.numr" horiz-adv-x="444" 
d="M338 709h-105v585q-27 -29 -75 -50t-103 -25v79q74 10 123 53t60 101h100v-743z" />
    <glyph glyph-name="two.numr" horiz-adv-x="690" 
d="M190 1178l-102 6q-4 28 -4 49q0 98 72 165.5t190 67.5q115 0 185.5 -65t70.5 -160q0 -129 -147 -221l-152 -94q-83 -55 -94 -125h401v-90h-528v10q0 179 160 276l141 86q113 70 113 160q0 56 -42 95.5t-110 39.5q-70 0 -114 -41.5t-44 -111.5q0 -15 4 -47z" />
    <glyph glyph-name="three.numr" horiz-adv-x="727" 
d="M303 1069l-45 80l234 213h-400v90h537v-86l-238 -213q2 0 9.5 1t9.5 1q99 -3 167 -60t68 -159t-79 -172t-204 -70q-121 0 -199.5 61.5t-90.5 155.5l94 35q6 -73 62 -118.5t132 -45.5q77 0 128 44t51 110q0 69 -49 106t-121 37q-36 0 -66 -10z" />
    <glyph glyph-name="four.numr" horiz-adv-x="755" 
d="M57 877v104l369 471h125v-483h145v-92h-145v-168h-105v168h-389zM446 969v366l-286 -366h286z" />
    <glyph glyph-name="five.numr" horiz-adv-x="698" 
d="M63 897l93 41q11 -67 62 -110.5t122 -43.5q78 0 127 46t49 118q0 73 -49 117.5t-125 44.5q-93 0 -160 -70l-92 33l100 379h402v-90h-332l-61 -232q64 64 170 64q114 0 184 -67.5t70 -176.5q0 -108 -77.5 -182t-205.5 -74q-107 0 -185 60t-92 143z" />
    <glyph glyph-name="six.numr" horiz-adv-x="741" 
d="M641 1425l-27 -82q-61 33 -141 33q-128 0 -203 -82t-84 -213q22 52 83.5 87.5t133.5 35.5q116 0 190.5 -69.5t74.5 -184.5q0 -112 -82.5 -184t-204.5 -72q-129 0 -214 91.5t-85 252.5q0 199 110 312.5t275 113.5q110 0 174 -39zM205 950q0 -73 53 -119.5t125 -46.5
q73 0 125.5 46.5t52.5 119.5q0 74 -52.5 120t-125.5 46q-72 0 -125 -46t-53 -120z" />
    <glyph glyph-name="seven.numr" horiz-adv-x="673" 
d="M633 1452v-96q-295 -238 -340 -647h-111q11 106 41.5 204.5t64.5 166t79 130t74 93.5t59 59h-451v90h584z" />
    <glyph glyph-name="eight.numr" horiz-adv-x="727" 
d="M365 1135q69 0 112 33.5t43 88.5t-42 90t-113 35q-72 0 -114 -35t-42 -90t42.5 -88.5t113.5 -33.5zM365 786q81 0 127.5 36.5t46.5 95.5t-46 96t-128 37q-83 0 -130 -37t-47 -96q0 -58 47.5 -95t129.5 -37zM365 696q-131 0 -207 60.5t-76 152.5q0 63 41.5 113t109.5 70
q-58 21 -93.5 66.5t-35.5 103.5q0 90 72.5 147t188.5 57q115 0 187.5 -57t72.5 -147q0 -58 -36 -103.5t-95 -66.5q69 -20 110 -70t41 -113q0 -93 -74.5 -153t-205.5 -60z" />
    <glyph glyph-name="nine.numr" horiz-adv-x="737" 
d="M98 739l27 82q66 -37 149 -37q123 0 198 77.5t79 223.5q-23 -55 -82.5 -89.5t-130.5 -34.5q-113 0 -188.5 69t-75.5 182q0 109 82 181.5t202 72.5q128 0 212.5 -90.5t84.5 -249.5q0 -198 -97.5 -315t-278.5 -117q-109 0 -181 45zM530 1212q0 73 -51.5 118.5t-124.5 45.5
t-123.5 -45.5t-50.5 -118.5t50.5 -118t123.5 -45t124.5 45t51.5 118z" />
    <glyph glyph-name="a.ordn" horiz-adv-x="757" 
d="M78 948q0 84 55 136.5t148 64.5l190 29q66 11 66 63q0 64 -44.5 104.5t-123.5 40.5q-77 0 -126.5 -43t-58.5 -114l-94 24q11 97 87 159.5t190 62.5q137 0 204.5 -69t67.5 -177v-346q0 -71 8 -117h-100q-8 40 -8 108q-27 -52 -87.5 -89t-142.5 -37q-107 0 -169 58.5
t-62 141.5zM324 834q103 0 158 64t55 179v47q-11 -13 -82 -24l-152 -25q-121 -20 -121 -123q0 -49 37.5 -83.5t104.5 -34.5z" />
    <glyph glyph-name="b.ordn" horiz-adv-x="866" 
d="M227 766h-100v1042h102v-475q25 57 88 99.5t154 42.5q147 0 231 -101.5t84 -259.5q0 -159 -87 -262.5t-232 -103.5q-87 0 -148 42t-92 105v-129zM680 1114q0 120 -62 194t-163 74t-164.5 -74.5t-63.5 -193.5q0 -120 63.5 -197t164.5 -77t163 76.5t62 197.5z" />
    <glyph glyph-name="c.ordn" horiz-adv-x="792" 
d="M420 1380q-101 0 -169.5 -73.5t-68.5 -194.5q0 -124 68 -197t170 -73q87 0 141 47t74 112l90 -36q-27 -91 -106.5 -154t-198.5 -63q-148 0 -245 102.5t-97 261.5q0 158 97.5 260.5t244.5 102.5q120 0 198 -63t103 -157l-92 -38q-20 70 -71 116.5t-138 46.5z" />
    <glyph glyph-name="d.ordn" horiz-adv-x="862" 
d="M184 1114q0 -119 62.5 -196.5t163.5 -77.5t163 77t62 197q0 118 -61.5 192t-163.5 74q-101 0 -163.5 -73.5t-62.5 -192.5zM735 1808v-911q0 -81 8 -131h-100q-8 40 -8 111v16q-28 -59 -87.5 -102t-146.5 -43q-145 0 -233 104t-88 262q0 154 88.5 256.5t230.5 102.5
q96 0 154 -41.5t80 -94.5v471h102z" />
    <glyph glyph-name="e.ordn" horiz-adv-x="804" 
d="M188 1169h433q0 93 -57.5 154t-157.5 61q-91 0 -151.5 -62.5t-66.5 -152.5zM635 993l90 -28q-31 -95 -111 -156t-194 -61q-144 0 -242 99t-98 267q0 159 95 260t228 101q153 0 239.5 -96.5t86.5 -254.5q0 -18 -4 -34h-541v-5q0 -109 69.5 -178t166.5 -69q84 0 137.5 43
t77.5 112z" />
    <glyph glyph-name="f.ordn" horiz-adv-x="503" 
d="M469 1362h-184v-600h-105v600h-137v92h137v127q0 110 58.5 168.5t156.5 58.5q52 0 80 -14v-88q-27 10 -65 10q-53 0 -89 -33.5t-36 -105.5v-123h184v-92z" />
    <glyph glyph-name="g.ordn" horiz-adv-x="843" 
d="M80 729l98 25q9 -82 66.5 -136.5t144.5 -54.5q225 0 225 256v113q-24 -56 -81 -92.5t-144 -36.5q-136 0 -222.5 94.5t-86.5 239.5q0 142 86.5 239t222.5 97q88 0 145.5 -38t81.5 -96v117h101v-635q0 -53 -9 -100t-32 -93.5t-58.5 -80t-93.5 -54t-133 -20.5
q-126 0 -211.5 73t-99.5 183zM403 891q96 0 157 69t61 177q0 106 -61 174.5t-157 68.5q-98 0 -158.5 -68t-60.5 -175q0 -109 60.5 -177.5t158.5 -68.5z" />
    <glyph glyph-name="h.ordn" horiz-adv-x="811" 
d="M229 1182v-416h-102v1042h102v-452q31 53 87 86t128 33q119 0 183.5 -74t64.5 -189v-446h-104v428q0 83 -44 134.5t-132 51.5q-80 0 -130 -57.5t-53 -140.5z" />
    <glyph glyph-name="i.ordn" horiz-adv-x="356" 
d="M229 766h-102v690h102v-690zM100 1733q0 34 22 56.5t56 22.5q32 0 55 -23t23 -56q0 -32 -23 -55t-55 -23q-33 0 -55.5 22.5t-22.5 55.5z" />
    <glyph glyph-name="j.ordn" horiz-adv-x="356" 
d="M127 684v772h102v-778q0 -95 -51.5 -150t-136.5 -55q-46 0 -82 12v88q24 -8 59 -8q109 0 109 119zM100 1735q0 34 22 55.5t56 21.5q33 0 55.5 -22t22.5 -55t-22.5 -55.5t-55.5 -22.5q-34 0 -56 22t-22 56z" />
    <glyph glyph-name="k.ordn" horiz-adv-x="739" 
d="M711 1456l-289 -287l301 -403h-129l-244 332l-121 -123v-209h-102v1042h102v-694l340 342h142z" />
    <glyph glyph-name="l.ordn" horiz-adv-x="356" 
d="M229 766h-102v1042h102v-1042z" />
    <glyph glyph-name="m.ordn" horiz-adv-x="1253" 
d="M127 766v565q0 17 -1 71l-1 54h96q0 -2 2 -46.5t2 -63.5q27 56 86 92.5t133 36.5q76 0 134.5 -41.5t80.5 -110.5q31 72 92.5 112t141.5 40q104 0 173 -68t69 -186v-455h-103v438q0 78 -44 128t-126 50q-78 0 -129 -58t-51 -138v-420h-102v438q0 78 -44 128t-124 50
t-131.5 -57.5t-51.5 -140.5v-418h-102z" />
    <glyph glyph-name="n.ordn" horiz-adv-x="811" 
d="M229 1178v-412h-102v573q0 17 -2 64t-2 53h100q0 -1 2 -44t2 -66q29 57 87.5 93t131.5 36q118 0 182 -74.5t64 -188.5v-446h-102v430q0 81 -45 132.5t-133 51.5q-82 0 -131.5 -58t-51.5 -144z" />
    <glyph glyph-name="o.ordn" horiz-adv-x="849" 
d="M424 840q101 0 171.5 73t70.5 199q0 124 -70.5 197t-171.5 73t-171.5 -73t-70.5 -197q0 -126 70.5 -199t171.5 -73zM424 1475q148 0 247 -102t99 -261q0 -161 -98.5 -262.5t-247.5 -101.5q-148 0 -246 101.5t-98 262.5q0 160 98 261.5t246 101.5z" />
    <glyph glyph-name="p.ordn" horiz-adv-x="864" 
d="M229 492h-102v964h100v-129q28 60 90.5 103t153.5 43q144 0 228.5 -102t84.5 -259q0 -158 -86.5 -261t-230.5 -103q-87 0 -148.5 40.5t-89.5 96.5v-393zM682 1112q0 116 -63.5 192t-163.5 76q-101 0 -164.5 -76t-63.5 -192q0 -119 63.5 -195.5t164.5 -76.5
q100 0 163.5 77t63.5 195z" />
    <glyph glyph-name="q.ordn" horiz-adv-x="864" 
d="M737 492h-102v395q-30 -58 -90.5 -98.5t-147.5 -40.5q-142 0 -229.5 104t-87.5 262q0 154 85.5 256.5t229.5 102.5q92 0 153 -43.5t87 -102.5v129h102v-964zM182 1114q0 -119 63.5 -196.5t164.5 -77.5t164 76.5t63 197.5q0 115 -63.5 190.5t-163.5 75.5
q-101 0 -164.5 -75t-63.5 -191z" />
    <glyph glyph-name="r.ordn" horiz-adv-x="526" 
d="M492 1460v-110q-36 8 -62 8q-90 0 -144.5 -58t-54.5 -172v-362h-104v690h98q2 -20 2 -125q29 67 85.5 100t125.5 33q26 0 54 -4z" />
    <glyph glyph-name="s.ordn" horiz-adv-x="665" 
d="M72 952l92 29q8 -65 54.5 -106t123.5 -41q64 0 104.5 31t40.5 81q0 42 -29 71t-81 40l-113 22q-79 18 -125.5 67.5t-46.5 121.5q0 86 70 146.5t168 60.5q114 0 174.5 -56t77.5 -131l-90 -31q-10 55 -50 93.5t-112 38.5q-57 0 -97 -32.5t-40 -82.5q0 -81 100 -103l110 -22
q88 -19 136.5 -69.5t48.5 -125.5q0 -85 -66 -145.5t-180 -60.5q-122 0 -191 61t-79 143z" />
    <glyph glyph-name="t.ordn" horiz-adv-x="514" 
d="M283 1679v-223h174v-92h-174v-395q0 -119 112 -119q27 0 62 10v-88q-23 -14 -90 -14q-86 0 -136.5 51t-50.5 145v410h-141v92h49q100 0 100 103v120h95z" />
    <glyph glyph-name="u.ordn" horiz-adv-x="815" 
d="M592 868q-26 -53 -83.5 -86.5t-131.5 -33.5q-124 0 -191 79t-67 195v434h102v-418q0 -85 44 -141.5t134 -56.5q85 0 135 56t50 140v420h104v-561q0 -89 8 -129h-98q-6 37 -6 102z" />
    <glyph glyph-name="v.ordn" horiz-adv-x="704" 
d="M680 1456l-274 -690h-105l-278 690h114l217 -569l215 569h111z" />
    <glyph glyph-name="w.ordn" horiz-adv-x="1146" 
d="M520 1456h109l198 -561l172 561h109l-225 -690h-111l-199 567l-196 -567h-113l-227 690h110l177 -561z" />
    <glyph glyph-name="x.ordn" horiz-adv-x="710" 
d="M33 766l262 350l-252 340h123l190 -264l191 264h121l-250 -338q13 -19 129.5 -175.5t132.5 -176.5h-123l-203 276q-1 -4 -98.5 -138t-101.5 -138h-121z" />
    <glyph glyph-name="y.ordn" horiz-adv-x="712" 
d="M252 485h-111l170 369l-295 602h117l236 -493l217 493h110z" />
    <glyph glyph-name="z.ordn" horiz-adv-x="702" 
d="M629 766h-553v90l416 508h-410v92h539v-90l-418 -510h426v-90z" />
    <glyph glyph-name="numbersign.tf" 
d="M680 532l88 406h-303l-90 -406h305zM565 0l92 430h-303l-94 -430h-115l93 430h-207v102h229l88 406h-211v102h234l88 412h116l-88 -412h304l88 412h116l-88 -412h223v-102h-245l-90 -406h217v-102h-238l-92 -430h-117z" />
    <glyph glyph-name="dollar.tf" 
d="M479 819l60 -14v534q-117 -12 -198 -86.5t-81 -181.5q0 -98 56 -162t163 -90zM684 647l-43 10v-546q135 12 213 88t78 184q0 102 -63.5 169t-184.5 95zM641 -231h-102v233q-133 10 -234 72.5t-154 152t-65 195.5l113 35q13 -133 103 -230.5t237 -115.5v571l-84 20
q-150 37 -233 126.5t-83 232.5q0 157 116 266t284 123v236h102v-238q167 -14 266 -109t131 -235l-110 -37q-23 108 -95 181t-192 89v-555l66 -14q166 -38 258 -133.5t92 -243.5q0 -156 -114.5 -266t-301.5 -125v-231z" />
    <glyph glyph-name="percent.tf" 
d="M1079 1133v-121l-987 -672v119zM143 1190q0 -76 50 -126t124 -50q75 0 126 50t51 126q0 75 -51 124.5t-126 49.5q-74 0 -124 -49.5t-50 -124.5zM43 1190q0 114 80 193t194 79q116 0 196.5 -79t80.5 -193q0 -116 -80.5 -195.5t-196.5 -79.5q-115 0 -194.5 79.5
t-79.5 195.5zM653 258q0 -75 50 -125.5t124 -50.5q75 0 124.5 50.5t49.5 125.5t-49.5 125.5t-124.5 50.5q-74 0 -124 -50.5t-50 -125.5zM553 258q0 115 79 193.5t195 78.5q115 0 195 -78.5t80 -193.5t-80 -193.5t-195 -78.5q-116 0 -195 78.5t-79 193.5z" />
    <glyph glyph-name="plus.tf" 
d="M631 1188v-424h399v-102h-399v-431h-109v431h-395v102h395v424h109z" />
    <glyph glyph-name="zero.tf" 
d="M53 725q0 311 105 504q137 248 420 248q282 0 419 -248q105 -193 105 -504q0 -314 -105 -502q-133 -248 -419 -248q-287 0 -420 248q-105 195 -105 502zM975 725q0 102 -11.5 191t-40.5 172.5t-73 143t-113.5 95t-158.5 35.5t-158.5 -35.5t-113.5 -95t-72.5 -143
t-40 -172.5t-11.5 -191q0 -101 11.5 -190t40.5 -172.5t73 -142.5t113 -94.5t158 -35.5t158.5 35.5t113.5 95t73 142.5t40.5 172t11.5 190z" />
    <glyph glyph-name="one.tf" 
d="M156 115h405v1106q-30 -62 -138.5 -122t-227.5 -67v109q145 13 244 100.5t128 210.5h119v-1337h377v-115h-907v115z" />
    <glyph glyph-name="two.tf" 
d="M1053 0h-947q2 98 30.5 188t94 178t164.5 152l279 182q118 78 176.5 162.5t58.5 190.5q0 133 -87 222t-236 89q-160 0 -255 -96.5t-95 -259.5q0 -35 6 -76l-123 10q-8 40 -8 82q0 125 55 227t163.5 164t252.5 62q105 0 191.5 -33t143.5 -90.5t88 -133.5t31 -163
q0 -251 -276 -434l-301 -197q-79 -52 -134 -133t-67 -174h795v-119z" />
    <glyph glyph-name="three.tf" 
d="M1075 428q0 -191 -141 -322t-356 -131q-219 0 -356 127t-148 324l123 27q6 -163 115 -264t266 -101q160 0 264 95.5t104 244.5q0 154 -96.5 246t-257.5 92q-66 0 -139 -25l-58 97l484 497h-770v117h927v-115l-473 -483q37 12 76 12q118 -2 216 -53t159 -152t61 -233z" />
    <glyph glyph-name="four.tf" 
d="M31 356v146l659 950h172v-981h260v-115h-260v-356h-125v356h-706zM737 471v852l-587 -852h587z" />
    <glyph glyph-name="five.tf" 
d="M80 397l115 31q15 -146 116.5 -243t255.5 -97q166 0 268.5 104.5t102.5 262.5q0 167 -102.5 268.5t-266.5 101.5q-100 0 -184.5 -42.5t-140.5 -118.5l-123 47l153 741h732v-117h-644l-108 -540q59 69 152 105t188 36q214 0 342.5 -131t128.5 -348q0 -134 -60.5 -243.5
t-175 -174t-262.5 -64.5q-203 0 -337.5 120.5t-149.5 301.5z" />
    <glyph glyph-name="six.tf" 
d="M631 950q202 0 335.5 -136t133.5 -353q0 -104 -40.5 -195.5t-108.5 -154.5t-159.5 -99.5t-191.5 -36.5q-239 0 -388 178t-149 488q0 167 37 305t101.5 235.5t153.5 164.5t193 99t220 32q185 0 309 -82l-39 -107q-120 74 -276 74q-115 0 -210 -36.5t-161.5 -101
t-112.5 -154t-69 -193t-25 -220.5v-26q30 131 149 225t298 94zM225 461q0 -162 110 -268.5t263 -106.5q157 0 266 106t109 269q0 170 -104.5 274.5t-262.5 104.5q-159 0 -270 -109.5t-111 -269.5z" />
    <glyph glyph-name="seven.tf" 
d="M1106 1452v-121q-98 -92 -180 -188.5t-161.5 -221.5t-139 -260.5t-104 -305t-64.5 -355.5h-131q80 807 635 1335h-881v117h1026z" />
    <glyph glyph-name="eight.tf" 
d="M580 690q-171 0 -266 -85.5t-95 -217.5q0 -130 97.5 -216.5t263.5 -86.5t263 86.5t97 216.5q0 132 -94.5 217.5t-265.5 85.5zM580 -25q-223 0 -354.5 113.5t-131.5 288.5q0 133 83.5 233.5t221.5 132.5q-123 31 -199.5 127.5t-76.5 219.5q0 168 127 277.5t330 109.5
t329.5 -109.5t126.5 -277.5q0 -123 -77 -219.5t-201 -127.5q139 -32 223 -132t84 -234q0 -175 -131 -288.5t-354 -113.5zM580 795q149 0 240 81t91 207q0 125 -89 205t-242 80t-242.5 -80t-89.5 -205q0 -126 91.5 -207t240.5 -81z" />
    <glyph glyph-name="nine.tf" 
d="M68 991q0 214 137 350t348 136q247 0 386.5 -182.5t139.5 -518.5q0 -397 -157.5 -599t-436.5 -202q-127 0 -236 44.5t-161 109.5l66 100q53 -64 137.5 -102.5t195.5 -38.5q223 0 344.5 164t124.5 479q0 39 -2 68q-35 -128 -147 -203.5t-262 -75.5q-129 0 -236 54.5
t-174 163.5t-67 253zM913 999q0 158 -104.5 261.5t-257.5 103.5q-155 0 -258 -101t-103 -264q0 -169 102.5 -268.5t260.5 -99.5q159 0 259.5 99.5t100.5 268.5z" />
    <glyph glyph-name="less.tf" 
d="M246 713l702 -357v-125l-823 424v113l823 424v-123z" />
    <glyph glyph-name="equal.tf" 
d="M1036 860h-915v103h915v-103zM1036 463h-915v104h915v-104z" />
    <glyph glyph-name="greater.tf" 
d="M209 356l704 357l-704 356v123l823 -424v-113l-823 -424v125z" />
    <glyph glyph-name="cent.tf" 
d="M659 201v-201h-104v203q-188 19 -306 159t-118 351q0 209 119 350.5t305 161.5v227h104v-227q145 -12 242 -96t131 -211l-108 -44q-25 90 -91 157t-174 81v-799q107 14 177 82t98 156l104 -41q-34 -122 -134 -209t-245 -100zM252 713q0 -163 84 -270t219 -128v795
q-133 -21 -218 -128.5t-85 -268.5z" />
    <glyph glyph-name="sterling.tf" 
d="M1090 371q-9 -168 -106 -269.5t-257 -101.5h-637v115q100 64 167 166t67 229q0 47 -19 125h-194v108h161q-29 66 -43.5 101.5t-29.5 98t-15 120.5q0 180 118 297t310 117q92 0 167.5 -29.5t125 -81t78 -117.5t33.5 -141l-117 -27q-8 124 -84.5 203.5t-204.5 79.5
q-129 0 -214 -83.5t-85 -221.5q0 -42 10 -87.5t20.5 -74.5t31.5 -80t30 -74h394v-108h-363q15 -69 15 -121q0 -128 -57 -231t-144 -170h459q119 0 188 74.5t78 199.5z" />
    <glyph glyph-name="currency.tf" 
d="M985 217l-143 145q-113 -86 -258 -86q-150 0 -269 95l-147 -154l-78 78l150 154q-93 117 -93 264q0 152 97 270l-152 158l80 76l150 -156q118 88 262 88t252 -82l147 150l78 -76l-143 -150q104 -122 104 -278q0 -161 -100 -275l141 -143zM258 713q0 -139 95 -234.5
t231 -95.5q137 0 231 95.5t94 234.5q0 140 -94 234.5t-231 94.5q-136 0 -231 -94.5t-95 -234.5z" />
    <glyph glyph-name="yen.tf" 
d="M1032 358h-391v-358h-127v358h-387v103h387v172h-387v102h328l-424 717h145l406 -694l403 694h137l-422 -717h332v-102h-391v-172h391v-103z" />
    <glyph glyph-name="logicalnot.tf" 
d="M1012 446h-113v412h-788v109h901v-521z" />
    <glyph glyph-name="plusminus.tf" 
d="M1018 786h-387v-297h-109v297h-385v103h385v297h109v-297h387v-103zM1018 256h-881v104h881v-104z" />
    <glyph glyph-name="multiply.tf" 
d="M215 1165l365 -377l362 377l74 -73l-367 -379l369 -381l-74 -76l-366 381l-365 -379l-74 74l365 381l-363 377z" />
    <glyph glyph-name="divide.tf" 
d="M481 348q0 40 29 68t70 28q40 0 68 -28t28 -68t-28 -69t-68 -29q-41 0 -70 29t-29 69zM481 1075q0 41 29 70t70 29q40 0 68 -29t28 -70q0 -40 -28 -69t-68 -29q-41 0 -70 29t-29 69zM1030 659h-903v109h903v-109z" />
    <glyph glyph-name="perthousand.tf" 
d="M1073 1323v-123l-987 -760v119zM37 1227q0 99 69 167t166 68q99 0 168.5 -68t69.5 -167t-69.5 -167.5t-168.5 -68.5q-97 0 -166 68.5t-69 167.5zM129 1227q0 -63 41.5 -104.5t101.5 -41.5q62 0 103 41.5t41 104.5t-41 104t-103 41q-60 0 -101.5 -41t-41.5 -104zM336 213
q0 -61 41.5 -102t101.5 -41q62 0 104 41t42 102q0 63 -42 104t-104 41q-61 0 -102 -41t-41 -104zM715 213q0 -61 41.5 -102t103.5 -41t103 41t41 102q0 63 -41 104t-103 41t-103.5 -41t-41.5 -104zM244 213q0 99 69 167.5t166 68.5q60 0 110 -26.5t81 -74.5q31 48 80.5 74.5
t109.5 26.5q98 0 168 -68.5t70 -167.5q0 -97 -70 -165t-168 -68q-60 0 -109.5 26.5t-80.5 73.5q-31 -47 -81 -73.5t-110 -26.5q-97 0 -166 67.5t-69 165.5z" />
    <glyph glyph-name="Euro.tf" 
d="M1104 18q-115 -41 -240 -41q-248 0 -419.5 147.5t-225.5 391.5h-184v100h170q-6 47 -6 95q0 38 8 112h-172v101h188q60 251 242 401t426 150q118 0 233 -39l-34 -107q-100 31 -199 31q-198 0 -342 -118.5t-197 -317.5h606l-28 -101h-598q-8 -74 -8 -114q0 -47 6 -93h542
l-28 -100h-498q47 -199 187.5 -312.5t334.5 -113.5q114 0 207 33z" />
    <glyph glyph-name="minus.tf" 
d="M1010 662h-863v102h863v-102z" />
    <glyph glyph-name="approxequal.tf" 
d="M997 584l68 -60q-109 -149 -268 -149q-90 0 -199 61l-96 51q-77 41 -142 41q-115 0 -196 -100l-70 61q109 152 264 152q82 0 197 -59l94 -52q85 -45 158 -45q59 0 103.5 23.5t86.5 75.5zM997 981l68 -61q-108 -148 -268 -148q-87 0 -199 59l-96 52q-71 41 -142 41
q-114 0 -196 -101l-70 64q108 151 264 151q78 0 197 -61l94 -49q83 -47 158 -47q60 0 104 23.5t86 76.5z" />
    <glyph glyph-name="notequal.tf" 
d="M1032 463h-567l-174 -225h-127l174 225h-219v104h297l225 293h-522v103h598l170 219h127l-170 -219h188v-103h-264l-225 -293h489v-104z" />
    <glyph glyph-name="lessequal.tf" 
d="M983 479l-827 301v109l827 301v-111l-688 -245l688 -242v-113zM983 256h-827v104h827v-104z" />
    <glyph glyph-name="greaterequal.tf" 
d="M174 479v113l688 242l-688 245v111l827 -301v-109zM1001 256h-827v104h827v-104z" />
    <glyph glyph-name="one.ss05" horiz-adv-x="1007" 
d="M967 0h-856v115h378v1106q-30 -63 -137 -122.5t-225 -66.5v109q142 13 241 101t128 210h120v-1337h351v-115z" />
    <glyph glyph-name="florin.ss09" horiz-adv-x="804" 
d="M141 23l168 843h-239v111h262l47 231q28 141 114 213t201 72q75 0 131 -18v-111q-47 14 -106 14q-176 0 -221 -211l-39 -190h272v-111h-293l-176 -884q-28 -141 -114 -213t-201 -72q-77 0 -133 18v111q63 -14 108 -14q177 0 219 211z" />
    <glyph glyph-name="daggerdbl.ss09" horiz-adv-x="872" 
d="M104 434h279v584h-279v104h279v330h109v-330h276v-104h-276v-584h276v-104h-276v-330h-109v330h-279v104z" />
    <glyph glyph-name="caron.alt" horiz-adv-x="397" 
d="M305 1452l-119 -360h-94l74 360h139z" />
    <glyph glyph-name="commaturn" horiz-adv-x="387" 
d="M291 1174q0 -38 -27.5 -62.5t-66.5 -24.5q-42 0 -73.5 30.5t-31.5 90.5q0 98 60 156t143 63v-61q-52 -4 -89 -38.5t-40 -80.5q13 13 39 13q37 0 61.5 -23.5t24.5 -62.5z" />
    <glyph glyph-name="dieresis.narrow" horiz-adv-x="606" 
d="M92 1249q0 34 24 58t58 24t58 -24t24 -58t-24 -58t-58 -24t-58 24t-24 58zM350 1249q0 34 24 58t58 24t58 -24t24 -58t-24 -58t-58 -24t-58 24t-24 58z" />
    <glyph glyph-name="dieresis.uc.narrow" horiz-adv-x="620" 
d="M92 1677q0 34 24 58t58 24t58 -24t24 -58t-24 -58t-58 -24t-58 24t-24 58zM365 1677q0 34 23.5 58t57.5 24t58 -24t24 -58t-24 -58t-58 -24t-57.5 24t-23.5 58z" />
    <glyph glyph-name="grave.uc" horiz-adv-x="575" 
d="M367 1554l-275 244h172l219 -244h-116z" />
    <glyph glyph-name="dieresis.uc" horiz-adv-x="778" 
d="M92 1677q0 37 25.5 62.5t62.5 25.5t62.5 -25.5t25.5 -62.5t-25.5 -62.5t-62.5 -25.5t-62.5 25.5t-25.5 62.5zM510 1677q0 37 25.5 62.5t62.5 25.5t62.5 -25.5t25.5 -62.5t-25.5 -62.5t-62.5 -25.5t-62.5 25.5t-25.5 62.5z" />
    <glyph glyph-name="macron.uc" horiz-adv-x="741" 
d="M649 1624h-557v107h557v-107z" />
    <glyph glyph-name="acute.uc" horiz-adv-x="575" 
d="M483 1798l-274 -244h-117l219 244h172z" />
    <glyph glyph-name="circumflex.uc" horiz-adv-x="798" 
d="M201 1554h-121l235 244h168l238 -244h-121l-201 172z" />
    <glyph glyph-name="caron.uc" horiz-adv-x="798" 
d="M80 1798h121l198 -172l201 172h121l-238 -244h-168z" />
    <glyph glyph-name="breve.uc" horiz-adv-x="776" 
d="M389 1544q-131 0 -210 76t-87 182h107q7 -66 55 -113t135 -47t135.5 47.5t53.5 112.5h106q-6 -106 -85 -182t-210 -76z" />
    <glyph glyph-name="dotaccent.uc" horiz-adv-x="376" 
d="M92 1675q0 40 28 68.5t68 28.5t68.5 -28.5t28.5 -68.5t-28.5 -68t-68.5 -28t-68 28t-28 68z" />
    <glyph glyph-name="ring.uc" horiz-adv-x="598" 
d="M299 1614q49 0 82 33.5t33 83.5q0 51 -33 85.5t-82 34.5t-82 -34.5t-33 -85.5q0 -50 33 -83.5t82 -33.5zM299 1526q-85 0 -146 59.5t-61 145.5q0 87 61 147.5t146 60.5t146 -60.5t61 -147.5q0 -86 -61 -145.5t-146 -59.5z" />
    <glyph glyph-name="tilde.uc" horiz-adv-x="813" 
d="M721 1784v-23q0 -93 -49.5 -145.5t-122.5 -52.5q-71 0 -135 47l-43 30q-59 41 -103 41q-80 0 -80 -112h-96v24q0 91 50 143t126 52q75 0 148 -55l37 -27q50 -37 92 -37q80 0 80 115h96z" />
    <glyph glyph-name="hungarumlaut.uc" horiz-adv-x="710" 
d="M618 1798l-198 -244h-92l151 244h139zM383 1798l-199 -244h-92l152 244h139z" />
    <glyph glyph-name="caron.alt.uc" horiz-adv-x="385" 
d="M307 1452l-127 -381h-96l78 381h145z" />
    <glyph glyph-name="undercommaaccent" horiz-adv-x="387" 
d="M96 -172q0 38 27.5 62t66.5 24q42 0 73.5 -30.5t31.5 -90.5q0 -98 -60 -156t-143 -63v61q52 4 89 38.5t40 80.5q-12 -12 -39 -12q-37 0 -61.5 23.5t-24.5 62.5z" />
    </font>
</defs>
</svg>
