<?xml version="1.0" standalone="no"?>
<!DOCTYPE svg PUBLIC "-//W3C//DTD SVG 1.1//EN" "http://www.w3.org/Graphics/SVG/1.1/DTD/svg11.dtd" >
<svg xmlns="http://www.w3.org/2000/svg" xmlns:xlink="http://www.w3.org/1999/xlink" version="1.1">
<metadata>
Created by FontForge 20201107 at Fri Jul  5 09:34:30 2024
 By 
(c) 2015, Copyright by Lineto. All rights reserved.
</metadata>
<defs>
<font id="CircularSpotifyText-BookItalic" horiz-adv-x="1173" >
  <font-face 
    font-family="Circular Spotify Text Book"
    font-weight="400"
    font-style="italic"
    font-stretch="normal"
    units-per-em="2048"
    panose-1="2 11 5 4 2 1 1 2 1 2"
    ascent="1536"
    descent="-512"
    x-height="985"
    cap-height="1452"
    bbox="-532 -774 10056 2116"
    underline-thickness="102"
    underline-position="-204"
    slope="-12"
    unicode-range="U+000D-FEFF"
  />
<missing-glyph horiz-adv-x="1505" 
d="M244 0v1452h1069v-1452h-1069zM406 162h745v1128h-745v-1128z" />
    <glyph glyph-name="f_f" unicode="ff" horiz-adv-x="1282" 
d="M717 1317q-66 0 -109.5 -36t-62.5 -122l-37 -174h387l43 205q63 303 352 303q88 0 131 -29l-37 -164q-51 17 -81 17q-138 0 -173 -158l-36 -174h223l-37 -170h-223l-172 -815h-199l172 815h-387l-172 -815h-199l172 815h-166l37 170h166l43 205q63 303 353 303
q87 0 131 -29l-37 -164q-51 17 -82 17z" />
    <glyph glyph-name="f_f_i" unicode="ffi" horiz-adv-x="1779" 
d="M1550 1350q0 62 47 106.5t105 44.5q55 0 90 -35.5t35 -87.5q0 -61 -47.5 -106t-104.5 -45q-55 0 -90 35.5t-35 87.5zM717 1317q-66 0 -109.5 -36t-62.5 -122l-37 -174h387l43 205q63 303 352 303q88 0 131 -29l-37 -164q-51 17 -81 17q-138 0 -173 -158l-36 -174h614
l-211 -985h-192l174 815h-422l-172 -815h-199l172 815h-387l-172 -815h-199l172 815h-166l37 170h166l43 205q63 303 353 303q87 0 131 -29l-37 -164q-51 17 -82 17z" />
    <glyph glyph-name="f_f_l" unicode="ffl" horiz-adv-x="1792" 
d="M717 1317q-66 0 -109.5 -36t-62.5 -122l-37 -174h387l43 205q63 303 352 303q88 0 131 -29l-37 -164q-51 17 -81 17q-138 0 -173 -158l-36 -174h434l106 498h193l-316 -1483h-192l174 815h-436l-172 -815h-199l172 815h-387l-172 -815h-199l172 815h-166l37 170h166
l43 205q63 303 353 303q87 0 131 -29l-37 -164q-51 17 -82 17z" />
    <glyph glyph-name="f_i" unicode="fi" horiz-adv-x="1208" 
d="M979 1350q0 63 46.5 107t104.5 44q55 0 90 -35.5t35 -87.5q0 -61 -47 -106t-104 -45q-55 0 -90 35.5t-35 87.5zM717 1317q-66 0 -109.5 -36t-62.5 -122l-37 -174h629l-211 -985h-193l174 815h-436l-172 -815h-199l172 815h-166l37 170h166l43 205q63 303 353 303
q87 0 131 -29l-37 -164q-51 17 -82 17z" />
    <glyph glyph-name="f_l" unicode="fl" horiz-adv-x="1208" 
d="M717 1317q-66 0 -109.5 -36t-62.5 -122l-37 -174h436l107 498h192l-315 -1483h-193l172 815h-436l-172 -815h-199l172 815h-166l37 170h166l43 205q63 303 353 303q87 0 131 -29l-37 -164q-51 17 -82 17z" />
    <glyph glyph-name="f_y" unicode="fy" horiz-adv-x="1683" 
d="M823 -389h-221l371 559l-193 645h-309l-172 -815h-199l172 815h-166l37 170h166l43 205q63 303 353 303q87 0 131 -29l-37 -164q-51 17 -82 17q-66 0 -109.5 -36t-62.5 -122l-37 -174h432l174 -618l385 618h227z" />
    <glyph glyph-name=".notdef" horiz-adv-x="1505" 
d="M244 0v1452h1069v-1452h-1069zM406 162h745v1128h-745v-1128z" />
    <glyph glyph-name=".null" horiz-adv-x="0" 
 />
    <glyph glyph-name=".null" horiz-adv-x="0" 
 />
    <glyph glyph-name="uni000D" unicode="&#xd;" horiz-adv-x="514" 
 />
    <glyph glyph-name="space" unicode=" " horiz-adv-x="514" 
 />
    <glyph glyph-name="exclam" unicode="!" horiz-adv-x="518" 
d="M152 416l161 1036h246l-270 -1036h-137zM29 109q0 61 42.5 105t104.5 44q55 0 89 -33.5t34 -85.5q0 -62 -43.5 -105.5t-101.5 -43.5q-55 0 -90 34t-35 85z" />
    <glyph glyph-name="quotedbl" unicode="&#x22;" horiz-adv-x="786" 
d="M317 930h-71v405q0 58 36.5 99t98.5 41q52 0 83.5 -30.5t31.5 -78.5q0 -28 -15 -66zM672 930h-72v405q0 58 36.5 99t98.5 41q52 0 83.5 -30.5t31.5 -78.5q0 -31 -14 -66z" />
    <glyph glyph-name="numbersign" unicode="#" horiz-adv-x="1466" 
d="M758 0l76 381h-310l-78 -381h-165l75 381h-270v156h303l74 356h-273v156h304l84 403h167l-83 -403h309l84 403h168l-84 -403h291v-156h-324l-72 -356h289v-156h-322l-75 -381h-168zM629 893l-72 -356h309l72 356h-309z" />
    <glyph glyph-name="dollar" unicode="$" horiz-adv-x="1140" 
d="M956 1020q0 44 -12 86.5t-50 87.5t-97 66l-101 -467l39 -17q141 -63 209 -151t68 -209q0 -170 -129 -290t-332 -126h-19l-49 -233h-159l51 251q-158 38 -244 151t-86 255q0 42 6 80l178 35q-6 -34 -6 -74q0 -102 49 -175t142 -102l102 480l-47 20q-250 108 -250 348
q0 123 66 219.5t170 145.5t225 49l47 221h158l-49 -239q78 -20 137.5 -61t93.5 -94t50.5 -109t17.5 -113zM659 606h-2l-90 -434q111 9 179.5 71t68.5 156q0 68 -36 119t-120 88zM410 1057q0 -73 36.5 -121t108.5 -80l90 422q-99 -8 -167 -69.5t-68 -151.5z" />
    <glyph glyph-name="percent" unicode="%" horiz-adv-x="1748" 
d="M1616 334q0 -97 -53 -179t-135.5 -127.5t-172.5 -45.5q-127 0 -209.5 83t-82.5 205q0 145 105.5 251t252.5 106q125 0 210 -84.5t85 -208.5zM1272 141q70 0 122 52.5t52 134.5q0 62 -38.5 99.5t-104.5 37.5q-68 0 -119 -53t-51 -129q0 -63 38 -102.5t101 -39.5zM496 985
q70 0 122 52t52 134q0 62 -39 100t-105 38q-68 0 -119 -53.5t-51 -129.5q0 -62 38 -101.5t102 -39.5zM840 1178q0 -97 -52.5 -179.5t-135.5 -128t-173 -45.5q-127 0 -210 83.5t-83 205.5q0 145 106 250.5t253 105.5q126 0 210.5 -84.5t84.5 -207.5zM387 0h-188l1216 1452
h189z" />
    <glyph glyph-name="ampersand" unicode="&#x26;" horiz-adv-x="1402" 
d="M1235 0h-234l-127 180l-18 -16q-103 -90 -198.5 -134t-213.5 -44q-169 0 -279 102.5t-110 257.5q0 80 26 147.5t76 121t106 94t134 82.5l35 18l-33 49q-28 43 -45.5 74t-34 82.5t-16.5 99.5q0 90 35 162.5t92.5 116.5t127 67t142.5 23q160 0 256.5 -90.5t96.5 -223.5
q0 -56 -17.5 -106t-43 -85.5t-66.5 -70.5t-74.5 -56t-81.5 -48l-70 -39l220 -315l423 366l-59 -278l-264 -230zM260 362q0 -86 56.5 -140t150.5 -54q129 0 297 145l10 9l-244 348l-92 -52q-94 -52 -136 -111.5t-42 -144.5zM604 901l76 41q98 52 136 105t38 118
q0 66 -46.5 106t-117.5 40q-41 0 -82 -17.5t-73.5 -62.5t-32.5 -109q0 -74 53 -151z" />
    <glyph glyph-name="quotesingle" unicode="'" horiz-adv-x="432" 
d="M317 930h-71v405q0 58 36.5 99t98.5 41q52 0 83.5 -30.5t31.5 -78.5q0 -28 -15 -66z" />
    <glyph glyph-name="parenleft" unicode="(" horiz-adv-x="643" 
d="M88 412q0 359 160 675t461 525l92 -125q-118 -87 -214.5 -193.5t-172 -238.5t-117 -294t-41.5 -339q0 -333 182 -645l-137 -76q-213 331 -213 711z" />
    <glyph glyph-name="parenright" unicode=")" horiz-adv-x="641" 
d="M575 885q0 -359 -160.5 -668t-459.5 -526l-92 123q120 88 215.5 194t171.5 237.5t117 293.5t41 342q0 329 -181 645l135 76q213 -336 213 -717z" />
    <glyph glyph-name="asterisk" unicode="*" horiz-adv-x="921" 
d="M713 1452l-54 -274l267 86l18 -148l-270 -88l127 -211l-133 -94l-129 223l-207 -221l-115 94l211 217l-238 84l72 144l234 -88l43 276h174z" />
    <glyph glyph-name="plus" unicode="+" horiz-adv-x="1118" 
d="M668 633v-404h-168v404h-383v162h383v399h168v-399h385v-162h-385z" />
    <glyph glyph-name="comma" unicode="," horiz-adv-x="550" 
d="M23 113q0 66 47 110.5t116 44.5q67 0 111.5 -44.5t44.5 -123.5q0 -163 -116.5 -291t-286.5 -137l22 111q84 15 151.5 76t84.5 137q-16 -8 -47 -8q-54 0 -90.5 34t-36.5 91z" />
    <glyph glyph-name="hyphen" unicode="-" horiz-adv-x="835" 
d="M674 504h-555l35 168h555z" />
    <glyph glyph-name="period" unicode="." horiz-adv-x="514" 
d="M154 -10q-59 0 -96.5 36.5t-37.5 88.5q0 65 47 112t113 47q59 0 95 -36.5t36 -90.5q0 -66 -46.5 -111.5t-110.5 -45.5z" />
    <glyph glyph-name="slash" unicode="/" horiz-adv-x="1046" 
d="M1178 1483l-1061 -1514h-197l1059 1514h199z" />
    <glyph glyph-name="zero" unicode="0" horiz-adv-x="1320" 
d="M586 -27q-102 0 -183 30t-133 81t-87 121t-49.5 146t-14.5 161q0 83 12 172.5t38.5 184t64.5 182.5t93.5 166t122 136t153.5 92t185 34q101 0 182 -30t133.5 -81t87 -121t49.5 -145.5t15 -159.5q0 -83 -12 -173t-38.5 -185t-64.5 -183t-93.5 -166t-122 -136t-153.5 -92
t-185 -34zM774 1298q-90 0 -167.5 -50.5t-130 -132t-90 -185t-54.5 -209.5t-17 -205q0 -80 15 -143.5t48 -114t89 -77.5t133 -27q110 0 200.5 76.5t144.5 196t83 252t29 257.5q0 80 -14.5 143t-46.5 113.5t-88.5 78t-133.5 27.5z" />
    <glyph glyph-name="one" unicode="1" horiz-adv-x="729" 
d="M446 0h-196l235 1114q-25 -38 -136.5 -74t-209.5 -36l31 157q142 9 245 89t158 202h181z" />
    <glyph glyph-name="two" unicode="2" horiz-adv-x="1187" 
d="M254 184h737l-41 -184h-962q46 396 418 578l294 143q271 131 271 350q0 100 -65.5 166t-184.5 66q-142 0 -230.5 -96t-89.5 -257l-188 27q5 217 150 359.5t372 142.5q103 0 187 -33t136.5 -89.5t80.5 -128t28 -151.5q0 -171 -96.5 -290t-273.5 -205l-326 -160
q-76 -38 -135 -101.5t-82 -136.5z" />
    <glyph glyph-name="three" unicode="3" horiz-adv-x="1222" 
d="M528 -27q-113 0 -206 35.5t-152.5 97t-92 142.5t-32.5 172q0 35 6 53l195 29q-6 -30 -6 -64q0 -129 82 -208.5t208 -79.5q142 0 240 93t98 238q0 120 -74 185t-202 65q-54 0 -88 -12l-66 149l551 400h-706l36 184h955l-37 -188l-539 -400q155 0 264 -105t109 -272
q0 -104 -41.5 -198.5t-113 -164t-173 -110.5t-215.5 -41z" />
    <glyph glyph-name="four" unicode="4" horiz-adv-x="1245" 
d="M805 0h-197l68 328h-666l47 225l803 899h252l-201 -940h252l-37 -184h-252zM868 1219l-610 -707h457z" />
    <glyph glyph-name="five" unicode="5" horiz-adv-x="1187" 
d="M569 1268l-194 -420q47 47 119 70.5t145 23.5q199 0 311.5 -114.5t112.5 -303.5q0 -152 -70.5 -278t-198 -199.5t-286.5 -73.5q-115 0 -205.5 39t-146.5 106.5t-84.5 152t-28.5 180.5l188 38q-2 -12 -2 -36q0 -131 74 -217t215 -86t242.5 97.5t101.5 252.5
q0 130 -73.5 204t-206.5 74q-149 0 -265 -104l-159 86l309 692h735l-31 -184h-602z" />
    <glyph glyph-name="six" unicode="6" horiz-adv-x="1269" 
d="M922 1296q-109 0 -207.5 -43.5t-172.5 -119t-127.5 -173.5t-80.5 -210q51 95 152 149.5t237 54.5q189 0 303.5 -113t114.5 -302q0 -123 -45.5 -230t-121 -180t-176.5 -114.5t-210 -41.5q-215 0 -346 142t-131 379q0 147 35 289t105 266t167.5 218t231 148.5t286.5 54.5
q118 0 213 -31t154 -81l-86 -152q-112 90 -295 90zM664 788q-90 0 -170.5 -44t-131.5 -126t-51 -182q0 -129 76.5 -209t206.5 -80q138 0 242 100.5t104 260.5q0 130 -73 205t-203 75z" />
    <glyph glyph-name="seven" unicode="7" horiz-adv-x="1110" 
d="M1255 1452l-38 -174q-94 -71 -181.5 -150t-192 -198.5t-193 -251t-174.5 -308.5t-146 -370h-209q57 193 140 371.5t168 310.5t184.5 250.5t179.5 194.5t163 141h-763l38 184h1024z" />
    <glyph glyph-name="eight" unicode="8" horiz-adv-x="1226" 
d="M1065 408q-3 -193 -152 -314t-368 -121q-217 0 -347 107t-130 278q0 154 105 263.5t261 138.5q-85 39 -135.5 118.5t-50.5 178.5q0 183 142 302.5t353 119.5q210 0 329.5 -104.5t119.5 -264.5q0 -140 -93.5 -247.5t-232.5 -137.5q93 -40 146 -124.5t53 -192.5zM557 141
q139 0 229.5 82t90.5 201q0 105 -75 172.5t-220 67.5q-147 0 -232.5 -80t-85.5 -201q0 -117 84 -179.5t209 -62.5zM698 821q128 0 211.5 74t83.5 190q0 97 -69 160.5t-193 63.5q-131 0 -212 -76t-81 -189q0 -104 74 -163.5t186 -59.5z" />
    <glyph glyph-name="nine" unicode="9" horiz-adv-x="1263" 
d="M715 1305q-131 0 -232.5 -98t-101.5 -253q0 -128 75.5 -203t202.5 -75q139 0 238.5 98t99.5 248q0 126 -77.5 204.5t-204.5 78.5zM725 1479q219 0 348 -140.5t129 -386.5q0 -149 -33 -291t-99.5 -265.5t-158.5 -216t-217.5 -146t-269.5 -53.5q-115 0 -220.5 34.5
t-170.5 96.5l82 153q137 -108 315 -108q143 0 257.5 71t185.5 188.5t106 274.5q-57 -89 -151 -135.5t-212 -46.5q-189 0 -310.5 119.5t-121.5 308.5q0 124 45 228.5t121 172t173 105t202 37.5z" />
    <glyph glyph-name="colon" unicode=":" horiz-adv-x="573" 
d="M172 -10q-59 0 -96 36.5t-37 88.5q0 65 47 112t113 47q59 0 95 -36.5t36 -90.5q0 -66 -47 -111.5t-111 -45.5zM332 711q-59 0 -96 36.5t-37 88.5q0 65 46.5 112t112.5 47q59 0 95 -36.5t36 -90.5q0 -66 -46.5 -111.5t-110.5 -45.5z" />
    <glyph glyph-name="semicolon" unicode=";" horiz-adv-x="602" 
d="M41 113q0 63 45 106t111 43q65 0 107 -43t42 -119q0 -157 -111.5 -279.5t-275.5 -131.5l23 106q81 15 145.5 74t79.5 131q-16 -8 -45 -8q-52 0 -86.5 32.5t-34.5 88.5zM348 711q-59 0 -96 36.5t-37 88.5q0 65 47 112t113 47q59 0 95 -36.5t36 -90.5q0 -66 -47 -111.5
t-111 -45.5z" />
    <glyph glyph-name="less" unicode="&#x3c;" horiz-adv-x="1120" 
d="M111 625v174l843 422v-195l-635 -313l635 -314v-194z" />
    <glyph glyph-name="equal" unicode="=" horiz-adv-x="1351" 
d="M215 834v157h948v-157h-948zM215 434v162h948v-162h-948z" />
    <glyph glyph-name="greater" unicode="&#x3e;" horiz-adv-x="1124" 
d="M1059 799v-174l-844 -420v194l639 314l-639 313v195z" />
    <glyph glyph-name="question" unicode="?" horiz-adv-x="1052" 
d="M543 416h-176q19 259 245 391l105 61q160 94 160 240q0 81 -57.5 138t-162.5 57q-96 0 -164.5 -46.5t-99.5 -118t-31 -157.5l-194 27q8 212 146.5 343.5t363.5 131.5q190 0 297.5 -99.5t107.5 -244.5t-77 -247t-211 -177l-111 -64q-64 -37 -100 -100t-41 -135zM287 109
q0 61 42.5 105t104.5 44q55 0 89 -33.5t34 -85.5q0 -62 -43.5 -105.5t-101.5 -43.5q-55 0 -90 34t-35 85z" />
    <glyph glyph-name="at" unicode="@" horiz-adv-x="1720" 
d="M954 -96q-238 0 -424 97t-290.5 274.5t-104.5 406.5q0 117 29 224t81 195t125.5 159.5t161.5 120.5t189.5 75.5t208.5 26.5q205 0 373 -87t264 -240.5t96 -342.5q0 -112 -31 -211.5t-83.5 -169.5t-124 -110.5t-150.5 -40.5q-74 0 -128.5 32.5t-72.5 94.5
q-45 -63 -111.5 -97.5t-134.5 -34.5q-139 0 -226 97t-87 254q0 203 121 340t289 137q69 0 132.5 -32.5t86.5 -92.5l18 98h162l-111 -514q-6 -30 -6 -57q0 -84 78 -84q86 0 153.5 118t67.5 271q0 227 -158.5 374.5t-414.5 147.5q-179 0 -322 -81t-225 -230.5t-82 -341.5
q0 -134 44.5 -249t126.5 -199t205.5 -131.5t274.5 -47.5q239 0 420 144l84 -111q-87 -83 -228 -132.5t-276 -49.5zM1098 758q0 91 -44.5 141.5t-127.5 50.5q-110 0 -177 -94t-67 -221q0 -95 42.5 -152t131.5 -57q105 0 173.5 94t68.5 238z" />
    <glyph glyph-name="A" unicode="A" horiz-adv-x="1406" 
d="M1044 0l-65 406h-608l-236 -406h-227l866 1452h221l252 -1452h-203zM846 1223l-367 -631h469z" />
    <glyph glyph-name="B" unicode="B" horiz-adv-x="1253" 
d="M375 1452h438q180 0 278.5 -92.5t98.5 -239.5q0 -132 -80.5 -240.5t-210.5 -144.5q93 -30 152 -109t59 -184q0 -189 -140.5 -315.5t-355.5 -126.5h-546zM440 817h236q139 0 225 77t86 196q0 87 -58 136.5t-165 49.5h-225zM305 176h281q137 0 227 77.5t90 197.5
q0 90 -57 142t-176 52h-267z" />
    <glyph glyph-name="C" unicode="C" horiz-adv-x="1497" 
d="M909 1483q126 0 230 -36t175.5 -99.5t117 -145.5t65.5 -180l-190 -55q-31 146 -139 238.5t-279 92.5q-104 0 -194.5 -36.5t-156 -99.5t-112.5 -148t-70.5 -183t-23.5 -202q0 -222 114.5 -349.5t313.5 -127.5q155 0 275.5 83t191.5 244l176 -71q-91 -207 -261.5 -323
t-400.5 -116q-269 0 -441.5 181t-172.5 466q0 165 44.5 307.5t120 243.5t175.5 173.5t212.5 107.5t229.5 35z" />
    <glyph glyph-name="D" unicode="D" horiz-adv-x="1445" 
d="M305 178h297q104 0 205 44.5t184.5 127t135 215.5t51.5 295q0 199 -121.5 306.5t-323.5 107.5h-194zM602 0h-534l307 1452h395q278 0 443 -158t165 -422q0 -166 -43.5 -308.5t-118.5 -244.5t-174.5 -175t-211 -108.5t-228.5 -35.5z" />
    <glyph glyph-name="E" unicode="E" horiz-adv-x="1177" 
d="M940 0h-872l307 1452h872l-39 -186h-671l-95 -447h609l-41 -188h-609l-94 -445h672z" />
    <glyph glyph-name="F" unicode="F" horiz-adv-x="1167" 
d="M268 0h-200l307 1452h872l-39 -186h-671l-101 -467h608l-38 -189h-609z" />
    <glyph glyph-name="G" unicode="G" horiz-adv-x="1562" 
d="M891 1298q-102 0 -192 -35.5t-157 -98t-115 -146.5t-72.5 -183.5t-24.5 -205.5q0 -221 116 -349t316 -128q164 0 301 102t180 276h-504l37 181h694l-149 -711h-156l17 164q-168 -195 -439 -195q-168 0 -307 76.5t-224 225.5t-85 345q0 165 44.5 307.5t120.5 243.5
t176.5 173.5t213 107.5t229.5 35q126 0 230 -36t175.5 -99.5t117 -145.5t65.5 -180l-190 -55q-31 146 -139 238.5t-279 92.5z" />
    <glyph glyph-name="H" unicode="H" horiz-adv-x="1470" 
d="M1149 0h-201l135 645h-680l-135 -645h-200l307 1452h200l-131 -621h680l131 621h201z" />
    <glyph glyph-name="I" unicode="I" horiz-adv-x="593" 
d="M272 0h-204l307 1452h205z" />
    <glyph glyph-name="J" unicode="J" horiz-adv-x="1097" 
d="M897 1452h203l-226 -1051q-43 -201 -157.5 -315.5t-298.5 -114.5q-191 0 -296.5 108.5t-105.5 282.5q0 58 17 138l10 47l205 31l-23 -107q-10 -41 -10 -96q0 -101 54 -162t155 -61q197 0 250 254z" />
    <glyph glyph-name="K" unicode="K" horiz-adv-x="1349" 
d="M989 0l-364 680l-263 -229l-94 -451h-200l307 1452h200l-149 -704l803 704h276l-727 -639l439 -813h-228z" />
    <glyph glyph-name="L" unicode="L" horiz-adv-x="1091" 
d="M934 0h-866l307 1452h200l-268 -1264h666z" />
    <glyph glyph-name="M" unicode="M" horiz-adv-x="1916" 
d="M1595 0h-198l235 1112l-706 -1112h-152l-272 1106l-236 -1106h-198l307 1452h235l287 -1167l739 1167h267z" />
    <glyph glyph-name="N" unicode="N" horiz-adv-x="1531" 
d="M1210 0h-209l-483 1176l-250 -1176h-200l307 1452h239l461 -1135l242 1135h201z" />
    <glyph glyph-name="O" unicode="O" horiz-adv-x="1595" 
d="M125 602q0 169 44 314t119 247.5t174 175.5t210 108.5t225 35.5q284 0 455.5 -174t171.5 -461q0 -169 -44 -313.5t-119 -247t-174 -175.5t-209 -108t-224 -35q-284 0 -456.5 174t-172.5 459zM1319 827q0 222 -120.5 346.5t-313.5 124.5q-129 0 -236 -56.5t-175.5 -151.5
t-106 -215.5t-37.5 -251.5q0 -221 120.5 -345t313.5 -124q129 0 236 56.5t175.5 150.5t106 214.5t37.5 251.5z" />
    <glyph glyph-name="P" unicode="P" horiz-adv-x="1210" 
d="M375 1452h461q185 0 295 -103.5t110 -265.5q0 -216 -153 -348.5t-381 -132.5h-312l-127 -602h-200zM803 1274h-264l-107 -494h275q146 0 238.5 78t92.5 213q0 93 -61.5 148t-173.5 55z" />
    <glyph glyph-name="Q" unicode="Q" horiz-adv-x="1595" 
d="M125 602q0 169 44 314t119 247.5t174 175.5t210 108.5t225 35.5q284 0 455.5 -174t171.5 -461q0 -224 -74.5 -397.5t-202.5 -288.5l160 -215l-147 -101l-158 211q-171 -88 -348 -88q-284 0 -456.5 174t-172.5 459zM762 516l147 100l226 -303q88 94 136 229.5t48 284.5
q0 222 -120.5 346.5t-313.5 124.5q-129 0 -236 -56.5t-175.5 -151.5t-106 -215.5t-37.5 -251.5q0 -221 120.5 -345t313.5 -124q125 0 227 51z" />
    <glyph glyph-name="R" unicode="R" horiz-adv-x="1284" 
d="M881 0l-228 602h-258l-127 -602h-200l307 1452h471q185 0 292 -103.5t107 -265.5q0 -182 -107 -305.5t-282 -161.5l238 -616h-213zM432 780h285q145 0 235 77.5t90 213.5q0 93 -59 148t-170 55h-274z" />
    <glyph glyph-name="S" unicode="S" horiz-adv-x="1210" 
d="M573 150q129 2 206 64.5t77 166.5q0 63 -39.5 117t-116.5 90l-192 86q-264 122 -264 375q0 183 139.5 308.5t347.5 125.5q102 0 185 -27.5t135.5 -70.5t88.5 -99t51 -109.5t15 -105.5l-190 -37q0 28 -5.5 58.5t-25 70t-50.5 70t-88 51.5t-132 21q-114 0 -190 -67.5
t-76 -162.5q0 -138 135 -201l198 -92q283 -132 283 -383q0 -85 -35.5 -163t-98 -137t-155 -94.5t-198.5 -35.5q-110 0 -200 29t-150 76.5t-101.5 111t-59.5 130.5t-18 137v30l203 35q-2 -14 -2 -41q0 -63 18.5 -119.5t56 -104t101.5 -75.5t147 -28z" />
    <glyph glyph-name="T" unicode="T" horiz-adv-x="1198" 
d="M1300 1268h-450l-268 -1268h-201l268 1268h-469l39 184h1120z" />
    <glyph glyph-name="U" unicode="U" horiz-adv-x="1390" 
d="M1188 1452h203l-213 -1010q-47 -225 -192.5 -349t-358.5 -124q-219 0 -347 113.5t-128 318.5q0 81 16 152l190 899h193l-189 -924q-12 -58 -12 -108q0 -124 71.5 -194t215.5 -70q133 0 222 80t120 225z" />
    <glyph glyph-name="V" unicode="V" horiz-adv-x="1331" 
d="M424 1452l164 -1194l665 1194h215l-831 -1452h-199l-215 1452h201z" />
    <glyph glyph-name="W" unicode="W" horiz-adv-x="1994" 
d="M1049 1452h211l129 -1149l516 1149h202l-669 -1452h-199l-129 1178l-573 -1178h-205l-113 1452h195l80 -1137z" />
    <glyph glyph-name="X" unicode="X" horiz-adv-x="1265" 
d="M633 549l-475 -549h-250l637 729l-332 723h219l252 -559l481 559h252l-645 -739l330 -713h-221z" />
    <glyph glyph-name="Y" unicode="Y" horiz-adv-x="1263" 
d="M543 625l-332 827h211l252 -637l467 637h239l-641 -840l-127 -612h-200z" />
    <glyph glyph-name="Z" unicode="Z" horiz-adv-x="1257" 
d="M1042 0h-1083l41 197l1044 1071h-796l39 184h1052l-41 -190l-1048 -1076h831z" />
    <glyph glyph-name="bracketleft" unicode="[" horiz-adv-x="604" 
d="M354 -303h-395l406 1911h395l-33 -154h-238l-339 -1606h237z" />
    <glyph glyph-name="backslash" unicode="\" horiz-adv-x="1034" 
d="M676 -31l-436 1514h176l436 -1514h-176z" />
    <glyph glyph-name="bracketright" unicode="]" horiz-adv-x="602" 
d="M260 -303h-393l33 151h235l340 1606h-237l32 154h396z" />
    <glyph glyph-name="asciicircum" unicode="^" horiz-adv-x="1134" 
d="M524 1454h170l398 -729h-203l-279 528l-280 -528h-203z" />
    <glyph glyph-name="underscore" unicode="_" horiz-adv-x="1101" 
d="M-117 -162v162h1049v-162h-1049z" />
    <glyph glyph-name="grave" unicode="`" horiz-adv-x="557" 
d="M145 1112l-192 299h229l115 -299h-152z" />
    <glyph glyph-name="a" unicode="a" horiz-adv-x="1181" 
d="M590 848q-102 0 -179.5 -68t-114 -165t-36.5 -201q0 -122 59.5 -195.5t174.5 -73.5q140 0 232.5 128.5t92.5 320.5q0 113 -57.5 183.5t-171.5 70.5zM913 985h191l-154 -729q-22 -98 -22 -223q0 -7 0.5 -15t1.5 -13v-5h-182v2q-1 3 -1.5 7.5t-1.5 11t-1.5 16t-0.5 20.5
q0 41 2 68q-54 -66 -129 -105.5t-161 -39.5q-185 0 -287 121.5t-102 310.5q0 160 64 297t183 221t267 84q116 0 193.5 -44t113.5 -110z" />
    <glyph glyph-name="b" unicode="b" horiz-adv-x="1200" 
d="M219 0h-190l313 1483h190l-122 -580q108 111 297 111q184 0 283.5 -121t99.5 -305q0 -266 -148 -440.5t-377 -174.5q-107 0 -191.5 51.5t-119.5 137.5zM635 844q-132 0 -227 -115.5t-95 -308.5q0 -120 64.5 -197.5t175.5 -77.5q136 0 238 116.5t102 311.5q0 127 -69 199
t-189 72z" />
    <glyph glyph-name="c" unicode="c" horiz-adv-x="1093" 
d="M1016 705l-178 -62q-21 87 -82 144t-162 57q-64 0 -123 -26.5t-106 -77t-75 -132t-28 -182.5q0 -130 73 -207.5t195 -77.5q182 0 275 187l164 -72q-65 -125 -176.5 -206t-270.5 -81q-208 0 -331 128.5t-123 326.5q0 258 156 425t382 167q77 0 142 -19.5t108.5 -50
t77 -72.5t52.5 -83t30 -86z" />
    <glyph glyph-name="d" unicode="d" horiz-adv-x="1179" 
d="M1208 1483l-258 -1227q-26 -115 -26 -223q0 -8 0.5 -14.5t0.5 -10t1 -6.5v-2h-181l-1 2q0 3 -0.5 7.5t-1 11t-1 16t-0.5 20.5q0 14 4 68q-54 -66 -129 -105.5t-161 -39.5q-185 0 -287 121.5t-102 310.5q0 160 64 297t183 221t267 84q116 0 193.5 -44t113.5 -110l131 623
h190zM590 848q-102 0 -179.5 -68t-114 -165t-36.5 -201q0 -122 59.5 -195.5t174.5 -73.5q140 0 232.5 128.5t92.5 320.5q0 113 -57.5 183.5t-171.5 70.5z" />
    <glyph glyph-name="e" unicode="e" horiz-adv-x="1110" 
d="M289 594h524q4 16 4 41q0 39 -11.5 74.5t-36 67t-68.5 50.5t-103 19q-117 0 -198.5 -73.5t-110.5 -178.5zM987 438h-725q-2 -14 -2 -35q0 -119 72 -191.5t178 -72.5t179 47t112 117l145 -94q-56 -103 -171 -171.5t-261 -68.5q-124 0 -223.5 49.5t-161 153t-61.5 246.5
q0 109 29.5 205t81.5 167t120.5 122.5t147.5 77.5t161 26q195 0 301.5 -109t106.5 -289q0 -84 -29 -180z" />
    <glyph glyph-name="f" unicode="f" horiz-adv-x="696" 
d="M694 815h-223l-172 -815h-199l172 815h-166l37 170h166l43 205q63 303 353 303q87 0 131 -29l-37 -164q-51 17 -82 17q-66 0 -109.5 -36t-62.5 -122l-37 -174h223z" />
    <glyph glyph-name="g" unicode="g" horiz-adv-x="1179" 
d="M825 600q0 44 -14 84.5t-41.5 75.5t-75.5 56.5t-110 21.5q-136 0 -225 -98.5t-89 -266.5q0 -119 63.5 -191.5t180.5 -72.5q141 0 226 105.5t85 285.5zM-45 -59l182 43v-15q0 -94 60 -157.5t182 -63.5q268 0 342 340l16 80q-34 -53 -103.5 -87t-158.5 -34
q-185 0 -292 117.5t-107 296.5q0 151 63.5 275.5t178.5 197t260 72.5q103 0 183.5 -40t121.5 -112l26 131h197l-184 -891q-108 -514 -555 -514q-95 0 -174.5 29.5t-130.5 79t-79 112t-28 129.5v11z" />
    <glyph glyph-name="h" unicode="h" horiz-adv-x="1124" 
d="M854 0h-192l126 596q9 41 9 76q0 83 -46.5 127.5t-134.5 44.5q-74 0 -133 -41t-92 -100t-49 -130l-123 -573h-192l315 1483h193l-123 -580q100 111 282 111q137 0 220 -79.5t83 -213.5q0 -41 -10 -96z" />
    <glyph glyph-name="i" unicode="i" horiz-adv-x="501" 
d="M272 1350q0 62 47 106.5t105 44.5q55 0 90 -35.5t35 -87.5q0 -61 -47.5 -106t-104.5 -45q-55 0 -90 35.5t-35 87.5zM219 0h-192l211 985h192z" />
    <glyph glyph-name="j" unicode="j" horiz-adv-x="499" 
d="M0 -117l238 1102h190l-244 -1147q-26 -122 -105 -190t-192 -68q-81 0 -139 29l33 153q36 -12 76 -12q64 0 96.5 32t46.5 101zM272 1350q0 62 47 106.5t105 44.5q55 0 90 -35.5t35 -87.5q0 -61 -47.5 -106t-104.5 -45q-55 0 -90 35.5t-35 87.5z" />
    <glyph glyph-name="k" unicode="k" horiz-adv-x="1075" 
d="M705 0l-224 467l-200 -164l-64 -303h-190l315 1483h190l-192 -901l489 403h287l-487 -397l291 -588h-215z" />
    <glyph glyph-name="l" unicode="l" horiz-adv-x="499" 
d="M219 0h-192l315 1483h193z" />
    <glyph glyph-name="m" unicode="m" horiz-adv-x="1683" 
d="M817 0h-192l131 618q8 46 8 66q0 74 -42 118t-128 44q-99 0 -161.5 -68t-86.5 -184l-127 -594h-190l172 811q24 115 24 174h189q0 -12 -11 -102q55 66 123.5 98.5t161.5 32.5q87 0 151.5 -43t94.5 -115q71 89 154.5 123.5t183.5 34.5q123 0 205 -77t82 -206
q0 -31 -11 -92l-137 -639h-190l131 618q8 46 8 66q0 73 -42.5 117.5t-127.5 44.5q-97 0 -159 -68.5t-87 -181.5z" />
    <glyph glyph-name="n" unicode="n" horiz-adv-x="1126" 
d="M856 0h-192l127 596q8 36 8 76q0 83 -46.5 127.5t-134.5 44.5q-74 0 -133 -41t-92 -100t-49 -130l-123 -573h-192l172 811q24 115 24 174h189q0 -28 -13 -108q102 137 306 137q130 0 211 -80.5t81 -214.5q0 -39 -10 -94z" />
    <glyph glyph-name="o" unicode="o" horiz-adv-x="1153" 
d="M594 844q-64 0 -122.5 -28t-105 -79t-74.5 -131.5t-28 -177.5q0 -131 68 -209t182 -78q135 0 233.5 113t98.5 305q0 129 -67.5 207t-184.5 78zM1042 563q0 -164 -69.5 -300t-192.5 -215t-274 -79q-135 0 -236 62.5t-151.5 164.5t-50.5 228q0 253 154 422.5t384 169.5
q138 0 238.5 -62t149 -163.5t48.5 -227.5z" />
    <glyph glyph-name="p" unicode="p" horiz-adv-x="1202" 
d="M643 838q-134 0 -231 -113t-97 -305q0 -130 65.5 -202.5t180.5 -72.5q135 0 233.5 116t98.5 312q0 127 -66 196t-184 69zM401 872q54 68 137.5 104t176.5 36t166 -33t118 -91t68 -133.5t23 -164.5q0 -177 -64.5 -317.5t-183 -220t-269.5 -79.5q-103 0 -192 48.5
t-131 130.5l-115 -541h-190l256 1200q24 115 24 174h189q0 -46 -13 -113z" />
    <glyph glyph-name="q" unicode="q" horiz-adv-x="1183" 
d="M1112 985l-291 -1374h-190l102 483q-111 -114 -266 -114q-185 0 -292 123.5t-107 308.5q0 159 64.5 296t184 220.5t267.5 83.5q113 0 193.5 -42.5t119.5 -105.5l25 121h190zM594 844q-102 0 -180 -66t-115 -162.5t-37 -201.5q0 -119 64 -194t184 -75q140 0 230.5 126.5
t90.5 312.5q0 119 -59 189.5t-178 70.5z" />
    <glyph glyph-name="r" unicode="r" horiz-adv-x="735" 
d="M731 786q-44 7 -69 7q-140 0 -224 -89.5t-116 -236.5l-101 -467h-190l172 811q24 115 24 174h189q0 -87 -19 -154q50 82 135 125t191 43q37 0 53 -2z" />
    <glyph glyph-name="s" unicode="s" horiz-adv-x="909" 
d="M10 307l170 39q2 -91 60 -152t155 -61q77 0 117.5 38.5t40.5 92.5q0 73 -92 117l-144 65q-176 79 -176 250q0 131 99.5 225.5t261.5 94.5q74 0 134.5 -20t98 -50t64 -70t38.5 -75.5t15 -69.5l-172 -47q-5 32 -16.5 59t-33 53.5t-59.5 42t-88 15.5q-71 0 -113 -38t-42 -91
q0 -74 78 -111l135 -61q98 -44 151 -115t53 -159q0 -40 -12 -81t-39.5 -82.5t-68 -74t-103 -52.5t-137.5 -20q-96 0 -171.5 32.5t-118 84t-64 108.5t-21.5 113z" />
    <glyph glyph-name="t" unicode="t" horiz-adv-x="684" 
d="M453 158q9 0 19 0.5t17.5 1t14 1t10.5 1.5h4l-33 -158q-28 -14 -104 -14q-108 0 -173 58.5t-65 160.5q0 33 9 74l112 528h-180l37 174h29q169 0 202 160l33 151h176l-67 -311h198l-37 -174h-198l-109 -518q-6 -27 -6 -47q0 -88 111 -88z" />
    <glyph glyph-name="u" unicode="u" horiz-adv-x="1112" 
d="M1036 985l-153 -729q-27 -120 -27 -223q0 -8 0.5 -14.5t0.5 -10t1 -6.5v-2h-184v2q-1 3 -1.5 7.5t-1 11t-1 16t-0.5 20.5q0 38 2 58q-47 -66 -119 -100.5t-145 -34.5q-149 0 -233.5 87t-84.5 230q0 55 12 113l123 575h193l-121 -571q-10 -55 -10 -92q0 -81 41.5 -130
t132.5 -49q104 0 172 76.5t92 190.5l121 575h190z" />
    <glyph glyph-name="v" unicode="v" horiz-adv-x="1042" 
d="M1073 985l-584 -985h-186l-176 985h199l108 -754l422 754h217z" />
    <glyph glyph-name="w" unicode="w" horiz-adv-x="1622" 
d="M772 985h203l94 -735l371 735h211l-523 -985h-198l-99 745l-389 -745h-202l-101 985h185l63 -733z" />
    <glyph glyph-name="x" unicode="x" horiz-adv-x="1040" 
d="M481 356l-325 -356h-248l481 504l-258 481h211q34 -68 99.5 -194.5t76.5 -147.5l311 342h246l-465 -487q23 -41 119 -221t150 -277h-211z" />
    <glyph glyph-name="y" unicode="y" horiz-adv-x="1028" 
d="M168 -389h-221l370 559l-241 815h209l174 -618l385 618h227z" />
    <glyph glyph-name="z" unicode="z" horiz-adv-x="972" 
d="M758 0h-797l37 172l670 639h-516l36 174h762l-37 -174l-669 -637h551z" />
    <glyph glyph-name="braceleft" unicode="{" horiz-adv-x="704" 
d="M18 561l37 178q99 0 173 49.5t96 155.5l59 287q42 208 140 292.5t290 84.5h47l-33 -154h-28q-118 0 -173 -49.5t-81 -165.5l-72 -338q-22 -105 -90 -171t-174 -79q72 -18 116 -71.5t44 -133.5q0 -23 -7 -63l-63 -299q-10 -55 -10 -88q0 -75 41.5 -111.5t132.5 -36.5h26
l-32 -151h-29q-303 0 -303 256q0 60 14 123l62 282q6 30 6 58q0 145 -189 145z" />
    <glyph glyph-name="bar" unicode="|" horiz-adv-x="468" 
d="M127 -303h-168l406 1911h167z" />
    <glyph glyph-name="braceright" unicode="}" horiz-adv-x="704" 
d="M707 737l-37 -178q-44 0 -82.5 -9t-77.5 -29.5t-67.5 -62t-41.5 -100.5l-61 -282q-41 -193 -149.5 -286t-296.5 -93h-29l33 151h24q211 0 262 236l72 336q20 93 89.5 154t174.5 83q-78 15 -123 67t-45 124q0 26 6 53l72 338q12 55 12 94q0 63 -38 92t-128 29h-38l32 154
h47q291 0 291 -238q0 -57 -14 -117l-70 -309q-6 -30 -6 -57q0 -77 53 -113.5t136 -36.5z" />
    <glyph glyph-name="asciitilde" unicode="~" horiz-adv-x="1284" 
d="M1034 719l117 -94q-57 -93 -135.5 -142t-171.5 -49q-98 0 -199 55l-94 52q-59 30 -111 30q-111 0 -196 -116l-117 94q57 94 137 144t174 50q100 0 195 -53l94 -51q56 -33 117 -33q119 0 190 113z" />
    <glyph glyph-name="uni00A0" unicode="&#xa0;" horiz-adv-x="514" 
 />
    <glyph glyph-name="exclamdown" unicode="&#xa1;" horiz-adv-x="493" 
d="M313 590l-161 -1036h-246l270 1036h137zM436 897q0 -61 -42.5 -105t-104.5 -44q-55 0 -89 33t-34 85q0 62 43.5 106t101.5 44q55 0 90 -34t35 -85z" />
    <glyph glyph-name="cent" unicode="&#xa2;" horiz-adv-x="1128" 
d="M926 885q-13 65 -56.5 116t-113.5 70l-142 -684q89 4 159.5 57t111.5 138l153 -68q-61 -132 -175 -217.5t-265 -89.5q-17 0 -23 2l-43 -209h-149l47 229q-137 43 -220 162.5t-83 276.5q0 123 42.5 232t114.5 185t165.5 123t195.5 54l39 190h150l-41 -203
q129 -26 206 -111t99 -198zM319 672q0 -91 39 -159.5t111 -100.5l137 663q-122 -26 -204.5 -134.5t-82.5 -268.5z" />
    <glyph glyph-name="sterling" unicode="&#xa3;" horiz-adv-x="1310" 
d="M346 596q0 15 -2 27h-203l31 163h162q-3 18 -9.5 58t-10 63t-6.5 56.5t-3 62.5q0 196 130.5 323.5t330.5 127.5q105 0 188 -33t133 -87.5t75.5 -120.5t25.5 -136q0 -38 -4 -58l-176 -22q4 36 4 53q0 104 -66.5 167t-183.5 63q-120 0 -192 -76.5t-72 -208.5q0 -35 4.5 -71
t13.5 -87.5t12 -73.5h402l-33 -163h-358q0 -6 1 -13t1 -12q-4 -139 -73.5 -247.5t-186.5 -174.5h456q115 0 189 67t98 181l170 -41q-34 -178 -151 -280.5t-298 -102.5h-753l37 174q136 52 222.5 168t94.5 254z" />
    <glyph glyph-name="currency" unicode="&#xa4;" horiz-adv-x="1335" 
d="M264 717q0 133 76 246l-154 159l123 121l154 -160q112 72 237 72q120 0 228 -65l147 153l123 -121l-143 -149q84 -119 84 -256q0 -138 -82 -254l141 -144l-121 -120l-143 147q-106 -67 -234 -67q-134 0 -243 73l-150 -153l-121 120l150 156q-72 112 -72 242zM434 717
q0 -118 77 -194.5t189 -76.5t187.5 76t75.5 195q0 117 -75.5 192.5t-187.5 75.5t-189 -75.5t-77 -192.5z" />
    <glyph glyph-name="yen" unicode="&#xa5;" horiz-adv-x="1298" 
d="M1071 338h-381l-72 -338h-204l73 338h-362l31 147h362l33 152h-365l29 147h283l-254 668h213l229 -637l485 637h228l-527 -668h291l-30 -147h-379l-33 -152h383z" />
    <glyph glyph-name="brokenbar" unicode="&#xa6;" horiz-adv-x="491" 
d="M371 791h-168l172 817h168zM137 -303h-168l174 817h168z" />
    <glyph glyph-name="section" unicode="&#xa7;" horiz-adv-x="1062" 
d="M-2 0l186 16q-10 -48 -10 -79q0 -90 52 -143.5t155 -53.5q91 0 157 55.5t66 153.5q0 44 -22 84.5t-60 68.5l-184 131q-100 71 -156.5 144t-56.5 168q0 60 23 112t60.5 87t74.5 58t75 36q-125 107 -125 258q0 115 63.5 205t162.5 136t211 46q181 0 279 -94.5t98 -235.5
q0 -39 -9 -86l-188 -18q10 48 10 81q0 88 -52.5 140.5t-150.5 52.5q-93 0 -162 -57.5t-69 -149.5q0 -88 88 -151l182 -134q50 -36 81.5 -63t65 -65t50 -81.5t16.5 -93.5q0 -113 -72.5 -195t-156.5 -108q58 -51 90.5 -119t32.5 -137q0 -88 -37.5 -162.5t-99.5 -123t-140 -75
t-161 -26.5q-179 0 -277 93t-98 235q0 46 8 90zM629 637l-176 131q-49 -13 -94.5 -67.5t-45.5 -120.5q0 -88 90 -152l179 -131q49 13 95 67.5t46 118.5q0 84 -94 154z" />
    <glyph glyph-name="dieresis" unicode="&#xa8;" horiz-adv-x="776" 
d="M-86 1257q0 54 38.5 94t92.5 40q48 0 78.5 -32.5t30.5 -76.5q0 -55 -41.5 -92t-94.5 -37q-44 0 -74 30.5t-30 73.5zM313 1257q0 54 38.5 94t92.5 40q48 0 78.5 -32.5t30.5 -76.5q0 -55 -41 -92t-94 -37q-44 0 -74.5 30.5t-30.5 73.5z" />
    <glyph glyph-name="copyright" unicode="&#xa9;" horiz-adv-x="1728" 
d="M143 727q0 205 99.5 379t271.5 275.5t375 101.5q153 0 292.5 -60t239.5 -161.5t159.5 -241.5t59.5 -293t-59.5 -293.5t-159.5 -242t-239.5 -162t-292.5 -60.5q-203 0 -375 102t-271.5 276.5t-99.5 379.5zM303 727q0 -127 46 -240t124 -193.5t186.5 -127.5t229.5 -47
t229.5 47t186.5 127.5t124 193.5t46 240t-45.5 239.5t-124 193t-187 127t-229.5 46.5t-229.5 -46.5t-187 -127t-124 -193t-45.5 -239.5zM1276 903l-146 -51q-17 72 -67 119t-133 47q-111 0 -192 -90.5t-81 -251.5q0 -107 61 -170.5t161 -63.5q149 0 225 152l133 -59
q-51 -102 -143.5 -168t-223.5 -66q-170 0 -271 105t-101 268q0 212 128 348.5t314 136.5q78 0 140 -23t100 -62.5t61 -81t35 -89.5z" />
    <glyph glyph-name="ordfeminine" unicode="&#xaa;" horiz-adv-x="899" 
d="M559 1337q-99 0 -158 -87.5t-59 -196.5q0 -80 40.5 -128t115.5 -48q91 0 152 82.5t61 209.5q0 75 -39 121.5t-113 46.5zM778 1452h150l-109 -524q-14 -64 -14 -170h-141q-2 23 -2 69v19q-81 -103 -199 -103q-129 0 -202 87.5t-73 220.5q0 114 45.5 210.5t129 154
t186.5 57.5q150 0 213 -107z" />
    <glyph glyph-name="guillemotleft" unicode="&#xab;" horiz-adv-x="1054" 
d="M473 203h-190l-201 397l350 385h211l-360 -403zM868 203h-190l-201 397l350 385h211l-360 -403z" />
    <glyph glyph-name="logicalnot" unicode="&#xac;" horiz-adv-x="1253" 
d="M1100 430h-172v399h-776v168h948v-567z" />
    <glyph glyph-name="uni00AD" unicode="&#xad;" horiz-adv-x="835" 
d="M674 504h-555l35 168h555z" />
    <glyph glyph-name="registered" unicode="&#xae;" horiz-adv-x="1728" 
d="M143 727q0 205 99.5 379t271.5 275.5t375 101.5q153 0 292.5 -60t239.5 -161.5t159.5 -241.5t59.5 -293t-59.5 -293.5t-159.5 -242t-239.5 -162t-292.5 -60.5q-203 0 -375 102t-271.5 276.5t-99.5 379.5zM303 727q0 -127 46 -240t124 -193.5t186.5 -127.5t229.5 -47
t229.5 47t186.5 127.5t124 193.5t46 240t-45.5 239.5t-124 193t-187 127t-229.5 46.5t-229.5 -46.5t-187 -127t-124 -193t-45.5 -239.5zM997 322l-123 305h-83l-64 -305h-149l174 821h270q104 0 169.5 -68.5t65.5 -161.5q0 -107 -67.5 -182t-175.5 -94l135 -315h-152z
M815 752h109q84 0 133 39.5t49 115.5q0 105 -129 105h-103z" />
    <glyph glyph-name="macron" unicode="&#xaf;" horiz-adv-x="702" 
d="M461 1182h-559l35 166h559z" />
    <glyph glyph-name="degree" unicode="&#xb0;" horiz-adv-x="815" 
d="M504 997q70 0 122 52.5t52 134.5q0 62 -38.5 99.5t-104.5 37.5q-68 0 -119 -53t-51 -129q0 -63 38 -102.5t101 -39.5zM487 838q-127 0 -209.5 83t-82.5 205q0 145 105.5 251t252.5 106q125 0 210 -84.5t85 -208.5q0 -97 -53 -179t-135.5 -127.5t-172.5 -45.5z" />
    <glyph glyph-name="plusminus" unicode="&#xb1;" horiz-adv-x="1241" 
d="M702 758v-275h-167v275h-363v157h363v279h167v-279h365v-157h-365zM172 229v162h895v-162h-895z" />
    <glyph glyph-name="twosuperior" unicode="&#xb2;" horiz-adv-x="722" 
d="M358 1044l129 58q117 51 117 133q0 39 -27.5 68.5t-76.5 29.5q-63 0 -99 -39t-36 -118h-154q0 136 81 212t212 76q123 0 191.5 -64t68.5 -157q0 -86 -52 -151t-145 -105l-155 -67q-64 -29 -86 -82h376l-28 -133h-561q24 240 245 339z" />
    <glyph glyph-name="threesuperior" unicode="&#xb3;" horiz-adv-x="722" 
d="M389 1055l-53 123l233 141h-327l28 133h533l-29 -152l-233 -137q75 -14 124.5 -69t49.5 -129q0 -111 -82.5 -193t-218.5 -82q-117 0 -197 64.5t-80 171.5q0 19 4 39l142 10q-2 -8 -2 -23q0 -52 37 -89.5t94 -37.5q64 0 105.5 34.5t41.5 96.5q0 49 -35.5 78t-85.5 29
q-28 0 -49 -8z" />
    <glyph glyph-name="acute" unicode="&#xb4;" horiz-adv-x="561" 
d="M373 1411l-318 -299h-172l236 299h254z" />
    <glyph glyph-name="mu" unicode="&#xb5;" horiz-adv-x="1210" 
d="M152 -389v1374h194v-592q0 -111 54.5 -182.5t168.5 -71.5t174 68t60 184v594h192v-803q0 -27 1 -56t2.5 -50.5t3.5 -38.5t3 -27l1 -10h-185q-8 46 -8 119q-38 -73 -118.5 -111.5t-172.5 -38.5q-101 0 -178 41v-399h-192z" />
    <glyph glyph-name="paragraph" unicode="&#xb6;" horiz-adv-x="1310" 
d="M813 1286l-356 -1675h-170l223 1046h-18q-145 0 -240.5 93t-95.5 233q0 110 48 200.5t127 148t177.5 89t202.5 31.5h696l-35 -166h-198l-357 -1675h-170l357 1675h-191z" />
    <glyph glyph-name="periodcentered" unicode="&#xb7;" horiz-adv-x="546" 
d="M121 565q0 65 47 112.5t113 47.5q59 0 95 -36.5t36 -90.5q0 -66 -47 -112t-111 -46q-59 0 -96 36.5t-37 88.5z" />
    <glyph glyph-name="cedilla" unicode="&#xb8;" horiz-adv-x="602" 
d="M143 29h172l-161 -135q66 -9 102.5 -50t36.5 -98q0 -80 -66.5 -134t-169.5 -54q-96 0 -163 46.5t-91 98.5l107 66q6 -14 15 -28t26 -31.5t44 -28.5t60 -11q39 0 67 18.5t28 53.5q0 30 -25.5 49t-63.5 19q-13 0 -28 -3l-45 87z" />
    <glyph glyph-name="onesuperior" unicode="&#xb9;" horiz-adv-x="468" 
d="M389 705h-158l115 512h-164l21 104q74 3 129.5 38.5t79.5 92.5h139z" />
    <glyph glyph-name="ordmasculine" unicode="&#xba;" horiz-adv-x="858" 
d="M557 1335q-90 0 -153.5 -74.5t-63.5 -197.5q0 -87 45 -138t119 -51q89 0 154 74t65 201q0 85 -44.5 135.5t-121.5 50.5zM879 1153q0 -175 -109 -295.5t-272 -120.5q-144 0 -229 91.5t-85 228.5q0 180 110.5 299t272.5 119q146 0 229 -92t83 -230z" />
    <glyph glyph-name="guillemotright" unicode="&#xbb;" horiz-adv-x="1081" 
d="M180 985h191l200 -397l-350 -385h-211l361 403zM606 985h191l200 -397l-350 -385h-211l361 403z" />
    <glyph glyph-name="onequarter" unicode="&#xbc;" horiz-adv-x="1601" 
d="M795 156l32 174l422 418h181l-99 -459h133l-28 -133h-131q0 -1 -4 -19q-12 -58 -29 -137h-156l33 156h-354zM1176 289l63 280l-283 -280h220zM1505 1452l-1237 -1452h-198l1241 1452h194zM410 705h-158l115 512h-164l20 104q74 3 129.5 38.5t79.5 92.5h139z" />
    <glyph glyph-name="onehalf" unicode="&#xbd;" horiz-adv-x="1689" 
d="M1171 340l129 57q117 51 117 133q0 39 -27.5 69t-76.5 30q-63 0 -99 -39.5t-36 -118.5h-154q0 136 81 212.5t212 76.5q123 0 191.5 -64t68.5 -157q0 -86 -52 -151t-145 -105l-155 -68q-64 -29 -86 -82h377l-29 -133h-561q24 241 245 340zM1505 1452l-1237 -1452h-198
l1241 1452h194zM410 705h-158l115 512h-164l20 104q74 3 129.5 38.5t79.5 92.5h139z" />
    <glyph glyph-name="threequarters" unicode="&#xbe;" horiz-adv-x="1753" 
d="M946 156l33 174l422 418h180l-98 -459h133l-29 -133h-131q0 -1 -4 -19q-12 -58 -29 -137h-155l32 156h-354zM1327 289l64 280l-283 -280h219zM1657 1452l-1237 -1452h-199l1241 1452h195zM401 1055l-53 123l234 141h-328l29 133h532l-29 -152l-233 -137q75 -14 124.5 -69
t49.5 -129q0 -111 -82.5 -193t-218.5 -82q-116 0 -196 64.5t-80 171.5q0 19 4 39l141 10q-2 -8 -2 -23q0 -52 37 -89.5t94 -37.5q64 0 105.5 34.5t41.5 96.5q0 49 -35 78t-85 29q-29 0 -50 -8z" />
    <glyph glyph-name="questiondown" unicode="&#xbf;" horiz-adv-x="1036" 
d="M457 590h176q-19 -258 -246 -391l-104 -62q-154 -89 -154 -239q0 -82 55.5 -138.5t163.5 -56.5q96 0 164.5 46.5t99.5 118t31 157.5l195 -27q-8 -212 -146.5 -343.5t-363.5 -131.5q-189 0 -297.5 100.5t-108.5 243.5q0 265 283 424l110 63q131 74 142 236zM713 897
q0 -61 -43 -105t-105 -44q-55 0 -89 33t-34 85q0 62 44 106t102 44q55 0 90 -34t35 -85z" />
    <glyph glyph-name="Agrave" unicode="&#xc0;" horiz-adv-x="1406" 
d="M1044 0l-65 406h-608l-236 -406h-227l866 1452h221l252 -1452h-203zM846 1223l-367 -631h469zM815 1554l-219 244h242l153 -244h-176z" />
    <glyph glyph-name="Aacute" unicode="&#xc1;" horiz-adv-x="1406" 
d="M1044 0l-65 406h-608l-236 -406h-227l866 1452h221l252 -1452h-203zM846 1223l-367 -631h469zM1282 1798l-313 -244h-199l244 244h268z" />
    <glyph glyph-name="Acircumflex" unicode="&#xc2;" horiz-adv-x="1406" 
d="M1044 0l-65 406h-608l-236 -406h-227l866 1452h221l252 -1452h-203zM846 1223l-367 -631h469zM713 1554h-178l276 244h246l184 -244h-170l-151 132z" />
    <glyph glyph-name="Atilde" unicode="&#xc3;" horiz-adv-x="1406" 
d="M1044 0l-65 406h-608l-236 -406h-227l866 1452h221l252 -1452h-203zM846 1223l-367 -631h469zM1251 1804q-24 -139 -82.5 -198.5t-148.5 -59.5q-74 0 -143 49l-25 17q-44 28 -78 28q-64 0 -80 -90h-143q14 132 77.5 195t155.5 63q75 0 144 -49l24 -16q45 -29 78 -29
q64 0 80 90h141z" />
    <glyph glyph-name="Adieresis" unicode="&#xc4;" horiz-adv-x="1406" 
d="M1044 0l-65 406h-608l-236 -406h-227l866 1452h221l252 -1452h-203zM846 1223l-367 -631h469zM553 1665q0 58 38.5 95.5t96.5 37.5q47 0 77 -30.5t30 -75.5q0 -59 -39.5 -97.5t-93.5 -38.5q-46 0 -77.5 31t-31.5 78zM1024 1665q0 58 38.5 95.5t96.5 37.5q47 0 77 -30.5
t30 -75.5q0 -59 -39.5 -97.5t-93.5 -38.5q-46 0 -77.5 31t-31.5 78z" />
    <glyph glyph-name="Aring" unicode="&#xc5;" horiz-adv-x="1409" 
d="M1044 0l-65 406h-608l-236 -406h-227l811 1358q-86 67 -86 172q0 117 83.5 194.5t190.5 77.5q98 0 165 -66t67 -159q0 -65 -34.5 -125.5t-92.5 -97.5l235 -1354h-203zM846 1223l-367 -631h469zM891 1661q-44 0 -79.5 -32t-35.5 -81q0 -44 27 -70t71 -26q47 0 82 32t35 81
q0 42 -28 69t-72 27z" />
    <glyph glyph-name="AE" unicode="&#xc6;" horiz-adv-x="2072" 
d="M1202 186h672l-39 -186h-872l81 391h-575l-334 -391h-254l1260 1452h1001l-39 -186h-671l-95 -447h609l-41 -188h-609zM623 571h460l152 717z" />
    <glyph glyph-name="Ccedilla" unicode="&#xc7;" horiz-adv-x="1497" 
d="M909 1483q126 0 230 -36t175.5 -99.5t117 -145.5t65.5 -180l-190 -55q-31 146 -139 238.5t-279 92.5q-104 0 -194.5 -36.5t-156 -99.5t-112.5 -148t-70.5 -183t-23.5 -202q0 -222 114.5 -349.5t313.5 -127.5q155 0 275.5 83t191.5 244l176 -71q-86 -197 -245 -312
t-372 -125l-92 -77q67 -9 103.5 -50.5t36.5 -97.5q0 -80 -66.5 -134t-169.5 -54q-96 0 -163 46.5t-91 98.5l107 66q6 -14 15 -28t26 -31.5t44 -28.5t60 -11q38 0 66 18.5t28 53.5q0 30 -25.5 49t-62.5 19q-14 0 -29 -3l-45 87l99 86q-225 37 -362.5 210t-137.5 426
q0 165 44.5 307.5t120 243.5t175.5 173.5t212.5 107.5t229.5 35z" />
    <glyph glyph-name="Egrave" unicode="&#xc8;" horiz-adv-x="1177" 
d="M940 0h-872l307 1452h872l-39 -186h-671l-95 -447h609l-41 -188h-609l-94 -445h672zM788 1554l-219 244h242l154 -244h-177z" />
    <glyph glyph-name="Eacute" unicode="&#xc9;" horiz-adv-x="1177" 
d="M940 0h-872l307 1452h872l-39 -186h-671l-95 -447h609l-41 -188h-609l-94 -445h672zM1188 1798l-314 -244h-198l244 244h268z" />
    <glyph glyph-name="Ecircumflex" unicode="&#xca;" horiz-adv-x="1177" 
d="M940 0h-872l307 1452h872l-39 -186h-671l-95 -447h609l-41 -188h-609l-94 -445h672zM655 1554h-178l277 244h245l185 -244h-170l-152 132z" />
    <glyph glyph-name="Edieresis" unicode="&#xcb;" horiz-adv-x="1177" 
d="M489 1665q0 58 39 95.5t97 37.5q47 0 76.5 -30.5t29.5 -75.5q0 -59 -39.5 -97.5t-93.5 -38.5q-46 0 -77.5 31t-31.5 78zM961 1665q0 58 38.5 95.5t96.5 37.5q47 0 76.5 -30.5t29.5 -75.5q0 -59 -39.5 -97.5t-93.5 -38.5q-46 0 -77 31t-31 78zM940 0h-872l307 1452h872
l-39 -186h-671l-95 -447h609l-41 -188h-609l-94 -445h672z" />
    <glyph glyph-name="Igrave" unicode="&#xcc;" horiz-adv-x="593" 
d="M438 1554l-219 244h242l153 -244h-176zM272 0h-204l307 1452h205z" />
    <glyph glyph-name="Iacute" unicode="&#xcd;" horiz-adv-x="593" 
d="M913 1798l-313 -244h-199l244 244h268zM272 0h-204l307 1452h205z" />
    <glyph glyph-name="Icircumflex" unicode="&#xce;" horiz-adv-x="593" 
d="M319 1554h-178l277 244h246l184 -244h-170l-152 132zM272 0h-204l307 1452h205z" />
    <glyph glyph-name="Idieresis" unicode="&#xcf;" horiz-adv-x="593" 
d="M272 0h-204l307 1452h205z" />
    <glyph glyph-name="Eth" unicode="&#xd0;" horiz-adv-x="1449" 
d="M72 655l34 168h140l133 629h395q278 0 443 -158t165 -422q0 -166 -43.5 -308.5t-118.5 -244.5t-174.5 -175t-211 -108.5t-228.5 -35.5h-534l137 655h-137zM309 178h297q104 0 205 44.5t184.5 127t135 215.5t51.5 295q0 199 -121.5 306.5t-323.5 107.5h-194l-97 -451h308
l-35 -168h-309z" />
    <glyph glyph-name="Ntilde" unicode="&#xd1;" horiz-adv-x="1531" 
d="M1346 1804q-24 -139 -82.5 -198.5t-149.5 -59.5q-74 0 -143 49l-25 17q-44 28 -78 28q-64 0 -80 -90h-143q14 132 78 195t156 63q74 0 143 -49l25 -16q45 -29 77 -29q64 0 80 90h142zM1210 0h-209l-483 1176l-250 -1176h-200l307 1452h239l461 -1135l242 1135h201z" />
    <glyph glyph-name="Ograve" unicode="&#xd2;" horiz-adv-x="1595" 
d="M125 602q0 169 44 314t119 247.5t174 175.5t210 108.5t225 35.5q284 0 455.5 -174t171.5 -461q0 -169 -44 -313.5t-119 -247t-174 -175.5t-209 -108t-224 -35q-284 0 -456.5 174t-172.5 459zM1319 827q0 222 -120.5 346.5t-313.5 124.5q-129 0 -236 -56.5t-175.5 -151.5
t-106 -215.5t-37.5 -251.5q0 -221 120.5 -345t313.5 -124q129 0 236 56.5t175.5 150.5t106 214.5t37.5 251.5zM895 1554l-219 244h242l153 -244h-176z" />
    <glyph glyph-name="Oacute" unicode="&#xd3;" horiz-adv-x="1595" 
d="M125 602q0 169 44 314t119 247.5t174 175.5t210 108.5t225 35.5q284 0 455.5 -174t171.5 -461q0 -169 -44 -313.5t-119 -247t-174 -175.5t-209 -108t-224 -35q-284 0 -456.5 174t-172.5 459zM1319 827q0 222 -120.5 346.5t-313.5 124.5q-129 0 -236 -56.5t-175.5 -151.5
t-106 -215.5t-37.5 -251.5q0 -221 120.5 -345t313.5 -124q129 0 236 56.5t175.5 150.5t106 214.5t37.5 251.5zM1362 1798l-313 -244h-199l244 244h268z" />
    <glyph glyph-name="Ocircumflex" unicode="&#xd4;" horiz-adv-x="1595" 
d="M125 602q0 169 44 314t119 247.5t174 175.5t210 108.5t225 35.5q284 0 455.5 -174t171.5 -461q0 -169 -44 -313.5t-119 -247t-174 -175.5t-209 -108t-224 -35q-284 0 -456.5 174t-172.5 459zM1319 827q0 222 -120.5 346.5t-313.5 124.5q-129 0 -236 -56.5t-175.5 -151.5
t-106 -215.5t-37.5 -251.5q0 -221 120.5 -345t313.5 -124q129 0 236 56.5t175.5 150.5t106 214.5t37.5 251.5zM768 1554h-178l276 244h246l184 -244h-170l-151 132z" />
    <glyph glyph-name="Otilde" unicode="&#xd5;" horiz-adv-x="1595" 
d="M1335 1804q-24 -139 -82.5 -198.5t-148.5 -59.5q-74 0 -143 49l-25 17q-44 28 -78 28q-64 0 -80 -90h-143q14 132 77.5 195t155.5 63q75 0 144 -49l24 -16q45 -29 78 -29q64 0 80 90h141zM125 602q0 169 44 314t119 247.5t174 175.5t210 108.5t225 35.5q284 0 455.5 -174
t171.5 -461q0 -169 -44 -313.5t-119 -247t-174 -175.5t-209 -108t-224 -35q-284 0 -456.5 174t-172.5 459zM1319 827q0 222 -120.5 346.5t-313.5 124.5q-129 0 -236 -56.5t-175.5 -151.5t-106 -215.5t-37.5 -251.5q0 -221 120.5 -345t313.5 -124q129 0 236 56.5t175.5 150.5
t106 214.5t37.5 251.5z" />
    <glyph glyph-name="Odieresis" unicode="&#xd6;" horiz-adv-x="1595" 
d="M125 602q0 169 44 314t119 247.5t174 175.5t210 108.5t225 35.5q284 0 455.5 -174t171.5 -461q0 -169 -44 -313.5t-119 -247t-174 -175.5t-209 -108t-224 -35q-284 0 -456.5 174t-172.5 459zM1319 827q0 222 -120.5 346.5t-313.5 124.5q-129 0 -236 -56.5t-175.5 -151.5
t-106 -215.5t-37.5 -251.5q0 -221 120.5 -345t313.5 -124q129 0 236 56.5t175.5 150.5t106 214.5t37.5 251.5zM606 1665q0 58 38.5 95.5t96.5 37.5q47 0 77 -30.5t30 -75.5q0 -59 -39.5 -97.5t-93.5 -38.5q-46 0 -77.5 31t-31.5 78zM1077 1665q0 58 38.5 95.5t96.5 37.5
q47 0 77 -30.5t30 -75.5q0 -59 -39.5 -97.5t-93.5 -38.5q-46 0 -77.5 31t-31.5 78z" />
    <glyph glyph-name="multiply" unicode="&#xd7;" horiz-adv-x="1218" 
d="M287 240l-115 114l346 359l-344 358l117 117l342 -357l342 357l117 -115l-347 -358l349 -361l-115 -116l-348 358z" />
    <glyph glyph-name="Oslash" unicode="&#xd8;" horiz-adv-x="1597" 
d="M127 602q0 169 44 314t119 247.5t174 175.5t210 108.5t225 35.5q254 0 422 -146l158 160l120 -117l-167 -170q94 -151 94 -362q0 -169 -44 -313.5t-119 -247t-174 -175.5t-209 -108t-224 -35q-253 0 -418 140l-150 -152l-120 117l159 159q-100 152 -100 369zM332 623
q0 -136 47 -236l799 807q-116 104 -291 104q-129 0 -236 -56.5t-175.5 -151.5t-106 -215.5t-37.5 -251.5zM1321 827q0 132 -43 230l-799 -805q110 -98 287 -98q129 0 236 56.5t175.5 150.5t106 214.5t37.5 251.5z" />
    <glyph glyph-name="Ugrave" unicode="&#xd9;" horiz-adv-x="1390" 
d="M1188 1452h203l-213 -1010q-47 -225 -192.5 -349t-358.5 -124q-219 0 -347 113.5t-128 318.5q0 81 16 152l190 899h193l-189 -924q-12 -58 -12 -108q0 -124 71.5 -194t215.5 -70q133 0 222 80t120 225zM838 1554l-220 244h242l154 -244h-176z" />
    <glyph glyph-name="Uacute" unicode="&#xda;" horiz-adv-x="1390" 
d="M1188 1452h203l-213 -1010q-47 -225 -192.5 -349t-358.5 -124q-219 0 -347 113.5t-128 318.5q0 81 16 152l190 899h193l-189 -924q-12 -58 -12 -108q0 -124 71.5 -194t215.5 -70q133 0 222 80t120 225zM1241 1798l-313 -244h-199l244 244h268z" />
    <glyph glyph-name="Ucircumflex" unicode="&#xdb;" horiz-adv-x="1390" 
d="M1188 1452h203l-213 -1010q-47 -225 -192.5 -349t-358.5 -124q-219 0 -347 113.5t-128 318.5q0 81 16 152l190 899h193l-189 -924q-12 -58 -12 -108q0 -124 71.5 -194t215.5 -70q133 0 222 80t120 225zM711 1554h-179l277 244h246l184 -244h-170l-151 132z" />
    <glyph glyph-name="Udieresis" unicode="&#xdc;" horiz-adv-x="1390" 
d="M1188 1452h203l-213 -1010q-47 -225 -192.5 -349t-358.5 -124q-219 0 -347 113.5t-128 318.5q0 81 16 152l190 899h193l-189 -924q-12 -58 -12 -108q0 -124 71.5 -194t215.5 -70q133 0 222 80t120 225zM543 1665q0 58 38.5 95.5t96.5 37.5q47 0 76.5 -30.5t29.5 -75.5
q0 -59 -39.5 -97.5t-93.5 -38.5q-46 0 -77 31t-31 78zM1014 1665q0 58 38.5 95.5t96.5 37.5q47 0 76.5 -30.5t29.5 -75.5q0 -59 -39.5 -97.5t-93.5 -38.5q-46 0 -77 31t-31 78z" />
    <glyph glyph-name="Yacute" unicode="&#xdd;" horiz-adv-x="1263" 
d="M543 625l-332 827h211l252 -637l467 637h239l-641 -840l-127 -612h-200zM1176 1798l-314 -244h-198l243 244h269z" />
    <glyph glyph-name="Thorn" unicode="&#xde;" horiz-adv-x="1222" 
d="M754 989h-275l-106 -493h284q146 0 239 77.5t93 212.5q0 93 -61.5 148t-173.5 55zM268 0h-200l307 1452h200l-61 -285h272q186 0 296 -103.5t110 -264.5q0 -144 -72 -255t-193 -169t-270 -58h-321z" />
    <glyph glyph-name="germandbls" unicode="&#xdf;" horiz-adv-x="1163" 
d="M754 674q0 -12 4 -23t13 -21.5t15 -16.5t19.5 -17t17.5 -14l56 -45q143 -118 143 -258q0 -53 -20.5 -106t-60 -99.5t-107.5 -75.5t-154 -29q-131 0 -222 75.5t-91 199.5q0 35 4 53l178 27q-6 -21 -6 -43q0 -27 7 -52t22 -48.5t45 -37.5t71 -14q71 0 106 40t35 85
q0 29 -11 52.5t-24 37.5t-42 39l-52 43q-143 121 -143 244q0 155 160 239l71 37q74 38 115 83t41 112q0 68 -58 120t-159 52q-47 0 -89.5 -15t-82 -47.5t-70.5 -89.5t-47 -135l-217 -1026h-192l221 1057q44 213 177 319.5t312 106.5q186 0 293 -97t107 -235q0 -72 -22 -131
t-61.5 -99.5t-77.5 -66.5t-87 -49l-64 -31q-35 -17 -54 -39.5t-19 -60.5z" />
    <glyph glyph-name="agrave" unicode="&#xe0;" horiz-adv-x="1181" 
d="M582 1112l-193 299h229l115 -299h-151zM590 848q-102 0 -179.5 -68t-114 -165t-36.5 -201q0 -122 59.5 -195.5t174.5 -73.5q140 0 232.5 128.5t92.5 320.5q0 113 -57.5 183.5t-171.5 70.5zM913 985h191l-154 -729q-22 -98 -22 -223q0 -7 0.5 -15t1.5 -13v-5h-182v2
q-1 3 -1.5 7.5t-1.5 11t-1.5 16t-0.5 20.5q0 41 2 68q-54 -66 -129 -105.5t-161 -39.5q-185 0 -287 121.5t-102 310.5q0 160 64 297t183 221t267 84q116 0 193.5 -44t113.5 -110z" />
    <glyph glyph-name="aacute" unicode="&#xe1;" horiz-adv-x="1181" 
d="M1044 1411l-317 -299h-172l236 299h253zM590 848q-102 0 -179.5 -68t-114 -165t-36.5 -201q0 -122 59.5 -195.5t174.5 -73.5q140 0 232.5 128.5t92.5 320.5q0 113 -57.5 183.5t-171.5 70.5zM913 985h191l-154 -729q-22 -98 -22 -223q0 -7 0.5 -15t1.5 -13v-5h-182v2
q-1 3 -1.5 7.5t-1.5 11t-1.5 16t-0.5 20.5q0 41 2 68q-54 -66 -129 -105.5t-161 -39.5q-185 0 -287 121.5t-102 310.5q0 160 64 297t183 221t267 84q116 0 193.5 -44t113.5 -110z" />
    <glyph glyph-name="acircumflex" unicode="&#xe2;" horiz-adv-x="1181" 
d="M498 1116h-185l269 285h231l145 -285h-174l-106 166zM590 848q-102 0 -179.5 -68t-114 -165t-36.5 -201q0 -122 59.5 -195.5t174.5 -73.5q140 0 232.5 128.5t92.5 320.5q0 113 -57.5 183.5t-171.5 70.5zM913 985h191l-154 -729q-22 -98 -22 -223q0 -7 0.5 -15t1.5 -13v-5
h-182v2q-1 3 -1.5 7.5t-1.5 11t-1.5 16t-0.5 20.5q0 41 2 68q-54 -66 -129 -105.5t-161 -39.5q-185 0 -287 121.5t-102 310.5q0 160 64 297t183 221t267 84q116 0 193.5 -44t113.5 -110z" />
    <glyph glyph-name="atilde" unicode="&#xe3;" horiz-adv-x="1181" 
d="M487 1135h-143q14 132 78 195t156 63q69 0 139 -50l24 -16q45 -29 74 -29q63 0 80 91h141q-24 -139 -82.5 -199t-148.5 -60q-69 0 -139 50l-25 16q-45 29 -74 29q-64 0 -80 -90zM590 848q-102 0 -179.5 -68t-114 -165t-36.5 -201q0 -122 59.5 -195.5t174.5 -73.5
q140 0 232.5 128.5t92.5 320.5q0 113 -57.5 183.5t-171.5 70.5zM913 985h191l-154 -729q-22 -98 -22 -223q0 -7 0.5 -15t1.5 -13v-5h-182v2q-1 3 -1.5 7.5t-1.5 11t-1.5 16t-0.5 20.5q0 41 2 68q-54 -66 -129 -105.5t-161 -39.5q-185 0 -287 121.5t-102 310.5q0 160 64 297
t183 221t267 84q116 0 193.5 -44t113.5 -110z" />
    <glyph glyph-name="adieresis" unicode="&#xe4;" horiz-adv-x="1181" 
d="M365 1257q0 54 38.5 94t92.5 40q48 0 78 -32.5t30 -76.5q0 -55 -41 -92t-94 -37q-44 0 -74 30.5t-30 73.5zM764 1257q0 54 38.5 94t92.5 40q48 0 78.5 -32.5t30.5 -76.5q0 -55 -41.5 -92t-94.5 -37q-44 0 -74 30.5t-30 73.5zM590 848q-102 0 -179.5 -68t-114 -165
t-36.5 -201q0 -122 59.5 -195.5t174.5 -73.5q140 0 232.5 128.5t92.5 320.5q0 113 -57.5 183.5t-171.5 70.5zM913 985h191l-154 -729q-22 -98 -22 -223q0 -7 0.5 -15t1.5 -13v-5h-182v2q-1 3 -1.5 7.5t-1.5 11t-1.5 16t-0.5 20.5q0 41 2 68q-54 -66 -129 -105.5t-161 -39.5
q-185 0 -287 121.5t-102 310.5q0 160 64 297t183 221t267 84q116 0 193.5 -44t113.5 -110z" />
    <glyph glyph-name="aring" unicode="&#xe5;" horiz-adv-x="1181" 
d="M702 1536q89 0 150 -60t61 -145q0 -95 -73.5 -169.5t-171.5 -74.5q-90 0 -152.5 58.5t-62.5 142.5q0 106 75.5 177t173.5 71zM584 1305q0 -40 24 -63t64 -23q44 0 75 28.5t31 73.5q0 37 -25.5 61.5t-64.5 24.5q-40 0 -72 -29t-32 -73zM590 848q-102 0 -179.5 -68
t-114 -165t-36.5 -201q0 -122 59.5 -195.5t174.5 -73.5q140 0 232.5 128.5t92.5 320.5q0 113 -57.5 183.5t-171.5 70.5zM913 985h191l-154 -729q-22 -98 -22 -223q0 -7 0.5 -15t1.5 -13v-5h-182v2q-1 3 -1.5 7.5t-1.5 11t-1.5 16t-0.5 20.5q0 41 2 68q-54 -66 -129 -105.5
t-161 -39.5q-185 0 -287 121.5t-102 310.5q0 160 64 297t183 221t267 84q116 0 193.5 -44t113.5 -110z" />
    <glyph glyph-name="ae" unicode="&#xe6;" horiz-adv-x="1753" 
d="M379 571l287 9q44 2 70 29t26 75q0 70 -57 120t-166 50q-89 0 -156 -47.5t-90 -124.5l-166 53q40 130 161.5 205.5t272.5 75.5q115 0 199 -41.5t129 -110.5q73 73 167 112.5t195 39.5q195 0 301.5 -109t106.5 -289q0 -84 -29 -180h-725q-2 -14 -2 -35q0 -119 72 -191.5
t178 -72.5t179 47t112 117l145 -94q-56 -103 -171 -171.5t-261 -68.5q-129 0 -230.5 56t-154.5 161q-147 -217 -399 -217q-163 0 -258 80t-95 205q0 138 103.5 225t255.5 92zM219 264q0 -63 49 -99t121 -36q50 0 99 17t96.5 51.5t82.5 97t48 145.5l-324 -12
q-72 -3 -122 -44.5t-50 -119.5zM1241 846q-117 0 -198.5 -73.5t-110.5 -178.5h524q4 16 4 41q0 39 -11.5 74.5t-36 67t-68.5 50.5t-103 19z" />
    <glyph glyph-name="ccedilla" unicode="&#xe7;" horiz-adv-x="1093" 
d="M1016 705l-178 -62q-21 87 -82 144t-162 57q-64 0 -123 -26.5t-106 -77t-75 -132t-28 -182.5q0 -130 73 -207.5t195 -77.5q182 0 275 187l164 -72q-63 -119 -166 -198t-250 -87l-92 -77q66 -9 102.5 -50t36.5 -98q0 -80 -66 -134t-169 -54q-96 0 -163 46.5t-91 98.5
l106 66q6 -14 15 -28t26 -31.5t44 -28.5t60 -11q39 0 67 18.5t28 53.5q0 30 -25.5 49t-62.5 19q-14 0 -29 -3l-45 87l102 90q-154 36 -241.5 155t-87.5 285q0 258 156 425t382 167q77 0 142 -19.5t108.5 -50t77 -72.5t52.5 -83t30 -86z" />
    <glyph glyph-name="egrave" unicode="&#xe8;" horiz-adv-x="1110" 
d="M623 1112l-193 299h229l115 -299h-151zM289 594h524q4 16 4 41q0 39 -11.5 74.5t-36 67t-68.5 50.5t-103 19q-117 0 -198.5 -73.5t-110.5 -178.5zM987 438h-725q-2 -14 -2 -35q0 -119 72 -191.5t178 -72.5t179 47t112 117l145 -94q-56 -103 -171 -171.5t-261 -68.5
q-124 0 -223.5 49.5t-161 153t-61.5 246.5q0 109 29.5 205t81.5 167t120.5 122.5t147.5 77.5t161 26q195 0 301.5 -109t106.5 -289q0 -84 -29 -180z" />
    <glyph glyph-name="eacute" unicode="&#xe9;" horiz-adv-x="1110" 
d="M1008 1411l-318 -299h-172l236 299h254zM289 594h524q4 16 4 41q0 39 -11.5 74.5t-36 67t-68.5 50.5t-103 19q-117 0 -198.5 -73.5t-110.5 -178.5zM987 438h-725q-2 -14 -2 -35q0 -119 72 -191.5t178 -72.5t179 47t112 117l145 -94q-56 -103 -171 -171.5t-261 -68.5
q-124 0 -223.5 49.5t-161 153t-61.5 246.5q0 109 29.5 205t81.5 167t120.5 122.5t147.5 77.5t161 26q195 0 301.5 -109t106.5 -289q0 -84 -29 -180z" />
    <glyph glyph-name="ecircumflex" unicode="&#xea;" horiz-adv-x="1110" 
d="M518 1116h-184l268 285h232l145 -285h-174l-107 166zM289 594h524q4 16 4 41q0 39 -11.5 74.5t-36 67t-68.5 50.5t-103 19q-117 0 -198.5 -73.5t-110.5 -178.5zM987 438h-725q-2 -14 -2 -35q0 -119 72 -191.5t178 -72.5t179 47t112 117l145 -94q-56 -103 -171 -171.5
t-261 -68.5q-124 0 -223.5 49.5t-161 153t-61.5 246.5q0 109 29.5 205t81.5 167t120.5 122.5t147.5 77.5t161 26q195 0 301.5 -109t106.5 -289q0 -84 -29 -180z" />
    <glyph glyph-name="edieresis" unicode="&#xeb;" horiz-adv-x="1110" 
d="M358 1257q0 54 38.5 94t92.5 40q48 0 78.5 -32.5t30.5 -76.5q0 -55 -41 -92t-94 -37q-44 0 -74.5 30.5t-30.5 73.5zM758 1257q0 54 38.5 94t92.5 40q48 0 78 -32.5t30 -76.5q0 -55 -41 -92t-94 -37q-44 0 -74 30.5t-30 73.5zM289 594h524q4 16 4 41q0 39 -11.5 74.5
t-36 67t-68.5 50.5t-103 19q-117 0 -198.5 -73.5t-110.5 -178.5zM987 438h-725q-2 -14 -2 -35q0 -119 72 -191.5t178 -72.5t179 47t112 117l145 -94q-56 -103 -171 -171.5t-261 -68.5q-124 0 -223.5 49.5t-161 153t-61.5 246.5q0 109 29.5 205t81.5 167t120.5 122.5
t147.5 77.5t161 26q195 0 301.5 -109t106.5 -289q0 -84 -29 -180z" />
    <glyph glyph-name="igrave" unicode="&#xec;" horiz-adv-x="501" 
d="M219 0h-192l211 985h192zM283 1112l-193 299h229l115 -299h-151z" />
    <glyph glyph-name="iacute" unicode="&#xed;" horiz-adv-x="501" 
d="M729 1411l-317 -299h-172l235 299h254zM219 0h-192l211 985h192z" />
    <glyph glyph-name="icircumflex" unicode="&#xee;" horiz-adv-x="501" 
d="M219 0h-192l211 985h192zM217 1116h-184l268 285h231l146 -285h-174l-107 166z" />
    <glyph glyph-name="idieresis" unicode="&#xef;" horiz-adv-x="501" 
d="M219 0h-192l211 985h192z" />
    <glyph glyph-name="eth" unicode="&#xf0;" horiz-adv-x="1150" 
d="M1124 1253l-209 -77q134 -204 134 -478q0 -206 -64.5 -371t-191 -262.5t-295.5 -97.5q-135 0 -236 60t-151 159t-50 222q0 143 61.5 267.5t179.5 203.5t267 79q101 0 181 -39t118 -102q-26 167 -120 295l-252 -92l-52 133l197 74q-87 76 -207 119l78 147
q171 -58 307 -199l250 95zM840 526q0 124 -75.5 195.5t-189.5 71.5q-130 0 -225.5 -102t-95.5 -283q0 -111 68 -191t184 -80q60 0 117.5 24.5t107 71t79.5 123t30 170.5z" />
    <glyph glyph-name="ntilde" unicode="&#xf1;" horiz-adv-x="1126" 
d="M485 1135h-143q14 132 77.5 195t155.5 63q70 0 140 -50l24 -16q45 -29 74 -29q63 0 80 91h141q-24 -139 -82.5 -199t-148.5 -60q-69 0 -139 50l-25 16q-45 29 -74 29q-64 0 -80 -90zM856 0h-192l127 596q8 36 8 76q0 83 -46.5 127.5t-134.5 44.5q-74 0 -133 -41t-92 -100
t-49 -130l-123 -573h-192l172 811q24 115 24 174h189q0 -28 -13 -108q102 137 306 137q130 0 211 -80.5t81 -214.5q0 -39 -10 -94z" />
    <glyph glyph-name="ograve" unicode="&#xf2;" horiz-adv-x="1153" 
d="M600 1112l-192 299h229l115 -299h-152zM594 844q-64 0 -122.5 -28t-105 -79t-74.5 -131.5t-28 -177.5q0 -131 68 -209t182 -78q135 0 233.5 113t98.5 305q0 129 -67.5 207t-184.5 78zM1042 563q0 -164 -69.5 -300t-192.5 -215t-274 -79q-135 0 -236 62.5t-151.5 164.5
t-50.5 228q0 253 154 422.5t384 169.5q138 0 238.5 -62t149 -163.5t48.5 -227.5z" />
    <glyph glyph-name="oacute" unicode="&#xf3;" horiz-adv-x="1153" 
d="M1044 1411l-317 -299h-172l236 299h253zM594 844q-64 0 -122.5 -28t-105 -79t-74.5 -131.5t-28 -177.5q0 -131 68 -209t182 -78q135 0 233.5 113t98.5 305q0 129 -67.5 207t-184.5 78zM1042 563q0 -164 -69.5 -300t-192.5 -215t-274 -79q-135 0 -236 62.5t-151.5 164.5
t-50.5 228q0 253 154 422.5t384 169.5q138 0 238.5 -62t149 -163.5t48.5 -227.5z" />
    <glyph glyph-name="ocircumflex" unicode="&#xf4;" horiz-adv-x="1153" 
d="M528 1116h-184l268 285h232l145 -285h-174l-106 166zM594 844q-64 0 -122.5 -28t-105 -79t-74.5 -131.5t-28 -177.5q0 -131 68 -209t182 -78q135 0 233.5 113t98.5 305q0 129 -67.5 207t-184.5 78zM1042 563q0 -164 -69.5 -300t-192.5 -215t-274 -79q-135 0 -236 62.5
t-151.5 164.5t-50.5 228q0 253 154 422.5t384 169.5q138 0 238.5 -62t149 -163.5t48.5 -227.5z" />
    <glyph glyph-name="otilde" unicode="&#xf5;" horiz-adv-x="1153" 
d="M459 1135h-144q14 132 78 195t156 63q69 0 139 -50l25 -16q1 -1 8.5 -6t9 -5.5t8 -4.5t9 -4.5t8 -3t9.5 -3t9.5 -1.5t11.5 -1q63 0 80 91h142q-24 -139 -83 -199t-149 -60q-69 0 -139 50l-25 16q-1 1 -8.5 6t-9 5.5t-8 4.5t-9 4.5t-8 3t-9.5 3t-9.5 1.5t-11.5 1
q-64 0 -80 -90zM594 844q-64 0 -122.5 -28t-105 -79t-74.5 -131.5t-28 -177.5q0 -131 68 -209t182 -78q135 0 233.5 113t98.5 305q0 129 -67.5 207t-184.5 78zM1042 563q0 -164 -69.5 -300t-192.5 -215t-274 -79q-135 0 -236 62.5t-151.5 164.5t-50.5 228q0 253 154 422.5
t384 169.5q138 0 238.5 -62t149 -163.5t48.5 -227.5z" />
    <glyph glyph-name="odieresis" unicode="&#xf6;" horiz-adv-x="1153" 
d="M377 1257q0 54 38.5 94t92.5 40q48 0 78 -32.5t30 -76.5q0 -55 -41 -92t-94 -37q-44 0 -74 30.5t-30 73.5zM776 1257q0 54 38.5 94t92.5 40q48 0 78.5 -32.5t30.5 -76.5q0 -55 -41 -92t-94 -37q-44 0 -74.5 30.5t-30.5 73.5zM594 844q-64 0 -122.5 -28t-105 -79
t-74.5 -131.5t-28 -177.5q0 -131 68 -209t182 -78q135 0 233.5 113t98.5 305q0 129 -67.5 207t-184.5 78zM1042 563q0 -164 -69.5 -300t-192.5 -215t-274 -79q-135 0 -236 62.5t-151.5 164.5t-50.5 228q0 253 154 422.5t384 169.5q138 0 238.5 -62t149 -163.5t48.5 -227.5z
" />
    <glyph glyph-name="divide" unicode="&#xf7;" horiz-adv-x="1177" 
d="M479 1077q0 54 39.5 92.5t93.5 38.5t92.5 -38.5t38.5 -92.5t-38.5 -93.5t-92.5 -39.5t-93.5 39.5t-39.5 93.5zM479 350q0 54 39.5 92.5t93.5 38.5t92.5 -38.5t38.5 -92.5t-38.5 -93.5t-92.5 -39.5t-93.5 39.5t-39.5 93.5zM145 629v170h936v-170h-936z" />
    <glyph glyph-name="oslash" unicode="&#xf8;" horiz-adv-x="1155" 
d="M88 -57l-106 110l141 135q-55 104 -55 236q0 253 154 422.5t384 169.5q168 0 283 -94l125 120l106 -110l-135 -129q57 -102 57 -240q0 -164 -69.5 -300t-192.5 -215t-274 -79q-170 0 -287 99zM846 559q0 51 -12 98l-480 -460q66 -56 160 -56q135 0 233.5 113t98.5 305z
M594 844q-64 0 -122.5 -28t-105 -79t-74.5 -131.5t-28 -177.5q0 -58 10 -94l478 457q-62 53 -158 53z" />
    <glyph glyph-name="ugrave" unicode="&#xf9;" horiz-adv-x="1112" 
d="M1036 985l-153 -729q-27 -120 -27 -223q0 -8 0.5 -14.5t0.5 -10t1 -6.5v-2h-184v2q-1 3 -1.5 7.5t-1 11t-1 16t-0.5 20.5q0 38 2 58q-47 -66 -119 -100.5t-145 -34.5q-149 0 -233.5 87t-84.5 230q0 55 12 113l123 575h193l-121 -571q-10 -55 -10 -92q0 -81 41.5 -130
t132.5 -49q104 0 172 76.5t92 190.5l121 575h190zM582 1112l-193 299h229l115 -299h-151z" />
    <glyph glyph-name="uacute" unicode="&#xfa;" horiz-adv-x="1112" 
d="M1036 985l-153 -729q-27 -120 -27 -223q0 -8 0.5 -14.5t0.5 -10t1 -6.5v-2h-184v2q-1 3 -1.5 7.5t-1 11t-1 16t-0.5 20.5q0 38 2 58q-47 -66 -119 -100.5t-145 -34.5q-149 0 -233.5 87t-84.5 230q0 55 12 113l123 575h193l-121 -571q-10 -55 -10 -92q0 -81 41.5 -130
t132.5 -49q104 0 172 76.5t92 190.5l121 575h190zM1022 1411l-317 -299h-173l236 299h254z" />
    <glyph glyph-name="ucircumflex" unicode="&#xfb;" horiz-adv-x="1112" 
d="M1036 985l-153 -729q-27 -120 -27 -223q0 -8 0.5 -14.5t0.5 -10t1 -6.5v-2h-184v2q-1 3 -1.5 7.5t-1 11t-1 16t-0.5 20.5q0 38 2 58q-47 -66 -119 -100.5t-145 -34.5q-149 0 -233.5 87t-84.5 230q0 55 12 113l123 575h193l-121 -571q-10 -55 -10 -92q0 -81 41.5 -130
t132.5 -49q104 0 172 76.5t92 190.5l121 575h190zM506 1116h-184l268 285h231l146 -285h-174l-107 166z" />
    <glyph glyph-name="udieresis" unicode="&#xfc;" horiz-adv-x="1112" 
d="M1036 985l-153 -729q-27 -120 -27 -223q0 -8 0.5 -14.5t0.5 -10t1 -6.5v-2h-184v2q-1 3 -1.5 7.5t-1 11t-1 16t-0.5 20.5q0 38 2 58q-47 -66 -119 -100.5t-145 -34.5q-149 0 -233.5 87t-84.5 230q0 55 12 113l123 575h193l-121 -571q-10 -55 -10 -92q0 -81 41.5 -130
t132.5 -49q104 0 172 76.5t92 190.5l121 575h190zM365 1257q0 54 38.5 94t92.5 40q48 0 78 -32.5t30 -76.5q0 -55 -41 -92t-94 -37q-44 0 -74 30.5t-30 73.5zM764 1257q0 54 38.5 94t92.5 40q48 0 78.5 -32.5t30.5 -76.5q0 -55 -41.5 -92t-94.5 -37q-44 0 -74 30.5t-30 73.5
z" />
    <glyph glyph-name="yacute" unicode="&#xfd;" horiz-adv-x="1028" 
d="M864 1411l-317 -299h-172l235 299h254zM168 -389h-221l370 559l-241 815h209l174 -618l385 618h227z" />
    <glyph glyph-name="thorn" unicode="&#xfe;" horiz-adv-x="1202" 
d="M-55 -389l397 1872h193l-127 -602q56 63 137 97t170 34q93 0 166 -33t118 -91t68 -133.5t23 -164.5q0 -177 -64.5 -317.5t-183 -220t-269.5 -79.5q-103 0 -192 47.5t-131 129.5l-115 -539h-190zM643 838q-134 0 -231 -113t-97 -305q0 -130 65.5 -202.5t180.5 -72.5
q135 0 233.5 116t98.5 312q0 127 -66 196t-184 69z" />
    <glyph glyph-name="ydieresis" unicode="&#xff;" horiz-adv-x="1028" 
d="M281 1257q0 54 38.5 94t92.5 40q48 0 78 -32.5t30 -76.5q0 -55 -41 -92t-94 -37q-44 0 -74 30.5t-30 73.5zM680 1257q0 54 38.5 94t92.5 40q48 0 78.5 -32.5t30.5 -76.5q0 -55 -41.5 -92t-94.5 -37q-44 0 -74 30.5t-30 73.5zM168 -389h-221l370 559l-241 815h209
l174 -618l385 618h227z" />
    <glyph glyph-name="Amacron" unicode="&#x100;" horiz-adv-x="1406" 
d="M1044 0l-65 406h-608l-236 -406h-227l866 1452h221l252 -1452h-203zM846 1223l-367 -631h469zM1198 1595h-600l37 170h600z" />
    <glyph glyph-name="amacron" unicode="&#x101;" horiz-adv-x="1181" 
d="M969 1182h-559l34 166h560zM590 848q-102 0 -179.5 -68t-114 -165t-36.5 -201q0 -122 59.5 -195.5t174.5 -73.5q140 0 232.5 128.5t92.5 320.5q0 113 -57.5 183.5t-171.5 70.5zM913 985h191l-154 -729q-22 -98 -22 -223q0 -7 0.5 -15t1.5 -13v-5h-182v2q-1 3 -1.5 7.5
t-1.5 11t-1.5 16t-0.5 20.5q0 41 2 68q-54 -66 -129 -105.5t-161 -39.5q-185 0 -287 121.5t-102 310.5q0 160 64 297t183 221t267 84q116 0 193.5 -44t113.5 -110z" />
    <glyph glyph-name="Abreve" unicode="&#x102;" horiz-adv-x="1406" 
d="M1044 0l-65 406h-608l-236 -406h-227l866 1452h221l252 -1452h-203zM846 1223l-367 -631h469zM913 1546q-133 0 -208.5 66t-75.5 166q0 20 2 32h162q-2 -12 -2 -16q0 -39 32.5 -66.5t102.5 -27.5q80 0 124.5 33t55.5 77h162q-33 -110 -124 -187t-231 -77z" />
    <glyph glyph-name="abreve" unicode="&#x103;" horiz-adv-x="1181" 
d="M676 1114q-117 0 -183.5 70t-66.5 170q0 28 6 55h141q-2 -12 -2 -16q0 -47 29.5 -81t93.5 -34q71 0 116.5 40t61.5 91h158q-13 -57 -40.5 -107.5t-70 -93.5t-105.5 -68.5t-138 -25.5zM590 848q-102 0 -179.5 -68t-114 -165t-36.5 -201q0 -122 59.5 -195.5t174.5 -73.5
q140 0 232.5 128.5t92.5 320.5q0 113 -57.5 183.5t-171.5 70.5zM913 985h191l-154 -729q-22 -98 -22 -223q0 -7 0.5 -15t1.5 -13v-5h-182v2q-1 3 -1.5 7.5t-1.5 11t-1.5 16t-0.5 20.5q0 41 2 68q-54 -66 -129 -105.5t-161 -39.5q-185 0 -287 121.5t-102 310.5q0 160 64 297
t183 221t267 84q116 0 193.5 -44t113.5 -110z" />
    <glyph glyph-name="Aogonek" unicode="&#x104;" horiz-adv-x="1406" 
d="M1044 0l-65 406h-608l-236 -406h-227l866 1452h221l252 -1452q-221 -96 -221 -223q0 -38 25.5 -58t64.5 -20q38 0 68 6l-29 -131q-46 -16 -104 -16q-86 0 -138.5 47t-52.5 125q0 169 189 270h-5zM846 1223l-367 -631h469z" />
    <glyph glyph-name="aogonek" unicode="&#x105;" horiz-adv-x="1181" 
d="M913 985h191l-154 -729q-22 -98 -22 -223q0 -7 0.5 -15t1.5 -13v-5q-221 -96 -221 -223q0 -38 25.5 -58t64.5 -20q37 0 67 6l-28 -131q-46 -16 -105 -16q-86 0 -138 47t-52 125q0 177 202 276q-2 8 -2 51q0 41 2 68q-54 -66 -129 -105.5t-161 -39.5q-185 0 -287 121.5
t-102 310.5q0 160 64 297t183 221t267 84q116 0 193.5 -44t113.5 -110zM590 848q-102 0 -179.5 -68t-114 -165t-36.5 -201q0 -122 59.5 -195.5t174.5 -73.5q140 0 232.5 128.5t92.5 320.5q0 113 -57.5 183.5t-171.5 70.5z" />
    <glyph glyph-name="Cacute" unicode="&#x106;" horiz-adv-x="1497" 
d="M909 1483q126 0 230 -36t175.5 -99.5t117 -145.5t65.5 -180l-190 -55q-31 146 -139 238.5t-279 92.5q-104 0 -194.5 -36.5t-156 -99.5t-112.5 -148t-70.5 -183t-23.5 -202q0 -222 114.5 -349.5t313.5 -127.5q155 0 275.5 83t191.5 244l176 -71q-91 -207 -261.5 -323
t-400.5 -116q-269 0 -441.5 181t-172.5 466q0 165 44.5 307.5t120 243.5t175.5 173.5t212.5 107.5t229.5 35zM1378 1798l-313 -244h-199l244 244h268z" />
    <glyph glyph-name="cacute" unicode="&#x107;" horiz-adv-x="1093" 
d="M1001 1411l-317 -299h-172l236 299h253zM1016 705l-178 -62q-21 87 -82 144t-162 57q-64 0 -123 -26.5t-106 -77t-75 -132t-28 -182.5q0 -130 73 -207.5t195 -77.5q182 0 275 187l164 -72q-65 -125 -176.5 -206t-270.5 -81q-208 0 -331 128.5t-123 326.5q0 258 156 425
t382 167q77 0 142 -19.5t108.5 -50t77 -72.5t52.5 -83t30 -86z" />
    <glyph glyph-name="Ccircumflex" unicode="&#x108;" horiz-adv-x="1497" 
d="M909 1483q126 0 230 -36t175.5 -99.5t117 -145.5t65.5 -180l-190 -55q-31 146 -139 238.5t-279 92.5q-104 0 -194.5 -36.5t-156 -99.5t-112.5 -148t-70.5 -183t-23.5 -202q0 -222 114.5 -349.5t313.5 -127.5q155 0 275.5 83t191.5 244l176 -71q-91 -207 -261.5 -323
t-400.5 -116q-269 0 -441.5 181t-172.5 466q0 165 44.5 307.5t120 243.5t175.5 173.5t212.5 107.5t229.5 35zM786 1554h-178l277 244h245l185 -244h-170l-152 132z" />
    <glyph glyph-name="ccircumflex" unicode="&#x109;" horiz-adv-x="1093" 
d="M481 1116h-184l268 285h232l145 -285h-174l-106 166zM1016 705l-178 -62q-21 87 -82 144t-162 57q-64 0 -123 -26.5t-106 -77t-75 -132t-28 -182.5q0 -130 73 -207.5t195 -77.5q182 0 275 187l164 -72q-65 -125 -176.5 -206t-270.5 -81q-208 0 -331 128.5t-123 326.5
q0 258 156 425t382 167q77 0 142 -19.5t108.5 -50t77 -72.5t52.5 -83t30 -86z" />
    <glyph glyph-name="Cdotaccent" unicode="&#x10a;" horiz-adv-x="1497" 
d="M909 1483q126 0 230 -36t175.5 -99.5t117 -145.5t65.5 -180l-190 -55q-31 146 -139 238.5t-279 92.5q-104 0 -194.5 -36.5t-156 -99.5t-112.5 -148t-70.5 -183t-23.5 -202q0 -222 114.5 -349.5t313.5 -127.5q155 0 275.5 83t191.5 244l176 -71q-91 -207 -261.5 -323
t-400.5 -116q-269 0 -441.5 181t-172.5 466q0 165 44.5 307.5t120 243.5t175.5 173.5t212.5 107.5t229.5 35zM842 1667q0 59 42 101t101 42q53 0 87 -34t34 -82q0 -60 -43 -104t-102 -44q-53 0 -86 34.5t-33 86.5z" />
    <glyph glyph-name="cdotaccent" unicode="&#x10b;" horiz-adv-x="1093" 
d="M528 1245q0 57 43 102.5t103 45.5q51 0 85 -34.5t34 -82.5q0 -60 -43.5 -104t-102.5 -44q-52 0 -85.5 33.5t-33.5 83.5zM1016 705l-178 -62q-21 87 -82 144t-162 57q-64 0 -123 -26.5t-106 -77t-75 -132t-28 -182.5q0 -130 73 -207.5t195 -77.5q182 0 275 187l164 -72
q-65 -125 -176.5 -206t-270.5 -81q-208 0 -331 128.5t-123 326.5q0 258 156 425t382 167q77 0 142 -19.5t108.5 -50t77 -72.5t52.5 -83t30 -86z" />
    <glyph glyph-name="Ccaron" unicode="&#x10c;" horiz-adv-x="1497" 
d="M909 1483q126 0 230 -36t175.5 -99.5t117 -145.5t65.5 -180l-190 -55q-31 146 -139 238.5t-279 92.5q-104 0 -194.5 -36.5t-156 -99.5t-112.5 -148t-70.5 -183t-23.5 -202q0 -222 114.5 -349.5t313.5 -127.5q155 0 275.5 83t191.5 244l176 -71q-91 -207 -261.5 -323
t-400.5 -116q-269 0 -441.5 181t-172.5 466q0 165 44.5 307.5t120 243.5t175.5 173.5t212.5 107.5t229.5 35zM1163 1798h191l-287 -244h-246l-174 244h168l141 -131z" />
    <glyph glyph-name="ccaron" unicode="&#x10d;" horiz-adv-x="1093" 
d="M870 1407h187l-266 -291h-236l-143 291h172l106 -166zM1016 705l-178 -62q-21 87 -82 144t-162 57q-64 0 -123 -26.5t-106 -77t-75 -132t-28 -182.5q0 -130 73 -207.5t195 -77.5q182 0 275 187l164 -72q-65 -125 -176.5 -206t-270.5 -81q-208 0 -331 128.5t-123 326.5
q0 258 156 425t382 167q77 0 142 -19.5t108.5 -50t77 -72.5t52.5 -83t30 -86z" />
    <glyph glyph-name="Dcaron" unicode="&#x10e;" horiz-adv-x="1445" 
d="M1079 1798h191l-287 -244h-246l-174 244h168l141 -131zM305 178h297q104 0 205 44.5t184.5 127t135 215.5t51.5 295q0 199 -121.5 306.5t-323.5 107.5h-194zM602 0h-534l307 1452h395q278 0 443 -158t165 -422q0 -166 -43.5 -308.5t-118.5 -244.5t-174.5 -175
t-211 -108.5t-228.5 -35.5z" />
    <glyph glyph-name="dcaron" unicode="&#x10f;" horiz-adv-x="1179" 
d="M1595 1483l-209 -367h-147l135 367h221zM1208 1483l-258 -1227q-26 -115 -26 -223q0 -8 0.5 -14.5t0.5 -10t1 -6.5v-2h-181l-1 2q0 3 -0.5 7.5t-1 11t-1 16t-0.5 20.5q0 14 4 68q-54 -66 -129 -105.5t-161 -39.5q-185 0 -287 121.5t-102 310.5q0 160 64 297t183 221
t267 84q116 0 193.5 -44t113.5 -110l131 623h190zM590 848q-102 0 -179.5 -68t-114 -165t-36.5 -201q0 -122 59.5 -195.5t174.5 -73.5q140 0 232.5 128.5t92.5 320.5q0 113 -57.5 183.5t-171.5 70.5z" />
    <glyph glyph-name="Dcroat" unicode="&#x110;" horiz-adv-x="1449" 
d="M72 655l34 168h140l133 629h395q278 0 443 -158t165 -422q0 -166 -43.5 -308.5t-118.5 -244.5t-174.5 -175t-211 -108.5t-228.5 -35.5h-534l137 655h-137zM309 178h297q104 0 205 44.5t184.5 127t135 215.5t51.5 295q0 199 -121.5 306.5t-323.5 107.5h-194l-97 -451h308
l-35 -168h-309z" />
    <glyph glyph-name="dcroat" unicode="&#x111;" horiz-adv-x="1179" 
d="M1208 1483l-41 -191h142l-33 -155h-141l-185 -881q-26 -115 -26 -223q0 -8 0.5 -14.5t0.5 -10t1 -6.5v-2h-181l-1 2q0 3 -0.5 7.5t-1 11t-1 16t-0.5 20.5q0 14 4 68q-54 -66 -129 -105.5t-161 -39.5q-185 0 -287 121.5t-102 310.5q0 160 64 297t183 221t267 84
q116 0 193.5 -44t113.5 -110l57 277h-285l33 155h285l41 191h190zM590 848q-102 0 -179.5 -68t-114 -165t-36.5 -201q0 -122 59.5 -195.5t174.5 -73.5q140 0 232.5 128.5t92.5 320.5q0 113 -57.5 183.5t-171.5 70.5z" />
    <glyph glyph-name="Emacron" unicode="&#x112;" horiz-adv-x="1177" 
d="M940 0h-872l307 1452h872l-39 -186h-671l-95 -447h609l-41 -188h-609l-94 -445h672zM1133 1595h-601l37 170h600z" />
    <glyph glyph-name="emacron" unicode="&#x113;" horiz-adv-x="1110" 
d="M950 1182h-559l35 166h559zM289 594h524q4 16 4 41q0 39 -11.5 74.5t-36 67t-68.5 50.5t-103 19q-117 0 -198.5 -73.5t-110.5 -178.5zM987 438h-725q-2 -14 -2 -35q0 -119 72 -191.5t178 -72.5t179 47t112 117l145 -94q-56 -103 -171 -171.5t-261 -68.5
q-124 0 -223.5 49.5t-161 153t-61.5 246.5q0 109 29.5 205t81.5 167t120.5 122.5t147.5 77.5t161 26q195 0 301.5 -109t106.5 -289q0 -84 -29 -180z" />
    <glyph glyph-name="Ebreve" unicode="&#x114;" horiz-adv-x="1177" 
d="M940 0h-872l307 1452h872l-39 -186h-671l-95 -447h609l-41 -188h-609l-94 -445h672zM819 1546q-133 0 -208.5 66t-75.5 166q0 20 2 32h161q-2 -12 -2 -16q0 -39 32.5 -66.5t102.5 -27.5q80 0 125 33t56 77h162q-33 -110 -124 -187t-231 -77z" />
    <glyph glyph-name="ebreve" unicode="&#x115;" horiz-adv-x="1110" 
d="M664 1114q-117 0 -183.5 70t-66.5 170q0 28 6 55h141q-2 -12 -2 -16q0 -47 29.5 -81t93.5 -34q71 0 116.5 40t61.5 91h158q-13 -57 -40.5 -107.5t-70 -93.5t-105.5 -68.5t-138 -25.5zM289 594h524q4 16 4 41q0 39 -11.5 74.5t-36 67t-68.5 50.5t-103 19
q-117 0 -198.5 -73.5t-110.5 -178.5zM987 438h-725q-2 -14 -2 -35q0 -119 72 -191.5t178 -72.5t179 47t112 117l145 -94q-56 -103 -171 -171.5t-261 -68.5q-124 0 -223.5 49.5t-161 153t-61.5 246.5q0 109 29.5 205t81.5 167t120.5 122.5t147.5 77.5t161 26
q195 0 301.5 -109t106.5 -289q0 -84 -29 -180z" />
    <glyph glyph-name="Edotaccent" unicode="&#x116;" horiz-adv-x="1177" 
d="M940 0h-872l307 1452h872l-39 -186h-671l-95 -447h609l-41 -188h-609l-94 -445h672zM717 1667q0 59 42.5 101t100.5 42q53 0 87 -34t34 -82q0 -60 -43 -104t-102 -44q-53 0 -86 34.5t-33 86.5z" />
    <glyph glyph-name="edotaccent" unicode="&#x117;" horiz-adv-x="1110" 
d="M522 1245q0 57 43 102.5t103 45.5q51 0 84.5 -34.5t33.5 -82.5q0 -60 -43 -104t-102 -44q-52 0 -85.5 33.5t-33.5 83.5zM289 594h524q4 16 4 41q0 39 -11.5 74.5t-36 67t-68.5 50.5t-103 19q-117 0 -198.5 -73.5t-110.5 -178.5zM987 438h-725q-2 -14 -2 -35
q0 -119 72 -191.5t178 -72.5t179 47t112 117l145 -94q-56 -103 -171 -171.5t-261 -68.5q-124 0 -223.5 49.5t-161 153t-61.5 246.5q0 109 29.5 205t81.5 167t120.5 122.5t147.5 77.5t161 26q195 0 301.5 -109t106.5 -289q0 -84 -29 -180z" />
    <glyph glyph-name="Eogonek" unicode="&#x118;" horiz-adv-x="1177" 
d="M743 -442q-86 0 -138 47t-52 125q0 93 53.5 160t134.5 110h-673l307 1452h872l-39 -186h-671l-95 -447h609l-41 -188h-609l-94 -445h672l-39 -186q-221 -96 -221 -223q0 -38 25.5 -58t64.5 -20q38 0 68 6l-29 -131q-46 -16 -105 -16z" />
    <glyph glyph-name="eogonek" unicode="&#x119;" horiz-adv-x="1110" 
d="M987 438h-725q-2 -14 -2 -35q0 -119 72 -191.5t178 -72.5t179 47t112 117l145 -94q-75 -140 -246 -207q-39 -15 -75 -35t-72 -48t-58 -65t-22 -77q0 -38 25.5 -58t64.5 -20q38 0 68 6l-29 -131q-46 -16 -104 -16q-86 0 -138.5 47t-52.5 125q0 146 144 243
q-169 20 -276 135t-107 310q0 109 29.5 205t81.5 167t120.5 122.5t147.5 77.5t161 26q195 0 301.5 -109t106.5 -289q0 -84 -29 -180zM289 594h524q4 16 4 41q0 39 -11.5 74.5t-36 67t-68.5 50.5t-103 19q-117 0 -198.5 -73.5t-110.5 -178.5z" />
    <glyph glyph-name="Ecaron" unicode="&#x11a;" horiz-adv-x="1177" 
d="M940 0h-872l307 1452h872l-39 -186h-671l-95 -447h609l-41 -188h-609l-94 -445h672zM1049 1798h190l-287 -244h-245l-175 244h168l142 -131z" />
    <glyph glyph-name="ecaron" unicode="&#x11b;" horiz-adv-x="1110" 
d="M819 1407h187l-267 -291h-235l-144 291h172l107 -166zM289 594h524q4 16 4 41q0 39 -11.5 74.5t-36 67t-68.5 50.5t-103 19q-117 0 -198.5 -73.5t-110.5 -178.5zM987 438h-725q-2 -14 -2 -35q0 -119 72 -191.5t178 -72.5t179 47t112 117l145 -94q-56 -103 -171 -171.5
t-261 -68.5q-124 0 -223.5 49.5t-161 153t-61.5 246.5q0 109 29.5 205t81.5 167t120.5 122.5t147.5 77.5t161 26q195 0 301.5 -109t106.5 -289q0 -84 -29 -180z" />
    <glyph glyph-name="Gcircumflex" unicode="&#x11c;" horiz-adv-x="1562" 
d="M891 1298q-102 0 -192 -35.5t-157 -98t-115 -146.5t-72.5 -183.5t-24.5 -205.5q0 -221 116 -349t316 -128q164 0 301 102t180 276h-504l37 181h694l-149 -711h-156l17 164q-168 -195 -439 -195q-168 0 -307 76.5t-224 225.5t-85 345q0 165 44.5 307.5t120.5 243.5
t176.5 173.5t213 107.5t229.5 35q126 0 230 -36t175.5 -99.5t117 -145.5t65.5 -180l-190 -55q-31 146 -139 238.5t-279 92.5zM786 1554h-178l277 244h245l185 -244h-170l-152 132z" />
    <glyph glyph-name="gcircumflex" unicode="&#x11d;" horiz-adv-x="1179" 
d="M561 1116h-184l268 285h232l145 -285h-174l-107 166zM825 600q0 44 -14 84.5t-41.5 75.5t-75.5 56.5t-110 21.5q-136 0 -225 -98.5t-89 -266.5q0 -119 63.5 -191.5t180.5 -72.5q141 0 226 105.5t85 285.5zM-45 -59l182 43v-15q0 -94 60 -157.5t182 -63.5q268 0 342 340
l16 80q-34 -53 -103.5 -87t-158.5 -34q-185 0 -292 117.5t-107 296.5q0 151 63.5 275.5t178.5 197t260 72.5q103 0 183.5 -40t121.5 -112l26 131h197l-184 -891q-108 -514 -555 -514q-95 0 -174.5 29.5t-130.5 79t-79 112t-28 129.5v11z" />
    <glyph glyph-name="Gbreve" unicode="&#x11e;" horiz-adv-x="1562" 
d="M891 1298q-102 0 -192 -35.5t-157 -98t-115 -146.5t-72.5 -183.5t-24.5 -205.5q0 -221 116 -349t316 -128q164 0 301 102t180 276h-504l37 181h694l-149 -711h-156l17 164q-168 -195 -439 -195q-168 0 -307 76.5t-224 225.5t-85 345q0 165 44.5 307.5t120.5 243.5
t176.5 173.5t213 107.5t229.5 35q126 0 230 -36t175.5 -99.5t117 -145.5t65.5 -180l-190 -55q-31 146 -139 238.5t-279 92.5zM977 1546q-133 0 -209 66.5t-76 165.5q0 20 2 32h162q-2 -12 -2 -16q0 -39 32.5 -66.5t102.5 -27.5q80 0 124.5 33t55.5 77h162
q-33 -110 -123.5 -187t-230.5 -77z" />
    <glyph glyph-name="gbreve" unicode="&#x11f;" horiz-adv-x="1179" 
d="M698 1114q-117 0 -183 70t-66 170q0 28 6 55h141q-2 -12 -2 -16q0 -47 29.5 -81t93.5 -34q71 0 116.5 40t61.5 91h158q-13 -57 -40.5 -107.5t-70 -93.5t-106 -68.5t-138.5 -25.5zM825 600q0 44 -14 84.5t-41.5 75.5t-75.5 56.5t-110 21.5q-136 0 -225 -98.5t-89 -266.5
q0 -119 63.5 -191.5t180.5 -72.5q141 0 226 105.5t85 285.5zM-45 -59l182 43v-15q0 -94 60 -157.5t182 -63.5q268 0 342 340l16 80q-34 -53 -103.5 -87t-158.5 -34q-185 0 -292 117.5t-107 296.5q0 151 63.5 275.5t178.5 197t260 72.5q103 0 183.5 -40t121.5 -112l26 131
h197l-184 -891q-108 -514 -555 -514q-95 0 -174.5 29.5t-130.5 79t-79 112t-28 129.5v11z" />
    <glyph glyph-name="Gdotaccent" unicode="&#x120;" horiz-adv-x="1562" 
d="M891 1298q-102 0 -192 -35.5t-157 -98t-115 -146.5t-72.5 -183.5t-24.5 -205.5q0 -221 116 -349t316 -128q164 0 301 102t180 276h-504l37 181h694l-149 -711h-156l17 164q-168 -195 -439 -195q-168 0 -307 76.5t-224 225.5t-85 345q0 165 44.5 307.5t120.5 243.5
t176.5 173.5t213 107.5t229.5 35q126 0 230 -36t175.5 -99.5t117 -145.5t65.5 -180l-190 -55q-31 146 -139 238.5t-279 92.5zM852 1667q0 59 42 101t101 42q53 0 87 -34t34 -82q0 -60 -43 -104t-102 -44q-53 0 -86 34.5t-33 86.5z" />
    <glyph glyph-name="gdotaccent" unicode="&#x121;" horiz-adv-x="1179" 
d="M588 1245q0 57 42.5 102.5t102.5 45.5q51 0 85 -34.5t34 -82.5q0 -60 -43 -104t-102 -44q-52 0 -85.5 33.5t-33.5 83.5zM825 600q0 44 -14 84.5t-41.5 75.5t-75.5 56.5t-110 21.5q-136 0 -225 -98.5t-89 -266.5q0 -119 63.5 -191.5t180.5 -72.5q141 0 226 105.5t85 285.5
zM-45 -59l182 43v-15q0 -94 60 -157.5t182 -63.5q268 0 342 340l16 80q-34 -53 -103.5 -87t-158.5 -34q-185 0 -292 117.5t-107 296.5q0 151 63.5 275.5t178.5 197t260 72.5q103 0 183.5 -40t121.5 -112l26 131h197l-184 -891q-108 -514 -555 -514q-95 0 -174.5 29.5
t-130.5 79t-79 112t-28 129.5v11z" />
    <glyph glyph-name="Gcommaaccent" unicode="&#x122;" horiz-adv-x="1562" 
d="M891 1298q-102 0 -192 -35.5t-157 -98t-115 -146.5t-72.5 -183.5t-24.5 -205.5q0 -221 116 -349t316 -128q164 0 301 102t180 276h-504l37 181h694l-149 -711h-156l17 164q-168 -195 -439 -195q-168 0 -307 76.5t-224 225.5t-85 345q0 165 44.5 307.5t120.5 243.5
t176.5 173.5t213 107.5t229.5 35q126 0 230 -36t175.5 -99.5t117 -145.5t65.5 -180l-190 -55q-31 146 -139 238.5t-279 92.5zM532 -188q0 50 38 82t94 32q48 0 84 -32.5t36 -92.5q0 -49 -16.5 -90.5t-43.5 -68.5t-61 -45.5t-68 -26.5t-67 -8q-14 0 -28 2l18 80
q51 0 93.5 19.5t58.5 64.5q-14 -9 -37 -9q-44 0 -72.5 26.5t-28.5 66.5z" />
    <glyph glyph-name="gcommaaccent" unicode="&#x123;" horiz-adv-x="1179" 
d="M803 1221q0 -51 -35.5 -86t-89.5 -35q-44 0 -82.5 31.5t-38.5 91.5q0 64 25.5 113.5t67 77t85.5 41t88 13.5h15l-17 -82h-10q-51 0 -91.5 -24t-49.5 -59q24 8 39 8q43 0 68.5 -26t25.5 -64zM825 600q0 44 -14 84.5t-41.5 75.5t-75.5 56.5t-110 21.5q-136 0 -225 -98.5
t-89 -266.5q0 -119 63.5 -191.5t180.5 -72.5q141 0 226 105.5t85 285.5zM-45 -59l182 43v-15q0 -94 60 -157.5t182 -63.5q268 0 342 340l16 80q-34 -53 -103.5 -87t-158.5 -34q-185 0 -292 117.5t-107 296.5q0 151 63.5 275.5t178.5 197t260 72.5q103 0 183.5 -40
t121.5 -112l26 131h197l-184 -891q-108 -514 -555 -514q-95 0 -174.5 29.5t-130.5 79t-79 112t-28 129.5v11z" />
    <glyph glyph-name="Hcircumflex" unicode="&#x124;" horiz-adv-x="1470" 
d="M758 1554h-178l276 244h246l184 -244h-170l-151 132zM1149 0h-201l135 645h-680l-135 -645h-200l307 1452h200l-131 -621h680l131 621h201z" />
    <glyph glyph-name="hcircumflex" unicode="&#x125;" horiz-adv-x="1124" 
d="M854 0h-192l126 596q9 41 9 76q0 83 -46.5 127.5t-134.5 44.5q-74 0 -133 -41t-92 -100t-49 -130l-123 -573h-192l315 1483h193l-123 -580q100 111 282 111q137 0 220 -79.5t83 -213.5q0 -41 -10 -96zM281 1575h-179l277 244h246l184 -244h-170l-152 131z" />
    <glyph glyph-name="Hbar" unicode="&#x126;" horiz-adv-x="1484" 
d="M139 1051l31 153h160l53 248h201l-54 -248h680l54 248h200l-53 -248h164l-31 -153h-166l-221 -1051h-201l136 645h-680l-136 -645h-200l221 1051h-158zM453 831h680l45 220h-680z" />
    <glyph glyph-name="hbar" unicode="&#x127;" horiz-adv-x="1124" 
d="M854 0h-192l126 596q9 41 9 76q0 83 -46.5 127.5t-134.5 44.5q-74 0 -133 -41t-92 -100t-49 -130l-123 -573h-192l241 1141h-166l35 155h164l41 187h193l-41 -187h260l-35 -155h-258l-49 -238q100 111 282 111q137 0 220 -79.5t83 -213.5q0 -41 -10 -96z" />
    <glyph glyph-name="Itilde" unicode="&#x128;" horiz-adv-x="593" 
d="M868 1804q-24 -139 -82.5 -198.5t-148.5 -59.5q-74 0 -143 49l-25 17q-44 28 -78 28q-64 0 -80 -90h-143q14 132 77.5 195t155.5 63q75 0 144 -49l24 -16q45 -29 78 -29q64 0 80 90h141zM272 0h-204l307 1452h205z" />
    <glyph glyph-name="itilde" unicode="&#x129;" horiz-adv-x="501" 
d="M219 0h-192l211 985h192zM174 1135h-143q14 132 77.5 195t155.5 63q69 0 139 -50l25 -16q45 -29 74 -29q63 0 80 91h141q-24 -139 -82.5 -199t-148.5 -60q-70 0 -140 50l-24 16q-45 29 -74 29q-64 0 -80 -90z" />
    <glyph glyph-name="Imacron" unicode="&#x12a;" horiz-adv-x="593" 
d="M799 1595h-600l37 170h600zM272 0h-204l307 1452h205z" />
    <glyph glyph-name="imacron" unicode="&#x12b;" horiz-adv-x="501" 
d="M219 0h-192l211 985h192zM645 1182h-559l35 166h559z" />
    <glyph glyph-name="Ibreve" unicode="&#x12c;" horiz-adv-x="593" 
d="M514 1546q-133 0 -209 66.5t-76 165.5q0 20 2 32h162q-2 -12 -2 -16q0 -39 32.5 -66.5t102.5 -27.5q80 0 125 33t56 77h161q-33 -110 -123.5 -187t-230.5 -77zM272 0h-204l307 1452h205z" />
    <glyph glyph-name="ibreve" unicode="&#x12d;" horiz-adv-x="501" 
d="M219 0h-192l211 985h192zM344 1114q-117 0 -183.5 70t-66.5 170q0 28 6 55h142q-2 -12 -2 -16q0 -47 29 -81t93 -34q71 0 117 40t62 91h157q-13 -57 -40.5 -107.5t-70 -93.5t-105.5 -68.5t-138 -25.5z" />
    <glyph glyph-name="Iogonek" unicode="&#x12e;" horiz-adv-x="593" 
d="M272 0q-221 -96 -221 -223q0 -38 25.5 -58t64.5 -20q38 0 68 6l-29 -131q-46 -16 -104 -16q-86 0 -138.5 47t-52.5 125q0 167 189 270h-6l307 1452h205z" />
    <glyph glyph-name="iogonek" unicode="&#x12f;" horiz-adv-x="501" 
d="M219 0q-221 -96 -221 -223q0 -38 25.5 -58t64.5 -20q38 0 68 6l-29 -131q-46 -16 -104 -16q-86 0 -138.5 47t-52.5 125q0 172 195 272l211 983h192zM272 1350q0 62 47 106.5t105 44.5q55 0 90 -35.5t35 -87.5q0 -61 -47.5 -106t-104.5 -45q-55 0 -90 35.5t-35 87.5z" />
    <glyph glyph-name="Idotaccent" unicode="&#x130;" horiz-adv-x="593" 
d="M391 1667q0 58 42.5 100.5t101.5 42.5q53 0 86.5 -34t33.5 -82q0 -60 -43 -104t-102 -44q-53 0 -86 34.5t-33 86.5zM272 0h-204l307 1452h205z" />
    <glyph glyph-name="dotlessi" unicode="&#x131;" horiz-adv-x="501" 
d="M219 0h-192l211 985h192z" />
    <glyph glyph-name="IJ" unicode="&#x132;" horiz-adv-x="1224" 
d="M393 659h-205l174 793h205zM1024 1452h203l-226 -1051q-43 -201 -157.5 -315.5t-298.5 -114.5q-191 0 -296.5 108.5t-105.5 282.5q0 58 17 138l207 30l-15 -59q-12 -53 -12 -98q0 -100 55 -160.5t156 -60.5q197 0 250 254z" />
    <glyph glyph-name="ij" unicode="&#x133;" horiz-adv-x="1001" 
d="M272 1350q0 62 47 106.5t105 44.5q55 0 90 -35.5t35 -87.5q0 -61 -47.5 -106t-104.5 -45q-55 0 -90 35.5t-35 87.5zM219 0h-192l211 985h192zM502 -117l237 1102h191l-244 -1147q-26 -122 -105 -190t-192 -68q-81 0 -139 29l33 153q36 -12 75 -12q64 0 97 32.5t47 100.5z
M774 1350q0 62 47 106.5t105 44.5q55 0 90 -35.5t35 -87.5q0 -61 -47.5 -106t-104.5 -45q-55 0 -90 35.5t-35 87.5z" />
    <glyph glyph-name="Jcircumflex" unicode="&#x134;" horiz-adv-x="1097" 
d="M827 1554h-178l277 244h245l185 -244h-170l-152 132zM897 1452h203l-226 -1051q-43 -201 -157.5 -315.5t-298.5 -114.5q-191 0 -296.5 108.5t-105.5 282.5q0 58 17 138l10 47l205 31l-23 -107q-10 -41 -10 -96q0 -101 54 -162t155 -61q197 0 250 254z" />
    <glyph glyph-name="jcircumflex" unicode="&#x135;" horiz-adv-x="499" 
d="M219 1116h-184l268 285h232l145 -285h-174l-107 166zM0 -117l238 1102h190l-244 -1147q-26 -122 -105 -190t-192 -68q-81 0 -139 29l33 153q36 -12 76 -12q64 0 96.5 32t46.5 101z" />
    <glyph glyph-name="Kcommaaccent" unicode="&#x136;" horiz-adv-x="1349" 
d="M471 -188q0 50 37.5 82t93.5 32q48 0 84.5 -32.5t36.5 -92.5q0 -49 -16.5 -90.5t-43.5 -68.5t-61 -45.5t-68 -26.5t-67 -8q-15 0 -29 2l19 80q51 0 93 19.5t58 64.5q-14 -9 -37 -9q-44 0 -72 26.5t-28 66.5zM989 0l-364 680l-263 -229l-94 -451h-200l307 1452h200
l-149 -704l803 704h276l-727 -639l439 -813h-228z" />
    <glyph glyph-name="kcommaaccent" unicode="&#x137;" horiz-adv-x="1075" 
d="M301 -188q0 50 37.5 82t93.5 32q48 0 84.5 -32.5t36.5 -92.5q0 -49 -16.5 -90.5t-43.5 -68.5t-61 -45.5t-68 -26.5t-67 -8q-15 0 -29 2l19 80q51 0 93 19.5t58 64.5q-14 -9 -37 -9q-44 0 -72 26.5t-28 66.5zM705 0l-224 467l-200 -164l-64 -303h-190l315 1483h190
l-192 -901l489 403h287l-487 -397l291 -588h-215z" />
    <glyph glyph-name="kgreenlandic" unicode="&#x138;" horiz-adv-x="1075" 
d="M705 0l-224 467l-200 -164l-64 -303h-190l209 985h190l-86 -403l489 403h287l-487 -397l291 -588h-215z" />
    <glyph glyph-name="Lacute" unicode="&#x139;" horiz-adv-x="1091" 
d="M907 1798l-313 -244h-199l244 244h268zM934 0h-866l307 1452h200l-268 -1264h666z" />
    <glyph glyph-name="lacute" unicode="&#x13a;" horiz-adv-x="499" 
d="M860 1819l-313 -244h-199l244 244h268zM219 0h-192l315 1483h193z" />
    <glyph glyph-name="Lcommaaccent" unicode="&#x13b;" horiz-adv-x="1091" 
d="M367 -188q0 50 37.5 82t93.5 32q48 0 84 -32.5t36 -92.5q0 -49 -16.5 -90.5t-43.5 -68.5t-61 -45.5t-68 -26.5t-67 -8q-14 0 -28 2l18 80q51 0 93.5 19.5t58.5 64.5q-14 -9 -37 -9q-44 0 -72 26.5t-28 66.5zM934 0h-866l307 1452h200l-268 -1264h666z" />
    <glyph glyph-name="lcommaaccent" unicode="&#x13c;" horiz-adv-x="499" 
d="M-47 -188q0 50 37.5 82t93.5 32q48 0 84.5 -32.5t36.5 -92.5q0 -49 -16.5 -90.5t-43.5 -68.5t-61 -45.5t-68 -26.5t-67 -8q-15 0 -29 2l19 80q51 0 93 19.5t58 64.5q-14 -9 -37 -9q-44 0 -72 26.5t-28 66.5zM219 0h-192l315 1483h193z" />
    <glyph glyph-name="Lcaron" unicode="&#x13d;" horiz-adv-x="1091" 
d="M1036 1556l-215 -389h-155l133 389h237zM934 0h-866l307 1452h200l-268 -1264h666z" />
    <glyph glyph-name="lcaron" unicode="&#x13e;" horiz-adv-x="499" 
d="M909 1483l-209 -367h-147l135 367h221zM219 0h-192l315 1483h193z" />
    <glyph glyph-name="Ldot" unicode="&#x13f;" horiz-adv-x="1091" 
d="M625 684q0 57 42.5 102t102.5 45q52 0 85.5 -34t33.5 -82q0 -60 -43.5 -104t-102.5 -44q-52 0 -85 33.5t-33 83.5zM934 0h-866l307 1452h200l-268 -1264h666z" />
    <glyph glyph-name="ldot" unicode="&#x140;" horiz-adv-x="692" 
d="M463 621q0 57 42.5 102t102.5 45q51 0 85 -34.5t34 -82.5q0 -60 -43 -103.5t-102 -43.5q-52 0 -85.5 33.5t-33.5 83.5zM219 0h-192l315 1483h193z" />
    <glyph glyph-name="Lslash" unicode="&#x141;" horiz-adv-x="1114" 
d="M956 0h-866l127 606l-197 -80l37 179l199 79l141 668h201l-123 -580l369 150l-37 -178l-371 -150l-106 -506h665z" />
    <glyph glyph-name="lslash" unicode="&#x142;" horiz-adv-x="692" 
d="M328 0h-193l133 631l-200 -82l38 178l201 80l144 676h192l-125 -590l211 86l-39 -178l-211 -86z" />
    <glyph glyph-name="Nacute" unicode="&#x143;" horiz-adv-x="1531" 
d="M1366 1798l-313 -244h-199l244 244h268zM1210 0h-209l-483 1176l-250 -1176h-200l307 1452h239l461 -1135l242 1135h201z" />
    <glyph glyph-name="nacute" unicode="&#x144;" horiz-adv-x="1126" 
d="M1028 1411l-317 -299h-172l235 299h254zM856 0h-192l127 596q8 36 8 76q0 83 -46.5 127.5t-134.5 44.5q-74 0 -133 -41t-92 -100t-49 -130l-123 -573h-192l172 811q24 115 24 174h189q0 -28 -13 -108q102 137 306 137q130 0 211 -80.5t81 -214.5q0 -39 -10 -94z" />
    <glyph glyph-name="Ncommaaccent" unicode="&#x145;" horiz-adv-x="1531" 
d="M551 -188q0 50 37.5 82t93.5 32q48 0 84.5 -32.5t36.5 -92.5q0 -49 -16.5 -90.5t-43.5 -68.5t-61 -45.5t-68 -26.5t-67 -8q-15 0 -29 2l19 80q51 0 93 19.5t58 64.5q-14 -9 -37 -9q-44 0 -72 26.5t-28 66.5zM1210 0h-209l-483 1176l-250 -1176h-200l307 1452h239
l461 -1135l242 1135h201z" />
    <glyph glyph-name="ncommaaccent" unicode="&#x146;" horiz-adv-x="1126" 
d="M305 -188q0 50 37.5 82t93.5 32q48 0 84.5 -32.5t36.5 -92.5q0 -49 -16.5 -90.5t-43.5 -68.5t-61 -45.5t-68 -26.5t-67 -8q-15 0 -29 2l19 80q51 0 93 19.5t58 64.5q-14 -9 -36 -9q-44 0 -72.5 26.5t-28.5 66.5zM856 0h-192l127 596q8 36 8 76q0 83 -46.5 127.5
t-134.5 44.5q-74 0 -133 -41t-92 -100t-49 -130l-123 -573h-192l172 811q24 115 24 174h189q0 -28 -13 -108q102 137 306 137q130 0 211 -80.5t81 -214.5q0 -39 -10 -94z" />
    <glyph glyph-name="Ncaron" unicode="&#x147;" horiz-adv-x="1531" 
d="M1161 1798h191l-287 -244h-246l-174 244h168l141 -131zM1210 0h-209l-483 1176l-250 -1176h-200l307 1452h239l461 -1135l242 1135h201z" />
    <glyph glyph-name="ncaron" unicode="&#x148;" horiz-adv-x="1126" 
d="M840 1407h186l-266 -291h-236l-143 291h172l106 -166zM856 0h-192l127 596q8 36 8 76q0 83 -46.5 127.5t-134.5 44.5q-74 0 -133 -41t-92 -100t-49 -130l-123 -573h-192l172 811q24 115 24 174h189q0 -28 -13 -108q102 137 306 137q130 0 211 -80.5t81 -214.5
q0 -39 -10 -94z" />
    <glyph glyph-name="napostrophe" unicode="&#x149;" horiz-adv-x="1126" 
d="M256 1081l16 82q117 0 154 84q-16 -8 -39 -8q-43 0 -69.5 26.5t-26.5 65.5q0 52 35.5 84.5t89.5 32.5q49 0 85 -30.5t36 -92.5q0 -104 -76 -174t-182 -70h-23zM856 0h-192l127 596q8 36 8 76q0 83 -46.5 127.5t-134.5 44.5q-74 0 -133 -41t-92 -100t-49 -130l-123 -573
h-192l172 811q24 115 24 174h189q0 -28 -13 -108q102 137 306 137q130 0 211 -80.5t81 -214.5q0 -39 -10 -94z" />
    <glyph glyph-name="Eng" unicode="&#x14a;" horiz-adv-x="1531" 
d="M991 -119l21 96l-494 1199l-250 -1176h-200l307 1452h239l461 -1135l242 1135h201l-342 -1616q-26 -122 -105 -190t-192 -68q-82 0 -140 29l33 153q36 -12 76 -12q64 0 96.5 32t46.5 101z" />
    <glyph glyph-name="eng" unicode="&#x14b;" horiz-adv-x="1126" 
d="M989 625l-172 -811q-26 -122 -105 -190t-192 -68q-83 0 -139 28l33 154q36 -12 75 -12q64 0 97 32.5t47 100.5l158 737q8 36 8 76q0 83 -46.5 127.5t-134.5 44.5q-74 0 -133 -41t-92 -100t-49 -130l-123 -573h-192l172 811q24 115 24 174h189q0 -28 -13 -108
q102 137 306 137q130 0 211 -80.5t81 -214.5q0 -39 -10 -94z" />
    <glyph glyph-name="Omacron" unicode="&#x14c;" horiz-adv-x="1595" 
d="M125 602q0 169 44 314t119 247.5t174 175.5t210 108.5t225 35.5q284 0 455.5 -174t171.5 -461q0 -169 -44 -313.5t-119 -247t-174 -175.5t-209 -108t-224 -35q-284 0 -456.5 174t-172.5 459zM1319 827q0 222 -120.5 346.5t-313.5 124.5q-129 0 -236 -56.5t-175.5 -151.5
t-106 -215.5t-37.5 -251.5q0 -221 120.5 -345t313.5 -124q129 0 236 56.5t175.5 150.5t106 214.5t37.5 251.5zM1255 1595h-600l37 170h600z" />
    <glyph glyph-name="omacron" unicode="&#x14d;" horiz-adv-x="1153" 
d="M940 1182h-559l35 166h559zM594 844q-64 0 -122.5 -28t-105 -79t-74.5 -131.5t-28 -177.5q0 -131 68 -209t182 -78q135 0 233.5 113t98.5 305q0 129 -67.5 207t-184.5 78zM1042 563q0 -164 -69.5 -300t-192.5 -215t-274 -79q-135 0 -236 62.5t-151.5 164.5t-50.5 228
q0 253 154 422.5t384 169.5q138 0 238.5 -62t149 -163.5t48.5 -227.5z" />
    <glyph glyph-name="Obreve" unicode="&#x14e;" horiz-adv-x="1595" 
d="M125 602q0 169 44 314t119 247.5t174 175.5t210 108.5t225 35.5q284 0 455.5 -174t171.5 -461q0 -169 -44 -313.5t-119 -247t-174 -175.5t-209 -108t-224 -35q-284 0 -456.5 174t-172.5 459zM1319 827q0 222 -120.5 346.5t-313.5 124.5q-129 0 -236 -56.5t-175.5 -151.5
t-106 -215.5t-37.5 -251.5q0 -221 120.5 -345t313.5 -124q129 0 236 56.5t175.5 150.5t106 214.5t37.5 251.5zM997 1546q-133 0 -208.5 66t-75.5 166q0 20 2 32h162q-1 -4 -1.5 -7t-1 -4.5t-0.5 -2.5v-2q0 -39 33 -66.5t103 -27.5q80 0 124.5 33t55.5 77h162
q-33 -110 -124 -187t-231 -77z" />
    <glyph glyph-name="obreve" unicode="&#x14f;" horiz-adv-x="1153" 
d="M639 1114q-117 0 -183.5 70t-66.5 170q0 28 6 55h142q-2 -12 -2 -16q0 -47 29 -81t93 -34q71 0 117 40t62 91h157q-13 -57 -40.5 -107.5t-70 -93.5t-105.5 -68.5t-138 -25.5zM594 844q-64 0 -122.5 -28t-105 -79t-74.5 -131.5t-28 -177.5q0 -131 68 -209t182 -78
q135 0 233.5 113t98.5 305q0 129 -67.5 207t-184.5 78zM1042 563q0 -164 -69.5 -300t-192.5 -215t-274 -79q-135 0 -236 62.5t-151.5 164.5t-50.5 228q0 253 154 422.5t384 169.5q138 0 238.5 -62t149 -163.5t48.5 -227.5z" />
    <glyph glyph-name="Ohungarumlaut" unicode="&#x150;" horiz-adv-x="1595" 
d="M125 602q0 169 44 314t119 247.5t174 175.5t210 108.5t225 35.5q284 0 455.5 -174t171.5 -461q0 -169 -44 -313.5t-119 -247t-174 -175.5t-209 -108t-224 -35q-284 0 -456.5 174t-172.5 459zM1319 827q0 222 -120.5 346.5t-313.5 124.5q-129 0 -236 -56.5t-175.5 -151.5
t-106 -215.5t-37.5 -251.5q0 -221 120.5 -345t313.5 -124q129 0 236 56.5t175.5 150.5t106 214.5t37.5 251.5zM1098 1798l-242 -244h-149l165 244h226zM1407 1798l-262 -244h-150l187 244h225z" />
    <glyph glyph-name="ohungarumlaut" unicode="&#x151;" horiz-adv-x="1153" 
d="M817 1411l-248 -299h-141l168 299h221zM1112 1411l-268 -299h-142l189 299h221zM594 844q-64 0 -122.5 -28t-105 -79t-74.5 -131.5t-28 -177.5q0 -131 68 -209t182 -78q135 0 233.5 113t98.5 305q0 129 -67.5 207t-184.5 78zM1042 563q0 -164 -69.5 -300t-192.5 -215
t-274 -79q-135 0 -236 62.5t-151.5 164.5t-50.5 228q0 253 154 422.5t384 169.5q138 0 238.5 -62t149 -163.5t48.5 -227.5z" />
    <glyph glyph-name="OE" unicode="&#x152;" horiz-adv-x="2273" 
d="M2036 0h-873l25 121q-193 -152 -434 -152q-284 0 -456.5 174t-172.5 459q0 169 44 314t119 247.5t174 175.5t210 108.5t225 35.5q182 0 314 -75t204 -214l55 258h873l-39 -186h-672l-94 -447h608l-41 -188h-608l-94 -445h672zM1319 827q0 222 -120.5 346.5t-313.5 124.5
q-129 0 -236 -56.5t-175.5 -151.5t-106 -215.5t-37.5 -251.5q0 -221 120.5 -345t313.5 -124q129 0 236 56.5t175.5 150.5t106 214.5t37.5 251.5z" />
    <glyph glyph-name="oe" unicode="&#x153;" horiz-adv-x="1882" 
d="M1286 -31q-122 0 -221.5 49.5t-157.5 143.5q-75 -91 -178 -142t-223 -51q-135 0 -236 62.5t-151.5 164.5t-50.5 228q0 253 154 422.5t384 169.5q126 0 220.5 -52t148.5 -143q78 93 184 144t221 51q195 0 301.5 -109t106.5 -289q0 -84 -29 -180h-725q-2 -14 -2 -35
q0 -119 72 -191.5t178 -72.5t179 47t112 117l145 -94q-56 -103 -171 -171.5t-261 -68.5zM1061 594h524q4 16 4 41q0 39 -11.5 74.5t-36 67t-68.5 50.5t-103 19q-117 0 -198.5 -73.5t-110.5 -178.5zM846 559q0 129 -67.5 207t-184.5 78q-64 0 -122.5 -28t-105 -79
t-74.5 -131.5t-28 -177.5q0 -131 68 -209t182 -78q135 0 233.5 113t98.5 305z" />
    <glyph glyph-name="Racute" unicode="&#x154;" horiz-adv-x="1284" 
d="M1165 1798l-313 -244h-199l244 244h268zM881 0l-228 602h-258l-127 -602h-200l307 1452h471q185 0 292 -103.5t107 -265.5q0 -182 -107 -305.5t-282 -161.5l238 -616h-213zM432 780h285q145 0 235 77.5t90 213.5q0 93 -59 148t-170 55h-274z" />
    <glyph glyph-name="racute" unicode="&#x155;" horiz-adv-x="733" 
d="M905 1411l-317 -299h-172l235 299h254zM729 786q-44 7 -70 7q-140 0 -224 -89.5t-116 -236.5l-100 -467h-190l172 811q24 115 24 174h189q0 -87 -19 -154q50 82 135 125t191 43q37 0 53 -2z" />
    <glyph glyph-name="Rcommaaccent" unicode="&#x156;" horiz-adv-x="1284" 
d="M418 -188q0 50 37.5 82t93.5 32q48 0 84.5 -32.5t36.5 -92.5q0 -49 -16.5 -90.5t-43.5 -68.5t-61 -45.5t-68 -26.5t-67 -8q-15 0 -29 2l18 80q51 0 93.5 19.5t58.5 64.5q-13 -9 -37 -9q-44 0 -72 26.5t-28 66.5zM881 0l-228 602h-258l-127 -602h-200l307 1452h471
q185 0 292 -103.5t107 -265.5q0 -182 -107 -305.5t-282 -161.5l238 -616h-213zM432 780h285q145 0 235 77.5t90 213.5q0 93 -59 148t-170 55h-274z" />
    <glyph glyph-name="rcommaaccent" unicode="&#x157;" horiz-adv-x="733" 
d="M-39 -188q0 50 37.5 82t93.5 32q48 0 84.5 -32.5t36.5 -92.5q0 -49 -16.5 -90.5t-43.5 -68.5t-61 -45.5t-68 -26.5t-67 -8q-15 0 -29 2l19 80q51 0 93 19.5t58 64.5q-14 -9 -37 -9q-44 0 -72 26.5t-28 66.5zM729 786q-44 7 -70 7q-140 0 -224 -89.5t-116 -236.5
l-100 -467h-190l172 811q24 115 24 174h189q0 -87 -19 -154q50 82 135 125t191 43q37 0 53 -2z" />
    <glyph glyph-name="Rcaron" unicode="&#x158;" horiz-adv-x="1284" 
d="M1014 1798h190l-286 -244h-246l-174 244h168l141 -131zM881 0l-228 602h-258l-127 -602h-200l307 1452h471q185 0 292 -103.5t107 -265.5q0 -182 -107 -305.5t-282 -161.5l238 -616h-213zM432 780h285q145 0 235 77.5t90 213.5q0 93 -59 148t-170 55h-274z" />
    <glyph glyph-name="rcaron" unicode="&#x159;" horiz-adv-x="733" 
d="M700 1407h187l-266 -291h-236l-143 291h172l106 -166zM729 786q-44 7 -70 7q-140 0 -224 -89.5t-116 -236.5l-100 -467h-190l172 811q24 115 24 174h189q0 -87 -19 -154q50 82 135 125t191 43q37 0 53 -2z" />
    <glyph glyph-name="Sacute" unicode="&#x15a;" horiz-adv-x="1210" 
d="M573 150q129 2 206 64.5t77 166.5q0 63 -39.5 117t-116.5 90l-192 86q-264 122 -264 375q0 183 139.5 308.5t347.5 125.5q102 0 185 -27.5t135.5 -70.5t88.5 -99t51 -109.5t15 -105.5l-190 -37q0 28 -5.5 58.5t-25 70t-50.5 70t-88 51.5t-132 21q-114 0 -190 -67.5
t-76 -162.5q0 -138 135 -201l198 -92q283 -132 283 -383q0 -85 -35.5 -163t-98 -137t-155 -94.5t-198.5 -35.5q-110 0 -200 29t-150 76.5t-101.5 111t-59.5 130.5t-18 137v30l203 35q-2 -14 -2 -41q0 -63 18.5 -119.5t56 -104t101.5 -75.5t147 -28zM1186 1798l-314 -244
h-198l244 244h268z" />
    <glyph glyph-name="sacute" unicode="&#x15b;" horiz-adv-x="909" 
d="M938 1411l-317 -299h-172l235 299h254zM10 307l170 39q2 -91 60 -152t155 -61q77 0 117.5 38.5t40.5 92.5q0 73 -92 117l-144 65q-176 79 -176 250q0 131 99.5 225.5t261.5 94.5q74 0 134.5 -20t98 -50t64 -70t38.5 -75.5t15 -69.5l-172 -47q-5 32 -16.5 59t-33 53.5
t-59.5 42t-88 15.5q-71 0 -113 -38t-42 -91q0 -74 78 -111l135 -61q98 -44 151 -115t53 -159q0 -40 -12 -81t-39.5 -82.5t-68 -74t-103 -52.5t-137.5 -20q-96 0 -171.5 32.5t-118 84t-64 108.5t-21.5 113z" />
    <glyph glyph-name="Scircumflex" unicode="&#x15c;" horiz-adv-x="1210" 
d="M621 1554h-179l277 244h246l184 -244h-170l-152 132zM573 150q129 2 206 64.5t77 166.5q0 63 -39.5 117t-116.5 90l-192 86q-264 122 -264 375q0 183 139.5 308.5t347.5 125.5q102 0 185 -27.5t135.5 -70.5t88.5 -99t51 -109.5t15 -105.5l-190 -37q0 28 -5.5 58.5t-25 70
t-50.5 70t-88 51.5t-132 21q-114 0 -190 -67.5t-76 -162.5q0 -138 135 -201l198 -92q283 -132 283 -383q0 -85 -35.5 -163t-98 -137t-155 -94.5t-198.5 -35.5q-110 0 -200 29t-150 76.5t-101.5 111t-59.5 130.5t-18 137v30l203 35q-2 -14 -2 -41q0 -63 18.5 -119.5t56 -104
t101.5 -75.5t147 -28z" />
    <glyph glyph-name="scircumflex" unicode="&#x15d;" horiz-adv-x="909" 
d="M422 1116h-184l268 285h231l146 -285h-174l-107 166zM10 307l170 39q2 -91 60 -152t155 -61q77 0 117.5 38.5t40.5 92.5q0 73 -92 117l-144 65q-176 79 -176 250q0 131 99.5 225.5t261.5 94.5q74 0 134.5 -20t98 -50t64 -70t38.5 -75.5t15 -69.5l-172 -47q-5 32 -16.5 59
t-33 53.5t-59.5 42t-88 15.5q-71 0 -113 -38t-42 -91q0 -74 78 -111l135 -61q98 -44 151 -115t53 -159q0 -40 -12 -81t-39.5 -82.5t-68 -74t-103 -52.5t-137.5 -20q-96 0 -171.5 32.5t-118 84t-64 108.5t-21.5 113z" />
    <glyph glyph-name="Scedilla" unicode="&#x15e;" horiz-adv-x="1212" 
d="M573 150q129 0 206 63t77 168q0 63 -39.5 117t-116.5 90l-192 86q-264 122 -264 375q0 183 139.5 308.5t347.5 125.5q102 0 185 -27.5t135.5 -70.5t88.5 -99t51 -109.5t15 -105.5l-190 -37q0 28 -5.5 58.5t-25 70t-50.5 70t-88 51.5t-132 21q-114 0 -190 -67.5
t-76 -162.5q0 -138 135 -201l198 -92q283 -132 283 -383q0 -172 -133 -298t-340 -132l-90 -75q66 -9 102.5 -50t36.5 -98q0 -80 -66 -134t-169 -54q-96 0 -163 46.5t-91 98.5l106 66q6 -14 15 -28t26 -31.5t44 -28.5t60 -11q39 0 67 18.5t28 53.5q0 30 -25.5 49t-62.5 19
q-14 0 -29 -3l-45 87l102 90q-100 19 -177 67.5t-122 114t-67.5 138t-22.5 149.5v30l203 35q-2 -14 -2 -41q0 -63 18.5 -119.5t56 -104t101.5 -75.5t147 -28z" />
    <glyph glyph-name="scedilla" unicode="&#x15f;" horiz-adv-x="911" 
d="M10 307l170 39q2 -91 60 -152t155 -61q77 0 117.5 38.5t40.5 92.5q0 73 -92 117l-144 65q-176 79 -176 250q0 131 99.5 225.5t261.5 94.5q74 0 134.5 -20t98 -50t64 -70t38.5 -75.5t15 -69.5l-172 -47q-5 32 -16.5 59t-33 53.5t-59.5 42t-88 15.5q-71 0 -113 -38t-42 -91
q0 -74 78 -111l135 -61q98 -44 151 -115t53 -159q0 -48 -18.5 -97.5t-55 -96t-102 -78t-149.5 -36.5l-92 -77q66 -9 102.5 -50t36.5 -98q0 -80 -66.5 -134t-169.5 -54q-96 0 -163 46.5t-91 98.5l107 66q6 -14 15 -28t26 -31.5t44 -28.5t60 -11q39 0 67 18.5t28 53.5
q0 30 -25.5 49t-62.5 19q-14 0 -29 -3l-45 87l102 90q-126 33 -190 127t-64 196z" />
    <glyph glyph-name="Scaron" unicode="&#x160;" horiz-adv-x="1210" 
d="M573 150q129 2 206 64.5t77 166.5q0 63 -39.5 117t-116.5 90l-192 86q-264 122 -264 375q0 183 139.5 308.5t347.5 125.5q102 0 185 -27.5t135.5 -70.5t88.5 -99t51 -109.5t15 -105.5l-190 -37q0 28 -5.5 58.5t-25 70t-50.5 70t-88 51.5t-132 21q-114 0 -190 -67.5
t-76 -162.5q0 -138 135 -201l198 -92q283 -132 283 -383q0 -85 -35.5 -163t-98 -137t-155 -94.5t-198.5 -35.5q-110 0 -200 29t-150 76.5t-101.5 111t-59.5 130.5t-18 137v30l203 35q-2 -14 -2 -41q0 -63 18.5 -119.5t56 -104t101.5 -75.5t147 -28zM1014 1798h190l-286 -244
h-246l-174 244h168l141 -131z" />
    <glyph glyph-name="scaron" unicode="&#x161;" horiz-adv-x="909" 
d="M768 1407h186l-266 -291h-235l-144 291h172l107 -166zM10 307l170 39q2 -91 60 -152t155 -61q77 0 117.5 38.5t40.5 92.5q0 73 -92 117l-144 65q-176 79 -176 250q0 131 99.5 225.5t261.5 94.5q74 0 134.5 -20t98 -50t64 -70t38.5 -75.5t15 -69.5l-172 -47
q-5 32 -16.5 59t-33 53.5t-59.5 42t-88 15.5q-71 0 -113 -38t-42 -91q0 -74 78 -111l135 -61q98 -44 151 -115t53 -159q0 -40 -12 -81t-39.5 -82.5t-68 -74t-103 -52.5t-137.5 -20q-96 0 -171.5 32.5t-118 84t-64 108.5t-21.5 113z" />
    <glyph glyph-name="Tcommaaccent" unicode="&#x162;" horiz-adv-x="1198" 
d="M328 -442q-96 0 -163 46.5t-91 98.5l106 66q8 -20 22 -39.5t47.5 -39.5t76.5 -20q38 0 66 18.5t28 53.5q0 30 -25.5 49t-62.5 19q-14 0 -29 -3l-45 87l123 106l268 1268h-469l39 184h1120l-39 -184h-450l-268 -1268h-31l-127 -106q66 -9 102.5 -50t36.5 -98
q0 -80 -66 -134t-169 -54z" />
    <glyph glyph-name="tcommaaccent" unicode="&#x163;" horiz-adv-x="684" 
d="M381 -10h-8l-115 -96q66 -9 102.5 -50t36.5 -98q0 -80 -66 -134t-169 -54q-96 0 -163 46.5t-91 98.5l106 66q8 -20 22 -39.5t47.5 -39.5t76.5 -20q38 0 66 18.5t28 53.5q0 30 -25.5 49t-62.5 19q-14 0 -29 -3l-45 87l150 129q-99 58 -99 184q0 35 9 76l112 528h-180
l37 174h29q169 0 202 160l33 151h176l-67 -311h198l-37 -174h-198l-109 -518q-6 -27 -6 -47q0 -88 111 -88q9 0 19 0.5t17.5 1t14 1t10.5 1.5h4l-33 -158q-28 -14 -104 -14z" />
    <glyph glyph-name="Tcaron" unicode="&#x164;" horiz-adv-x="1198" 
d="M1300 1268h-450l-268 -1268h-201l268 1268h-469l39 184h1120zM1022 1798h190l-286 -244h-246l-174 244h168l141 -131z" />
    <glyph glyph-name="tcaron" unicode="&#x165;" horiz-adv-x="684" 
d="M1010 1526l-209 -367h-148l135 367h222zM453 158q9 0 19 0.5t17.5 1t14 1t10.5 1.5h4l-33 -158q-28 -14 -104 -14q-108 0 -173 58.5t-65 160.5q0 33 9 74l112 528h-180l37 174h29q169 0 202 160l33 151h176l-67 -311h198l-37 -174h-198l-109 -518q-6 -27 -6 -47
q0 -88 111 -88z" />
    <glyph glyph-name="Tbar" unicode="&#x166;" horiz-adv-x="1218" 
d="M1309 1268h-451l-108 -506h251l-36 -166h-250l-125 -596h-201l125 596h-238l37 166h236l108 506h-469l39 184h1121z" />
    <glyph glyph-name="tbar" unicode="&#x167;" horiz-adv-x="698" 
d="M391 -10q-108 0 -172.5 58.5t-64.5 160.5q0 38 8 74l31 143h-175l33 156h174l49 229h-180l37 174h29q169 0 202 160l33 151h176l-67 -311h198l-36 -174h-199l-49 -229h209l-33 -156h-209l-27 -133q-6 -27 -6 -47q0 -88 111 -88q9 0 19 0.5t17.5 1t14 1t10.5 1.5h4
l-32 -158q-28 -14 -105 -14z" />
    <glyph glyph-name="Utilde" unicode="&#x168;" horiz-adv-x="1390" 
d="M1188 1452h203l-213 -1010q-47 -225 -192.5 -349t-358.5 -124q-219 0 -347 113.5t-128 318.5q0 81 16 152l190 899h193l-189 -924q-12 -58 -12 -108q0 -124 71.5 -194t215.5 -70q133 0 222 80t120 225zM1262 1804q-24 -139 -82.5 -198.5t-149.5 -59.5q-74 0 -143 49
l-25 17q-44 28 -78 28q-63 0 -79 -90h-144q14 132 78 195t156 63q74 0 143 -49l25 -16q45 -29 77 -29q64 0 80 90h142z" />
    <glyph glyph-name="utilde" unicode="&#x169;" horiz-adv-x="1112" 
d="M1036 985l-153 -729q-27 -120 -27 -223q0 -8 0.5 -14.5t0.5 -10t1 -6.5v-2h-184v2q-1 3 -1.5 7.5t-1 11t-1 16t-0.5 20.5q0 38 2 58q-47 -66 -119 -100.5t-145 -34.5q-149 0 -233.5 87t-84.5 230q0 55 12 113l123 575h193l-121 -571q-10 -55 -10 -92q0 -81 41.5 -130
t132.5 -49q104 0 172 76.5t92 190.5l121 575h190zM475 1135h-143q14 132 77.5 195t155.5 63q70 0 140 -50l24 -16q45 -29 74 -29q63 0 80 91h141q-24 -139 -82.5 -199t-148.5 -60q-70 0 -140 50l-24 16q-45 29 -74 29q-64 0 -80 -90z" />
    <glyph glyph-name="Umacron" unicode="&#x16a;" horiz-adv-x="1390" 
d="M1188 1452h203l-213 -1010q-47 -225 -192.5 -349t-358.5 -124q-219 0 -347 113.5t-128 318.5q0 81 16 152l190 899h193l-189 -924q-12 -58 -12 -108q0 -124 71.5 -194t215.5 -70q133 0 222 80t120 225zM1196 1595h-600l37 170h600z" />
    <glyph glyph-name="umacron" unicode="&#x16b;" horiz-adv-x="1112" 
d="M1036 985l-153 -729q-27 -120 -27 -223q0 -8 0.5 -14.5t0.5 -10t1 -6.5v-2h-184v2q-1 3 -1.5 7.5t-1 11t-1 16t-0.5 20.5q0 38 2 58q-47 -66 -119 -100.5t-145 -34.5q-149 0 -233.5 87t-84.5 230q0 55 12 113l123 575h193l-121 -571q-10 -55 -10 -92q0 -81 41.5 -130
t132.5 -49q104 0 172 76.5t92 190.5l121 575h190zM944 1182h-559l35 166h559z" />
    <glyph glyph-name="Ubreve" unicode="&#x16c;" horiz-adv-x="1390" 
d="M1188 1452h203l-213 -1010q-47 -225 -192.5 -349t-358.5 -124q-219 0 -347 113.5t-128 318.5q0 81 16 152l190 899h193l-189 -924q-12 -58 -12 -108q0 -124 71.5 -194t215.5 -70q133 0 222 80t120 225zM893 1546q-133 0 -209 66.5t-76 165.5q0 20 2 32h162q-2 -12 -2 -16
q0 -39 32.5 -66.5t102.5 -27.5q80 0 124.5 33t55.5 77h162q-33 -110 -123.5 -187t-230.5 -77z" />
    <glyph glyph-name="ubreve" unicode="&#x16d;" horiz-adv-x="1112" 
d="M1036 985l-153 -729q-27 -120 -27 -223q0 -8 0.5 -14.5t0.5 -10t1 -6.5v-2h-184v2q-1 3 -1.5 7.5t-1 11t-1 16t-0.5 20.5q0 38 2 58q-47 -66 -119 -100.5t-145 -34.5q-149 0 -233.5 87t-84.5 230q0 55 12 113l123 575h193l-121 -571q-10 -55 -10 -92q0 -81 41.5 -130
t132.5 -49q104 0 172 76.5t92 190.5l121 575h190zM647 1114q-117 0 -183.5 70t-66.5 170q0 28 6 55h142q-2 -12 -2 -16q0 -47 29.5 -81t93.5 -34q71 0 116.5 40t61.5 91h157q-13 -57 -40.5 -107.5t-70 -93.5t-105.5 -68.5t-138 -25.5z" />
    <glyph glyph-name="Uring" unicode="&#x16e;" horiz-adv-x="1390" 
d="M1188 1452h203l-213 -1010q-47 -225 -192.5 -349t-358.5 -124q-219 0 -347 113.5t-128 318.5q0 81 16 152l190 899h193l-189 -924q-12 -58 -12 -108q0 -124 71.5 -194t215.5 -70q133 0 222 80t120 225zM913 1833q-40 0 -72 -29t-32 -73q0 -40 24 -63t64 -23
q44 0 75.5 28.5t31.5 73.5q0 37 -25.5 61.5t-65.5 24.5zM678 1714q0 106 76 177t174 71q89 0 150 -60t61 -145q0 -95 -73.5 -169.5t-172.5 -74.5q-90 0 -152.5 58.5t-62.5 142.5z" />
    <glyph glyph-name="uring" unicode="&#x16f;" horiz-adv-x="1112" 
d="M1036 985l-153 -729q-27 -120 -27 -223q0 -8 0.5 -14.5t0.5 -10t1 -6.5v-2h-184v2q-1 3 -1.5 7.5t-1 11t-1 16t-0.5 20.5q0 38 2 58q-47 -66 -119 -100.5t-145 -34.5q-149 0 -233.5 87t-84.5 230q0 55 12 113l123 575h193l-121 -571q-10 -55 -10 -92q0 -81 41.5 -130
t132.5 -49q104 0 172 76.5t92 190.5l121 575h190zM692 1536q89 0 150 -60t61 -145q0 -95 -73.5 -169.5t-172.5 -74.5q-90 0 -152.5 58.5t-62.5 142.5q0 106 76 177t174 71zM573 1305q0 -39 24.5 -62.5t64.5 -23.5q44 0 75 28.5t31 73.5q0 37 -25.5 61.5t-64.5 24.5
q-40 0 -72.5 -29t-32.5 -73z" />
    <glyph glyph-name="Uhungarumlaut" unicode="&#x170;" horiz-adv-x="1390" 
d="M1188 1452h203l-213 -1010q-47 -225 -192.5 -349t-358.5 -124q-219 0 -347 113.5t-128 318.5q0 81 16 152l190 899h193l-189 -924q-12 -58 -12 -108q0 -124 71.5 -194t215.5 -70q133 0 222 80t120 225zM1030 1798l-242 -244h-149l166 244h225zM1339 1798l-262 -244h-149
l186 244h225z" />
    <glyph glyph-name="uhungarumlaut" unicode="&#x171;" horiz-adv-x="1112" 
d="M1036 985l-153 -729q-27 -120 -27 -223q0 -8 0.5 -14.5t0.5 -10t1 -6.5v-2h-184v2q-1 3 -1.5 7.5t-1 11t-1 16t-0.5 20.5q0 38 2 58q-47 -66 -119 -100.5t-145 -34.5q-149 0 -233.5 87t-84.5 230q0 55 12 113l123 575h193l-121 -571q-10 -55 -10 -92q0 -81 41.5 -130
t132.5 -49q104 0 172 76.5t92 190.5l121 575h190zM778 1411l-248 -299h-141l168 299h221zM1073 1411l-268 -299h-141l188 299h221z" />
    <glyph glyph-name="Uogonek" unicode="&#x172;" horiz-adv-x="1390" 
d="M623 -442q-86 0 -138.5 47t-52.5 125q0 144 141 241q-196 14 -308.5 126t-112.5 304q0 81 16 152l190 899h193l-189 -924q-12 -58 -12 -108q0 -124 71.5 -194t215.5 -70q133 0 222 80t120 225l209 991h203l-213 -1010q-72 -335 -353 -440q-38 -15 -74.5 -35t-72.5 -48.5
t-58 -65.5t-22 -76q0 -38 25.5 -58t64.5 -20q38 0 68 6l-29 -131q-46 -16 -104 -16z" />
    <glyph glyph-name="uogonek" unicode="&#x173;" horiz-adv-x="1112" 
d="M662 -442q-86 0 -138.5 47t-52.5 125q0 171 201 276q0 1 -1 17.5t-1 33.5q0 38 2 58q-47 -66 -119 -100.5t-145 -34.5q-149 0 -233.5 87t-84.5 230q0 55 12 113l123 575h193l-121 -571q-10 -55 -10 -92q0 -81 41.5 -130t132.5 -49q104 0 172 76.5t92 190.5l121 575h190
l-153 -729q-27 -120 -27 -223q0 -8 0.5 -14.5t0.5 -10t1 -6.5v-2q-221 -96 -221 -223q0 -38 25.5 -58t64.5 -20q38 0 68 6l-29 -131q-46 -16 -104 -16z" />
    <glyph glyph-name="Wcircumflex" unicode="&#x174;" horiz-adv-x="1994" 
d="M1014 1554h-178l276 244h246l184 -244h-170l-151 132zM1049 1452h211l129 -1149l516 1149h202l-669 -1452h-199l-129 1178l-573 -1178h-205l-113 1452h195l80 -1137z" />
    <glyph glyph-name="wcircumflex" unicode="&#x175;" horiz-adv-x="1622" 
d="M743 1116h-184l268 285h232l145 -285h-174l-106 166zM772 985h203l94 -735l371 735h211l-523 -985h-198l-99 745l-389 -745h-202l-101 985h185l63 -733z" />
    <glyph glyph-name="Ycircumflex" unicode="&#x176;" horiz-adv-x="1263" 
d="M543 625l-332 827h211l252 -637l467 637h239l-641 -840l-127 -612h-200zM612 1554h-178l277 244h245l185 -244h-170l-152 132z" />
    <glyph glyph-name="ycircumflex" unicode="&#x177;" horiz-adv-x="1028" 
d="M430 1116h-184l268 285h231l146 -285h-174l-107 166zM168 -389h-221l370 559l-241 815h209l174 -618l385 618h227z" />
    <glyph glyph-name="Ydieresis" unicode="&#x178;" horiz-adv-x="1263" 
d="M543 625l-332 827h211l252 -637l467 637h239l-641 -840l-127 -612h-200zM438 1665q0 58 38.5 95.5t96.5 37.5q47 0 77 -30.5t30 -75.5q0 -59 -39.5 -97.5t-93.5 -38.5q-46 0 -77.5 31t-31.5 78zM909 1665q0 58 38.5 95.5t96.5 37.5q47 0 77 -30.5t30 -75.5
q0 -59 -39.5 -97.5t-93.5 -38.5q-46 0 -77.5 31t-31.5 78z" />
    <glyph glyph-name="Zacute" unicode="&#x179;" horiz-adv-x="1257" 
d="M1042 0h-1083l41 197l1044 1071h-796l39 184h1052l-41 -190l-1048 -1076h831zM1167 1798l-313 -244h-199l244 244h268z" />
    <glyph glyph-name="zacute" unicode="&#x17a;" horiz-adv-x="972" 
d="M942 1411l-317 -299h-172l235 299h254zM758 0h-797l37 172l670 639h-516l36 174h762l-37 -174l-669 -637h551z" />
    <glyph glyph-name="Zdotaccent" unicode="&#x17b;" horiz-adv-x="1257" 
d="M1042 0h-1083l41 197l1044 1071h-796l39 184h1052l-41 -190l-1048 -1076h831zM702 1667q0 58 42.5 100.5t101.5 42.5q53 0 87 -34t34 -82q0 -60 -43.5 -104t-102.5 -44q-53 0 -86 34.5t-33 86.5z" />
    <glyph glyph-name="zdotaccent" unicode="&#x17c;" horiz-adv-x="972" 
d="M477 1245q0 57 43 102.5t103 45.5q51 0 84.5 -34.5t33.5 -82.5q0 -60 -43 -104t-102 -44q-52 0 -85.5 33.5t-33.5 83.5zM758 0h-797l37 172l670 639h-516l36 174h762l-37 -174l-669 -637h551z" />
    <glyph glyph-name="Zcaron" unicode="&#x17d;" horiz-adv-x="1257" 
d="M1042 0h-1083l41 197l1044 1071h-796l39 184h1052l-41 -190l-1048 -1076h831zM1042 1798h191l-287 -244h-246l-174 244h168l142 -131z" />
    <glyph glyph-name="zcaron" unicode="&#x17e;" horiz-adv-x="972" 
d="M770 1407h186l-266 -291h-235l-144 291h172l107 -166zM758 0h-797l37 172l670 639h-516l36 174h762l-37 -174l-669 -637h551z" />
    <glyph glyph-name="uni018F" unicode="&#x18f;" horiz-adv-x="1595" 
d="M866 1483q135 0 255.5 -46.5t209.5 -129.5t141 -205.5t52 -267.5q0 -138 -33.5 -261.5t-92 -216.5t-135.5 -168t-165.5 -123t-181.5 -73t-183 -25q-99 0 -192 25.5t-174 78t-141.5 126t-95 176.5t-34.5 223q0 86 17 172h1204q0 9 1 29t1 30q0 148 -64 256t-169 160.5
t-236 52.5q-158 0 -293 -80.5t-201 -214.5l-157 84q87 182 269.5 290t397.5 108zM754 150q79 0 158.5 27t152.5 79t131.5 136.5t89.5 191.5h-993q1 -136 65 -236t167 -149t229 -49z" />
    <glyph glyph-name="florin" unicode="&#x192;" horiz-adv-x="10485" 
d="M4358 782q227 -55 326.5 -148t99.5 -249q0 -183 -130 -293t-347 -110q-312 0 -549 211q-6 6 -6 10q0 8 4 12l137 164q6 6 10 6q9 0 13 -4q99 -87 193.5 -126.5t203.5 -39.5q98 0 155.5 40.5t57.5 109.5q0 44 -19.5 72.5t-81 56t-179.5 55.5q-89 21 -154 43.5t-122 55
t-92 74t-55 98.5t-20 130q0 173 128.5 283t330.5 110q278 0 479 -165q6 -6 6 -13q0 -2 -4 -10l-121 -172q-4 -8 -14 -8q-6 0 -10 4q-174 131 -340 131q-88 0 -141.5 -38t-53.5 -101q0 -47 21.5 -75.5t85 -55.5t188.5 -58zM5442 1028q89 0 172 -34.5t149.5 -98t107 -165.5
t40.5 -226t-40 -225.5t-107 -165t-150 -97.5t-172 -34q-191 0 -314 141v-399q0 -8 -5.5 -13.5t-12.5 -5.5h-221q-7 0 -13 5.5t-6 13.5v1267q0 7 5.5 12t13.5 5h221q18 0 18 -17v-114q127 151 314 151zM5652 504q0 129 -74 213t-188 84q-115 0 -191.5 -84.5t-76.5 -212.5
t76.5 -212.5t191.5 -84.5q116 0 189 82.5t73 214.5zM6519 1028q147 0 270 -69.5t193.5 -190t70.5 -264.5q0 -145 -71.5 -265.5t-195 -189.5t-271.5 -69q-147 0 -269.5 68.5t-193 188t-70.5 263.5q0 145 71 266.5t194.5 191.5t271.5 70zM6519 205q120 0 198 83.5t78 211.5
q0 129 -80 214t-200 85q-122 0 -200.5 -83t-78.5 -212q0 -128 81 -213.5t202 -85.5zM7449 1008h245q17 0 17 -17v-192q0 -6 -5 -11.5t-12 -5.5h-245v-460q0 -56 25 -81.5t79 -25.5q61 0 111 25q25 10 26 10q6 0 11.5 -5t5.5 -14v-178q0 -11 -13 -18q-87 -51 -204 -51
q-297 0 -297 303v495h-109q-5 0 -9.5 5.5t-4.5 11.5v192q0 7 4.5 12t9.5 5h109v252q0 6 5 10t11 4h223q6 0 11.5 -4t5.5 -10v-252zM8794 1145q-2 0 -7 1.5l-15 4.5t-21 6q-53 12 -88 12q-59 0 -86 -32t-27 -101v-28h381q13 0 17 -9l260 -684l237 682q4 11 15 11h233
q5 0 11 -5t6 -12q0 -4 -5 -14l-385 -993q-60 -156 -135.5 -220.5t-199.5 -64.5q-120 0 -238 59q-8 4 -8 13q0 6 2 10l74 168q3 10 14 10q1 0 4 -1t4 -1q73 -37 123 -37q40 0 67.5 20t53.5 78l-318 764h-209v-764q0 -8 -5 -13t-13 -5h-221q-8 0 -13.5 5.5t-5.5 12.5v764h-106
q-6 0 -10 5.5t-4 11.5v194q0 15 14 15h106v49q0 163 81.5 248.5t236.5 85.5q104 0 184 -25q12 -4 12 -16v-189q0 -5 -4.5 -10.5t-11.5 -5.5zM7830 1008h225q14 0 14 -17v-973q0 -18 -14 -18h-225q-5 0 -10 5.5t-5 12.5v973q0 7 5 12t10 5zM7942 1450q66 0 114 -46t48 -112
q0 -67 -48 -114.5t-114 -47.5t-112 47t-46 115q0 66 46 112t112 46zM9898 692q-65 0 -110.5 46.5t-45.5 111.5t45.5 111.5t110.5 46.5q66 0 112 -45.5t46 -110.5q0 -66 -46 -113t-112 -47zM9898 991q-59 0 -99 -41t-40 -100q0 -60 39.5 -101.5t99.5 -41.5q61 0 102 42
t41 103q0 58 -41 98.5t-102 40.5zM9935 834l45 -62h-39l-41 55h-33v-55h-30v166h71q30 0 48 -14.5t18 -40.5q0 -33 -39 -49zM9908 909h-41v-53h41q14 0 23.5 7.5t9.5 17.5q0 13 -9.5 20.5t-23.5 7.5zM2458 -12q36 0 63 27t27 65q0 51 -43 76q-367 227 -863 227
q-249 0 -538 -66q-31 -8 -50.5 -31.5t-19.5 -54.5q0 -37 24.5 -63.5t63.5 -26.5q8 0 24 3t35 8t25 6q226 47 441 47q429 0 763 -203q24 -14 48 -14zM2615 371q45 0 79 33.5t34 80.5q0 67 -53 97q-216 132 -489 202t-556 70q-306 0 -577 -82q-36 -10 -58 -40.5t-22 -67.5
q0 -46 29 -78.5t77 -32.5q21 0 33 2.5t36.5 10t53.5 14.5q199 49 424 49q254 0 498 -62.5t432 -179.5q29 -16 59 -16zM2728 836q32 -19 68 -19q57 0 97 39t40 96q0 34 -18 65.5t-50 49.5q-247 144 -558.5 214.5t-655.5 70.5q-378 0 -678 -90q-44 -13 -70 -49t-26 -80
q0 -54 38 -96t95 -42q21 0 39 6q267 80 614 80q295 0 576.5 -61t488.5 -184zM430 670q0 197 52 384.5t145.5 346t227 292t292 226.5t346 145t383.5 52t383.5 -52t345.5 -145t291.5 -226.5t226.5 -292t145 -346t52 -384.5t-52 -384t-145 -345.5t-226.5 -292t-291.5 -226
t-345.5 -144.5t-383.5 -52t-383.5 52t-346 144.5t-292 226t-227 292t-145.5 345.5t-52 384z" />
    <glyph glyph-name="uni01B5" unicode="&#x1b5;" horiz-adv-x="1280" 
d="M1053 0h-1084l41 197l463 475h-278l36 174h412l412 422h-797l39 184h1053l-41 -190l-406 -416h287l-37 -174h-420l-473 -486h832z" />
    <glyph glyph-name="uni01B6" unicode="&#x1b6;" horiz-adv-x="989" 
d="M96 432l35 156h309l236 223h-516l37 174h761l-36 -174l-236 -223h182l-34 -156h-312l-270 -258h551l-37 -174h-797l37 172l273 260h-183z" />
    <glyph glyph-name="Aringacute" unicode="&#x1fa;" horiz-adv-x="1406" 
d="M670 1524q0 106 76 177t174 71q89 0 149.5 -60t60.5 -145q0 -61 -33 -117t-87 -90l237 -1360h-203l-65 406h-608l-236 -406h-227l823 1380q-61 58 -61 144zM846 1223l-367 -631h469zM1321 2091l-313 -244h-199l244 244h268zM905 1642q-40 0 -72 -29t-32 -73q0 -40 24 -63
t64 -23q44 0 75 28.5t31 73.5q0 37 -25.5 61.5t-64.5 24.5z" />
    <glyph glyph-name="aringacute" unicode="&#x1fb;" horiz-adv-x="1181" 
d="M743 1530q89 0 150 -60t61 -145q0 -95 -73.5 -169.5t-171.5 -74.5q-90 0 -152.5 58.5t-62.5 142.5q0 106 75.5 177t173.5 71zM625 1298q0 -40 24 -63t64 -23q44 0 75 29t31 74q0 37 -25.5 61.5t-64.5 24.5q-40 0 -72 -29.5t-32 -73.5zM1188 1903l-318 -299h-172l236 299
h254zM590 848q-102 0 -179.5 -68t-114 -165t-36.5 -201q0 -122 59.5 -195.5t174.5 -73.5q140 0 232.5 128.5t92.5 320.5q0 113 -57.5 183.5t-171.5 70.5zM913 985h191l-154 -729q-22 -98 -22 -223q0 -7 0.5 -15t1.5 -13v-5h-182v2q-1 3 -1.5 7.5t-1.5 11t-1.5 16t-0.5 20.5
q0 41 2 68q-54 -66 -129 -105.5t-161 -39.5q-185 0 -287 121.5t-102 310.5q0 160 64 297t183 221t267 84q116 0 193.5 -44t113.5 -110z" />
    <glyph glyph-name="AEacute" unicode="&#x1fc;" horiz-adv-x="2072" 
d="M1202 186h672l-39 -186h-872l81 391h-575l-334 -391h-254l1260 1452h1001l-39 -186h-671l-95 -447h609l-41 -188h-609zM623 571h460l152 717zM1718 1798l-313 -244h-199l244 244h268z" />
    <glyph glyph-name="aeacute" unicode="&#x1fd;" horiz-adv-x="1753" 
d="M379 571l287 9q44 2 70 29t26 75q0 70 -57 120t-166 50q-89 0 -156 -47.5t-90 -124.5l-166 53q40 130 161.5 205.5t272.5 75.5q115 0 199 -41.5t129 -110.5q73 73 167 112.5t195 39.5q195 0 301.5 -109t106.5 -289q0 -84 -29 -180h-725q-2 -14 -2 -35q0 -119 72 -191.5
t178 -72.5t179 47t112 117l145 -94q-56 -103 -171 -171.5t-261 -68.5q-129 0 -230.5 56t-154.5 161q-147 -217 -399 -217q-163 0 -258 80t-95 205q0 138 103.5 225t255.5 92zM219 264q0 -63 49 -99t121 -36q50 0 99 17t96.5 51.5t82.5 97t48 145.5l-324 -12
q-72 -3 -122 -44.5t-50 -119.5zM1241 846q-117 0 -198.5 -73.5t-110.5 -178.5h524q4 16 4 41q0 39 -11.5 74.5t-36 67t-68.5 50.5t-103 19zM1298 1411l-317 -299h-172l235 299h254z" />
    <glyph glyph-name="Oslashacute" unicode="&#x1fe;" horiz-adv-x="1597" 
d="M127 602q0 169 44 314t119 247.5t174 175.5t210 108.5t225 35.5q254 0 422 -146l158 160l120 -117l-167 -170q94 -151 94 -362q0 -169 -44 -313.5t-119 -247t-174 -175.5t-209 -108t-224 -35q-253 0 -418 140l-150 -152l-120 117l159 159q-100 152 -100 369zM332 623
q0 -136 47 -236l799 807q-116 104 -291 104q-129 0 -236 -56.5t-175.5 -151.5t-106 -215.5t-37.5 -251.5zM1321 827q0 132 -43 230l-799 -805q110 -98 287 -98q129 0 236 56.5t175.5 150.5t106 214.5t37.5 251.5zM1366 1798l-313 -244h-199l244 244h268z" />
    <glyph glyph-name="oslashacute" unicode="&#x1ff;" horiz-adv-x="1155" 
d="M88 -57l-106 110l141 135q-55 104 -55 236q0 253 154 422.5t384 169.5q168 0 283 -94l125 120l106 -110l-135 -129q57 -102 57 -240q0 -164 -69.5 -300t-192.5 -215t-274 -79q-170 0 -287 99zM846 559q0 51 -12 98l-480 -460q66 -56 160 -56q135 0 233.5 113t98.5 305z
M594 844q-64 0 -122.5 -28t-105 -79t-74.5 -131.5t-28 -177.5q0 -58 10 -94l478 457q-62 53 -158 53zM1040 1411l-317 -299h-172l235 299h254z" />
    <glyph glyph-name="Scommaaccent" unicode="&#x218;" horiz-adv-x="1210" 
d="M573 150q129 2 206 64.5t77 166.5q0 63 -39.5 117t-116.5 90l-192 86q-264 122 -264 375q0 183 139.5 308.5t347.5 125.5q102 0 185 -27.5t135.5 -70.5t88.5 -99t51 -109.5t15 -105.5l-190 -37q0 28 -5.5 58.5t-25 70t-50.5 70t-88 51.5t-132 21q-114 0 -190 -67.5
t-76 -162.5q0 -138 135 -201l198 -92q283 -132 283 -383q0 -85 -35.5 -163t-98 -137t-155 -94.5t-198.5 -35.5q-110 0 -200 29t-150 76.5t-101.5 111t-59.5 130.5t-18 137v30l203 35q-2 -14 -2 -41q0 -63 18.5 -119.5t56 -104t101.5 -75.5t147 -28zM340 -188q0 50 37.5 82
t93.5 32q48 0 84.5 -32.5t36.5 -92.5q0 -49 -16.5 -90.5t-43.5 -68.5t-61 -45.5t-68 -26.5t-67 -8q-15 0 -29 2l19 80q51 0 93 19.5t58 64.5q-13 -9 -37 -9q-44 0 -72 26.5t-28 66.5z" />
    <glyph glyph-name="scommaaccent" unicode="&#x219;" horiz-adv-x="909" 
d="M182 -188q0 50 37.5 82t93.5 32q48 0 84.5 -32.5t36.5 -92.5q0 -49 -16.5 -90.5t-43.5 -68.5t-61 -45.5t-68 -26.5t-67 -8q-14 0 -28 2l18 80q51 0 93 19.5t58 64.5q-14 -9 -36 -9q-44 0 -72.5 26.5t-28.5 66.5zM10 307l170 39q2 -91 60 -152t155 -61q77 0 117.5 38.5
t40.5 92.5q0 73 -92 117l-144 65q-176 79 -176 250q0 131 99.5 225.5t261.5 94.5q74 0 134.5 -20t98 -50t64 -70t38.5 -75.5t15 -69.5l-172 -47q-5 32 -16.5 59t-33 53.5t-59.5 42t-88 15.5q-71 0 -113 -38t-42 -91q0 -74 78 -111l135 -61q98 -44 151 -115t53 -159
q0 -40 -12 -81t-39.5 -82.5t-68 -74t-103 -52.5t-137.5 -20q-96 0 -171.5 32.5t-118 84t-64 108.5t-21.5 113z" />
    <glyph glyph-name="uni021A" unicode="&#x21a;" horiz-adv-x="1198" 
d="M1300 1268h-450l-268 -1268h-201l268 1268h-469l39 184h1120zM309 -188q0 50 37.5 82t93.5 32q48 0 84.5 -32.5t36.5 -92.5q0 -49 -16.5 -90.5t-43.5 -68.5t-61 -45.5t-68 -26.5t-67 -8q-15 0 -29 2l19 80q51 0 93 19.5t58 64.5q-14 -9 -36 -9q-44 0 -72.5 26.5
t-28.5 66.5z" />
    <glyph glyph-name="uni021B" unicode="&#x21b;" horiz-adv-x="684" 
d="M121 -188q0 50 37.5 82t93.5 32q48 0 84.5 -32.5t36.5 -92.5q0 -49 -16.5 -90.5t-43.5 -68.5t-61 -45.5t-68 -26.5t-67 -8q-15 0 -29 2l18 80q51 0 93.5 19.5t58.5 64.5q-14 -9 -37 -9q-44 0 -72 26.5t-28 66.5zM453 158q9 0 19 0.5t17.5 1t14 1t10.5 1.5h4l-33 -158
q-28 -14 -104 -14q-108 0 -173 58.5t-65 160.5q0 33 9 74l112 528h-180l37 174h29q169 0 202 160l33 151h176l-67 -311h198l-37 -174h-198l-109 -518q-6 -27 -6 -47q0 -88 111 -88z" />
    <glyph glyph-name="dotlessj" unicode="&#x237;" horiz-adv-x="499" 
d="M0 -117l238 1102h190l-244 -1147q-26 -122 -105 -190t-192 -68q-81 0 -139 29l33 153q36 -12 76 -12q64 0 96.5 32t46.5 101z" />
    <glyph glyph-name="uni0259" unicode="&#x259;" horiz-adv-x="1120" 
d="M49 389q0 75 17 152h759v26q0 125 -66 202t-202 77q-96 0 -172 -45.5t-119 -120.5l-147 78q64 118 183 188t265 70q107 0 192 -34t138 -94t81 -138.5t28 -169.5q0 -148 -40.5 -266t-112 -192.5t-165 -113.5t-203.5 -39q-201 0 -318.5 118t-117.5 302zM801 385h-559
q-2 -8 -2 -23q0 -99 68.5 -162t193.5 -63q111 0 187.5 67t111.5 181z" />
    <glyph glyph-name="circumflex" unicode="&#x2c6;" horiz-adv-x="788" 
d="M72 1116h-185l269 285h231l145 -285h-174l-106 166z" />
    <glyph glyph-name="caron" unicode="&#x2c7;" horiz-adv-x="788" 
d="M410 1407h186l-266 -291h-236l-143 291h172l106 -166z" />
    <glyph glyph-name="uni02C9" unicode="&#x2c9;" horiz-adv-x="667" 
d="M461 1182h-559v166h559v-166z" />
    <glyph glyph-name="breve" unicode="&#x2d8;" horiz-adv-x="741" 
d="M178 1114q-117 0 -183.5 70t-66.5 170q0 28 6 55h142q-2 -12 -2 -16q0 -47 29.5 -81t93.5 -34q71 0 116.5 40t61.5 91h157q-13 -57 -40.5 -107.5t-70 -93.5t-105.5 -68.5t-138 -25.5z" />
    <glyph glyph-name="dotaccent" unicode="&#x2d9;" horiz-adv-x="407" 
d="M-84 1245q0 57 42.5 102.5t102.5 45.5q51 0 85 -34.5t34 -82.5q0 -60 -43 -104t-102 -44q-52 0 -85.5 33.5t-33.5 83.5z" />
    <glyph glyph-name="ring" unicode="&#x2da;" horiz-adv-x="600" 
d="M168 1536q89 0 150 -60t61 -145q0 -95 -73.5 -169.5t-172.5 -74.5q-90 0 -152.5 58.5t-62.5 142.5q0 106 76 177t174 71zM49 1305q0 -40 24 -63t64 -23q44 0 75.5 28.5t31.5 73.5q0 37 -25.5 61.5t-64.5 24.5q-40 0 -72.5 -29t-32.5 -73z" />
    <glyph glyph-name="ogonek" unicode="&#x2db;" horiz-adv-x="477" 
d="M55 -442q-86 0 -138 47t-52 125q0 61 25 113t68 88.5t82.5 60t84.5 41.5l127 -33q-221 -96 -221 -223q0 -38 25.5 -58t64.5 -20q37 0 67 6l-28 -131q-46 -16 -105 -16z" />
    <glyph glyph-name="tilde" unicode="&#x2dc;" horiz-adv-x="772" 
d="M31 1135h-144q14 132 78 195t156 63q69 0 139 -50l25 -16q1 -1 8.5 -6t9 -5.5t8 -4.5t9 -4.5t8 -3t9.5 -3t9.5 -1.5t11.5 -1q63 0 80 91h142q-24 -139 -83 -199t-149 -60q-69 0 -139 50l-25 16q-1 1 -8.5 6t-9 5.5t-8 4.5t-9 4.5t-8 3t-9.5 3t-9.5 1.5t-11.5 1
q-64 0 -80 -90z" />
    <glyph glyph-name="hungarumlaut" unicode="&#x2dd;" horiz-adv-x="751" 
d="M270 1411l-247 -299h-142l168 299h221zM565 1411l-268 -299h-141l188 299h221z" />
    <glyph glyph-name="uni0394" unicode="&#x394;" horiz-adv-x="1384" 
d="M1026 184l-395 1039l-389 -1039h784zM-43 0l569 1452h215l572 -1452h-1356z" />
    <glyph glyph-name="uni03A9" unicode="&#x3a9;" horiz-adv-x="1742" 
d="M874 1303q-96 0 -187.5 -33.5t-166 -95.5t-119.5 -160.5t-45 -218.5q0 -107 38 -200.5t101 -158t137.5 -107t153.5 -59.5v-270h-624v180h407q-80 29 -153.5 84.5t-133 132t-95 179.5t-35.5 217q0 158 59.5 290t160 218.5t230.5 134t272 47.5t272 -47.5t230.5 -134
t160.5 -218.5t60 -290q0 -92 -23.5 -177t-63.5 -153t-93.5 -124.5t-114 -96t-124.5 -62.5h409v-180h-624v270q79 17 153.5 59.5t137.5 107t101 158t38 200.5q0 120 -45.5 218.5t-120 160.5t-166 95.5t-187.5 33.5z" />
    <glyph glyph-name="uni03BC" unicode="&#x3bc;" horiz-adv-x="1202" 
d="M154 -389v1374h194v-592q0 -111 54.5 -182.5t168.5 -71.5t174 68t60 184v594h192v-803q0 -27 1 -56t2.5 -50.5t3.5 -38.5t3 -27l1 -10h-185q-8 46 -8 119q-38 -73 -118.5 -111.5t-172.5 -38.5q-101 0 -178 41v-399h-192z" />
    <glyph glyph-name="pi" unicode="&#x3c0;" horiz-adv-x="1402" 
d="M1034 817v-567q0 -52 30.5 -76t80.5 -24q36 0 63 8v-148q-60 -24 -125 -24q-119 0 -180 70.5t-61 172.5v588h-338v-817h-193v817h-168v168h1061v-168h-170z" />
    <glyph glyph-name="Wgrave" unicode="&#x1e80;" horiz-adv-x="1994" 
d="M1096 1554l-219 244h241l154 -244h-176zM1049 1452h211l129 -1149l516 1149h202l-669 -1452h-199l-129 1178l-573 -1178h-205l-113 1452h195l80 -1137z" />
    <glyph glyph-name="wgrave" unicode="&#x1e81;" horiz-adv-x="1622" 
d="M817 1112l-192 299h229l115 -299h-152zM772 985h203l94 -735l371 735h211l-523 -985h-198l-99 745l-389 -745h-202l-101 985h185l63 -733z" />
    <glyph glyph-name="Wacute" unicode="&#x1e82;" horiz-adv-x="1994" 
d="M1511 1798l-313 -244h-199l244 244h268zM1049 1452h211l129 -1149l516 1149h202l-669 -1452h-199l-129 1178l-573 -1178h-205l-113 1452h195l80 -1137z" />
    <glyph glyph-name="wacute" unicode="&#x1e83;" horiz-adv-x="1622" 
d="M1266 1411l-318 -299h-172l236 299h254zM772 985h203l94 -735l371 735h211l-523 -985h-198l-99 745l-389 -745h-202l-101 985h185l63 -733z" />
    <glyph glyph-name="Wdieresis" unicode="&#x1e84;" horiz-adv-x="1994" 
d="M858 1665q0 58 38.5 95.5t96.5 37.5q47 0 77 -30.5t30 -75.5q0 -59 -39.5 -97.5t-93.5 -38.5q-46 0 -77.5 31t-31.5 78zM1329 1665q0 58 38.5 95.5t96.5 37.5q47 0 77 -30.5t30 -75.5q0 -59 -39.5 -97.5t-93.5 -38.5q-46 0 -77.5 31t-31.5 78zM1049 1452h211l129 -1149
l516 1149h202l-669 -1452h-199l-129 1178l-573 -1178h-205l-113 1452h195l80 -1137z" />
    <glyph glyph-name="wdieresis" unicode="&#x1e85;" horiz-adv-x="1622" 
d="M596 1257q0 54 38.5 94t92.5 40q48 0 78.5 -32.5t30.5 -76.5q0 -55 -41.5 -92t-94.5 -37q-44 0 -74 30.5t-30 73.5zM995 1257q0 54 38.5 94t92.5 40q48 0 78.5 -32.5t30.5 -76.5q0 -55 -41 -92t-94 -37q-44 0 -74.5 30.5t-30.5 73.5zM772 985h203l94 -735l371 735h211
l-523 -985h-198l-99 745l-389 -745h-202l-101 985h185l63 -733z" />
    <glyph glyph-name="uni1E8A" unicode="&#x1e8a;" horiz-adv-x="1265" 
d="M694 1667q0 58 42.5 100.5t101.5 42.5q53 0 86.5 -34t33.5 -82q0 -60 -43 -104t-102 -44q-53 0 -86 34.5t-33 86.5zM633 549l-475 -549h-250l637 729l-332 723h219l252 -559l481 559h252l-645 -739l330 -713h-221z" />
    <glyph glyph-name="uni1E8B" unicode="&#x1e8b;" horiz-adv-x="1040" 
d="M496 1245q0 57 42.5 102.5t102.5 45.5q51 0 85 -34.5t34 -82.5q0 -60 -43.5 -104t-102.5 -44q-52 0 -85 33.5t-33 83.5zM481 356l-325 -356h-248l481 504l-258 481h211q34 -68 99.5 -194.5t76.5 -147.5l311 342h246l-465 -487q23 -41 119 -221t150 -277h-211z" />
    <glyph glyph-name="Ygrave" unicode="&#x1ef2;" horiz-adv-x="1263" 
d="M543 625l-332 827h211l252 -637l467 637h239l-641 -840l-127 -612h-200zM702 1554l-219 244h242l154 -244h-177z" />
    <glyph glyph-name="ygrave" unicode="&#x1ef3;" horiz-adv-x="1028" 
d="M559 1112l-192 299h229l115 -299h-152zM168 -389h-221l370 559l-241 815h209l174 -618l385 618h227z" />
    <glyph glyph-name="uni2007" unicode="&#x2007;" horiz-adv-x="1271" 
 />
    <glyph glyph-name="uni2008" unicode="&#x2008;" horiz-adv-x="514" 
 />
    <glyph glyph-name="uni200B" unicode="&#x200b;" horiz-adv-x="0" 
 />
    <glyph glyph-name="endash" unicode="&#x2013;" horiz-adv-x="1329" 
d="M1167 504h-1048l35 168h1048z" />
    <glyph glyph-name="emdash" unicode="&#x2014;" horiz-adv-x="2232" 
d="M2071 504h-1952l35 168h1951z" />
    <glyph glyph-name="quoteleft" unicode="&#x2018;" horiz-adv-x="514" 
d="M496 1061q0 -61 -44.5 -103.5t-109.5 -42.5q-62 0 -103.5 41.5t-41.5 114.5q0 99 48.5 188.5t135.5 147.5t192 63l-20 -102q-79 -13 -141.5 -70.5t-77.5 -128.5q13 9 43 9q51 0 85 -32t34 -85z" />
    <glyph glyph-name="quoteright" unicode="&#x2019;" horiz-adv-x="518" 
d="M272 1325q0 61 44.5 103t109.5 42q62 0 103.5 -41t41.5 -114q0 -99 -48.5 -189t-136 -148t-191.5 -63l20 103q79 13 141.5 70.5t77.5 128.5q-14 -9 -43 -9q-51 0 -85 32t-34 85z" />
    <glyph glyph-name="quotesinglbase" unicode="&#x201a;" horiz-adv-x="536" 
d="M25 106q0 62 44.5 104t108.5 42q62 0 104 -42t42 -114q0 -99 -48.5 -188.5t-136 -147.5t-192.5 -63l20 102q79 13 141.5 70.5t77.5 128.5q-12 -8 -43 -8q-51 0 -84.5 31.5t-33.5 84.5z" />
    <glyph glyph-name="quotedblleft" unicode="&#x201c;" horiz-adv-x="872" 
d="M858 1077q0 -61 -41 -100t-106 -39q-60 0 -100 40t-40 109q0 145 104.5 259t258.5 124l-21 -98q-73 -13 -134.5 -69t-76.5 -121q9 6 41 6q49 0 82 -30t33 -81zM487 1077q0 -61 -41 -100t-106 -39q-60 0 -99.5 40t-39.5 109q0 95 46.5 180t130 140.5t185.5 62.5l-20 -98
q-73 -13 -134.5 -69t-76.5 -121q9 6 41 6q49 0 81.5 -30t32.5 -81z" />
    <glyph glyph-name="quotedblright" unicode="&#x201d;" horiz-adv-x="878" 
d="M274 1325q0 60 42.5 99.5t105.5 39.5q60 0 99.5 -40t39.5 -109q0 -95 -46 -181t-130.5 -141.5t-185.5 -60.5l20 98q75 13 135.5 68t75.5 123q-11 -7 -41 -7q-49 0 -82 30t-33 81zM645 1325q0 60 42.5 99.5t105.5 39.5q59 0 99 -40t40 -109q0 -146 -105 -261t-258 -122
l21 98q75 13 135.5 68t75.5 123q-11 -7 -41 -7q-49 0 -82 30t-33 81z" />
    <glyph glyph-name="quotedblbase" unicode="&#x201e;" horiz-adv-x="870" 
d="M23 102q0 60 42 100t105 40q59 0 99 -40t40 -110q0 -95 -46 -181t-130.5 -141.5t-185.5 -60.5l20 98q75 13 135.5 68t75.5 123q-9 -6 -41 -6q-49 0 -81.5 29.5t-32.5 80.5zM373 102q0 60 42 100t105 40q59 0 99 -40t40 -110q0 -95 -46 -181t-130.5 -141.5t-185.5 -60.5
l20 98q75 13 135.5 68t75.5 123q-9 -6 -41 -6q-49 0 -81.5 29.5t-32.5 80.5z" />
    <glyph glyph-name="dagger" unicode="&#x2020;" horiz-adv-x="845" 
d="M518 1452h168l-65 -305h262l-37 -166h-260l-137 -649h-168l137 649h-260l37 166h258z" />
    <glyph glyph-name="daggerdbl" unicode="&#x2021;" horiz-adv-x="3749" 
d="M2458 -12q36 0 63 27t27 65q0 51 -43 76q-367 227 -863 227q-249 0 -538 -66q-31 -8 -50.5 -31.5t-19.5 -54.5q0 -37 24.5 -63.5t63.5 -26.5q8 0 24 3t35 8t25 6q226 47 441 47q429 0 763 -203q24 -14 48 -14zM2615 371q45 0 79 33.5t34 80.5q0 67 -53 97
q-216 132 -489 202t-556 70q-306 0 -577 -82q-36 -10 -58 -40.5t-22 -67.5q0 -46 29 -78.5t77 -32.5q21 0 33 2.5t36.5 10t53.5 14.5q199 49 424 49q254 0 498 -62.5t432 -179.5q29 -16 59 -16zM2728 836q32 -19 68 -19q57 0 97 39t40 96q0 34 -18 65.5t-50 49.5
q-247 144 -558.5 214.5t-655.5 70.5q-378 0 -678 -90q-44 -13 -70 -49t-26 -80q0 -54 38 -96t95 -42q21 0 39 6q267 80 614 80q295 0 576.5 -61t488.5 -184zM430 670q0 197 52 384.5t145.5 346t227 292t292 226.5t346 145t383.5 52t383.5 -52t345.5 -145t291.5 -226.5
t226.5 -292t145 -346t52 -384.5t-52 -384t-145 -345.5t-226.5 -292t-291.5 -226t-345.5 -144.5t-383.5 -52t-383.5 52t-346 144.5t-292 226t-227 292t-145.5 345.5t-52 384z" />
    <glyph glyph-name="bullet" unicode="&#x2022;" horiz-adv-x="1153" 
d="M152 592q0 177 124 301.5t299 124.5t299.5 -124.5t124.5 -301.5q0 -174 -125 -299t-299 -125t-298.5 125t-124.5 299z" />
    <glyph glyph-name="ellipsis" unicode="&#x2026;" horiz-adv-x="1693" 
d="M145 -10q-56 0 -90.5 33.5t-34.5 82.5q0 60 44.5 105t105.5 45q56 0 89.5 -34t33.5 -85q0 -62 -44 -104.5t-104 -42.5zM741 -10q-56 0 -90.5 33.5t-34.5 82.5q0 60 44.5 105t105.5 45q56 0 89.5 -34t33.5 -85q0 -62 -44 -104.5t-104 -42.5zM1339 -10q-56 0 -90.5 33.5
t-34.5 82.5q0 60 44.5 105t105.5 45q56 0 89.5 -34t33.5 -85q0 -62 -44 -104.5t-104 -42.5z" />
    <glyph glyph-name="perthousand" unicode="&#x2030;" horiz-adv-x="2252" 
d="M840 1178q0 -97 -52.5 -179.5t-135.5 -128t-173 -45.5q-127 0 -210 83.5t-83 205.5q0 145 106 250.5t253 105.5q126 0 210.5 -84.5t84.5 -207.5zM387 0h-188l1216 1452h189zM496 985q70 0 122 52t52 134q0 62 -39 100t-105 38q-68 0 -119 -53.5t-51 -129.5
q0 -62 38 -101.5t102 -39.5zM1763 -18q-75 0 -138 32t-103 88q-51 -57 -122 -88.5t-145 -31.5q-127 0 -209.5 83t-82.5 205q0 145 105.5 251t252.5 106q75 0 138.5 -32t103.5 -89q108 121 266 121q125 0 210 -84.5t85 -208.5q0 -97 -53 -179t-135.5 -127.5t-172.5 -45.5z
M1780 141q70 0 122 52.5t52 134.5q0 62 -39 99.5t-105 37.5q-68 0 -119 -53t-51 -129q0 -62 38 -102t102 -40zM1272 141q70 0 122 52.5t52 134.5q0 62 -38.5 99.5t-104.5 37.5q-68 0 -119 -53t-51 -129q0 -63 38 -102.5t101 -39.5z" />
    <glyph glyph-name="guilsinglleft" unicode="&#x2039;" horiz-adv-x="659" 
d="M473 203h-190l-201 397l350 385h211l-360 -403z" />
    <glyph glyph-name="guilsinglright" unicode="&#x203a;" horiz-adv-x="655" 
d="M180 985h191l200 -397l-350 -385h-211l361 403z" />
    <glyph glyph-name="uni2042" unicode="&#x2042;" horiz-adv-x="1656" 
d="M1049 1452l-48 -248l240 78l16 -133l-243 -78l114 -190l-120 -86l-117 202l-186 -200l-103 86l191 194l-215 76l63 129l211 -78l39 248h158zM485 637l-47 -248l240 78l16 -133l-243 -78l114 -190l-121 -86l-116 202l-187 -200l-102 86l190 194l-215 76l64 129l211 -78
l39 248h157zM1325 637l-47 -248l240 78l16 -133l-244 -78l115 -190l-121 -86l-117 202l-186 -200l-102 86l190 194l-215 76l64 129l210 -78l39 248h158z" />
    <glyph glyph-name="fraction" unicode="&#x2044;" horiz-adv-x="311" 
d="M903 1452l-1237 -1452h-198l1241 1452h194z" />
    <glyph glyph-name="uni2051" unicode="&#x2051;" horiz-adv-x="909" 
d="M713 1452l-47 -248l239 78l17 -133l-244 -78l115 -190l-121 -86l-117 202l-186 -200l-103 86l191 194l-215 76l63 129l211 -78l39 248h158zM516 637l-47 -248l240 78l16 -133l-244 -78l115 -190l-121 -86l-117 202l-186 -200l-102 86l190 194l-215 76l64 129l210 -78
l39 248h158z" />
    <glyph glyph-name="uni2070" unicode="&#x2070;" horiz-adv-x="788" 
d="M172 969q0 68 13 136t42 133.5t71.5 115.5t106 81t140.5 31q130 0 202 -79t72 -201q0 -97 -23 -185t-67.5 -158t-116.5 -111.5t-163 -41.5q-55 0 -99 15q-87 26 -132.5 96t-45.5 168zM406 834q24 -7 51 -7q55 0 99 35.5t68.5 90.5t37 114t12.5 115q0 63 -33 105t-106 42
q-62 0 -108.5 -42t-69 -104.5t-32.5 -115.5t-10 -94q0 -47 22.5 -86t68.5 -53z" />
    <glyph glyph-name="uni2074" unicode="&#x2074;" horiz-adv-x="759" 
d="M119 860l33 174l421 418h181l-99 -459h133l-28 -133h-131q0 -1 -2 -12q-12 -53 -31 -143h-156l33 155h-354zM500 993l63 281l-282 -281h219z" />
    <glyph glyph-name="uni2075" unicode="&#x2075;" horiz-adv-x="706" 
d="M131 934l156 14q0 -53 31.5 -88t91.5 -35q57 0 98 33.5t41 97.5q0 56 -34 85.5t-87 29.5q-55 0 -100 -33l-131 74l147 340h436l-26 -135h-324l-63 -148q43 25 112 25q104 0 167 -57t63 -162q0 -119 -87 -202t-216 -83q-118 0 -196.5 69t-78.5 175z" />
    <glyph glyph-name="uni2076" unicode="&#x2076;" horiz-adv-x="755" 
d="M827 1419l-55 -114q-59 32 -147 32q-80 0 -151.5 -46t-102.5 -128q49 49 153 49q110 0 175 -62t65 -165q0 -133 -94.5 -214t-220.5 -81q-115 0 -197 78.5t-82 220.5q0 128 55.5 237t161 175.5t238.5 66.5q140 0 202 -49zM481 1081q-62 0 -105.5 -39t-43.5 -100
q0 -56 35.5 -87.5t91.5 -31.5q57 0 100 38t43 108q0 51 -33 81.5t-88 30.5z" />
    <glyph glyph-name="uni2077" unicode="&#x2077;" horiz-adv-x="684" 
d="M821 1452l-28 -131q-47 -32 -83 -60t-96 -85.5t-105.5 -118.5t-94 -154t-80.5 -198h-164q24 101 72.5 198.5t99.5 164t108 124.5t90 85t54 40h-389l26 135h590z" />
    <glyph glyph-name="uni2078" unicode="&#x2078;" horiz-adv-x="727" 
d="M391 1235q0 -37 26 -60.5t66 -23.5q52 0 90.5 26.5t38.5 79.5q0 34 -24.5 57.5t-73.5 26.5q-56 0 -89.5 -28.5t-33.5 -77.5zM299 907q0 -43 35.5 -67.5t87.5 -24.5q64 0 101.5 31t37.5 86q0 40 -32 66t-87 26q-62 0 -102.5 -33t-40.5 -84zM414 690q-129 0 -201 57.5
t-72 145.5q0 68 51.5 123t141.5 78q-42 17 -69 57t-27 80q0 103 78.5 169t211.5 66q106 0 173 -52.5t67 -135.5q0 -63 -40.5 -116.5t-115.5 -80.5q44 -17 75.5 -60t31.5 -87q0 -107 -87.5 -175.5t-217.5 -68.5z" />
    <glyph glyph-name="uni2079" unicode="&#x2079;" horiz-adv-x="753" 
d="M135 764l62 117q73 -52 172 -52q79 0 146.5 47t86.5 134q-26 -31 -67.5 -47.5t-79.5 -16.5q-109 0 -182.5 65.5t-73.5 170.5q0 129 92 207.5t221 78.5q116 0 194 -72t78 -212q0 -143 -46 -252.5t-143 -174.5t-235 -65q-61 0 -124 20t-101 52zM477 1075q60 0 100.5 42
t40.5 106q0 51 -34 82.5t-82 31.5q-58 0 -100 -39t-42 -106q0 -53 32.5 -85t84.5 -32z" />
    <glyph glyph-name="uni2080" unicode="&#x2080;" horiz-adv-x="790" 
d="M-8 117q0 68 13 136t42 133.5t71.5 115.5t106 81t140.5 31q130 0 202 -79t72 -201q0 -97 -23.5 -185t-68 -158t-116.5 -111.5t-163 -41.5q-55 0 -98 15q-87 26 -132.5 96t-45.5 168zM225 -18q24 -7 51 -7q55 0 99 35.5t69 90.5t37.5 114t12.5 115q0 63 -33 105t-107 42
q-50 0 -90.5 -29t-63.5 -70.5t-38.5 -93.5t-21 -92t-5.5 -71q0 -48 22 -86.5t68 -52.5z" />
    <glyph glyph-name="uni2081" unicode="&#x2081;" horiz-adv-x="471" 
d="M207 -147h-158l115 512h-164l20 104q74 3 129.5 38.5t79.5 92.5h140z" />
    <glyph glyph-name="uni2082" unicode="&#x2082;" horiz-adv-x="733" 
d="M182 193l129 57q117 51 117 133q0 39 -27.5 68.5t-76.5 29.5q-63 0 -99.5 -39t-36.5 -118h-153q0 136 81 212t212 76q123 0 191.5 -64t68.5 -157q0 -86 -52 -151t-145 -105l-155 -67q-64 -29 -86 -82h376l-28 -133h-561q24 241 245 340z" />
    <glyph glyph-name="uni2083" unicode="&#x2083;" horiz-adv-x="724" 
d="M211 205l-53 123l233 141h-328l29 133h533l-29 -151l-234 -138q75 -14 125 -69t50 -129q0 -111 -82.5 -193t-218.5 -82q-117 0 -197 64.5t-80 171.5q0 19 4 39l141 10q-2 -8 -2 -23q0 -52 37 -89.5t94 -37.5q64 0 106 34.5t42 96.5q0 49 -35.5 78t-85.5 29q-28 0 -49 -8z
" />
    <glyph glyph-name="uni2084" unicode="&#x2084;" horiz-adv-x="761" 
d="M-61 8l32 174l422 418h180l-98 -459h133l-28 -133h-131q0 -1 -2 -12q-12 -53 -31 -143h-156l33 155h-354zM319 141l64 281l-283 -281h219z" />
    <glyph glyph-name="uni2085" unicode="&#x2085;" horiz-adv-x="704" 
d="M-51 82l155 14q0 -53 31.5 -88t91.5 -35q57 0 98.5 33.5t41.5 97.5q0 56 -34 85.5t-87 29.5q-56 0 -101 -33l-131 74l148 340h436l-27 -135h-323l-64 -148q43 25 113 25q104 0 166.5 -57t62.5 -162q0 -119 -87 -202t-216 -83q-118 0 -196 68.5t-78 175.5z" />
    <glyph glyph-name="uni2086" unicode="&#x2086;" horiz-adv-x="757" 
d="M647 567l-55 -114q-59 32 -148 32q-80 0 -151.5 -46t-102.5 -128q49 49 154 49q110 0 175 -62t65 -165q0 -133 -95 -214t-221 -81q-114 0 -196 78.5t-82 220.5q0 128 55.5 237t160.5 175.5t238 66.5q141 0 203 -49zM301 229q-62 0 -105.5 -39t-43.5 -100
q0 -56 35.5 -87.5t91.5 -31.5q57 0 100 38t43 108q0 51 -33 81.5t-88 30.5z" />
    <glyph glyph-name="uni2087" unicode="&#x2087;" horiz-adv-x="686" 
d="M643 600l-29 -131q-47 -32 -83 -60t-95.5 -85.5t-105 -118.5t-94 -154t-80.5 -198h-164q24 101 72.5 198.5t99.5 164t108 124.5t90 85t54 40h-389l26 135h590z" />
    <glyph glyph-name="uni2088" unicode="&#x2088;" horiz-adv-x="729" 
d="M211 383q0 -37 26 -60.5t66 -23.5q52 0 90.5 27t38.5 80q0 34 -24.5 57t-73.5 26q-56 0 -89.5 -28.5t-33.5 -77.5zM119 55q0 -43 35.5 -67.5t87.5 -24.5q64 0 101.5 31t37.5 86q0 40 -32 66t-87 26q-62 0 -102.5 -33t-40.5 -84zM233 -162q-129 0 -200.5 57.5t-71.5 145.5
q0 68 51.5 123t141.5 78q-42 17 -69.5 57.5t-27.5 79.5q0 103 79 169t212 66q106 0 173 -52.5t67 -135.5q0 -63 -40.5 -116.5t-115.5 -80.5q44 -17 75.5 -60t31.5 -87q0 -107 -88 -175.5t-218 -68.5z" />
    <glyph glyph-name="uni2089" unicode="&#x2089;" horiz-adv-x="755" 
d="M-43 -88l61 117q73 -52 172 -52q79 0 147 47t87 134q-26 -30 -68 -47t-80 -17q-109 0 -182.5 65.5t-73.5 170.5q0 129 92.5 207.5t221.5 78.5q116 0 194 -72t78 -212q0 -143 -46 -252.5t-143 -174.5t-235 -65q-61 0 -124 20t-101 52zM299 223q60 0 100.5 42t40.5 106
q0 51 -34 82.5t-82 31.5q-58 0 -100 -39t-42 -106q0 -53 32.5 -85t84.5 -32z" />
    <glyph glyph-name="Euro" unicode="&#x20ac;" horiz-adv-x="1509" 
d="M950 494h-438q35 -163 154.5 -249.5t302.5 -86.5q169 0 303 88l59 -162q-173 -111 -387 -111q-257 0 -432 144t-215 377h-227l36 153h183v8q0 74 10 140h-166l35 153h174q92 235 302.5 383t465.5 148q263 0 426 -146l-102 -145q-58 51 -149.5 81.5t-192.5 30.5
q-167 0 -314.5 -95t-222.5 -257h686l-104 -153h-637q-11 -56 -11 -148h553z" />
    <glyph glyph-name="uni2113" unicode="&#x2113;" horiz-adv-x="821" 
d="M637 178l-35 -162q-66 -30 -151 -30q-137 0 -213 67t-76 187q0 34 6 71l47 228q-74 -20 -152 -33l35 168q82 15 152 41l98 467q30 145 108.5 221t188.5 76q114 0 178 -64.5t64 -169.5q0 -192 -137 -365t-347 -274l-57 -264q-6 -48 -6 -61q0 -74 44.5 -104t109.5 -30
q72 0 143 31zM522 1171l-76 -358q114 70 190.5 181t76.5 235q0 39 -20.5 62.5t-57.5 23.5q-85 0 -113 -144z" />
    <glyph glyph-name="trademark" unicode="&#x2122;" horiz-adv-x="1804" 
d="M838 1313h-230l-129 -608h-155l129 608h-230l29 139h614zM1669 705h-147l100 477l-301 -477h-121l-106 471l-101 -471h-155l157 747h187l114 -520l324 520h207z" />
    <glyph glyph-name="Omega" unicode="&#x2126;" horiz-adv-x="1802" 
d="M899 1303q-96 0 -187.5 -33.5t-166 -95.5t-119.5 -160.5t-45 -218.5q0 -107 38 -200.5t101 -158t137.5 -107t153.5 -59.5v-270h-625v180h408q-80 29 -153.5 84.5t-133.5 132t-95.5 179.5t-35.5 217q0 158 60 290t160.5 218.5t230.5 134t272 47.5t272 -47.5t230.5 -134
t160.5 -218.5t60 -290q0 -114 -35.5 -217t-95.5 -179.5t-134 -132t-155 -84.5h410v-180h-625v270q79 17 153.5 59.5t137.5 107t101 158t38 200.5q0 120 -45 218.5t-119.5 160.5t-166 95.5t-187.5 33.5z" />
    <glyph glyph-name="uni2160" unicode="&#x2160;" horiz-adv-x="974" 
d="M1073 1452l-37 -180h-307l-231 -1092h305l-37 -180h-809l35 180h309l231 1092h-307l37 180h811z" />
    <glyph glyph-name="uni2161" unicode="&#x2161;" horiz-adv-x="1550" 
d="M1378 180l-37 -180h-1384l35 180h311l234 1092h-312l37 180h1387l-37 -180h-312l-233 -1092h311zM870 180l234 1092h-371l-233 -1092h370z" />
    <glyph glyph-name="uni2162" unicode="&#x2162;" horiz-adv-x="2105" 
d="M1933 180l-37 -180h-1939l35 180h313l230 1092h-310l37 180h1940l-37 -180h-312l-229 -1092h309zM1427 180l230 1092h-363l-231 -1092h364zM731 1272l-229 -1092h364l230 1092h-365z" />
    <glyph glyph-name="uni2163" unicode="&#x2163;" horiz-adv-x="2080" 
d="M1909 180l-37 -180h-1915l35 180h301l233 1092h-299l35 180h1917l-37 -180h-215l-561 -1092h543zM723 1272l-234 -1092h512l-79 1092h-199zM1188 233l522 1039h-592z" />
    <glyph glyph-name="uni2164" unicode="&#x2164;" horiz-adv-x="1593" 
d="M227 1272l37 180h1428l-37 -180h-199l-563 -1092h528l-37 -180h-1427l37 180h536l-79 1092h-224zM715 233l522 1039h-590z" />
    <glyph glyph-name="uni2165" unicode="&#x2165;" horiz-adv-x="2070" 
d="M2169 1452l-37 -180h-285l-233 -1092h284l-36 -180h-1905l37 180h538l-81 1092h-224l37 180h1905zM893 180h524l234 1092h-195zM715 233l522 1039h-590z" />
    <glyph glyph-name="uni2166" unicode="&#x2166;" horiz-adv-x="2646" 
d="M2744 1452l-37 -180h-307l-233 -1092h307l-37 -180h-2480l37 180h538l-81 1092h-224l37 180h2480zM1847 1272l-233 -1092h356l234 1092h-357zM1456 1272l-563 -1092h524l234 1092h-195zM715 233l522 1039h-590z" />
    <glyph glyph-name="uni2167" unicode="&#x2167;" horiz-adv-x="3178" 
d="M3277 1452l-37 -180h-307l-234 -1092h307l-36 -180h-3013l37 180h538l-81 1092h-224l37 180h3013zM1616 180h344l233 1092h-346zM2157 180h346l233 1092h-346zM1456 1272l-561 -1092h524l232 1092h-195zM717 233l522 1039h-592z" />
    <glyph glyph-name="uni2168" unicode="&#x2168;" horiz-adv-x="2023" 
d="M1812 0h-1855l35 180h313l232 1092h-312l37 180h1860l-39 -180h-197l-491 -557l254 -535h200zM662 180l483 543l-258 549h-154l-229 -1092h158zM1647 1272h-539l184 -410zM903 180h522l-178 398z" />
    <glyph glyph-name="uni2169" unicode="&#x2169;" horiz-adv-x="1536" 
d="M186 180l484 543l-258 549h-187l37 180h1372l-37 -180h-186l-493 -557l253 -535h193l-37 -180h-1372l37 180h194zM1171 1272h-538l182 -410zM428 180h522l-178 398z" />
    <glyph glyph-name="uni216C" unicode="&#x216c;" horiz-adv-x="1290" 
d="M1212 584l-122 -584h-1131l35 180h272l232 1092h-271l37 180h758l-37 -180h-291l-233 -1092h477l84 404h190z" />
    <glyph glyph-name="uni216D" unicode="&#x216d;" horiz-adv-x="1554" 
d="M1473 934h-183q-4 71 -27.5 135t-68 118t-118.5 86t-169 32q-118 0 -226 -49t-189 -135t-129 -211t-48 -269q0 -121 34.5 -216t95 -155t142 -91.5t177.5 -31.5q177 0 295 96.5t158 254.5h194l-104 -498h-191l35 168q-147 -195 -422 -195q-124 0 -231.5 41.5t-191.5 121
t-132.5 207t-48.5 288.5q0 188 66.5 350t175.5 269.5t249.5 168t288.5 60.5q163 0 277.5 -68t163.5 -168l43 209h192z" />
    <glyph glyph-name="uni216E" unicode="&#x216e;" horiz-adv-x="1583" 
d="M-8 180h313l234 1092h-312l37 180h664q275 0 434.5 -151t159.5 -429q0 -186 -64.5 -348t-177 -277t-271 -181t-341.5 -66h-711zM498 180h172q124 0 240.5 47t208.5 131.5t148 214t56 281.5q0 109 -31.5 191t-89.5 131t-133.5 72.5t-169.5 23.5h-166z" />
    <glyph glyph-name="uni216F" unicode="&#x216f;" horiz-adv-x="2187" 
d="M791 1452l227 -1147l700 1147h563l-36 -180h-271l-231 -1092h274l-39 -180h-690l37 180h219l213 991l-721 -1163h-147l-230 1155l-206 -983h223l-37 -180h-680l35 180h268l232 1092h-267l37 180h527z" />
    <glyph glyph-name="arrowleft" unicode="&#x2190;" horiz-adv-x="2119" 
d="M578 156l-517 432l517 434v-350h1425v-170h-1425v-346z" />
    <glyph glyph-name="arrowup" unicode="&#x2191;" horiz-adv-x="964" 
d="M578 1638l407 -501h-323v-1440h-170v1440h-324z" />
    <glyph glyph-name="arrowright" unicode="&#x2192;" horiz-adv-x="2117" 
d="M2052 588l-516 -432v346h-1425v170h1425v350z" />
    <glyph glyph-name="arrowdown" unicode="&#x2193;" horiz-adv-x="1003" 
d="M862 184l-434 -516l-432 516h346v1426h170v-1426h350z" />
    <glyph glyph-name="uni2196" unicode="&#x2196;" horiz-adv-x="1882" 
d="M252 1452h598l-238 -240l1112 -1110l-120 -118l-1112 1108l-240 -242v602z" />
    <glyph glyph-name="uni2197" unicode="&#x2197;" horiz-adv-x="1452" 
d="M825 1452h598v-602l-241 242l-1110 -1108l-121 118l1112 1110z" />
    <glyph glyph-name="uni2198" unicode="&#x2198;" horiz-adv-x="1882" 
d="M1686 0h-599l238 240l-1112 1110l121 118l1110 -1110l242 244v-602z" />
    <glyph glyph-name="uni2199" unicode="&#x2199;" horiz-adv-x="1449" 
d="M678 0h-598v602l239 -244l1113 1110l120 -118l-1112 -1110z" />
    <glyph glyph-name="uni21A9" unicode="&#x21a9;" horiz-adv-x="1744" 
d="M881 1190v170h393q184 0 314 -124t130 -304q0 -124 -63.5 -223.5t-166.5 -152t-222 -52.5h-752v-295l-453 379l453 381v-295h741q122 0 208.5 69.5t86.5 188.5t-86 188.5t-215 69.5h-368z" />
    <glyph glyph-name="uni21B0" unicode="&#x21b0;" horiz-adv-x="1662" 
d="M614 723l-452 379l452 381v-295h848v-1188h-170v1018h-678v-295z" />
    <glyph glyph-name="uni21B1" unicode="&#x21b1;" horiz-adv-x="1564" 
d="M383 0h-170v1188h950v295l453 -381l-453 -379v295h-780v-1018z" />
    <glyph glyph-name="uni21B2" unicode="&#x21b2;" horiz-adv-x="1564" 
d="M1239 1452h170v-1188h-950v-295l-453 381l453 379v-295h780v1018z" />
    <glyph glyph-name="uni21B3" unicode="&#x21b3;" horiz-adv-x="1765" 
d="M1204 729l453 -379l-453 -381v295h-950v1188h170v-1018h780v295z" />
    <glyph glyph-name="uni21B4" unicode="&#x21b4;" horiz-adv-x="1826" 
d="M238 1282v170h1187v-1032h295l-381 -453l-378 453h294v862h-1017z" />
    <glyph glyph-name="uni21B5" unicode="&#x21b5;" horiz-adv-x="2170" 
d="M449 297l-367 430h268q1 154 61 294t161 241t241 161t293 60q196 0 373 -97l-76 -151q-140 78 -295 78q-161 0 -296 -78t-212.5 -212.5t-77.5 -295.5h293zM1862 725q-1 -155 -61 -295t-161.5 -241t-241 -160.5t-292.5 -59.5q-196 0 -373 97l76 151q140 -78 295 -78
q161 0 296 78t212.5 212.5t77.5 295.5h-283l367 430l366 -430h-278z" />
    <glyph glyph-name="uni21C6" unicode="&#x21c6;" horiz-adv-x="2328" 
d="M627 727l-453 379l453 381v-295h1546v-170h-1546v-295zM2214 348l-453 -379v295h-1546v170h1546v295z" />
    <glyph glyph-name="partialdiff" unicode="&#x2202;" horiz-adv-x="1232" 
d="M479 1307q-153 0 -286 -64l-66 152q151 88 369 88q57 0 112.5 -9t119 -32.5t119 -60.5t107.5 -98t89 -138.5t59 -188.5t22 -243q0 -348 -145 -546t-418 -198q-96 0 -183 31t-157 89t-111.5 152.5t-41.5 211.5q0 142 69.5 251.5t183 165.5t250.5 56q117 0 208.5 -33
t140.5 -84q-21 255 -136 376.5t-305 121.5zM600 756q-160 0 -248 -90t-88 -226q0 -135 90.5 -214t216.5 -79q74 0 134 27.5t97.5 69t64 94.5t38.5 99t15 89q4 54 4 80q-53 72 -139.5 111t-184.5 39z" />
    <glyph glyph-name="Delta" unicode="&#x2206;" horiz-adv-x="1523" 
d="M1061 184l-395 1039l-390 -1039h785zM-8 0l569 1452h215l572 -1452h-1356z" />
    <glyph glyph-name="product" unicode="&#x220f;" horiz-adv-x="1503" 
d="M1296 0h-194v1274h-643v-1274h-201v1452h1038v-1452z" />
    <glyph glyph-name="summation" unicode="&#x2211;" horiz-adv-x="1447" 
d="M240 0v176l559 555l-559 545v176h1017v-184h-747l551 -537l-569 -547h765v-184h-1017z" />
    <glyph glyph-name="minus" unicode="&#x2212;" horiz-adv-x="1191" 
d="M182 633v162h867v-162h-867z" />
    <glyph glyph-name="uni2215" unicode="&#x2215;" horiz-adv-x="831" 
d="M780 1327h195l-914 -1327h-194z" />
    <glyph glyph-name="uni2219" unicode="&#x2219;" horiz-adv-x="542" 
d="M123 582q0 60 40.5 101.5t100.5 41.5t102 -41.5t42 -101.5t-42 -101t-102 -41t-100.5 41t-40.5 101z" />
    <glyph glyph-name="radical" unicode="&#x221a;" horiz-adv-x="1286" 
d="M1477 1597h-244l-545 -1597h-186l-387 1083h221l260 -766l481 1461h400v-181z" />
    <glyph glyph-name="infinity" unicode="&#x221e;" horiz-adv-x="1656" 
d="M123 719q0 148 101 247t255 99q199 0 375 -219l2 -2q91 111 180 166t187 55q154 0 255 -99t101 -247t-100.5 -246t-255.5 -98q-202 0 -373 215l-4 2q-94 -110 -181.5 -163.5t-185.5 -53.5q-155 0 -255.5 98t-100.5 246zM483 901q-86 0 -138 -52t-52 -132q0 -79 52 -130.5
t138 -51.5q71 0 132 45t133 133q-41 49 -65 75.5t-59 56.5t-69 43t-72 13zM1219 535q86 0 138 51.5t52 130.5q0 80 -52 132t-138 52q-38 0 -72 -12.5t-69.5 -42t-58.5 -53.5t-65 -72q76 -93 135.5 -139.5t129.5 -46.5z" />
    <glyph glyph-name="integral" unicode="&#x222b;" horiz-adv-x="655" 
d="M217 -47v1175q0 151 87 237.5t239 86.5h75v-176h-61q-69 0 -108 -41t-39 -121v-1177q0 -152 -84 -239t-234 -87h-88v176h64q67 0 108 43.5t41 122.5z" />
    <glyph glyph-name="approxequal" unicode="&#x2248;" horiz-adv-x="1300" 
d="M1075 606l105 -92q-119 -170 -299 -170q-96 0 -205 62l-96 53q-65 35 -127 35q-106 0 -187 -93l-108 97q120 174 293 174q92 0 211 -64l94 -51q71 -41 143 -41q101 0 176 90zM1075 1004l105 -93q-119 -170 -299 -170q-96 0 -205 62l-96 53q-65 35 -127 35
q-107 0 -187 -92l-108 96q120 174 293 174q94 0 211 -63l94 -52q71 -41 143 -41q100 0 176 91z" />
    <glyph glyph-name="notequal" unicode="&#x2260;" horiz-adv-x="1261" 
d="M180 834v157h604l150 203h196l-149 -203h147v-157h-264l-176 -238h440v-162h-559l-149 -205h-197l150 205h-193v162h312l176 238h-488z" />
    <glyph glyph-name="lessequal" unicode="&#x2264;" horiz-adv-x="1175" 
d="M162 229v162h844v-162h-844zM162 748v174l844 299v-172l-629 -213l629 -213v-172z" />
    <glyph glyph-name="greaterequal" unicode="&#x2265;" horiz-adv-x="1232" 
d="M1065 391v-162h-844v162h844zM1065 922v-174l-844 -297v172l629 213l-629 213v172z" />
    <glyph glyph-name="dotmath" unicode="&#x22c5;" horiz-adv-x="542" 
d="M123 582q0 60 40.5 101.5t100.5 41.5t102 -41.5t42 -101.5t-42 -101t-102 -41t-100.5 41t-40.5 101z" />
    <glyph glyph-name="uni24C5" unicode="&#x24c5;" horiz-adv-x="1712" 
d="M135 727q0 205 99.5 379t271.5 275.5t375 101.5q153 0 292.5 -60t239.5 -161.5t159.5 -241.5t59.5 -293t-59.5 -293.5t-159.5 -242t-239.5 -162t-292.5 -60.5q-203 0 -375 102t-271.5 276.5t-99.5 379.5zM295 727q0 -127 46 -240t124 -193.5t186.5 -127.5t229.5 -47
q162 0 296 79.5t211.5 219.5t77.5 309t-77.5 308.5t-211.5 218.5t-296 79q-121 0 -229.5 -46.5t-187 -127t-124 -193t-45.5 -239.5zM819 752h107q84 0 133 39.5t49 115.5q0 105 -129 105h-102zM961 621h-170l-62 -299h-149l174 821h270q104 0 170 -68.5t66 -161.5
q0 -125 -86 -208.5t-213 -83.5z" />
    <glyph glyph-name="filledbox" unicode="&#x25a0;" horiz-adv-x="1904" 
d="M252 0v1452h1452v-1452h-1452z" />
    <glyph glyph-name="H22073" unicode="&#x25a1;" horiz-adv-x="1904" 
d="M1704 0h-1452v1452h1452v-1452zM420 1296v-1142h1116v1142h-1116z" />
    <glyph glyph-name="uni25AF" unicode="&#x25af;" horiz-adv-x="1275" 
d="M252 0v1452h823v-1452h-823zM414 162h499v1128h-499v-1128z" />
    <glyph glyph-name="triagup" unicode="&#x25b2;" horiz-adv-x="1830" 
d="M807 1483l854 -1483h-1714z" />
    <glyph glyph-name="uni25B3" unicode="&#x25b3;" horiz-adv-x="1830" 
d="M-53 0l860 1483l854 -1483h-1714zM805 1149l-580 -995h1155z" />
    <glyph glyph-name="lozenge" unicode="&#x25ca;" horiz-adv-x="1134" 
d="M594 229l287 496l-287 498l-289 -498zM678 0h-168l-414 725l414 727h168l414 -727z" />
    <glyph glyph-name="circle" unicode="&#x25cb;" horiz-adv-x="1738" 
d="M1655 725q0 -155 -60 -295.5t-162 -241.5t-242.5 -161t-295.5 -60t-295.5 60t-241.5 161t-161 241.5t-60 295.5t60 295.5t161 242.5t241.5 162t295.5 60t295.5 -60t242.5 -162t162 -242.5t60 -295.5zM1485 725q0 122 -46.5 232.5t-125 190t-188 126.5t-230.5 47
t-230.5 -47t-188 -126.5t-125 -190t-46.5 -232.5t46.5 -232.5t125 -190t188 -126.5t230.5 -47t230.5 47t188 126.5t125 190t46.5 232.5z" />
    <glyph glyph-name="H18533" unicode="&#x25cf;" horiz-adv-x="1738" 
d="M137 725q0 155 60 295.5t161 242.5t241.5 162t295.5 60t295.5 -60t242.5 -162t162 -242.5t60 -295.5t-60 -295.5t-162 -241.5t-242.5 -161t-295.5 -60t-295.5 60t-241.5 161t-161 241.5t-60 295.5z" />
    <glyph glyph-name="uni262E" unicode="&#x262e;" horiz-adv-x="1716" 
d="M1634 727q0 -153 -59.5 -293.5t-159.5 -242t-239.5 -162t-292.5 -60.5q-203 0 -375 102t-271.5 276.5t-99.5 379.5t99.5 379t271.5 275.5t375 101.5q153 0 292.5 -60t239.5 -161.5t159.5 -241.5t59.5 -293zM1468 727q0 233 -143 401t-360 199v-491l421 -422
q82 145 82 313zM297 727q0 -170 80 -311l420 420v491q-217 -31 -358.5 -199t-141.5 -401zM965 125q180 23 317 154l-317 319v-473zM479 281q132 -132 318 -156v473z" />
    <glyph glyph-name="uni2713" unicode="&#x2713;" horiz-adv-x="1824" 
d="M1939 1372l-1306 -1407l-578 645l123 117l463 -506l1176 1272z" />
    <glyph glyph-name="uni2715" unicode="&#x2715;" horiz-adv-x="1808" 
d="M330 -10l-119 119l602 616l-602 616l121 119l600 -614l600 614l121 -119l-604 -616l604 -616l-119 -119l-602 614z" />
    <glyph glyph-name="uni2780" unicode="&#x2780;" horiz-adv-x="1716" 
d="M297 727q0 -127 46 -240t124 -193.5t186.5 -127.5t229.5 -47q162 0 296 79.5t211.5 219.5t77.5 309t-77.5 308.5t-211.5 218.5t-296 79q-121 0 -229.5 -46.5t-187 -127t-124 -193t-45.5 -239.5zM137 727q0 205 99.5 379t271.5 275.5t375 101.5q153 0 292.5 -60
t239.5 -161.5t159.5 -241.5t59.5 -293t-59.5 -293.5t-159.5 -242t-239.5 -162t-292.5 -60.5q-203 0 -375 102t-271.5 276.5t-99.5 379.5zM991 354h-157v502h-177v107q74 1 126 41t63 98h145v-748z" />
    <glyph glyph-name="uni2781" unicode="&#x2781;" horiz-adv-x="1716" 
d="M297 727q0 -127 46 -240t124 -193.5t186.5 -127.5t229.5 -47q162 0 296 79.5t211.5 219.5t77.5 309t-77.5 308.5t-211.5 218.5t-296 79q-121 0 -229.5 -46.5t-187 -127t-124 -193t-45.5 -239.5zM137 727q0 205 99.5 379t271.5 275.5t375 101.5q153 0 292.5 -60
t239.5 -161.5t159.5 -241.5t59.5 -293t-59.5 -293.5t-159.5 -242t-239.5 -162t-292.5 -60.5q-203 0 -375 102t-271.5 276.5t-99.5 379.5zM762 823h-152q-6 30 -6 64q0 100 74 169.5t196 69.5t195.5 -68.5t73.5 -166.5q0 -135 -144 -225l-147 -93q-56 -36 -64 -75h359v-133
h-549v26q0 191 174 297l123 76q88 54 88 129q0 42 -29.5 72t-81.5 30q-53 0 -84.5 -32t-31.5 -86q0 -27 6 -54z" />
    <glyph glyph-name="uni2782" unicode="&#x2782;" horiz-adv-x="1716" 
d="M137 727q0 205 99.5 379t271.5 275.5t375 101.5q153 0 292.5 -60t239.5 -161.5t159.5 -241.5t59.5 -293t-59.5 -293.5t-159.5 -242t-239.5 -162t-292.5 -60.5q-203 0 -375 102t-271.5 276.5t-99.5 379.5zM297 727q0 -127 46 -240t124 -193.5t186.5 -127.5t229.5 -47
q162 0 296 79.5t211.5 219.5t77.5 309t-77.5 308.5t-211.5 218.5t-296 79q-121 0 -229.5 -46.5t-187 -127t-124 -193t-45.5 -239.5zM811 690l-59 115l194 162h-350v133h555v-129l-205 -164q94 -8 157.5 -66t63.5 -157q0 -104 -83 -176t-214 -72q-125 0 -202.5 61.5
t-98.5 149.5l138 55q9 -59 53.5 -95t107.5 -36q62 0 101 32.5t39 80.5q0 59 -40.5 86.5t-99.5 27.5q-29 0 -57 -8z" />
    <glyph glyph-name="uni2783" unicode="&#x2783;" horiz-adv-x="1716" 
d="M297 727q0 -127 46 -240t124 -193.5t186.5 -127.5t229.5 -47q162 0 296 79.5t211.5 219.5t77.5 309t-77.5 308.5t-211.5 218.5t-296 79q-121 0 -229.5 -46.5t-187 -127t-124 -193t-45.5 -239.5zM137 727q0 205 99.5 379t271.5 275.5t375 101.5q153 0 292.5 -60
t239.5 -161.5t159.5 -241.5t59.5 -293t-59.5 -293.5t-159.5 -242t-239.5 -162t-292.5 -60.5q-203 0 -375 102t-271.5 276.5t-99.5 379.5zM526 512v150l363 450h174v-467h131v-133h-131v-147h-158v147h-379zM905 645v285l-227 -285h227z" />
    <glyph glyph-name="uni2784" unicode="&#x2784;" horiz-adv-x="1716" 
d="M297 727q0 -127 46 -240t124 -193.5t186.5 -127.5t229.5 -47q162 0 296 79.5t211.5 219.5t77.5 309t-77.5 308.5t-211.5 218.5t-296 79q-121 0 -229.5 -46.5t-187 -127t-124 -193t-45.5 -239.5zM137 727q0 205 99.5 379t271.5 275.5t375 101.5q153 0 292.5 -60
t239.5 -161.5t159.5 -241.5t59.5 -293t-59.5 -293.5t-159.5 -242t-239.5 -162t-292.5 -60.5q-203 0 -375 102t-271.5 276.5t-99.5 379.5zM571 522l136 62q14 -54 54 -85.5t95 -31.5q61 0 99 33t38 92q0 61 -38 94t-99 33q-76 0 -131 -55l-131 49l100 383h418v-135h-315
l-47 -177q52 58 149 58q115 0 184.5 -66t69.5 -178q0 -113 -79.5 -188.5t-217.5 -75.5q-105 0 -184.5 56t-100.5 132z" />
    <glyph glyph-name="uni2785" unicode="&#x2785;" horiz-adv-x="1716" 
d="M297 727q0 -127 46 -240t124 -193.5t186.5 -127.5t229.5 -47q162 0 296 79.5t211.5 219.5t77.5 309t-77.5 308.5t-211.5 218.5t-296 79q-121 0 -229.5 -46.5t-187 -127t-124 -193t-45.5 -239.5zM137 727q0 205 99.5 379t271.5 275.5t375 101.5q153 0 292.5 -60
t239.5 -161.5t159.5 -241.5t59.5 -293t-59.5 -293.5t-159.5 -242t-239.5 -162t-292.5 -60.5q-203 0 -375 102t-271.5 276.5t-99.5 379.5zM1126 1079l-36 -116q-59 26 -127 26q-100 0 -167.5 -55.5t-84.5 -159.5q27 39 78.5 63.5t107.5 24.5q121 0 193.5 -68.5t72.5 -189.5
q0 -117 -86 -190.5t-215 -73.5q-59 0 -113 21t-98.5 61t-71 107.5t-26.5 152.5q0 197 112 316.5t285 119.5q112 0 176 -39zM723 602q0 -60 42 -94.5t99 -34.5q56 0 98 34.5t42 94.5t-42 94.5t-98 34.5q-57 0 -99 -34.5t-42 -94.5z" />
    <glyph glyph-name="uni2786" unicode="&#x2786;" horiz-adv-x="1716" 
d="M297 727q0 -127 46 -240t124 -193.5t186.5 -127.5t229.5 -47q162 0 296 79.5t211.5 219.5t77.5 309t-77.5 308.5t-211.5 218.5t-296 79q-121 0 -229.5 -46.5t-187 -127t-124 -193t-45.5 -239.5zM137 727q0 205 99.5 379t271.5 275.5t375 101.5q153 0 292.5 -60
t239.5 -161.5t159.5 -241.5t59.5 -293t-59.5 -293.5t-159.5 -242t-239.5 -162t-292.5 -60.5q-203 0 -375 102t-271.5 276.5t-99.5 379.5zM1190 1092v-142q-29 -19 -58 -44.5t-73 -79t-79 -116t-65.5 -159.5t-40.5 -207h-167q10 114 42.5 218.5t71.5 173t76.5 121t62.5 75.5
l25 24h-403v136h608z" />
    <glyph glyph-name="uni2787" unicode="&#x2787;" horiz-adv-x="1716" 
d="M297 727q0 -127 46 -240t124 -193.5t186.5 -127.5t229.5 -47q162 0 296 79.5t211.5 219.5t77.5 309t-77.5 308.5t-211.5 218.5t-296 79q-121 0 -229.5 -46.5t-187 -127t-124 -193t-45.5 -239.5zM137 727q0 205 99.5 379t271.5 275.5t375 101.5q153 0 292.5 -60
t239.5 -161.5t159.5 -241.5t59.5 -293t-59.5 -293.5t-159.5 -242t-239.5 -162t-292.5 -60.5q-203 0 -375 102t-271.5 276.5t-99.5 379.5zM881 799q54 0 85 26.5t31 71.5q0 41 -31 66.5t-85 25.5t-85.5 -25.5t-31.5 -66.5q0 -44 31.5 -71t85.5 -27zM881 471q66 0 101.5 27.5
t35.5 74.5q0 46 -36.5 74.5t-100.5 28.5t-101 -29t-37 -74q0 -47 36 -74.5t102 -27.5zM881 340q-139 0 -218 62t-79 159q0 56 37 104t102 72q-54 23 -84.5 67.5t-30.5 96.5q0 95 77 155t196 60t195.5 -60t76.5 -155q0 -52 -30.5 -96.5t-84.5 -67.5q65 -24 102.5 -72
t37.5 -104q0 -97 -79 -159t-218 -62z" />
    <glyph glyph-name="uni2788" unicode="&#x2788;" horiz-adv-x="1716" 
d="M297 727q0 -127 46 -240t124 -193.5t186.5 -127.5t229.5 -47q162 0 296 79.5t211.5 219.5t77.5 309t-77.5 308.5t-211.5 218.5t-296 79q-121 0 -229.5 -46.5t-187 -127t-124 -193t-45.5 -239.5zM137 727q0 205 99.5 379t271.5 275.5t375 101.5q153 0 292.5 -60
t239.5 -161.5t159.5 -241.5t59.5 -293t-59.5 -293.5t-159.5 -242t-239.5 -162t-292.5 -60.5q-203 0 -375 102t-271.5 276.5t-99.5 379.5zM621 375l36 121q62 -27 127 -27q104 0 172.5 52.5t79.5 158.5q-27 -39 -78.5 -63.5t-107.5 -24.5q-117 0 -191.5 70t-74.5 188
q0 116 86 190t215 74q59 0 112 -21t97 -61t70 -107.5t26 -152.5q0 -207 -109 -321.5t-284 -114.5q-112 0 -176 39zM1020 850q0 60 -41 95.5t-100 35.5q-58 0 -99 -35.5t-41 -95.5t41 -95.5t99 -35.5q59 0 100 35.5t41 95.5z" />
    <glyph glyph-name="uniE000" unicode="&#xe000;" horiz-adv-x="1443" 
d="M422 -33l-381 453h295v1032h1188v-170h-1018v-862h295z" />
    <glyph glyph-name="uniE002" unicode="&#xe002;" horiz-adv-x="1972" 
d="M1208 725l367 430l367 -430h-267q0 -154 -59.5 -294t-161 -241t-241.5 -161t-295 -60q-154 0 -294 60t-241 161t-161 241t-60 294q0 155 60 295.5t161 241.5t241 161t294 60q195 0 372 -97l-76 -151q-140 78 -294 78q-161 0 -296 -78t-212.5 -213t-77.5 -297t77.5 -297.5
t212.5 -214t296 -78.5q121 0 229 46.5t185.5 125.5t123 188t45.5 230h-295z" />
    <glyph glyph-name="commaaccent" unicode="&#xf6c3;" horiz-adv-x="397" 
d="M-106 1081l16 82q116 0 153 84q-16 -8 -38 -8q-43 0 -70 26.5t-27 65.5q0 52 35.5 84.5t89.5 32.5q49 0 85 -30.5t36 -92.5q0 -104 -76 -174t-182 -70h-22z" />
    <glyph glyph-name="uniFB00" unicode="&#xfb00;" horiz-adv-x="1282" 
d="M717 1317q-66 0 -109.5 -36t-62.5 -122l-37 -174h387l43 205q63 303 352 303q88 0 131 -29l-37 -164q-51 17 -81 17q-138 0 -173 -158l-36 -174h223l-37 -170h-223l-172 -815h-199l172 815h-387l-172 -815h-199l172 815h-166l37 170h166l43 205q63 303 353 303
q87 0 131 -29l-37 -164q-51 17 -82 17z" />
    <glyph glyph-name="fi" unicode="&#xfb01;" horiz-adv-x="1208" 
d="M979 1350q0 63 46.5 107t104.5 44q55 0 90 -35.5t35 -87.5q0 -61 -47 -106t-104 -45q-55 0 -90 35.5t-35 87.5zM717 1317q-66 0 -109.5 -36t-62.5 -122l-37 -174h629l-211 -985h-193l174 815h-436l-172 -815h-199l172 815h-166l37 170h166l43 205q63 303 353 303
q87 0 131 -29l-37 -164q-51 17 -82 17z" />
    <glyph glyph-name="fl" unicode="&#xfb02;" horiz-adv-x="1208" 
d="M717 1317q-66 0 -109.5 -36t-62.5 -122l-37 -174h436l107 498h192l-315 -1483h-193l172 815h-436l-172 -815h-199l172 815h-166l37 170h166l43 205q63 303 353 303q87 0 131 -29l-37 -164q-51 17 -82 17z" />
    <glyph glyph-name="uniFB03" unicode="&#xfb03;" horiz-adv-x="1779" 
d="M1550 1350q0 62 47 106.5t105 44.5q55 0 90 -35.5t35 -87.5q0 -61 -47.5 -106t-104.5 -45q-55 0 -90 35.5t-35 87.5zM717 1317q-66 0 -109.5 -36t-62.5 -122l-37 -174h387l43 205q63 303 352 303q88 0 131 -29l-37 -164q-51 17 -81 17q-138 0 -173 -158l-36 -174h614
l-211 -985h-192l174 815h-422l-172 -815h-199l172 815h-387l-172 -815h-199l172 815h-166l37 170h166l43 205q63 303 353 303q87 0 131 -29l-37 -164q-51 17 -82 17z" />
    <glyph glyph-name="uniFB04" unicode="&#xfb04;" horiz-adv-x="1792" 
d="M717 1317q-66 0 -109.5 -36t-62.5 -122l-37 -174h387l43 205q63 303 352 303q88 0 131 -29l-37 -164q-51 17 -81 17q-138 0 -173 -158l-36 -174h434l106 498h193l-316 -1483h-192l174 815h-436l-172 -815h-199l172 815h-387l-172 -815h-199l172 815h-166l37 170h166
l43 205q63 303 353 303q87 0 131 -29l-37 -164q-51 17 -82 17z" />
    <glyph glyph-name="uniFEFF" unicode="&#xfeff;" horiz-adv-x="0" 
 />
    <glyph glyph-name="i.latn_TRK" horiz-adv-x="501" 
d="M272 1350q0 62 47 106.5t105 44.5q55 0 90 -35.5t35 -87.5q0 -61 -47.5 -106t-104.5 -45q-55 0 -90 35.5t-35 87.5zM219 0h-192l211 985h192z" />
    <glyph glyph-name="Ldot.latn_CAT" horiz-adv-x="1099" 
d="M625 684q0 57 42.5 102t102.5 45q52 0 85.5 -34t33.5 -82q0 -60 -43.5 -104t-102.5 -44q-52 0 -85 33.5t-33 83.5zM934 0h-866l307 1452h200l-268 -1264h666z" />
    <glyph glyph-name="ldot.latn_CAT" horiz-adv-x="692" 
d="M463 621q0 57 42.5 102t102.5 45q51 0 85 -34.5t34 -82.5q0 -60 -43 -103.5t-102 -43.5q-52 0 -85.5 33.5t-33.5 83.5zM219 0h-192l315 1483h193z" />
    <glyph glyph-name="zero.dnom" horiz-adv-x="790" 
d="M23 264q0 86 21.5 170.5t64 159.5t117 121.5t169.5 46.5q130 0 202.5 -79.5t72.5 -201.5q0 -97 -23.5 -184.5t-68 -157.5t-116.5 -111.5t-163 -41.5q-57 0 -98 14q-87 26 -132.5 96t-45.5 168zM256 129q21 -6 51 -6q55 0 99 35t68.5 90.5t37 114t12.5 114.5
q0 63 -33 105.5t-106 42.5q-50 0 -90.5 -29t-63.5 -71t-38.5 -93.5t-21 -92t-5.5 -71.5q0 -48 22 -86.5t68 -52.5z" />
    <glyph glyph-name="one.dnom" horiz-adv-x="471" 
d="M240 0h-158l115 512h-164l20 104q74 3 129.5 39t79.5 93h139z" />
    <glyph glyph-name="two.dnom" horiz-adv-x="724" 
d="M211 340l129 57q117 51 117 133q0 39 -28 69t-77 30q-63 0 -99 -39.5t-36 -118.5h-154q0 136 81 212.5t212 76.5q123 0 191.5 -64t68.5 -157q0 -87 -52 -151.5t-144 -104.5l-156 -68q-64 -29 -86 -82h377l-29 -133h-561q24 241 246 340z" />
    <glyph glyph-name="three.dnom" horiz-adv-x="727" 
d="M244 352l-54 123l234 141h-328l29 134h532l-28 -152l-234 -137q75 -14 124.5 -69.5t49.5 -129.5q0 -110 -82.5 -192t-218.5 -82q-117 0 -196.5 64t-79.5 171q0 19 4 39l141 10q-2 -8 -2 -22q0 -52 37 -89.5t94 -37.5q64 0 106 34.5t42 96.5q0 49 -35.5 77.5t-85.5 28.5
q-28 0 -49 -8z" />
    <glyph glyph-name="four.dnom" horiz-adv-x="761" 
d="M-31 156l33 174l422 418h180l-98 -459h133l-29 -133h-131q0 -1 -4 -19q-12 -58 -29 -137h-155l33 156h-355zM350 289l64 280l-283 -280h219z" />
    <glyph glyph-name="five.dnom" horiz-adv-x="706" 
d="M-18 229l155 15q0 -53 31.5 -88t91.5 -35q57 0 98 33.5t41 97.5q0 56 -34 85.5t-86 29.5q-56 0 -101 -33l-131 74l148 340h436l-27 -136h-323l-64 -147q41 24 113 24q104 0 166.5 -57t62.5 -162q0 -119 -86.5 -201.5t-216.5 -82.5q-118 0 -196 68.5t-78 174.5z" />
    <glyph glyph-name="six.dnom" horiz-adv-x="755" 
d="M678 715l-55 -115q-61 33 -148 33q-80 0 -151.5 -46t-102.5 -128q49 49 154 49q110 0 174.5 -62t64.5 -165q0 -133 -94.5 -214t-220.5 -81q-115 0 -197 78.5t-82 220.5q0 128 55.5 237t161 175.5t238.5 66.5q141 0 203 -49zM332 377q-62 0 -106 -39t-44 -100
q0 -56 35.5 -87.5t91.5 -31.5q57 0 100.5 37.5t43.5 107.5q0 51 -33 82t-88 31z" />
    <glyph glyph-name="seven.dnom" horiz-adv-x="686" 
d="M674 748l-29 -132q-47 -32 -83 -60t-96 -85.5t-105.5 -118.5t-94 -154t-80.5 -198h-163q24 101 72.5 198.5t99 164.5t107.5 124.5t90 84.5t54 40h-389l27 136h590z" />
    <glyph glyph-name="eight.dnom" horiz-adv-x="729" 
d="M242 530q0 -37 26 -60.5t66 -23.5q52 0 90.5 27t38.5 80q0 34 -24.5 57.5t-73.5 26.5q-56 0 -89.5 -29t-33.5 -78zM150 203q0 -43 35 -67.5t87 -24.5q64 0 102 30.5t38 85.5q0 40 -32 66t-87 26q-62 0 -102.5 -32.5t-40.5 -83.5zM264 -14q-129 0 -200.5 57t-71.5 145
q0 68 51 123t141 78q-42 17 -69 57t-27 80q0 103 79 169.5t212 66.5q106 0 172.5 -53t66.5 -136q0 -63 -40 -116t-115 -80q44 -17 75 -60.5t31 -87.5q0 -107 -87.5 -175t-217.5 -68z" />
    <glyph glyph-name="nine.dnom" horiz-adv-x="755" 
d="M-12 59l61 117q71 -51 172 -51q79 0 147 46.5t87 133.5q-26 -30 -68 -46.5t-80 -16.5q-110 0 -183 65t-73 170q0 129 92.5 208t221.5 79q116 0 194 -72.5t78 -212.5q0 -143 -46 -252t-143 -174t-235 -65q-61 0 -124 19.5t-101 51.5zM330 371q60 0 100.5 41.5t40.5 105.5
q0 51 -34.5 83t-82.5 32q-57 0 -99 -39.5t-42 -106.5q0 -53 32.5 -84.5t84.5 -31.5z" />
    <glyph glyph-name="space.frac" horiz-adv-x="102" 
 />
    <glyph glyph-name="space.tf" 
 />
    <glyph glyph-name="comma.tf" 
d="M313 129q0 76 54.5 128t134.5 52q77 0 127.5 -51.5t50.5 -142.5q0 -121 -60 -231.5t-167.5 -182t-235.5 -78.5l25 127q97 19 174 89t96 157q-13 -10 -53 -10q-62 0 -104 39.5t-42 103.5z" />
    <glyph glyph-name="period.tf" 
d="M485 -12q-68 0 -110.5 41.5t-42.5 101.5q0 75 54.5 129.5t129.5 54.5q68 0 110 -42t42 -103q0 -77 -55 -129.5t-128 -52.5z" />
    <glyph glyph-name="colon.tf" 
d="M473 -23q-64 0 -104.5 40.5t-40.5 99.5q0 71 51 122.5t123 51.5q65 0 105 -39.5t40 -99.5q0 -73 -52 -124t-122 -51zM625 688q-65 0 -105.5 40.5t-40.5 98.5q0 71 51 122.5t123 51.5q65 0 105.5 -39.5t40.5 -99.5q0 -72 -52 -123t-122 -51z" />
    <glyph glyph-name="semicolon.tf" 
d="M616 688q-65 0 -106 40.5t-41 98.5q0 71 52 122.5t124 51.5q65 0 104 -39.5t39 -99.5q0 -73 -51 -123.5t-121 -50.5zM326 123q0 70 50 118t122 48t119 -47.5t47 -130.5q0 -112 -55 -214t-154 -168t-219 -73l24 119q88 15 159.5 80t90.5 145q-16 -8 -51 -8q-57 0 -95 35.5
t-38 95.5z" />
    <glyph glyph-name="section.tf" 
d="M53 0l187 16q-11 -53 -11 -79q0 -90 52 -143.5t155 -53.5q91 0 157 55.5t66 153.5q0 94 -81 153l-185 131q-100 71 -156.5 144t-56.5 168q0 60 23 112t60.5 87t75 58t75.5 36q-125 107 -125 258q0 115 63.5 205t162 136t210.5 46q181 0 279 -94.5t98 -235.5q0 -45 -8 -86
l-189 -18q10 48 10 81q0 88 -52 140.5t-150 52.5q-93 0 -162.5 -57.5t-69.5 -149.5q0 -88 88 -151l183 -134q50 -36 81.5 -63t65 -65t50 -81.5t16.5 -93.5q0 -113 -73 -195t-157 -108q58 -51 90.5 -119t32.5 -137q0 -88 -37.5 -162.5t-99.5 -123t-140 -75t-161 -26.5
q-179 0 -277 93t-98 235q0 46 8 90zM684 637l-176 131q-49 -13 -94 -67.5t-45 -120.5q0 -88 90 -152l178 -131q49 13 95 67.5t46 118.5q0 84 -94 154z" />
    <glyph glyph-name="florin.tf" 
d="M352 41l154 774h-225v170h260l47 232q29 148 122.5 222t215.5 74q86 0 151 -20v-170q-51 14 -108 14q-159 0 -197 -188l-33 -164h265v-170h-299l-168 -842q-29 -148 -122.5 -222.5t-215.5 -74.5q-90 0 -158 21v170q51 -14 115 -14q25 0 45 3t45 14.5t44 31.5t35.5 55.5
t26.5 83.5z" />
    <glyph glyph-name="uni2007.tf" 
 />
    <glyph glyph-name="uni2008.tf" 
 />
    <glyph glyph-name="parenleft.case" horiz-adv-x="659" 
d="M117 508q0 226 62 427t195.5 377.5t332.5 301.5l88 -111q-253 -182 -384.5 -425t-131.5 -576q0 -315 180 -600l-127 -88q-93 133 -154 315.5t-61 378.5z" />
    <glyph glyph-name="parenright.case" horiz-adv-x="659" 
d="M594 920q0 -337 -150.5 -623t-439.5 -483l-88 110q121 97 210.5 197t161 222.5t108 268.5t36.5 314q0 315 -180 600l127 88q93 -133 154 -315.5t61 -378.5z" />
    <glyph glyph-name="hyphen.case" horiz-adv-x="843" 
d="M698 606h-555l35 168h555z" />
    <glyph glyph-name="bracketleft.case" horiz-adv-x="634" 
d="M385 -184h-395l387 1824h395l-33 -155h-227l-322 -1516h228z" />
    <glyph glyph-name="bracketright.case" horiz-adv-x="634" 
d="M313 -184h-393l31 153h227l322 1516h-228l33 155h395z" />
    <glyph glyph-name="braceleft.case" horiz-adv-x="753" 
d="M57 641l37 176q100 0 175 48.5t98 154.5l49 235q23 111 61.5 185.5t96 117.5t127 60.5t163.5 17.5h27l-33 -153h-27q-103 0 -161.5 -51.5t-83.5 -163.5l-64 -291q-22 -105 -91.5 -174t-174.5 -84q76 -15 118 -73t42 -142q0 -22 -8 -72l-52 -248q-8 -39 -8 -75
q0 -72 40 -106t122 -34h27l-33 -153h-27q-141 0 -220 73.5t-79 204.5q0 48 12 103l50 233q6 30 6 55q0 79 -53 117.5t-136 38.5z" />
    <glyph glyph-name="braceright.case" horiz-adv-x="751" 
d="M750 811l-37 -176q-100 0 -175 -48.5t-98 -154.5l-49 -235q-23 -111 -61.5 -185.5t-96 -117.5t-127 -60.5t-163.5 -17.5h-27l33 153h26q104 0 162 49.5t84 165.5l64 291q22 106 92 176t174 82q-74 19 -116 77.5t-42 141.5q0 31 6 68l52 248q8 39 8 75q0 72 -40 106
t-122 34h-27l33 153h27q141 0 220 -73.5t79 -204.5q0 -43 -13 -103l-49 -233q-6 -30 -6 -55q0 -79 53 -117.5t136 -38.5z" />
    <glyph glyph-name="exclamdown.case" horiz-adv-x="536" 
d="M430 1036l-162 -1036h-245l270 1036h137zM553 1343q0 -61 -42.5 -105t-104.5 -44q-55 0 -89 33.5t-34 85.5q0 62 43.5 105.5t101.5 43.5q55 0 90 -34t35 -85z" />
    <glyph glyph-name="guillemotleft.case" horiz-adv-x="1083" 
d="M508 305h-191l-200 397l350 385h211l-361 -403zM903 305h-190l-201 397l350 385h211l-360 -403z" />
    <glyph glyph-name="uni00AD.case" horiz-adv-x="899" 
d="M741 641h-555v168h555v-168z" />
    <glyph glyph-name="guillemotright.case" horiz-adv-x="1116" 
d="M221 1087h191l200 -397l-350 -385h-211l361 404zM647 1087h191l200 -397l-350 -385h-211l361 404z" />
    <glyph glyph-name="questiondown.case" horiz-adv-x="1050" 
d="M559 1042h176q-19 -258 -246 -391l-104 -61q-154 -89 -154 -240q0 -82 55.5 -138t164.5 -56q142 0 218 93t76 228l195 -26q-8 -212 -146.5 -344t-363.5 -132q-189 0 -297 100.5t-108 243.5q0 145 75 247.5t207 176.5l111 64q130 74 141 235zM815 1350q0 -61 -42.5 -105.5
t-104.5 -44.5q-55 0 -89 33.5t-34 85.5q0 62 43.5 105.5t101.5 43.5q55 0 90 -33.5t35 -84.5z" />
    <glyph glyph-name="endash.case" horiz-adv-x="1337" 
d="M1192 606h-1049l35 168h1049z" />
    <glyph glyph-name="emdash.case" horiz-adv-x="2240" 
d="M2095 606h-1952l35 168h1952z" />
    <glyph glyph-name="guilsinglleft.case" horiz-adv-x="688" 
d="M508 305h-191l-200 397l350 385h211l-361 -403z" />
    <glyph glyph-name="guilsinglright.case" horiz-adv-x="690" 
d="M221 1087h191l200 -397l-350 -385h-211l361 404z" />
    <glyph glyph-name="G.ss01" horiz-adv-x="1546" 
d="M911 1485q243 0 395 -129.5t193 -331.5l-190 -55q-31 147 -139 238t-279 91q-129 0 -237 -55.5t-177.5 -148.5t-108 -212.5t-38.5 -250.5q0 -220 119 -348.5t319 -128.5q178 0 305.5 98.5t167.5 261.5h-549l39 180h744q-12 -203 -98 -365.5t-246 -261t-369 -98.5
q-278 0 -456.5 182.5t-178.5 466.5q0 165 44.5 307.5t120.5 243.5t176.5 173.5t213 107.5t229.5 35z" />
    <glyph glyph-name="Gcircumflex.ss01" horiz-adv-x="1546" 
d="M911 1485q243 0 395 -129.5t193 -331.5l-190 -55q-31 147 -139 238t-279 91q-129 0 -237 -55.5t-177.5 -148.5t-108 -212.5t-38.5 -250.5q0 -220 119 -348.5t319 -128.5q178 0 305.5 98.5t167.5 261.5h-549l39 180h744q-12 -203 -98 -365.5t-246 -261t-369 -98.5
q-278 0 -456.5 182.5t-178.5 466.5q0 165 44.5 307.5t120.5 243.5t176.5 173.5t213 107.5t229.5 35zM737 1554h-178l277 244h245l185 -244h-170l-152 132z" />
    <glyph glyph-name="Gbreve.ss01" horiz-adv-x="1546" 
d="M911 1485q243 0 395 -129.5t193 -331.5l-190 -55q-31 147 -139 238t-279 91q-129 0 -237 -55.5t-177.5 -148.5t-108 -212.5t-38.5 -250.5q0 -220 119 -348.5t319 -128.5q178 0 305.5 98.5t167.5 261.5h-549l39 180h744q-12 -203 -98 -365.5t-246 -261t-369 -98.5
q-278 0 -456.5 182.5t-178.5 466.5q0 165 44.5 307.5t120.5 243.5t176.5 173.5t213 107.5t229.5 35zM963 1546q-133 0 -209 66.5t-76 165.5q0 20 2 32h162q-2 -12 -2 -16q0 -39 32.5 -66.5t102.5 -27.5q80 0 124.5 33t55.5 77h162q-33 -110 -123.5 -187t-230.5 -77z" />
    <glyph glyph-name="Gdotaccent.ss01" horiz-adv-x="1546" 
d="M911 1485q243 0 395 -129.5t193 -331.5l-190 -55q-31 147 -139 238t-279 91q-129 0 -237 -55.5t-177.5 -148.5t-108 -212.5t-38.5 -250.5q0 -220 119 -348.5t319 -128.5q178 0 305.5 98.5t167.5 261.5h-549l39 180h744q-12 -203 -98 -365.5t-246 -261t-369 -98.5
q-278 0 -456.5 182.5t-178.5 466.5q0 165 44.5 307.5t120.5 243.5t176.5 173.5t213 107.5t229.5 35zM831 1667q0 58 42.5 100.5t101.5 42.5q53 0 87 -34t34 -82q0 -60 -43.5 -104t-102.5 -44q-53 0 -86 34.5t-33 86.5z" />
    <glyph glyph-name="Gcommaaccent.ss01" horiz-adv-x="1546" 
d="M911 1485q243 0 395 -129.5t193 -331.5l-190 -55q-31 147 -139 238t-279 91q-129 0 -237 -55.5t-177.5 -148.5t-108 -212.5t-38.5 -250.5q0 -220 119 -348.5t319 -128.5q178 0 305.5 98.5t167.5 261.5h-549l39 180h744q-12 -203 -98 -365.5t-246 -261t-369 -98.5
q-278 0 -456.5 182.5t-178.5 466.5q0 165 44.5 307.5t120.5 243.5t176.5 173.5t213 107.5t229.5 35zM598 -188q0 50 37.5 82t93.5 32q48 0 84.5 -32.5t36.5 -92.5q0 -49 -16.5 -90.5t-43.5 -68.5t-61 -45.5t-68 -26.5t-67 -8q-15 0 -29 2l19 80q51 0 93 19.5t58 64.5
q-13 -9 -37 -9q-44 0 -72 26.5t-28 66.5z" />
    <glyph glyph-name="r.ss03" horiz-adv-x="679" 
d="M428 985l-22 -104q15 50 58.5 82t98.5 32q59 0 96 -37.5t37 -91.5q0 -68 -47.5 -114.5t-113.5 -46.5q-56 0 -96 35.5t-40 93.5q0 16 2 24l-182 -858h-192l209 985h192z" />
    <glyph glyph-name="racute.ss03" horiz-adv-x="679" 
d="M428 985l-22 -104q15 50 58.5 82t98.5 32q59 0 96 -37.5t37 -91.5q0 -68 -47.5 -114.5t-113.5 -46.5q-56 0 -96 35.5t-40 93.5v14l-180 -848h-192l209 985h192zM799 1411l-318 -299h-172l236 299h254z" />
    <glyph glyph-name="rcommaaccent.ss03" horiz-adv-x="679" 
d="M428 985l-22 -104q15 50 58.5 82t98.5 32q59 0 96 -37.5t37 -91.5q0 -68 -47.5 -114.5t-113.5 -46.5q-56 0 -96 35.5t-40 93.5v14l-180 -848h-192l209 985h192zM-70 -440l17 82q116 0 153 84q-18 -9 -39 -9q-43 0 -69.5 27t-26.5 66q0 52 35 84t90 32q49 0 85 -30.5
t36 -92.5q0 -104 -76 -173.5t-182 -69.5h-23z" />
    <glyph glyph-name="rcaron.ss03" horiz-adv-x="679" 
d="M428 985l-22 -104q15 50 58.5 82t98.5 32q59 0 96 -37.5t37 -91.5q0 -68 -47.5 -114.5t-113.5 -46.5q-56 0 -96 35.5t-40 93.5v14l-180 -848h-192l209 985h192zM674 1407h186l-266 -291h-236l-143 291h172l107 -166z" />
    <glyph glyph-name="ampersand.ss04" horiz-adv-x="1409" 
d="M1317 434h-203q-43 -199 -192.5 -332t-362.5 -133q-223 0 -360.5 118t-137.5 292q0 86 26.5 160t68.5 124.5t98 88.5t112 58.5t113 27.5q-69 38 -110 104.5t-41 149.5q0 109 58.5 199.5t154 141t204.5 50.5q167 0 276 -96t109 -242q0 -40 -4 -60l-200 -24q4 36 4 51
q0 85 -49.5 135.5t-143.5 50.5q-82 0 -144.5 -56.5t-62.5 -149.5q0 -80 60 -128.5t153 -48.5l-38 -180h-68q-42 0 -87.5 -8.5t-96.5 -32t-90.5 -58t-66 -93t-26.5 -131.5q0 -48 18.5 -91.5t54 -80t95.5 -58.5t135 -22q120 0 212.5 74t127.5 200h-206l36 182h611z" />
    <glyph glyph-name="registered.ss06" horiz-adv-x="972" 
d="M195 1077q0 160 113.5 273.5t273.5 113.5t274.5 -113.5t114.5 -273.5t-114.5 -273.5t-274.5 -113.5t-273.5 113.5t-113.5 273.5zM295 1077q0 -123 83 -208t204 -85t204.5 85t83.5 208t-83.5 208t-204.5 85t-204 -85t-83 -208zM543 1018l-29 -135h-104l84 401h143
q60 0 93.5 -33t33.5 -80q0 -51 -28.5 -88.5t-69.5 -48.5l51 -151h-107l-39 135h-28zM561 1104h33q63 0 63 51q0 41 -53 41h-22z" />
    <glyph glyph-name="zero.numr" horiz-adv-x="788" 
d="M172 969q0 68 13 136t42 133.5t71.5 115.5t106 81t140.5 31q130 0 202 -79t72 -201q0 -97 -23 -185t-67.5 -158t-116.5 -111.5t-163 -41.5q-55 0 -99 15q-87 26 -132.5 96t-45.5 168zM406 834q24 -7 51 -7q55 0 99 35.5t68.5 90.5t37 114t12.5 115q0 63 -33 105t-106 42
q-62 0 -108.5 -42t-69 -104.5t-32.5 -115.5t-10 -94q0 -47 22.5 -86t68.5 -53z" />
    <glyph glyph-name="one.numr" horiz-adv-x="468" 
d="M389 705h-158l115 512h-164l21 104q74 3 129.5 38.5t79.5 92.5h139z" />
    <glyph glyph-name="two.numr" horiz-adv-x="722" 
d="M358 1044l129 58q117 51 117 133q0 39 -27.5 68.5t-76.5 29.5q-63 0 -99 -39t-36 -118h-154q0 136 81 212t212 76q123 0 191.5 -64t68.5 -157q0 -86 -52 -151t-145 -105l-155 -67q-64 -29 -86 -82h376l-28 -133h-561q24 240 245 339z" />
    <glyph glyph-name="three.numr" horiz-adv-x="722" 
d="M389 1055l-53 123l233 141h-327l28 133h533l-29 -152l-233 -137q75 -14 124.5 -69t49.5 -129q0 -111 -82.5 -193t-218.5 -82q-117 0 -197 64.5t-80 171.5q0 19 4 39l142 10q-2 -8 -2 -23q0 -52 37 -89.5t94 -37.5q64 0 105.5 34.5t41.5 96.5q0 49 -35.5 78t-85.5 29
q-28 0 -49 -8z" />
    <glyph glyph-name="four.numr" horiz-adv-x="759" 
d="M119 860l33 174l421 418h181l-99 -459h133l-28 -133h-131q0 -1 -2 -12q-12 -53 -31 -143h-156l33 155h-354zM500 993l63 281l-282 -281h219z" />
    <glyph glyph-name="five.numr" horiz-adv-x="706" 
d="M131 934l156 14q0 -53 31.5 -88t91.5 -35q57 0 98 33.5t41 97.5q0 56 -34 85.5t-87 29.5q-55 0 -100 -33l-131 74l147 340h436l-26 -135h-324l-63 -148q43 25 112 25q104 0 167 -57t63 -162q0 -119 -87 -202t-216 -83q-118 0 -196.5 69t-78.5 175z" />
    <glyph glyph-name="six.numr" horiz-adv-x="755" 
d="M827 1419l-55 -114q-59 32 -147 32q-80 0 -151.5 -46t-102.5 -128q49 49 153 49q110 0 175 -62t65 -165q0 -133 -94.5 -214t-220.5 -81q-115 0 -197 78.5t-82 220.5q0 128 55.5 237t161 175.5t238.5 66.5q140 0 202 -49zM481 1081q-62 0 -105.5 -39t-43.5 -100
q0 -56 35.5 -87.5t91.5 -31.5q57 0 100 38t43 108q0 51 -33 81.5t-88 30.5z" />
    <glyph glyph-name="seven.numr" horiz-adv-x="684" 
d="M821 1452l-28 -131q-47 -32 -83 -60t-96 -85.5t-105.5 -118.5t-94 -154t-80.5 -198h-164q24 101 72.5 198.5t99.5 164t108 124.5t90 85t54 40h-389l26 135h590z" />
    <glyph glyph-name="eight.numr" horiz-adv-x="727" 
d="M391 1235q0 -37 26 -60.5t66 -23.5q52 0 90.5 26.5t38.5 79.5q0 34 -24.5 57.5t-73.5 26.5q-56 0 -89.5 -28.5t-33.5 -77.5zM299 907q0 -43 35.5 -67.5t87.5 -24.5q64 0 101.5 31t37.5 86q0 40 -32 66t-87 26q-62 0 -102.5 -33t-40.5 -84zM414 690q-129 0 -201 57.5
t-72 145.5q0 68 51.5 123t141.5 78q-42 17 -69 57t-27 80q0 103 78.5 169t211.5 66q106 0 173 -52.5t67 -135.5q0 -63 -40.5 -116.5t-115.5 -80.5q44 -17 75.5 -60t31.5 -87q0 -107 -87.5 -175.5t-217.5 -68.5z" />
    <glyph glyph-name="nine.numr" horiz-adv-x="753" 
d="M135 760l62 117q73 -52 172 -52q79 0 146.5 47t86.5 134q-26 -31 -67.5 -47.5t-79.5 -16.5q-109 0 -182.5 65.5t-73.5 170.5q0 129 92 207.5t221 78.5q116 0 194 -72t78 -212q0 -143 -46 -252.5t-143 -174.5t-235 -65q-61 0 -124 20t-101 52zM477 1071q60 0 100.5 42
t40.5 106q0 51 -34 82.5t-82 31.5q-58 0 -100 -39t-42 -106q0 -53 32.5 -85t84.5 -32z" />
    <glyph glyph-name="a.ordn" horiz-adv-x="860" 
d="M551 1337q-99 0 -158 -87.5t-59 -196.5q0 -80 40 -128t115 -48q91 0 152 82.5t61 209.5q0 75 -38.5 121.5t-112.5 46.5zM770 1452h150l-109 -524q-16 -76 -16 -131q0 -10 1 -23t1 -16h-144q0 1 -0.5 10t-1 22.5t-0.5 24.5q0 25 2 31q-81 -103 -198 -103q-129 0 -202 87.5
t-73 220.5q0 114 45.5 210.5t129 154t186.5 57.5q150 0 213 -107z" />
    <glyph glyph-name="b.ordn" horiz-adv-x="874" 
d="M301 758h-149l219 1038h149l-84 -401q75 78 203 78q129 0 199.5 -86.5t70.5 -217.5q0 -185 -104.5 -307.5t-263.5 -122.5q-75 0 -134 35.5t-83 91.5zM582 1335q-88 0 -150.5 -76.5t-62.5 -199.5q0 -81 43 -131.5t116 -50.5q87 0 156.5 75.5t69.5 202.5q0 86 -46.5 133
t-125.5 47z" />
    <glyph glyph-name="c.ordn" horiz-adv-x="798" 
d="M858 1249l-141 -45q-12 56 -52.5 93.5t-109.5 37.5q-90 0 -155.5 -72.5t-65.5 -201.5q0 -86 49 -136.5t129 -50.5q121 0 180 121l129 -53q-43 -89 -122.5 -147t-192.5 -58q-148 0 -237 90.5t-89 231.5q0 182 112.5 299t272.5 117q67 0 121 -20.5t88 -55t54.5 -72
t29.5 -78.5z" />
    <glyph glyph-name="d.ordn" horiz-adv-x="862" 
d="M993 1796l-182 -868q-16 -80 -16 -152v-18h-142l-1 5q0 5 -0.5 14t-0.5 20q0 29 2 49q-81 -103 -198 -103q-129 0 -202 87.5t-73 220.5q0 114 45.5 210.5t129 154t186.5 57.5q80 0 132.5 -30t78.5 -73l88 426h153zM551 1337q-99 0 -158 -87.5t-59 -196.5q0 -80 40 -128
t115 -48q91 0 152 82.5t61 209.5q0 75 -38.5 121.5t-112.5 46.5z" />
    <glyph glyph-name="e.ordn" horiz-adv-x="806" 
d="M350 1180h348q0 1 1 9.5t1 14.5q0 55 -36 97t-111 42q-77 0 -130 -46.5t-73 -116.5zM834 1063h-502q-2 -8 -2 -21q0 -77 48.5 -125.5t121.5 -48.5q67 0 114 31t72 76l119 -68q-40 -73 -120.5 -121.5t-186.5 -48.5q-136 0 -227 85t-91 233q0 94 32.5 174.5t86 133.5
t121 82.5t139.5 29.5q138 0 216.5 -79t78.5 -206q0 -60 -20 -127z" />
    <glyph glyph-name="f.ordn" horiz-adv-x="530" 
d="M639 1319h-156l-116 -561h-158l119 561h-119l29 133h118l29 135q47 217 256 217q65 0 98 -22l-26 -129q-36 12 -60 12q-94 0 -118 -106l-23 -107h156z" />
    <glyph glyph-name="g.ordn" horiz-adv-x="860" 
d="M707 1176q0 63 -41.5 110t-118.5 47q-90 0 -148.5 -64.5t-58.5 -172.5q0 -78 41 -126t121 -48q91 0 148 68.5t57 185.5zM100 723l144 31q0 -68 37 -112t120 -44q181 0 232 221l12 53q-24 -34 -70.5 -56.5t-107.5 -22.5q-129 0 -205 82t-76 208q0 163 99.5 273t253.5 110
q75 0 129.5 -27.5t81.5 -74.5l18 88h154l-131 -631q-15 -72 -42.5 -132t-73 -112.5t-116 -82t-160.5 -29.5q-143 0 -221 76.5t-78 181.5z" />
    <glyph glyph-name="h.ordn" horiz-adv-x="827" 
d="M750 756h-154l88 413q6 24 6 50q0 55 -31 85.5t-90 30.5q-69 0 -116 -52t-62 -124l-86 -403h-153l221 1038h153l-86 -401q69 77 195 77q99 0 158 -57t59 -153q0 -8 -10 -70z" />
    <glyph glyph-name="i.ordn" horiz-adv-x="389" 
d="M326 1696q0 48 34 81t78 33q42 0 68 -26.5t26 -65.5q0 -46 -34.5 -79t-77.5 -33q-41 0 -67.5 26.5t-26.5 63.5zM305 758h-153l149 694h152z" />
    <glyph glyph-name="j.ordn" horiz-adv-x="389" 
d="M135 688l166 764h152l-170 -799q-20 -91 -78 -139.5t-142 -48.5q-62 0 -106 22l27 121q1 0 10 -2.5t23 -5t28 -2.5q39 1 60 23t30 67zM326 1696q0 48 34 81t78 33q41 0 67.5 -26.5t26.5 -65.5q0 -46 -35 -79t-79 -33q-39 0 -65.5 26.5t-26.5 63.5z" />
    <glyph glyph-name="k.ordn" horiz-adv-x="778" 
d="M625 758l-150 311l-129 -106l-43 -205h-151l221 1038h151l-131 -614l322 270h223l-344 -287l201 -407h-170z" />
    <glyph glyph-name="l.ordn" horiz-adv-x="389" 
d="M305 758h-153l221 1038h153z" />
    <glyph glyph-name="m.ordn" horiz-adv-x="1224" 
d="M727 758h-152l91 428q4 28 4 41q0 50 -28 80t-87 30q-65 0 -105.5 -43.5t-56.5 -119.5l-90 -416h-151l122 573q15 73 15 121h149q0 -19 -6 -72q75 93 197 93q63 0 109.5 -29.5t68.5 -81.5q87 111 242 111q86 0 143 -57.5t57 -151.5q0 -30 -6 -64l-94 -442h-154l90 428
q7 28 7 45q0 48 -29.5 77t-85.5 29q-63 0 -105.5 -45t-56.5 -116z" />
    <glyph glyph-name="n.ordn" horiz-adv-x="825" 
d="M750 758h-154l88 413q4 16 4 50q0 55 -30 85.5t-89 30.5q-69 0 -116 -52t-62 -124l-86 -403h-153l122 573q15 73 15 121h149q0 -24 -6 -74q69 95 209 95q95 0 152 -58t57 -153q0 -24 -8 -70z" />
    <glyph glyph-name="o.ordn" horiz-adv-x="839" 
d="M553 1335q-90 0 -153.5 -74.5t-63.5 -197.5q0 -87 45 -138t119 -51q89 0 154 74t65 201q0 85 -44.5 135.5t-121.5 50.5zM874 1153q0 -175 -108.5 -295.5t-271.5 -120.5q-144 0 -229 91.5t-85 228.5q0 180 110.5 299t272.5 119q145 0 228 -92t83 -230z" />
    <glyph glyph-name="p.ordn" horiz-adv-x="876" 
d="M590 1333q-90 0 -153.5 -75.5t-63.5 -198.5q0 -87 44 -134.5t120 -47.5q85 0 152 75.5t67 202.5q0 85 -44.5 131.5t-121.5 46.5zM432 1376q37 44 93.5 69t119.5 25q130 0 198 -84t68 -217q0 -185 -102.5 -307.5t-261.5 -122.5q-72 0 -132.5 32t-88.5 85l-80 -371h-152
l180 846q17 83 17 121h149q0 -37 -8 -76z" />
    <glyph glyph-name="q.ordn" horiz-adv-x="862" 
d="M926 1452l-205 -967h-154l72 334q-76 -76 -178 -76q-86 1 -151 43t-97.5 111t-32.5 154q0 174 103.5 296.5t259.5 122.5q80 0 135 -29.5t80 -70.5l16 82h152zM553 1335q-67 0 -118.5 -43.5t-76 -106.5t-24.5 -132q0 -79 43 -127.5t121 -48.5q91 0 151 81t60 205
q0 79 -39.5 125.5t-116.5 46.5z" />
    <glyph glyph-name="r.ordn" horiz-adv-x="550" 
d="M655 1294q-27 6 -55 6q-177 0 -225 -215l-72 -327h-151l122 573q15 73 15 121h151q0 -62 -12 -100q68 108 221 108q29 0 41 -2z" />
    <glyph glyph-name="s.ordn" horiz-adv-x="667" 
d="M141 973l133 28q0 -61 37 -101t101 -40q49 0 75.5 25.5t26.5 60.5q0 48 -61 76l-93 43q-133 62 -133 182q0 93 71.5 160.5t186.5 67.5q67 0 118 -21t78 -54.5t40 -65.5t16 -64l-135 -33q0 43 -32.5 79t-94.5 36q-44 0 -72 -24.5t-28 -59.5q0 -50 51 -72l92 -41
q73 -33 110.5 -85t37.5 -114q0 -37 -15.5 -74t-45 -70.5t-81 -54t-116.5 -20.5q-73 0 -127.5 23.5t-83.5 60.5t-42.5 75.5t-13.5 76.5z" />
    <glyph glyph-name="t.ordn" horiz-adv-x="528" 
d="M471 1315l-70 -340q-4 -24 -4 -33q0 -59 76 -59q39 0 47 4l-26 -125q-20 -10 -78 -10q-82 0 -130 42t-48 117q0 27 6 54l75 350h-126l28 137h23q115 0 141 113l23 102h139l-45 -215h137l-29 -137h-139z" />
    <glyph glyph-name="u.ordn" horiz-adv-x="819" 
d="M291 1452h153l-84 -401q-6 -30 -6 -60q0 -53 27.5 -85t87.5 -32q68 0 112.5 50t59.5 123l86 405h152l-111 -526q-16 -72 -16 -117v-51h-148v4q-1 4 -1.5 12.5t-0.5 18.5q0 27 2 43q-31 -45 -81 -70t-101 -25q-107 0 -166 62t-59 164q0 41 8 80z" />
    <glyph glyph-name="v.ordn" horiz-adv-x="720" 
d="M881 1452l-410 -694h-149l-123 694h157l72 -508l281 508h172z" />
    <glyph glyph-name="w.ordn" horiz-adv-x="1163" 
d="M670 1452h161l62 -494l246 494h164l-363 -694h-158l-65 508l-264 -508h-160l-70 694h148l43 -491z" />
    <glyph glyph-name="x.ordn" horiz-adv-x="751" 
d="M469 993l-215 -235h-193l336 356l-180 338h168l117 -227l205 227h190l-326 -346l189 -348h-168z" />
    <glyph glyph-name="y.ordn" horiz-adv-x="737" 
d="M268 485h-174l254 389l-164 578h164l113 -420l260 420h178z" />
    <glyph glyph-name="z.ordn" horiz-adv-x="718" 
d="M676 758h-567l28 135l449 424h-346l28 135h545l-29 -133l-452 -426h373z" />
    <glyph glyph-name="numbersign.tf" 
d="M176 913v156h211l76 383h172l-76 -383h229l76 383h172l-75 -383h196v-156h-227l-72 -364h199v-156h-230l-75 -393h-172l75 393h-229l-76 -393h-172l76 393h-178v156h209l71 364h-180zM528 913l-71 -364h229l72 364h-230z" />
    <glyph glyph-name="dollar.tf" 
d="M973 1020q0 32 -7.5 64t-24.5 67t-50 64t-78 45l-100 -467l39 -17q141 -63 208.5 -151t67.5 -209q0 -170 -129 -290t-332 -126h-18l-49 -233h-160l51 251q-158 38 -244 151t-86 255q0 36 7 80l178 35q-6 -34 -6 -74q0 -102 48.5 -175t141.5 -102l102 480l-47 20
q-249 108 -249 348q0 124 66 220t169.5 145t224.5 49l47 221h158l-49 -239q78 -20 137.5 -61t93.5 -94t50.5 -109t17.5 -113zM676 606h-2l-90 -434q111 9 179 70.5t68 156.5q0 68 -35.5 119t-119.5 88zM426 1057q0 -73 36.5 -121t108.5 -80l91 422q-99 -8 -167.5 -69.5
t-68.5 -151.5z" />
    <glyph glyph-name="percent.tf" 
d="M551 1212q0 51 -31.5 82t-85.5 31q-57 0 -100 -43t-43 -106q0 -52 32 -84.5t85 -32.5q58 0 100.5 43t42.5 110zM449 1468q107 0 179 -72t72 -177q0 -124 -94 -211.5t-213 -87.5q-107 0 -177.5 70t-70.5 175q0 123 90 213t214 90zM1163 1182l-41 -201l-1001 -657l41 196z
M928 285q0 51 -31.5 81.5t-85.5 30.5q-57 0 -100 -43t-43 -106q0 -52 31.5 -84.5t84.5 -32.5q58 0 101 43.5t43 110.5zM1077 291q0 -124 -94 -211.5t-213 -87.5q-107 0 -177.5 70.5t-70.5 175.5q0 123 89.5 213t213.5 90q107 0 179.5 -72.5t72.5 -177.5z" />
    <glyph glyph-name="plus.tf" 
d="M696 633v-404h-168v404h-383v162h383v399h168v-399h385v-162h-385z" />
    <glyph glyph-name="zero.tf" 
d="M512 -27q-102 0 -183 30t-133 81t-87 121t-49.5 146t-14.5 161q0 83 12 172.5t38.5 184t64.5 182.5t93.5 166t122 136t154 92t185.5 34q101 0 182 -30t133.5 -81t87 -121t49.5 -145.5t15 -159.5q0 -83 -12 -173t-38.5 -185t-64.5 -183t-93.5 -166t-122 -136t-154 -92
t-185.5 -34zM700 1298q-90 0 -167.5 -50.5t-129.5 -132t-89.5 -185t-54.5 -209t-17 -205.5q0 -108 26 -186t91 -127t167 -49q110 0 200.5 76.5t144.5 196t83 252t29 257.5q0 80 -14.5 143t-46.5 113.5t-88.5 78t-133.5 27.5z" />
    <glyph glyph-name="one.tf" 
d="M961 0h-934l36 180h359l199 934q-25 -38 -137 -74t-210 -36l31 157q142 9 245.5 89t158.5 202h180l-271 -1272h379z" />
    <glyph glyph-name="two.tf" 
d="M248 184h737l-41 -184h-962q47 400 417 578l295 143q133 66 202 151t69 199q0 100 -65.5 166t-184.5 66q-142 0 -230.5 -96t-89.5 -257l-188 27q5 217 150 359.5t372 142.5q103 0 187 -33t136.5 -89.5t80.5 -128t28 -151.5q0 -171 -96.5 -290t-273.5 -205l-326 -160
q-76 -38 -135 -101.5t-82 -136.5z" />
    <glyph glyph-name="three.tf" 
d="M504 -27q-113 0 -206 35.5t-153 97t-92.5 142.5t-32.5 172q0 32 7 53l194 29q-6 -30 -6 -64q0 -129 82.5 -208.5t208.5 -79.5q142 0 240 93t98 238q0 120 -74.5 185t-202.5 65q-53 0 -88 -12l-65 149l551 400h-707l37 184h954l-37 -188l-538 -400q155 0 264 -105
t109 -272q0 -104 -41.5 -198.5t-113 -164t-173 -110.5t-215.5 -41z" />
    <glyph glyph-name="four.tf" 
d="M770 0h-197l68 328h-666l48 225l802 899h252l-200 -940h251l-36 -184h-252zM834 1219l-611 -707h457z" />
    <glyph glyph-name="five.tf" 
d="M561 1268l-194 -420q47 47 119 70.5t145 23.5q199 0 311.5 -114.5t112.5 -303.5q0 -152 -70.5 -278t-198 -199.5t-286.5 -73.5q-118 0 -209 39t-145.5 106t-82.5 151.5t-28 181.5l188 38q-2 -12 -2 -36q0 -131 74 -217t215 -86t242.5 97.5t101.5 252.5q0 130 -74 204
t-207 74q-148 0 -264 -104l-159 86l309 692h735l-31 -184h-602z" />
    <glyph glyph-name="six.tf" 
d="M874 1296q-109 0 -207 -43.5t-172 -119t-127.5 -173.5t-80.5 -210q51 95 152 149.5t237 54.5q189 0 303.5 -113t114.5 -302q0 -123 -45.5 -230t-121 -180t-176.5 -114.5t-210 -41.5q-215 0 -346.5 142t-131.5 379q0 147 35 289t105.5 266t168 218t231 148.5t286.5 54.5
q117 0 212 -31t154 -81l-86 -152q-112 90 -295 90zM616 788q-90 0 -170.5 -44t-131 -126t-50.5 -182q0 -129 76.5 -209t206.5 -80q138 0 242 100.5t104 260.5q0 130 -73.5 205t-203.5 75z" />
    <glyph glyph-name="seven.tf" 
d="M1286 1452l-39 -174q-94 -71 -181.5 -150t-192 -198.5t-193 -251t-174.5 -308.5t-146 -370h-208q57 193 140 371.5t168 310.5t184.5 250.5t179.5 194.5t163 141h-764l39 184h1024z" />
    <glyph glyph-name="eight.tf" 
d="M1038 408q-3 -193 -152 -314t-368 -121q-217 0 -347 107t-130 278q0 153 105.5 263t261.5 139q-85 39 -136 118.5t-51 178.5q0 183 142.5 302.5t353.5 119.5q210 0 329 -104.5t119 -264.5q0 -140 -93 -247.5t-232 -137.5q93 -39 145.5 -124t52.5 -193zM530 141
q139 0 229.5 82t90.5 201q0 105 -75 172.5t-220 67.5q-146 0 -231.5 -80t-85.5 -201q0 -117 83.5 -179.5t208.5 -62.5zM672 821q128 0 211.5 74t83.5 190q0 97 -69 160.5t-193 63.5q-131 0 -212 -76t-81 -189q0 -104 74 -163.5t186 -59.5z" />
    <glyph glyph-name="nine.tf" 
d="M670 1305q-131 0 -232.5 -98t-101.5 -253q0 -128 75.5 -203t202.5 -75q139 0 238.5 98t99.5 248q0 126 -77.5 204.5t-204.5 78.5zM680 1479q219 0 348 -140.5t129 -386.5q0 -149 -33 -291t-99.5 -265.5t-158.5 -216t-217.5 -146t-269.5 -53.5q-115 0 -220.5 34.5
t-170.5 96.5l82 153q137 -108 315 -108q143 0 257.5 71t185.5 188.5t106 274.5q-57 -89 -151 -135.5t-212 -46.5q-189 0 -310.5 119.5t-121.5 308.5q0 124 45 228.5t121 172t173 105t202 37.5z" />
    <glyph glyph-name="less.tf" 
d="M137 625v174l844 422v-195l-635 -313l635 -314v-194z" />
    <glyph glyph-name="equal.tf" 
d="M125 834v157h948v-157h-948zM125 434v162h948v-162h-948z" />
    <glyph glyph-name="greater.tf" 
d="M1083 799v-174l-843 -420v194l639 314l-639 313v195z" />
    <glyph glyph-name="cent.tf" 
d="M1100 930l-178 -62q-16 67 -56.5 118t-105.5 71l-146 -690q182 0 275 186l164 -72q-65 -125 -176.5 -205.5t-270.5 -80.5h-28l-41 -195h-156l47 225q-131 47 -203.5 160t-72.5 264q0 245 140 408t351 182l45 213h156l-47 -221q68 -14 122.5 -46t89.5 -75.5t56.5 -87
t34.5 -92.5zM346 651q0 -171 119 -245l139 653q-112 -28 -185 -133.5t-73 -274.5z" />
    <glyph glyph-name="sterling.tf" 
d="M109 621l36 176h156q-27 174 -27 241q0 196 120.5 319.5t322.5 123.5q169 0 263.5 -90t94.5 -244q0 -40 -8 -68l-190 -28q6 34 6 65q0 79 -44 134t-130 55q-108 0 -173 -64.5t-65 -189.5q0 -55 31 -254h432l-37 -176h-383q-6 -147 -82.5 -268.5t-200.5 -174.5h431
q100 0 163.5 63.5t79.5 161.5l180 -36q-31 -172 -142.5 -269.5t-272.5 -97.5h-701l41 213q149 43 224.5 153.5t80.5 254.5h-206z" />
    <glyph glyph-name="currency.tf" 
d="M182 717q0 133 76 246l-154 159l123 121l154 -160q112 72 237 72q120 0 228 -65l147 153l123 -121l-143 -149q84 -119 84 -256q0 -138 -82 -254l141 -144l-121 -120l-143 147q-106 -67 -234 -67q-134 0 -243 73l-150 -153l-121 120l150 156q-72 112 -72 242zM352 717
q0 -118 77 -194.5t189 -76.5t187.5 76t75.5 195q0 117 -75.5 192.5t-187.5 75.5t-189 -75.5t-77 -192.5z" />
    <glyph glyph-name="yen.tf" 
d="M1010 338h-381l-72 -338h-205l74 338h-363l31 147h363l32 152h-364l29 147h282l-254 668h213l230 -637l485 637h227l-526 -668h291l-31 -147h-379l-33 -152h383z" />
    <glyph glyph-name="logicalnot.tf" 
d="M1028 430h-172v399h-715v168h887v-567z" />
    <glyph glyph-name="plusminus.tf" 
d="M668 758v-275h-168v275h-363v157h363v279h168v-279h364v-157h-364zM137 229v162h895v-162h-895z" />
    <glyph glyph-name="multiply.tf" 
d="M264 240l-114 114l346 359l-344 358l116 117l342 -357l342 357l117 -115l-346 -358l348 -361l-115 -116l-348 358z" />
    <glyph glyph-name="divide.tf" 
d="M143 629v170h936v-170h-936zM477 350q0 54 39.5 92.5t93.5 38.5t92.5 -38.5t38.5 -92.5t-38.5 -93.5t-92.5 -39.5t-93.5 39.5t-39.5 93.5zM477 1077q0 54 39.5 92.5t93.5 38.5t92.5 -38.5t38.5 -92.5t-38.5 -93.5t-92.5 -39.5t-93.5 39.5t-39.5 93.5z" />
    <glyph glyph-name="perthousand.tf" 
d="M389 211q0 -40 25.5 -67t66.5 -27q46 0 80.5 35t34.5 90q0 40 -26 65t-68 25q-45 0 -79 -35.5t-34 -85.5zM152 1206q0 108 77 185t187 77q95 0 158 -63t63 -156q0 -111 -79 -187.5t-185 -76.5q-96 0 -158.5 63.5t-62.5 157.5zM467 -16q-95 0 -157 62t-62 155
q0 108 79 187t189 79q106 0 160 -80q70 80 180 80q95 0 158 -63t63 -156q0 -110 -79 -187t-183 -77q-112 0 -168 79q-76 -79 -180 -79zM1137 1245l-43 -201l-983 -616l43 197zM936 242q0 40 -26 65t-68 25q-45 0 -79 -35.5t-34 -85.5q0 -40 25.5 -67t66.5 -27q46 0 80.5 35
t34.5 90zM401 1333q-45 0 -78.5 -35.5t-33.5 -85.5q0 -40 25.5 -67t66.5 -27q46 0 80.5 35t34.5 90q0 40 -26 65t-69 25z" />
    <glyph glyph-name="Euro.tf" 
d="M111 823l34 160h158q92 225 277 362.5t434 137.5q156 0 278 -64l-84 -159q-106 45 -213 45q-151 0 -281 -85.5t-206 -236.5h543l-78 -160h-524q-19 -85 -25 -166h469l-80 -163h-383q22 -165 117.5 -250.5t279.5 -85.5q94 0 148 12l4 -172q-62 -16 -174 -16
q-248 0 -398 132.5t-176 379.5h-192l35 163h155q3 73 23 166h-141z" />
    <glyph glyph-name="minus.tf" 
d="M174 633v162h866v-162h-866z" />
    <glyph glyph-name="approxequal.tf" 
d="M1012 606l104 -92q-119 -170 -299 -170q-96 0 -205 62l-96 53q-65 35 -127 35q-105 0 -186 -93l-109 97q120 174 293 174q92 0 211 -64l94 -51q71 -41 144 -41q101 0 176 90zM1012 1004l104 -93q-119 -170 -299 -170q-96 0 -205 62l-96 53q-65 35 -127 35
q-106 0 -186 -92l-109 96q120 174 293 174q94 0 211 -63l94 -52q71 -41 144 -41q100 0 176 91z" />
    <glyph glyph-name="notequal.tf" 
d="M137 834v157h604l150 203h196l-149 -203h147v-157h-264l-176 -238h440v-162h-559l-149 -205h-197l150 205h-193v162h312l176 238h-488z" />
    <glyph glyph-name="lessequal.tf" 
d="M160 229v162h844v-162h-844zM160 748v174l844 299v-172l-629 -213l629 -213v-172z" />
    <glyph glyph-name="greaterequal.tf" 
d="M1036 391v-162h-843v162h843zM1036 922v-174l-843 -297v172l628 213l-628 213v172z" />
    <glyph glyph-name="one.ss05" horiz-adv-x="978" 
d="M815 0h-811l37 180h297l199 934q-25 -38 -137 -74t-210 -36l31 157q142 9 245.5 89t158.5 202h180l-270 -1272h317z" />
    <glyph glyph-name="florin.ss09" horiz-adv-x="798" 
d="M170 41l154 774h-226v170h260l48 232q29 148 122 222t215 74q87 0 152 -20v-170q-51 14 -109 14q-158 0 -196 -188l-33 -164h264v-170h-299l-168 -842q-29 -148 -122.5 -222.5t-215.5 -74.5q-89 0 -157 21v170q51 -14 114 -14q32 0 57.5 6.5t54.5 24t51 57.5t34 100z" />
    <glyph glyph-name="daggerdbl.ss09" horiz-adv-x="894" 
d="M406 0h-168l63 305h-260l35 166h260l108 510h-260l37 166h258l66 305h168l-66 -305h262l-37 -166h-260l-108 -510h260l-35 -166h-260z" />
    <glyph glyph-name="caron.alt" horiz-adv-x="415" 
d="M238 1452l-209 -367h-148l135 367h222z" />
    <glyph glyph-name="commaturn" horiz-adv-x="352" 
d="M143 1221q0 -51 -35.5 -86t-89.5 -35q-44 0 -82 31.5t-38 91.5q0 64 25.5 113.5t67 77t85.5 41t88 13.5h14l-16 -82h-10q-51 0 -92 -24t-50 -59q24 8 39 8q43 0 68.5 -26t25.5 -64z" />
    <glyph glyph-name="dieresis.narrow" horiz-adv-x="645" 
d="M-86 1260q0 49 34 85.5t85 36.5q44 0 72 -28t28 -70q0 -51 -36 -85t-85 -34q-45 0 -71.5 27t-26.5 68zM203 1260q0 49 34 85.5t85 36.5q44 0 72 -28t28 -70q0 -51 -36 -85t-85 -34q-45 0 -71.5 27t-26.5 68z" />
    <glyph glyph-name="dieresis.uc.narrow" horiz-adv-x="653" 
d="M-92 1677q0 46 31 77.5t77 31.5t78.5 -31.5t32.5 -77.5t-32.5 -78t-78.5 -32t-77 32t-31 78zM221 1677q0 46 32.5 77.5t78.5 31.5t77 -31.5t31 -77.5t-31 -78t-77 -32t-78.5 32t-32.5 78z" />
    <glyph glyph-name="grave.uc" horiz-adv-x="559" 
d="M156 1554l-219 244h241l154 -244h-176z" />
    <glyph glyph-name="dieresis.uc" horiz-adv-x="833" 
d="M-92 1665q0 58 38.5 95.5t96.5 37.5q47 0 77 -30.5t30 -75.5q0 -58 -40 -97t-94 -39q-46 0 -77 31t-31 78zM379 1665q0 58 38.5 95.5t96.5 37.5q47 0 77 -30.5t30 -75.5q0 -58 -40 -97t-94 -39q-46 0 -77 31t-31 78z" />
    <glyph glyph-name="macron.uc" horiz-adv-x="702" 
d="M485 1595h-600l37 170h600z" />
    <glyph glyph-name="acute.uc" horiz-adv-x="559" 
d="M387 1798l-313 -244h-199l244 244h268z" />
    <glyph glyph-name="circumflex.uc" horiz-adv-x="825" 
d="M63 1554h-178l277 244h246l184 -244h-170l-152 132z" />
    <glyph glyph-name="caron.uc" horiz-adv-x="825" 
d="M449 1798h190l-287 -244h-246l-174 244h168l142 -131z" />
    <glyph glyph-name="breve.uc" horiz-adv-x="759" 
d="M209 1546q-133 0 -209 66.5t-76 165.5q0 20 2 32h162q-2 -12 -2 -16q0 -39 32.5 -66.5t102.5 -27.5q80 0 124.5 33t55.5 77h162q-33 -110 -123.5 -187t-230.5 -77z" />
    <glyph glyph-name="dotaccent.uc" horiz-adv-x="366" 
d="M-98 1667q0 59 42 101t101 42q53 0 87 -34t34 -82q0 -60 -43.5 -104t-102.5 -44q-53 0 -85.5 34.5t-32.5 86.5z" />
    <glyph glyph-name="ring.uc" horiz-adv-x="559" 
d="M131 1833q-40 0 -72 -29t-32 -73q0 -40 24 -63t64 -23q44 0 75 28.5t31 73.5q0 37 -25.5 61.5t-64.5 24.5zM-104 1714q0 106 75.5 177t173.5 71q89 0 150 -60t61 -145q0 -95 -73.5 -169.5t-171.5 -74.5q-90 0 -152.5 58.5t-62.5 142.5z" />
    <glyph glyph-name="tilde.uc" horiz-adv-x="763" 
d="M586 1804q-24 -139 -82.5 -198.5t-149.5 -59.5q-74 0 -143 49l-25 17q-44 28 -77 28q-64 0 -80 -90h-144q14 132 78 195t156 63q74 0 143 -49l25 -16q45 -29 78 -29q63 0 79 90h142z" />
    <glyph glyph-name="hungarumlaut.uc" horiz-adv-x="751" 
d="M266 1798l-241 -244h-150l166 244h225zM575 1798l-262 -244h-149l186 244h225z" />
    <glyph glyph-name="caron.alt.uc" horiz-adv-x="415" 
d="M227 1452l-215 -389h-155l133 389h237z" />
    <glyph glyph-name="undercommaaccent" horiz-adv-x="356" 
d="M-100 -188q0 50 37.5 82t93.5 32q48 0 84.5 -32.5t36.5 -92.5q0 -49 -16.5 -90.5t-43.5 -68.5t-61 -45.5t-68 -26.5t-67 -8q-15 0 -29 2l18 80q51 0 93.5 19.5t58.5 64.5q-13 -9 -37 -9q-44 0 -72 26.5t-28 66.5z" />
    </font>
</defs>
</svg>
