<?xml version="1.0" standalone="no"?>
<!DOCTYPE svg PUBLIC "-//W3C//DTD SVG 1.1//EN" "http://www.w3.org/Graphics/SVG/1.1/DTD/svg11.dtd" >
<svg xmlns="http://www.w3.org/2000/svg" xmlns:xlink="http://www.w3.org/1999/xlink" version="1.1">
<metadata>
Created by FontForge 20201107 at Fri Jul  5 09:34:29 2024
 By 
(c) 2015, Copyright by Lineto. All rights reserved.
</metadata>
<defs>
<font id="CircularSpotifyText-Bold" horiz-adv-x="1193" >
  <font-face 
    font-family="Circular Spotify Text Bold"
    font-weight="700"
    font-stretch="normal"
    units-per-em="2048"
    panose-1="2 11 8 4 2 1 1 1 1 2"
    ascent="1536"
    descent="-512"
    x-height="1008"
    cap-height="1452"
    bbox="-410 -774 9744 2128"
    underline-thickness="102"
    underline-position="-204"
    unicode-range="U+000D-FEFF"
  />
<missing-glyph horiz-adv-x="1187" 
d="M139 0v1452h910v-1452h-910zM362 223h463v1006h-463v-1006z" />
    <glyph glyph-name="f_f" unicode="ff" horiz-adv-x="1431" 
d="M1165 1118v-110h228v-234h-228v-774h-272v774h-389v-774h-275v774h-168v234h168v114q0 170 100 272.5t267 102.5q89 0 135 -20v-230q-35 10 -86 10q-56 0 -98.5 -31.5t-42.5 -107.5v-110h389v114q0 170 100 272.5t267 102.5q89 0 135 -20v-230q-35 10 -86 10
q-25 0 -47.5 -6t-45.5 -20.5t-36.5 -43.5t-14.5 -69z" />
    <glyph glyph-name="f_f_i" unicode="ffi" horiz-adv-x="1984" 
d="M1542 1339q0 71 48.5 120.5t117.5 49.5q70 0 120 -49.5t50 -120.5q0 -69 -49.5 -117t-120.5 -48q-69 0 -117.5 48t-48.5 117zM893 1008v118q0 169 99 270t265 101q90 0 136 -20v-230q-35 10 -86 10q-56 0 -99 -31.5t-43 -107.5v-110h680v-1008h-272v774h-408v-774h-272
v774h-389v-774h-275v774h-168v234h168v114q0 170 100 272.5t267 102.5q89 0 135 -20v-230q-35 10 -86 10q-56 0 -98.5 -31.5t-42.5 -107.5v-110h389z" />
    <glyph glyph-name="f_f_l" unicode="ffl" horiz-adv-x="1986" 
d="M893 1122q0 172 99 273.5t265 101.5q90 0 136 -20v-230q-35 10 -86 10q-56 0 -99 -31.5t-43 -107.5v-110h410v475h272v-1483h-272v774h-410v-774h-272v774h-389v-774h-275v774h-168v234h168v114q0 170 100 272.5t267 102.5q89 0 135 -20v-230q-35 10 -86 10
q-56 0 -98.5 -31.5t-42.5 -107.5v-110h389v114z" />
    <glyph glyph-name="f_i" unicode="fi" horiz-adv-x="1316" 
d="M907 774h-403v-774h-275v774h-168v234h168v114q0 170 100 272.5t267 102.5q89 0 135 -20v-230q-35 10 -86 10q-56 0 -98.5 -31.5t-42.5 -107.5v-110h674v-1008h-271v774zM874 1339q0 70 49.5 120t118.5 50t118.5 -50t49.5 -120q0 -69 -49.5 -117t-118.5 -48t-118.5 48
t-49.5 117z" />
    <glyph glyph-name="f_l" unicode="fl" horiz-adv-x="1316" 
d="M645 1257q-56 0 -98.5 -31.5t-42.5 -107.5v-110h401v475h273v-1483h-273v774h-401v-774h-275v774h-168v234h168v114q0 170 100 272.5t267 102.5q89 0 135 -20v-230q-35 10 -86 10z" />
    <glyph glyph-name="f_y" unicode="fy" horiz-adv-x="1884" 
d="M1235 -397h-289l238 524l-316 647h-364v-774h-275v774h-168v234h168v114q0 170 100 272.5t267 102.5q89 0 135 -20v-230q-35 10 -86 10q-57 0 -99 -31.5t-42 -107.5v-110h557l268 -590l248 590h291z" />
    <glyph glyph-name=".notdef" horiz-adv-x="1187" 
d="M139 0v1452h910v-1452h-910zM362 223h463v1006h-463v-1006z" />
    <glyph glyph-name=".null" horiz-adv-x="0" 
 />
    <glyph glyph-name=".null" horiz-adv-x="0" 
 />
    <glyph glyph-name="uni000D" unicode="&#xd;" horiz-adv-x="485" 
 />
    <glyph glyph-name="space" unicode=" " horiz-adv-x="485" 
 />
    <glyph glyph-name="exclam" unicode="!" horiz-adv-x="563" 
d="M446 1452l-65 -1010h-199l-65 1010h329zM121 145q0 68 47 116t113 48q67 0 115 -48t48 -116q0 -67 -47.5 -114t-115.5 -47q-66 0 -113 47t-47 114z" />
    <glyph glyph-name="quotedbl" unicode="&#x22;" horiz-adv-x="849" 
d="M82 1321q0 66 44 110t110 44q65 0 108 -44t43 -110q0 -34 -6 -55l-98 -375h-97l-96 375q-8 48 -8 55zM461 1321q0 66 43.5 110t109.5 44t109 -44t43 -110q0 -34 -6 -55l-96 -375h-99l-96 375q-8 48 -8 55z" />
    <glyph glyph-name="numbersign" unicode="#" horiz-adv-x="1501" 
d="M842 537l67 337h-266l-68 -337h267zM737 0l66 340h-266l-66 -340h-217l68 340h-252v197h288l68 337h-256v195h293l76 383h217l-78 -383h268l76 383h217l-76 -383h269v-195h-306l-67 -337h270v-197h-307l-68 -340h-217z" />
    <glyph glyph-name="dollar" unicode="$" horiz-adv-x="1198" 
d="M727 -238h-211v244q-107 15 -193 59t-139 106t-83 129.5t-38 139.5l250 64q10 -112 89 -188t221 -76q105 0 166 48.5t61 123.5q0 62 -45 105.5t-125 60.5l-199 38q-169 34 -266.5 140.5t-97.5 259.5q0 165 113 283.5t286 146.5v244h211v-248q87 -15 156 -52.5t112 -88.5
t68.5 -105t36.5 -111l-244 -71q-5 34 -20.5 65.5t-44 61.5t-77.5 48.5t-112 18.5q-95 0 -156 -50.5t-61 -121.5q0 -130 154 -159l194 -37q187 -36 289 -147t102 -263q0 -153 -106 -272.5t-291 -149.5v-246z" />
    <glyph glyph-name="percent" unicode="%" horiz-adv-x="1730" 
d="M518 0h-242l934 1452h242zM743 1141q0 -143 -100 -238.5t-242 -95.5q-140 0 -239 97t-99 237q0 139 100.5 236.5t239.5 97.5t239.5 -97.5t100.5 -236.5zM266 1141q0 -64 39 -104t98 -40t96.5 40.5t37.5 103.5q0 62 -38 101.5t-96 39.5q-59 0 -98 -40t-39 -101zM985 311
q0 140 100.5 237t239.5 97q141 0 241.5 -97t100.5 -237q0 -141 -100.5 -237.5t-241.5 -96.5q-140 0 -240 97.5t-100 236.5zM1460 311q0 63 -38 102.5t-97 39.5q-58 0 -96.5 -40t-38.5 -102q0 -64 38.5 -103.5t96.5 -39.5q59 0 97 40t38 103z" />
    <glyph glyph-name="ampersand" unicode="&#x26;" horiz-adv-x="1435" 
d="M1067 0l-149 156q-182 -185 -390 -185q-103 0 -188.5 33t-139 88.5t-83 124.5t-29.5 143q0 87 32 159t82.5 124.5t133.5 114.5l10 6l-22 24q-160 169 -160 316q0 88 35 161.5t92 120t128 72t146 25.5q175 0 289.5 -103t114.5 -264q0 -178 -205 -332l-55 -41l219 -231
l366 383v-340l-202 -213l327 -342h-352zM532 209q62 0 113 30t109 91l-248 262l-31 -23q-58 -42 -87.5 -86.5t-29.5 -105.5q0 -66 49 -117t125 -51zM422 1112q0 -72 86 -158l39 -43l71 54q93 67 93 153q0 59 -42 99t-106 40q-56 0 -98.5 -38t-42.5 -107z" />
    <glyph glyph-name="quotesingle" unicode="'" horiz-adv-x="471" 
d="M82 1321q0 66 44 110t110 44q65 0 108 -44t43 -110q0 -34 -6 -55l-98 -375h-97l-96 375q-8 48 -8 55z" />
    <glyph glyph-name="parenleft" unicode="(" horiz-adv-x="692" 
d="M84 659q0 170 32.5 322t93.5 276.5t134.5 225t169.5 194.5l158 -145q-174 -186 -266.5 -397.5t-92.5 -475.5t92.5 -476.5t266.5 -397.5l-158 -143q-430 417 -430 1017z" />
    <glyph glyph-name="parenright" unicode=")" horiz-adv-x="692" 
d="M608 659q0 -600 -430 -1017l-158 143q174 185 266.5 397.5t92.5 476.5t-92.5 475.5t-266.5 397.5l158 145q96 -94 169.5 -194.5t134.5 -225t93.5 -276.5t32.5 -322z" />
    <glyph glyph-name="asterisk" unicode="*" horiz-adv-x="968" 
d="M594 1452v-260l237 80l68 -201l-242 -78l152 -205l-170 -124l-156 206l-151 -206l-170 127l149 202l-241 78l65 201l240 -80v260h219z" />
    <glyph glyph-name="plus" unicode="+" horiz-adv-x="1157" 
d="M694 1225v-400h387v-223h-387v-399h-231v399h-387v223h387v400h231z" />
    <glyph glyph-name="comma" unicode="," horiz-adv-x="581" 
d="M96 164q0 73 53.5 122.5t133.5 49.5q93 0 147.5 -66.5t54.5 -169.5q0 -87 -23 -160t-59.5 -122t-85 -85.5t-96.5 -54.5t-96 -24v131q74 16 132.5 78t61.5 143q-16 -12 -53 -12q-75 0 -122.5 48t-47.5 122z" />
    <glyph glyph-name="hyphen" unicode="-" horiz-adv-x="847" 
d="M721 487h-594v242h594v-242z" />
    <glyph glyph-name="period" unicode="." horiz-adv-x="567" 
d="M96 172q0 76 55 131t132 55q78 0 133 -54.5t55 -131.5t-55 -131.5t-133 -54.5q-77 0 -132 55t-55 131z" />
    <glyph glyph-name="slash" unicode="/" horiz-adv-x="1056" 
d="M1008 1452l-711 -1452h-246l709 1452h248z" />
    <glyph glyph-name="zero" unicode="0" horiz-adv-x="1384" 
d="M96 725q0 327 127 518q161 240 467 240q311 0 469 -240q129 -198 129 -518q0 -318 -129 -516q-158 -240 -469 -240q-306 0 -467 240q-127 191 -127 516zM379 725q0 -267 90 -393q81 -113 221 -113q142 0 223 113q93 130 93 393t-93 393q-81 113 -223 113
q-140 0 -221 -113q-90 -126 -90 -393z" />
    <glyph glyph-name="one" unicode="1" horiz-adv-x="815" 
d="M674 0h-281v987h-348v193q154 4 257.5 80t125.5 192h246v-1452z" />
    <glyph glyph-name="two" unicode="2" horiz-adv-x="1243" 
d="M381 899l-272 14q-9 45 -9 91q0 95 35.5 181t100 152.5t164.5 106t221 39.5q118 0 216 -37t162.5 -99.5t100 -146t35.5 -176.5q0 -140 -73 -255t-206 -196l-283 -174q-56 -38 -89.5 -71.5t-47.5 -79.5h707v-248h-1055q2 198 80.5 345.5t263.5 260.5l238 148
q93 58 135.5 121.5t42.5 142.5q0 91 -60.5 153t-173.5 62q-118 0 -179.5 -71.5t-61.5 -184.5q0 -28 8 -78z" />
    <glyph glyph-name="three" unicode="3" horiz-adv-x="1269" 
d="M506 653l-129 205l393 348h-651v246h1014v-233l-388 -334q83 -2 159.5 -33.5t137 -86.5t96.5 -138.5t36 -182.5q0 -94 -37 -179.5t-105 -151.5t-173 -105t-232 -39q-122 0 -225 37.5t-172 101.5t-110 146t-48 174l274 55q6 -120 84 -195t195 -75q122 0 192 67t70 166
q0 116 -75 176t-179 60q-64 0 -127 -29z" />
    <glyph glyph-name="four" unicode="4" horiz-adv-x="1327" 
d="M59 313v303l613 836h358v-891h240v-248h-240v-313h-280v313h-691zM750 561v602l-439 -602h439z" />
    <glyph glyph-name="five" unicode="5" horiz-adv-x="1236" 
d="M61 408l267 63q8 -111 85 -184.5t197 -73.5q112 0 188 69t76 183q0 123 -78 190.5t-190 67.5q-74 0 -135 -27.5t-100 -72.5q-18 7 -130 46t-135 48l177 735h800v-246h-608l-84 -346q44 43 120.5 67.5t152.5 24.5q223 0 359 -128.5t136 -354.5q0 -101 -38 -192
t-107.5 -159.5t-174 -108.5t-229.5 -40q-115 0 -215.5 36.5t-170.5 97.5t-112.5 140t-50.5 165z" />
    <glyph glyph-name="six" unicode="6" horiz-adv-x="1308" 
d="M1188 1411l-80 -229q-124 55 -244 55q-204 0 -335.5 -120t-153.5 -326q43 73 138 121.5t224 48.5q220 0 356 -132.5t136 -353.5q0 -149 -74 -265.5t-200 -178.5t-281 -62q-94 0 -179.5 26t-159 80.5t-127.5 132t-85 188t-31 241.5q0 193 58.5 352.5t163 267.5t250 167
t317.5 59q96 0 177.5 -20t129.5 -52zM403 467q0 -115 80 -186.5t191 -71.5q114 0 193 71t79 187q0 118 -79.5 190t-192.5 72q-114 0 -192.5 -72t-78.5 -190z" />
    <glyph glyph-name="seven" unicode="7" horiz-adv-x="1161" 
d="M1135 1452v-244q-33 -27 -66.5 -58t-89.5 -93.5t-105 -131t-105.5 -169.5t-99 -209.5t-76.5 -251.5t-48 -295h-293q13 163 50.5 317t87.5 271t107.5 220.5t112.5 174.5t99.5 122.5t72.5 76.5l27 24h-764v246h1090z" />
    <glyph glyph-name="eight" unicode="8" horiz-adv-x="1271" 
d="M635 -31q-244 0 -392.5 118t-148.5 302q0 121 72 217.5t188 136.5q-102 37 -164.5 130t-62.5 198q0 181 143.5 296.5t364.5 115.5q222 0 366 -115.5t144 -296.5q0 -104 -63.5 -197.5t-166.5 -130.5q116 -41 189.5 -137t73.5 -217q0 -184 -148.5 -302t-394.5 -118z
M635 848q104 3 166.5 60t62.5 145q0 81 -62.5 137.5t-166.5 56.5q-102 0 -164.5 -56.5t-62.5 -137.5q0 -87 62 -144.5t165 -60.5zM635 205q122 0 192 62t70 151q0 91 -69.5 154t-192.5 63q-122 0 -191 -63t-69 -154q0 -89 69.5 -151t190.5 -62z" />
    <glyph glyph-name="nine" unicode="9" horiz-adv-x="1296" 
d="M887 985q0 112 -78.5 184t-187.5 72q-111 0 -189 -71t-78 -185q0 -117 77.5 -187.5t189.5 -70.5q110 0 188 71.5t78 186.5zM119 49l74 230q44 -25 117 -43.5t143 -18.5q213 0 336.5 115.5t134.5 318.5q-43 -72 -135 -117t-211 -45q-99 0 -189.5 34t-159.5 95t-110 154.5
t-41 204.5q0 146 72.5 262t198 180t278.5 64q117 0 219.5 -42.5t182.5 -124t126.5 -213.5t46.5 -300q0 -398 -191 -616t-556 -218q-91 0 -186 22.5t-150 57.5z" />
    <glyph glyph-name="colon" unicode=":" horiz-adv-x="612" 
d="M123 168q0 76 53.5 130t130.5 54t131 -54t54 -130q0 -75 -54.5 -128.5t-130.5 -53.5t-130 53.5t-54 128.5zM121 838q0 76 53.5 130t130.5 54t130.5 -54t53.5 -130q0 -75 -54 -129t-130 -54t-130 54t-54 129z" />
    <glyph glyph-name="semicolon" unicode=";" horiz-adv-x="620" 
d="M127 154q0 70 50.5 116.5t125.5 46.5q89 0 141 -63.5t52 -159.5q0 -83 -22 -152.5t-57 -116.5t-81 -81.5t-91.5 -52t-90.5 -23.5v125q70 16 125.5 75.5t58.5 135.5q-16 -12 -51 -12q-70 0 -115 45.5t-45 116.5zM123 838q0 76 53.5 130t130.5 54t131 -54t54 -130
q0 -75 -54.5 -129t-130.5 -54t-130 54t-54 129z" />
    <glyph glyph-name="less" unicode="&#x3c;" horiz-adv-x="1085" 
d="M344 719l604 -295v-256l-880 442v207l880 447v-254z" />
    <glyph glyph-name="equal" unicode="=" horiz-adv-x="1245" 
d="M1118 811h-991v219h991v-219zM1118 403h-991v220h991v-220z" />
    <glyph glyph-name="greater" unicode="&#x3e;" horiz-adv-x="1085" 
d="M137 420l606 293l-606 295v256l881 -447v-205l-881 -444v252z" />
    <glyph glyph-name="question" unicode="?" horiz-adv-x="1083" 
d="M621 442h-222q-8 54 -8 84q0 175 162 297l98 74q88 65 88 162q0 76 -53.5 130t-150.5 54q-102 0 -155.5 -68t-53.5 -163q0 -42 8 -66l-258 10q-10 36 -10 93q0 84 31.5 161.5t89 138.5t148 97.5t200.5 36.5q115 0 208.5 -34.5t152.5 -92t90.5 -130t31.5 -151.5
q0 -218 -203 -362l-84 -60q-110 -78 -110 -198v-13zM352 145q0 68 47.5 116t114.5 48q68 0 116 -48.5t48 -115.5t-48 -114t-116 -47t-115 47t-47 114z" />
    <glyph glyph-name="at" unicode="@" horiz-adv-x="1701" 
d="M1219 283q-81 0 -133 35.5t-66 89.5q-37 -61 -102 -95t-136 -34q-134 0 -222.5 99t-88.5 255q0 131 55.5 237.5t147.5 165t200 58.5q64 0 120.5 -30t78.5 -87l17 90h194l-106 -502q-4 -20 -4 -37q0 -28 17 -47.5t48 -19.5q78 0 139.5 100.5t61.5 245.5q0 217 -151 353
t-390 136q-170 0 -306.5 -76.5t-215 -217.5t-78.5 -322q0 -127 42.5 -236.5t120 -190t194.5 -126t259 -45.5q215 0 377 121l99 -140q-81 -73 -216 -118t-260 -45q-178 0 -330.5 56.5t-261 157t-170 245.5t-61.5 317q0 175 64 326.5t173 256.5t256.5 164.5t311.5 59.5
q156 0 293 -51.5t234.5 -140.5t153.5 -214.5t56 -267.5q0 -113 -35 -212t-93 -166.5t-133 -107t-154 -40.5zM1028 748q0 75 -36 118t-103 43q-90 0 -148.5 -76t-58.5 -182q0 -87 35.5 -137.5t109.5 -50.5q85 0 141.5 81t59.5 204z" />
    <glyph glyph-name="A" unicode="A" horiz-adv-x="1476" 
d="M1149 0l-121 332h-590l-121 -332h-299l557 1452h328l553 -1452h-307zM733 1139l-201 -549h402z" />
    <glyph glyph-name="B" unicode="B" horiz-adv-x="1269" 
d="M170 1452h522q207 0 325 -109t118 -282q0 -110 -59 -195t-152 -116q110 -27 183 -120t73 -224q0 -179 -123.5 -292.5t-325.5 -113.5h-561v1452zM449 852h200q96 0 151.5 49t55.5 133q0 85 -54 132.5t-155 47.5h-198v-362zM449 236h229q103 0 161 50t58 138
q0 89 -56 141.5t-159 52.5h-233v-382z" />
    <glyph glyph-name="C" unicode="C" horiz-adv-x="1548" 
d="M827 -31q-152 0 -287.5 53.5t-236.5 150t-160 240t-59 312.5t61 313t163 240.5t235.5 150.5t279.5 54q144 0 264 -41.5t199.5 -112t130 -153t72.5 -175.5l-266 -83q-14 56 -42.5 105t-75 92.5t-119.5 69t-163 25.5q-84 0 -162 -30t-142 -88t-103 -153t-39 -214
q0 -112 37.5 -204.5t100.5 -151.5t143.5 -91t168.5 -32q72 0 134 18t106 47.5t79 69t56 79.5t33 83l264 -80q-17 -70 -51.5 -137t-92 -133t-131 -115t-176.5 -79t-221 -30z" />
    <glyph glyph-name="D" unicode="D" horiz-adv-x="1495" 
d="M453 262h225q91 0 169 28.5t138 84t94.5 145.5t34.5 205t-34 205t-94 146t-137.5 85t-168.5 29h-227v-928zM688 0h-518v1452h520q155 0 286.5 -49.5t227 -141t149.5 -229.5t54 -307q0 -224 -94 -390t-255.5 -250.5t-369.5 -84.5z" />
    <glyph glyph-name="E" unicode="E" horiz-adv-x="1185" 
d="M1079 0h-909v1452h909v-266h-626v-332h567v-252h-567v-336h626v-266z" />
    <glyph glyph-name="F" unicode="F" horiz-adv-x="1165" 
d="M455 0h-285v1452h917v-268h-634v-359h565v-260h-563v-565z" />
    <glyph glyph-name="G" unicode="G" horiz-adv-x="1599" 
d="M1485 0h-230l-18 166q-56 -83 -166 -140t-262 -57q-147 0 -278.5 53t-230.5 148.5t-157.5 239.5t-58.5 315t61 315.5t163.5 240t236.5 149t282 53.5q137 0 253 -38t196 -102.5t133.5 -141.5t81.5 -165l-270 -96q-15 52 -45 99t-76.5 88.5t-117 66.5t-155.5 25t-164 -29.5
t-145.5 -87.5t-106.5 -155.5t-40 -221.5q0 -119 37 -215.5t100.5 -157t145.5 -93t175 -32.5q77 0 141.5 20t107 50t74 69.5t47 75t20.5 68.5h-459v246h725v-756z" />
    <glyph glyph-name="H" unicode="H" horiz-adv-x="1540" 
d="M1370 0h-285v602h-632v-602h-283v1452h283v-584h632v584h285v-1452z" />
    <glyph glyph-name="I" unicode="I" horiz-adv-x="626" 
d="M457 0h-287v1452h287v-1452z" />
    <glyph glyph-name="J" unicode="J" horiz-adv-x="1148" 
d="M43 442v97l272 49v-133q1 -108 56 -162.5t145 -54.5q89 0 141 57.5t52 153.5v1003h282v-1003q0 -131 -58.5 -240t-167.5 -174.5t-247 -65.5q-215 0 -345 129.5t-130 343.5z" />
    <glyph glyph-name="K" unicode="K" horiz-adv-x="1409" 
d="M1055 0l-422 602l-180 -199v-403h-283v1452h283v-657l581 657h371l-576 -633l580 -819h-354z" />
    <glyph glyph-name="L" unicode="L" horiz-adv-x="1132" 
d="M1100 0h-930v1452h283v-1182h647v-270z" />
    <glyph glyph-name="M" unicode="M" horiz-adv-x="1959" 
d="M1790 0h-279v1018l-417 -1018h-236l-418 1010v-1010h-270v1452h373l436 -1049l426 1049h385v-1452z" />
    <glyph glyph-name="N" unicode="N" horiz-adv-x="1579" 
d="M1409 0h-297l-659 1030v-1030h-283v1452h352l604 -960v960h283v-1452z" />
    <glyph glyph-name="O" unicode="O" horiz-adv-x="1660" 
d="M377 727q0 -118 39 -213t104 -152.5t144 -87.5t165 -30q69 0 134 18.5t123.5 57.5t102 95t69.5 136.5t26 175.5t-26 175.5t-69.5 136.5t-102 95t-123.5 57.5t-134 18.5q-86 0 -165 -30t-144 -87.5t-104 -152.5t-39 -213zM84 725q0 171 61 315.5t164 240t237.5 149
t282.5 53.5t283.5 -53.5t238.5 -149t164.5 -240t61.5 -315.5q0 -170 -61.5 -314t-164.5 -239.5t-238.5 -149t-283.5 -53.5t-282.5 53.5t-237.5 149t-164 239.5t-61 314z" />
    <glyph glyph-name="P" unicode="P" horiz-adv-x="1239" 
d="M455 791h223q105 0 166 56t61 150q0 97 -60.5 153t-166.5 56h-223v-415zM713 547h-260v-547h-283v1452h543q213 0 345 -127.5t132 -325.5q0 -199 -131.5 -325.5t-345.5 -126.5z" />
    <glyph glyph-name="Q" unicode="Q" horiz-adv-x="1660" 
d="M84 725q0 171 61 315.5t164 240t237.5 149t282.5 53.5t283.5 -53.5t238.5 -149t164.5 -240t61.5 -315.5q0 -298 -178 -502l174 -192l-187 -160l-178 197q-178 -99 -379 -99q-148 0 -282.5 53.5t-237.5 149t-164 239.5t-61 314zM377 727q0 -118 39 -213t104 -152.5
t144 -87.5t165 -30q103 0 187 37l-228 249l189 162l227 -254q80 121 80 289q0 95 -26 175.5t-69.5 136.5t-102 95t-123.5 57.5t-134 18.5q-86 0 -165 -30t-144 -87.5t-104 -152.5t-39 -213z" />
    <glyph glyph-name="R" unicode="R" horiz-adv-x="1290" 
d="M887 0l-285 559h-147v-559h-285v1452h567q209 0 336 -126.5t127 -319.5q0 -151 -83 -261t-226 -151l311 -594h-315zM455 803h229q106 0 166.5 55t60.5 146q0 93 -60.5 147.5t-166.5 54.5h-229v-403z" />
    <glyph glyph-name="S" unicode="S" horiz-adv-x="1249" 
d="M1147 1106l-254 -78q-6 34 -22 66.5t-45.5 65.5t-80.5 53t-116 20q-100 0 -164 -54.5t-64 -129.5q0 -62 40.5 -105.5t117.5 -58.5l203 -39q193 -37 299 -153.5t106 -274.5q0 -85 -35 -164.5t-99.5 -143.5t-166 -102.5t-223.5 -38.5q-111 0 -205 27.5t-158 72.5
t-111 105.5t-71.5 122.5t-31.5 127l262 70q10 -116 91 -194.5t226 -78.5q111 0 173.5 49.5t62.5 128.5q0 64 -46 109.5t-130 62.5l-203 41q-176 36 -278.5 145t-102.5 271q0 126 69 231t185 164.5t252 59.5q125 0 223.5 -35t157.5 -93t92 -119.5t47 -129.5z" />
    <glyph glyph-name="T" unicode="T" horiz-adv-x="1267" 
d="M1235 1184h-459v-1184h-284v1184h-459v268h1202v-268z" />
    <glyph glyph-name="U" unicode="U" horiz-adv-x="1431" 
d="M715 -33q-117 0 -217.5 36t-176.5 103.5t-119.5 172.5t-43.5 235v938h282v-917q0 -140 73.5 -215.5t201.5 -75.5q131 0 203.5 75t72.5 216v917h283v-938q0 -173 -75.5 -298.5t-200.5 -187t-283 -61.5z" />
    <glyph glyph-name="V" unicode="V" horiz-adv-x="1411" 
d="M711 373l379 1079h299l-539 -1452h-291l-536 1452h309z" />
    <glyph glyph-name="W" unicode="W" horiz-adv-x="2131" 
d="M1542 449l262 1003h289l-401 -1452h-291l-332 1034l-332 -1034h-295l-403 1452h299l266 -999l322 999h293z" />
    <glyph glyph-name="X" unicode="X" horiz-adv-x="1331" 
d="M1315 1452l-475 -727l477 -725h-342l-313 502l-316 -502h-332l478 727l-476 725h340l312 -502l317 502h330z" />
    <glyph glyph-name="Y" unicode="Y" horiz-adv-x="1349" 
d="M532 610l-505 842h331l326 -575l326 575h317l-512 -842v-610h-283v610z" />
    <glyph glyph-name="Z" unicode="Z" horiz-adv-x="1316" 
d="M1227 0h-1143v274l756 910h-729v268h1106v-264l-768 -918h778v-270z" />
    <glyph glyph-name="bracketleft" unicode="[" horiz-adv-x="665" 
d="M612 -336h-473v1995h473v-207h-245v-1577h245v-211z" />
    <glyph glyph-name="backslash" unicode="\" horiz-adv-x="1054" 
d="M754 0l-707 1452h252l705 -1452h-250z" />
    <glyph glyph-name="bracketright" unicode="]" horiz-adv-x="665" 
d="M526 -336h-473v211h244v1577h-244v207h473v-1995z" />
    <glyph glyph-name="asciicircum" unicode="^" horiz-adv-x="1155" 
d="M1087 719h-256l-251 473l-252 -473h-260l405 733h209z" />
    <glyph glyph-name="underscore" unicode="_" horiz-adv-x="1067" 
d="M1057 -223h-1047v223h1047v-223z" />
    <glyph glyph-name="grave" unicode="`" horiz-adv-x="606" 
d="M332 1128l-279 308h316l184 -308h-221z" />
    <glyph glyph-name="a" unicode="a" horiz-adv-x="1101" 
d="M80 274q0 129 83.5 207.5t217.5 98.5l248 36q76 11 76 72q0 57 -43.5 94t-126.5 37q-85 0 -136 -47t-57 -117l-242 52q6 61 37 118.5t83 106t133.5 77.5t178.5 29q116 0 202.5 -31t137 -85t75 -121t24.5 -146v-495q0 -90 12 -160h-250q-10 45 -10 121q-42 -66 -117 -108
t-180 -42q-155 0 -250.5 89.5t-95.5 213.5zM483 174q97 0 159.5 55t62.5 179v45l-228 -35q-56 -8 -90.5 -39.5t-34.5 -87.5q0 -48 34.5 -82.5t96.5 -34.5z" />
    <glyph glyph-name="b" unicode="b" horiz-adv-x="1257" 
d="M403 0h-264v1483h269v-586q36 58 117 97.5t188 39.5q144 0 250.5 -69.5t160.5 -187.5t54 -269q0 -152 -58.5 -273t-167.5 -190.5t-250 -69.5q-101 0 -179.5 40.5t-119.5 107.5v-123zM905 506q0 134 -71 209.5t-179 75.5q-107 0 -179.5 -76t-72.5 -209q0 -132 72.5 -209.5
t179.5 -77.5q108 0 179 76.5t71 210.5z" />
    <glyph glyph-name="c" unicode="c" horiz-adv-x="1138" 
d="M606 786q-109 0 -182.5 -75t-73.5 -207t74.5 -208.5t183.5 -76.5q95 0 153.5 50.5t78.5 119.5l239 -80q-17 -65 -55.5 -124t-95.5 -108.5t-140 -78.5t-180 -29q-224 0 -377 152.5t-153 382.5q0 231 150 382.5t372 151.5q99 0 183 -29t141 -78t94.5 -108t54.5 -125
l-244 -82q-22 73 -76 121.5t-147 48.5z" />
    <glyph glyph-name="d" unicode="d" horiz-adv-x="1253" 
d="M1114 1483v-1301q0 -100 8 -182h-260q-10 50 -10 117q-35 -63 -110 -102.5t-173 -39.5q-214 0 -352.5 150.5t-138.5 380.5q0 224 136 375t347 151q117 0 187.5 -37.5t97.5 -87.5v576h268zM352 506q0 -132 70 -209.5t180 -77.5q107 0 177.5 78t70.5 211q0 131 -70 205.5
t-178 74.5t-179 -75.5t-71 -206.5z" />
    <glyph glyph-name="e" unicode="e" horiz-adv-x="1150" 
d="M352 618h451q-3 83 -59.5 141t-165.5 58q-99 0 -160 -61.5t-66 -137.5zM829 356l228 -67q-41 -139 -161 -229.5t-298 -90.5q-104 0 -198 37t-165.5 104.5t-114 170.5t-42.5 227q0 117 41 218t109.5 168.5t158 105.5t186.5 38q233 0 365.5 -139.5t132.5 -382.5
q0 -17 -1 -37t-2 -33t-1 -14h-721q4 -99 78 -164t176 -65q173 0 229 153z" />
    <glyph glyph-name="f" unicode="f" horiz-adv-x="770" 
d="M645 1257q-57 0 -99 -31.5t-42 -107.5v-110h227v-234h-227v-774h-275v774h-168v234h168v114q0 170 100 272.5t267 102.5q89 0 135 -20v-230q-35 10 -86 10z" />
    <glyph glyph-name="g" unicode="g" horiz-adv-x="1236" 
d="M80 -55l246 65q14 -85 77 -137.5t158 -52.5q268 0 268 280v74q-34 -55 -106 -92t-174 -37q-202 0 -335.5 139t-133.5 351q0 133 59 245t167 179t243 67q111 0 184 -39.5t103 -97.5v119h262v-899q0 -85 -18.5 -161t-59 -144t-101 -117.5t-150.5 -78t-200 -28.5
q-199 0 -332.5 106.5t-156.5 258.5zM596 279q105 0 171.5 70t66.5 186q0 114 -68.5 183.5t-169.5 69.5q-104 0 -173 -69.5t-69 -183.5q0 -117 67.5 -186.5t174.5 -69.5z" />
    <glyph glyph-name="h" unicode="h" horiz-adv-x="1187" 
d="M412 592v-592h-273v1483h273v-559q47 55 120.5 82.5t151.5 27.5q124 0 210 -54.5t125.5 -142.5t39.5 -202v-635h-273v588q0 90 -46 145t-140 55q-84 0 -133.5 -55t-54.5 -141z" />
    <glyph glyph-name="i" unicode="i" horiz-adv-x="550" 
d="M412 0h-273v1008h273v-1008zM106 1337q0 70 49.5 120t118.5 50q70 0 119 -49.5t49 -120.5q0 -68 -49 -117t-119 -49q-69 0 -118.5 49t-49.5 117z" />
    <glyph glyph-name="j" unicode="j" horiz-adv-x="550" 
d="M139 -61v1069h273v-1096q0 -148 -85.5 -240t-230.5 -92q-99 0 -153 23v227q45 -10 84 -10q112 0 112 119zM106 1339q0 70 49.5 120t118.5 50q70 0 119 -49.5t49 -120.5q0 -69 -49 -117t-119 -48q-69 0 -118.5 48t-49.5 117z" />
    <glyph glyph-name="k" unicode="k" horiz-adv-x="1142" 
d="M1116 1008l-403 -424l411 -584h-333l-267 385l-112 -119v-266h-273v1483h273v-850l348 375h356z" />
    <glyph glyph-name="l" unicode="l" horiz-adv-x="550" 
d="M412 0h-273v1483h273v-1483z" />
    <glyph glyph-name="m" unicode="m" horiz-adv-x="1806" 
d="M412 0h-273v1008h260v-123q40 70 123.5 110.5t171.5 40.5q104 0 182.5 -43.5t116.5 -124.5q109 168 320 168q72 0 135.5 -22.5t115.5 -67t82.5 -120t30.5 -173.5v-653h-264v598q0 86 -44 138t-134 52q-85 0 -135.5 -56.5t-50.5 -141.5v-590h-271v598q0 86 -44.5 138
t-133.5 52q-87 0 -137.5 -56t-50.5 -142v-590z" />
    <glyph glyph-name="n" unicode="n" horiz-adv-x="1187" 
d="M412 580v-580h-273v1008h264v-125q43 74 123 112.5t168 38.5q179 0 272 -111.5t93 -287.5v-635h-273v588q0 90 -46 145t-140 55q-87 0 -137.5 -59t-50.5 -149z" />
    <glyph glyph-name="o" unicode="o" horiz-adv-x="1212" 
d="M606 217q107 0 181.5 75.5t74.5 211.5t-74.5 211.5t-181.5 75.5t-181.5 -75.5t-74.5 -211.5q0 -134 75 -210.5t181 -76.5zM606 1038q227 0 378 -151t151 -383q0 -152 -69 -274.5t-190 -191.5t-270 -69q-226 0 -377 152t-151 383q0 232 150.5 383t377.5 151z" />
    <glyph glyph-name="p" unicode="p" horiz-adv-x="1257" 
d="M412 -389h-273v1397h264v-123q36 62 118.5 103.5t191.5 41.5q216 0 340.5 -147t124.5 -377q0 -231 -132 -381t-344 -150q-99 0 -175 34.5t-115 88.5v-487zM909 504q0 130 -71 206t-179 76t-179.5 -76t-71.5 -206t72 -207.5t179 -77.5q108 0 179 77t71 208z" />
    <glyph glyph-name="q" unicode="q" horiz-adv-x="1255" 
d="M1116 -389h-266v489q-36 -58 -109.5 -91.5t-171.5 -33.5q-214 0 -352.5 151t-138.5 380q0 147 59 266.5t170 189.5t254 70q119 0 193.5 -43.5t101.5 -97.5v117h260v-1397zM352 506q0 -131 71.5 -209t178.5 -78t178.5 78t71.5 209t-71 206.5t-179 75.5t-179 -75.5
t-71 -206.5z" />
    <glyph glyph-name="r" unicode="r" horiz-adv-x="794" 
d="M754 1012v-275q-41 8 -82 8q-55 0 -99.5 -14.5t-82 -46t-58 -88t-20.5 -135.5v-461h-273v1008h264v-150q22 47 57.5 80.5t77.5 49t78.5 22t73.5 6.5q24 0 64 -4z" />
    <glyph glyph-name="s" unicode="s" horiz-adv-x="964" 
d="M72 281l233 51q5 -65 52.5 -109.5t131.5 -44.5q64 0 99 29t35 72q0 76 -109 98l-133 31q-141 31 -212 111t-71 190q0 137 108 233t269 96q82 0 149.5 -20t110.5 -50.5t73 -70.5t44 -76.5t18 -72.5l-227 -52q-7 54 -47.5 94.5t-118.5 40.5q-54 0 -91.5 -28.5t-37.5 -71.5
q0 -36 25 -59t67 -31l144 -31q145 -30 222 -112.5t77 -196.5q0 -63 -24.5 -121.5t-71.5 -106t-123.5 -76t-171.5 -28.5q-87 0 -158.5 21.5t-117 55t-78 76.5t-47.5 82.5t-19 76.5z" />
    <glyph glyph-name="t" unicode="t" horiz-adv-x="776" 
d="M494 1309v-301h202v-242h-202v-422q0 -64 28.5 -90.5t89.5 -26.5q52 0 84 9v-226q-60 -24 -153 -24q-148 0 -234 82.5t-86 228.5v469h-182v242h51q76 0 116 44t40 115v142h246z" />
    <glyph glyph-name="u" unicode="u" horiz-adv-x="1187" 
d="M799 0q-8 40 -8 109q-39 -67 -116 -101.5t-163 -34.5q-177 0 -280 113.5t-103 284.5v637h272v-582q0 -90 47 -146.5t138 -56.5q89 0 139.5 54.5t50.5 144.5v586h273v-826q0 -94 10 -182h-260z" />
    <glyph glyph-name="v" unicode="v" horiz-adv-x="1134" 
d="M1100 1008l-391 -1008h-273l-411 1008h299l249 -676l240 676h287z" />
    <glyph glyph-name="w" unicode="w" horiz-adv-x="1716" 
d="M721 1008h287l217 -650l186 650h270l-315 -1008h-272l-236 688l-231 -688h-277l-321 1008h286l187 -648z" />
    <glyph glyph-name="x" unicode="x" horiz-adv-x="1095" 
d="M29 0l358 506l-358 502h323q17 -28 100.5 -150t100.5 -149l199 299h309l-352 -494l364 -514h-319l-211 309q-192 -285 -207 -309h-307z" />
    <glyph glyph-name="y" unicode="y" horiz-adv-x="1153" 
d="M504 -397h-289l238 524l-428 881h305l268 -590l248 590h291z" />
    <glyph glyph-name="z" unicode="z" horiz-adv-x="1015" 
d="M924 0h-834v240l477 532h-465v236h813v-228l-491 -542h500v-238z" />
    <glyph glyph-name="braceleft" unicode="{" horiz-adv-x="753" 
d="M33 555v227q94 0 149.5 46t55.5 145v291q0 197 104 296t293 99h63v-207h-61q-170 0 -170 -182v-344q0 -97 -54.5 -164.5t-152.5 -93.5q98 -25 152.5 -92.5t54.5 -165.5v-342q0 -185 170 -185h61v-207h-63q-189 0 -293 100.5t-104 297.5v291q0 99 -55.5 144.5t-149.5 45.5
z" />
    <glyph glyph-name="bar" unicode="|" horiz-adv-x="505" 
d="M367 -324h-228v1983h228v-1983z" />
    <glyph glyph-name="braceright" unicode="}" horiz-adv-x="751" 
d="M721 782v-227q-95 0 -151 -45.5t-56 -144.5v-291q0 -197 -104 -297.5t-291 -100.5h-64v207h60q172 0 172 185v342q0 98 54 165.5t151 92.5q-98 26 -151.5 93.5t-53.5 164.5v344q0 182 -172 182h-60v207h64q188 0 291.5 -99t103.5 -296v-291q0 -99 56.5 -145t150.5 -46z
" />
    <glyph glyph-name="asciitilde" unicode="~" horiz-adv-x="1292" 
d="M633 477l-96 53q-52 27 -103 27q-111 0 -182 -106l-152 120q57 104 145.5 159.5t194.5 55.5q108 0 213 -57l97 -53q51 -29 108 -29q112 0 180 105l150 -121q-56 -103 -144.5 -158t-193.5 -55q-113 0 -217 59z" />
    <glyph glyph-name="uni00A0" unicode="&#xa0;" horiz-adv-x="485" 
 />
    <glyph glyph-name="exclamdown" unicode="&#xa1;" horiz-adv-x="538" 
d="M369 580l63 -1010h-328l66 1010h199zM106 877q0 66 47.5 113.5t114.5 47.5q66 0 114 -47.5t48 -113.5q0 -67 -48 -115.5t-114 -48.5q-67 0 -114.5 48t-47.5 116z" />
    <glyph glyph-name="cent" unicode="&#xa2;" horiz-adv-x="1161" 
d="M618 440q94 0 153.5 49t82.5 119l238 -76q-31 -122 -127.5 -215.5t-241.5 -119.5v-197h-211v199q-188 33 -307 175.5t-119 346.5t119.5 348.5t306.5 177.5v205h211v-209q144 -26 237.5 -117.5t124.5 -214.5l-241 -77q-21 73 -78 121.5t-152 48.5q-112 0 -185 -76.5
t-73 -206.5q0 -128 75 -204.5t187 -76.5z" />
    <glyph glyph-name="sterling" unicode="&#xa3;" horiz-adv-x="1263" 
d="M913 621h-338q9 -52 9 -72q0 -93 -38 -178t-106 -133h324q87 0 138.5 53t53.5 141l240 -20q-3 -186 -108.5 -299t-286.5 -113h-692v217q97 39 157 122.5t60 188.5q0 36 -11 93h-198v206h135q-49 129 -49 236q0 86 31.5 162t89.5 133t146 90t194 33q88 0 160.5 -23.5
t121.5 -62.5t83 -90.5t50 -106.5t17 -113l-238 -41q-3 96 -55 152.5t-139 56.5t-141 -52t-54 -154q0 -79 53 -220h391v-206z" />
    <glyph glyph-name="currency" unicode="&#xa4;" horiz-adv-x="1261" 
d="M995 195l-147 149q-95 -53 -213 -53q-113 0 -217 55l-150 -151l-166 163l150 150q-59 94 -59 217q0 126 59 221l-150 152l166 162l152 -154q104 55 215 55q120 0 209 -53l151 152l164 -162l-143 -150q63 -95 63 -223q0 -121 -63 -223l143 -144zM420 725
q0 -94 60.5 -153.5t154.5 -59.5t153.5 59.5t59.5 153.5t-59.5 153.5t-153.5 59.5t-154.5 -59.5t-60.5 -153.5z" />
    <glyph glyph-name="yen" unicode="&#xa5;" horiz-adv-x="1372" 
d="M817 0h-266v276h-379v195h379v137h-379v193h268l-381 651h308l327 -582l324 582h295l-389 -651h272v-193h-379v-137h379v-195h-379v-276z" />
    <glyph glyph-name="brokenbar" unicode="&#xa6;" horiz-adv-x="530" 
d="M152 1659h227v-815h-227v815zM152 492h227v-816h-227v816z" />
    <glyph glyph-name="section" unicode="&#xa7;" horiz-adv-x="1081" 
d="M971 518q0 -89 -44.5 -153.5t-113.5 -102.5q77 -55 117.5 -130t40.5 -161q0 -87 -36.5 -161.5t-96.5 -124t-138 -77.5t-161 -28q-196 0 -310.5 104t-122.5 277l254 43q0 -95 48.5 -144.5t132.5 -49.5q68 0 111.5 39.5t43.5 103.5q0 80 -90 127l-207 108q-52 27 -88 49
t-76.5 54.5t-65 66.5t-40.5 81t-16 102q0 88 43 154t112 104q-76 56 -115.5 132.5t-39.5 160.5q0 115 62 206t160 138t212 47q193 0 308.5 -106t121.5 -277l-258 -41q0 94 -47 143t-127 49q-72 0 -116 -40t-44 -103q0 -38 23.5 -71.5t66.5 -53.5l205 -106q66 -35 111.5 -65
t90 -73.5t67 -98.5t22.5 -122zM633 602l-207 109q-66 -52 -66 -115q0 -46 20 -78t69 -57l206 -111q66 52 66 117q0 88 -88 135z" />
    <glyph glyph-name="dieresis" unicode="&#xa8;" horiz-adv-x="829" 
d="M55 1286q0 60 42 103t102 43t102.5 -43t42.5 -103t-42.5 -101.5t-102.5 -41.5t-102 41.5t-42 101.5zM485 1286q0 61 41.5 103.5t102.5 42.5q60 0 102.5 -43t42.5 -103t-42.5 -101.5t-102.5 -41.5q-61 0 -102.5 41.5t-41.5 101.5z" />
    <glyph glyph-name="copyright" unicode="&#xa9;" horiz-adv-x="1683" 
d="M260 725q0 -165 76.5 -301.5t210 -215.5t293.5 -79t293.5 79t209.5 215.5t76 301.5q0 124 -45 235t-122 190.5t-184.5 126t-227.5 46.5q-161 0 -294 -79t-209.5 -216.5t-76.5 -302.5zM86 725q0 154 59.5 294.5t160.5 242.5t240.5 162.5t293.5 60.5t294 -60.5
t241.5 -162.5t161.5 -242.5t60 -294.5q0 -205 -101.5 -379.5t-276 -276.5t-379.5 -102q-154 0 -294 60.5t-240.5 162t-160 242t-59.5 293.5zM846 938q-82 0 -138.5 -57.5t-56.5 -157.5q0 -99 57 -158t140 -59q73 0 117.5 39.5t58.5 91.5l182 -62q-29 -106 -122 -182
t-236 -76q-170 0 -287 115.5t-117 290.5q0 177 114.5 292t283.5 115q146 0 239.5 -75.5t120.5 -182.5l-186 -63q-16 55 -57 92t-113 37z" />
    <glyph glyph-name="ordfeminine" unicode="&#xaa;" horiz-adv-x="854" 
d="M528 1026v31l-149 -25q-84 -14 -84 -82q0 -34 23 -57t67 -23q61 0 102 37t41 119zM92 938q0 88 60 143.5t153 69.5l170 25q53 8 53 49q0 37 -29 61.5t-85 24.5t-90 -32.5t-39 -78.5l-179 39q5 41 26 81t57.5 75t95.5 56.5t131 21.5q158 0 233.5 -77t75.5 -196v-346
q0 -65 8 -113h-184q-6 36 -6 82q-66 -102 -205 -102q-111 0 -178.5 63.5t-67.5 153.5z" />
    <glyph glyph-name="guillemotleft" unicode="&#xab;" horiz-adv-x="1128" 
d="M604 207h-258l-280 397l282 404h256l-278 -406zM1047 207h-259l-278 397l281 404h258l-281 -406z" />
    <glyph glyph-name="logicalnot" unicode="&#xac;" horiz-adv-x="1222" 
d="M1090 389h-236v399h-768v228h1004v-627z" />
    <glyph glyph-name="uni00AD" unicode="&#xad;" horiz-adv-x="847" 
d="M721 487h-594v242h594v-242z" />
    <glyph glyph-name="registered" unicode="&#xae;" horiz-adv-x="1683" 
d="M86 725q0 154 59.5 294.5t160.5 242.5t240.5 162.5t293.5 60.5t294 -60.5t241.5 -162.5t161.5 -242.5t60 -294.5q0 -205 -101.5 -379.5t-276 -276.5t-379.5 -102q-154 0 -294 60.5t-240.5 162t-160 242t-59.5 293.5zM260 725q0 -165 76.5 -301.5t210 -215.5t293.5 -79
t293.5 79t209.5 215.5t76 301.5q0 124 -45 235t-122 190.5t-184.5 126t-227.5 46.5q-161 0 -294 -79t-209.5 -216.5t-76.5 -302.5zM963 322l-142 284h-59v-284h-195v819h324q118 0 199 -78t81 -189q0 -80 -42.5 -143t-114.5 -94l164 -315h-215zM762 766h94q56 0 87.5 28.5
t31.5 77.5q0 51 -31.5 80t-87.5 29h-94v-215z" />
    <glyph glyph-name="macron" unicode="&#xaf;" horiz-adv-x="686" 
d="M631 1182h-576v198h576v-198z" />
    <glyph glyph-name="degree" unicode="&#xb0;" horiz-adv-x="829" 
d="M414 1001q59 0 97 41t38 105q0 61 -38 100t-97 39q-58 0 -96.5 -39t-38.5 -100q0 -64 38.5 -105t96.5 -41zM74 1147q0 139 100.5 236.5t239.5 97.5t240.5 -98t101.5 -236q0 -143 -101 -239.5t-241 -96.5t-240 98t-100 238z" />
    <glyph glyph-name="plusminus" unicode="&#xb1;" horiz-adv-x="1232" 
d="M1096 752h-365v-250h-231v250h-363v221h363v252h231v-252h365v-221zM1096 201h-959v223h959v-223z" />
    <glyph glyph-name="twosuperior" unicode="&#xb2;" horiz-adv-x="733" 
d="M266 1157l-186 -2q-8 28 -8 59q0 110 77.5 182t217.5 72q133 0 211.5 -72t78.5 -177q0 -134 -161 -230l-144 -86q-24 -14 -24 -31h336v-174h-596v25q0 105 42.5 184t139.5 137l123 72q78 47 78 105q0 31 -23 55t-63 24q-48 0 -76.5 -28t-28.5 -78q0 -19 6 -37z" />
    <glyph glyph-name="threesuperior" unicode="&#xb3;" horiz-adv-x="751" 
d="M53 918l187 43q5 -47 39.5 -78t85.5 -31q50 0 80 25.5t30 64.5q0 46 -31 69t-77 23q-38 0 -66 -12l-68 139l179 121h-330v170h582v-168l-185 -125q94 -12 150.5 -69.5t56.5 -151.5q0 -107 -88 -181.5t-233 -74.5q-131 0 -215 69.5t-97 166.5z" />
    <glyph glyph-name="acute" unicode="&#xb4;" horiz-adv-x="604" 
d="M551 1436l-279 -308h-219l187 308h311z" />
    <glyph glyph-name="mu" unicode="&#xb5;" horiz-adv-x="1177" 
d="M799 0q-8 40 -8 109q-39 -67 -116 -101.5t-163 -34.5q-62 0 -111 15v-377h-272v1397h272v-582q0 -90 47 -146.5t138 -56.5q89 0 139.5 54.5t50.5 144.5v586h273v-826q0 -114 10 -182h-260z" />
    <glyph glyph-name="paragraph" unicode="&#xb6;" horiz-adv-x="1413" 
d="M725 1243v-1632h-213v1005h-35q-172 0 -295 119t-123 291q0 133 67 231t176 146.5t243 48.5h792v-209h-198v-1632h-217v1632h-197z" />
    <glyph glyph-name="periodcentered" unicode="&#xb7;" horiz-adv-x="569" 
d="M109 633q0 73 51 123.5t125 50.5t125 -50.5t51 -123.5t-51 -122.5t-125 -49.5t-125 49.5t-51 122.5z" />
    <glyph glyph-name="cedilla" unicode="&#xb8;" horiz-adv-x="610" 
d="M244 -221l-74 92l98 156h170l-80 -125q88 -2 143.5 -51t55.5 -125q0 -80 -65 -137.5t-197 -57.5q-79 0 -144.5 32.5t-99.5 74.5l88 110q76 -76 154 -76q38 0 61 15.5t23 42.5q0 24 -21 40.5t-57 16.5q-34 0 -55 -8z" />
    <glyph glyph-name="onesuperior" unicode="&#xb9;" horiz-adv-x="526" 
d="M438 700h-211v457h-186v135q89 0 144 48.5t67 111.5h186v-752z" />
    <glyph glyph-name="ordmasculine" unicode="&#xba;" horiz-adv-x="899" 
d="M449 723q-160 0 -266.5 106.5t-106.5 270.5q0 162 107 268.5t266 106.5t266.5 -106.5t107.5 -268.5q0 -164 -107 -270.5t-267 -106.5zM279 1100q0 -91 49.5 -141t120.5 -50q72 0 122 49.5t50 141.5q0 90 -50 139t-122 49q-71 0 -120.5 -49t-49.5 -139z" />
    <glyph glyph-name="guillemotright" unicode="&#xbb;" horiz-adv-x="1130" 
d="M784 207h-258l279 395l-279 406h256l283 -404zM342 207h-258l276 395l-278 406h256l283 -404z" />
    <glyph glyph-name="onequarter" unicode="&#xbc;" horiz-adv-x="1624" 
d="M428 0h-235l933 1452h238zM63 1157v137q90 0 144.5 47.5t66.5 110.5h187v-752h-211v457h-187zM864 145v205l344 404h226v-447h122v-162h-122v-145h-205v145h-365zM1229 307v234l-201 -234h201z" />
    <glyph glyph-name="onehalf" unicode="&#xbd;" horiz-adv-x="1673" 
d="M428 0h-238l936 1452h236zM1198 457h-188q-6 27 -6 59q0 107 77 180.5t215 73.5q134 0 213.5 -72.5t79.5 -177.5q0 -134 -164 -229l-139 -84q-27 -19 -29 -33h336v-174h-596v27q0 212 183 319l123 72q79 48 79 104q0 32 -23 57t-67 25q-48 0 -74 -30t-26 -76q0 -11 6 -41
zM66 1157v137q89 0 143.5 47.5t66.5 110.5h187v-752h-211v457h-186z" />
    <glyph glyph-name="threequarters" unicode="&#xbe;" horiz-adv-x="1777" 
d="M578 0h-236l934 1452h235zM1020 145v205l344 404h225v-447h123v-162h-123v-145h-205v145h-364zM1384 307v234l-200 -234h200zM324 1024l-68 139l172 119h-332v170h582v-170l-184 -125q96 -12 152 -70t56 -149q0 -106 -88.5 -181t-232.5 -75q-132 0 -216 70t-95 166
l186 43q5 -47 39 -77t86 -30q50 0 80.5 24.5t30.5 63.5q0 46 -31.5 69t-77.5 23q-32 0 -59 -10z" />
    <glyph glyph-name="questiondown" unicode="&#xbf;" horiz-adv-x="1069" 
d="M453 582h221q6 -41 6 -84q0 -185 -158 -299l-98 -72q-86 -63 -86 -162q0 -76 53 -129t150 -53q101 0 156 63.5t55 153.5q0 47 -13 84l262 -25q11 -53 11 -90q0 -84 -31.5 -160.5t-89 -137t-148.5 -96.5t-202 -36q-115 0 -208.5 34.5t-152 92.5t-90 130.5t-31.5 150.5
q0 224 199 364l84 60q111 78 111 198v13zM397 877q0 67 48 114t116 47t115 -47t47 -114t-47.5 -114.5t-114.5 -47.5q-68 0 -116 47.5t-48 114.5z" />
    <glyph glyph-name="Agrave" unicode="&#xc0;" horiz-adv-x="1476" 
d="M1149 0l-121 332h-590l-121 -332h-299l557 1452h328l553 -1452h-307zM733 1139l-201 -549h402zM633 1554l-297 261h334l213 -261h-250z" />
    <glyph glyph-name="Aacute" unicode="&#xc1;" horiz-adv-x="1476" 
d="M1149 0l-121 332h-590l-121 -332h-299l557 1452h328l553 -1452h-307zM733 1139l-201 -549h402zM1141 1815l-297 -261h-250l211 261h336z" />
    <glyph glyph-name="Acircumflex" unicode="&#xc2;" horiz-adv-x="1476" 
d="M1149 0l-121 332h-590l-121 -332h-299l557 1452h328l553 -1452h-307zM733 1139l-201 -549h402zM594 1554h-248l246 261h278l250 -261h-256l-137 134z" />
    <glyph glyph-name="Atilde" unicode="&#xc3;" horiz-adv-x="1476" 
d="M1149 0l-121 332h-590l-121 -332h-299l557 1452h328l553 -1452h-307zM733 1139l-201 -549h402zM1073 1823v-58q0 -108 -59 -166.5t-148 -58.5q-79 0 -153 49l-13 8q-66 41 -98 41q-59 0 -59 -88h-164v56q0 108 59 165.5t148 57.5q74 0 155 -47l13 -8q9 -4 26 -13
t26 -13.5t21.5 -8.5t22.5 -4q27 0 43 15.5t16 47.5v25h164z" />
    <glyph glyph-name="Adieresis" unicode="&#xc4;" horiz-adv-x="1476" 
d="M260 1686q0 62 41.5 104.5t104.5 42.5t106 -42.5t43 -104.5q0 -63 -43 -105.5t-106 -42.5t-104.5 42.5t-41.5 105.5zM911 1686q0 62 42.5 104.5t105.5 42.5t106 -42.5t43 -104.5q0 -63 -43 -105.5t-106 -42.5t-105.5 42.5t-42.5 105.5zM1149 0l-121 332h-590l-121 -332
h-299l557 1452h328l553 -1452h-307zM733 1139l-201 -549h402z" />
    <glyph glyph-name="Aring" unicode="&#xc5;" horiz-adv-x="1476" 
d="M836 1554q0 46 -30.5 75.5t-72.5 29.5q-43 0 -72.5 -29.5t-29.5 -75.5q0 -45 29.5 -73.5t72.5 -28.5q42 0 72.5 28.5t30.5 73.5zM733 1139l-201 -549h402zM1149 0l-121 332h-590l-121 -332h-299l523 1360q-86 80 -86 194q0 116 82.5 193.5t195.5 77.5t196 -77.5
t83 -193.5q0 -108 -78 -186l522 -1368h-307z" />
    <glyph glyph-name="AE" unicode="&#xc6;" horiz-adv-x="2127" 
d="M2023 0h-911v342h-561l-219 -342h-346l962 1452h1073v-266h-624v-332h565v-252h-565v-336h626v-266zM702 580h410v639z" />
    <glyph glyph-name="Ccedilla" unicode="&#xc7;" horiz-adv-x="1548" 
d="M762 -221l-74 92l66 102q-139 12 -261 71t-213 154t-143.5 231.5t-52.5 295.5q0 169 61 313t163 240.5t235.5 150.5t279.5 54q144 0 264 -41.5t199.5 -112t130 -153t72.5 -175.5l-266 -83q-14 56 -42.5 105t-75 92.5t-119.5 69t-163 25.5q-84 0 -162 -30t-142 -88
t-103 -153t-39 -214q0 -112 37.5 -204.5t100.5 -151.5t143.5 -91t168.5 -32q72 0 134 18t106 47.5t79 69t56 79.5t33 83l264 -80q-20 -81 -63.5 -158t-112 -148t-172 -120t-227.5 -62l-47 -73q88 -2 143 -51t55 -125q0 -80 -65 -137.5t-197 -57.5q-79 0 -144.5 32.5
t-99.5 74.5l88 110q76 -76 154 -76q38 0 61 15.5t23 42.5q0 24 -21 40.5t-57 16.5t-55 -8z" />
    <glyph glyph-name="Egrave" unicode="&#xc8;" horiz-adv-x="1185" 
d="M563 1554l-297 261h334l213 -261h-250zM1079 0h-909v1452h909v-266h-626v-332h567v-252h-567v-336h626v-266z" />
    <glyph glyph-name="Eacute" unicode="&#xc9;" horiz-adv-x="1185" 
d="M1010 1815l-297 -261h-250l211 261h336zM1079 0h-909v1452h909v-266h-626v-332h567v-252h-567v-336h626v-266z" />
    <glyph glyph-name="Ecircumflex" unicode="&#xca;" horiz-adv-x="1185" 
d="M481 1554h-248l246 261h279l250 -261h-256l-138 134zM1079 0h-909v1452h909v-266h-626v-332h567v-252h-567v-336h626v-266z" />
    <glyph glyph-name="Edieresis" unicode="&#xcb;" horiz-adv-x="1185" 
d="M252 1686q0 62 41.5 104.5t103.5 42.5q63 0 106.5 -42.5t43.5 -104.5q0 -63 -43.5 -105.5t-106.5 -42.5t-104 42.5t-41 105.5zM713 1686q0 62 41.5 104.5t103.5 42.5q63 0 106.5 -42.5t43.5 -104.5q0 -63 -43.5 -105.5t-106.5 -42.5t-104 42.5t-41 105.5zM1079 0h-909
v1452h909v-266h-626v-332h567v-252h-567v-336h626v-266z" />
    <glyph glyph-name="Igrave" unicode="&#xcc;" horiz-adv-x="626" 
d="M457 0h-287v1452h287v-1452zM203 1554l-297 261h334l213 -261h-250z" />
    <glyph glyph-name="Iacute" unicode="&#xcd;" horiz-adv-x="626" 
d="M457 0h-287v1452h287v-1452zM721 1815l-297 -261h-250l211 261h336z" />
    <glyph glyph-name="Icircumflex" unicode="&#xce;" horiz-adv-x="626" 
d="M457 0h-287v1452h287v-1452zM182 1554h-248l246 261h279l250 -261h-256l-138 134z" />
    <glyph glyph-name="Idieresis" unicode="&#xcf;" horiz-adv-x="626" 
d="M-20 1686q0 61 40 102t101 41q60 0 102.5 -41.5t42.5 -101.5q0 -61 -42.5 -102.5t-102.5 -41.5q-61 0 -101 41t-40 103zM367 1686q0 60 40.5 101.5t100.5 41.5q61 0 103 -41.5t42 -101.5q0 -61 -41.5 -102.5t-103.5 -41.5q-60 0 -100.5 41.5t-40.5 102.5zM457 0h-287
v1452h287v-1452z" />
    <glyph glyph-name="Eth" unicode="&#xd0;" horiz-adv-x="1529" 
d="M723 0h-518v645h-180v209h180v598h520q155 0 286.5 -49.5t227 -141t149.5 -229.5t54 -307q0 -224 -94 -390t-255.5 -250.5t-369.5 -84.5zM487 262h226q91 0 169 28.5t138 84t94.5 145.5t34.5 205t-34 205t-94 146t-137.5 85t-168.5 29h-228v-336h281v-209h-281v-383z" />
    <glyph glyph-name="Ntilde" unicode="&#xd1;" horiz-adv-x="1579" 
d="M1141 1823v-58q0 -108 -59 -166.5t-148 -58.5q-80 0 -154 49l-12 8q-66 41 -98 41q-60 0 -60 -88h-164v56q0 108 59 165.5t148 57.5q75 0 156 -47l12 -8q9 -4 26 -13t26 -13.5t22 -8.5t23 -4q27 0 43 15.5t16 47.5v25h164zM1409 0h-297l-659 1030v-1030h-283v1452h352
l604 -960v960h283v-1452z" />
    <glyph glyph-name="Ograve" unicode="&#xd2;" horiz-adv-x="1660" 
d="M713 1554l-297 261h334l213 -261h-250zM377 727q0 -118 39 -213t104 -152.5t144 -87.5t165 -30q69 0 134 18.5t123.5 57.5t102 95t69.5 136.5t26 175.5t-26 175.5t-69.5 136.5t-102 95t-123.5 57.5t-134 18.5q-86 0 -165 -30t-144 -87.5t-104 -152.5t-39 -213zM84 725
q0 171 61 315.5t164 240t237.5 149t282.5 53.5t283.5 -53.5t238.5 -149t164.5 -240t61.5 -315.5q0 -170 -61.5 -314t-164.5 -239.5t-238.5 -149t-283.5 -53.5t-282.5 53.5t-237.5 149t-164 239.5t-61 314z" />
    <glyph glyph-name="Oacute" unicode="&#xd3;" horiz-adv-x="1660" 
d="M1233 1815l-297 -261h-250l211 261h336zM377 727q0 -118 39 -213t104 -152.5t144 -87.5t165 -30q69 0 134 18.5t123.5 57.5t102 95t69.5 136.5t26 175.5t-26 175.5t-69.5 136.5t-102 95t-123.5 57.5t-134 18.5q-86 0 -165 -30t-144 -87.5t-104 -152.5t-39 -213zM84 725
q0 171 61 315.5t164 240t237.5 149t282.5 53.5t283.5 -53.5t238.5 -149t164.5 -240t61.5 -315.5q0 -170 -61.5 -314t-164.5 -239.5t-238.5 -149t-283.5 -53.5t-282.5 53.5t-237.5 149t-164 239.5t-61 314z" />
    <glyph glyph-name="Ocircumflex" unicode="&#xd4;" horiz-adv-x="1660" 
d="M692 1554h-248l246 261h279l250 -261h-256l-138 134zM377 727q0 -118 39 -213t104 -152.5t144 -87.5t165 -30q69 0 134 18.5t123.5 57.5t102 95t69.5 136.5t26 175.5t-26 175.5t-69.5 136.5t-102 95t-123.5 57.5t-134 18.5q-86 0 -165 -30t-144 -87.5t-104 -152.5
t-39 -213zM84 725q0 171 61 315.5t164 240t237.5 149t282.5 53.5t283.5 -53.5t238.5 -149t164.5 -240t61.5 -315.5q0 -170 -61.5 -314t-164.5 -239.5t-238.5 -149t-283.5 -53.5t-282.5 53.5t-237.5 149t-164 239.5t-61 314z" />
    <glyph glyph-name="Otilde" unicode="&#xd5;" horiz-adv-x="1660" 
d="M1174 1823v-58q0 -108 -59 -166.5t-148 -58.5q-80 0 -154 49l-12 8q-66 41 -99 41q-59 0 -59 -88h-164v56q0 108 59 165.5t148 57.5q75 0 156 -47l12 -8q9 -4 26 -13t26 -13.5t21.5 -8.5t22.5 -4q27 0 43.5 15.5t16.5 47.5v25h164zM377 727q0 -118 39 -213t104 -152.5
t144 -87.5t165 -30q69 0 134 18.5t123.5 57.5t102 95t69.5 136.5t26 175.5t-26 175.5t-69.5 136.5t-102 95t-123.5 57.5t-134 18.5q-86 0 -165 -30t-144 -87.5t-104 -152.5t-39 -213zM84 725q0 171 61 315.5t164 240t237.5 149t282.5 53.5t283.5 -53.5t238.5 -149
t164.5 -240t61.5 -315.5q0 -170 -61.5 -314t-164.5 -239.5t-238.5 -149t-283.5 -53.5t-282.5 53.5t-237.5 149t-164 239.5t-61 314z" />
    <glyph glyph-name="Odieresis" unicode="&#xd6;" horiz-adv-x="1660" 
d="M342 1686q0 62 42 104.5t105 42.5t106.5 -42.5t43.5 -104.5q0 -63 -43.5 -105.5t-106.5 -42.5t-105 42.5t-42 105.5zM1024 1686q0 62 42 104.5t105 42.5q62 0 105 -43t43 -104q0 -63 -43 -105.5t-105 -42.5q-63 0 -105 42.5t-42 105.5zM377 727q0 -118 39 -213
t104 -152.5t144 -87.5t165 -30q69 0 134 18.5t123.5 57.5t102 95t69.5 136.5t26 175.5t-26 175.5t-69.5 136.5t-102 95t-123.5 57.5t-134 18.5q-86 0 -165 -30t-144 -87.5t-104 -152.5t-39 -213zM84 725q0 171 61 315.5t164 240t237.5 149t282.5 53.5t283.5 -53.5
t238.5 -149t164.5 -240t61.5 -315.5q0 -170 -61.5 -314t-164.5 -239.5t-238.5 -149t-283.5 -53.5t-282.5 53.5t-237.5 149t-164 239.5t-61 314z" />
    <glyph glyph-name="multiply" unicode="&#xd7;" horiz-adv-x="1198" 
d="M262 1223l338 -344l338 344l162 -162l-340 -344l340 -344l-162 -166l-340 344l-338 -342l-162 164l338 344l-336 344z" />
    <glyph glyph-name="Oslash" unicode="&#xd8;" horiz-adv-x="1660" 
d="M84 725q0 171 61 315.5t164 240t237.5 149t282.5 53.5q200 0 371 -94l143 184l181 -135l-144 -187q197 -210 197 -526q0 -170 -61.5 -314t-164.5 -239.5t-238.5 -149t-283.5 -53.5q-197 0 -370 92l-140 -180l-184 133l146 187q-197 210 -197 524zM377 727q0 -176 82 -295
l569 735q-90 43 -199 43q-86 0 -165 -30t-144 -87.5t-104 -152.5t-39 -213zM1284 727q0 176 -82 295l-569 -735q90 -43 196 -43q69 0 134 18.5t123.5 57.5t102 95t69.5 136.5t26 175.5z" />
    <glyph glyph-name="Ugrave" unicode="&#xd9;" horiz-adv-x="1431" 
d="M627 1554l-297 261h334l213 -261h-250zM715 -33q-117 0 -217.5 36t-176.5 103.5t-119.5 172.5t-43.5 235v938h282v-917q0 -140 73.5 -215.5t201.5 -75.5q131 0 203.5 75t72.5 216v917h283v-938q0 -173 -75.5 -298.5t-200.5 -187t-283 -61.5z" />
    <glyph glyph-name="Uacute" unicode="&#xda;" horiz-adv-x="1431" 
d="M1087 1815l-296 -261h-250l211 261h335zM715 -33q-117 0 -217.5 36t-176.5 103.5t-119.5 172.5t-43.5 235v938h282v-917q0 -140 73.5 -215.5t201.5 -75.5q131 0 203.5 75t72.5 216v917h283v-938q0 -173 -75.5 -298.5t-200.5 -187t-283 -61.5z" />
    <glyph glyph-name="Ucircumflex" unicode="&#xdb;" horiz-adv-x="1431" 
d="M578 1554h-248l245 261h279l250 -261h-256l-137 134zM715 -33q-117 0 -217.5 36t-176.5 103.5t-119.5 172.5t-43.5 235v938h282v-917q0 -140 73.5 -215.5t201.5 -75.5q131 0 203.5 75t72.5 216v917h283v-938q0 -173 -75.5 -298.5t-200.5 -187t-283 -61.5z" />
    <glyph glyph-name="Udieresis" unicode="&#xdc;" horiz-adv-x="1431" 
d="M324 1686q0 62 42 104.5t105 42.5q61 0 104 -42.5t43 -104.5q0 -63 -42.5 -105.5t-104.5 -42.5q-63 0 -105 42.5t-42 105.5zM815 1686q0 62 42.5 104.5t105.5 42.5q61 0 104 -42.5t43 -104.5q0 -63 -42.5 -105.5t-104.5 -42.5q-63 0 -105.5 42.5t-42.5 105.5zM715 -33
q-117 0 -217.5 36t-176.5 103.5t-119.5 172.5t-43.5 235v938h282v-917q0 -140 73.5 -215.5t201.5 -75.5q131 0 203.5 75t72.5 216v917h283v-938q0 -173 -75.5 -298.5t-200.5 -187t-283 -61.5z" />
    <glyph glyph-name="Yacute" unicode="&#xdd;" horiz-adv-x="1349" 
d="M532 610l-505 842h331l326 -575l326 575h317l-512 -842v-610h-283v610zM1063 1815l-297 -261h-250l211 261h336z" />
    <glyph glyph-name="Thorn" unicode="&#xde;" horiz-adv-x="1241" 
d="M455 526h223q105 0 166 56.5t61 150.5q0 97 -61 154t-166 57h-223v-418zM705 285h-252v-285h-283v1452h283v-264h249q209 0 348.5 -129.5t139.5 -323.5q0 -193 -139 -321.5t-346 -128.5z" />
    <glyph glyph-name="germandbls" unicode="&#xdf;" horiz-adv-x="1245" 
d="M815 702q1 -27 17.5 -40.5t58.5 -30.5l61 -27q105 -42 167.5 -125t62.5 -190q0 -55 -21.5 -109t-63.5 -102.5t-115 -78.5t-165 -30q-88 0 -157.5 28.5t-108.5 74t-58.5 94t-19.5 96.5l219 43q0 -48 31.5 -88.5t95.5 -40.5q50 0 79.5 28.5t29.5 65.5q0 39 -23.5 66
t-75.5 49l-61 25q-45 19 -80 39.5t-70.5 52.5t-55 78.5t-19.5 103.5q0 149 137 238l41 26q100 62 100 148q0 61 -49 104t-143 43q-95 0 -158 -66.5t-63 -199.5v-977h-269v995q0 121 40 216t108.5 153.5t155.5 88.5t186 30q207 0 335 -108.5t128 -266.5q0 -110 -49 -181.5
t-132 -125.5l-41 -25q-30 -20 -42.5 -35t-12.5 -39z" />
    <glyph glyph-name="agrave" unicode="&#xe0;" horiz-adv-x="1101" 
d="M80 274q0 129 83.5 207.5t217.5 98.5l248 36q76 11 76 72q0 57 -43.5 94t-126.5 37q-85 0 -136 -47t-57 -117l-242 52q6 61 37 118.5t83 106t133.5 77.5t178.5 29q116 0 202.5 -31t137 -85t75 -121t24.5 -146v-495q0 -90 12 -160h-250q-10 45 -10 121q-42 -66 -117 -108
t-180 -42q-155 0 -250.5 89.5t-95.5 213.5zM483 174q97 0 159.5 55t62.5 179v45l-228 -35q-56 -8 -90.5 -39.5t-34.5 -87.5q0 -48 34.5 -82.5t96.5 -34.5zM461 1128l-279 308h316l184 -308h-221z" />
    <glyph glyph-name="aacute" unicode="&#xe1;" horiz-adv-x="1101" 
d="M80 274q0 129 83.5 207.5t217.5 98.5l248 36q76 11 76 72q0 57 -43.5 94t-126.5 37q-85 0 -136 -47t-57 -117l-242 52q6 61 37 118.5t83 106t133.5 77.5t178.5 29q116 0 202.5 -31t137 -85t75 -121t24.5 -146v-495q0 -90 12 -160h-250q-10 45 -10 121q-42 -66 -117 -108
t-180 -42q-155 0 -250.5 89.5t-95.5 213.5zM483 174q97 0 159.5 55t62.5 179v45l-228 -35q-56 -8 -90.5 -39.5t-34.5 -87.5q0 -48 34.5 -82.5t96.5 -34.5zM903 1436l-278 -308h-219l186 308h311z" />
    <glyph glyph-name="acircumflex" unicode="&#xe2;" horiz-adv-x="1101" 
d="M80 274q0 129 83.5 207.5t217.5 98.5l248 36q76 11 76 72q0 57 -43.5 94t-126.5 37q-85 0 -136 -47t-57 -117l-242 52q6 61 37 118.5t83 106t133.5 77.5t178.5 29q116 0 202.5 -31t137 -85t75 -121t24.5 -146v-495q0 -90 12 -160h-250q-10 45 -10 121q-42 -66 -117 -108
t-180 -42q-155 0 -250.5 89.5t-95.5 213.5zM483 174q97 0 159.5 55t62.5 179v45l-228 -35q-56 -8 -90.5 -39.5t-34.5 -87.5q0 -48 34.5 -82.5t96.5 -34.5zM391 1130h-213l225 302h271l225 -302h-219l-145 154z" />
    <glyph glyph-name="atilde" unicode="&#xe3;" horiz-adv-x="1101" 
d="M80 274q0 129 83.5 207.5t217.5 98.5l248 36q76 11 76 72q0 57 -43.5 94t-126.5 37q-85 0 -136 -47t-57 -117l-242 52q6 61 37 118.5t83 106t133.5 77.5t178.5 29q116 0 202.5 -31t137 -85t75 -121t24.5 -146v-495q0 -90 12 -160h-250q-10 45 -10 121q-42 -66 -117 -108
t-180 -42q-155 0 -250.5 89.5t-95.5 213.5zM483 174q97 0 159.5 55t62.5 179v45l-228 -35q-56 -8 -90.5 -39.5t-34.5 -87.5q0 -48 34.5 -82.5t96.5 -34.5zM903 1425v-36q0 -123 -60 -187.5t-159 -64.5q-80 0 -145 45l-13 8q-4 2 -18.5 12t-22 13.5t-23 7.5t-32.5 4
q-69 0 -72 -88h-168v43q0 120 63 184t161 64q61 0 147 -46l12 -8q68 -39 99 -39q67 0 67 88h164z" />
    <glyph glyph-name="adieresis" unicode="&#xe4;" horiz-adv-x="1101" 
d="M80 274q0 129 83.5 207.5t217.5 98.5l248 36q76 11 76 72q0 57 -43.5 94t-126.5 37q-85 0 -136 -47t-57 -117l-242 52q6 61 37 118.5t83 106t133.5 77.5t178.5 29q116 0 202.5 -31t137 -85t75 -121t24.5 -146v-495q0 -90 12 -160h-250q-10 45 -10 121q-42 -66 -117 -108
t-180 -42q-155 0 -250.5 89.5t-95.5 213.5zM483 174q97 0 159.5 55t62.5 179v45l-228 -35q-56 -8 -90.5 -39.5t-34.5 -87.5q0 -48 34.5 -82.5t96.5 -34.5zM182 1286q0 60 42 103t102 43t102.5 -43t42.5 -103t-42.5 -101.5t-102.5 -41.5t-102 41.5t-42 101.5zM612 1286
q0 61 41.5 103.5t102.5 42.5q60 0 102.5 -43t42.5 -103t-42.5 -101.5t-102.5 -41.5q-61 0 -102.5 41.5t-41.5 101.5z" />
    <glyph glyph-name="aring" unicode="&#xe5;" horiz-adv-x="1101" 
d="M80 274q0 129 83.5 207.5t217.5 98.5l248 36q76 11 76 72q0 57 -43.5 94t-126.5 37q-85 0 -136 -47t-57 -117l-242 52q6 61 37 118.5t83 106t133.5 77.5t178.5 29q116 0 202.5 -31t137 -85t75 -121t24.5 -146v-495q0 -90 12 -160h-250q-10 45 -10 121q-42 -66 -117 -108
t-180 -42q-155 0 -250.5 89.5t-95.5 213.5zM483 174q97 0 159.5 55t62.5 179v45l-228 -35q-56 -8 -90.5 -39.5t-34.5 -87.5q0 -48 34.5 -82.5t96.5 -34.5zM764 1337q0 -96 -70 -160.5t-166 -64.5t-165.5 64.5t-69.5 160.5q0 98 69.5 164t165.5 66t166 -66t70 -164zM610 1337
q0 38 -24 62t-60 24t-59 -24t-23 -62q0 -37 23.5 -60.5t58.5 -23.5q36 0 60 24t24 60z" />
    <glyph glyph-name="ae" unicode="&#xe6;" horiz-adv-x="1781" 
d="M1458 360l230 -71q-40 -137 -163.5 -228.5t-299.5 -91.5q-118 0 -219.5 47t-171.5 134q-135 -181 -383 -181q-172 0 -272.5 89.5t-100.5 215.5q0 129 83.5 207.5t217.5 98.5l258 36q76 10 76 72q0 57 -45.5 95t-130.5 38q-87 0 -141 -48t-60 -116l-238 50q5 62 38 120.5
t88 105.5t137.5 76t177.5 29q234 0 342 -131q140 131 331 131q230 0 360 -139t130 -383q0 -72 -6 -84h-723q4 -102 77.5 -166.5t176.5 -64.5q177 0 231 159zM489 174q42 0 80 12t71.5 37.5t53 72.5t19.5 110v47l-238 -35q-58 -8 -93.5 -39.5t-35.5 -87.5q0 -46 38.5 -81.5
t104.5 -35.5zM979 618h455q-3 83 -60.5 141t-169.5 58q-100 0 -160 -61t-65 -138z" />
    <glyph glyph-name="ccedilla" unicode="&#xe7;" horiz-adv-x="1138" 
d="M537 -221l-74 92l65 104q-196 27 -323 173.5t-127 355.5q0 231 150 382.5t372 151.5q99 0 183 -29t141 -78t94.5 -108t54.5 -125l-244 -82q-22 73 -76 121.5t-147 48.5q-109 0 -182.5 -75t-73.5 -207t74.5 -208.5t183.5 -76.5q95 0 153.5 50.5t78.5 119.5l239 -80
q-34 -121 -132.5 -216t-248.5 -118l-47 -73q88 -2 143.5 -51t55.5 -125q0 -80 -65 -137.5t-197 -57.5q-79 0 -144.5 32.5t-99.5 74.5l88 110q76 -76 154 -76q38 0 61 15.5t23 42.5q0 24 -21 40.5t-57 16.5t-55 -8z" />
    <glyph glyph-name="egrave" unicode="&#xe8;" horiz-adv-x="1150" 
d="M352 618h451q-3 83 -59.5 141t-165.5 58q-99 0 -160 -61.5t-66 -137.5zM829 356l228 -67q-41 -139 -161 -229.5t-298 -90.5q-104 0 -198 37t-165.5 104.5t-114 170.5t-42.5 227q0 117 41 218t109.5 168.5t158 105.5t186.5 38q233 0 365.5 -139.5t132.5 -382.5
q0 -17 -1 -37t-2 -33t-1 -14h-721q4 -99 78 -164t176 -65q173 0 229 153zM500 1128l-279 308h316l184 -308h-221z" />
    <glyph glyph-name="eacute" unicode="&#xe9;" horiz-adv-x="1150" 
d="M946 1436l-278 -308h-219l186 308h311zM352 618h451q-3 83 -59.5 141t-165.5 58q-99 0 -160 -61.5t-66 -137.5zM829 356l228 -67q-41 -139 -161 -229.5t-298 -90.5q-104 0 -198 37t-165.5 104.5t-114 170.5t-42.5 227q0 117 41 218t109.5 168.5t158 105.5t186.5 38
q233 0 365.5 -139.5t132.5 -382.5q0 -17 -1 -37t-2 -33t-1 -14h-721q4 -99 78 -164t176 -65q173 0 229 153z" />
    <glyph glyph-name="ecircumflex" unicode="&#xea;" horiz-adv-x="1150" 
d="M438 1130h-213l226 302h270l225 -302h-219l-145 154zM352 618h451q-3 83 -59.5 141t-165.5 58q-99 0 -160 -61.5t-66 -137.5zM829 356l228 -67q-41 -139 -161 -229.5t-298 -90.5q-104 0 -198 37t-165.5 104.5t-114 170.5t-42.5 227q0 117 41 218t109.5 168.5t158 105.5
t186.5 38q233 0 365.5 -139.5t132.5 -382.5q0 -17 -1 -37t-2 -33t-1 -14h-721q4 -99 78 -164t176 -65q173 0 229 153z" />
    <glyph glyph-name="edieresis" unicode="&#xeb;" horiz-adv-x="1150" 
d="M227 1286q0 60 42 103t102 43t102.5 -43t42.5 -103t-42.5 -101.5t-102.5 -41.5t-102 41.5t-42 101.5zM657 1286q0 61 41.5 103.5t102.5 42.5q60 0 102.5 -43t42.5 -103t-42.5 -101.5t-102.5 -41.5q-61 0 -102.5 41.5t-41.5 101.5zM352 618h451q-3 83 -59.5 141t-165.5 58
q-99 0 -160 -61.5t-66 -137.5zM829 356l228 -67q-41 -139 -161 -229.5t-298 -90.5q-104 0 -198 37t-165.5 104.5t-114 170.5t-42.5 227q0 117 41 218t109.5 168.5t158 105.5t186.5 38q233 0 365.5 -139.5t132.5 -382.5q0 -17 -1 -37t-2 -33t-1 -14h-721q4 -99 78 -164
t176 -65q173 0 229 153z" />
    <glyph glyph-name="igrave" unicode="&#xec;" horiz-adv-x="550" 
d="M412 0h-273v1008h273v-1008zM186 1128l-278 308h315l185 -308h-222z" />
    <glyph glyph-name="iacute" unicode="&#xed;" horiz-adv-x="550" 
d="M651 1436l-278 -308h-219l186 308h311zM412 0h-273v1008h273v-1008z" />
    <glyph glyph-name="icircumflex" unicode="&#xee;" horiz-adv-x="550" 
d="M129 1130h-213l225 302h271l225 -302h-219l-146 154zM412 0h-273v1008h273v-1008z" />
    <glyph glyph-name="idieresis" unicode="&#xef;" horiz-adv-x="550" 
d="M-49 1286q0 60 40 100.5t99 40.5t100 -40.5t41 -100.5q0 -58 -41 -98.5t-100 -40.5q-58 0 -98.5 40.5t-40.5 98.5zM317 1286q0 60 40.5 100.5t99.5 40.5q60 0 100.5 -40.5t40.5 -100.5q0 -59 -40.5 -99t-100.5 -40q-59 0 -99.5 40.5t-40.5 98.5zM412 0h-273v1008h273
v-1008z" />
    <glyph glyph-name="eth" unicode="&#xf0;" horiz-adv-x="1216" 
d="M1055 1274l-158 -66q108 -121 169.5 -284t61.5 -357q0 -122 -34 -229.5t-98 -190t-166.5 -130.5t-229.5 -48q-225 0 -374.5 142.5t-149.5 357.5q0 91 28 169.5t76 134t111 95.5t134 59t144 19q71 0 138.5 -21t101.5 -57q-44 137 -152 240l-280 -119l-66 164l178 76
q-103 55 -227 94l84 205q233 -59 406 -187l233 99zM600 215q106 0 181 69t75 189q0 121 -75 189.5t-181 68.5q-104 0 -179 -69.5t-75 -188.5t75 -188.5t179 -69.5z" />
    <glyph glyph-name="ntilde" unicode="&#xf1;" horiz-adv-x="1187" 
d="M412 580v-580h-273v1008h264v-125q43 74 123 112.5t168 38.5q179 0 272 -111.5t93 -287.5v-635h-273v588q0 90 -46 145t-140 55q-87 0 -137.5 -59t-50.5 -149zM965 1425v-36q0 -123 -60.5 -187.5t-159.5 -64.5q-80 0 -145 45l-12 8q-4 2 -18.5 12t-22 13.5t-23 7.5
t-32.5 4q-69 0 -72 -88h-168v43q0 120 62.5 184t160.5 64q62 0 148 -46l12 -8q68 -39 98 -39q68 0 68 88h164z" />
    <glyph glyph-name="ograve" unicode="&#xf2;" horiz-adv-x="1212" 
d="M606 217q107 0 181.5 75.5t74.5 211.5t-74.5 211.5t-181.5 75.5t-181.5 -75.5t-74.5 -211.5q0 -134 75 -210.5t181 -76.5zM606 1038q227 0 378 -151t151 -383q0 -152 -69 -274.5t-190 -191.5t-270 -69q-226 0 -377 152t-151 383q0 232 150.5 383t377.5 151zM510 1128
l-279 308h316l184 -308h-221z" />
    <glyph glyph-name="oacute" unicode="&#xf3;" horiz-adv-x="1212" 
d="M965 1436l-279 -308h-219l186 308h312zM606 217q107 0 181.5 75.5t74.5 211.5t-74.5 211.5t-181.5 75.5t-181.5 -75.5t-74.5 -211.5q0 -134 75 -210.5t181 -76.5zM606 1038q227 0 378 -151t151 -383q0 -152 -69 -274.5t-190 -191.5t-270 -69q-226 0 -377 152t-151 383
q0 232 150.5 383t377.5 151z" />
    <glyph glyph-name="ocircumflex" unicode="&#xf4;" horiz-adv-x="1212" 
d="M463 1130h-213l225 302h270l226 -302h-219l-146 154zM606 217q107 0 181.5 75.5t74.5 211.5t-74.5 211.5t-181.5 75.5t-181.5 -75.5t-74.5 -211.5q0 -134 75 -210.5t181 -76.5zM606 1038q227 0 378 -151t151 -383q0 -152 -69 -274.5t-190 -191.5t-270 -69
q-226 0 -377 152t-151 383q0 232 150.5 383t377.5 151z" />
    <glyph glyph-name="otilde" unicode="&#xf5;" horiz-adv-x="1212" 
d="M606 217q107 0 181.5 75.5t74.5 211.5t-74.5 211.5t-181.5 75.5t-181.5 -75.5t-74.5 -211.5q0 -134 75 -210.5t181 -76.5zM606 1038q227 0 378 -151t151 -383q0 -152 -69 -274.5t-190 -191.5t-270 -69q-226 0 -377 152t-151 383q0 232 150.5 383t377.5 151zM965 1425v-36
q0 -123 -60.5 -187.5t-159.5 -64.5q-80 0 -145 45l-12 8q-4 2 -18.5 12t-22 13.5t-23 7.5t-32.5 4q-69 0 -72 -88h-168v43q0 120 62.5 184t160.5 64q62 0 148 -46l12 -8q68 -39 98 -39q68 0 68 88h164z" />
    <glyph glyph-name="odieresis" unicode="&#xf6;" horiz-adv-x="1212" 
d="M246 1286q0 60 41.5 103t101.5 43t103 -43t43 -103t-43 -101.5t-103 -41.5t-101.5 41.5t-41.5 101.5zM676 1286q0 61 41 103.5t102 42.5q60 0 103 -43t43 -103t-43 -101.5t-103 -41.5q-61 0 -102 41.5t-41 101.5zM606 217q107 0 181.5 75.5t74.5 211.5t-74.5 211.5
t-181.5 75.5t-181.5 -75.5t-74.5 -211.5q0 -134 75 -210.5t181 -76.5zM606 1038q227 0 378 -151t151 -383q0 -152 -69 -274.5t-190 -191.5t-270 -69q-226 0 -377 152t-151 383q0 232 150.5 383t377.5 151z" />
    <glyph glyph-name="divide" unicode="&#xf7;" horiz-adv-x="1173" 
d="M422 340q0 66 47 113t113 47q65 0 112 -47t47 -113q0 -65 -47.5 -112.5t-111.5 -47.5q-66 0 -113 47.5t-47 112.5zM1087 602h-1001v227h1001v-227zM422 1092q0 65 47 111t113 46q65 0 112 -46.5t47 -110.5q0 -66 -47 -114t-112 -48q-66 0 -113 48t-47 114z" />
    <glyph glyph-name="oslash" unicode="&#xf8;" horiz-adv-x="1212" 
d="M606 1038q151 0 271 -69l108 133l131 -111l-106 -133q125 -147 125 -354q0 -152 -69 -274.5t-190 -191.5t-270 -69q-137 0 -262 64l-102 -127l-136 110l103 125q-131 150 -131 363q0 232 150.5 383t377.5 151zM350 504q0 -84 31 -148l334 412q-57 23 -109 23
q-107 0 -181.5 -75.5t-74.5 -211.5zM606 217q107 0 181.5 75.5t74.5 211.5q0 76 -26 139l-328 -407q49 -19 98 -19z" />
    <glyph glyph-name="ugrave" unicode="&#xf9;" horiz-adv-x="1187" 
d="M799 0q-8 40 -8 109q-39 -67 -116 -101.5t-163 -34.5q-177 0 -280 113.5t-103 284.5v637h272v-582q0 -90 47 -146.5t138 -56.5q89 0 139.5 54.5t50.5 144.5v586h273v-826q0 -94 10 -182h-260zM522 1128l-278 308h315l184 -308h-221z" />
    <glyph glyph-name="uacute" unicode="&#xfa;" horiz-adv-x="1187" 
d="M915 1436l-278 -308h-219l186 308h311zM799 0q-8 40 -8 109q-39 -67 -116 -101.5t-163 -34.5q-177 0 -280 113.5t-103 284.5v637h272v-582q0 -90 47 -146.5t138 -56.5q89 0 139.5 54.5t50.5 144.5v586h273v-826q0 -94 10 -182h-260z" />
    <glyph glyph-name="ucircumflex" unicode="&#xfb;" horiz-adv-x="1187" 
d="M444 1130h-213l226 302h270l225 -302h-219l-145 154zM799 0q-8 40 -8 109q-39 -67 -116 -101.5t-163 -34.5q-177 0 -280 113.5t-103 284.5v637h272v-582q0 -90 47 -146.5t138 -56.5q89 0 139.5 54.5t50.5 144.5v586h273v-826q0 -94 10 -182h-260z" />
    <glyph glyph-name="udieresis" unicode="&#xfc;" horiz-adv-x="1187" 
d="M236 1286q0 60 41.5 103t101.5 43t102.5 -43t42.5 -103t-42.5 -101.5t-102.5 -41.5t-101.5 41.5t-41.5 101.5zM666 1286q0 61 41 103.5t102 42.5q60 0 102.5 -43t42.5 -103t-42.5 -101.5t-102.5 -41.5q-61 0 -102 41.5t-41 101.5zM799 0q-8 40 -8 109
q-39 -67 -116 -101.5t-163 -34.5q-177 0 -280 113.5t-103 284.5v637h272v-582q0 -90 47 -146.5t138 -56.5q89 0 139.5 54.5t50.5 144.5v586h273v-826q0 -94 10 -182h-260z" />
    <glyph glyph-name="yacute" unicode="&#xfd;" horiz-adv-x="1153" 
d="M504 -397h-289l238 524l-428 881h305l268 -590l248 590h291zM930 1436l-279 -308h-219l186 308h312z" />
    <glyph glyph-name="thorn" unicode="&#xfe;" horiz-adv-x="1257" 
d="M412 -389h-273v1872h273v-586q39 57 119 95t182 38q216 0 340.5 -147t124.5 -377q0 -231 -132 -381t-344 -150q-99 0 -175 34.5t-115 88.5v-487zM909 504q0 130 -71 206t-179 76t-179.5 -76t-71.5 -206t72 -207.5t179 -77.5q108 0 179 77t71 208z" />
    <glyph glyph-name="ydieresis" unicode="&#xff;" horiz-adv-x="1153" 
d="M504 -397h-289l238 524l-428 881h305l268 -590l248 590h291zM229 1286q0 60 42 103t102 43t102.5 -43t42.5 -103t-42.5 -101.5t-102.5 -41.5t-102 41.5t-42 101.5zM659 1286q0 61 41.5 103.5t102.5 42.5q60 0 102.5 -43t42.5 -103t-42.5 -101.5t-102.5 -41.5
q-61 0 -102.5 41.5t-41.5 101.5z" />
    <glyph glyph-name="Amacron" unicode="&#x100;" horiz-adv-x="1476" 
d="M1149 0l-121 332h-590l-121 -332h-299l557 1452h328l553 -1452h-307zM733 1139l-201 -549h402zM1044 1585h-624v205h624v-205z" />
    <glyph glyph-name="amacron" unicode="&#x101;" horiz-adv-x="1101" 
d="M80 274q0 129 83.5 207.5t217.5 98.5l248 36q76 11 76 72q0 57 -43.5 94t-126.5 37q-85 0 -136 -47t-57 -117l-242 52q6 61 37 118.5t83 106t133.5 77.5t178.5 29q116 0 202.5 -31t137 -85t75 -121t24.5 -146v-495q0 -90 12 -160h-250q-10 45 -10 121q-42 -66 -117 -108
t-180 -42q-155 0 -250.5 89.5t-95.5 213.5zM483 174q97 0 159.5 55t62.5 179v45l-228 -35q-56 -8 -90.5 -39.5t-34.5 -87.5q0 -48 34.5 -82.5t96.5 -34.5zM834 1182h-576v198h576v-198z" />
    <glyph glyph-name="Abreve" unicode="&#x102;" horiz-adv-x="1476" 
d="M1149 0l-121 332h-590l-121 -332h-299l557 1452h328l553 -1452h-307zM733 1139l-201 -549h402zM733 1542q-80 0 -145 24.5t-104.5 64.5t-61 88.5t-23.5 99.5h209q2 -45 33.5 -75t91.5 -30t91.5 30t33.5 75h209q-2 -51 -23.5 -99.5t-61 -88.5t-104.5 -64.5t-145 -24.5z
" />
    <glyph glyph-name="abreve" unicode="&#x103;" horiz-adv-x="1101" 
d="M80 274q0 129 83.5 207.5t217.5 98.5l248 36q76 11 76 72q0 57 -43.5 94t-126.5 37q-85 0 -136 -47t-57 -117l-242 52q6 61 37 118.5t83 106t133.5 77.5t178.5 29q116 0 202.5 -31t137 -85t75 -121t24.5 -146v-495q0 -90 12 -160h-250q-10 45 -10 121q-42 -66 -117 -108
t-180 -42q-155 0 -250.5 89.5t-95.5 213.5zM483 174q97 0 159.5 55t62.5 179v45l-228 -35q-56 -8 -90.5 -39.5t-34.5 -87.5q0 -48 34.5 -82.5t96.5 -34.5zM535 1124q-153 0 -240 90.5t-90 219.5h182q3 -48 40.5 -84.5t107.5 -36.5t107 36.5t40 84.5h182q-3 -129 -89 -219.5
t-240 -90.5z" />
    <glyph glyph-name="Aogonek" unicode="&#x104;" horiz-adv-x="1476" 
d="M1149 0l-121 332h-590l-121 -332h-299l557 1452h328l553 -1452q-68 -32 -115 -82t-47 -111q0 -44 29 -68t72 -24q31 0 61 6v-161q-46 -17 -106 -17q-110 0 -181 60t-71 159q0 154 149 238h-98zM733 1139l-201 -549h402z" />
    <glyph glyph-name="aogonek" unicode="&#x105;" horiz-adv-x="1101" 
d="M922 -285q34 0 61 6v-161q-46 -17 -106 -17q-110 0 -181 60t-71 159q0 151 147 238h-39q-10 50 -10 121q-42 -66 -117 -108t-180 -42q-155 0 -250.5 89.5t-95.5 213.5q0 129 83.5 207.5t217.5 98.5l248 36q76 11 76 72q0 57 -43.5 94t-126.5 37q-85 0 -136 -47t-57 -117
l-242 52q6 61 37 118.5t83 106t133.5 77.5t178.5 29q116 0 202.5 -31t137 -85t75 -121t24.5 -146v-495q0 -61 12 -160q-68 -32 -115 -82t-47 -111q0 -44 29 -68t72 -24zM483 174q97 0 159.5 55t62.5 179v45l-228 -35q-56 -8 -90.5 -39.5t-34.5 -87.5q0 -48 34.5 -82.5
t96.5 -34.5z" />
    <glyph glyph-name="Cacute" unicode="&#x106;" horiz-adv-x="1548" 
d="M827 -31q-152 0 -287.5 53.5t-236.5 150t-160 240t-59 312.5t61 313t163 240.5t235.5 150.5t279.5 54q144 0 264 -41.5t199.5 -112t130 -153t72.5 -175.5l-266 -83q-14 56 -42.5 105t-75 92.5t-119.5 69t-163 25.5q-84 0 -162 -30t-142 -88t-103 -153t-39 -214
q0 -112 37.5 -204.5t100.5 -151.5t143.5 -91t168.5 -32q72 0 134 18t106 47.5t79 69t56 79.5t33 83l264 -80q-17 -70 -51.5 -137t-92 -133t-131 -115t-176.5 -79t-221 -30zM1227 1815l-297 -261h-250l211 261h336z" />
    <glyph glyph-name="cacute" unicode="&#x107;" horiz-adv-x="1138" 
d="M965 1436l-279 -308h-219l186 308h312zM606 786q-109 0 -182.5 -75t-73.5 -207t74.5 -208.5t183.5 -76.5q95 0 153.5 50.5t78.5 119.5l239 -80q-17 -65 -55.5 -124t-95.5 -108.5t-140 -78.5t-180 -29q-224 0 -377 152.5t-153 382.5q0 231 150 382.5t372 151.5
q99 0 183 -29t141 -78t94.5 -108t54.5 -125l-244 -82q-22 73 -76 121.5t-147 48.5z" />
    <glyph glyph-name="Ccircumflex" unicode="&#x108;" horiz-adv-x="1548" 
d="M688 1554h-248l246 261h279l249 -261h-256l-137 134zM827 -31q-152 0 -287.5 53.5t-236.5 150t-160 240t-59 312.5t61 313t163 240.5t235.5 150.5t279.5 54q144 0 264 -41.5t199.5 -112t130 -153t72.5 -175.5l-266 -83q-14 56 -42.5 105t-75 92.5t-119.5 69t-163 25.5
q-84 0 -162 -30t-142 -88t-103 -153t-39 -214q0 -112 37.5 -204.5t100.5 -151.5t143.5 -91t168.5 -32q72 0 134 18t106 47.5t79 69t56 79.5t33 83l264 -80q-17 -70 -51.5 -137t-92 -133t-131 -115t-176.5 -79t-221 -30z" />
    <glyph glyph-name="ccircumflex" unicode="&#x109;" horiz-adv-x="1138" 
d="M455 1130h-213l225 302h270l226 -302h-220l-145 154zM606 786q-109 0 -182.5 -75t-73.5 -207t74.5 -208.5t183.5 -76.5q95 0 153.5 50.5t78.5 119.5l239 -80q-17 -65 -55.5 -124t-95.5 -108.5t-140 -78.5t-180 -29q-224 0 -377 152.5t-153 382.5q0 231 150 382.5
t372 151.5q99 0 183 -29t141 -78t94.5 -108t54.5 -125l-244 -82q-22 73 -76 121.5t-147 48.5z" />
    <glyph glyph-name="Cdotaccent" unicode="&#x10a;" horiz-adv-x="1548" 
d="M827 -31q-152 0 -287.5 53.5t-236.5 150t-160 240t-59 312.5t61 313t163 240.5t235.5 150.5t279.5 54q144 0 264 -41.5t199.5 -112t130 -153t72.5 -175.5l-266 -83q-14 56 -42.5 105t-75 92.5t-119.5 69t-163 25.5q-84 0 -162 -30t-142 -88t-103 -153t-39 -214
q0 -112 37.5 -204.5t100.5 -151.5t143.5 -91t168.5 -32q72 0 134 18t106 47.5t79 69t56 79.5t33 83l264 -80q-17 -70 -51.5 -137t-92 -133t-131 -115t-176.5 -79t-221 -30zM657 1718q0 69 48 116.5t116 47.5q69 0 117.5 -47.5t48.5 -116.5q0 -67 -48.5 -114.5t-117.5 -47.5
q-68 0 -116 47.5t-48 114.5z" />
    <glyph glyph-name="cdotaccent" unicode="&#x10b;" horiz-adv-x="1138" 
d="M606 786q-109 0 -182.5 -75t-73.5 -207t74.5 -208.5t183.5 -76.5q95 0 153.5 50.5t78.5 119.5l239 -80q-17 -65 -55.5 -124t-95.5 -108.5t-140 -78.5t-180 -29q-224 0 -377 152.5t-153 382.5q0 231 150 382.5t372 151.5q99 0 183 -29t141 -78t94.5 -108t54.5 -125
l-244 -82q-22 73 -76 121.5t-147 48.5zM434 1286q0 68 48 115t116 47t116 -47t48 -115q0 -67 -48 -113.5t-116 -46.5t-116 46.5t-48 113.5z" />
    <glyph glyph-name="Ccaron" unicode="&#x10c;" horiz-adv-x="1548" 
d="M440 1815h254l135 -132l138 132h247l-249 -261h-279zM827 -31q-152 0 -287.5 53.5t-236.5 150t-160 240t-59 312.5t61 313t163 240.5t235.5 150.5t279.5 54q144 0 264 -41.5t199.5 -112t130 -153t72.5 -175.5l-266 -83q-14 56 -42.5 105t-75 92.5t-119.5 69t-163 25.5
q-84 0 -162 -30t-142 -88t-103 -153t-39 -214q0 -112 37.5 -204.5t100.5 -151.5t143.5 -91t168.5 -32q72 0 134 18t106 47.5t79 69t56 79.5t33 83l264 -80q-17 -70 -51.5 -137t-92 -133t-131 -115t-176.5 -79t-221 -30z" />
    <glyph glyph-name="ccaron" unicode="&#x10d;" horiz-adv-x="1138" 
d="M227 1434h219l144 -154l143 154h215l-223 -304h-272zM606 786q-109 0 -182.5 -75t-73.5 -207t74.5 -208.5t183.5 -76.5q95 0 153.5 50.5t78.5 119.5l239 -80q-17 -65 -55.5 -124t-95.5 -108.5t-140 -78.5t-180 -29q-224 0 -377 152.5t-153 382.5q0 231 150 382.5
t372 151.5q99 0 183 -29t141 -78t94.5 -108t54.5 -125l-244 -82q-22 73 -76 121.5t-147 48.5z" />
    <glyph glyph-name="Dcaron" unicode="&#x10e;" horiz-adv-x="1495" 
d="M344 1815h254l135 -132l137 132h248l-250 -261h-278zM453 262h225q91 0 169 28.5t138 84t94.5 145.5t34.5 205t-34 205t-94 146t-137.5 85t-168.5 29h-227v-928zM688 0h-518v1452h520q155 0 286.5 -49.5t227 -141t149.5 -229.5t54 -307q0 -224 -94 -390t-255.5 -250.5
t-369.5 -84.5z" />
    <glyph glyph-name="dcaron" unicode="&#x10f;" horiz-adv-x="1253" 
d="M1526 1483l-148 -406h-182l59 406h271zM1114 1483v-1301q0 -100 8 -182h-260q-10 50 -10 117q-35 -63 -110 -102.5t-173 -39.5q-214 0 -352.5 150.5t-138.5 380.5q0 224 136 375t347 151q117 0 187.5 -37.5t97.5 -87.5v576h268zM352 506q0 -132 70 -209.5t180 -77.5
q107 0 177.5 78t70.5 211q0 131 -70 205.5t-178 74.5t-179 -75.5t-71 -206.5z" />
    <glyph glyph-name="Dcroat" unicode="&#x110;" horiz-adv-x="1529" 
d="M723 0h-518v645h-180v209h180v598h520q155 0 286.5 -49.5t227 -141t149.5 -229.5t54 -307q0 -224 -94 -390t-255.5 -250.5t-369.5 -84.5zM487 262h226q91 0 169 28.5t138 84t94.5 145.5t34.5 205t-34 205t-94 146t-137.5 85t-168.5 29h-228v-336h281v-209h-281v-383z" />
    <glyph glyph-name="dcroat" unicode="&#x111;" horiz-adv-x="1253" 
d="M1114 1483v-160h146v-195h-146v-946q0 -104 8 -182h-260q-10 50 -10 117q-35 -63 -110 -102.5t-173 -39.5q-214 0 -352.5 150.5t-138.5 380.5q0 224 136 375t347 151q117 0 187.5 -37.5t97.5 -87.5v221h-236v195h236v160h268zM352 506q0 -132 70 -209.5t180 -77.5
q107 0 177.5 78t70.5 211q0 131 -70 205.5t-178 74.5t-179 -75.5t-71 -206.5z" />
    <glyph glyph-name="Emacron" unicode="&#x112;" horiz-adv-x="1185" 
d="M1079 0h-909v1452h909v-266h-626v-332h567v-252h-567v-336h626v-266zM934 1585h-625v205h625v-205z" />
    <glyph glyph-name="emacron" unicode="&#x113;" horiz-adv-x="1150" 
d="M352 618h451q-3 83 -59.5 141t-165.5 58q-99 0 -160 -61.5t-66 -137.5zM829 356l228 -67q-41 -139 -161 -229.5t-298 -90.5q-104 0 -198 37t-165.5 104.5t-114 170.5t-42.5 227q0 117 41 218t109.5 168.5t158 105.5t186.5 38q233 0 365.5 -139.5t132.5 -382.5
q0 -17 -1 -37t-2 -33t-1 -14h-721q4 -99 78 -164t176 -65q173 0 229 153zM872 1182h-575v198h575v-198z" />
    <glyph glyph-name="Ebreve" unicode="&#x114;" horiz-adv-x="1185" 
d="M1079 0h-909v1452h909v-266h-626v-332h567v-252h-567v-336h626v-266zM618 1542q-80 0 -145 24.5t-104.5 64.5t-60.5 88.5t-23 99.5h209q2 -45 33.5 -75t90.5 -30q60 0 91.5 30t33.5 75h209q-2 -51 -23.5 -99.5t-61 -88.5t-104.5 -64.5t-145 -24.5z" />
    <glyph glyph-name="ebreve" unicode="&#x115;" horiz-adv-x="1150" 
d="M352 618h451q-3 83 -59.5 141t-165.5 58q-99 0 -160 -61.5t-66 -137.5zM829 356l228 -67q-41 -139 -161 -229.5t-298 -90.5q-104 0 -198 37t-165.5 104.5t-114 170.5t-42.5 227q0 117 41 218t109.5 168.5t158 105.5t186.5 38q233 0 365.5 -139.5t132.5 -382.5
q0 -17 -1 -37t-2 -33t-1 -14h-721q4 -99 78 -164t176 -65q173 0 229 153zM582 1124q-153 0 -240 90.5t-90 219.5h182q3 -48 40.5 -84.5t107.5 -36.5t107 36.5t40 84.5h182q-3 -129 -89 -219.5t-240 -90.5z" />
    <glyph glyph-name="Edotaccent" unicode="&#x116;" horiz-adv-x="1185" 
d="M457 1706q0 69 48 116.5t116 47.5q69 0 117 -47.5t48 -116.5q0 -68 -48 -115t-117 -47q-68 0 -116 47.5t-48 114.5zM1079 0h-909v1452h909v-266h-626v-332h567v-252h-567v-336h626v-266z" />
    <glyph glyph-name="edotaccent" unicode="&#x117;" horiz-adv-x="1150" 
d="M352 618h451q-3 83 -59.5 141t-165.5 58q-99 0 -160 -61.5t-66 -137.5zM829 356l228 -67q-41 -139 -161 -229.5t-298 -90.5q-104 0 -198 37t-165.5 104.5t-114 170.5t-42.5 227q0 117 41 218t109.5 168.5t158 105.5t186.5 38q233 0 365.5 -139.5t132.5 -382.5
q0 -17 -1 -37t-2 -33t-1 -14h-721q4 -99 78 -164t176 -65q173 0 229 153zM422 1284q0 68 48 115t116 47t116 -47t48 -115q0 -67 -48 -113.5t-116 -46.5t-116 46.5t-48 113.5z" />
    <glyph glyph-name="Eogonek" unicode="&#x118;" horiz-adv-x="1185" 
d="M973 -457q-110 0 -181 60t-71 159q0 154 149 238h-700v1452h909v-266h-626v-332h567v-252h-567v-336h626v-266q-67 -32 -114 -82t-47 -111q0 -44 28.5 -68t71.5 -24q34 0 61 6v-161q-46 -17 -106 -17z" />
    <glyph glyph-name="eogonek" unicode="&#x119;" horiz-adv-x="1153" 
d="M831 356l228 -67q-29 -98 -100 -175t-175 -114q-67 -32 -114 -82t-47 -111q0 -44 28.5 -68t71.5 -24q31 0 61 6v-161q-46 -17 -106 -17q-110 0 -181 60t-71 159q0 130 106 211q-194 23 -323 166t-129 369q0 117 41 218t109.5 168.5t158 105.5t186.5 38
q233 0 365.5 -139.5t132.5 -382.5q0 -17 -1 -37t-2 -33t-1 -14h-721q4 -99 78 -164t176 -65q173 0 229 153zM354 618h451q-3 83 -59.5 141t-165.5 58q-99 0 -160 -61.5t-66 -137.5z" />
    <glyph glyph-name="Ecaron" unicode="&#x11a;" horiz-adv-x="1185" 
d="M242 1815h254l135 -132l137 132h248l-250 -261h-279zM1079 0h-909v1452h909v-266h-626v-332h567v-252h-567v-336h626v-266z" />
    <glyph glyph-name="ecaron" unicode="&#x11b;" horiz-adv-x="1150" 
d="M219 1434h219l144 -154l143 154h215l-223 -304h-273zM352 618h451q-3 83 -59.5 141t-165.5 58q-99 0 -160 -61.5t-66 -137.5zM829 356l228 -67q-41 -139 -161 -229.5t-298 -90.5q-104 0 -198 37t-165.5 104.5t-114 170.5t-42.5 227q0 117 41 218t109.5 168.5t158 105.5
t186.5 38q233 0 365.5 -139.5t132.5 -382.5q0 -17 -1 -37t-2 -33t-1 -14h-721q4 -99 78 -164t176 -65q173 0 229 153z" />
    <glyph glyph-name="Gcircumflex" unicode="&#x11c;" horiz-adv-x="1599" 
d="M684 1554h-248l246 261h279l249 -261h-256l-137 134zM1485 0h-230l-18 166q-56 -83 -166 -140t-262 -57q-147 0 -278.5 53t-230.5 148.5t-157.5 239.5t-58.5 315t61 315.5t163.5 240t236.5 149t282 53.5q137 0 253 -38t196 -102.5t133.5 -141.5t81.5 -165l-270 -96
q-15 52 -45 99t-76.5 88.5t-117 66.5t-155.5 25t-164 -29.5t-145.5 -87.5t-106.5 -155.5t-40 -221.5q0 -119 37 -215.5t100.5 -157t145.5 -93t175 -32.5q77 0 141.5 20t107 50t74 69.5t47 75t20.5 68.5h-459v246h725v-756z" />
    <glyph glyph-name="gcircumflex" unicode="&#x11d;" horiz-adv-x="1236" 
d="M461 1130h-213l225 302h270l226 -302h-219l-146 154zM80 -55l246 65q14 -85 77 -137.5t158 -52.5q268 0 268 280v74q-34 -55 -106 -92t-174 -37q-202 0 -335.5 139t-133.5 351q0 133 59 245t167 179t243 67q111 0 184 -39.5t103 -97.5v119h262v-899q0 -85 -18.5 -161
t-59 -144t-101 -117.5t-150.5 -78t-200 -28.5q-199 0 -332.5 106.5t-156.5 258.5zM596 279q105 0 171.5 70t66.5 186q0 114 -68.5 183.5t-169.5 69.5q-104 0 -173 -69.5t-69 -183.5q0 -117 67.5 -186.5t174.5 -69.5z" />
    <glyph glyph-name="Gbreve" unicode="&#x11e;" horiz-adv-x="1599" 
d="M819 1542q-80 0 -145 24.5t-104.5 64.5t-61 88.5t-23.5 99.5h209q2 -45 33.5 -75t91.5 -30t91.5 30t33.5 75h209q-2 -51 -23.5 -99.5t-61 -88.5t-104.5 -64.5t-145 -24.5zM1485 0h-230l-18 166q-56 -83 -166 -140t-262 -57q-147 0 -278.5 53t-230.5 148.5t-157.5 239.5
t-58.5 315t61 315.5t163.5 240t236.5 149t282 53.5q137 0 253 -38t196 -102.5t133.5 -141.5t81.5 -165l-270 -96q-15 52 -45 99t-76.5 88.5t-117 66.5t-155.5 25t-164 -29.5t-145.5 -87.5t-106.5 -155.5t-40 -221.5q0 -119 37 -215.5t100.5 -157t145.5 -93t175 -32.5
q77 0 141.5 20t107 50t74 69.5t47 75t20.5 68.5h-459v246h725v-756z" />
    <glyph glyph-name="gbreve" unicode="&#x11f;" horiz-adv-x="1236" 
d="M80 -55l246 65q14 -85 77 -137.5t158 -52.5q268 0 268 280v74q-34 -55 -106 -92t-174 -37q-202 0 -335.5 139t-133.5 351q0 133 59 245t167 179t243 67q111 0 184 -39.5t103 -97.5v119h262v-899q0 -85 -18.5 -161t-59 -144t-101 -117.5t-150.5 -78t-200 -28.5
q-199 0 -332.5 106.5t-156.5 258.5zM596 279q105 0 171.5 70t66.5 186q0 114 -68.5 183.5t-169.5 69.5q-104 0 -173 -69.5t-69 -183.5q0 -117 67.5 -186.5t174.5 -69.5zM594 1124q-153 0 -240 90.5t-90 219.5h182q3 -48 40.5 -84.5t107.5 -36.5t107 36.5t40 84.5h183
q-3 -129 -89.5 -219.5t-240.5 -90.5z" />
    <glyph glyph-name="Gdotaccent" unicode="&#x120;" horiz-adv-x="1599" 
d="M659 1712q0 69 48 116.5t116 47.5q69 0 117.5 -47.5t48.5 -116.5q0 -67 -48.5 -114.5t-117.5 -47.5q-68 0 -116 47.5t-48 114.5zM1485 0h-230l-18 166q-56 -83 -166 -140t-262 -57q-147 0 -278.5 53t-230.5 148.5t-157.5 239.5t-58.5 315t61 315.5t163.5 240t236.5 149
t282 53.5q137 0 253 -38t196 -102.5t133.5 -141.5t81.5 -165l-270 -96q-15 52 -45 99t-76.5 88.5t-117 66.5t-155.5 25t-164 -29.5t-145.5 -87.5t-106.5 -155.5t-40 -221.5q0 -119 37 -215.5t100.5 -157t145.5 -93t175 -32.5q77 0 141.5 20t107 50t74 69.5t47 75t20.5 68.5
h-459v246h725v-756z" />
    <glyph glyph-name="gdotaccent" unicode="&#x121;" horiz-adv-x="1236" 
d="M80 -55l246 65q14 -85 77 -137.5t158 -52.5q268 0 268 280v74q-34 -55 -106 -92t-174 -37q-202 0 -335.5 139t-133.5 351q0 133 59 245t167 179t243 67q111 0 184 -39.5t103 -97.5v119h262v-899q0 -85 -18.5 -161t-59 -144t-101 -117.5t-150.5 -78t-200 -28.5
q-199 0 -332.5 106.5t-156.5 258.5zM596 279q105 0 171.5 70t66.5 186q0 114 -68.5 183.5t-169.5 69.5q-104 0 -173 -69.5t-69 -183.5q0 -117 67.5 -186.5t174.5 -69.5zM420 1284q0 68 48 115t116 47t116 -47t48 -115q0 -67 -48 -113.5t-116 -46.5t-116 46.5t-48 113.5z" />
    <glyph glyph-name="Gcommaaccent" unicode="&#x122;" horiz-adv-x="1599" 
d="M676 -215q0 56 42.5 93.5t106.5 37.5q70 0 118 -50t48 -128q0 -61 -18.5 -108t-48 -75t-69 -46t-76.5 -24.5t-77 -6.5v98q71 0 115.5 27.5t50.5 68.5q-28 -14 -59 -14q-62 0 -97.5 35t-35.5 92zM1485 0h-230l-18 166q-56 -83 -166 -140t-262 -57q-147 0 -278.5 53
t-230.5 148.5t-157.5 239.5t-58.5 315t61 315.5t163.5 240t236.5 149t282 53.5q137 0 253 -38t196 -102.5t133.5 -141.5t81.5 -165l-270 -96q-15 52 -45 99t-76.5 88.5t-117 66.5t-155.5 25t-164 -29.5t-145.5 -87.5t-106.5 -155.5t-40 -221.5q0 -119 37 -215.5t100.5 -157
t145.5 -93t175 -32.5q77 0 141.5 20t107 50t74 69.5t47 75t20.5 68.5h-459v246h725v-756z" />
    <glyph glyph-name="gcommaaccent" unicode="&#x123;" horiz-adv-x="1236" 
d="M735 1239q0 -57 -42 -94t-107 -37q-71 0 -118.5 49.5t-47.5 126.5q0 69 27.5 122t72 81.5t92.5 42.5t97 14v-98q-72 0 -116.5 -27.5t-49.5 -66.5q1 1 8 4.5t21 6.5t28 3q63 0 99 -35.5t36 -91.5zM80 -55l246 65q14 -85 77 -137.5t158 -52.5q268 0 268 280v74
q-34 -55 -106 -92t-174 -37q-202 0 -335.5 139t-133.5 351q0 133 59 245t167 179t243 67q111 0 184 -39.5t103 -97.5v119h262v-899q0 -85 -18.5 -161t-59 -144t-101 -117.5t-150.5 -78t-200 -28.5q-199 0 -332.5 106.5t-156.5 258.5zM596 279q105 0 171.5 70t66.5 186
q0 114 -68.5 183.5t-169.5 69.5q-104 0 -173 -69.5t-69 -183.5q0 -117 67.5 -186.5t174.5 -69.5z" />
    <glyph glyph-name="Hcircumflex" unicode="&#x124;" horiz-adv-x="1540" 
d="M1370 0h-285v602h-632v-602h-283v1452h283v-584h632v584h285v-1452zM631 1554h-248l246 261h278l250 -261h-256l-137 134z" />
    <glyph glyph-name="hcircumflex" unicode="&#x125;" horiz-adv-x="1187" 
d="M461 1575h-248l246 260h278l250 -260h-256l-137 133zM412 592v-592h-273v1483h273v-559q47 55 120.5 82.5t151.5 27.5q124 0 210 -54.5t125.5 -142.5t39.5 -202v-635h-273v588q0 90 -46 145t-140 55q-84 0 -133.5 -55t-54.5 -141z" />
    <glyph glyph-name="Hbar" unicode="&#x126;" horiz-adv-x="1556" 
d="M1378 0h-284v602h-633v-602h-283v1059h-145v178h145v215h283v-215h633v215h284v-215h146v-178h-146v-1059zM461 868h633v191h-633v-191z" />
    <glyph glyph-name="hbar" unicode="&#x127;" horiz-adv-x="1187" 
d="M412 592v-592h-273v1130h-162v195h162v158h273v-158h227v-195h-227v-206q47 55 120.5 82.5t151.5 27.5q124 0 210 -54.5t125.5 -142.5t39.5 -202v-635h-273v588q0 90 -46 145t-140 55q-84 0 -133.5 -55t-54.5 -141z" />
    <glyph glyph-name="Itilde" unicode="&#x128;" horiz-adv-x="626" 
d="M457 0h-287v1452h287v-1452zM666 1823v-58q0 -108 -59 -166.5t-148 -58.5q-80 0 -154 49l-12 8q-66 41 -98 41q-60 0 -60 -88h-164v56q0 108 59 165.5t148 57.5q75 0 156 -47l12 -8q9 -4 26 -13t26 -13.5t21.5 -8.5t22.5 -4q27 0 43.5 15.5t16.5 47.5v25h164z" />
    <glyph glyph-name="itilde" unicode="&#x129;" horiz-adv-x="550" 
d="M412 0h-273v1008h273v-1008zM629 1425v-36q0 -123 -60 -187.5t-159 -64.5q-81 0 -146 45l-12 8q-4 2 -18.5 12t-22 13.5t-23 7.5t-32.5 4q-69 0 -72 -88h-168v43q0 120 62.5 184t160.5 64q62 0 148 -46l12 -8q68 -39 98 -39q68 0 68 88h164z" />
    <glyph glyph-name="Imacron" unicode="&#x12a;" horiz-adv-x="626" 
d="M457 0h-287v1452h287v-1452zM627 1585h-625v205h625v-205z" />
    <glyph glyph-name="imacron" unicode="&#x12b;" horiz-adv-x="550" 
d="M412 0h-273v1008h273v-1008zM563 1182h-575v198h575v-198z" />
    <glyph glyph-name="Ibreve" unicode="&#x12c;" horiz-adv-x="626" 
d="M457 0h-287v1452h287v-1452zM313 1542q-80 0 -145 24.5t-104.5 64.5t-60.5 88.5t-23 99.5h208q2 -45 33.5 -75t91.5 -30t91.5 30t33.5 75h209q-2 -51 -23.5 -99.5t-61 -88.5t-104.5 -64.5t-145 -24.5z" />
    <glyph glyph-name="ibreve" unicode="&#x12d;" horiz-adv-x="550" 
d="M412 0h-273v1008h273v-1008zM274 1124q-153 0 -239.5 90.5t-89.5 219.5h182q3 -48 40 -84.5t107 -36.5t107.5 36.5t40.5 84.5h182q-3 -129 -89.5 -219.5t-240.5 -90.5z" />
    <glyph glyph-name="Iogonek" unicode="&#x12e;" horiz-adv-x="626" 
d="M350 -457q-110 0 -181 60t-71 159q0 153 150 238h-78v1452h287v-1452q-68 -32 -115 -82t-47 -111q0 -45 27.5 -68.5t74.5 -23.5q33 0 60 6v-161q-46 -17 -107 -17z" />
    <glyph glyph-name="iogonek" unicode="&#x12f;" horiz-adv-x="550" 
d="M305 -457q-110 0 -181 60t-71 159q0 150 148 238h-62v1008h273v-1008q-68 -32 -115 -82t-47 -111q0 -44 28.5 -68t71.5 -24q32 0 62 6v-161q-46 -17 -107 -17zM106 1337q0 70 49.5 120t118.5 50q70 0 119 -49.5t49 -120.5q0 -68 -49 -117t-119 -49q-69 0 -118.5 49
t-49.5 117z" />
    <glyph glyph-name="Idotaccent" unicode="&#x130;" horiz-adv-x="626" 
d="M457 0h-287v1452h287v-1452zM147 1706q0 69 48 116.5t116 47.5q69 0 117.5 -47.5t48.5 -116.5q0 -67 -48.5 -114.5t-117.5 -47.5q-68 0 -116 47.5t-48 114.5z" />
    <glyph glyph-name="dotlessi" unicode="&#x131;" horiz-adv-x="550" 
d="M412 0h-273v1008h273v-1008z" />
    <glyph glyph-name="IJ" unicode="&#x132;" horiz-adv-x="1269" 
d="M444 631h-286v821h286v-821zM158 442l286 50v-37q0 -108 52 -162.5t141 -54.5q90 0 141 57.5t51 153.5v1003h283v-1003q0 -131 -58.5 -240t-167.5 -174.5t-247 -65.5q-215 0 -348 130t-133 343z" />
    <glyph glyph-name="ij" unicode="&#x133;" horiz-adv-x="1101" 
d="M412 0h-273v1008h273v-1008zM106 1337q0 70 49.5 120t118.5 50q70 0 119 -49.5t49 -120.5q0 -68 -49 -117t-119 -49q-69 0 -118.5 49t-49.5 117zM690 -61v1069h273v-1096q0 -148 -85.5 -240t-230.5 -92q-99 0 -153 23v227q45 -10 84 -10q112 0 112 119zM657 1339
q0 70 49.5 120t118.5 50q70 0 119 -49.5t49 -120.5q0 -69 -49 -117t-119 -48q-69 0 -118.5 48t-49.5 117z" />
    <glyph glyph-name="Jcircumflex" unicode="&#x134;" horiz-adv-x="1148" 
d="M711 1554h-248l246 261h278l250 -261h-256l-137 134zM43 442v97l272 49v-133q1 -108 56 -162.5t145 -54.5q89 0 141 57.5t52 153.5v1003h282v-1003q0 -131 -58.5 -240t-167.5 -174.5t-247 -65.5q-215 0 -345 129.5t-130 343.5z" />
    <glyph glyph-name="jcircumflex" unicode="&#x135;" horiz-adv-x="550" 
d="M125 1130h-213l225 302h271l225 -302h-219l-146 154zM139 -61v1069h273v-1096q0 -148 -85.5 -240t-230.5 -92q-84 0 -153 23v227q40 -10 84 -10q112 0 112 119z" />
    <glyph glyph-name="Kcommaaccent" unicode="&#x136;" horiz-adv-x="1409" 
d="M1055 0l-422 602l-180 -199v-403h-283v1452h283v-657l581 657h371l-576 -633l580 -819h-354zM600 -203q0 56 43 93.5t107 37.5q70 0 117.5 -50t47.5 -128q0 -61 -18.5 -108t-47.5 -75t-68.5 -46t-76.5 -24.5t-77 -6.5v98q71 0 115.5 27.5t50.5 69.5q-30 -15 -60 -15
q-62 0 -97.5 35t-35.5 92z" />
    <glyph glyph-name="kcommaaccent" unicode="&#x137;" horiz-adv-x="1142" 
d="M1116 1008l-403 -424l411 -584h-333l-267 385l-112 -119v-266h-273v1483h273v-850l348 375h356zM467 -209q0 56 42.5 93.5t106.5 37.5q70 0 118 -50t48 -128q0 -61 -18.5 -108t-47.5 -75t-68.5 -46t-76.5 -24.5t-77 -6.5v98q71 0 115 27t50 69q-28 -14 -59 -14
q-62 0 -97.5 35t-35.5 92z" />
    <glyph glyph-name="kgreenlandic" unicode="&#x138;" horiz-adv-x="1142" 
d="M1116 1008l-403 -424l411 -584h-333l-267 385l-112 -119v-266h-273v1008h273v-375l348 375h356z" />
    <glyph glyph-name="Lacute" unicode="&#x139;" horiz-adv-x="1132" 
d="M741 1815l-297 -261h-249l211 261h335zM1100 0h-930v1452h283v-1182h647v-270z" />
    <glyph glyph-name="lacute" unicode="&#x13a;" horiz-adv-x="550" 
d="M686 1835l-297 -260h-250l211 260h336zM412 0h-273v1483h273v-1483z" />
    <glyph glyph-name="Lcommaaccent" unicode="&#x13b;" horiz-adv-x="1132" 
d="M1100 0h-930v1452h283v-1182h647v-270zM489 -209q0 56 43 93.5t107 37.5q70 0 118 -50t48 -128q0 -61 -18.5 -108t-48 -75t-69 -46t-76.5 -24.5t-77 -6.5v98q71 0 115.5 27.5t50.5 68.5q-28 -14 -59 -14q-62 0 -98 35t-36 92z" />
    <glyph glyph-name="lcommaaccent" unicode="&#x13c;" horiz-adv-x="550" 
d="M412 0h-273v1483h273v-1483zM117 -209q0 56 42.5 93.5t106.5 37.5q70 0 118 -50t48 -128q0 -61 -18.5 -108t-48 -75t-69 -46t-76.5 -24.5t-77 -6.5v98q71 0 115.5 27.5t50.5 68.5q-28 -14 -59 -14q-62 0 -97.5 35t-35.5 92z" />
    <glyph glyph-name="Lcaron" unicode="&#x13d;" horiz-adv-x="1134" 
d="M979 1556l-154 -426h-192l63 426h283zM1100 0h-930v1452h283v-1182h647v-270z" />
    <glyph glyph-name="lcaron" unicode="&#x13e;" horiz-adv-x="550" 
d="M819 1483l-147 -406h-183l60 406h270zM412 0h-273v1483h273v-1483z" />
    <glyph glyph-name="Ldot" unicode="&#x13f;" horiz-adv-x="1134" 
d="M625 827q0 66 46.5 111t112.5 45q65 0 111.5 -45.5t46.5 -110.5t-46.5 -110t-111.5 -45q-66 0 -112.5 44.5t-46.5 110.5zM1100 0h-930v1452h283v-1182h647v-270z" />
    <glyph glyph-name="ldot" unicode="&#x140;" horiz-adv-x="821" 
d="M412 0h-273v1483h273v-1483zM514 674q0 68 48 115t116 47t116 -47t48 -115q0 -67 -48 -113.5t-116 -46.5t-116 46.5t-48 113.5z" />
    <glyph glyph-name="Lslash" unicode="&#x141;" horiz-adv-x="1181" 
d="M1149 0h-930v530l-188 -86v228l188 86v694h283v-565l329 149v-227l-329 -150v-389h647v-270z" />
    <glyph glyph-name="lslash" unicode="&#x142;" horiz-adv-x="761" 
d="M518 0h-272v528l-174 -79v227l174 80v727h272v-604l178 82v-228l-178 -82v-651z" />
    <glyph glyph-name="Nacute" unicode="&#x143;" horiz-adv-x="1579" 
d="M1143 1815l-297 -261h-250l211 261h336zM1409 0h-297l-659 1030v-1030h-283v1452h352l604 -960v960h283v-1452z" />
    <glyph glyph-name="nacute" unicode="&#x144;" horiz-adv-x="1187" 
d="M922 1436l-279 -308h-219l186 308h312zM412 580v-580h-273v1008h264v-125q43 74 123 112.5t168 38.5q179 0 272 -111.5t93 -287.5v-635h-273v588q0 90 -46 145t-140 55q-87 0 -137.5 -59t-50.5 -149z" />
    <glyph glyph-name="Ncommaaccent" unicode="&#x145;" horiz-adv-x="1579" 
d="M674 -209q0 56 42.5 93.5t106.5 37.5q70 0 118 -50t48 -128q0 -61 -18.5 -108t-48 -75t-69 -46t-76.5 -24.5t-77 -6.5v98q71 0 115.5 27.5t50.5 68.5q-28 -14 -59 -14q-62 0 -97.5 35t-35.5 92zM1409 0h-297l-659 1030v-1030h-283v1452h352l604 -960v960h283v-1452z" />
    <glyph glyph-name="ncommaaccent" unicode="&#x146;" horiz-adv-x="1187" 
d="M453 -205q0 56 42.5 93.5t106.5 37.5q70 0 118 -50t48 -128q0 -61 -18.5 -108t-48 -75t-69 -46t-76.5 -24.5t-77 -6.5v98q71 0 115.5 27.5t50.5 69.5q-30 -15 -59 -15q-62 0 -97.5 35t-35.5 92zM412 580v-580h-273v1008h264v-125q43 74 123 112.5t168 38.5
q179 0 272 -111.5t93 -287.5v-635h-273v588q0 90 -46 145t-140 55q-87 0 -137.5 -59t-50.5 -149z" />
    <glyph glyph-name="Ncaron" unicode="&#x147;" horiz-adv-x="1579" 
d="M399 1815h254l135 -132l138 132h248l-250 -261h-279zM1409 0h-297l-659 1030v-1030h-283v1452h352l604 -960v960h283v-1452z" />
    <glyph glyph-name="ncaron" unicode="&#x148;" horiz-adv-x="1187" 
d="M217 1434h219l144 -154l143 154h215l-223 -304h-273zM412 580v-580h-273v1008h264v-125q43 74 123 112.5t168 38.5q179 0 272 -111.5t93 -287.5v-635h-273v588q0 90 -46 145t-140 55q-87 0 -137.5 -59t-50.5 -149z" />
    <glyph glyph-name="napostrophe" unicode="&#x149;" horiz-adv-x="1187" 
d="M113 1397q0 56 42.5 93.5t106.5 37.5q70 0 118 -49.5t48 -126.5q0 -62 -19.5 -110t-49 -75.5t-69.5 -45t-76.5 -23.5t-74.5 -6v96q71 0 115.5 26.5t50.5 67.5l-7 -3q-7 -3 -13 -5t-17 -4t-22 -2q-62 0 -97.5 36t-35.5 93zM412 580v-580h-273v1008h264v-125
q43 74 123 112.5t168 38.5q179 0 272 -111.5t93 -287.5v-635h-273v588q0 90 -46 145t-140 55q-87 0 -137.5 -59t-50.5 -149z" />
    <glyph glyph-name="Eng" unicode="&#x14a;" horiz-adv-x="1579" 
d="M1126 -16l-673 1046v-1030h-283v1452h352l604 -954v954h283v-1528q0 -150 -90.5 -243t-239.5 -93q-110 0 -164 23v231q40 -10 93 -10q118 0 118 115v37z" />
    <glyph glyph-name="eng" unicode="&#x14b;" horiz-adv-x="1187" 
d="M412 580v-580h-273v1008h264v-125q43 74 123 112.5t168 38.5q179 0 272 -111.5t93 -287.5v-717q0 -147 -88.5 -239.5t-233.5 -92.5q-58 0 -101 7.5t-54 15.5v225q40 -10 86 -10q118 0 118 121v643q0 90 -46 145t-140 55q-87 0 -137.5 -59t-50.5 -149z" />
    <glyph glyph-name="Omacron" unicode="&#x14c;" horiz-adv-x="1660" 
d="M377 727q0 -118 39 -213t104 -152.5t144 -87.5t165 -30q69 0 134 18.5t123.5 57.5t102 95t69.5 136.5t26 175.5t-26 175.5t-69.5 136.5t-102 95t-123.5 57.5t-134 18.5q-86 0 -165 -30t-144 -87.5t-104 -152.5t-39 -213zM84 725q0 171 61 315.5t164 240t237.5 149
t282.5 53.5t283.5 -53.5t238.5 -149t164.5 -240t61.5 -315.5q0 -170 -61.5 -314t-164.5 -239.5t-238.5 -149t-283.5 -53.5t-282.5 53.5t-237.5 149t-164 239.5t-61 314zM1143 1585h-625v205h625v-205z" />
    <glyph glyph-name="omacron" unicode="&#x14d;" horiz-adv-x="1212" 
d="M895 1182h-576v198h576v-198zM606 217q107 0 181.5 75.5t74.5 211.5t-74.5 211.5t-181.5 75.5t-181.5 -75.5t-74.5 -211.5q0 -134 75 -210.5t181 -76.5zM606 1038q227 0 378 -151t151 -383q0 -152 -69 -274.5t-190 -191.5t-270 -69q-226 0 -377 152t-151 383
q0 232 150.5 383t377.5 151z" />
    <glyph glyph-name="Obreve" unicode="&#x14e;" horiz-adv-x="1660" 
d="M836 1542q-80 0 -145 24.5t-104.5 64.5t-61 88.5t-23.5 99.5h209q2 -45 33.5 -75t91.5 -30t91.5 30t33.5 75h208q-2 -51 -23 -99.5t-60.5 -88.5t-104.5 -64.5t-145 -24.5zM377 727q0 -118 39 -213t104 -152.5t144 -87.5t165 -30q69 0 134 18.5t123.5 57.5t102 95
t69.5 136.5t26 175.5t-26 175.5t-69.5 136.5t-102 95t-123.5 57.5t-134 18.5q-86 0 -165 -30t-144 -87.5t-104 -152.5t-39 -213zM84 725q0 171 61 315.5t164 240t237.5 149t282.5 53.5t283.5 -53.5t238.5 -149t164.5 -240t61.5 -315.5q0 -170 -61.5 -314t-164.5 -239.5
t-238.5 -149t-283.5 -53.5t-282.5 53.5t-237.5 149t-164 239.5t-61 314z" />
    <glyph glyph-name="obreve" unicode="&#x14f;" horiz-adv-x="1212" 
d="M606 217q107 0 181.5 75.5t74.5 211.5t-74.5 211.5t-181.5 75.5t-181.5 -75.5t-74.5 -211.5q0 -134 75 -210.5t181 -76.5zM606 1038q227 0 378 -151t151 -383q0 -152 -69 -274.5t-190 -191.5t-270 -69q-226 0 -377 152t-151 383q0 232 150.5 383t377.5 151zM606 1124
q-153 0 -240 90.5t-90 219.5h183q3 -48 40 -84.5t107 -36.5t107.5 36.5t40.5 84.5h182q-3 -129 -89.5 -219.5t-240.5 -90.5z" />
    <glyph glyph-name="Ohungarumlaut" unicode="&#x150;" horiz-adv-x="1660" 
d="M928 1815l-193 -261h-176l109 261h260zM1278 1815l-221 -261h-180l137 261h264zM377 727q0 -118 39 -213t104 -152.5t144 -87.5t165 -30q69 0 134 18.5t123.5 57.5t102 95t69.5 136.5t26 175.5t-26 175.5t-69.5 136.5t-102 95t-123.5 57.5t-134 18.5q-86 0 -165 -30
t-144 -87.5t-104 -152.5t-39 -213zM84 725q0 171 61 315.5t164 240t237.5 149t282.5 53.5t283.5 -53.5t238.5 -149t164.5 -240t61.5 -315.5q0 -170 -61.5 -314t-164.5 -239.5t-238.5 -149t-283.5 -53.5t-282.5 53.5t-237.5 149t-164 239.5t-61 314z" />
    <glyph glyph-name="ohungarumlaut" unicode="&#x151;" horiz-adv-x="1212" 
d="M606 217q107 0 181.5 75.5t74.5 211.5t-74.5 211.5t-181.5 75.5t-181.5 -75.5t-74.5 -211.5q0 -134 75 -210.5t181 -76.5zM606 1038q227 0 378 -151t151 -383q0 -152 -69 -274.5t-190 -191.5t-270 -69q-226 0 -377 152t-151 383q0 232 150.5 383t377.5 151zM721 1436
l-199 -308h-172l107 308h264zM1063 1436l-229 -308h-175l136 308h268z" />
    <glyph glyph-name="OE" unicode="&#x152;" horiz-adv-x="2299" 
d="M377 727q0 -118 39 -213t104 -152.5t144 -87.5t165 -30q69 0 134 18.5t123.5 57.5t102 95t69.5 136.5t26 175.5t-26 175.5t-69.5 136.5t-102 95t-123.5 57.5t-134 18.5q-86 0 -165 -30t-144 -87.5t-104 -152.5t-39 -213zM2193 0h-909v145q-170 -176 -455 -176
q-148 0 -282.5 53.5t-237.5 149t-164 239.5t-61 314q0 171 61 315.5t164 240t237.5 149t282.5 53.5q283 0 455 -178v147h909v-266h-626v-332h567v-252h-567v-336h626v-266z" />
    <glyph glyph-name="oe" unicode="&#x153;" horiz-adv-x="1937" 
d="M1139 618h450q-3 83 -59.5 141t-165.5 58q-99 0 -159.5 -61t-65.5 -138zM606 217q107 0 181.5 75.5t74.5 211.5t-74.5 211.5t-181.5 75.5t-181.5 -75.5t-74.5 -211.5q0 -134 75 -210.5t181 -76.5zM606 1038q117 0 217 -43t172 -121q71 78 166 121t199 43
q233 0 365.5 -139.5t132.5 -382.5q0 -17 -1 -37t-2.5 -33t-1.5 -14h-720q4 -99 77.5 -164t175.5 -65q174 0 230 153l227 -67q-41 -139 -161 -229.5t-298 -90.5q-114 0 -215 42.5t-172 123.5q-73 -79 -173.5 -122.5t-217.5 -43.5q-226 0 -377 152t-151 383q0 232 150.5 383
t377.5 151z" />
    <glyph glyph-name="Racute" unicode="&#x154;" horiz-adv-x="1290" 
d="M1006 1815l-297 -261h-250l211 261h336zM887 0l-285 559h-147v-559h-285v1452h567q209 0 336 -126.5t127 -319.5q0 -151 -83 -261t-226 -151l311 -594h-315zM455 803h229q106 0 166.5 55t60.5 146q0 93 -60.5 147.5t-166.5 54.5h-229v-403z" />
    <glyph glyph-name="racute" unicode="&#x155;" horiz-adv-x="794" 
d="M723 1436l-279 -308h-219l187 308h311zM754 1012v-275q-41 8 -82 8q-55 0 -99.5 -14.5t-82 -46t-58 -88t-20.5 -135.5v-461h-273v1008h264v-150q22 47 57.5 80.5t77.5 49t78.5 22t73.5 6.5q24 0 64 -4z" />
    <glyph glyph-name="Rcommaaccent" unicode="&#x156;" horiz-adv-x="1290" 
d="M887 0l-285 559h-147v-559h-285v1452h567q209 0 336 -126.5t127 -319.5q0 -151 -83 -261t-226 -151l311 -594h-315zM455 803h229q106 0 166.5 55t60.5 146q0 93 -60.5 147.5t-166.5 54.5h-229v-403zM530 -203q0 56 43 93.5t107 37.5q70 0 118 -50t48 -128
q0 -61 -18.5 -108t-48 -75t-69 -46t-76.5 -24.5t-77 -6.5v98q71 0 115.5 27.5t50.5 69.5q-30 -15 -59 -15q-62 0 -98 35t-36 92z" />
    <glyph glyph-name="rcommaaccent" unicode="&#x157;" horiz-adv-x="794" 
d="M754 1012v-275q-41 8 -82 8q-55 0 -99.5 -14.5t-82 -46t-58 -88t-20.5 -135.5v-461h-273v1008h264v-150q22 47 57.5 80.5t77.5 49t78.5 22t73.5 6.5q24 0 64 -4zM121 -209q0 56 42.5 93.5t106.5 37.5q70 0 118 -50t48 -128q0 -61 -18.5 -108t-48 -75t-69 -46t-76.5 -24.5
t-77 -6.5v98q71 0 115.5 27.5t50.5 68.5q-28 -14 -59 -14q-62 0 -97.5 35t-35.5 92z" />
    <glyph glyph-name="Rcaron" unicode="&#x158;" horiz-adv-x="1290" 
d="M256 1815h254l135 -132l137 132h248l-250 -261h-278zM887 0l-285 559h-147v-559h-285v1452h567q209 0 336 -126.5t127 -319.5q0 -151 -83 -261t-226 -151l311 -594h-315zM455 803h229q106 0 166.5 55t60.5 146q0 93 -60.5 147.5t-166.5 54.5h-229v-403z" />
    <glyph glyph-name="rcaron" unicode="&#x159;" horiz-adv-x="794" 
d="M68 1434h219l143 -154l143 154h215l-223 -304h-272zM754 1012v-275q-41 8 -82 8q-55 0 -99.5 -14.5t-82 -46t-58 -88t-20.5 -135.5v-461h-273v1008h264v-150q22 47 57.5 80.5t77.5 49t78.5 22t73.5 6.5q24 0 64 -4z" />
    <glyph glyph-name="Sacute" unicode="&#x15a;" horiz-adv-x="1249" 
d="M1040 1815l-297 -261h-249l211 261h335zM1147 1106l-254 -78q-6 34 -22 66.5t-45.5 65.5t-80.5 53t-116 20q-100 0 -164 -54.5t-64 -129.5q0 -62 40.5 -105.5t117.5 -58.5l203 -39q193 -37 299 -153.5t106 -274.5q0 -85 -35 -164.5t-99.5 -143.5t-166 -102.5
t-223.5 -38.5q-111 0 -205 27.5t-158 72.5t-111 105.5t-71.5 122.5t-31.5 127l262 70q10 -116 91 -194.5t226 -78.5q111 0 173.5 49.5t62.5 128.5q0 64 -46 109.5t-130 62.5l-203 41q-176 36 -278.5 145t-102.5 271q0 126 69 231t185 164.5t252 59.5q125 0 223.5 -35
t157.5 -93t92 -119.5t47 -129.5z" />
    <glyph glyph-name="sacute" unicode="&#x15b;" horiz-adv-x="964" 
d="M862 1436l-278 -308h-219l186 308h311zM72 281l233 51q5 -65 52.5 -109.5t131.5 -44.5q64 0 99 29t35 72q0 76 -109 98l-133 31q-141 31 -212 111t-71 190q0 137 108 233t269 96q82 0 149.5 -20t110.5 -50.5t73 -70.5t44 -76.5t18 -72.5l-227 -52q-7 54 -47.5 94.5
t-118.5 40.5q-54 0 -91.5 -28.5t-37.5 -71.5q0 -36 25 -59t67 -31l144 -31q145 -30 222 -112.5t77 -196.5q0 -63 -24.5 -121.5t-71.5 -106t-123.5 -76t-171.5 -28.5q-87 0 -158.5 21.5t-117 55t-78 76.5t-47.5 82.5t-19 76.5z" />
    <glyph glyph-name="Scircumflex" unicode="&#x15c;" horiz-adv-x="1249" 
d="M518 1554h-248l246 261h279l249 -261h-256l-137 134zM1147 1106l-254 -78q-6 34 -22 66.5t-45.5 65.5t-80.5 53t-116 20q-100 0 -164 -54.5t-64 -129.5q0 -62 40.5 -105.5t117.5 -58.5l203 -39q193 -37 299 -153.5t106 -274.5q0 -85 -35 -164.5t-99.5 -143.5t-166 -102.5
t-223.5 -38.5q-111 0 -205 27.5t-158 72.5t-111 105.5t-71.5 122.5t-31.5 127l262 70q10 -116 91 -194.5t226 -78.5q111 0 173.5 49.5t62.5 128.5q0 64 -46 109.5t-130 62.5l-203 41q-176 36 -278.5 145t-102.5 271q0 126 69 231t185 164.5t252 59.5q125 0 223.5 -35
t157.5 -93t92 -119.5t47 -129.5z" />
    <glyph glyph-name="scircumflex" unicode="&#x15d;" horiz-adv-x="964" 
d="M354 1130h-213l226 302h270l225 -302h-219l-145 154zM72 281l233 51q5 -65 52.5 -109.5t131.5 -44.5q64 0 99 29t35 72q0 76 -109 98l-133 31q-141 31 -212 111t-71 190q0 137 108 233t269 96q82 0 149.5 -20t110.5 -50.5t73 -70.5t44 -76.5t18 -72.5l-227 -52
q-7 54 -47.5 94.5t-118.5 40.5q-54 0 -91.5 -28.5t-37.5 -71.5q0 -36 25 -59t67 -31l144 -31q145 -30 222 -112.5t77 -196.5q0 -63 -24.5 -121.5t-71.5 -106t-123.5 -76t-171.5 -28.5q-87 0 -158.5 21.5t-117 55t-78 76.5t-47.5 82.5t-19 76.5z" />
    <glyph glyph-name="Scedilla" unicode="&#x15e;" horiz-adv-x="1251" 
d="M575 -221l-73 92l63 102q-96 9 -176.5 40.5t-136 76t-96 101.5t-61.5 115t-27 118l262 70q10 -116 91 -194.5t226 -78.5q111 0 173.5 49.5t62.5 128.5q0 64 -46 109.5t-130 62.5l-203 41q-176 36 -278.5 145t-102.5 271q0 126 69 231t185 164.5t252 59.5q125 0 223.5 -35
t157.5 -93t92 -119.5t47 -129.5l-254 -78q-6 34 -22 66.5t-45.5 65.5t-80.5 53t-116 20q-100 0 -164 -54.5t-64 -129.5q0 -62 40.5 -105.5t117.5 -58.5l203 -39q193 -37 299 -153.5t106 -274.5q0 -161 -116 -288.5t-316 -154.5l-47 -73q88 -2 143.5 -51t55.5 -125
q0 -80 -65 -137.5t-197 -57.5q-79 0 -144.5 32.5t-99.5 74.5l88 110q76 -76 154 -76q38 0 61 15.5t23 42.5q0 24 -21 40.5t-57 16.5q-37 0 -56 -8z" />
    <glyph glyph-name="scedilla" unicode="&#x15f;" horiz-adv-x="964" 
d="M416 -221l-74 92l66 104q-85 11 -151.5 45.5t-103.5 81t-57 91.5t-24 88l233 51q5 -65 52.5 -109.5t131.5 -44.5q64 0 99 29t35 72q0 76 -109 98l-133 31q-141 31 -212 111t-71 190q0 137 108 233t269 96q82 0 149.5 -20t110.5 -50.5t73 -70.5t44 -76.5t18 -72.5
l-227 -52q-7 54 -47.5 94.5t-118.5 40.5q-54 0 -91.5 -28.5t-37.5 -71.5q0 -36 25 -59t67 -31l144 -31q145 -30 222 -112.5t77 -196.5q0 -116 -79.5 -209t-225.5 -117l-48 -73q88 -2 143.5 -51t55.5 -125q0 -80 -65 -137.5t-197 -57.5q-79 0 -144.5 32.5t-99.5 74.5l88 110
q76 -76 154 -76q38 0 61 15.5t23 42.5q0 24 -21 40.5t-57 16.5t-55 -8z" />
    <glyph glyph-name="Scaron" unicode="&#x160;" horiz-adv-x="1249" 
d="M252 1815h254l135 -132l137 132h248l-250 -261h-278zM1147 1106l-254 -78q-6 34 -22 66.5t-45.5 65.5t-80.5 53t-116 20q-100 0 -164 -54.5t-64 -129.5q0 -62 40.5 -105.5t117.5 -58.5l203 -39q193 -37 299 -153.5t106 -274.5q0 -85 -35 -164.5t-99.5 -143.5t-166 -102.5
t-223.5 -38.5q-111 0 -205 27.5t-158 72.5t-111 105.5t-71.5 122.5t-31.5 127l262 70q10 -116 91 -194.5t226 -78.5q111 0 173.5 49.5t62.5 128.5q0 64 -46 109.5t-130 62.5l-203 41q-176 36 -278.5 145t-102.5 271q0 126 69 231t185 164.5t252 59.5q125 0 223.5 -35
t157.5 -93t92 -119.5t47 -129.5z" />
    <glyph glyph-name="scaron" unicode="&#x161;" horiz-adv-x="964" 
d="M125 1434h219l143 -154l144 154h215l-223 -304h-273zM72 281l233 51q5 -65 52.5 -109.5t131.5 -44.5q64 0 99 29t35 72q0 76 -109 98l-133 31q-141 31 -212 111t-71 190q0 137 108 233t269 96q82 0 149.5 -20t110.5 -50.5t73 -70.5t44 -76.5t18 -72.5l-227 -52
q-7 54 -47.5 94.5t-118.5 40.5q-54 0 -91.5 -28.5t-37.5 -71.5q0 -36 25 -59t67 -31l144 -31q145 -30 222 -112.5t77 -196.5q0 -63 -24.5 -121.5t-71.5 -106t-123.5 -76t-171.5 -28.5q-87 0 -158.5 21.5t-117 55t-78 76.5t-47.5 82.5t-19 76.5z" />
    <glyph glyph-name="Tcommaaccent" unicode="&#x162;" horiz-adv-x="1267" 
d="M543 -221l-74 92l82 129h-59v1184h-459v268h1202v-268h-459v-1184h-57l-62 -98q88 -2 143.5 -51t55.5 -125q0 -80 -65 -137.5t-197 -57.5q-79 0 -144.5 32.5t-99.5 74.5l88 110q76 -76 154 -76q38 0 61 15.5t23 42.5q0 24 -21 40.5t-57 16.5q-34 0 -55 -8z" />
    <glyph glyph-name="tcommaaccent" unicode="&#x163;" horiz-adv-x="776" 
d="M494 1309v-301h202v-242h-202v-422q0 -64 28.5 -90.5t89.5 -26.5q52 0 84 9v-226q-60 -24 -153 -24q-148 0 -234 82.5t-86 228.5v469h-182v242h51q76 0 116 44t40 115v142h246zM309 -209q0 56 43 93.5t107 37.5q70 0 118 -50t48 -128q0 -61 -18.5 -108t-48 -75t-69 -46
t-76.5 -24.5t-77 -6.5v98q71 0 115.5 27.5t50.5 68.5q-28 -14 -60 -14q-62 0 -97.5 35t-35.5 92z" />
    <glyph glyph-name="Tcaron" unicode="&#x164;" horiz-adv-x="1267" 
d="M246 1815h254l135 -132l137 132h248l-250 -261h-278zM1235 1184h-459v-1184h-284v1184h-459v268h1202v-268z" />
    <glyph glyph-name="tcaron" unicode="&#x165;" horiz-adv-x="776" 
d="M930 1544l-148 -405h-182l59 405h271zM494 1309v-301h202v-242h-202v-422q0 -64 28.5 -90.5t89.5 -26.5q52 0 84 9v-226q-60 -24 -153 -24q-148 0 -234 82.5t-86 228.5v469h-182v242h51q76 0 116 44t40 115v142h246z" />
    <glyph glyph-name="Tbar" unicode="&#x166;" horiz-adv-x="1290" 
d="M1245 1184h-459v-422h250v-211h-250v-551h-284v551h-242v211h242v422h-459v268h1202v-268z" />
    <glyph glyph-name="tbar" unicode="&#x167;" horiz-adv-x="788" 
d="M506 1309v-301h203v-242h-203v-166h201v-197h-201v-59q0 -64 29 -90.5t90 -26.5q53 0 84 9v-226q-60 -24 -154 -24q-148 0 -233.5 82.5t-85.5 228.5v106h-185v197h185v166h-183v242h51q76 0 116 44t40 115v142h246z" />
    <glyph glyph-name="Utilde" unicode="&#x168;" horiz-adv-x="1431" 
d="M715 -33q-117 0 -217.5 36t-176.5 103.5t-119.5 172.5t-43.5 235v938h282v-917q0 -140 73.5 -215.5t201.5 -75.5q131 0 203.5 75t72.5 216v917h283v-938q0 -173 -75.5 -298.5t-200.5 -187t-283 -61.5zM1061 1823v-58q0 -108 -59 -166.5t-148 -58.5q-80 0 -154 49l-12 8
q-66 41 -98 41q-60 0 -60 -88h-163v56q0 109 58.5 166t147.5 57q75 0 156 -47l12 -8q9 -4 26 -13t26 -13.5t22 -8.5t23 -4q27 0 43 15.5t16 47.5v25h164z" />
    <glyph glyph-name="utilde" unicode="&#x169;" horiz-adv-x="1187" 
d="M799 0q-8 40 -8 109q-39 -67 -116 -101.5t-163 -34.5q-177 0 -280 113.5t-103 284.5v637h272v-582q0 -90 47 -146.5t138 -56.5q89 0 139.5 54.5t50.5 144.5v586h273v-826q0 -94 10 -182h-260zM950 1425v-36q0 -123 -60 -187.5t-159 -64.5q-80 0 -145 45l-13 8
q-4 2 -18.5 12t-22 13.5t-23 7.5t-32.5 4q-68 0 -71 -88h-168v43q0 120 62.5 184t160.5 64q61 0 147 -46l13 -8q68 -39 98 -39q67 0 67 88h164z" />
    <glyph glyph-name="Umacron" unicode="&#x16a;" horiz-adv-x="1431" 
d="M715 -33q-117 0 -217.5 36t-176.5 103.5t-119.5 172.5t-43.5 235v938h282v-917q0 -140 73.5 -215.5t201.5 -75.5q131 0 203.5 75t72.5 216v917h283v-938q0 -173 -75.5 -298.5t-200.5 -187t-283 -61.5zM1028 1585h-625v205h625v-205z" />
    <glyph glyph-name="umacron" unicode="&#x16b;" horiz-adv-x="1187" 
d="M799 0q-8 40 -8 109q-39 -67 -116 -101.5t-163 -34.5q-177 0 -280 113.5t-103 284.5v637h272v-582q0 -90 47 -146.5t138 -56.5q89 0 139.5 54.5t50.5 144.5v586h273v-826q0 -94 10 -182h-260zM877 1182h-576v198h576v-198z" />
    <glyph glyph-name="Ubreve" unicode="&#x16c;" horiz-adv-x="1431" 
d="M715 -33q-117 0 -217.5 36t-176.5 103.5t-119.5 172.5t-43.5 235v938h282v-917q0 -140 73.5 -215.5t201.5 -75.5q131 0 203.5 75t72.5 216v917h283v-938q0 -173 -75.5 -298.5t-200.5 -187t-283 -61.5zM717 1542q-80 0 -145 24.5t-104.5 64.5t-61 88.5t-23.5 99.5h209
q2 -45 33.5 -75t91.5 -30t91.5 30t33.5 75h209q-2 -51 -23.5 -99.5t-61 -88.5t-104.5 -64.5t-145 -24.5z" />
    <glyph glyph-name="ubreve" unicode="&#x16d;" horiz-adv-x="1187" 
d="M799 0q-8 40 -8 109q-39 -67 -116 -101.5t-163 -34.5q-177 0 -280 113.5t-103 284.5v637h272v-582q0 -90 47 -146.5t138 -56.5q89 0 139.5 54.5t50.5 144.5v586h273v-826q0 -94 10 -182h-260zM586 1124q-153 0 -240 90.5t-90 219.5h182q3 -48 40.5 -84.5t107.5 -36.5
t107 36.5t40 84.5h182q-3 -129 -89 -219.5t-240 -90.5z" />
    <glyph glyph-name="Uring" unicode="&#x16e;" horiz-adv-x="1431" 
d="M715 -33q-117 0 -217.5 36t-176.5 103.5t-119.5 172.5t-43.5 235v938h282v-917q0 -140 73.5 -215.5t201.5 -75.5q131 0 203.5 75t72.5 216v917h283v-938q0 -173 -75.5 -298.5t-200.5 -187t-283 -61.5zM985 1755q0 -112 -79 -186t-189 -74q-109 0 -188.5 74.5t-79.5 185.5
t79.5 185.5t188.5 74.5q110 0 189 -74t79 -186zM813 1755q0 43 -27.5 69.5t-68.5 26.5q-42 0 -70.5 -26.5t-28.5 -69.5t28.5 -70.5t70.5 -27.5q41 0 68.5 27.5t27.5 70.5z" />
    <glyph glyph-name="uring" unicode="&#x16f;" horiz-adv-x="1187" 
d="M827 1327q0 -96 -69.5 -160.5t-165.5 -64.5t-166 64.5t-70 160.5q0 98 70 163.5t166 65.5t165.5 -65.5t69.5 -163.5zM674 1327q0 38 -24 62t-60 24t-59 -24t-23 -62q0 -37 23.5 -60.5t58.5 -23.5q36 0 60 24t24 60zM799 0q-8 40 -8 109q-39 -67 -116 -101.5t-163 -34.5
q-177 0 -280 113.5t-103 284.5v637h272v-582q0 -90 47 -146.5t138 -56.5q89 0 139.5 54.5t50.5 144.5v586h273v-826q0 -94 10 -182h-260z" />
    <glyph glyph-name="Uhungarumlaut" unicode="&#x170;" horiz-adv-x="1431" 
d="M813 1815l-192 -261h-177l109 261h260zM1163 1815l-221 -261h-180l137 261h264zM715 -33q-117 0 -217.5 36t-176.5 103.5t-119.5 172.5t-43.5 235v938h282v-917q0 -140 73.5 -215.5t201.5 -75.5q131 0 203.5 75t72.5 216v917h283v-938q0 -173 -75.5 -298.5t-200.5 -187
t-283 -61.5z" />
    <glyph glyph-name="uhungarumlaut" unicode="&#x171;" horiz-adv-x="1187" 
d="M799 0q-8 40 -8 109q-39 -67 -116 -101.5t-163 -34.5q-177 0 -280 113.5t-103 284.5v637h272v-582q0 -90 47 -146.5t138 -56.5q89 0 139.5 54.5t50.5 144.5v586h273v-826q0 -94 10 -182h-260zM680 1436l-199 -308h-172l107 308h264zM1022 1436l-229 -308h-175l136 308
h268z" />
    <glyph glyph-name="Uogonek" unicode="&#x172;" horiz-adv-x="1431" 
d="M819 -457q-110 0 -181 60t-71 159q0 122 103 207q-109 6 -202 44.5t-162.5 106t-108.5 169t-39 225.5v938h282v-917q0 -140 73.5 -215.5t201.5 -75.5q131 0 203.5 75t72.5 216v917h283v-938q0 -196 -94 -326.5t-254 -187.5q-66 -25 -114 -73.5t-48 -112.5
q0 -48 27.5 -73.5t72.5 -25.5q35 0 62 6v-161q-46 -17 -107 -17z" />
    <glyph glyph-name="uogonek" unicode="&#x173;" horiz-adv-x="1187" 
d="M952 -457q-110 0 -181 60t-71 159q0 150 148 238h-49q-8 40 -8 109q-39 -67 -116 -101.5t-163 -34.5q-177 0 -280 113.5t-103 284.5v637h272v-582q0 -90 47 -146.5t138 -56.5q89 0 139.5 54.5t50.5 144.5v586h273v-826q0 -94 10 -182q-68 -32 -115 -82t-47 -111
q0 -44 28.5 -68t71.5 -24q32 0 62 6v-161q-46 -17 -107 -17z" />
    <glyph glyph-name="Wcircumflex" unicode="&#x174;" horiz-adv-x="2131" 
d="M928 1554h-248l246 261h278l250 -261h-256l-137 134zM1542 449l262 1003h289l-401 -1452h-291l-332 1034l-332 -1034h-295l-403 1452h299l266 -999l322 999h293z" />
    <glyph glyph-name="wcircumflex" unicode="&#x175;" horiz-adv-x="1722" 
d="M719 1130h-213l225 302h270l226 -302h-219l-146 154zM727 1008h287l217 -650l186 650h271l-316 -1008h-272l-236 688l-231 -688h-277l-321 1008h287l186 -648z" />
    <glyph glyph-name="Ycircumflex" unicode="&#x176;" horiz-adv-x="1349" 
d="M532 610l-505 842h331l326 -575l326 575h317l-512 -842v-610h-283v610zM537 1554h-248l246 261h278l250 -261h-256l-137 134z" />
    <glyph glyph-name="ycircumflex" unicode="&#x177;" horiz-adv-x="1153" 
d="M504 -397h-289l238 524l-428 881h305l268 -590l248 590h291zM436 1130h-213l226 302h270l225 -302h-219l-145 154z" />
    <glyph glyph-name="Ydieresis" unicode="&#x178;" horiz-adv-x="1349" 
d="M291 1686q0 62 42 104.5t105 42.5t106.5 -42.5t43.5 -104.5q0 -63 -43.5 -105.5t-106.5 -42.5t-105 42.5t-42 105.5zM776 1686q0 62 42.5 104.5t105.5 42.5q62 0 104.5 -42.5t42.5 -104.5q0 -63 -42.5 -105.5t-104.5 -42.5q-63 0 -105.5 42.5t-42.5 105.5zM532 610
l-505 842h331l326 -575l326 575h317l-512 -842v-610h-283v610z" />
    <glyph glyph-name="Zacute" unicode="&#x179;" horiz-adv-x="1316" 
d="M1018 1815l-297 -261h-250l211 261h336zM1227 0h-1143v274l756 910h-729v268h1106v-264l-768 -918h778v-270z" />
    <glyph glyph-name="zacute" unicode="&#x17a;" horiz-adv-x="1015" 
d="M840 1436l-279 -308h-219l186 308h312zM924 0h-834v240l477 532h-465v236h813v-228l-491 -542h500v-238z" />
    <glyph glyph-name="Zdotaccent" unicode="&#x17b;" horiz-adv-x="1316" 
d="M1227 0h-1143v274l756 910h-729v268h1106v-264l-768 -918h778v-270zM506 1706q0 69 48 116.5t116 47.5q69 0 117.5 -47.5t48.5 -116.5q0 -67 -48.5 -114.5t-117.5 -47.5q-68 0 -116 47.5t-48 114.5z" />
    <glyph glyph-name="zdotaccent" unicode="&#x17c;" horiz-adv-x="1015" 
d="M924 0h-834v240l477 532h-465v236h813v-228l-491 -542h500v-238zM346 1284q0 68 48 115t116 47t116 -47t48 -115q0 -67 -48 -113.5t-116 -46.5t-116 46.5t-48 113.5z" />
    <glyph glyph-name="Zcaron" unicode="&#x17d;" horiz-adv-x="1316" 
d="M285 1815h254l135 -132l137 132h248l-250 -261h-279zM1227 0h-1143v274l756 910h-729v268h1106v-264l-768 -918h778v-270z" />
    <glyph glyph-name="zcaron" unicode="&#x17e;" horiz-adv-x="1015" 
d="M154 1434h219l143 -154l143 154h215l-223 -304h-272zM924 0h-834v240l477 532h-465v236h813v-228l-491 -542h500v-238z" />
    <glyph glyph-name="uni018F" unicode="&#x18f;" horiz-adv-x="1609" 
d="M788 1485q155 0 289 -51t233.5 -146.5t156.5 -242t57 -328.5q0 -170 -58.5 -312.5t-158 -237.5t-232.5 -147.5t-282 -52.5q-114 0 -219.5 30.5t-197.5 93.5t-160.5 152t-108 213.5t-39.5 270.5q0 24 2 51h1163q-4 110 -44 196.5t-103.5 138t-141 78t-162.5 26.5
q-88 0 -165.5 -27.5t-131 -72.5t-89 -96.5t-50.5 -105.5l-262 95q26 91 86 175t147.5 151.5t210 108t260.5 40.5zM1204 545h-813q29 -148 138 -232t268 -84q157 0 268.5 83t138.5 233z" />
    <glyph glyph-name="florin" unicode="&#x192;" horiz-adv-x="9787" 
d="M4047 782q227 -55 326.5 -148t99.5 -249q0 -183 -130 -293t-347 -110q-312 0 -549 211q-6 6 -6 10q0 8 4 12l137 164q6 6 10 6q8 0 12 -4q99 -87 194 -126.5t204 -39.5q98 0 155.5 40.5t57.5 109.5q0 44 -20 72.5t-81.5 56t-179.5 55.5q-89 21 -153.5 43.5t-121.5 55
t-92 74t-55 98.5t-20 130q0 173 128.5 283t330.5 110q278 0 479 -165q6 -6 6 -13q0 -2 -4 -10l-121 -172q-4 -8 -14 -8q-7 0 -11 4q-174 131 -340 131q-88 0 -141 -38t-53 -101q0 -47 21.5 -75.5t85 -55.5t188.5 -58zM5130 1028q89 0 172 -34.5t149.5 -98t107 -165.5
t40.5 -226t-40 -225.5t-107 -165t-150 -97.5t-172 -34q-190 0 -313 141v-399q0 -8 -5.5 -13.5t-13.5 -5.5h-221q-7 0 -12.5 5.5t-5.5 13.5v1267q0 17 18 17h221q8 0 13.5 -5t5.5 -12v-114q127 151 313 151zM5341 504q0 129 -74 213t-188 84q-115 0 -191.5 -84.5
t-76.5 -212.5t76.5 -212.5t191.5 -84.5q116 0 189 82.5t73 214.5zM6207 1028q147 0 270 -69.5t194 -190t71 -264.5q0 -145 -71.5 -265.5t-195.5 -189.5t-272 -69q-147 0 -269.5 68.5t-192.5 188t-70 263.5q0 145 70.5 266.5t194 191.5t271.5 70zM6207 205q120 0 198.5 83.5
t78.5 211.5q0 129 -80.5 214t-200.5 85q-122 0 -200 -83t-78 -212q0 -128 80.5 -213.5t201.5 -85.5zM7137 1008h246q16 0 16 -17v-192q0 -6 -4.5 -11.5t-11.5 -5.5h-246v-460q0 -55 25.5 -81t79.5 -26q60 0 110 25q25 10 27 10q16 0 16 -19v-178q0 -12 -12 -18
q-87 -51 -205 -51q-297 0 -297 303v495h-108q-5 0 -10 5.5t-5 11.5v192q0 7 5 12t10 5h108v252q0 6 5.5 10t11.5 4h223q6 0 11 -4t5 -10v-252zM8483 1145q-2 0 -7 1.5l-15 4.5t-21 6q-52 12 -88 12q-59 0 -86 -32t-27 -101v-28h381q12 0 16 -9l261 -684l237 682q4 11 14 11
h234q5 0 10.5 -5t5.5 -12q0 -6 -4 -14l-385 -993q-60 -156 -136 -220.5t-200 -64.5q-119 0 -237 59q-8 4 -8 13q0 6 2 10l73 168q3 10 15 10q1 0 4 -1t4 -1q73 -37 123 -37q40 0 67.5 20t53.5 78l-318 764h-209v-764q0 -8 -5.5 -13t-12.5 -5h-221q-8 0 -13.5 5.5t-5.5 12.5
v764h-106q-6 0 -10.5 5.5t-4.5 11.5v194q0 6 4.5 10.5t10.5 4.5h106v49q0 163 81.5 248.5t236.5 85.5q104 0 184 -25q12 -4 12 -16v-189q0 -5 -4.5 -10.5t-11.5 -5.5zM7518 1008h225q15 0 15 -17v-973q0 -7 -4.5 -12.5t-10.5 -5.5h-225q-5 0 -9.5 5.5t-4.5 12.5v973
q0 7 4.5 12t9.5 5zM7631 1450q66 0 114 -46t48 -112q0 -67 -48 -114.5t-114 -47.5t-112 47t-46 115q0 66 46 112t112 46zM9587 692q-65 0 -110.5 46.5t-45.5 111.5t45.5 111.5t110.5 46.5q66 0 111.5 -45.5t45.5 -110.5q0 -66 -45.5 -113t-111.5 -47zM9587 991
q-60 0 -100 -41t-40 -100q0 -60 40 -101.5t100 -41.5q61 0 102 42t41 103q0 58 -41 98.5t-102 40.5zM9624 834l45 -62h-39l-41 55h-33v-55h-31v166h72q30 0 47.5 -14.5t17.5 -40.5q0 -34 -38 -49zM9597 909h-41v-53h41q14 0 23.5 7.5t9.5 17.5q0 13 -9.5 20.5t-23.5 7.5z
M2146 -12q36 0 63 27t27 65q0 51 -43 76q-367 227 -862 227q-249 0 -538 -66q-31 -8 -50.5 -31.5t-19.5 -54.5q0 -37 24.5 -63.5t63.5 -26.5q8 0 24 3t35 8t25 6q226 47 440 47q430 0 764 -203q25 -14 47 -14zM2304 371q45 0 79 33.5t34 80.5q0 66 -54 97
q-216 132 -488.5 202t-555.5 70q-307 0 -578 -82q-36 -10 -57.5 -40.5t-21.5 -67.5q0 -46 29 -78.5t77 -32.5q21 0 33 2.5t36.5 10t53.5 14.5q199 49 424 49q254 0 498 -62.5t432 -179.5q29 -16 59 -16zM2417 836q32 -19 67 -19q57 0 97 39t40 96q0 34 -17.5 65.5
t-49.5 49.5q-246 144 -558.5 214.5t-656.5 70.5q-377 0 -677 -90q-44 -13 -70.5 -49.5t-26.5 -79.5q0 -54 38 -96t95 -42q21 0 39 6q267 80 615 80q295 0 576.5 -61t488.5 -184zM119 670q0 197 52 384.5t145.5 346t227 292t292 226.5t346 145t383.5 52t383.5 -52t345.5 -145
t291.5 -226.5t226.5 -292t145 -346t52 -384.5t-52 -384t-145 -345.5t-226.5 -292t-291.5 -226t-345.5 -144.5t-383.5 -52t-383.5 52t-346 144.5t-292 226t-227 292t-145.5 345.5t-52 384z" />
    <glyph glyph-name="uni01B5" unicode="&#x1b5;" horiz-adv-x="1335" 
d="M1237 0h-1143v274l297 359h-244v231h437l266 320h-729v268h1106v-264l-273 -324h236v-231h-428l-303 -363h778v-270z" />
    <glyph glyph-name="uni01B6" unicode="&#x1b6;" horiz-adv-x="1028" 
d="M930 0h-834v203l180 209h-163v194h331l148 172h-483v230h813v-209l-166 -193h159v-194h-327l-156 -181h498v-231z" />
    <glyph glyph-name="Aringacute" unicode="&#x1fa;" horiz-adv-x="1476" 
d="M733 1139l-201 -549h402zM1151 2128l-297 -260h-250l211 260h336zM829 1550q0 43 -27.5 70t-68.5 27q-42 0 -70 -27t-28 -70q0 -44 28 -71t70 -27q41 0 68.5 27.5t27.5 70.5zM1001 1550q0 -104 -69 -176l524 -1374h-307l-121 332h-590l-121 -332h-299l525 1366
q-78 78 -78 184q0 111 79.5 185.5t188.5 74.5q110 0 189 -74t79 -186z" />
    <glyph glyph-name="aringacute" unicode="&#x1fb;" horiz-adv-x="1101" 
d="M80 274q0 129 83.5 207.5t217.5 98.5l248 36q76 11 76 72q0 57 -43.5 94t-126.5 37q-85 0 -136 -47t-57 -117l-242 52q6 61 37 118.5t83 106t133.5 77.5t178.5 29q116 0 202.5 -31t137 -85t75 -121t24.5 -146v-495q0 -90 12 -160h-250q-10 45 -10 121q-42 -66 -117 -108
t-180 -42q-155 0 -250.5 89.5t-95.5 213.5zM483 174q97 0 159.5 55t62.5 179v45l-228 -35q-56 -8 -90.5 -39.5t-34.5 -87.5q0 -48 34.5 -82.5t96.5 -34.5zM920 1915l-279 -307h-219l186 307h312zM776 1319q0 -96 -69.5 -160.5t-165.5 -64.5t-166 64.5t-70 160.5
q0 98 70 163.5t166 65.5t165.5 -65.5t69.5 -163.5zM623 1319q0 38 -24 62t-60 24t-59 -24t-23 -62q0 -37 23.5 -60.5t58.5 -23.5q36 0 60 24t24 60z" />
    <glyph glyph-name="AEacute" unicode="&#x1fc;" horiz-adv-x="2127" 
d="M1546 1815l-297 -261h-250l211 261h336zM2023 0h-911v342h-561l-219 -342h-346l962 1452h1073v-266h-624v-332h565v-252h-565v-336h626v-266zM702 580h410v639z" />
    <glyph glyph-name="aeacute" unicode="&#x1fd;" horiz-adv-x="1781" 
d="M1251 1436l-278 -308h-219l186 308h311zM1458 360l230 -71q-40 -137 -163.5 -228.5t-299.5 -91.5q-118 0 -219.5 47t-171.5 134q-135 -181 -383 -181q-172 0 -272.5 89.5t-100.5 215.5q0 129 83.5 207.5t217.5 98.5l258 36q76 10 76 72q0 57 -45.5 95t-130.5 38
q-87 0 -141 -48t-60 -116l-238 50q5 62 38 120.5t88 105.5t137.5 76t177.5 29q234 0 342 -131q140 131 331 131q230 0 360 -139t130 -383q0 -72 -6 -84h-723q4 -102 77.5 -166.5t176.5 -64.5q177 0 231 159zM489 174q42 0 80 12t71.5 37.5t53 72.5t19.5 110v47l-238 -35
q-58 -8 -93.5 -39.5t-35.5 -87.5q0 -46 38.5 -81.5t104.5 -35.5zM979 618h455q-3 83 -60.5 141t-169.5 58q-100 0 -160 -61t-65 -138z" />
    <glyph glyph-name="Oslashacute" unicode="&#x1fe;" horiz-adv-x="1660" 
d="M1241 1815l-297 -261h-250l211 261h336zM84 725q0 171 61 315.5t164 240t237.5 149t282.5 53.5q200 0 371 -94l143 184l181 -135l-144 -187q197 -210 197 -526q0 -170 -61.5 -314t-164.5 -239.5t-238.5 -149t-283.5 -53.5q-197 0 -370 92l-140 -180l-184 133l146 187
q-197 210 -197 524zM377 727q0 -176 82 -295l569 735q-90 43 -199 43q-86 0 -165 -30t-144 -87.5t-104 -152.5t-39 -213zM1284 727q0 176 -82 295l-569 -735q90 -43 196 -43q69 0 134 18.5t123.5 57.5t102 95t69.5 136.5t26 175.5z" />
    <glyph glyph-name="oslashacute" unicode="&#x1ff;" horiz-adv-x="1212" 
d="M979 1436l-279 -308h-219l187 308h311zM606 1038q151 0 271 -69l108 133l131 -111l-106 -133q125 -147 125 -354q0 -152 -69 -274.5t-190 -191.5t-270 -69q-137 0 -262 64l-102 -127l-136 110l103 125q-131 150 -131 363q0 232 150.5 383t377.5 151zM350 504
q0 -84 31 -148l334 412q-57 23 -109 23q-107 0 -181.5 -75.5t-74.5 -211.5zM606 217q107 0 181.5 75.5t74.5 211.5q0 76 -26 139l-328 -407q49 -19 98 -19z" />
    <glyph glyph-name="Scommaaccent" unicode="&#x218;" horiz-adv-x="1249" 
d="M1147 1106l-254 -78q-6 34 -22 66.5t-45.5 65.5t-80.5 53t-116 20q-100 0 -164 -54.5t-64 -129.5q0 -62 40.5 -105.5t117.5 -58.5l203 -39q193 -37 299 -153.5t106 -274.5q0 -85 -35 -164.5t-99.5 -143.5t-166 -102.5t-223.5 -38.5q-111 0 -205 27.5t-158 72.5
t-111 105.5t-71.5 122.5t-31.5 127l262 70q10 -116 91 -194.5t226 -78.5q111 0 173.5 49.5t62.5 128.5q0 64 -46 109.5t-130 62.5l-203 41q-176 36 -278.5 145t-102.5 271q0 126 69 231t185 164.5t252 59.5q125 0 223.5 -35t157.5 -93t92 -119.5t47 -129.5zM494 -209
q0 56 42.5 93.5t106.5 37.5q70 0 118 -50t48 -128q0 -61 -18.5 -108t-48 -75t-69 -46t-76.5 -24.5t-77 -6.5v98q71 0 115.5 27.5t50.5 68.5q-28 -14 -59 -14q-62 0 -97.5 35t-35.5 92z" />
    <glyph glyph-name="scommaaccent" unicode="&#x219;" horiz-adv-x="964" 
d="M72 281l233 51q5 -65 52.5 -109.5t131.5 -44.5q64 0 99 29t35 72q0 76 -109 98l-133 31q-141 31 -212 111t-71 190q0 137 108 233t269 96q82 0 149.5 -20t110.5 -50.5t73 -70.5t44 -76.5t18 -72.5l-227 -52q-7 54 -47.5 94.5t-118.5 40.5q-54 0 -91.5 -28.5t-37.5 -71.5
q0 -36 25 -59t67 -31l144 -31q145 -30 222 -112.5t77 -196.5q0 -63 -24.5 -121.5t-71.5 -106t-123.5 -76t-171.5 -28.5q-87 0 -158.5 21.5t-117 55t-78 76.5t-47.5 82.5t-19 76.5zM334 -215q0 56 42.5 93.5t106.5 37.5q70 0 118 -50t48 -128q0 -61 -18.5 -108t-48 -75
t-69 -46t-76.5 -24.5t-77 -6.5v98q71 0 115.5 27.5t50.5 68.5q-28 -14 -59 -14q-62 0 -97.5 35t-35.5 92z" />
    <glyph glyph-name="uni021A" unicode="&#x21a;" horiz-adv-x="1267" 
d="M1235 1184h-459v-1184h-284v1184h-459v268h1202v-268zM477 -209q0 56 43 93.5t107 37.5q70 0 118 -50t48 -128q0 -61 -18.5 -108t-48 -75t-69 -46t-76.5 -24.5t-77 -6.5v98q71 0 115.5 27.5t50.5 68.5q-28 -14 -60 -14q-62 0 -97.5 35t-35.5 92z" />
    <glyph glyph-name="uni021B" unicode="&#x21b;" horiz-adv-x="776" 
d="M367 -221l-74 92l92 145q-77 36 -119.5 108.5t-42.5 172.5v469h-182v242h51q76 0 116 44t40 115v142h246v-301h202v-242h-202v-422q0 -64 28.5 -90.5t89.5 -26.5q52 0 84 9v-226q-60 -24 -153 -24h-8l-54 -84q88 -2 143.5 -51t55.5 -125q0 -80 -65 -137.5t-197 -57.5
q-79 0 -144.5 32.5t-99.5 74.5l88 110q76 -76 154 -76q38 0 61 15.5t23 42.5q0 24 -21 40.5t-57 16.5q-34 0 -55 -8z" />
    <glyph glyph-name="dotlessj" unicode="&#x237;" horiz-adv-x="550" 
d="M139 -61v1069h273v-1096q0 -148 -85.5 -240t-230.5 -92q-84 0 -153 23v227q40 -10 84 -10q112 0 112 119z" />
    <glyph glyph-name="uni0259" unicode="&#x259;" horiz-adv-x="1157" 
d="M809 387h-465q3 -84 64 -142.5t172 -58.5q100 0 161 61t68 140zM313 645l-223 80q46 131 173 222t306 91q229 0 368.5 -147t139.5 -391q0 -118 -39.5 -218.5t-107 -169t-158 -107t-190.5 -38.5q-228 0 -367 142t-139 378q0 62 6 80h733q-6 108 -74 175t-176 67
q-92 0 -158 -46t-94 -118z" />
    <glyph glyph-name="circumflex" unicode="&#x2c6;" horiz-adv-x="827" 
d="M266 1130h-213l226 302h270l225 -302h-219l-145 154z" />
    <glyph glyph-name="caron" unicode="&#x2c7;" horiz-adv-x="827" 
d="M53 1434h219l144 -154l143 154h215l-223 -304h-272z" />
    <glyph glyph-name="uni02C9" unicode="&#x2c9;" horiz-adv-x="686" 
d="M631 1182h-576v198h576v-198z" />
    <glyph glyph-name="breve" unicode="&#x2d8;" horiz-adv-x="765" 
d="M383 1124q-153 0 -240 90.5t-90 219.5h183q3 -48 40 -84.5t107 -36.5t107 36.5t40 84.5h183q-3 -129 -89.5 -219.5t-240.5 -90.5z" />
    <glyph glyph-name="dotaccent" unicode="&#x2d9;" horiz-adv-x="393" 
d="M33 1284q0 68 48 115t116 47t115.5 -46.5t47.5 -115.5q0 -67 -47.5 -113.5t-115.5 -46.5t-116 46.5t-48 113.5z" />
    <glyph glyph-name="ring" unicode="&#x2da;" horiz-adv-x="577" 
d="M524 1327q0 -96 -69.5 -160.5t-165.5 -64.5t-166 64.5t-70 160.5q0 98 70 163.5t166 65.5t165.5 -65.5t69.5 -163.5zM371 1327q0 38 -24 62t-60 24t-59 -24t-23 -62q0 -37 23.5 -60.5t58.5 -23.5q36 0 60 24t24 60z" />
    <glyph glyph-name="ogonek" unicode="&#x2db;" horiz-adv-x="458" 
d="M299 -457q-110 0 -181 60t-71 159q0 177 211 271l148 -33q-68 -32 -115 -82t-47 -111q0 -45 28.5 -68.5t75.5 -23.5q34 0 58 6v-161q-46 -17 -107 -17z" />
    <glyph glyph-name="tilde" unicode="&#x2dc;" horiz-adv-x="800" 
d="M756 1425v-36q0 -123 -60 -187.5t-159 -64.5q-81 0 -146 45l-12 8q-4 2 -18.5 12t-22 13.5t-23 7.5t-32.5 4q-69 0 -72 -88h-168v43q0 120 62.5 184t160.5 64q62 0 148 -46l12 -8q68 -39 98 -39q68 0 68 88h164z" />
    <glyph glyph-name="hungarumlaut" unicode="&#x2dd;" horiz-adv-x="811" 
d="M420 1436l-199 -308h-172l107 308h264zM762 1436l-230 -308h-174l136 308h268z" />
    <glyph glyph-name="uni0394" unicode="&#x394;" horiz-adv-x="1454" 
d="M20 0l553 1452h308l555 -1452h-1416zM727 1145l-315 -883h632z" />
    <glyph glyph-name="uni03A9" unicode="&#x3a9;" horiz-adv-x="1622" 
d="M811 1217q-80 0 -154 -27.5t-133 -78t-94 -130.5t-35 -176q0 -164 100 -276t240 -142v-387h-618v258h366q-163 65 -272 214t-109 351q0 148 58 273.5t156 209.5t226 130.5t269 46.5t269 -46.5t226 -130.5t156 -209.5t58 -273.5q0 -202 -110 -351t-273 -214h366v-258h-618
v387q67 14 127.5 49t109 87t77 125t28.5 157q0 96 -35 176t-94 130.5t-133 78t-154 27.5z" />
    <glyph glyph-name="uni03BC" unicode="&#x3bc;" horiz-adv-x="1198" 
d="M809 0q-8 40 -8 109q-39 -67 -116 -101.5t-163 -34.5q-60 0 -110 15v-377h-273v1397h273v-582q0 -90 46.5 -146.5t137.5 -56.5q89 0 139.5 54.5t50.5 144.5v586h273v-826q0 -84 10 -182h-260z" />
    <glyph glyph-name="pi" unicode="&#x3c0;" horiz-adv-x="1308" 
d="M1212 10q-52 -26 -143 -26q-143 0 -217 79t-74 213v498h-272v-774h-273v774h-170v234h1145v-234h-159v-461q0 -51 28 -73.5t72 -22.5q3 0 63 6v-213z" />
    <glyph glyph-name="Wgrave" unicode="&#x1e80;" horiz-adv-x="2131" 
d="M961 1554l-297 261h333l213 -261h-249zM1542 449l262 1003h289l-401 -1452h-291l-332 1034l-332 -1034h-295l-403 1452h299l266 -999l322 999h293z" />
    <glyph glyph-name="wgrave" unicode="&#x1e81;" horiz-adv-x="1722" 
d="M727 1008h287l217 -650l186 650h271l-316 -1008h-272l-236 688l-231 -688h-277l-321 1008h287l186 -648zM760 1128l-279 308h316l184 -308h-221z" />
    <glyph glyph-name="Wacute" unicode="&#x1e82;" horiz-adv-x="2131" 
d="M1487 1815l-297 -261h-250l211 261h336zM1542 449l262 1003h289l-401 -1452h-291l-332 1034l-332 -1034h-295l-403 1452h299l266 -999l322 999h293z" />
    <glyph glyph-name="wacute" unicode="&#x1e83;" horiz-adv-x="1722" 
d="M1245 1436l-278 -308h-219l186 308h311zM727 1008h287l217 -650l186 650h271l-316 -1008h-272l-236 688l-231 -688h-277l-321 1008h287l186 -648z" />
    <glyph glyph-name="Wdieresis" unicode="&#x1e84;" horiz-adv-x="2131" 
d="M633 1686q0 62 42 104.5t105 42.5t106.5 -42.5t43.5 -104.5q0 -63 -43.5 -105.5t-106.5 -42.5t-105 42.5t-42 105.5zM1212 1686q0 62 42.5 104.5t103.5 42.5q63 0 106 -42.5t43 -104.5q0 -63 -43 -105.5t-106 -42.5q-62 0 -104 42.5t-42 105.5zM1542 449l262 1003h289
l-401 -1452h-291l-332 1034l-332 -1034h-295l-403 1452h299l266 -999l322 999h293z" />
    <glyph glyph-name="wdieresis" unicode="&#x1e85;" horiz-adv-x="1722" 
d="M489 1286q0 61 41.5 103.5t102.5 42.5q60 0 102.5 -43t42.5 -103t-42.5 -101.5t-102.5 -41.5q-61 0 -102.5 41.5t-41.5 101.5zM952 1286q0 61 41.5 103.5t102.5 42.5q60 0 101.5 -43t41.5 -103t-41.5 -101.5t-101.5 -41.5q-61 0 -102.5 41.5t-41.5 101.5zM727 1008h287
l217 -650l186 650h271l-316 -1008h-272l-236 688l-231 -688h-277l-321 1008h287l186 -648z" />
    <glyph glyph-name="uni1E8A" unicode="&#x1e8a;" horiz-adv-x="1331" 
d="M1315 1452l-475 -727l477 -725h-342l-313 502l-316 -502h-332l478 727l-476 725h340l312 -502l317 502h330zM502 1706q0 69 48 116.5t116 47.5q69 0 117 -47.5t48 -116.5q0 -68 -48 -115t-117 -47q-68 0 -116 47.5t-48 114.5z" />
    <glyph glyph-name="uni1E8B" unicode="&#x1e8b;" horiz-adv-x="1095" 
d="M29 0l358 506l-358 502h323q17 -28 100.5 -150t100.5 -149l199 299h309l-352 -494l364 -514h-319l-211 309q-192 -285 -207 -309h-307zM385 1284q0 68 48 115t116 47t116 -47t48 -115q0 -67 -48 -113.5t-116 -46.5t-116 46.5t-48 113.5z" />
    <glyph glyph-name="Ygrave" unicode="&#x1ef2;" horiz-adv-x="1349" 
d="M532 610l-505 842h331l326 -575l326 575h317l-512 -842v-610h-283v610zM588 1554l-297 261h334l213 -261h-250z" />
    <glyph glyph-name="ygrave" unicode="&#x1ef3;" horiz-adv-x="1153" 
d="M504 -397h-289l238 524l-428 881h305l268 -590l248 590h291zM502 1128l-279 308h316l184 -308h-221z" />
    <glyph glyph-name="uni2007" unicode="&#x2007;" horiz-adv-x="1292" 
 />
    <glyph glyph-name="uni2008" unicode="&#x2008;" horiz-adv-x="563" 
 />
    <glyph glyph-name="uni200B" unicode="&#x200b;" horiz-adv-x="0" 
 />
    <glyph glyph-name="endash" unicode="&#x2013;" horiz-adv-x="1314" 
d="M1186 489h-1057v236h1057v-236z" />
    <glyph glyph-name="emdash" unicode="&#x2014;" horiz-adv-x="2183" 
d="M2054 489h-1925v236h1925v-236z" />
    <glyph glyph-name="quoteleft" unicode="&#x2018;" horiz-adv-x="520" 
d="M424 1040q0 -62 -45 -105.5t-115 -43.5q-80 0 -129 56t-49 140q0 79 21 143.5t53.5 105.5t75.5 70t84 42.5t83 17.5v-125q-63 -10 -113.5 -56.5t-53.5 -113.5q18 11 43 11q68 0 106.5 -38.5t38.5 -103.5z" />
    <glyph glyph-name="quoteright" unicode="&#x2019;" horiz-adv-x="524" 
d="M104 1317q0 61 46.5 105t117.5 44q80 0 129 -57t49 -141q0 -79 -21 -144t-53.5 -107.5t-75.5 -72.5t-84.5 -44.5t-82.5 -18.5v125q63 10 114 58.5t54 115.5q-18 -11 -43 -11q-68 0 -109 41.5t-41 106.5z" />
    <glyph glyph-name="quotesinglbase" unicode="&#x201a;" horiz-adv-x="542" 
d="M100 141q0 61 46.5 104.5t117.5 43.5q80 0 129 -57t49 -142q0 -79 -21 -144t-53.5 -107.5t-75.5 -72.5t-84.5 -44.5t-82.5 -18.5v127q63 8 114 56.5t54 115.5q-17 -10 -43 -10q-68 0 -109 41t-41 108z" />
    <glyph glyph-name="quotedblleft" unicode="&#x201c;" horiz-adv-x="923" 
d="M424 1040q0 -62 -45 -105.5t-115 -43.5q-80 0 -129 56t-49 140q0 79 21 143.5t53.5 105.5t75.5 70t84 42.5t83 17.5v-125q-63 -10 -113.5 -56.5t-53.5 -113.5q18 11 43 11q68 0 106.5 -38.5t38.5 -103.5zM827 1040q0 -62 -44.5 -105.5t-114.5 -43.5q-80 0 -129.5 56
t-49.5 140q0 79 21 143.5t53.5 105.5t76 70t84.5 42.5t83 17.5v-125q-63 -10 -114 -56.5t-54 -113.5q18 11 43 11q68 0 106.5 -38.5t38.5 -103.5z" />
    <glyph glyph-name="quotedblright" unicode="&#x201d;" horiz-adv-x="925" 
d="M104 1317q0 61 46.5 105t117.5 44q80 0 129 -57t49 -141q0 -79 -21 -144t-53.5 -107.5t-75.5 -72.5t-84.5 -44.5t-82.5 -18.5v125q63 10 114 58.5t54 115.5q-18 -11 -43 -11q-68 0 -109 41.5t-41 106.5zM506 1317q0 61 46.5 105t117.5 44q80 0 129 -57t49 -141
q0 -97 -31 -173t-80.5 -119.5t-101.5 -66.5t-105 -28v125q63 10 114 58.5t54 115.5q-18 -11 -43 -11q-68 0 -108.5 41.5t-40.5 106.5z" />
    <glyph glyph-name="quotedblbase" unicode="&#x201e;" horiz-adv-x="940" 
d="M100 143q0 61 46.5 104.5t117.5 43.5q80 0 129 -57t49 -142q0 -79 -21 -144t-53.5 -107.5t-75.5 -72.5t-84.5 -44.5t-82.5 -18.5v127q63 8 114 56.5t54 115.5q-17 -10 -45 -10q-68 0 -108 41t-40 108zM498 143q0 61 46.5 104.5t117.5 43.5q80 0 129 -57t49 -142
q0 -97 -31 -173t-80.5 -119.5t-101.5 -66.5t-105 -28v127q63 8 114 56.5t54 115.5q-17 -10 -45 -10q-68 0 -107.5 41t-39.5 108z" />
    <glyph glyph-name="dagger" unicode="&#x2020;" horiz-adv-x="870" 
d="M549 334h-227v614h-252v213h252v291h227v-291h252v-213h-252v-614z" />
    <glyph glyph-name="daggerdbl" unicode="&#x2021;" horiz-adv-x="3010" 
d="M2087 -12q36 0 63 27t27 65q0 51 -43 76q-367 227 -862 227q-250 0 -539 -66q-31 -7 -50 -31t-19 -55q0 -37 24.5 -63.5t63.5 -26.5q8 0 24 3t35 8t25 6q226 47 440 47q430 0 764 -203q24 -14 47 -14zM2245 371q45 0 78.5 33.5t33.5 80.5q0 67 -53 97
q-216 132 -488.5 202t-555.5 70q-307 0 -578 -82q-36 -10 -58 -40.5t-22 -67.5q0 -46 29.5 -78.5t77.5 -32.5q21 0 33 2.5t35.5 10t53.5 14.5q199 49 424 49q254 0 498 -62.5t432 -179.5q29 -16 60 -16zM2357 836q32 -19 68 -19q57 0 97 39t40 96q0 34 -18 65.5t-50 49.5
q-247 144 -558.5 214.5t-655.5 70.5q-378 0 -678 -90q-44 -13 -70 -49t-26 -80q0 -54 38 -96t95 -42q21 0 39 6q267 80 614 80q295 0 576.5 -61t488.5 -184zM59 670q0 197 52 384.5t145.5 346t227 292t292 226.5t346 145t383.5 52t383.5 -52t345.5 -145t291.5 -226.5
t226.5 -292t145 -346t52 -384.5t-52 -384t-145 -345.5t-226.5 -292t-291.5 -226t-345.5 -144.5t-383.5 -52t-383.5 52t-346 144.5t-292 226t-227 292t-145.5 345.5t-52 384z" />
    <glyph glyph-name="bullet" unicode="&#x2022;" horiz-adv-x="1114" 
d="M131 612q0 177 125.5 302.5t300.5 125.5q177 0 301.5 -125.5t124.5 -302.5q0 -175 -125 -301.5t-301 -126.5q-114 0 -212.5 58t-156 156.5t-57.5 213.5z" />
    <glyph glyph-name="ellipsis" unicode="&#x2026;" horiz-adv-x="1771" 
d="M1675 143q0 -68 -48.5 -115.5t-117.5 -47.5q-67 0 -115 48t-48 115q0 69 47.5 117.5t115.5 48.5q69 0 117.5 -48.5t48.5 -117.5zM1051 143q0 -68 -48.5 -115.5t-117.5 -47.5q-68 0 -117 48t-49 115q0 69 49 117.5t117 48.5q69 0 117.5 -48.5t48.5 -117.5zM426 143
q0 -68 -47.5 -115.5t-116.5 -47.5t-117.5 47.5t-48.5 115.5q0 69 48.5 117.5t117.5 48.5t116.5 -48.5t47.5 -117.5z" />
    <glyph glyph-name="perthousand" unicode="&#x2030;" horiz-adv-x="2211" 
d="M518 0h-242l934 1452h242zM403 997q59 0 96.5 40.5t37.5 103.5q0 62 -38 101.5t-96 39.5q-59 0 -98 -40t-39 -101q0 -64 39 -104t98 -40zM63 1141q0 139 100.5 236.5t239.5 97.5t239.5 -97.5t100.5 -236.5q0 -143 -100 -238.5t-242 -95.5q-140 0 -239 97t-99 237z
M985 311q0 140 100.5 237t239.5 97q144 0 242 -98q98 98 241 98q139 0 240.5 -97t101.5 -237q0 -141 -101 -237.5t-241 -96.5q-142 0 -241 99q-46 -46 -110 -72.5t-132 -26.5q-140 0 -240 97.5t-100 236.5zM1190 311q0 -64 38.5 -103.5t96.5 -39.5q59 0 97 40t38 103
t-38 102.5t-97 39.5q-58 0 -96.5 -40t-38.5 -102zM1808 453q-58 0 -96.5 -40t-38.5 -102q0 -64 38.5 -103.5t96.5 -39.5q59 0 97.5 40t38.5 103t-38.5 102.5t-97.5 39.5z" />
    <glyph glyph-name="guilsinglleft" unicode="&#x2039;" horiz-adv-x="686" 
d="M604 207h-258l-280 397l282 404h256l-278 -406z" />
    <glyph glyph-name="guilsinglright" unicode="&#x203a;" horiz-adv-x="686" 
d="M342 207h-258l276 395l-278 406h258l281 -404z" />
    <glyph glyph-name="uni2042" unicode="&#x2042;" horiz-adv-x="1695" 
d="M938 1452v-227l207 69l59 -174l-211 -67l133 -179l-149 -108l-135 180l-131 -180l-148 111l129 176l-209 67l56 174l209 -69v227h190zM514 659v-227l207 70l59 -174l-211 -68l133 -178l-149 -109l-135 181l-131 -181l-148 111l129 176l-209 68l56 174l209 -70v227h190z
M1370 659v-227l207 70l59 -174l-211 -68l134 -178l-150 -109l-135 181l-131 -181l-148 111l129 176l-209 68l56 174l209 -70v227h190z" />
    <glyph glyph-name="fraction" unicode="&#x2044;" horiz-adv-x="348" 
d="M526 1452h236l-934 -1452h-238z" />
    <glyph glyph-name="uni2051" unicode="&#x2051;" horiz-adv-x="909" 
d="M549 1452v-227l207 69l59 -174l-211 -67l133 -179l-149 -108l-135 180l-131 -180l-148 111l129 176l-209 67l56 174l208 -69v227h191zM549 666v-228l207 70l59 -174l-211 -68l133 -178l-149 -108l-135 180l-131 -180l-148 110l129 176l-209 68l56 174l208 -70v228h191z
" />
    <glyph glyph-name="uni2070" unicode="&#x2070;" horiz-adv-x="811" 
d="M279 1075q0 -44 4.5 -78t17 -68.5t39 -53.5t66.5 -19t67.5 19t40 53.5t17 68.5t4.5 78q0 35 -2.5 63t-10.5 58.5t-21.5 51.5t-37.5 34.5t-57 13.5q-40 0 -66.5 -19t-39 -53.5t-17 -69t-4.5 -79.5zM66 1075q0 171 73 268q92 125 267 125q176 0 268 -125q71 -98 71 -268
q0 -168 -71 -266q-90 -125 -268 -125q-177 0 -267 125q-73 97 -73 266z" />
    <glyph glyph-name="uni2074" unicode="&#x2074;" horiz-adv-x="792" 
d="M49 844v203l346 405h223v-446h125v-162h-125v-146h-204v146h-365zM414 1006v233l-199 -233h199z" />
    <glyph glyph-name="uni2075" unicode="&#x2075;" horiz-adv-x="727" 
d="M49 911l182 47q6 -46 41.5 -74t83.5 -28t78.5 26.5t30.5 71.5q0 52 -31 78.5t-84 26.5q-64 0 -106 -45l-170 51l94 387h455v-170h-332l-31 -129q53 47 146 47q121 0 192.5 -65.5t71.5 -178.5q0 -115 -84 -192.5t-230 -77.5q-122 0 -207.5 65t-99.5 160z" />
    <glyph glyph-name="uni2076" unicode="&#x2076;" horiz-adv-x="770" 
d="M680 1432l-37 -158q-67 24 -133 24q-86 0 -152 -42t-88 -126q63 66 174 66q117 0 192 -64t75 -180q0 -119 -91 -195.5t-231 -76.5q-139 0 -233.5 93t-94.5 253q0 201 124 319.5t313 118.5q105 0 182 -32zM279 946q0 -43 33 -71.5t77 -28.5q45 0 78 28.5t33 71.5
q0 46 -32.5 74.5t-78.5 28.5q-45 0 -77.5 -28.5t-32.5 -74.5z" />
    <glyph glyph-name="uni2077" unicode="&#x2077;" horiz-adv-x="704" 
d="M670 1452v-174q-28 -22 -54.5 -47.5t-68 -78.5t-73 -113t-59 -150.5t-36.5 -190.5h-219q8 105 37.5 203.5t66.5 164.5t73 116.5t61 73.5l24 24h-381v172h629z" />
    <glyph glyph-name="uni2078" unicode="&#x2078;" horiz-adv-x="763" 
d="M383 1151q43 0 67.5 23t24.5 57q0 29 -24.5 51.5t-67.5 22.5q-44 0 -69 -22.5t-25 -51.5q0 -34 25 -57t69 -23zM383 844q55 0 84 25.5t29 62.5q0 33 -29.5 57.5t-83.5 24.5q-55 0 -84 -24t-29 -58q0 -37 28.5 -62.5t84.5 -25.5zM383 682q-150 0 -235 61.5t-85 163.5
q0 61 41.5 109t108.5 69q-60 20 -93.5 66t-33.5 102q0 93 79.5 153t217.5 60q136 0 215.5 -60t79.5 -153q0 -56 -33.5 -102t-93.5 -66q65 -19 108 -67t43 -107q0 -103 -84 -166t-235 -63z" />
    <glyph glyph-name="uni2079" unicode="&#x2079;" horiz-adv-x="761" 
d="M94 715l35 159q74 -24 129 -24q93 0 159 40t85 130q-29 -32 -76.5 -50t-99.5 -18q-112 0 -191.5 65.5t-79.5 178.5q0 121 88.5 196.5t233.5 75.5q138 0 230.5 -93.5t92.5 -254.5q0 -206 -117 -322t-302 -116q-105 0 -187 33zM481 1202q0 43 -32.5 72t-77.5 29
q-46 0 -78.5 -28.5t-32.5 -72.5q0 -46 32 -75t79 -29q46 0 78 29t32 75z" />
    <glyph glyph-name="uni2080" unicode="&#x2080;" horiz-adv-x="811" 
d="M279 225q0 -44 4.5 -78t17 -68.5t39 -53.5t66.5 -19t67.5 19t40 53.5t17 68.5t4.5 78q0 35 -2.5 63t-10.5 58.5t-21.5 51.5t-37.5 34.5t-57 13.5q-40 0 -66.5 -19t-39 -53.5t-17 -69t-4.5 -79.5zM66 225q0 172 73 269q91 124 267 124q177 0 268 -124q71 -98 71 -269
q0 -168 -71 -266q-90 -125 -268 -125q-177 0 -267 125q-73 97 -73 266z" />
    <glyph glyph-name="uni2081" unicode="&#x2081;" horiz-adv-x="532" 
d="M440 -213h-211v457h-186v135q89 0 144 48.5t67 111.5h186v-752z" />
    <glyph glyph-name="uni2082" unicode="&#x2082;" horiz-adv-x="737" 
d="M268 246l-186 -2q-8 28 -8 59q0 110 77.5 182t217.5 72q133 0 211.5 -72t78.5 -178q0 -133 -161 -229l-144 -86q-24 -14 -24 -31h336v-174h-596v25q0 105 42.5 184t139.5 137l123 72q78 47 78 104q0 31 -23 55.5t-63 24.5q-48 0 -76.5 -28t-28.5 -78q0 -19 6 -37z" />
    <glyph glyph-name="uni2083" unicode="&#x2083;" horiz-adv-x="753" 
d="M53 8l187 43q5 -47 39 -77.5t86 -30.5q50 0 80 25.5t30 64.5q0 46 -31 69t-77 23q-38 0 -66 -12l-68 139l179 121h-330v170h582v-168l-185 -125q94 -12 150.5 -69.5t56.5 -151.5q0 -107 -88 -181.5t-233 -74.5q-131 0 -215 69t-97 166z" />
    <glyph glyph-name="uni2084" unicode="&#x2084;" horiz-adv-x="794" 
d="M49 -68v203l346 406h223v-447h125v-162h-125v-145h-204v145h-365zM414 94v234l-199 -234h199z" />
    <glyph glyph-name="uni2085" unicode="&#x2085;" horiz-adv-x="731" 
d="M51 0l182 47q6 -46 41.5 -74t83.5 -28t78.5 26.5t30.5 71.5q0 52 -31 78t-84 26q-64 0 -106 -45l-170 52l94 387h455v-170h-332l-31 -129q53 47 146 47q121 0 192.5 -65.5t71.5 -178.5q0 -115 -84 -192.5t-230 -77.5q-122 0 -207.5 65t-99.5 160z" />
    <glyph glyph-name="uni2086" unicode="&#x2086;" horiz-adv-x="772" 
d="M682 522l-37 -157q-67 24 -133 24q-86 0 -152 -42t-88 -126q63 66 174 66q117 0 192 -64t75 -180q0 -119 -91 -195.5t-231 -76.5q-139 0 -233.5 93t-94.5 253q0 201 124 319.5t313 118.5q103 0 182 -33zM281 37q0 -43 33 -71.5t77 -28.5q45 0 78 28.5t33 71.5
q0 46 -32.5 74t-78.5 28q-45 0 -77.5 -28t-32.5 -74z" />
    <glyph glyph-name="uni2087" unicode="&#x2087;" horiz-adv-x="706" 
d="M672 539v-174q-28 -22 -54.5 -47.5t-68 -78.5t-73 -113t-59 -150.5t-36.5 -190.5h-219q8 105 37.5 203.5t66.5 164.5t73 116.5t61 74.5l24 23h-381v172h629z" />
    <glyph glyph-name="uni2088" unicode="&#x2088;" horiz-adv-x="765" 
d="M383 240q43 0 67.5 22.5t24.5 56.5q0 29 -24.5 51.5t-67.5 22.5q-44 0 -69 -22.5t-25 -51.5q0 -34 25 -56.5t69 -22.5zM383 -68q55 0 84 25.5t29 62.5q0 33 -29.5 57.5t-83.5 24.5q-55 0 -84 -24t-29 -58q0 -37 28.5 -62.5t84.5 -25.5zM383 -229q-150 0 -235 61.5
t-85 163.5q0 61 41.5 109t108.5 69q-60 20 -93.5 66t-33.5 102q0 93 79.5 153t217.5 60q136 0 215.5 -60t79.5 -153q0 -56 -33.5 -102t-93.5 -66q65 -19 108 -67t43 -107q0 -103 -84 -166t-235 -63z" />
    <glyph glyph-name="uni2089" unicode="&#x2089;" horiz-adv-x="765" 
d="M96 -195l35 160q74 -24 129 -24q93 0 159 40t85 130q-29 -32 -76.5 -50t-99.5 -18q-112 0 -191.5 65.5t-79.5 178.5q0 121 88.5 196.5t233.5 75.5q138 0 230.5 -93.5t92.5 -254.5q0 -206 -117 -322t-302 -116q-108 0 -187 32zM483 293q0 43 -32.5 71.5t-77.5 28.5
q-47 0 -79 -28t-32 -72q0 -46 32 -75.5t79 -29.5q45 0 77.5 29.5t32.5 75.5z" />
    <glyph glyph-name="Euro" unicode="&#x20ac;" horiz-adv-x="1486" 
d="M1423 117q-76 -65 -190.5 -106.5t-243.5 -41.5q-256 0 -446 130t-258 364h-199v190h158q-2 33 -2 72q0 32 2 63h-158v189h197q71 234 268.5 369t449.5 135q229 0 377 -103q-11 -24 -31 -64t-43 -86.5t-32 -64.5q-101 72 -271 72q-138 0 -254 -65t-169 -193h602l-86 -189
h-566q-4 -36 -4 -63q0 -40 4 -72h506q-6 -15 -40 -89t-44 -101h-362q45 -119 157 -181.5t246 -62.5q92 0 172 28.5t135 74.5z" />
    <glyph glyph-name="uni2113" unicode="&#x2113;" horiz-adv-x="882" 
d="M793 266v-217q-70 -59 -222 -59q-159 0 -254.5 84t-95.5 233v178q-92 -33 -143 -41v236q69 17 143 49v410q0 157 87.5 249.5t221.5 92.5q140 0 222 -86.5t82 -237.5q0 -161 -100 -315.5t-269 -261.5v-193q0 -83 43.5 -122.5t114.5 -39.5q104 0 170 41zM465 1153v-283
q57 57 92 134.5t35 164.5q0 38 -17 61t-45 23t-46.5 -23.5t-18.5 -76.5z" />
    <glyph glyph-name="trademark" unicode="&#x2122;" horiz-adv-x="1816" 
d="M686 1280h-211v-575h-192v575h-213v172h616v-172zM1673 705h-186v454l-182 -454h-140l-184 448v-448h-186v747h262l182 -438l176 438h258v-747z" />
    <glyph glyph-name="Omega" unicode="&#x2126;" horiz-adv-x="1628" 
d="M815 1217q-80 0 -154 -27.5t-133 -78t-94 -130.5t-35 -176q0 -164 100 -276t240 -142v-387h-618v258h366q-163 65 -272 214t-109 351q0 148 58 273.5t156 209.5t226 130.5t269 46.5t269 -46.5t226 -130.5t156 -209.5t58 -273.5q0 -202 -110 -351t-273 -214h366v-258h-618
v387q67 14 127.5 49t109 87t77 125t28.5 157q0 96 -35 176t-94 130.5t-133 78t-154 27.5z" />
    <glyph glyph-name="uni2160" unicode="&#x2160;" horiz-adv-x="1001" 
d="M915 1452v-240h-274v-972h274v-240h-829v240h274v972h-274v240h829z" />
    <glyph glyph-name="uni2161" unicode="&#x2161;" horiz-adv-x="1603" 
d="M1518 1452v-240h-287v-972h287v-240h-1432v240h287v972h-287v240h1432zM655 1212v-972h295v972h-295z" />
    <glyph glyph-name="uni2162" unicode="&#x2162;" horiz-adv-x="2162" 
d="M2077 1452v-240h-287v-972h287v-240h-1991v240h287v972h-287v240h1991zM655 1212v-972h287v972h-287zM1223 240h286v972h-286v-972z" />
    <glyph glyph-name="uni2163" unicode="&#x2163;" horiz-adv-x="2168" 
d="M2083 240v-240h-1997v240h281v972h-281v240h1997v-240h-203l-268 -972h471zM815 1212h-166v-972h434zM1348 326l233 886h-469z" />
    <glyph glyph-name="uni2164" unicode="&#x2164;" horiz-adv-x="1640" 
d="M1552 240v-240h-1466v240h475l-268 972h-207v240h1468v-240h-198l-269 -972h465zM825 326l234 886h-467z" />
    <glyph glyph-name="uni2165" unicode="&#x2165;" horiz-adv-x="2158" 
d="M1516 240v972h-162l-269 -972h431zM821 326l234 886h-467zM86 0v240h471l-268 972h-203v240h1987v-240h-277v-972h277v-240h-1987z" />
    <glyph glyph-name="uni2166" unicode="&#x2166;" horiz-adv-x="2727" 
d="M2642 1452v-240h-283v-972h283v-240h-2556v240h471l-268 972h-203v240h2556zM1354 1212l-269 -972h431v972h-162zM1796 1212v-972h283v972h-283zM821 326l234 886h-467z" />
    <glyph glyph-name="uni2167" unicode="&#x2167;" horiz-adv-x="3274" 
d="M3191 1452v-240h-287v-972h285v-240h-3103v240h471l-268 972h-203v240h3105zM1354 1212l-269 -972h428v972h-159zM1794 1212v-972h277v972h-277zM2351 1212v-972h272v972h-272zM821 326l234 886h-467z" />
    <glyph glyph-name="uni2168" unicode="&#x2168;" horiz-adv-x="2113" 
d="M1821 1212l-336 -487l332 -485h211v-240h-1942v240h281v972h-281v240h1942v-240h-207zM1145 721l-334 491h-162v-972h166zM1149 240h328l-162 254zM1151 1212l166 -260l170 260h-336z" />
    <glyph glyph-name="uni2169" unicode="&#x2169;" horiz-adv-x="1591" 
d="M1298 1212l-335 -489l329 -483h213v-240h-1419v240h209l328 479l-334 493h-203v240h1419v-240h-207zM629 240h325l-161 252zM627 1212l168 -262l170 262h-338z" />
    <glyph glyph-name="uni216C" unicode="&#x216c;" horiz-adv-x="1320" 
d="M1251 0h-1165v240h242v972h-242v240h784v-240h-262v-972h377v360h266v-600z" />
    <glyph glyph-name="uni216D" unicode="&#x216d;" horiz-adv-x="1624" 
d="M1227 0v160q-61 -84 -166 -136.5t-252 -52.5q-150 0 -282 54t-230 150.5t-154.5 239t-56.5 310.5q0 167 57 309.5t154.5 239.5t228.5 152t277 55t249 -52t165 -135v158h274v-530h-274q-9 45 -27 86.5t-50.5 84t-75.5 74t-107.5 51t-141.5 19.5q-86 0 -167 -32.5t-147 -94
t-105.5 -161.5t-39.5 -224q0 -118 37.5 -214.5t102 -158.5t148 -95.5t177.5 -33.5q95 0 171 30t122.5 80t73.5 101.5t39 106.5h272v-541h-272z" />
    <glyph glyph-name="uni216E" unicode="&#x216e;" horiz-adv-x="1589" 
d="M621 240h145q202 0 326.5 121t124.5 364q0 123 -34.5 218t-96 153t-142.5 87t-178 29h-145v-972zM86 1452h698q211 0 372 -85t253 -251t92 -391t-92 -390.5t-254 -250t-375 -84.5h-694v240h254v972h-254v240z" />
    <glyph glyph-name="uni216F" unicode="&#x216f;" horiz-adv-x="2168" 
d="M717 1452l364 -1018l353 1018h647v-240h-236v-972h238v-240h-688v240h172v792l-365 -1020h-244l-364 1014v-786h164v-240h-672v240h238v972h-238v240h631z" />
    <glyph glyph-name="arrowleft" unicode="&#x2190;" horiz-adv-x="2248" 
d="M657 127l-602 481l602 484v-367h1497v-236h-1497v-362z" />
    <glyph glyph-name="arrowup" unicode="&#x2191;" horiz-adv-x="1034" 
d="M520 1638l469 -546h-352v-1393h-234v1393h-356z" />
    <glyph glyph-name="arrowright" unicode="&#x2192;" horiz-adv-x="2248" 
d="M2193 608l-602 -481v362h-1497v236h1497v367z" />
    <glyph glyph-name="arrowdown" unicode="&#x2193;" horiz-adv-x="1058" 
d="M1010 240l-480 -551l-481 551h365v1386h233v-1386h363z" />
    <glyph glyph-name="uni2196" unicode="&#x2196;" horiz-adv-x="1636" 
d="M111 1450h680l-256 -258l1052 -1051l-166 -166l-1052 1051l-258 -260v684z" />
    <glyph glyph-name="uni2197" unicode="&#x2197;" horiz-adv-x="1636" 
d="M846 1450h680v-684l-260 260l-1051 -1051l-166 166l1051 1051z" />
    <glyph glyph-name="uni2198" unicode="&#x2198;" horiz-adv-x="1638" 
d="M1528 2h-680l254 256l-1051 1053l166 166l1051 -1053l260 262v-684z" />
    <glyph glyph-name="uni2199" unicode="&#x2199;" horiz-adv-x="1638" 
d="M791 2h-680v684l258 -262l1052 1053l166 -166l-1052 -1053z" />
    <glyph glyph-name="uni21A9" unicode="&#x21a9;" horiz-adv-x="1910" 
d="M592 102l-539 459l539 463v-346h737q109 0 182.5 59t73.5 152q0 96 -71 153.5t-189 57.5h-399v235h411q216 0 353 -127t137 -319q0 -193 -136.5 -321t-353.5 -128h-745v-338z" />
    <glyph glyph-name="uni21B0" unicode="&#x21b0;" horiz-adv-x="1603" 
d="M590 561l-539 461l539 463v-344h864v-1141h-233v905h-631v-344z" />
    <glyph glyph-name="uni21B1" unicode="&#x21b1;" horiz-adv-x="1644" 
d="M385 0h-235v1141h905v344l538 -463l-538 -461v344h-670v-905z" />
    <glyph glyph-name="uni21B2" unicode="&#x21b2;" horiz-adv-x="1640" 
d="M1260 1452h233v-1141h-905v-344l-539 463l539 461v-344h672v905z" />
    <glyph glyph-name="uni21B3" unicode="&#x21b3;" horiz-adv-x="1640" 
d="M1053 891l538 -461l-538 -463v344h-906v1141h236v-905h670v344z" />
    <glyph glyph-name="uni21B4" unicode="&#x21b4;" horiz-adv-x="1617" 
d="M66 1217v235h1157v-956h344l-457 -527l-461 527h338v721h-921z" />
    <glyph glyph-name="uni21B5" unicode="&#x21b5;" horiz-adv-x="2240" 
d="M492 213l-441 512h314q1 154 61 294.5t161 242.5t241 162.5t294 60.5q187 0 357 -88l-109 -209q-116 61 -246 61q-143 0 -263.5 -70t-190.5 -191t-70 -263h330zM1874 725q0 -155 -60 -295.5t-161 -241.5t-241.5 -161t-295.5 -60q-184 0 -354 88l106 209q123 -63 248 -63
q106 0 202.5 41.5t166 112t110.5 167t41 203.5h-325l438 514l440 -514h-315z" />
    <glyph glyph-name="uni21C6" unicode="&#x21c6;" horiz-adv-x="2275" 
d="M2212 332l-539 -459v342h-1550v236h1550v344zM604 680l-538 459l538 463v-349h1548v-235h-1548v-338z" />
    <glyph glyph-name="partialdiff" unicode="&#x2202;" horiz-adv-x="1286" 
d="M522 1229q-146 0 -297 -70l-94 217q180 101 408 101q60 0 118.5 -8.5t125 -32t124.5 -59.5t112 -96t92.5 -137.5t61.5 -188t23 -242.5q0 -161 -36.5 -295.5t-108.5 -236t-187 -158t-262 -56.5q-81 0 -157 20t-142.5 61t-116 99.5t-78 140.5t-28.5 179q0 110 43.5 201.5
t114.5 149.5t160 90t182 32q227 0 329 -115q-5 106 -37.5 185.5t-85.5 126.5t-119 69.5t-145 22.5zM641 709q-139 0 -212 -71t-73 -183q0 -107 77 -171.5t179 -64.5q81 0 142 35.5t94.5 93t49.5 119.5t17 127q-97 115 -274 115z" />
    <glyph glyph-name="Delta" unicode="&#x2206;" horiz-adv-x="1521" 
d="M53 0l553 1452h307l555 -1452h-1415zM760 1145l-316 -883h633z" />
    <glyph glyph-name="product" unicode="&#x220f;" horiz-adv-x="1355" 
d="M1214 0h-282v1192h-508v-1192h-283v1452h1073v-1452z" />
    <glyph glyph-name="summation" unicode="&#x2211;" horiz-adv-x="1255" 
d="M98 0v256l525 469l-525 471v256h1053v-262h-666l516 -465l-534 -463h684v-262h-1053z" />
    <glyph glyph-name="minus" unicode="&#x2212;" horiz-adv-x="1230" 
d="M1102 604h-973v223h973v-223z" />
    <glyph glyph-name="uni2215" unicode="&#x2215;" horiz-adv-x="856" 
d="M864 1329l-645 -1329h-248l645 1329h248z" />
    <glyph glyph-name="uni2219" unicode="&#x2219;" horiz-adv-x="569" 
d="M109 635q0 72 51 122t125 50t125 -50t51 -122q0 -74 -51 -124t-125 -50t-125 50t-51 124z" />
    <glyph glyph-name="radical" unicode="&#x221a;" horiz-adv-x="1454" 
d="M1444 1573h-268l-529 -1573h-241l-390 1100h267l245 -725l467 1425h449v-227z" />
    <glyph glyph-name="infinity" unicode="&#x221e;" horiz-adv-x="1703" 
d="M332 702q0 -64 41.5 -104.5t109.5 -40.5q102 0 219 141q-62 76 -113 115t-106 39q-68 0 -109.5 -43t-41.5 -107zM1372 702q0 64 -42.5 107t-110.5 43q-55 0 -105 -37t-115 -110q62 -72 113.5 -110t106.5 -38q68 0 110.5 40.5t42.5 104.5zM848 522q-94 -99 -182.5 -147.5
t-186.5 -48.5q-170 0 -281.5 108t-111.5 271t111.5 272.5t281.5 109.5q198 0 375 -202q186 202 369 202q171 0 283 -109t112 -273q0 -163 -112 -271t-283 -108q-200 0 -375 196z" />
    <glyph glyph-name="integral" unicode="&#x222b;" horiz-adv-x="768" 
d="M248 -14v1089q0 174 101.5 276.5t277.5 102.5h104v-242h-92q-55 0 -87 -34.5t-32 -98.5v-1089q0 -174 -100.5 -276.5t-274.5 -102.5h-110v239h94q53 0 86 36.5t33 99.5z" />
    <glyph glyph-name="approxequal" unicode="&#x2248;" horiz-adv-x="1294" 
d="M1049 1059l143 -121q-55 -97 -141.5 -150t-188.5 -55q-110 0 -223 64l-98 53q-56 29 -111 29q-102 0 -176 -99l-148 121q57 100 143 154.5t187 54.5q112 0 223 -61l97 -54q59 -32 116 -32q109 0 177 96zM1049 647l143 -121q-57 -98 -143.5 -151t-188.5 -53
q-108 0 -221 61l-98 53q-60 31 -109 31q-103 0 -178 -96l-148 121q58 99 144 151.5t188 52.5q108 0 221 -61l97 -51q53 -33 116 -33q111 0 177 96z" />
    <glyph glyph-name="notequal" unicode="&#x2260;" horiz-adv-x="1247" 
d="M420 203h-246l131 200h-178v220h319l125 188h-444v219h586l123 187h245l-123 -187h160v-219h-301l-123 -188h424v-220h-567z" />
    <glyph glyph-name="lessequal" unicode="&#x2264;" horiz-adv-x="1161" 
d="M1012 481l-881 277v223l881 276v-225l-572 -160l572 -159v-232zM1012 201h-881v223h881v-223z" />
    <glyph glyph-name="greaterequal" unicode="&#x2265;" horiz-adv-x="1161" 
d="M150 481v228l571 157l-571 164v227l880 -276v-223zM1030 201h-880v223h880v-223z" />
    <glyph glyph-name="dotmath" unicode="&#x22c5;" horiz-adv-x="569" 
d="M109 635q0 72 51 122t125 50t125 -50t51 -122q0 -74 -51 -124t-125 -50t-125 50t-51 124z" />
    <glyph glyph-name="uni24C5" unicode="&#x24c5;" horiz-adv-x="1675" 
d="M256 725q0 -165 76.5 -301.5t210 -215.5t293.5 -79t293.5 79t209.5 215.5t76 301.5q0 124 -45 235t-122 190.5t-184.5 126t-227.5 46.5q-161 0 -294 -79t-209.5 -216.5t-76.5 -302.5zM82 725q0 154 59.5 294.5t160.5 242.5t240.5 162.5t293.5 60.5t294 -60.5
t241.5 -162.5t161.5 -242.5t60 -294.5q0 -205 -101.5 -379.5t-276 -276.5t-379.5 -102q-154 0 -294 60.5t-240.5 162t-160 242t-59.5 293.5zM774 758h111q55 0 87 29t32 79q0 51 -32 81t-87 30h-111v-219zM920 598h-146v-281h-192v820h338q119 0 199.5 -79t80.5 -192
q0 -111 -80.5 -189.5t-199.5 -78.5z" />
    <glyph glyph-name="filledbox" unicode="&#x25a0;" horiz-adv-x="1712" 
d="M133 0v1452h1446v-1452h-1446z" />
    <glyph glyph-name="H22073" unicode="&#x25a1;" horiz-adv-x="1712" 
d="M1579 0h-1446v1452h1446v-1452zM367 1223v-996h972v996h-972z" />
    <glyph glyph-name="uni25AF" unicode="&#x25af;" horiz-adv-x="1210" 
d="M1077 0h-944v1452h944v-1452zM360 1243v-1030h490v1030h-490z" />
    <glyph glyph-name="triagup" unicode="&#x25b2;" horiz-adv-x="1798" 
d="M903 1485l854 -1485h-1716z" />
    <glyph glyph-name="uni25B3" unicode="&#x25b3;" horiz-adv-x="1798" 
d="M899 1485l858 -1485h-1716zM1350 229l-451 787l-453 -787h904z" />
    <glyph glyph-name="lozenge" unicode="&#x25ca;" horiz-adv-x="1247" 
d="M360 725l265 -455l262 455l-262 457zM51 725l424 727h297l424 -727l-424 -725h-297z" />
    <glyph glyph-name="circle" unicode="&#x25cb;" horiz-adv-x="1681" 
d="M82 725q0 155 60 295.5t162 242.5t242.5 162t295.5 60t295 -60t241.5 -162t161 -242.5t59.5 -295.5t-59.5 -295.5t-161 -241.5t-241.5 -161t-295 -60t-295.5 60t-242.5 161t-162 241.5t-60 295.5zM317 725q0 -143 70 -264.5t191 -192.5t264 -71q141 0 260.5 71
t188.5 192.5t69 264.5t-69 264.5t-188.5 192.5t-260.5 71q-143 0 -264 -71t-191 -192.5t-70 -264.5z" />
    <glyph glyph-name="H18533" unicode="&#x25cf;" horiz-adv-x="1681" 
d="M82 725q0 155 60 295.5t161 242.5t241.5 162t295.5 60t295.5 -60t242 -162t161.5 -242.5t60 -295.5t-60 -295.5t-161.5 -241.5t-242 -161t-295.5 -60t-295.5 60t-241.5 161t-161 241.5t-60 295.5z" />
    <glyph glyph-name="uni262E" unicode="&#x262e;" horiz-adv-x="1673" 
d="M1591 725q0 -123 -38 -239t-108 -209t-162.5 -163t-208 -108.5t-238.5 -38.5q-154 0 -293.5 60t-240.5 161.5t-160.5 242t-59.5 294.5q0 155 59.5 295.5t160.5 242.5t240.5 162t293.5 60t294 -60t241 -162t160.5 -242.5t59.5 -295.5zM1360 725q0 191 -117.5 337.5
t-296.5 186.5v-397l371 -322q43 94 43 195zM309 725q0 -101 39 -190l369 317v393q-177 -40 -292.5 -185t-115.5 -335zM946 203q140 29 250 133l-250 225v-358zM469 340q102 -102 248 -137v358z" />
    <glyph glyph-name="uni2713" unicode="&#x2713;" horiz-adv-x="1955" 
d="M1913 1321l-1264 -1354l-600 664l170 160l438 -478l1088 1174z" />
    <glyph glyph-name="uni2715" unicode="&#x2715;" horiz-adv-x="1591" 
d="M1368 -10l-573 571l-568 -571l-164 166l568 571l-568 567l166 164l566 -565l561 565l164 -164l-562 -567l574 -571z" />
    <glyph glyph-name="uni2780" unicode="&#x2780;" horiz-adv-x="1675" 
d="M256 725q0 -165 76.5 -301.5t210 -215.5t293.5 -79t293.5 79t209.5 215.5t76 301.5q0 124 -45 235t-122 190.5t-184.5 126t-227.5 46.5q-161 0 -294 -79t-209.5 -216.5t-76.5 -302.5zM82 725q0 154 59.5 294.5t160.5 242.5t240.5 162.5t293.5 60.5t294 -60.5
t241.5 -162.5t161.5 -242.5t60 -294.5q0 -205 -101.5 -379.5t-276 -276.5t-379.5 -102q-154 0 -294 60.5t-240.5 162t-160 242t-59.5 293.5zM979 354h-211v457h-186v135q89 0 144 48.5t67 111.5h186v-752z" />
    <glyph glyph-name="uni2781" unicode="&#x2781;" horiz-adv-x="1675" 
d="M256 725q0 -165 76.5 -301.5t210 -215.5t293.5 -79t293.5 79t209.5 215.5t76 301.5q0 124 -45 235t-122 190.5t-184.5 126t-227.5 46.5q-161 0 -294 -79t-209.5 -216.5t-76.5 -302.5zM82 725q0 154 59.5 294.5t160.5 242.5t240.5 162.5t293.5 60.5t294 -60.5
t241.5 -162.5t161.5 -242.5t60 -294.5q0 -205 -101.5 -379.5t-276 -276.5t-379.5 -102q-154 0 -294 60.5t-240.5 162t-160 242t-59.5 293.5zM729 831l-186 -2q-8 28 -8 60q0 111 77 182.5t217 71.5q133 0 212 -72.5t79 -177.5q0 -132 -162 -229l-143 -86q-24 -14 -24 -31
h335v-174h-596v24q0 214 183 322l123 72q77 47 77 104q0 31 -23 55.5t-63 24.5q-48 0 -76 -28.5t-28 -78.5q0 -19 6 -37z" />
    <glyph glyph-name="uni2782" unicode="&#x2782;" horiz-adv-x="1675" 
d="M256 725q0 -165 76.5 -301.5t210 -215.5t293.5 -79t293.5 79t209.5 215.5t76 301.5q0 124 -45 235t-122 190.5t-184.5 126t-227.5 46.5q-161 0 -294 -79t-209.5 -216.5t-76.5 -302.5zM82 725q0 154 59.5 294.5t160.5 242.5t240.5 162.5t293.5 60.5t294 -60.5
t241.5 -162.5t161.5 -242.5t60 -294.5q0 -205 -101.5 -379.5t-276 -276.5t-379.5 -102q-154 0 -294 60.5t-240.5 162t-160 242t-59.5 293.5zM514 563l186 43q5 -47 39 -77.5t86 -30.5q50 0 80.5 25.5t30.5 64.5q0 46 -31.5 69t-77.5 23q-37 0 -65 -12l-68 139l178 121h-329
v170h581v-168l-184 -125q94 -12 150.5 -69.5t56.5 -151.5q0 -107 -88.5 -181.5t-233.5 -74.5q-131 0 -214.5 69t-96.5 166z" />
    <glyph glyph-name="uni2783" unicode="&#x2783;" horiz-adv-x="1675" 
d="M256 725q0 -165 76.5 -301.5t210 -215.5t293.5 -79t293.5 79t209.5 215.5t76 301.5q0 124 -45 235t-122 190.5t-184.5 126t-227.5 46.5q-161 0 -294 -79t-209.5 -216.5t-76.5 -302.5zM82 725q0 154 59.5 294.5t160.5 242.5t240.5 162.5t293.5 60.5t294 -60.5
t241.5 -162.5t161.5 -242.5t60 -294.5q0 -205 -101.5 -379.5t-276 -276.5t-379.5 -102q-154 0 -294 60.5t-240.5 162t-160 242t-59.5 293.5zM469 510v203l346 405h223v-446h125v-162h-125v-145h-204v145h-365zM834 672v233l-199 -233h199z" />
    <glyph glyph-name="uni2784" unicode="&#x2784;" horiz-adv-x="1675" 
d="M256 725q0 -165 76.5 -301.5t210 -215.5t293.5 -79t293.5 79t209.5 215.5t76 301.5q0 124 -45 235t-122 190.5t-184.5 126t-227.5 46.5q-161 0 -294 -79t-209.5 -216.5t-76.5 -302.5zM82 725q0 154 59.5 294.5t160.5 242.5t240.5 162.5t293.5 60.5t294 -60.5
t241.5 -162.5t161.5 -242.5t60 -294.5q0 -205 -101.5 -379.5t-276 -276.5t-379.5 -102q-154 0 -294 60.5t-240.5 162t-160 242t-59.5 293.5zM510 551l182 47q6 -46 41.5 -74t83.5 -28t78.5 26.5t30.5 71.5q0 52 -31 78t-84 26q-64 0 -106 -45l-170 52l94 387h454v-170h-331
l-31 -129q53 47 145 47q121 0 192.5 -65.5t71.5 -178.5q0 -115 -84 -192.5t-229 -77.5q-122 0 -207.5 65t-99.5 160z" />
    <glyph glyph-name="uni2785" unicode="&#x2785;" horiz-adv-x="1675" 
d="M256 725q0 -165 76.5 -301.5t210 -215.5t293.5 -79t293.5 79t209.5 215.5t76 301.5q0 124 -45 235t-122 190.5t-184.5 126t-227.5 46.5q-161 0 -294 -79t-209.5 -216.5t-76.5 -302.5zM82 725q0 154 59.5 294.5t160.5 242.5t240.5 162.5t293.5 60.5t294 -60.5
t241.5 -162.5t161.5 -242.5t60 -294.5q0 -205 -101.5 -379.5t-276 -276.5t-379.5 -102q-154 0 -294 60.5t-240.5 162t-160 242t-59.5 293.5zM1106 1087l-37 -157q-67 24 -133 24q-86 0 -152 -42t-88 -126q63 66 174 66q117 0 192 -64t75 -180q0 -119 -91 -195.5t-231 -76.5
q-139 0 -233.5 93t-94.5 253q0 201 124 319.5t313 118.5q103 0 182 -33zM705 602q0 -43 33 -71.5t77 -28.5q45 0 78 28.5t33 71.5q0 46 -32.5 74.5t-78.5 28.5q-45 0 -77.5 -28.5t-32.5 -74.5z" />
    <glyph glyph-name="uni2786" unicode="&#x2786;" horiz-adv-x="1675" 
d="M256 725q0 -165 76.5 -301.5t210 -215.5t293.5 -79t293.5 79t209.5 215.5t76 301.5q0 124 -45 235t-122 190.5t-184.5 126t-227.5 46.5q-161 0 -294 -79t-209.5 -216.5t-76.5 -302.5zM82 725q0 154 59.5 294.5t160.5 242.5t240.5 162.5t293.5 60.5t294 -60.5
t241.5 -162.5t161.5 -242.5t60 -294.5q0 -205 -101.5 -379.5t-276 -276.5t-379.5 -102q-154 0 -294 60.5t-240.5 162t-160 242t-59.5 293.5zM1147 1087v-174q-28 -22 -54.5 -47.5t-68 -78.5t-73 -112.5t-59 -150t-36.5 -190.5h-219q8 105 37.5 203.5t66.5 164t73 116
t60 74.5l25 23h-381v172h629z" />
    <glyph glyph-name="uni2787" unicode="&#x2787;" horiz-adv-x="1675" 
d="M256 725q0 -165 76.5 -301.5t210 -215.5t293.5 -79t293.5 79t209.5 215.5t76 301.5q0 124 -45 235t-122 190.5t-184.5 126t-227.5 46.5q-161 0 -294 -79t-209.5 -216.5t-76.5 -302.5zM82 725q0 154 59.5 294.5t160.5 242.5t240.5 162.5t293.5 60.5t294 -60.5
t241.5 -162.5t161.5 -242.5t60 -294.5q0 -205 -101.5 -379.5t-276 -276.5t-379.5 -102q-154 0 -294 60.5t-240.5 162t-160 242t-59.5 293.5zM838 807q43 0 67.5 23t24.5 57q0 29 -24.5 51.5t-67.5 22.5q-44 0 -69.5 -22.5t-25.5 -51.5q0 -34 25.5 -57t69.5 -23zM838 500
q55 0 83.5 25.5t28.5 62.5q0 34 -29 58t-83 24q-55 0 -84 -24t-29 -58q0 -37 28.5 -62.5t84.5 -25.5zM838 338q-150 0 -235 61.5t-85 163.5q0 61 41.5 109t108.5 69q-60 20 -93.5 66t-33.5 102q0 93 79.5 153t217.5 60q136 0 215.5 -60t79.5 -153q0 -56 -33.5 -102
t-93.5 -66q65 -19 108 -67t43 -107q0 -103 -84 -166t-235 -63z" />
    <glyph glyph-name="uni2788" unicode="&#x2788;" horiz-adv-x="1675" 
d="M256 725q0 -165 76.5 -301.5t210 -215.5t293.5 -79t293.5 79t209.5 215.5t76 301.5q0 124 -45 235t-122 190.5t-184.5 126t-227.5 46.5q-161 0 -294 -79t-209.5 -216.5t-76.5 -302.5zM82 725q0 154 59.5 294.5t160.5 242.5t240.5 162.5t293.5 60.5t294 -60.5
t241.5 -162.5t161.5 -242.5t60 -294.5q0 -205 -101.5 -379.5t-276 -276.5t-379.5 -102q-154 0 -294 60.5t-240.5 162t-160 242t-59.5 293.5zM565 369l35 159q74 -24 129 -24q93 0 159 40t85 130q-29 -32 -76.5 -50t-99.5 -18q-112 0 -191.5 65.5t-79.5 178.5
q0 121 88.5 196.5t233.5 75.5q138 0 230.5 -93.5t92.5 -254.5q0 -206 -117 -322t-302 -116q-105 0 -187 33zM952 856q0 43 -32.5 71.5t-77.5 28.5q-47 0 -79 -28t-32 -72q0 -46 32 -75t79 -29q46 0 78 29t32 75z" />
    <glyph glyph-name="uniE000" unicode="&#xe000;" horiz-adv-x="1617" 
d="M508 -31l-457 527h344v956h1157v-235h-921v-721h338z" />
    <glyph glyph-name="uniE002" unicode="&#xe002;" horiz-adv-x="1986" 
d="M1057 725l438 514l440 -514h-309q0 -155 -60 -295.5t-161 -241.5t-241.5 -161t-295.5 -60q-154 0 -294 60t-241.5 161t-161.5 241.5t-60 295.5t60 295.5t161.5 242.5t241.5 162t294 60q167 0 324 -72l-94 -217q-106 53 -228 53q-143 0 -263.5 -70t-190.5 -191t-70 -263
t69.5 -263t190.5 -192t264 -71q141 0 260.5 70.5t189 192t69.5 263.5h-332z" />
    <glyph glyph-name="commaaccent" unicode="&#xf6c3;" horiz-adv-x="423" 
d="M53 1403q0 56 43 93.5t107 37.5q70 0 118 -49.5t48 -126.5q0 -62 -19.5 -110t-49 -75.5t-69.5 -45t-76.5 -23.5t-74.5 -6v96q71 0 115.5 26.5t50.5 67.5q-42 -14 -60 -14q-62 0 -97.5 36t-35.5 93z" />
    <glyph glyph-name="uniFB00" unicode="&#xfb00;" horiz-adv-x="1431" 
d="M1165 1118v-110h228v-234h-228v-774h-272v774h-389v-774h-275v774h-168v234h168v114q0 170 100 272.5t267 102.5q89 0 135 -20v-230q-35 10 -86 10q-56 0 -98.5 -31.5t-42.5 -107.5v-110h389v114q0 170 100 272.5t267 102.5q89 0 135 -20v-230q-35 10 -86 10
q-25 0 -47.5 -6t-45.5 -20.5t-36.5 -43.5t-14.5 -69z" />
    <glyph glyph-name="fi" unicode="&#xfb01;" horiz-adv-x="1316" 
d="M907 774h-403v-774h-275v774h-168v234h168v114q0 170 100 272.5t267 102.5q89 0 135 -20v-230q-35 10 -86 10q-56 0 -98.5 -31.5t-42.5 -107.5v-110h674v-1008h-271v774zM874 1339q0 70 49.5 120t118.5 50t118.5 -50t49.5 -120q0 -69 -49.5 -117t-118.5 -48t-118.5 48
t-49.5 117z" />
    <glyph glyph-name="fl" unicode="&#xfb02;" horiz-adv-x="1316" 
d="M645 1257q-56 0 -98.5 -31.5t-42.5 -107.5v-110h401v475h273v-1483h-273v774h-401v-774h-275v774h-168v234h168v114q0 170 100 272.5t267 102.5q89 0 135 -20v-230q-35 10 -86 10z" />
    <glyph glyph-name="uniFB03" unicode="&#xfb03;" horiz-adv-x="1984" 
d="M1542 1339q0 71 48.5 120.5t117.5 49.5q70 0 120 -49.5t50 -120.5q0 -69 -49.5 -117t-120.5 -48q-69 0 -117.5 48t-48.5 117zM893 1008v118q0 169 99 270t265 101q90 0 136 -20v-230q-35 10 -86 10q-56 0 -99 -31.5t-43 -107.5v-110h680v-1008h-272v774h-408v-774h-272
v774h-389v-774h-275v774h-168v234h168v114q0 170 100 272.5t267 102.5q89 0 135 -20v-230q-35 10 -86 10q-56 0 -98.5 -31.5t-42.5 -107.5v-110h389z" />
    <glyph glyph-name="uniFB04" unicode="&#xfb04;" horiz-adv-x="1986" 
d="M893 1122q0 172 99 273.5t265 101.5q90 0 136 -20v-230q-35 10 -86 10q-56 0 -99 -31.5t-43 -107.5v-110h410v475h272v-1483h-272v774h-410v-774h-272v774h-389v-774h-275v774h-168v234h168v114q0 170 100 272.5t267 102.5q89 0 135 -20v-230q-35 10 -86 10
q-56 0 -98.5 -31.5t-42.5 -107.5v-110h389v114z" />
    <glyph glyph-name="uniFEFF" unicode="&#xfeff;" horiz-adv-x="0" 
 />
    <glyph glyph-name="i.latn_TRK" horiz-adv-x="550" 
d="M412 0h-273v1008h273v-1008zM106 1337q0 70 49.5 120t118.5 50q70 0 119 -49.5t49 -120.5q0 -68 -49 -117t-119 -49q-69 0 -118.5 49t-49.5 117z" />
    <glyph glyph-name="Ldot.latn_CAT" horiz-adv-x="1150" 
d="M625 827q0 66 46.5 111t112.5 45q65 0 111.5 -45.5t46.5 -110.5t-46.5 -110t-111.5 -45q-66 0 -112.5 44.5t-46.5 110.5zM1100 0h-930v1452h283v-1182h647v-270z" />
    <glyph glyph-name="ldot.latn_CAT" horiz-adv-x="821" 
d="M412 0h-273v1483h273v-1483zM514 674q0 68 48 115t116 47t116 -47t48 -115q0 -67 -48 -113.5t-116 -46.5t-116 46.5t-48 113.5z" />
    <glyph glyph-name="zero.dnom" horiz-adv-x="811" 
d="M279 375q0 -44 4.5 -78t17 -68.5t39 -53.5t66.5 -19t67.5 19t40 53.5t17 68.5t4.5 78q0 35 -2.5 63t-10.5 58.5t-21.5 51.5t-37.5 34.5t-57 13.5q-40 0 -66.5 -19t-39 -53.5t-17 -69t-4.5 -79.5zM66 375q0 171 73 268q92 125 267 125q176 0 268 -125q71 -98 71 -268
q0 -168 -71 -266q-90 -125 -268 -125q-177 0 -267 125q-73 97 -73 266z" />
    <glyph glyph-name="one.dnom" horiz-adv-x="532" 
d="M442 0h-211v457h-186v135q89 0 144 48.5t67 111.5h186v-752z" />
    <glyph glyph-name="two.dnom" horiz-adv-x="735" 
d="M266 459l-186 -2q-8 28 -8 59q0 110 77.5 182t217.5 72q133 0 211.5 -72t78.5 -178q0 -133 -161 -229l-144 -86q-24 -14 -24 -31h336v-174h-596v25q0 105 42.5 184t139.5 137l123 72q78 47 78 104q0 31 -23 55.5t-63 24.5q-48 0 -76.5 -28t-28.5 -78q0 -19 6 -37z" />
    <glyph glyph-name="three.dnom" horiz-adv-x="751" 
d="M51 219l187 43q5 -47 39 -77.5t85 -30.5q50 0 80.5 25.5t30.5 64.5q0 46 -31 69t-77 23q-38 0 -66 -12l-68 139l179 121h-330v170h582v-168l-185 -125q94 -12 150.5 -69.5t56.5 -151.5q0 -107 -88.5 -181.5t-233.5 -74.5q-131 0 -214.5 69t-96.5 166z" />
    <glyph glyph-name="four.dnom" horiz-adv-x="794" 
d="M49 145v203l346 406h223v-447h125v-162h-125v-145h-204v145h-365zM414 307v234l-199 -234h199z" />
    <glyph glyph-name="five.dnom" horiz-adv-x="733" 
d="M51 211l182 47q6 -46 41.5 -74t83.5 -28t78.5 26.5t30.5 71.5q0 52 -31 78t-84 26q-64 0 -106 -45l-170 52l94 387h455v-170h-332l-31 -129q53 47 146 47q121 0 192.5 -65.5t71.5 -178.5q0 -115 -84 -192.5t-230 -77.5q-122 0 -207.5 65t-99.5 160z" />
    <glyph glyph-name="six.dnom" horiz-adv-x="772" 
d="M682 735l-37 -157q-67 24 -133 24q-86 0 -152 -42t-88 -126q63 66 174 66q117 0 192 -64t75 -180q0 -119 -91 -195.5t-231 -76.5q-139 0 -233.5 93t-94.5 253q0 201 124 319.5t313 118.5q103 0 182 -33zM281 250q0 -43 33 -71.5t77 -28.5q45 0 78 28.5t33 71.5
q0 46 -32.5 74t-78.5 28q-45 0 -77.5 -28t-32.5 -74z" />
    <glyph glyph-name="seven.dnom" horiz-adv-x="708" 
d="M674 754v-174q-28 -22 -54.5 -47.5t-68 -78.5t-73 -113t-59 -150.5t-36.5 -190.5h-219q8 105 37.5 203.5t66.5 164.5t73 116.5t61 73.5l24 24h-381v172h629z" />
    <glyph glyph-name="eight.dnom" horiz-adv-x="765" 
d="M383 453q43 0 67.5 22.5t24.5 56.5q0 29 -24.5 51.5t-67.5 22.5q-44 0 -69 -22.5t-25 -51.5q0 -34 25 -56.5t69 -22.5zM383 145q55 0 84 25.5t29 62.5q0 33 -29.5 57.5t-83.5 24.5q-55 0 -84 -24t-29 -58q0 -37 28.5 -62.5t84.5 -25.5zM383 -16q-150 0 -235 61.5
t-85 163.5q0 61 41.5 109t108.5 69q-60 20 -93.5 66t-33.5 102q0 93 79.5 153t217.5 60q136 0 215.5 -60t79.5 -153q0 -56 -33.5 -102t-93.5 -66q65 -19 108 -67t43 -107q0 -103 -84 -166t-235 -63z" />
    <glyph glyph-name="nine.dnom" horiz-adv-x="765" 
d="M96 16l35 160q74 -24 129 -24q93 0 159 40t85 130q-29 -32 -76.5 -50t-99.5 -18q-112 0 -191.5 65.5t-79.5 178.5q0 121 88.5 196.5t233.5 75.5q138 0 230.5 -93.5t92.5 -254.5q0 -206 -117 -322t-302 -116q-108 0 -187 32zM483 504q0 43 -32.5 71.5t-77.5 28.5
q-47 0 -79 -28t-32 -72q0 -46 32 -75.5t79 -29.5q45 0 77.5 29.5t32.5 75.5z" />
    <glyph glyph-name="space.frac" horiz-adv-x="96" 
 />
    <glyph glyph-name="space.tf" 
 />
    <glyph glyph-name="comma.tf" 
d="M377 184q0 82 59.5 137.5t149.5 55.5q103 0 164 -74.5t61 -189.5q0 -97 -26 -179.5t-67 -137.5t-95 -95.5t-107.5 -61t-107.5 -26.5v145q83 20 149 89.5t70 158.5q-20 -12 -60 -12q-84 0 -137 53t-53 137z" />
    <glyph glyph-name="period.tf" 
d="M387 193q0 86 61.5 147t147.5 61q88 0 149.5 -61t61.5 -147t-61.5 -147.5t-149.5 -61.5q-86 0 -147.5 61.5t-61.5 147.5z" />
    <glyph glyph-name="colon.tf" 
d="M395 170q0 82 59 140.5t142 58.5t142 -58.5t59 -140.5q0 -83 -59 -141t-142 -58t-142 58t-59 141zM395 840q0 82 59 140t142 58t142 -58t59 -140q0 -83 -59 -141t-142 -58t-142 58t-59 141z" />
    <glyph glyph-name="semicolon.tf" 
d="M391 176q0 77 56 128.5t139 51.5q96 0 153.5 -69t57.5 -176q0 -90 -24 -166.5t-62.5 -128t-88.5 -89t-100 -56.5t-100 -25v137q75 16 137 80.5t66 148.5q-20 -12 -58 -12q-78 0 -127 49.5t-49 126.5zM393 834q0 82 59 140t142 58t142 -58t59 -140q0 -83 -59 -141
t-142 -58t-142 58t-59 141z" />
    <glyph glyph-name="section.tf" 
d="M1026 518q0 -89 -44.5 -153.5t-113.5 -102.5q77 -55 117.5 -130t40.5 -161q0 -87 -36.5 -161.5t-96.5 -124t-138 -77.5t-161 -28q-196 0 -310 104t-122 277l254 43q0 -95 48 -144.5t132 -49.5q68 0 112 39.5t44 103.5q0 80 -90 127l-207 108q-52 27 -88 49t-77 54.5
t-65 66.5t-40.5 81t-16.5 102q0 88 43.5 153.5t112.5 104.5q-76 56 -116 132.5t-40 160.5q0 115 62 206t160 138t212 47q193 0 308.5 -106t121.5 -277l-258 -41q0 94 -47 143t-127 49q-72 0 -116 -40t-44 -103q0 -38 23.5 -71.5t66.5 -53.5l205 -106q66 -35 111.5 -65
t90 -73.5t67 -98.5t22.5 -122zM688 602l-207 109q-65 -52 -65 -115q0 -46 19.5 -78t68.5 -57l207 -111q65 51 65 117q0 88 -88 135z" />
    <glyph glyph-name="florin.tf" 
d="M301 57l145 721h-200v230h248l38 188q16 82 55 145.5t92 101t112.5 56.5t123.5 19q65 0 99.5 -6t83.5 -21v-236q-69 15 -127 15q-141 0 -172 -154l-23 -108h240v-230h-287l-162 -803q-16 -81 -55 -144.5t-92 -101t-113 -56.5t-123 -19q-66 0 -102.5 6.5t-85.5 22.5v233
q65 -14 133 -14q141 0 172 155z" />
    <glyph glyph-name="uni2007.tf" 
 />
    <glyph glyph-name="uni2008.tf" 
 />
    <glyph glyph-name="parenleft.case" horiz-adv-x="690" 
d="M88 725q0 550 397 954l160 -137q-166 -191 -248 -380.5t-82 -436.5q0 -248 82 -438t248 -381l-160 -135q-87 89 -154.5 183t-124.5 211t-87.5 259t-30.5 301z" />
    <glyph glyph-name="parenright.case" horiz-adv-x="690" 
d="M602 725q0 -159 -30.5 -301t-87.5 -259t-124.5 -211t-154.5 -183l-160 135q166 191 248 381t82 438q0 247 -82 436.5t-248 380.5l160 137q397 -404 397 -954z" />
    <glyph glyph-name="hyphen.case" horiz-adv-x="847" 
d="M721 590h-594v241h594v-241z" />
    <glyph glyph-name="bracketleft.case" horiz-adv-x="686" 
d="M614 -223h-473v1894h473v-207h-245v-1476h245v-211z" />
    <glyph glyph-name="bracketright.case" horiz-adv-x="686" 
d="M545 -223h-473v211h243v1476h-243v207h473v-1894z" />
    <glyph glyph-name="braceleft.case" horiz-adv-x="784" 
d="M47 612v228q94 0 149.5 45.5t55.5 144.5v246q0 197 104 296t293 99h64v-207h-62q-170 0 -170 -182v-297q0 -98 -54.5 -165.5t-152.5 -92.5q98 -26 152.5 -93.5t54.5 -164.5v-299q0 -182 170 -182h62v-207h-64q-189 0 -293 99.5t-104 295.5v246q0 99 -55.5 144.5
t-149.5 45.5z" />
    <glyph glyph-name="braceright.case" horiz-adv-x="782" 
d="M737 840v-228q-95 0 -151 -45.5t-56 -144.5v-246q0 -196 -104 -295.5t-291 -99.5h-63v207h59q172 0 172 182v299q0 96 54 164t151 94q-98 25 -151.5 92.5t-53.5 165.5v297q0 182 -172 182h-59v207h63q188 0 291.5 -99t103.5 -296v-246q0 -99 56 -144.5t151 -45.5z" />
    <glyph glyph-name="exclamdown.case" horiz-adv-x="569" 
d="M385 1010l64 -1010h-328l65 1010h199zM123 1307q0 66 47.5 113.5t114.5 47.5q66 0 113.5 -47.5t47.5 -113.5q0 -67 -47.5 -115.5t-113.5 -48.5q-67 0 -114.5 48t-47.5 116z" />
    <glyph glyph-name="guillemotleft.case" horiz-adv-x="1155" 
d="M614 309h-258l-280 398l282 403h256l-278 -405zM1057 309h-258l-279 398l281 403h258l-281 -405z" />
    <glyph glyph-name="uni00AD.case" horiz-adv-x="854" 
d="M725 600h-596v244h596v-244z" />
    <glyph glyph-name="guillemotright.case" horiz-adv-x="1155" 
d="M799 309h-258l278 396l-278 405h256l282 -403zM356 309h-258l277 396l-279 405h256l283 -403z" />
    <glyph glyph-name="questiondown.case" horiz-adv-x="1081" 
d="M459 1012h221q6 -41 6 -84q0 -185 -158 -299l-98 -72q-86 -63 -86 -162q0 -76 53 -129t150 -53q101 0 156 63.5t55 153.5q0 47 -13 84l263 -25q10 -48 10 -90q0 -84 -31.5 -160.5t-89 -137t-148.5 -96.5t-202 -36q-115 0 -208.5 34.5t-151.5 92.5t-89.5 130.5
t-31.5 150.5q0 224 198 364l84 60q111 78 111 198v13zM403 1307q0 67 48 114t116 47t115 -47t47 -114t-47.5 -114.5t-114.5 -47.5q-68 0 -116 47.5t-48 114.5z" />
    <glyph glyph-name="endash.case" horiz-adv-x="1314" 
d="M1186 592h-1057v235h1057v-235z" />
    <glyph glyph-name="emdash.case" horiz-adv-x="2183" 
d="M2054 592h-1925v235h1925v-235z" />
    <glyph glyph-name="guilsinglleft.case" horiz-adv-x="712" 
d="M614 309h-258l-280 398l282 403h256l-278 -405z" />
    <glyph glyph-name="guilsinglright.case" horiz-adv-x="710" 
d="M356 309h-258l277 396l-279 405h258l281 -403z" />
    <glyph glyph-name="G.ss01" horiz-adv-x="1591" 
d="M834 -31q-152 0 -289 54.5t-239 151t-162 239.5t-60 311q0 135 39 255t109 210.5t162.5 157t203.5 101t229 34.5q114 0 214 -27t174 -72t132 -106t94.5 -127.5t55.5 -138.5l-276 -78q-13 53 -41.5 101.5t-74.5 91.5t-118 68.5t-160 25.5q-69 0 -133 -18t-123 -57.5
t-102.5 -96t-69.5 -140t-26 -184.5q0 -119 37 -214.5t101 -156t147 -93t176 -32.5q148 0 255 74t130 199h-512v246h806q7 -38 7 -105q-2 -139 -49.5 -261.5t-134 -214.5t-216 -145t-286.5 -53z" />
    <glyph glyph-name="Gcircumflex.ss01" horiz-adv-x="1591" 
d="M834 -31q-152 0 -289 54.5t-239 151t-162 239.5t-60 311q0 135 39 255t109 210.5t162.5 157t203.5 101t229 34.5q114 0 214 -27t174 -72t132 -106t94.5 -127.5t55.5 -138.5l-276 -78q-13 53 -41.5 101.5t-74.5 91.5t-118 68.5t-160 25.5q-69 0 -133 -18t-123 -57.5
t-102.5 -96t-69.5 -140t-26 -184.5q0 -119 37 -214.5t101 -156t147 -93t176 -32.5q148 0 255 74t130 199h-512v246h806q7 -38 7 -105q-2 -139 -49.5 -261.5t-134 -214.5t-216 -145t-286.5 -53zM709 1554h-248l246 261h278l250 -261h-256l-137 134z" />
    <glyph glyph-name="Gbreve.ss01" horiz-adv-x="1591" 
d="M834 -31q-152 0 -289 54.5t-239 151t-162 239.5t-60 311q0 135 39 255t109 210.5t162.5 157t203.5 101t229 34.5q114 0 214 -27t174 -72t132 -106t94.5 -127.5t55.5 -138.5l-276 -78q-13 53 -41.5 101.5t-74.5 91.5t-118 68.5t-160 25.5q-69 0 -133 -18t-123 -57.5
t-102.5 -96t-69.5 -140t-26 -184.5q0 -119 37 -214.5t101 -156t147 -93t176 -32.5q148 0 255 74t130 199h-512v246h806q7 -38 7 -105q-2 -139 -49.5 -261.5t-134 -214.5t-216 -145t-286.5 -53zM815 1542q-80 0 -145 24.5t-104.5 64.5t-61 88.5t-23.5 99.5h209
q2 -45 33.5 -75t91.5 -30t91.5 30t33.5 75h209q-2 -51 -23.5 -99.5t-61 -88.5t-104.5 -64.5t-145 -24.5z" />
    <glyph glyph-name="Gdotaccent.ss01" horiz-adv-x="1591" 
d="M834 -31q-152 0 -289 54.5t-239 151t-162 239.5t-60 311q0 135 39 255t109 210.5t162.5 157t203.5 101t229 34.5q114 0 214 -27t174 -72t132 -106t94.5 -127.5t55.5 -138.5l-276 -78q-13 53 -41.5 101.5t-74.5 91.5t-118 68.5t-160 25.5q-69 0 -133 -18t-123 -57.5
t-102.5 -96t-69.5 -140t-26 -184.5q0 -119 37 -214.5t101 -156t147 -93t176 -32.5q148 0 255 74t130 199h-512v246h806q7 -38 7 -105q-2 -139 -49.5 -261.5t-134 -214.5t-216 -145t-286.5 -53zM664 1712q0 69 47.5 116.5t115.5 47.5q69 0 117.5 -47.5t48.5 -116.5
q0 -67 -48.5 -114.5t-117.5 -47.5q-68 0 -115.5 47.5t-47.5 114.5z" />
    <glyph glyph-name="Gcommaaccent.ss01" horiz-adv-x="1591" 
d="M834 -31q-152 0 -289 54.5t-239 151t-162 239.5t-60 311q0 135 39 255t109 210.5t162.5 157t203.5 101t229 34.5q114 0 214 -27t174 -72t132 -106t94.5 -127.5t55.5 -138.5l-276 -78q-13 53 -41.5 101.5t-74.5 91.5t-118 68.5t-160 25.5q-69 0 -133 -18t-123 -57.5
t-102.5 -96t-69.5 -140t-26 -184.5q0 -119 37 -214.5t101 -156t147 -93t176 -32.5q148 0 255 74t130 199h-512v246h806q7 -38 7 -105q-2 -139 -49.5 -261.5t-134 -214.5t-216 -145t-286.5 -53zM692 -209q0 56 43 93.5t107 37.5q70 0 118 -50t48 -128q0 -61 -18.5 -108
t-48 -75t-69 -46t-76.5 -24.5t-77 -6.5v98q71 0 115.5 27.5t50.5 68.5q-28 -14 -60 -14q-62 0 -97.5 35t-35.5 92z" />
    <glyph glyph-name="a.ss02" horiz-adv-x="1257" 
d="M354 508q0 -135 70.5 -218t181.5 -83q108 0 178 82.5t70 218.5q0 135 -69 214t-179 79q-111 0 -181.5 -79t-70.5 -214zM856 125v12q-33 -74 -108.5 -120t-174.5 -46q-146 0 -259 70.5t-173.5 192.5t-60.5 274q0 147 59.5 267t171 190.5t254.5 70.5q64 0 117 -15.5
t86.5 -40t54 -49t31.5 -48.5v125h264v-826q0 -90 8 -182h-260q-10 58 -10 125z" />
    <glyph glyph-name="agrave.ss02" horiz-adv-x="1257" 
d="M354 508q0 -135 70.5 -218t181.5 -83q108 0 178 82.5t70 218.5q0 135 -69 214t-179 79q-111 0 -181.5 -79t-70.5 -214zM856 125v12q-33 -74 -108.5 -120t-174.5 -46q-146 0 -259 70.5t-173.5 192.5t-60.5 274q0 147 59.5 267t171 190.5t254.5 70.5q64 0 117 -15.5
t86.5 -40t54 -49t31.5 -48.5v125h264v-826q0 -90 8 -182h-260q-10 58 -10 125zM530 1128l-278 308h315l185 -308h-222z" />
    <glyph glyph-name="aacute.ss02" horiz-adv-x="1257" 
d="M936 1436l-279 -308h-219l187 308h311zM354 508q0 -135 70.5 -218t181.5 -83q108 0 178 82.5t70 218.5q0 135 -69 214t-179 79q-111 0 -181.5 -79t-70.5 -214zM856 125v12q-33 -74 -108.5 -120t-174.5 -46q-146 0 -259 70.5t-173.5 192.5t-60.5 274q0 147 59.5 267
t171 190.5t254.5 70.5q64 0 117 -15.5t86.5 -40t54 -49t31.5 -48.5v125h264v-826q0 -90 8 -182h-260q-10 58 -10 125z" />
    <glyph glyph-name="acircumflex.ss02" horiz-adv-x="1257" 
d="M475 1130h-213l225 302h271l225 -302h-219l-146 154zM354 508q0 -135 70.5 -218t181.5 -83q108 0 178 82.5t70 218.5q0 135 -69 214t-179 79q-111 0 -181.5 -79t-70.5 -214zM856 125v12q-33 -74 -108.5 -120t-174.5 -46q-146 0 -259 70.5t-173.5 192.5t-60.5 274
q0 147 59.5 267t171 190.5t254.5 70.5q64 0 117 -15.5t86.5 -40t54 -49t31.5 -48.5v125h264v-826q0 -90 8 -182h-260q-10 58 -10 125z" />
    <glyph glyph-name="atilde.ss02" horiz-adv-x="1257" 
d="M354 508q0 -135 70.5 -218t181.5 -83q108 0 178 82.5t70 218.5q0 135 -69 214t-179 79q-111 0 -181.5 -79t-70.5 -214zM856 125v12q-33 -74 -108.5 -120t-174.5 -46q-146 0 -259 70.5t-173.5 192.5t-60.5 274q0 147 59.5 267t171 190.5t254.5 70.5q64 0 117 -15.5
t86.5 -40t54 -49t31.5 -48.5v125h264v-826q0 -90 8 -182h-260q-10 58 -10 125zM983 1425v-36q0 -123 -60 -187.5t-159 -64.5q-81 0 -146 45l-12 8q-4 2 -18.5 12t-22 13.5t-23 7.5t-32.5 4q-69 0 -72 -88h-168v43q0 120 63 184t161 64q61 0 147 -46l12 -8q68 -39 99 -39
q67 0 67 88h164z" />
    <glyph glyph-name="adieresis.ss02" horiz-adv-x="1257" 
d="M258 1286q0 60 41.5 103t101.5 43t103 -43t43 -103t-43 -101.5t-103 -41.5t-101.5 41.5t-41.5 101.5zM688 1286q0 61 41 103.5t102 42.5q60 0 103 -43t43 -103t-43 -101.5t-103 -41.5q-61 0 -102 41.5t-41 101.5zM354 508q0 -135 70.5 -218t181.5 -83q108 0 178 82.5
t70 218.5q0 135 -69 214t-179 79q-111 0 -181.5 -79t-70.5 -214zM856 125v12q-33 -74 -108.5 -120t-174.5 -46q-146 0 -259 70.5t-173.5 192.5t-60.5 274q0 147 59.5 267t171 190.5t254.5 70.5q64 0 117 -15.5t86.5 -40t54 -49t31.5 -48.5v125h264v-826q0 -90 8 -182h-260
q-10 58 -10 125z" />
    <glyph glyph-name="aring.ss02" horiz-adv-x="1257" 
d="M838 1327q0 -96 -70 -160.5t-166 -64.5t-165.5 64.5t-69.5 160.5q0 98 69.5 163.5t165.5 65.5t166 -65.5t70 -163.5zM684 1327q0 38 -24 62t-60 24t-59 -24t-23 -62q0 -37 23.5 -60.5t58.5 -23.5q36 0 60 24t24 60zM354 508q0 -135 70.5 -218t181.5 -83q108 0 178 82.5
t70 218.5q0 135 -69 214t-179 79q-111 0 -181.5 -79t-70.5 -214zM856 125v12q-33 -74 -108.5 -120t-174.5 -46q-146 0 -259 70.5t-173.5 192.5t-60.5 274q0 147 59.5 267t171 190.5t254.5 70.5q64 0 117 -15.5t86.5 -40t54 -49t31.5 -48.5v125h264v-826q0 -90 8 -182h-260
q-10 58 -10 125z" />
    <glyph glyph-name="amacron.ss02" horiz-adv-x="1257" 
d="M354 508q0 -135 70.5 -218t181.5 -83q108 0 178 82.5t70 218.5q0 135 -69 214t-179 79q-111 0 -181.5 -79t-70.5 -214zM856 125v12q-33 -74 -108.5 -120t-174.5 -46q-146 0 -259 70.5t-173.5 192.5t-60.5 274q0 147 59.5 267t171 190.5t254.5 70.5q64 0 117 -15.5
t86.5 -40t54 -49t31.5 -48.5v125h264v-826q0 -90 8 -182h-260q-10 58 -10 125zM891 1182h-576v198h576v-198z" />
    <glyph glyph-name="abreve.ss02" horiz-adv-x="1257" 
d="M354 508q0 -135 70.5 -218t181.5 -83q108 0 178 82.5t70 218.5q0 135 -69 214t-179 79q-111 0 -181.5 -79t-70.5 -214zM856 125v12q-33 -74 -108.5 -120t-174.5 -46q-146 0 -259 70.5t-173.5 192.5t-60.5 274q0 147 59.5 267t171 190.5t254.5 70.5q64 0 117 -15.5
t86.5 -40t54 -49t31.5 -48.5v125h264v-826q0 -90 8 -182h-260q-10 58 -10 125zM612 1124q-153 0 -239.5 90.5t-89.5 219.5h182q3 -48 40 -84.5t107 -36.5t107.5 36.5t40.5 84.5h182q-3 -129 -89.5 -219.5t-240.5 -90.5z" />
    <glyph glyph-name="aogonek.ss02" horiz-adv-x="1257" 
d="M1020 -457q-110 0 -181 60t-71 159q0 151 147 238h-49q-10 58 -10 125v12q-33 -74 -108.5 -120t-174.5 -46q-146 0 -259 70.5t-173.5 192.5t-60.5 274q0 147 59.5 267t171 190.5t254.5 70.5q64 0 117 -15.5t86.5 -40t54 -49t31.5 -48.5v125h264v-826q0 -96 8 -182
q-67 -32 -114 -82t-47 -111q0 -44 28.5 -68t71.5 -24q34 0 61 6v-161q-46 -17 -106 -17zM354 508q0 -135 70.5 -218t181.5 -83q108 0 178 82.5t70 218.5q0 135 -69 214t-179 79q-111 0 -181.5 -79t-70.5 -214z" />
    <glyph glyph-name="aringacute.ss02" horiz-adv-x="1257" 
d="M987 1913l-278 -307h-220l187 307h311zM840 1319q0 -96 -70 -160.5t-166 -64.5t-165.5 64.5t-69.5 160.5q0 98 69.5 163.5t165.5 65.5t166 -65.5t70 -163.5zM686 1319q0 38 -24 62t-60 24t-59 -24t-23 -62q0 -37 23.5 -60.5t58.5 -23.5q36 0 60 24t24 60zM354 508
q0 -135 70.5 -218t181.5 -83q108 0 178 82.5t70 218.5q0 135 -69 214t-179 79q-111 0 -181.5 -79t-70.5 -214zM856 125v12q-33 -74 -108.5 -120t-174.5 -46q-146 0 -259 70.5t-173.5 192.5t-60.5 274q0 147 59.5 267t171 190.5t254.5 70.5q64 0 117 -15.5t86.5 -40t54 -49
t31.5 -48.5v125h264v-826q0 -90 8 -182h-260q-10 58 -10 125z" />
    <glyph glyph-name="r.ss03" horiz-adv-x="800" 
d="M412 1008v-156q5 72 57 121t125 49q76 0 129 -53t53 -129q0 -77 -53 -130t-129 -53q-73 0 -125 47.5t-57 118.5v-823h-273v1008h273z" />
    <glyph glyph-name="racute.ss03" horiz-adv-x="800" 
d="M705 1436l-279 -308h-219l186 308h312zM412 1008v-156q5 72 57 121t125 49q76 0 129 -53t53 -129q0 -77 -53 -130t-129 -53q-73 0 -125 47.5t-57 118.5v-823h-273v1008h273z" />
    <glyph glyph-name="rcommaaccent.ss03" horiz-adv-x="800" 
d="M121 -209q0 56 42.5 93.5t106.5 37.5q70 0 118 -50t48 -128q0 -61 -18.5 -108t-48 -75t-69 -46t-76.5 -24.5t-77 -6.5v98q71 0 115.5 27.5t50.5 68.5q-28 -14 -59 -14q-62 0 -97.5 35t-35.5 92zM412 1008v-156q5 72 57 121t125 49q76 0 129 -53t53 -129q0 -77 -53 -130
t-129 -53q-73 0 -125 47.5t-57 118.5v-823h-273v1008h273z" />
    <glyph glyph-name="rcaron.ss03" horiz-adv-x="798" 
d="M82 1434h219l143 -154l144 154h215l-223 -304h-273zM410 1008v-156q5 72 57 121t125 49q76 0 129 -53t53 -129q0 -77 -53 -130t-129 -53q-73 0 -125 47.5t-57 118.5v-823h-273v1008h273z" />
    <glyph glyph-name="ampersand.ss04" horiz-adv-x="1400" 
d="M760 477v234h592v-234h-150v-8q-3 -102 -41.5 -192t-108 -159t-175.5 -109t-236 -40q-253 0 -404 124t-151 317q0 143 88 244.5t209 133.5q-98 33 -160.5 117.5t-62.5 192.5q0 165 128 275t326 110q120 0 212.5 -33.5t147.5 -91.5t84 -127.5t34 -149.5l-271 -32
q-3 93 -55 147.5t-150 54.5q-73 0 -127.5 -45.5t-54.5 -118.5q0 -45 18.5 -81t48 -56t61 -30.5t61.5 -10.5h22v-233q-49 0 -95 -13.5t-87 -40.5t-65.5 -75.5t-24.5 -112.5q0 -92 70.5 -158.5t203.5 -66.5q123 0 196 68.5t77 191.5v8h-160z" />
    <glyph glyph-name="registered.ss06" horiz-adv-x="948" 
d="M82 1077q0 161 115 276t276 115t277 -115t116 -276t-116 -276t-277 -115t-276 115t-115 276zM190 1077q0 -122 81.5 -205.5t201.5 -83.5t202.5 83.5t82.5 205.5t-82.5 205.5t-202.5 83.5t-201.5 -83.5t-81.5 -205.5zM522 883l-57 133h-25v-133h-112v401h172
q60 0 100.5 -39t40.5 -96q0 -38 -19.5 -68t-52.5 -45l74 -153h-121zM440 1108h33q51 0 51 41t-51 41h-33v-82z" />
    <glyph glyph-name="zero.numr" horiz-adv-x="811" 
d="M279 1075q0 -44 4.5 -78t17 -68.5t39 -53.5t66.5 -19t67.5 19t40 53.5t17 68.5t4.5 78q0 35 -2.5 63t-10.5 58.5t-21.5 51.5t-37.5 34.5t-57 13.5q-40 0 -66.5 -19t-39 -53.5t-17 -69t-4.5 -79.5zM66 1075q0 171 73 268q92 125 267 125q176 0 268 -125q71 -98 71 -268
q0 -168 -71 -266q-90 -125 -268 -125q-177 0 -267 125q-73 97 -73 266z" />
    <glyph glyph-name="one.numr" horiz-adv-x="526" 
d="M438 700h-211v457h-186v135q89 0 144 48.5t67 111.5h186v-752z" />
    <glyph glyph-name="two.numr" horiz-adv-x="733" 
d="M266 1157l-186 -2q-8 28 -8 59q0 110 77.5 182t217.5 72q133 0 211.5 -72t78.5 -177q0 -134 -161 -230l-144 -86q-24 -14 -24 -31h336v-174h-596v25q0 105 42.5 184t139.5 137l123 72q78 47 78 105q0 31 -23 55t-63 24q-48 0 -76.5 -28t-28.5 -78q0 -19 6 -37z" />
    <glyph glyph-name="three.numr" horiz-adv-x="751" 
d="M53 918l187 43q5 -47 39.5 -78t85.5 -31q50 0 80 25.5t30 64.5q0 46 -31 69t-77 23q-38 0 -66 -12l-68 139l179 121h-330v170h582v-168l-185 -125q94 -12 150.5 -69.5t56.5 -151.5q0 -107 -88 -181.5t-233 -74.5q-131 0 -215 69.5t-97 166.5z" />
    <glyph glyph-name="four.numr" horiz-adv-x="792" 
d="M49 844v203l346 405h223v-446h125v-162h-125v-146h-204v146h-365zM414 1006v233l-199 -233h199z" />
    <glyph glyph-name="five.numr" horiz-adv-x="727" 
d="M49 911l182 47q6 -46 41.5 -74t83.5 -28t78.5 26.5t30.5 71.5q0 52 -31 78.5t-84 26.5q-64 0 -106 -45l-170 51l94 387h455v-170h-332l-31 -129q53 47 146 47q121 0 192.5 -65.5t71.5 -178.5q0 -115 -84 -192.5t-230 -77.5q-122 0 -207.5 65t-99.5 160z" />
    <glyph glyph-name="six.numr" horiz-adv-x="770" 
d="M680 1432l-37 -158q-67 24 -133 24q-86 0 -152 -42t-88 -126q63 66 174 66q117 0 192 -64t75 -180q0 -119 -91 -195.5t-231 -76.5q-139 0 -233.5 93t-94.5 253q0 201 124 319.5t313 118.5q105 0 182 -32zM279 946q0 -43 33 -71.5t77 -28.5q45 0 78 28.5t33 71.5
q0 46 -32.5 74.5t-78.5 28.5q-45 0 -77.5 -28.5t-32.5 -74.5z" />
    <glyph glyph-name="seven.numr" horiz-adv-x="704" 
d="M670 1452v-174q-28 -22 -54.5 -47.5t-68 -78.5t-73 -113t-59 -150.5t-36.5 -190.5h-219q8 105 37.5 203.5t66.5 164.5t73 116.5t61 73.5l24 24h-381v172h629z" />
    <glyph glyph-name="eight.numr" horiz-adv-x="763" 
d="M383 1151q43 0 67.5 23t24.5 57q0 29 -24.5 51.5t-67.5 22.5q-44 0 -69 -22.5t-25 -51.5q0 -34 25 -57t69 -23zM383 844q55 0 84 25.5t29 62.5q0 33 -29.5 57.5t-83.5 24.5q-55 0 -84 -24t-29 -58q0 -37 28.5 -62.5t84.5 -25.5zM383 682q-150 0 -235 61.5t-85 163.5
q0 61 41.5 109t108.5 69q-60 20 -93.5 66t-33.5 102q0 93 79.5 153t217.5 60q136 0 215.5 -60t79.5 -153q0 -56 -33.5 -102t-93.5 -66q65 -19 108 -67t43 -107q0 -103 -84 -166t-235 -63z" />
    <glyph glyph-name="nine.numr" horiz-adv-x="761" 
d="M94 715l35 159q74 -24 129 -24q93 0 159 40t85 130q-29 -32 -76.5 -50t-99.5 -18q-112 0 -191.5 65.5t-79.5 178.5q0 121 88.5 196.5t233.5 75.5q138 0 230.5 -93.5t92.5 -254.5q0 -206 -117 -322t-302 -116q-105 0 -187 33zM481 1202q0 43 -32.5 72t-77.5 29
q-46 0 -78.5 -28.5t-32.5 -72.5q0 -46 32 -75t79 -29q46 0 78 29t32 75z" />
    <glyph glyph-name="a.ordn" horiz-adv-x="788" 
d="M498 1024v31l-150 -25q-84 -14 -84 -82q0 -34 23 -57t67 -23q62 0 103 37t41 119zM61 936q0 88 60 143.5t153 69.5l170 25q54 8 54 49q0 37 -29.5 61.5t-85.5 24.5t-90 -32.5t-39 -78.5l-178 39q5 41 26 80.5t57 74.5t95 56.5t131 21.5q158 0 233.5 -76.5t75.5 -195.5
v-346q0 -65 8 -113h-184q-6 36 -6 82q-66 -102 -205 -102q-111 0 -178.5 63.5t-67.5 153.5z" />
    <glyph glyph-name="b.ordn" horiz-adv-x="905" 
d="M301 741h-201v1039h205v-400q25 38 81.5 64t127.5 26q152 0 241 -104.5t89 -267.5q0 -162 -94.5 -267.5t-243.5 -105.5q-69 0 -123 27.5t-82 70.5v-82zM635 1098q0 88 -47.5 136t-120.5 48q-69 0 -116.5 -48t-47.5 -136q0 -87 48 -137t116 -50q71 0 119.5 49.5
t48.5 137.5z" />
    <glyph glyph-name="c.ordn" horiz-adv-x="823" 
d="M436 1280q-72 0 -120 -49t-48 -135t49 -135.5t123 -49.5q61 0 99.5 32.5t52.5 78.5l184 -57q-27 -101 -115.5 -172.5t-220.5 -71.5q-161 0 -271 106t-110 269q0 164 108 270.5t265 106.5q138 0 225.5 -71t114.5 -173l-188 -60q-13 48 -50 79.5t-98 31.5z" />
    <glyph glyph-name="d.ordn" horiz-adv-x="905" 
d="M270 1098q0 -87 47.5 -137t118.5 -50q69 0 116.5 50t47.5 137t-47 135.5t-117 48.5q-71 0 -118.5 -48.5t-47.5 -135.5zM803 1780v-912q0 -53 6 -127h-201q-4 32 -4 78q-23 -41 -75 -67.5t-119 -26.5q-151 0 -251 105.5t-100 267.5q0 159 97 265.5t247 106.5
q81 0 129 -24.5t66 -54.5v389h205z" />
    <glyph glyph-name="e.ordn" horiz-adv-x="827" 
d="M268 1180h295q-2 52 -38 89.5t-109 37.5q-65 0 -105 -39.5t-43 -87.5zM580 995l176 -49q-30 -98 -115.5 -161.5t-212.5 -63.5q-154 0 -261.5 102.5t-107.5 276.5q0 110 50.5 196.5t131 131.5t173.5 45q164 0 258 -97.5t94 -269.5q0 -56 -4 -64h-498q4 -63 52 -104
t116 -41q114 0 148 98z" />
    <glyph glyph-name="f.ordn" horiz-adv-x="569" 
d="M535 1276h-156v-535h-211v535h-115v176h115v68q0 123 71.5 197.5t196.5 74.5q68 0 103 -14v-174q-28 8 -66 8q-37 0 -65.5 -21.5t-28.5 -70.5v-68h156v-176z" />
    <glyph glyph-name="g.ordn" horiz-adv-x="888" 
d="M59 702l185 54q12 -56 54 -89.5t105 -33.5q181 0 181 188v37q-25 -35 -74.5 -59.5t-118.5 -24.5q-143 0 -237.5 98t-94.5 246q0 144 94 246t238 102q77 0 128 -28t69 -64v78h200v-625q0 -78 -22 -144t-66 -119t-117.5 -83t-170.5 -30q-144 0 -240.5 74t-112.5 177z
M428 956q70 0 114 44t44 118t-46.5 120t-111.5 46q-66 0 -112 -46t-46 -120t44 -118t114 -44z" />
    <glyph glyph-name="h.ordn" horiz-adv-x="856" 
d="M309 1159v-418h-209v1039h209v-379q30 34 81.5 51.5t103.5 17.5q132 0 200 -79t68 -203v-447h-209v412q0 58 -31 92.5t-90 34.5q-54 0 -87 -33.5t-36 -87.5z" />
    <glyph glyph-name="i.ordn" horiz-adv-x="409" 
d="M309 743h-209v709h209v-709zM80 1675q0 52 36 88.5t87 36.5q53 0 90 -36.5t37 -88.5q0 -51 -37 -87t-90 -36q-51 0 -87 36t-36 87z" />
    <glyph glyph-name="j.ordn" horiz-adv-x="409" 
d="M100 711v741h209v-764q0 -106 -63 -171.5t-168 -65.5q-72 0 -117 18v174q28 -8 64 -8q75 0 75 76zM80 1677q0 51 36 88t87 37q52 0 89.5 -37t37.5 -88q0 -52 -37 -88.5t-90 -36.5q-51 0 -87 36.5t-36 88.5z" />
    <glyph glyph-name="k.ordn" horiz-adv-x="817" 
d="M807 1452l-281 -297l285 -412h-254l-176 256l-72 -75v-181h-209v1039h209v-576l226 246h272z" />
    <glyph glyph-name="l.ordn" horiz-adv-x="409" 
d="M309 743h-209v1039h209v-1039z" />
    <glyph glyph-name="m.ordn" horiz-adv-x="1292" 
d="M309 743h-209v709h201v-82q25 48 84 76.5t119 28.5q152 0 213 -115q73 115 219 115q70 0 127.5 -27t96 -90t38.5 -154v-461h-203v414q0 57 -28.5 91t-87.5 34q-58 0 -90.5 -36.5t-32.5 -90.5v-412h-207v414q0 57 -30 91t-89 34q-56 0 -88.5 -36.5t-32.5 -90.5v-412z" />
    <glyph glyph-name="n.ordn" horiz-adv-x="856" 
d="M309 1151v-408h-209v709h203v-82q28 50 84.5 76.5t116.5 26.5q126 0 192 -79.5t66 -203.5v-447h-209v412q0 58 -31 92.5t-90 34.5q-57 0 -90 -36.5t-33 -94.5z" />
    <glyph glyph-name="o.ordn" horiz-adv-x="870" 
d="M436 913q69 0 117.5 49t48.5 138q0 88 -48.5 136t-117.5 48t-117.5 -48t-48.5 -136q0 -89 48.5 -138t117.5 -49zM436 1475q160 0 267.5 -106t107.5 -269q0 -164 -107.5 -270.5t-267.5 -106.5q-161 0 -269 106.5t-108 270.5q0 163 108 269t269 106z" />
    <glyph glyph-name="p.ordn" horiz-adv-x="905" 
d="M309 471h-209v981h201v-76q27 40 83 67t130 27q152 0 241 -103.5t89 -266.5q0 -162 -94.5 -267.5t-243.5 -105.5q-68 0 -119.5 21t-77.5 55v-332zM637 1100q0 86 -47 134t-117 48q-71 0 -119.5 -48t-48.5 -134q0 -87 48.5 -137t119.5 -50q69 0 116.5 50t47.5 137z" />
    <glyph glyph-name="q.ordn" horiz-adv-x="905" 
d="M805 471h-205v334q-55 -78 -190 -78q-152 0 -251.5 106t-99.5 267q0 160 96 265t248 105q83 0 134 -28.5t67 -61.5v72h201v-981zM270 1100q0 -87 48 -137t118 -50t118 50t48 137t-48 134.5t-118 47.5q-71 0 -118.5 -47.5t-47.5 -134.5z" />
    <glyph glyph-name="r.ordn" horiz-adv-x="579" 
d="M545 1454v-207q-16 4 -47 4q-40 0 -71.5 -8t-59.5 -28.5t-43 -60t-15 -97.5v-314h-209v709h203v-96q25 48 77 76t116 28q25 0 49 -6z" />
    <glyph glyph-name="s.ordn" horiz-adv-x="698" 
d="M57 944l179 33q2 -40 31.5 -69t84.5 -29q42 0 64 17.5t22 45.5q0 49 -71 62l-84 18q-106 25 -157.5 82.5t-51.5 134.5q0 98 77 167t193 69q73 0 129 -21t87 -54t47.5 -67t19.5 -67l-174 -33q-5 37 -31 62.5t-76 25.5q-33 0 -57.5 -18.5t-24.5 -45.5q0 -43 60 -57l96 -20
q105 -21 161 -80.5t56 -138.5q0 -97 -74.5 -167.5t-208.5 -70.5q-63 0 -114.5 15.5t-83.5 39t-54.5 54t-32.5 58.5t-12 54z" />
    <glyph glyph-name="t.ordn" horiz-adv-x="577" 
d="M371 1663v-211h139v-182h-139v-277q0 -42 20 -58.5t60 -16.5q31 0 59 4v-172q-38 -19 -113 -19q-109 0 -171 60.5t-62 164.5v314h-127v182h37q53 0 81.5 32.5t28.5 82.5v96h187z" />
    <glyph glyph-name="u.ordn" horiz-adv-x="858" 
d="M563 743q-6 42 -6 74q-28 -45 -80 -67.5t-112 -22.5q-125 0 -198 79.5t-73 197.5v448h209v-403q0 -58 30.5 -94.5t88.5 -36.5t91.5 35.5t33.5 93.5v405h209v-582q0 -62 6 -127h-199z" />
    <glyph glyph-name="v.ordn" horiz-adv-x="780" 
d="M772 1452l-272 -709h-209l-291 709h227l168 -451l158 451h219z" />
    <glyph glyph-name="w.ordn" horiz-adv-x="1236" 
d="M514 1452h221l144 -430l120 430h207l-221 -709h-207l-160 467l-155 -467h-211l-223 709h219l121 -430z" />
    <glyph glyph-name="x.ordn" horiz-adv-x="788" 
d="M23 743l247 355l-250 354h248l129 -195l131 195h234l-244 -346l252 -363h-244l-137 205l-135 -205h-231z" />
    <glyph glyph-name="y.ordn" horiz-adv-x="794" 
d="M354 469h-219l162 367l-299 616h233l181 -391l161 391h222z" />
    <glyph glyph-name="z.ordn" horiz-adv-x="737" 
d="M666 743h-594v185l319 346h-311v178h579v-172l-331 -356h338v-181z" />
    <glyph glyph-name="numbersign.tf" 
d="M676 555l69 324h-217l-69 -324h217zM557 0l76 358h-217l-76 -358h-217l76 358h-176v197h219l69 324h-186v196h227l80 377h217l-80 -377h217l80 377h219l-81 -377h165v-196h-206l-70 -324h172v-197h-215l-76 -358h-217z" />
    <glyph glyph-name="dollar.tf" 
d="M723 -238h-211v244q-107 15 -192.5 59.5t-138.5 106t-83 129.5t-37 139l248 64q11 -112 90 -188t219 -76q106 0 167 48t61 124q0 64 -45 107.5t-125 58.5l-199 38q-169 34 -266.5 140.5t-97.5 259.5q0 165 113.5 283.5t285.5 146.5v244h211v-248q87 -15 156 -52
t112.5 -88t69.5 -105t37 -112l-244 -71q-6 34 -21.5 65.5t-44 62.5t-78 49.5t-112.5 18.5q-94 0 -155.5 -51.5t-61.5 -122.5q0 -61 39 -102.5t115 -56.5l194 -37q188 -36 290.5 -146.5t102.5 -263.5t-107 -272.5t-292 -149.5v-246z" />
    <glyph glyph-name="percent.tf" 
d="M1085 1161v-200l-987 -670v196zM233 1184q0 -52 31.5 -84.5t79.5 -32.5t79.5 33t31.5 84q0 52 -31.5 84t-79.5 32t-79.5 -32t-31.5 -84zM53 1184q0 119 85.5 201.5t205.5 82.5q118 0 203.5 -82.5t85.5 -201.5q0 -120 -85.5 -201.5t-205.5 -81.5q-119 0 -204 82.5
t-85 200.5zM748 268q0 -52 31 -84t79 -32t79.5 32.5t31.5 83.5q0 52 -31.5 84.5t-79.5 32.5t-79 -32.5t-31 -84.5zM567 268q0 119 86 202t205 83q118 0 203.5 -83t85.5 -202q0 -120 -85.5 -201t-205.5 -81q-119 0 -204 82t-85 200z" />
    <glyph glyph-name="plus.tf" 
d="M713 1225v-400h387v-223h-387v-399h-232v399h-387v223h387v400h232z" />
    <glyph glyph-name="zero.tf" 
d="M25 727q0 323 122 518q151 236 449 236q297 0 448 -236q125 -200 125 -518q0 -324 -125 -520q-147 -236 -448 -236q-298 0 -449 236q-122 195 -122 520zM885 727q0 510 -289 510q-287 0 -287 -510q0 -512 287 -512q289 0 289 512z" />
    <glyph glyph-name="one.tf" 
d="M145 240h347v772h-308v190q141 1 232 71.5t112 178.5h244v-1212h324v-240h-951v240z" />
    <glyph glyph-name="two.tf" 
d="M1110 0h-1040q2 97 18 178.5t52 160.5t100.5 146t156.5 121l246 144q97 57 139.5 118t42.5 144q0 92 -62.5 154.5t-162.5 62.5q-113 0 -180.5 -69.5t-67.5 -184.5q0 -44 8 -80l-268 8q-10 38 -10 103q0 96 35.5 181.5t100.5 151t163.5 104t216.5 38.5q115 0 212 -37
t161.5 -100t100.5 -147.5t36 -178.5q0 -279 -281 -445l-290 -172q-48 -30 -82.5 -71.5t-44.5 -85.5h700v-244z" />
    <glyph glyph-name="three.tf" 
d="M1124 444q0 -95 -38 -181t-106 -151t-169.5 -103t-222.5 -38q-233 0 -380 131.5t-161 323.5l268 57q6 -119 81 -193.5t190 -74.5t184.5 68t69.5 168q0 113 -69.5 174t-176.5 61q-71 0 -131 -31l-121 197l387 356h-639v244h993v-231l-376 -338q111 0 205 -52t153 -154
t59 -233z" />
    <glyph glyph-name="four.tf" 
d="M8 313v293l600 846h348v-893h228v-246h-228v-313h-280v313h-668zM676 559v592l-416 -592h416z" />
    <glyph glyph-name="five.tf" 
d="M59 403l260 58q9 -105 81.5 -175.5t185.5 -70.5q110 0 183 69.5t73 182.5q0 124 -73 193t-183 69q-75 0 -136.5 -31.5t-95.5 -79.5q-7 4 -66 24.5t-120 41.5t-66 23l152 745h801v-244h-606l-72 -350q47 47 120.5 71.5t151.5 24.5q218 0 345.5 -128.5t127.5 -354.5
q0 -100 -37 -190.5t-104.5 -159.5t-169.5 -109.5t-225 -40.5q-110 0 -207 35.5t-164 95.5t-108 138t-48 163z" />
    <glyph glyph-name="six.tf" 
d="M686 958q211 0 340 -132.5t129 -350.5q0 -219 -155 -361.5t-384 -142.5q-118 0 -220.5 44.5t-179.5 127.5t-121 210t-44 284q0 197 57 357t159.5 266.5t244 163.5t309.5 57q193 0 299 -68l-78 -231q-105 55 -235 55q-199 0 -324 -120t-153 -333q45 77 138 125.5t218 48.5
zM356 467q0 -114 76 -185t182 -71q109 0 186 70t77 186q0 120 -76 190t-187 70q-107 0 -182.5 -71.5t-75.5 -188.5z" />
    <glyph glyph-name="seven.tf" 
d="M1141 1452v-254q-62 -57 -119.5 -120.5t-136 -176.5t-137.5 -236t-109.5 -299t-67.5 -366h-292q13 154 49 302t78 257.5t102 217t103 171.5t100 131t75.5 85.5t44.5 43.5h-761v244h1071z" />
    <glyph glyph-name="eight.tf" 
d="M598 637q-125 0 -193.5 -62.5t-68.5 -154.5q0 -88 71 -152.5t191 -64.5q121 0 190.5 64t69.5 153q0 92 -68 154.5t-192 62.5zM598 -29q-241 0 -390 117t-149 301q0 121 72 218t191 138q-107 37 -170.5 129.5t-63.5 196.5q0 179 142.5 294.5t367.5 115.5q224 0 367 -115.5
t143 -294.5q0 -104 -64 -196.5t-174 -129.5q121 -41 194 -138t73 -218q0 -184 -149 -301t-390 -117zM598 846q106 3 166.5 60.5t60.5 144.5q0 82 -61 138t-166 56q-106 0 -168.5 -56t-62.5 -138q0 -87 62.5 -144.5t168.5 -60.5z" />
    <glyph glyph-name="nine.tf" 
d="M424 -29q-96 0 -191.5 25.5t-150.5 66.5l72 226q45 -30 118 -52t148 -22q196 0 314 113t128 331q-40 -73 -130.5 -119t-199.5 -46q-132 0 -242.5 57.5t-178.5 169t-68 256.5q0 221 151.5 362.5t385.5 141.5q119 0 219.5 -44.5t176 -129t118.5 -218t43 -301.5
q0 -393 -184 -605t-529 -212zM821 987q0 112 -73.5 183t-180.5 71t-180.5 -71t-73.5 -183q0 -114 73.5 -186t180.5 -72q108 0 181 72t73 186z" />
    <glyph glyph-name="less.tf" 
d="M399 719l605 -295v-256l-881 442v207l881 447v-254z" />
    <glyph glyph-name="equal.tf" 
d="M1094 811h-994v219h994v-219zM1094 403h-994v220h994v-220z" />
    <glyph glyph-name="greater.tf" 
d="M193 420l606 293l-606 295v256l880 -447v-205l-880 -444v252z" />
    <glyph glyph-name="cent.tf" 
d="M1108 532q-31 -122 -127.5 -215.5t-241.5 -119.5v-197h-211v199q-187 33 -306.5 176t-119.5 346q0 206 119 349.5t307 176.5v205h211v-207q144 -27 238 -118.5t125 -215.5l-244 -77q-20 73 -76 121.5t-151 48.5q-112 0 -185 -76.5t-73 -206.5q0 -129 74.5 -205t187.5 -76
q94 0 153 49t80 119z" />
    <glyph glyph-name="sterling.tf" 
d="M1161 412q-2 -186 -107 -299t-286 -113h-694v217q97 39 157 122.5t60 188.5q0 57 -10 93h-197v206h133q-47 128 -47 242q0 170 125 291t332 121q90 0 164 -24t122.5 -63t82 -91.5t48.5 -106.5t17 -111l-240 -41q-2 93 -51 151t-141 58q-82 0 -138.5 -53t-56.5 -147
q0 -21 2.5 -43.5t5 -37.5t10 -39.5t10.5 -33.5t13 -37.5t12 -34.5h394v-206h-336q4 -46 4 -70q0 -95 -36.5 -180t-104.5 -133h323q87 0 139 53t54 141z" />
    <glyph glyph-name="currency.tf" 
d="M961 195l-148 149q-95 -53 -213 -53t-217 55l-150 -151l-165 163l147 150q-59 94 -59 217q0 121 59 221l-147 152l165 162l152 -154q99 55 215 55q120 0 209 -53l149 152l166 -162l-143 -150q61 -97 61 -223q0 -124 -61 -223l143 -144zM385 725q0 -94 60.5 -153.5
t154.5 -59.5q93 0 153 60t60 153t-60 153t-153 60q-94 0 -154.5 -59.5t-60.5 -153.5z" />
    <glyph glyph-name="yen.tf" 
d="M1073 276h-334v-276h-266v276h-393v195h393v137h-393v193h287l-344 651h294l293 -580l295 580h289l-350 -651h229v-193h-334v-137h334v-195z" />
    <glyph glyph-name="logicalnot.tf" 
d="M1075 389h-235v399h-768v228h1003v-627z" />
    <glyph glyph-name="plusminus.tf" 
d="M1075 752h-364v-250h-232v250h-362v221h362v252h232v-252h364v-221zM1075 201h-958v223h958v-223z" />
    <glyph glyph-name="multiply.tf" 
d="M260 1223l338 -344l338 344l162 -162l-340 -344l340 -344l-162 -166l-340 344l-338 -342l-162 164l338 344l-336 344z" />
    <glyph glyph-name="divide.tf" 
d="M430 340q0 65 47 111.5t113 46.5t114 -47t48 -111q0 -65 -48 -112.5t-114 -47.5t-113 47.5t-47 112.5zM430 1092q0 65 47 111t113 46t114 -46.5t48 -110.5q0 -66 -48 -114t-114 -48t-113 48t-47 114zM1098 602h-1004v225h1004v-225z" />
    <glyph glyph-name="perthousand.tf" 
d="M1092 1321v-203l-1002 -715v197zM45 1221q0 105 75 178.5t179 73.5q105 0 180.5 -73.5t75.5 -178.5t-75.5 -177.5t-180.5 -72.5q-106 0 -180 72.5t-74 177.5zM201 1221q0 -45 28 -75t70 -30q43 0 70.5 29.5t27.5 75.5q0 44 -27.5 73t-70.5 29q-42 0 -70 -29t-28 -73z
M426 231q0 -45 28 -74.5t70 -29.5q43 0 71 29t28 75q0 44 -28 73.5t-71 29.5q-41 0 -69.5 -29.5t-28.5 -73.5zM784 231q0 -45 29 -74.5t72 -29.5q41 0 68.5 29t27.5 75q0 44 -27.5 73.5t-68.5 29.5q-43 0 -72 -29t-29 -74zM270 231q0 105 75 178.5t179 73.5q103 0 181 -75
q75 75 180 75q104 0 179 -73.5t75 -178.5t-75 -177t-179 -72q-110 0 -180 73q-73 -73 -181 -73q-105 0 -179.5 72t-74.5 177z" />
    <glyph glyph-name="Euro.tf" 
d="M1147 20q-120 -51 -258 -51q-241 0 -413 131t-238 353h-185v204h150q-2 18 -2 56q0 48 2 71h-150v203h189q70 227 249.5 360.5t423.5 133.5q128 0 238 -45l-72 -234q-80 33 -170 33q-131 0 -228 -64.5t-148 -183.5h469l-62 -203h-457q-4 -40 -4 -63q0 -44 2 -64h422
l-61 -204h-314q47 -111 142 -171.5t235 -60.5q97 0 176 29z" />
    <glyph glyph-name="minus.tf" 
d="M1085 604h-974v223h974v-223z" />
    <glyph glyph-name="approxequal.tf" 
d="M997 647l146 -123q-57 -98 -144 -150t-190 -52q-111 0 -219 61l-98 53q-60 29 -113 29q-102 0 -174 -96l-150 120q57 97 143 151t185 54q113 0 225 -59l97 -53q64 -33 116 -33q108 0 176 98zM997 1057l146 -119q-56 -99 -143 -152t-189 -55q-108 0 -221 64l-98 53
q-54 29 -111 29q-104 0 -176 -97l-150 121q58 100 144.5 153.5t187.5 53.5q108 0 221 -61l97 -52q54 -32 116 -32q109 0 176 94z" />
    <glyph glyph-name="notequal.tf" 
d="M1092 401h-564l-129 -198h-247l131 198h-185v222h328l123 186h-451v219h592l123 189h246l-123 -189h156v-219h-297l-123 -186h420v-222z" />
    <glyph glyph-name="lessequal.tf" 
d="M1028 481l-881 277v223l881 276v-225l-573 -160l573 -159v-232zM1028 201h-881v223h881v-223z" />
    <glyph glyph-name="greaterequal.tf" 
d="M166 481v228l571 157l-571 164v227l881 -276v-223zM1047 201h-881v223h881v-223z" />
    <glyph glyph-name="one.ss05" horiz-adv-x="1036" 
d="M106 987v193q141 12 231.5 86.5t111.5 185.5h245v-1208h303v-244h-895v244h312v743h-308z" />
    <glyph glyph-name="florin.ss09" horiz-adv-x="1089" 
d="M248 55l145 721h-200v230h247l39 188q16 82 55 145.5t92 101t112.5 56.5t123.5 19q65 0 99 -5.5t83 -21.5v-236q-69 15 -126 15q-142 0 -173 -154l-22 -108h240v-230h-287l-162 -803q-16 -81 -55 -144.5t-92 -101t-113 -56.5t-123 -19q-66 0 -102.5 6.5t-85.5 22.5v233
q65 -14 133 -14q141 0 172 155z" />
    <glyph glyph-name="daggerdbl.ss09" horiz-adv-x="944" 
d="M106 506h252v440h-252v211h252v295h228v-295h252v-211h-252v-440h252v-211h-252v-295h-228v295h-252v211z" />
    <glyph glyph-name="caron.alt" horiz-adv-x="436" 
d="M383 1452l-147 -405h-183l60 405h270z" />
    <glyph glyph-name="commaturn" horiz-adv-x="380" 
d="M350 1239q0 -57 -42 -94t-107 -37q-71 0 -118.5 49.5t-47.5 126.5q0 69 27.5 122t72 81.5t92.5 42.5t97 14v-98q-72 0 -116.5 -27.5t-49.5 -66.5q1 1 8 4.5t21 6.5t28 3q63 0 99 -35.5t36 -91.5z" />
    <glyph glyph-name="dieresis.narrow" horiz-adv-x="679" 
d="M31 1288q0 58 39.5 97.5t99.5 39.5q57 0 97 -40t40 -97q0 -60 -39.5 -99.5t-97.5 -39.5q-60 0 -99.5 39.5t-39.5 99.5zM375 1288q0 57 39 97t96 40q58 0 98.5 -40t40.5 -97q0 -60 -40 -99.5t-99 -39.5q-57 0 -96 39.5t-39 99.5z" />
    <glyph glyph-name="dieresis.uc.narrow" horiz-adv-x="722" 
d="M33 1686q0 60 39.5 100.5t99.5 40.5t101.5 -40.5t41.5 -100.5t-41.5 -101t-101.5 -41t-99.5 41t-39.5 101zM410 1686q0 60 39.5 100.5t99.5 40.5t100.5 -40.5t40.5 -100.5t-40.5 -101t-100.5 -41t-99.5 41t-39.5 101z" />
    <glyph glyph-name="grave.uc" horiz-adv-x="598" 
d="M317 1554l-297 261h334l213 -261h-250z" />
    <glyph glyph-name="dieresis.uc" horiz-adv-x="909" 
d="M43 1686q0 62 41.5 104.5t103.5 42.5q63 0 106.5 -42.5t43.5 -104.5q0 -63 -43.5 -105.5t-106.5 -42.5t-104 42.5t-41 105.5zM571 1686q0 62 42.5 104.5t105.5 42.5t106 -42.5t43 -104.5q0 -63 -43 -105.5t-106 -42.5t-105.5 42.5t-42.5 105.5z" />
    <glyph glyph-name="macron.uc" horiz-adv-x="690" 
d="M657 1585h-624v205h624v-205z" />
    <glyph glyph-name="acute.uc" horiz-adv-x="598" 
d="M578 1815l-297 -261h-250l211 261h336z" />
    <glyph glyph-name="circumflex.uc" horiz-adv-x="841" 
d="M287 1554h-248l246 261h278l250 -261h-256l-137 134z" />
    <glyph glyph-name="caron.uc" horiz-adv-x="841" 
d="M39 1815h254l135 -132l137 132h248l-250 -261h-278z" />
    <glyph glyph-name="breve.uc" horiz-adv-x="753" 
d="M377 1542q-80 0 -145 24.5t-104.5 64.5t-61 88.5t-23.5 99.5h209q2 -45 33.5 -75t91.5 -30t91.5 30t33.5 75h209q-2 -51 -23.5 -99.5t-61 -88.5t-104.5 -64.5t-145 -24.5z" />
    <glyph glyph-name="dotaccent.uc" horiz-adv-x="395" 
d="M33 1706q0 69 48 116.5t116 47.5q69 0 117 -47.5t48 -116.5q0 -68 -48 -115t-117 -47q-68 0 -116 47.5t-48 114.5z" />
    <glyph glyph-name="ring.uc" horiz-adv-x="602" 
d="M569 1782q0 -112 -79 -186t-189 -74q-109 0 -188.5 74.5t-79.5 185.5t79.5 185.5t188.5 74.5q110 0 189 -74t79 -186zM397 1782q0 43 -27.5 69.5t-68.5 26.5q-42 0 -70 -26.5t-28 -69.5q0 -44 28 -71.5t70 -27.5q41 0 68.5 27.5t27.5 71.5z" />
    <glyph glyph-name="tilde.uc" horiz-adv-x="761" 
d="M729 1823v-58q0 -108 -59 -166.5t-148 -58.5q-79 0 -153 49l-13 8q-66 41 -98 41q-59 0 -59 -88h-164v56q0 108 59 165.5t148 57.5q74 0 155 -47l13 -8q9 -4 26 -13t26 -13.5t21.5 -8.5t22.5 -4q27 0 43 15.5t16 47.5v25h164z" />
    <glyph glyph-name="hungarumlaut.uc" horiz-adv-x="784" 
d="M401 1815l-192 -261h-176l108 261h260zM752 1815l-222 -261h-180l137 261h265z" />
    <glyph glyph-name="caron.alt.uc" horiz-adv-x="434" 
d="M399 1452l-153 -426h-193l64 426h282z" />
    <glyph glyph-name="undercommaaccent" horiz-adv-x="382" 
d="M33 -209q0 56 42.5 93.5t106.5 37.5q70 0 118 -50t48 -128q0 -61 -18.5 -108t-48 -75t-69 -46t-76.5 -24.5t-77 -6.5v98q71 0 115.5 27.5t50.5 68.5q-28 -14 -59 -14q-62 0 -97.5 35t-35.5 92z" />
    </font>
</defs>
</svg>
