<?xml version="1.0" standalone="no"?>
<!DOCTYPE svg PUBLIC "-//W3C//DTD SVG 1.1//EN" "http://www.w3.org/Graphics/SVG/1.1/DTD/svg11.dtd" >
<svg xmlns="http://www.w3.org/2000/svg" xmlns:xlink="http://www.w3.org/1999/xlink" version="1.1">
<metadata>
Created by FontForge 20201107 at Fri Jul  5 09:34:29 2024
 By 
(c) 2015, Copyright by Lineto. All rights reserved.
</metadata>
<defs>
<font id="CircularSpotifyText-BlackItalic" horiz-adv-x="1202" >
  <font-face 
    font-family="Circular Spotify Text Black"
    font-weight="900"
    font-style="italic"
    font-stretch="normal"
    units-per-em="2048"
    panose-1="2 11 10 4 2 1 1 1 1 2"
    ascent="1536"
    descent="-512"
    x-height="1018"
    cap-height="1452"
    bbox="-520 -774 10056 2148"
    underline-thickness="102"
    underline-position="-204"
    slope="-12"
    unicode-range="U+000D-FEFF"
  />
<missing-glyph horiz-adv-x="1597" 
d="M229 0v1452h1188v-1452h-1188zM483 254h680v944h-680v-944z" />
    <glyph glyph-name="f_f" unicode="ff" horiz-adv-x="1472" 
d="M414 0h-314l162 756h-172l55 262h172l27 127q40 183 149.5 269.5t272.5 86.5q47 0 99.5 -11t82.5 -28l-53 -254l-9 4q-8 4 -31 9.5t-52 5.5q-56 0 -99.5 -27.5t-56.5 -85.5l-20 -96h372l27 127q40 183 149.5 269.5t270.5 86.5q48 0 101 -11t83 -28l-53 -254l-9 4
q-8 4 -31 9.5t-52 5.5q-57 0 -100 -27.5t-56 -85.5l-20 -96h211l-58 -262h-209l-157 -756h-314l160 756h-371z" />
    <glyph glyph-name="f_f_i" unicode="ffi" horiz-adv-x="2021" 
d="M1704 1315q0 83 57 139.5t142 56.5q73 0 118 -44.5t45 -112.5q0 -86 -59.5 -141.5t-140.5 -55.5q-70 0 -116 45t-46 113zM414 0h-314l162 756h-172l55 262h172l27 127q40 183 149.5 269.5t272.5 86.5q47 0 99.5 -11t82.5 -28l-53 -254l-9 4q-8 4 -31 9.5t-52 5.5
q-56 0 -99.5 -27.5t-56.5 -85.5l-20 -96h372l27 127q40 183 149.5 269.5t270.5 86.5q48 0 101 -11t83 -28l-53 -254l-9 4q-8 4 -31 9.5t-52 5.5q-57 0 -100 -27.5t-56 -85.5l-20 -96h667l-215 -1018h-311l162 756h-359l-157 -756h-314l160 756h-371z" />
    <glyph glyph-name="f_f_l" unicode="ffl" horiz-adv-x="2035" 
d="M414 0h-314l162 756h-172l55 262h172l27 127q40 183 149.5 269.5t272.5 86.5q47 0 99.5 -11t82.5 -28l-53 -254l-9 4q-8 4 -31 9.5t-52 5.5q-56 0 -99.5 -27.5t-56.5 -85.5l-20 -96h372l27 127q40 183 149.5 269.5t270.5 86.5q48 0 101 -11t83 -28l-53 -254l-9 4
q-8 4 -31 9.5t-52 5.5q-57 0 -100 -27.5t-56 -85.5l-20 -96h372l97 465h313l-315 -1483h-312l160 756h-371l-157 -756h-314l160 756h-371z" />
    <glyph glyph-name="f_i" unicode="fi" horiz-adv-x="1345" 
d="M571 756l-157 -756h-314l162 756h-172l55 262h172l33 145q39 172 147 255t269 83q47 0 99.5 -11t82.5 -28l-53 -254l-9 4q-10 4 -34 9.5t-53 5.5q-124 0 -154 -129l-18 -80h676l-218 -1018h-311l160 756h-363zM1028 1315q0 83 58 139.5t143 56.5q71 0 116.5 -44.5
t45.5 -112.5q0 -86 -60 -141.5t-141 -55.5q-70 0 -116 45t-46 113z" />
    <glyph glyph-name="f_l" unicode="fl" horiz-adv-x="1343" 
d="M571 756l-157 -756h-314l162 756h-172l55 262h172l33 145q39 172 147 255t269 83q47 0 99.5 -11t82.5 -28l-53 -254l-9 4q-10 4 -34 9.5t-53 5.5q-125 0 -154 -131l-18 -78h360l100 465h312l-316 -1483h-311l160 756h-361z" />
    <glyph glyph-name="f_y" unicode="fy" horiz-adv-x="1892" 
d="M1071 -389h-342l338 545l-147 600h-349l-157 -756h-314l162 756h-172l55 262h172l33 145q39 172 147 255t269 83q47 0 99.5 -11t82.5 -28l-53 -254l-9 4q-10 4 -34 9.5t-53 5.5q-125 0 -154 -131l-18 -78h555l114 -543l318 543h344z" />
    <glyph glyph-name=".notdef" horiz-adv-x="1597" 
d="M229 0v1452h1188v-1452h-1188zM483 254h680v944h-680v-944z" />
    <glyph glyph-name=".null" horiz-adv-x="0" 
 />
    <glyph glyph-name=".null" horiz-adv-x="0" 
 />
    <glyph glyph-name="uni000D" unicode="&#xd;" horiz-adv-x="468" 
 />
    <glyph glyph-name="space" unicode=" " horiz-adv-x="468" 
 />
    <glyph glyph-name="exclam" unicode="!" horiz-adv-x="587" 
d="M143 455l140 997h372l-282 -997h-230zM29 137q0 81 57.5 139t136.5 58q71 0 115.5 -46.5t44.5 -111.5q0 -81 -59 -138.5t-134 -57.5q-71 0 -116 45.5t-45 111.5z" />
    <glyph glyph-name="quotedbl" unicode="&#x22;" horiz-adv-x="892" 
d="M352 872h-106l-23 355q0 1 -0.5 9.5t-1 25t-0.5 36.5q0 76 52 126.5t128 50.5q70 0 115 -42t45 -106q0 -36 -29 -96zM754 872h-107l-22 355q0 1 -0.5 9.5t-1 25t-0.5 36.5q0 76 52 126.5t128 50.5q70 0 115 -42t45 -106q0 -36 -29 -96z" />
    <glyph glyph-name="numbersign" unicode="#" horiz-adv-x="1466" 
d="M180 905v215h297l72 332h233l-71 -332h258l71 332h236l-72 -332h250v-215h-295l-72 -327h252v-218h-299l-75 -360h-236l76 360h-258l-76 -360h-233l75 360h-243v218h290l72 327h-252zM666 905l-72 -327h258l72 327h-258z" />
    <glyph glyph-name="dollar" unicode="$" horiz-adv-x="1191" 
d="M563 268q89 0 139 39.5t50 106.5q0 46 -22 79t-79 56l-164 65q-138 57 -206 156.5t-68 228.5q0 185 130 308t321 141l47 238h258l-56 -263q64 -21 115.5 -56.5t83 -75t52.5 -85t29.5 -85.5t8.5 -77l-289 -47q0 16 -3 34.5t-15.5 47t-33.5 50t-61 37.5t-93 16
q-82 0 -131.5 -47t-49.5 -109q0 -90 99 -131l147 -64q159 -67 231 -164.5t72 -228.5q0 -80 -31.5 -155t-89 -136t-147 -100.5t-197.5 -46.5l-49 -238h-258l55 267q-85 27 -149.5 75.5t-101 107t-54.5 118t-18 116.5q0 30 4 54l287 49q-4 -20 -4 -45q0 -98 60.5 -167
t180.5 -69z" />
    <glyph glyph-name="percent" unicode="%" horiz-adv-x="1789" 
d="M1659 1452l-1202 -1452h-275l1202 1452h275zM498 1004q54 0 95.5 41t41.5 112q0 49 -28.5 81t-76.5 32q-55 0 -96 -42t-41 -112q0 -50 28 -80.5t77 -31.5zM481 797q-134 0 -220.5 88.5t-86.5 218.5q0 107 54 193.5t139 133t180 46.5q132 0 219.5 -89.5t87.5 -218.5
q0 -107 -54.5 -194t-139.5 -132.5t-179 -45.5zM1311 182q54 0 95.5 41.5t41.5 112.5q0 49 -28.5 81t-76.5 32q-55 0 -96 -42t-41 -112q0 -50 28 -81t77 -32zM1294 -25q-134 0 -220.5 88.5t-86.5 219.5q0 160 112.5 266t260.5 106q132 0 219.5 -89t87.5 -218
q0 -107 -54.5 -194t-139.5 -133t-179 -46z" />
    <glyph glyph-name="ampersand" unicode="&#x26;" horiz-adv-x="1415" 
d="M1278 0h-344l-96 137l-29 -24q-155 -131 -352 -131q-99 0 -180.5 32t-133 85.5t-79 119.5t-27.5 137q0 78 23 143t69 117t101 92.5t132 82.5l17 8l-12 18q-99 143 -99 268q0 96 37 173t99 125.5t140 74t163 25.5q172 0 280.5 -98t108.5 -242q-1 -68 -22.5 -126
t-63 -104.5t-89.5 -82.5t-114 -72l-41 -23l145 -211l453 385l-86 -403l-223 -187zM340 389q0 -57 43.5 -99t108.5 -42q89 0 182 78l20 16l-178 258l-33 -18q-71 -38 -107 -83t-36 -110zM627 934l59 33q119 64 119 153q0 48 -33.5 79.5t-89.5 31.5q-50 0 -89.5 -34
t-39.5 -101q0 -54 47 -121z" />
    <glyph glyph-name="quotesingle" unicode="'" horiz-adv-x="491" 
d="M352 872h-106l-23 355q0 1 -0.5 9.5t-1 25t-0.5 36.5q0 76 52 126.5t128 50.5q70 0 115 -42t45 -106q0 -36 -29 -96z" />
    <glyph glyph-name="parenleft" unicode="(" horiz-adv-x="733" 
d="M78 428q0 428 171.5 737.5t518.5 538.5l139 -184q-569 -403 -569 -1074q0 -180 56.5 -352t154.5 -311l-205 -145q-114 157 -190 364t-76 426z" />
    <glyph glyph-name="parenright" unicode=")" horiz-adv-x="733" 
d="M684 907q0 -779 -696 -1269l-142 184q101 78 182.5 158.5t156.5 183t126 212.5t81 246t30 285q0 177 -55 345.5t-154 301.5l209 144q262 -367 262 -791z" />
    <glyph glyph-name="asterisk" unicode="*" horiz-adv-x="989" 
d="M784 1452l-51 -254l246 76l37 -234l-250 -71l113 -195l-211 -135l-117 207l-193 -213l-170 141l195 211l-221 72l104 219l219 -74l45 250h254z" />
    <glyph glyph-name="plus" unicode="+" horiz-adv-x="1218" 
d="M768 608v-399h-262v399h-389v254h389v400h262v-400h389v-254h-389z" />
    <glyph glyph-name="comma" unicode="," horiz-adv-x="606" 
d="M2 158q0 92 64 151.5t157 59.5t148 -62t55 -155q0 -210 -144.5 -353t-353.5 -155l33 149q78 7 157.5 65.5t98.5 145.5q-16 -8 -47 -8q-76 0 -122 46.5t-46 115.5z" />
    <glyph glyph-name="hyphen" unicode="-" horiz-adv-x="862" 
d="M709 477h-613l60 281h614z" />
    <glyph glyph-name="period" unicode="." horiz-adv-x="591" 
d="M193 -14q-85 0 -138 55t-53 133q0 91 69 158t167 67q84 0 135 -53.5t51 -132.5q0 -92 -67.5 -159.5t-163.5 -67.5z" />
    <glyph glyph-name="slash" unicode="/" horiz-adv-x="1095" 
d="M1229 1452l-1016 -1452h-291l1014 1452h293z" />
    <glyph glyph-name="zero" unicode="0" horiz-adv-x="1349" 
d="M604 -31q-106 0 -192.5 30.5t-144 82.5t-96.5 123t-56 148t-17 161q0 78 11 164t37 181t63.5 183.5t95 169t127 140.5t164.5 95.5t203 35.5q105 0 191 -30.5t144 -81.5t97 -121t56.5 -147t17.5 -161q0 -93 -16.5 -196t-49.5 -214t-90 -210.5t-131.5 -179t-181.5 -126.5
t-232 -47zM420 532q0 -276 207 -276q91 0 163 69.5t111.5 175.5t59.5 214.5t20 204.5q0 63 -10 110.5t-32.5 86t-63.5 59t-99 20.5q-76 0 -138 -46t-101.5 -117.5t-66.5 -162.5t-38.5 -176t-11.5 -162z" />
    <glyph glyph-name="one" unicode="1" horiz-adv-x="792" 
d="M532 0h-323l207 979h-295l45 213q140 3 243.5 74.5t149.5 185.5h279z" />
    <glyph glyph-name="two" unicode="2" horiz-adv-x="1230" 
d="M436 655l258 117q113 51 163 112.5t50 147.5q0 69 -48.5 117.5t-133.5 48.5q-116 0 -171.5 -74t-55.5 -206l-303 30q5 238 155 386.5t400 148.5q112 0 204 -37.5t150 -100.5t89.5 -141.5t31.5 -163.5q0 -172 -94.5 -289t-282.5 -204l-297 -137q-114 -54 -150 -136h662
l-64 -274h-1034q23 228 134.5 390.5t336.5 264.5z" />
    <glyph glyph-name="three" unicode="3" horiz-adv-x="1245" 
d="M500 666l-113 227l438 287h-602l51 272h1002l-59 -309l-410 -264q139 -17 227 -122t88 -259q0 -102 -41.5 -197.5t-114 -169t-179.5 -118t-230 -44.5q-126 0 -227.5 40t-164 107t-95.5 151t-33 177q0 21 4 35l317 37q-2 -16 -2 -41q0 -101 54.5 -164t148.5 -63
q105 0 169.5 68.5t64.5 170.5q0 97 -53.5 147t-143.5 50q-58 0 -96 -18z" />
    <glyph glyph-name="four" unicode="4" horiz-adv-x="1314" 
d="M-4 307l72 336l745 809h389l-186 -870h239l-55 -275h-242l-63 -307h-322l62 307h-639zM694 582l113 522l-461 -522h348z" />
    <glyph glyph-name="five" unicode="5" horiz-adv-x="1204" 
d="M29 446l303 56q-2 -12 -2 -29q0 -95 52 -161t155 -66q102 0 172.5 67.5t70.5 188.5q0 94 -55 148.5t-147 54.5q-118 0 -193 -72l-258 127l297 692h803l-62 -274h-569l-125 -291q30 32 87.5 49.5t111.5 17.5q208 0 322 -112t114 -305q0 -157 -71 -285.5t-204.5 -205.5
t-304.5 -77q-115 0 -210 38.5t-157 104.5t-96 152t-34 182z" />
    <glyph glyph-name="six" unicode="6" horiz-adv-x="1292" 
d="M1348 1372l-131 -242q-114 72 -265 72q-171 0 -301.5 -96.5t-183.5 -274.5q50 63 131 98.5t166 35.5q196 0 308 -115.5t112 -306.5q0 -167 -77.5 -299t-209.5 -203.5t-293 -71.5q-217 0 -363.5 151t-146.5 396q0 198 60.5 374t170 307.5t273.5 208.5t360 77
q123 0 224.5 -31t165.5 -80zM662 707q-103 0 -175.5 -71t-72.5 -181q0 -94 54 -152.5t148 -58.5q100 0 172 69.5t72 184.5q0 96 -51.5 152.5t-146.5 56.5z" />
    <glyph glyph-name="seven" unicode="7" horiz-adv-x="1140" 
d="M1290 1452l-57 -266q-33 -21 -74 -53t-105.5 -91t-128 -127.5t-137 -167.5t-138 -207t-126.5 -249t-106 -291h-340q37 140 93.5 275.5t117 242t130.5 206.5t131 171t122.5 133t100.5 96t69 56h-674l57 272h1065z" />
    <glyph glyph-name="eight" unicode="8" horiz-adv-x="1243" 
d="M1104 416q-2 -138 -82 -241.5t-205.5 -154.5t-275.5 -51q-137 0 -247 43.5t-178.5 134t-68.5 215.5q0 147 97 253.5t255 140.5q-77 37 -128.5 115t-51.5 171q0 195 151.5 318t383.5 123q222 0 347.5 -108t125.5 -273q0 -134 -83 -239t-222 -140q84 -36 133 -122t49 -185z
M694 856q94 0 149.5 57t55.5 140q0 67 -42 114t-120 47q-100 0 -153.5 -56t-53.5 -136q0 -65 42.5 -115.5t121.5 -50.5zM362 416q0 -84 54 -134.5t147 -50.5q101 0 165.5 64t64.5 151q0 77 -50 130t-151 53q-105 0 -166.5 -63.5t-63.5 -149.5z" />
    <glyph glyph-name="nine" unicode="9" horiz-adv-x="1286" 
d="M479 954q0 -88 53 -145t146 -57q103 0 168 68t65 177q0 96 -54 153.5t-148 57.5q-96 0 -163 -69.5t-67 -184.5zM14 84l123 248q132 -78 279 -78q172 0 300.5 99t164.5 272q-49 -64 -123.5 -97.5t-161.5 -33.5q-195 0 -317.5 123.5t-122.5 316.5q0 123 45 227t121.5 174
t179.5 109t219 39q230 0 374 -150t144 -411q0 -216 -62.5 -395.5t-172.5 -301.5t-262.5 -189t-329.5 -67q-112 0 -218.5 29t-179.5 86z" />
    <glyph glyph-name="colon" unicode=":" horiz-adv-x="628" 
d="M205 -14q-82 0 -133.5 54t-51.5 130q0 88 67.5 153.5t162.5 65.5q81 0 130.5 -52.5t49.5 -129.5q0 -89 -65.5 -155t-159.5 -66zM338 631q-82 0 -133 54t-51 130q0 89 67.5 154t161.5 65q81 0 130.5 -52.5t49.5 -129.5q0 -89 -65.5 -155t-159.5 -66z" />
    <glyph glyph-name="semicolon" unicode=";" horiz-adv-x="638" 
d="M20 145q0 88 61.5 144.5t149.5 56.5t140.5 -59t52.5 -148q0 -199 -137 -334.5t-336 -146.5l31 141q74 7 149 62.5t94 138.5q-16 -8 -45 -8q-73 0 -116.5 43.5t-43.5 109.5zM342 629q-82 0 -133 54t-51 130q0 89 67.5 154t161.5 65q81 0 130.5 -52.5t49.5 -129.5
q0 -89 -65.5 -155t-159.5 -66z" />
    <glyph glyph-name="less" unicode="&#x3c;" horiz-adv-x="1169" 
d="M111 625v221l899 459v-283l-592 -281l592 -284v-287z" />
    <glyph glyph-name="equal" unicode="=" horiz-adv-x="1337" 
d="M176 819v250h1014v-250h-1014zM176 408v249h1014v-249h-1014z" />
    <glyph glyph-name="greater" unicode="&#x3e;" horiz-adv-x="1169" 
d="M1114 848v-221l-899 -457v281l590 282l-590 285v287z" />
    <glyph glyph-name="question" unicode="?" horiz-adv-x="1089" 
d="M606 451h-237v14q0 51 7.5 94.5t28.5 94.5t65 98t110 84l118 65q53 29 79 73t26 93q0 58 -40.5 99.5t-119.5 41.5q-98 0 -151.5 -68t-53.5 -167l-282 26q0 100 37 188.5t102.5 154t161 103.5t205.5 38q113 0 203.5 -32.5t145 -86t83 -118.5t28.5 -134q0 -146 -72.5 -249
t-205.5 -179l-88 -51q-74 -42 -107.5 -81t-42.5 -101zM283 137q0 81 57.5 139t136.5 58q71 0 115.5 -46.5t44.5 -111.5q0 -81 -59 -138.5t-134 -57.5q-71 0 -116 45.5t-45 111.5z" />
    <glyph glyph-name="at" unicode="@" horiz-adv-x="1701" 
d="M946 -98q-178 0 -330.5 56t-261.5 156t-171 245t-62 317q0 176 64 328t174 257t258.5 164.5t314.5 59.5q157 0 293.5 -51.5t233.5 -141t152.5 -214.5t55.5 -267q0 -113 -37 -212t-97 -165.5t-136.5 -104.5t-155.5 -40h-8q-78 0 -126.5 35.5t-64.5 83.5q-34 -60 -97 -91.5
t-136 -31.5q-132 0 -220.5 99t-88.5 253q0 196 118 326.5t281 130.5q60 0 113 -28t75 -81l17 82h209l-105 -500q-2 -10 -2 -28t13.5 -36t42.5 -18q74 0 133 92t59 232q0 211 -145.5 342t-374.5 131q-125 0 -233.5 -43.5t-186.5 -121t-123 -190t-45 -245.5q0 -167 70.5 -298
t208 -207.5t321.5 -76.5q202 0 357 107l104 -150q-77 -69 -209.5 -112t-251.5 -43zM1042 748q0 66 -31.5 104.5t-90.5 38.5q-83 0 -136 -68t-53 -168q0 -78 32.5 -124t96.5 -46q77 0 129 74t53 189z" />
    <glyph glyph-name="A" unicode="A" horiz-adv-x="1468" 
d="M987 0l-39 295h-538l-162 -295h-363l844 1452h375l219 -1452h-336zM846 1090l-273 -500h336z" />
    <glyph glyph-name="B" unicode="B" horiz-adv-x="1269" 
d="M340 1452h502q191 0 291 -95.5t100 -252.5q0 -125 -79 -231t-196 -138q73 -25 132 -101.5t59 -182.5q0 -199 -142.5 -325t-367.5 -126h-606zM532 870h164q95 0 153 49.5t58 133.5q0 131 -166 131h-143zM403 264h193q104 0 169.5 53.5t65.5 143.5q0 66 -44 104.5
t-130 38.5h-180z" />
    <glyph glyph-name="C" unicode="C" horiz-adv-x="1495" 
d="M893 1481l8 2q119 0 219.5 -30t168 -77.5t118 -111t76.5 -126t37 -126.5l-318 -99q-7 35 -20 68t-38.5 68.5t-60 61.5t-87.5 43t-117 17q-81 0 -158.5 -34.5t-141 -98t-102.5 -165t-39 -224.5q0 -159 94.5 -261.5t253.5 -102.5q235 0 344 243l289 -116
q-23 -61 -57.5 -118.5t-92 -118t-128 -105.5t-170 -74t-213.5 -29q-192 0 -341.5 86.5t-230 237.5t-80.5 340q0 131 30.5 248.5t85 210t128.5 167t161.5 123.5t184.5 75t197 26z" />
    <glyph glyph-name="D" unicode="D" horiz-adv-x="1482" 
d="M418 311h246q101 0 184.5 45t136.5 117.5t82 162t29 181.5q0 152 -81.5 242t-246.5 90h-174zM649 0h-614l303 1452h448q300 0 470.5 -168t170.5 -444q0 -158 -42 -294.5t-116 -235.5t-172 -169.5t-212 -105.5t-236 -35z" />
    <glyph glyph-name="E" unicode="E" horiz-adv-x="1183" 
d="M952 0h-919l307 1452h920l-66 -305h-596l-59 -277h540l-59 -284h-541l-59 -279h598z" />
    <glyph glyph-name="F" unicode="F" horiz-adv-x="1171" 
d="M356 0h-323l307 1452h934l-66 -307h-612l-64 -307h539l-63 -295h-535z" />
    <glyph glyph-name="G" unicode="G" horiz-adv-x="1568" 
d="M877 1176q-80 0 -157 -33.5t-140.5 -97t-102.5 -166.5t-39 -230q0 -171 91 -276t255 -105q144 0 234 65t127 169h-424l59 274h721l-164 -776h-243v141q-57 -76 -153.5 -120t-217.5 -44q-280 0 -448.5 182t-168.5 472q0 194 65.5 357t175 269.5t250.5 165t294 58.5l8 2
q119 0 220.5 -28t170 -73.5t120 -105.5t79 -121.5t37.5 -124.5l-318 -98q-8 44 -29 83.5t-58 77.5t-100 60.5t-144 22.5z" />
    <glyph glyph-name="H" unicode="H" horiz-adv-x="1507" 
d="M1217 0h-326l123 582h-535l-125 -582h-321l307 1452h324l-121 -565h536l121 565h326z" />
    <glyph glyph-name="I" unicode="I" horiz-adv-x="649" 
d="M358 0h-325l307 1452h328z" />
    <glyph glyph-name="J" unicode="J" horiz-adv-x="1144" 
d="M846 1452h328l-222 -1046q-41 -198 -181.5 -317.5t-332.5 -119.5q-204 0 -322 113t-118 295q0 72 14 135l11 45l313 47l-19 -96q-8 -36 -8 -80q0 -63 37.5 -107.5t110.5 -44.5q67 0 113.5 48.5t62.5 124.5z" />
    <glyph glyph-name="K" unicode="K" horiz-adv-x="1419" 
d="M907 0l-280 567l-189 -172l-84 -395h-321l307 1452h324l-121 -565l618 565h447l-729 -659l413 -793h-385z" />
    <glyph glyph-name="L" unicode="L" horiz-adv-x="1126" 
d="M971 0h-938l307 1452h324l-244 -1143h616z" />
    <glyph glyph-name="M" unicode="M" horiz-adv-x="1961" 
d="M1671 0h-317l205 961l-574 -961h-258l-186 948l-203 -948h-305l307 1452h401l199 -979l569 979h471z" />
    <glyph glyph-name="N" unicode="N" horiz-adv-x="1550" 
d="M1260 0h-320l-385 952l-203 -952h-319l307 1452h369l348 -885l188 885h324z" />
    <glyph glyph-name="O" unicode="O" horiz-adv-x="1593" 
d="M106 629q0 156 42.5 293.5t117 239t173.5 174.5t214 110t236 37q293 0 471 -181.5t178 -476.5q0 -194 -65.5 -358t-175.5 -271.5t-250.5 -167t-292.5 -59.5q-191 0 -338.5 83t-228.5 233t-81 344zM1206 813q0 163 -88 260.5t-246 97.5q-80 0 -157 -35t-139 -99
t-100 -165.5t-38 -224.5q0 -165 88.5 -263.5t243.5 -98.5q64 0 126.5 22t118.5 66.5t98.5 106.5t67.5 148t25 185z" />
    <glyph glyph-name="P" unicode="P" horiz-adv-x="1236" 
d="M340 1452h479q199 0 325 -115.5t126 -300.5q0 -235 -157.5 -372.5t-416.5 -139.5h-229l-113 -524h-321zM737 1174h-131l-80 -371h166q124 0 184 60t60 145q0 166 -199 166z" />
    <glyph glyph-name="Q" unicode="Q" horiz-adv-x="1593" 
d="M106 629q0 156 42.5 293.5t117 239t173.5 174.5t214 110t236 37q293 0 471 -181.5t178 -476.5q0 -200 -67.5 -363t-186.5 -278l139 -202l-247 -156l-138 199q-136 -56 -284 -56q-191 0 -338.5 83t-228.5 233t-81 344zM664 571l245 158l187 -270q110 147 110 354
q0 163 -88 260.5t-246 97.5q-80 0 -157 -35t-139 -99t-100 -165.5t-38 -224.5q0 -165 88.5 -263.5t243.5 -98.5q48 0 84 10z" />
    <glyph glyph-name="R" unicode="R" horiz-adv-x="1316" 
d="M809 0l-186 541h-152l-115 -541h-323l307 1452h522q203 0 313.5 -105t110.5 -272q0 -176 -96.5 -303.5t-255.5 -181.5l217 -590h-342zM528 819h185q110 0 174.5 58t64.5 151q0 69 -42 107.5t-128 38.5h-178z" />
    <glyph glyph-name="S" unicode="S" horiz-adv-x="1239" 
d="M582 250q93 0 144.5 40.5t51.5 110.5q0 96 -104 140l-170 69q-144 58 -215.5 162t-71.5 238q0 139 73.5 248t193.5 166t261 57q96 0 175.5 -20.5t132.5 -56t92.5 -79t60.5 -92.5t31 -92.5t10 -83.5l-301 -49q0 17 -3 36t-16 48.5t-34.5 52t-63.5 39t-98 16.5
q-85 0 -136.5 -49t-51.5 -113q0 -92 102 -137l154 -65q165 -70 240 -171.5t75 -238.5q0 -86 -35.5 -167.5t-100.5 -146t-166.5 -104t-223.5 -39.5q-118 0 -215 30.5t-159 79t-104 111t-59.5 123.5t-17.5 121q0 31 4 55l297 52q-4 -20 -4 -47q0 -100 63.5 -170.5t188.5 -73.5
z" />
    <glyph glyph-name="T" unicode="T" horiz-adv-x="1222" 
d="M1303 1143h-406l-244 -1143h-323l241 1143h-426l68 309h1157z" />
    <glyph glyph-name="U" unicode="U" horiz-adv-x="1419" 
d="M1122 1452h328l-209 -985q-52 -242 -211.5 -370t-378.5 -128q-236 0 -380 132t-144 348q0 57 25 186l170 817h327l-176 -834q-16 -78 -16 -122q0 -96 54 -151.5t169 -55.5q97 0 161.5 59.5t88.5 177.5z" />
    <glyph glyph-name="V" unicode="V" horiz-adv-x="1421" 
d="M532 1452l130 -1028l555 1028h368l-835 -1452h-334l-221 1452h337z" />
    <glyph glyph-name="W" unicode="W" horiz-adv-x="2129" 
d="M1065 1452h332l104 -938l424 938h350l-700 -1452h-326l-104 963l-500 -963h-346l-86 1452h326l43 -936z" />
    <glyph glyph-name="X" unicode="X" horiz-adv-x="1359" 
d="M655 446l-362 -446h-412l639 735l-332 717h375l191 -448l364 448h410l-637 -735l334 -717h-379z" />
    <glyph glyph-name="Y" unicode="Y" horiz-adv-x="1323" 
d="M504 606l-316 846h342l185 -537l372 537h390l-650 -848l-127 -604h-325z" />
    <glyph glyph-name="Z" unicode="Z" horiz-adv-x="1308" 
d="M1090 0h-1131l68 311l852 832h-658l66 309h1102l-62 -299l-874 -844h702z" />
    <glyph glyph-name="bracketleft" unicode="[" horiz-adv-x="698" 
d="M440 -350h-510l432 2036h512l-49 -234h-254l-333 -1565h254z" />
    <glyph glyph-name="backslash" unicode="\" horiz-adv-x="1077" 
d="M641 0l-420 1452h262l420 -1452h-262z" />
    <glyph glyph-name="bracketright" unicode="]" horiz-adv-x="698" 
d="M358 -350h-508l52 237h252l331 1565h-254l50 234h512z" />
    <glyph glyph-name="asciicircum" unicode="^" horiz-adv-x="1191" 
d="M516 1452h229l410 -735h-283l-237 444l-240 -444h-286z" />
    <glyph glyph-name="underscore" unicode="_" horiz-adv-x="1120" 
d="M-119 -254v254h1047v-254h-1047z" />
    <glyph glyph-name="grave" unicode="`" horiz-adv-x="575" 
d="M254 1139l-221 309h340l121 -309h-240z" />
    <glyph glyph-name="a" unicode="a" horiz-adv-x="1224" 
d="M598 760q-73 0 -128.5 -46.5t-81.5 -114.5t-26 -144q0 -96 50 -149.5t129 -53.5q93 0 162 82t69 231q0 93 -47.5 144t-126.5 51zM879 1018h301l-174 -813q-19 -84 -19 -166q0 -21 2 -39h-282q-2 12 -2 37q0 43 6 84q-88 -137 -256 -137q-181 0 -290.5 129t-109.5 327
q0 262 148 432t366 170q68 0 123.5 -14.5t88 -38t50 -42.5t27.5 -38z" />
    <glyph glyph-name="b" unicode="b" horiz-adv-x="1255" 
d="M305 0h-303l313 1483h306l-113 -545q37 42 107 71t149 29q128 0 220 -58t135.5 -153.5t43.5 -216.5q0 -182 -71.5 -328.5t-192 -226.5t-266.5 -80q-113 0 -193 48.5t-108 107.5zM659 764q-107 0 -178 -90t-71 -211q0 -99 54 -154t136 -55q43 0 86 19.5t80 56t60 97.5
t24 136q0 100 -53.5 150.5t-137.5 50.5z" />
    <glyph glyph-name="c" unicode="c" horiz-adv-x="1134" 
d="M1085 696l-280 -78q-12 62 -60 103t-131 41q-99 0 -176.5 -80.5t-77.5 -222.5q0 -95 56 -149t147 -54q71 0 122.5 36t80.5 93l254 -96q-56 -136 -180.5 -228t-298.5 -92q-136 0 -247.5 60.5t-176 171.5t-64.5 252q0 134 48.5 247.5t130 189t186.5 117.5t219 42
q100 0 182 -30t135.5 -81t86.5 -112.5t44 -129.5z" />
    <glyph glyph-name="d" unicode="d" horiz-adv-x="1224" 
d="M1276 1483l-270 -1278q-19 -82 -19 -158q0 -35 2 -47h-282q-2 12 -2 45q0 16 6 76q-88 -137 -256 -137q-181 0 -290.5 129t-109.5 327q0 262 148 432t366 170q114 0 180 -36.5t97 -81.5l119 559h311zM598 760q-73 0 -128.5 -46.5t-81.5 -114.5t-26 -144q0 -96 50 -149.5
t129 -53.5q93 0 162 82t69 231q0 93 -47.5 144t-126.5 51z" />
    <glyph glyph-name="e" unicode="e" horiz-adv-x="1134" 
d="M367 631h399v14q0 60 -42.5 108t-131.5 48q-169 0 -225 -170zM1024 430l-686 -2q0 -87 55.5 -145t157.5 -58q64 0 114 32t76 83l242 -109q-56 -113 -170.5 -187.5t-288.5 -74.5q-128 0 -235 59t-171.5 168t-64.5 246q0 136 46.5 252.5t123 192.5t173 119t198.5 43
q211 0 335 -122t124 -315q0 -94 -29 -182z" />
    <glyph glyph-name="f" unicode="f" horiz-adv-x="790" 
d="M780 756h-209l-157 -756h-314l162 756h-172l55 262h172l33 145q39 172 147 255t269 83q47 0 99.5 -11t82.5 -28l-53 -254l-9 4q-10 4 -34 9.5t-53 5.5q-125 0 -154 -131l-18 -78h211z" />
    <glyph glyph-name="g" unicode="g" horiz-adv-x="1230" 
d="M778 584q0 82 -49.5 131t-124.5 49q-101 0 -167 -73t-66 -187q0 -84 50 -133t132 -49q91 0 158 72.5t67 189.5zM-63 -27l272 54q0 -77 54 -128t151 -51q99 0 169 62.5t97 179.5l14 64q-31 -38 -89 -65.5t-134 -27.5q-186 0 -299 118t-113 302q0 154 66 282t183 202.5
t261 74.5q116 0 191.5 -39t105.5 -90l21 107h301l-197 -932q-22 -109 -70 -200t-118.5 -160t-169 -107.5t-215.5 -38.5q-121 0 -216.5 35.5t-151.5 93.5t-84.5 125.5t-28.5 138.5z" />
    <glyph glyph-name="h" unicode="h" horiz-adv-x="1193" 
d="M946 0h-311l117 541q12 54 12 86q0 64 -37.5 102.5t-105.5 38.5q-69 0 -116 -49t-65 -129l-127 -590h-311l313 1483h314l-117 -547q45 54 113.5 81t142.5 27q154 0 236.5 -91.5t82.5 -235.5q0 -60 -16 -133z" />
    <glyph glyph-name="i" unicode="i" horiz-adv-x="571" 
d="M254 1315q0 83 58 139.5t143 56.5q71 0 116 -44.5t45 -112.5q0 -86 -59.5 -141.5t-140.5 -55.5q-70 0 -116 45t-46 113zM311 0h-311l217 1018h311z" />
    <glyph glyph-name="j" unicode="j" horiz-adv-x="571" 
d="M-8 -41l227 1059h309l-239 -1129q-32 -152 -127 -230.5t-234 -78.5q-67 0 -121 17.5t-81 37.5l51 242l11 -5q12 -5 37 -11t52 -6q98 0 115 104zM256 1315q0 83 57 139.5t142 56.5q73 0 118 -44.5t45 -112.5q0 -86 -59.5 -141.5t-140.5 -55.5q-70 0 -116 45t-46 113z" />
    <glyph glyph-name="k" unicode="k" horiz-adv-x="1165" 
d="M670 0l-168 377l-133 -117l-56 -260h-311l313 1483h314l-168 -785l356 320h424l-508 -440l283 -578h-346z" />
    <glyph glyph-name="l" unicode="l" horiz-adv-x="573" 
d="M313 0h-311l315 1483h312z" />
    <glyph glyph-name="m" unicode="m" horiz-adv-x="1818" 
d="M944 0h-311l121 561q8 36 8 64q0 64 -36.5 103.5t-104.5 39.5q-69 0 -115 -47.5t-64 -128.5l-127 -592h-311l178 848q19 97 19 170h303q0 -71 -4 -96q43 60 117 91t151 31q194 0 276 -147q117 147 336 147q150 0 240 -95t90 -242q0 -43 -10 -101l-129 -606h-309l118 559
q9 38 9 66q0 64 -36.5 103.5t-103.5 39.5q-70 0 -115 -47.5t-63 -128.5z" />
    <glyph glyph-name="n" unicode="n" horiz-adv-x="1196" 
d="M948 0h-311l115 539q12 52 12 88q0 65 -35.5 103t-105.5 38q-69 0 -116 -49t-65 -129l-127 -590h-311l178 848q19 93 19 170h303q0 -59 -6 -96q45 61 119.5 91.5t152.5 30.5q154 0 237 -91.5t83 -235.5q0 -50 -13 -113z" />
    <glyph glyph-name="o" unicode="o" horiz-adv-x="1196" 
d="M606 764q-109 0 -177.5 -90.5t-68.5 -212.5q0 -96 52.5 -151.5t134.5 -55.5q42 0 83.5 18.5t79 54t60.5 96.5t23 136q0 99 -50.5 151t-136.5 54zM1102 573q0 -162 -72 -299.5t-205.5 -221t-298.5 -83.5q-210 0 -341.5 136t-131.5 341q0 132 46.5 246t125.5 191.5
t184 121.5t220 44q213 0 343 -135.5t130 -340.5z" />
    <glyph glyph-name="p" unicode="p" horiz-adv-x="1257" 
d="M662 768q-107 0 -177.5 -92t-70.5 -213q0 -100 53 -154.5t135 -54.5q94 0 171 82t77 227q0 98 -52.5 151.5t-135.5 53.5zM498 920q41 50 113.5 84t154.5 34q192 0 295.5 -119t103.5 -309q0 -182 -72 -328.5t-193 -226.5t-267 -80q-108 0 -186 38.5t-113 92.5l-103 -495
h-311l262 1237q19 97 19 170h303q0 -80 -6 -98z" />
    <glyph glyph-name="q" unicode="q" horiz-adv-x="1224" 
d="M1182 1018l-301 -1409h-312l97 454q-79 -79 -215 -79q-118 1 -209 62t-139 164t-48 230q0 173 69 311t186 213.5t259 75.5q68 0 123.5 -14t88.5 -36.5t51.5 -41.5t27.5 -37l21 107h301zM598 760q-107 0 -170 -92.5t-63 -212.5q0 -96 50 -149.5t130 -53.5q92 0 160.5 81.5
t68.5 229.5q0 95 -48 146t-128 51z" />
    <glyph glyph-name="r" unicode="r" horiz-adv-x="817" 
d="M791 705q-61 18 -123 18q-88 0 -156 -60t-98 -198l-101 -465h-311l180 848q19 97 19 170h303q0 -66 -8 -111q87 119 254 119q66 0 106 -18z" />
    <glyph glyph-name="s" unicode="s" horiz-adv-x="958" 
d="M8 307l262 43q-2 -10 -2 -18q0 -64 36 -99.5t97 -35.5q53 0 81 24t28 60q0 58 -70 88l-98 41q-231 97 -231 297q0 141 112 241.5t285 100.5q91 0 162 -22.5t112 -56t67.5 -78.5t35.5 -84t10 -79l-266 -31q0 129 -123 129q-45 0 -75 -25t-30 -63q0 -53 56 -73l127 -52
q231 -94 231 -305q0 -63 -26.5 -123t-76 -109t-127.5 -78.5t-173 -29.5q-97 0 -172 25t-117.5 61.5t-69.5 83.5t-36 84.5t-9 71.5v12z" />
    <glyph glyph-name="t" unicode="t" horiz-adv-x="800" 
d="M553 745l-80 -372q-4 -24 -4 -35q0 -88 104 -88q34 0 76 10l-53 -246q-56 -28 -141 -28q-142 0 -223.5 74.5t-81.5 199.5q0 36 10 88l82 397h-176l57 273h49q83 0 128 42t65 124l30 131h279l-64 -297h197l-59 -273h-195z" />
    <glyph glyph-name="u" unicode="u" horiz-adv-x="1187" 
d="M205 1018h311l-123 -576q-6 -30 -6 -57q0 -63 35.5 -99t103.5 -36q69 0 113.5 48.5t62.5 129.5l127 590h312l-176 -840q-19 -88 -19 -178h-301q-2 12 -2 35t4 63q-34 -58 -103 -91.5t-143 -33.5q-159 0 -247 95.5t-88 242.5q0 53 12 109z" />
    <glyph glyph-name="v" unicode="v" horiz-adv-x="1126" 
d="M1182 1018l-586 -1018h-311l-181 1018h322l78 -635l332 635h346z" />
    <glyph glyph-name="w" unicode="w" horiz-adv-x="1728" 
d="M776 1018h332l70 -600l278 600h318l-514 -1018h-308l-80 657l-335 -657h-320l-96 1018h305l43 -598z" />
    <glyph glyph-name="x" unicode="x" horiz-adv-x="1124" 
d="M504 276l-240 -276h-368l477 522l-267 496h343l131 -268l229 268h375l-473 -516l268 -502h-340z" />
    <glyph glyph-name="y" unicode="y" horiz-adv-x="1105" 
d="M285 -389h-342l338 545l-211 862h325l115 -543l317 543h344z" />
    <glyph glyph-name="z" unicode="z" horiz-adv-x="1034" 
d="M815 0h-854l57 274l539 480h-422l58 264h833l-55 -256l-561 -496h462z" />
    <glyph glyph-name="braceleft" unicode="{" horiz-adv-x="774" 
d="M18 551l54 254q199 0 239 180l64 297q48 220 163 312t310 92h102l-49 -234h-76q-158 0 -192 -166l-74 -348q-23 -103 -88 -174t-170 -90q73 -25 111.5 -79t38.5 -128q0 -16 -9 -68l-67 -323q-6 -27 -6 -51q0 -66 38.5 -95.5t100.5 -29.5h63l-49 -232h-73q-156 0 -247 84
t-91 234q0 54 12 116l57 267q6 27 6 51q0 67 -45 99t-123 32z" />
    <glyph glyph-name="bar" unicode="|" horiz-adv-x="526" 
d="M193 -332h-259l428 2018h259z" />
    <glyph glyph-name="braceright" unicode="}" horiz-adv-x="776" 
d="M784 803l-53 -254q-91 0 -154.5 -43.5t-82.5 -136.5l-64 -299q-84 -402 -485 -402h-92l49 232h78q154 0 192 170l74 346q23 103 88 173t170 91q-72 23 -111 77.5t-39 127.5q0 19 8 65l68 328q6 27 6 53q0 121 -137 121h-66l50 234h75q155 0 245.5 -83t90.5 -233
q0 -56 -12 -117l-59 -270q-7 -31 -7 -49q0 -67 45 -99t123 -32z" />
    <glyph glyph-name="asciitilde" unicode="~" horiz-adv-x="1286" 
d="M1036 768l164 -133q-55 -107 -147 -166t-201 -59q-121 0 -229 61l-97 53q-52 27 -102 27q-102 0 -172 -102l-168 133q56 106 147.5 165.5t198.5 59.5q117 0 229 -59l99 -54q54 -28 106 -28q49 0 94 27t78 75z" />
    <glyph glyph-name="uni00A0" unicode="&#xa0;" horiz-adv-x="468" 
 />
    <glyph glyph-name="exclamdown" unicode="&#xa1;" horiz-adv-x="563" 
d="M393 575l-139 -997h-375l285 997h229zM506 891q0 -79 -58 -137t-137 -58q-71 0 -114 46t-43 112q0 80 58 137.5t132 57.5q71 0 116.5 -45.5t45.5 -112.5z" />
    <glyph glyph-name="cent" unicode="&#xa2;" horiz-adv-x="1163" 
d="M360 0l48 223q-135 52 -216 171.5t-81 277.5q0 123 41.5 230t112.5 181t164 121.5t196 59.5l41 188h235l-45 -209q122 -38 195 -127.5t92 -200.5l-281 -77q-12 61 -59.5 102t-130.5 41q-99 0 -176.5 -80.5t-77.5 -222.5q0 -95 56 -149t147 -54q71 0 122 36t80 93l254 -96
q-55 -129 -168.5 -219.5t-273.5 -100.5l-39 -188h-236z" />
    <glyph glyph-name="sterling" unicode="&#xa3;" horiz-adv-x="1341" 
d="M115 590l47 225h145q-20 140 -20 203q0 203 130 332t347 129q107 0 194 -34.5t139 -89.5t79.5 -119.5t27.5 -129.5q0 -41 -4 -53l-274 -27q2 12 2 35q0 69 -47 116.5t-123 47.5q-82 0 -135.5 -58t-53.5 -166q0 -47 21 -186h379l-49 -225h-318q-10 -110 -58.5 -200
t-129.5 -124h362q81 0 133.5 42.5t61.5 111.5l260 -45q-25 -171 -142 -273t-298 -102h-799l57 260q111 16 181.5 111t86.5 219h-202z" />
    <glyph glyph-name="currency" unicode="&#xa4;" horiz-adv-x="1357" 
d="M256 713q0 113 51 207l-145 147l186 184l152 -151q92 47 202 47q118 0 201 -47l152 151l186 -184l-145 -147q53 -88 53 -207q0 -111 -53 -209l145 -144l-186 -186l-150 152q-92 -47 -203 -47q-110 0 -202 47l-152 -152l-186 186l147 146q-53 88 -53 207zM512 713
q0 -82 53 -134.5t137 -52.5t137.5 52.5t53.5 134.5t-53 134t-138 52q-84 0 -137 -52t-53 -134z" />
    <glyph glyph-name="yen" unicode="&#xa5;" horiz-adv-x="1400" 
d="M195 643l45 217h206l-215 592h330l187 -565l419 565h346l-471 -592h228l-45 -217h-379l-27 -129h379l-47 -217h-377l-61 -297h-301l63 297h-356l47 217h354l29 129h-354z" />
    <glyph glyph-name="brokenbar" unicode="&#xa6;" horiz-adv-x="552" 
d="M461 870h-260l174 816h258zM205 -334h-258l174 815h258z" />
    <glyph glyph-name="section" unicode="&#xa7;" horiz-adv-x="1103" 
d="M-31 8l301 19q-4 -27 -4 -47q0 -66 38.5 -101t107.5 -35q55 0 95 36.5t40 90.5q0 59 -60 101l-178 123q-106 73 -163.5 148.5t-57.5 176.5q0 115 59.5 188.5t151.5 112.5q-90 97 -90 236q0 95 43 177t111.5 135.5t153 83.5t169.5 30q195 0 306.5 -102.5t111.5 -258.5
q0 -35 -4 -67l-297 -19q4 40 4 51q0 65 -40.5 98.5t-104.5 33.5q-55 0 -95.5 -37t-40.5 -90q0 -59 54 -97l184 -123q103 -71 161 -148t58 -177q0 -117 -59.5 -191.5t-149.5 -111.5q86 -102 86 -238q0 -95 -42 -177t-110 -135.5t-152 -83.5t-169 -30q-196 0 -309 102.5
t-113 258.5q0 34 4 67zM643 569l-188 131q-72 -46 -72 -118q0 -53 47 -86l188 -131q70 42 70 120q0 53 -45 84z" />
    <glyph glyph-name="dieresis" unicode="&#xa8;" horiz-adv-x="800" 
d="M2 1278q0 67 52.5 120.5t123.5 53.5q62 0 101.5 -41.5t39.5 -101.5q0 -71 -54 -120.5t-122 -49.5q-61 0 -101 40.5t-40 98.5zM449 1278q0 67 52.5 120.5t121.5 53.5q62 0 102.5 -41.5t40.5 -101.5q0 -71 -54 -120.5t-122 -49.5q-62 0 -101.5 40.5t-39.5 98.5z" />
    <glyph glyph-name="copyright" unicode="&#xa9;" horiz-adv-x="1705" 
d="M121 725q0 154 60 294.5t161 242.5t241.5 162.5t295.5 60.5q154 0 294 -60.5t241.5 -162.5t161.5 -242.5t60 -294.5t-60 -294.5t-161.5 -242t-241.5 -161.5t-294 -60q-155 0 -295.5 60t-241.5 161.5t-161 242t-60 294.5zM301 725q0 -163 76 -298.5t209 -213.5t293 -78
q119 0 226 46t183.5 125t121 188t44.5 231t-44.5 231.5t-121 188.5t-183.5 125.5t-226 46.5q-160 0 -293 -78.5t-209 -214.5t-76 -299zM1249 860l-205 -55q-8 43 -43.5 73.5t-95.5 30.5q-72 0 -129 -59t-57 -164q0 -69 40.5 -109t106.5 -40q99 0 152 94l184 -70
q-40 -98 -131.5 -165.5t-218.5 -67.5q-157 0 -256.5 99.5t-99.5 254.5q0 97 35.5 180t94.5 138t135.5 85.5t158.5 30.5q142 0 226 -74.5t103 -181.5z" />
    <glyph glyph-name="ordfeminine" unicode="&#xaa;" horiz-adv-x="940" 
d="M559 1247q-67 0 -106 -56.5t-39 -131.5q0 -63 32.5 -96t81.5 -33q55 0 98.5 49t43.5 143q0 63 -31 94t-80 31zM748 1452h233l-121 -561q-18 -83 -18 -158h-215q0 49 4 84q-19 -37 -62 -65.5t-110 -28.5q-126 0 -204.5 92t-78.5 232q0 186 105 303.5t256 117.5
q49 0 88 -10.5t60 -27t31.5 -28.5t14.5 -22z" />
    <glyph glyph-name="guillemotleft" unicode="&#xab;" horiz-adv-x="1179" 
d="M539 209h-277l-205 407l367 402h301l-387 -418zM1016 209h-277l-204 407l366 402h301l-387 -418z" />
    <glyph glyph-name="logicalnot" unicode="&#xac;" horiz-adv-x="1314" 
d="M1176 389h-267v399h-762v256h1029v-655z" />
    <glyph glyph-name="uni00AD" unicode="&#xad;" horiz-adv-x="862" 
d="M709 477h-613l60 281h614z" />
    <glyph glyph-name="registered" unicode="&#xae;" horiz-adv-x="1705" 
d="M121 725q0 154 60 294.5t161 242.5t241.5 162.5t295.5 60.5q154 0 294 -60.5t241.5 -162.5t161.5 -242.5t60 -294.5t-60 -294.5t-161.5 -242t-241.5 -161.5t-294 -60q-155 0 -295.5 60t-241.5 161.5t-161 242t-60 294.5zM301 725q0 -163 76 -298.5t209 -213.5t293 -78
q119 0 226 46t183.5 125t121 188t44.5 231t-44.5 231.5t-121 188.5t-183.5 125.5t-226 46.5q-160 0 -293 -78.5t-209 -214.5t-76 -299zM934 322l-72 266l-53 2l-57 -275h-213l174 818h311q107 0 176.5 -68.5t69.5 -167.5q0 -98 -56.5 -175t-150.5 -108l94 -292h-223z
M848 762h76q54 0 92.5 33.5t38.5 87.5q0 37 -23.5 57.5t-64.5 20.5h-78z" />
    <glyph glyph-name="macron" unicode="&#xaf;" horiz-adv-x="620" 
d="M563 1182h-583l45 215h585z" />
    <glyph glyph-name="degree" unicode="&#xb0;" horiz-adv-x="821" 
d="M504 1010q54 0 95.5 41t41.5 112q0 49 -28 81t-76 32q-55 0 -96.5 -42t-41.5 -112q0 -50 28 -80.5t77 -31.5zM487 803q-134 0 -220.5 88.5t-86.5 218.5q0 107 54 193.5t139 133t180 46.5q132 0 219.5 -89t87.5 -218q0 -107 -54.5 -194t-139.5 -133t-179 -46z" />
    <glyph glyph-name="plusminus" unicode="&#xb1;" horiz-adv-x="1298" 
d="M784 768v-238h-262v238h-364v254h364v240h262v-240h365v-254h-365zM158 207v254h991v-254h-991z" />
    <glyph glyph-name="twosuperior" unicode="&#xb2;" horiz-adv-x="735" 
d="M350 1067l135 57q86 36 86 93q0 26 -18 47.5t-55 21.5q-49 0 -74 -31.5t-25 -83.5l-202 17q0 118 86 200t225 82q142 0 218.5 -66t76.5 -167q0 -176 -228 -270l-155 -66q-3 -1 -12 -10h309l-43 -195h-582q0 127 66.5 222t191.5 149z" />
    <glyph glyph-name="threesuperior" unicode="&#xb3;" horiz-adv-x="753" 
d="M395 1022l-55 143l215 101h-342l39 186h596l-45 -215l-197 -94q70 -15 113 -66t43 -123q0 -113 -93.5 -193.5t-240.5 -80.5q-143 0 -226 76t-83 180q0 4 1 14.5t1 14.5l213 12q-2 -8 -2 -16q0 -41 27 -67t73 -26q45 0 71.5 25t26.5 63q0 35 -25.5 54.5t-62.5 19.5
q-23 0 -47 -8z" />
    <glyph glyph-name="acute" unicode="&#xb4;" horiz-adv-x="571" 
d="M586 1448l-357 -309h-264l250 309h371z" />
    <glyph glyph-name="mu" unicode="&#xb5;" horiz-adv-x="1306" 
d="M145 -389v1407h314v-578q0 -77 42 -126.5t122 -49.5q77 0 122.5 48t45.5 126v580h313v-836q0 -80 10 -182h-299q-8 36 -8 102q-37 -62 -112.5 -93.5t-159.5 -31.5q-36 0 -76 7v-373h-314z" />
    <glyph glyph-name="paragraph" unicode="&#xb6;" horiz-adv-x="1470" 
d="M891 1223l-342 -1614h-238l211 987h-18q-155 0 -259 103t-104 255q0 96 34 178.5t91.5 140.5t134 99t161 60.5t171.5 19.5h844l-49 -229h-199l-342 -1614h-239l342 1614h-199z" />
    <glyph glyph-name="periodcentered" unicode="&#xb7;" horiz-adv-x="571" 
d="M102 641q0 81 61 143t148 62q74 0 123 -48.5t49 -115.5q0 -91 -61.5 -152t-147.5 -61q-75 0 -123.5 50t-48.5 122z" />
    <glyph glyph-name="cedilla" unicode="&#xb8;" horiz-adv-x="557" 
d="M258 25h197l-131 -134q73 -7 118 -53t45 -108q0 -36 -15.5 -72t-46 -68t-83.5 -51.5t-121 -19.5q-58 0 -110 16.5t-85.5 41t-53 44.5t-27.5 35l114 104q64 -86 154 -86q35 0 56.5 14t21.5 40q0 27 -21.5 40t-52.5 13q-10 0 -24 -1t-19 -1l-49 106z" />
    <glyph glyph-name="onesuperior" unicode="&#xb9;" horiz-adv-x="544" 
d="M481 698h-235l94 445h-190l30 149q94 3 163 51t93 109h205z" />
    <glyph glyph-name="ordmasculine" unicode="&#xba;" horiz-adv-x="890" 
d="M563 1253q-72 0 -113.5 -58.5t-41.5 -131.5q0 -61 32.5 -95t83.5 -34q57 0 106.5 49t49.5 141q0 63 -31.5 95t-85.5 34zM918 1137q0 -113 -51 -209.5t-146 -155.5t-213 -59q-148 0 -243 96t-95 242q0 189 121 306.5t291 117.5q149 0 242.5 -96t93.5 -242z" />
    <glyph glyph-name="guillemotright" unicode="&#xbb;" horiz-adv-x="1173" 
d="M166 1018h272l209 -408l-366 -401h-304l388 418zM639 1018h272l209 -408l-366 -401h-303l387 418z" />
    <glyph glyph-name="onequarter" unicode="&#xbc;" horiz-adv-x="1730" 
d="M866 145l49 234l412 377h248l-90 -434h123l-39 -177h-121l-31 -145h-231l31 145h-351zM1253 322l43 198l-217 -198h174zM506 698h-236l95 445h-191l31 149q94 3 163 51t93 109h205zM1583 1452l-1202 -1452h-275l1203 1452h274z" />
    <glyph glyph-name="onehalf" unicode="&#xbd;" horiz-adv-x="1769" 
d="M1227 371l135 57q86 36 86 92q0 26 -18.5 48t-55.5 22q-49 0 -73.5 -31.5t-24.5 -83.5l-203 17q0 118 86 200t225 82q142 0 218.5 -66t76.5 -167q0 -177 -227 -271l-156 -65q-3 -1 -12 -10h309l-43 -195h-581q0 127 66.5 222t191.5 149zM506 698h-236l95 445h-191l31 149
q94 3 163 51t93 109h205zM1583 1452l-1202 -1452h-275l1203 1452h274z" />
    <glyph glyph-name="threequarters" unicode="&#xbe;" horiz-adv-x="1918" 
d="M1055 145l49 234l412 377h247l-90 -434h123l-39 -177h-121l-30 -145h-232l31 145h-350zM1442 322l43 198l-217 -198h174zM414 1022l-56 143l215 101h-342l39 186h596l-45 -215l-196 -94q70 -15 112.5 -66t42.5 -123q0 -113 -93.5 -193.5t-240.5 -80.5q-143 0 -226 76
t-83 180q0 4 1 14.5t1 14.5l213 12q-2 -8 -2 -16q0 -41 27.5 -67t73.5 -26q45 0 71.5 25t26.5 63q0 35 -25.5 54.5t-62.5 19.5q-23 0 -47 -8zM1757 1452l-1202 -1452h-274l1202 1452h274z" />
    <glyph glyph-name="questiondown" unicode="&#xbf;" horiz-adv-x="1079" 
d="M438 580h238q-1 -56 -7 -97.5t-25.5 -97.5t-64.5 -104t-114 -86l-119 -66q-52 -29 -78 -74.5t-26 -93.5q0 -57 40.5 -98t120.5 -41q97 0 151 68.5t54 166.5l283 -28q-1 -133 -64 -242.5t-179 -174.5t-263 -65q-114 0 -204.5 32.5t-145.5 86t-84 118.5t-29 134
q0 268 279 428l88 51q75 42 107.5 80t41.5 103zM762 891q0 -79 -58.5 -137t-136.5 -58q-71 0 -115 46.5t-44 111.5q0 80 58.5 137.5t133.5 57.5q71 0 116.5 -45.5t45.5 -112.5z" />
    <glyph glyph-name="Agrave" unicode="&#xc0;" horiz-adv-x="1468" 
d="M987 0l-39 295h-538l-162 -295h-363l844 1452h375l219 -1452h-336zM846 1090l-273 -500h336zM788 1554l-245 271h356l156 -271h-267z" />
    <glyph glyph-name="Aacute" unicode="&#xc1;" horiz-adv-x="1468" 
d="M987 0l-39 295h-538l-162 -295h-363l844 1452h375l219 -1452h-336zM846 1090l-273 -500h336zM1438 1825l-363 -271h-293l271 271h385z" />
    <glyph glyph-name="Acircumflex" unicode="&#xc2;" horiz-adv-x="1468" 
d="M987 0l-39 295h-538l-162 -295h-363l844 1452h375l219 -1452h-336zM846 1090l-273 -500h336zM799 1554h-285l307 271h299l195 -271h-277l-90 134z" />
    <glyph glyph-name="Atilde" unicode="&#xc3;" horiz-adv-x="1468" 
d="M987 0l-39 295h-538l-162 -295h-363l844 1452h375l219 -1452h-336zM846 1090l-273 -500h336zM1327 1833q-21 -152 -90.5 -223.5t-171.5 -71.5q-71 0 -156 51q-73 47 -104 47q-27 0 -46.5 -21.5t-25.5 -64.5h-190q16 150 91.5 218.5t180.5 68.5q75 0 152 -47q7 -4 25 -16
t26 -16.5t21 -9.5t24 -5q60 0 74 90h190z" />
    <glyph glyph-name="Adieresis" unicode="&#xc4;" horiz-adv-x="1468" 
d="M434 1673q0 67 52.5 122.5t125.5 55.5q65 0 106.5 -42.5t41.5 -102.5q0 -74 -53 -125t-123 -51q-67 0 -108.5 40.5t-41.5 102.5zM1116 1673q0 67 53 122.5t127 55.5q63 0 104.5 -42.5t41.5 -102.5q0 -75 -52.5 -125.5t-123.5 -50.5q-67 0 -108.5 40.5t-41.5 102.5zM987 0
l-39 295h-538l-162 -295h-363l844 1452h375l219 -1452h-336zM846 1090l-273 -500h336z" />
    <glyph glyph-name="Aring" unicode="&#xc5;" horiz-adv-x="1468" 
d="M846 1092l-273 -502h336zM932 1647q-44 0 -76.5 -31.5t-32.5 -77.5q0 -38 26 -62t66 -24q42 0 76.5 31t34.5 80q0 39 -26.5 61.5t-67.5 22.5zM633 1526q0 123 94 214t221 91q114 0 192.5 -72t78.5 -180q0 -132 -101 -223l205 -1356h-336l-39 295h-538l-162 -295h-363
l797 1372q-49 65 -49 154z" />
    <glyph glyph-name="AE" unicode="&#xc6;" horiz-adv-x="2181" 
d="M1417 307h598l-65 -307h-922l66 311h-555l-265 -311h-411l1265 1452h1129l-64 -305h-596l-59 -277h539l-60 -292h-538zM766 578h385l129 604z" />
    <glyph glyph-name="Ccedilla" unicode="&#xc7;" horiz-adv-x="1495" 
d="M893 1481l8 2q119 0 219.5 -30t168 -77.5t118 -111t76.5 -126t37 -126.5l-318 -99q-7 35 -20 68t-38.5 68.5t-60 61.5t-87.5 43t-117 17q-81 0 -158.5 -34.5t-141 -98t-102.5 -165t-39 -224.5q0 -159 94.5 -261.5t253.5 -102.5q235 0 344 243l289 -116q-21 -57 -53 -111
t-83.5 -111.5t-114.5 -101.5t-151 -76.5t-188 -40.5l-77 -80q73 -7 118 -53t45 -108q0 -36 -15.5 -72t-46 -68t-83.5 -51.5t-121 -19.5q-58 0 -110 16.5t-85.5 41t-53 44.5t-27.5 35l114 104q64 -86 154 -86q35 0 56.5 14t21.5 40q0 27 -21.5 40t-52.5 13q-20 0 -43 -2
l-49 106l88 90q-242 37 -388.5 217.5t-146.5 438.5q0 131 30.5 248.5t85 210t128.5 167t161.5 123.5t184.5 75t197 26z" />
    <glyph glyph-name="Egrave" unicode="&#xc8;" horiz-adv-x="1183" 
d="M723 1554l-246 271h357l155 -271h-266zM952 0h-919l307 1452h920l-66 -305h-596l-59 -277h540l-59 -284h-541l-59 -279h598z" />
    <glyph glyph-name="Eacute" unicode="&#xc9;" horiz-adv-x="1183" 
d="M1286 1825l-362 -271h-293l270 271h385zM952 0h-919l307 1452h920l-66 -305h-596l-59 -277h540l-59 -284h-541l-59 -279h598z" />
    <glyph glyph-name="Ecircumflex" unicode="&#xca;" horiz-adv-x="1183" 
d="M694 1554h-284l307 271h299l194 -271h-276l-90 134zM952 0h-919l307 1452h920l-66 -305h-596l-59 -277h540l-59 -284h-541l-59 -279h598z" />
    <glyph glyph-name="Edieresis" unicode="&#xcb;" horiz-adv-x="1183" 
d="M952 0h-919l307 1452h920l-66 -305h-596l-59 -277h540l-59 -284h-541l-59 -279h598zM473 1673q0 67 51.5 120.5t122.5 53.5q62 0 101.5 -40.5t39.5 -100.5q0 -74 -51 -123t-121 -49q-64 0 -103.5 38.5t-39.5 100.5zM883 1673q0 67 51.5 120.5t122.5 53.5
q62 0 101.5 -40.5t39.5 -100.5q0 -74 -51 -123t-121 -49q-64 0 -103.5 38.5t-39.5 100.5z" />
    <glyph glyph-name="Igrave" unicode="&#xcc;" horiz-adv-x="649" 
d="M358 0h-325l307 1452h328zM395 1554l-245 271h356l156 -271h-267z" />
    <glyph glyph-name="Iacute" unicode="&#xcd;" horiz-adv-x="649" 
d="M358 0h-325l307 1452h328zM1022 1825l-363 -271h-292l270 271h385z" />
    <glyph glyph-name="Icircumflex" unicode="&#xce;" horiz-adv-x="649" 
d="M358 0h-325l307 1452h328zM401 1554h-284l307 271h299l195 -271h-277l-90 134z" />
    <glyph glyph-name="Idieresis" unicode="&#xcf;" horiz-adv-x="649" 
d="M174 1673q0 67 51.5 120.5t122.5 53.5q62 0 101.5 -40.5t39.5 -100.5q0 -74 -51 -123t-121 -49q-64 0 -103.5 38.5t-39.5 100.5zM584 1673q0 67 51.5 120.5t122.5 53.5q62 0 101.5 -40.5t39.5 -100.5q0 -74 -51 -123t-121 -49q-64 0 -103.5 38.5t-39.5 100.5zM358 0h-325
l307 1452h328z" />
    <glyph glyph-name="Eth" unicode="&#xd0;" horiz-adv-x="1536" 
d="M33 633l47 229h190l123 590h449q300 0 470.5 -168t170.5 -444q0 -158 -42 -294.5t-116 -235.5t-172 -169.5t-212 -105.5t-236 -35h-615l131 633h-188zM473 311h246q101 0 184.5 45t136.5 117.5t82 162t29 181.5q0 152 -81.5 242t-246.5 90h-174l-61 -287h307l-47 -229
h-307z" />
    <glyph glyph-name="Ntilde" unicode="&#xd1;" horiz-adv-x="1550" 
d="M1389 1833q-21 -152 -91 -223.5t-172 -71.5q-70 0 -155 51q-73 47 -105 47q-59 0 -71 -86h-191q16 150 92 218.5t181 68.5q74 0 151 -47q7 -4 25 -16t26 -16.5t21 -9.5t24 -5q60 0 74 90h191zM1260 0h-320l-385 952l-203 -952h-319l307 1452h369l348 -885l188 885h324z
" />
    <glyph glyph-name="Ograve" unicode="&#xd2;" horiz-adv-x="1593" 
d="M829 1554l-245 271h356l156 -271h-267zM106 629q0 156 42.5 293.5t117 239t173.5 174.5t214 110t236 37q293 0 471 -181.5t178 -476.5q0 -194 -65.5 -358t-175.5 -271.5t-250.5 -167t-292.5 -59.5q-191 0 -338.5 83t-228.5 233t-81 344zM1206 813q0 163 -88 260.5
t-246 97.5q-80 0 -157 -35t-139 -99t-100 -165.5t-38 -224.5q0 -165 88.5 -263.5t243.5 -98.5q64 0 126.5 22t118.5 66.5t98.5 106.5t67.5 148t25 185z" />
    <glyph glyph-name="Oacute" unicode="&#xd3;" horiz-adv-x="1593" 
d="M1434 1825l-363 -271h-293l271 271h385zM106 629q0 156 42.5 293.5t117 239t173.5 174.5t214 110t236 37q293 0 471 -181.5t178 -476.5q0 -194 -65.5 -358t-175.5 -271.5t-250.5 -167t-292.5 -59.5q-191 0 -338.5 83t-228.5 233t-81 344zM1206 813q0 163 -88 260.5
t-246 97.5q-80 0 -157 -35t-139 -99t-100 -165.5t-38 -224.5q0 -165 88.5 -263.5t243.5 -98.5q64 0 126.5 22t118.5 66.5t98.5 106.5t67.5 148t25 185z" />
    <glyph glyph-name="Ocircumflex" unicode="&#xd4;" horiz-adv-x="1593" 
d="M836 1554h-285l307 271h299l195 -271h-277l-90 134zM106 629q0 156 42.5 293.5t117 239t173.5 174.5t214 110t236 37q293 0 471 -181.5t178 -476.5q0 -194 -65.5 -358t-175.5 -271.5t-250.5 -167t-292.5 -59.5q-191 0 -338.5 83t-228.5 233t-81 344zM1206 813
q0 163 -88 260.5t-246 97.5q-80 0 -157 -35t-139 -99t-100 -165.5t-38 -224.5q0 -165 88.5 -263.5t243.5 -98.5q64 0 126.5 22t118.5 66.5t98.5 106.5t67.5 148t25 185z" />
    <glyph glyph-name="Otilde" unicode="&#xd5;" horiz-adv-x="1593" 
d="M1384 1833q-21 -152 -90.5 -223.5t-171.5 -71.5q-70 0 -155 51q-73 47 -105 47q-59 0 -71 -86h-191q16 150 91.5 218.5t180.5 68.5q75 0 152 -47q7 -4 25 -16t26 -16.5t21 -9.5t24 -5q60 0 74 90h190zM106 629q0 156 42.5 293.5t117 239t173.5 174.5t214 110t236 37
q293 0 471 -181.5t178 -476.5q0 -194 -65.5 -358t-175.5 -271.5t-250.5 -167t-292.5 -59.5q-191 0 -338.5 83t-228.5 233t-81 344zM1206 813q0 163 -88 260.5t-246 97.5q-80 0 -157 -35t-139 -99t-100 -165.5t-38 -224.5q0 -165 88.5 -263.5t243.5 -98.5q64 0 126.5 22
t118.5 66.5t98.5 106.5t67.5 148t25 185z" />
    <glyph glyph-name="Odieresis" unicode="&#xd6;" horiz-adv-x="1593" 
d="M457 1673q0 67 52.5 122.5t125.5 55.5q64 0 105.5 -42.5t41.5 -102.5q0 -74 -53 -125t-123 -51q-67 0 -108 40.5t-41 102.5zM1133 1673q0 67 53 122.5t127 55.5q63 0 104 -42.5t41 -102.5q0 -75 -52.5 -125.5t-123.5 -50.5q-67 0 -108 40.5t-41 102.5zM106 629
q0 156 42.5 293.5t117 239t173.5 174.5t214 110t236 37q293 0 471 -181.5t178 -476.5q0 -194 -65.5 -358t-175.5 -271.5t-250.5 -167t-292.5 -59.5q-191 0 -338.5 83t-228.5 233t-81 344zM1206 813q0 163 -88 260.5t-246 97.5q-80 0 -157 -35t-139 -99t-100 -165.5
t-38 -224.5q0 -165 88.5 -263.5t243.5 -98.5q64 0 126.5 22t118.5 66.5t98.5 106.5t67.5 148t25 185z" />
    <glyph glyph-name="multiply" unicode="&#xd7;" horiz-adv-x="1304" 
d="M344 213l-184 188l334 336l-334 338l184 185l336 -338l336 338l184 -185l-336 -338l336 -336l-184 -188l-336 338z" />
    <glyph glyph-name="Oslash" unicode="&#xd8;" horiz-adv-x="1593" 
d="M106 629q0 156 42.5 293.5t117 239t173.5 174.5t214 110t236 37q192 0 344 -84l151 182l189 -158l-158 -188q123 -172 123 -410q0 -194 -65.5 -358t-175.5 -271.5t-250.5 -167t-292.5 -59.5q-187 0 -334 80l-148 -176l-190 156l154 182q-130 176 -130 418zM438 647
q0 -91 27 -162l553 660q-67 26 -146 26q-80 0 -157 -35t-139 -99t-100 -165.5t-38 -224.5zM1206 813q0 77 -22 145l-547 -651q61 -22 133 -22q80 0 156 35.5t138 100.5t100.5 167t41.5 225z" />
    <glyph glyph-name="Ugrave" unicode="&#xd9;" horiz-adv-x="1419" 
d="M805 1554l-246 271h356l156 -271h-266zM1122 1452h328l-209 -985q-52 -242 -211.5 -370t-378.5 -128q-236 0 -380 132t-144 348q0 57 25 186l170 817h327l-176 -834q-16 -78 -16 -122q0 -96 54 -151.5t169 -55.5q97 0 161.5 59.5t88.5 177.5z" />
    <glyph glyph-name="Uacute" unicode="&#xda;" horiz-adv-x="1419" 
d="M1366 1825l-362 -271h-293l270 271h385zM1122 1452h328l-209 -985q-52 -242 -211.5 -370t-378.5 -128q-236 0 -380 132t-144 348q0 57 25 186l170 817h327l-176 -834q-16 -78 -16 -122q0 -96 54 -151.5t169 -55.5q97 0 161.5 59.5t88.5 177.5z" />
    <glyph glyph-name="Ucircumflex" unicode="&#xdb;" horiz-adv-x="1419" 
d="M778 1554h-284l307 271h299l194 -271h-276l-90 134zM1122 1452h328l-209 -985q-52 -242 -211.5 -370t-378.5 -128q-236 0 -380 132t-144 348q0 57 25 186l170 817h327l-176 -834q-16 -78 -16 -122q0 -96 54 -151.5t169 -55.5q97 0 161.5 59.5t88.5 177.5z" />
    <glyph glyph-name="Udieresis" unicode="&#xdc;" horiz-adv-x="1419" 
d="M514 1673q0 67 52.5 122.5t125.5 55.5q65 0 106.5 -42.5t41.5 -102.5q0 -74 -53 -125t-123 -51q-67 0 -108.5 40.5t-41.5 102.5zM991 1673q0 67 53 122.5t127 55.5q63 0 104.5 -42.5t41.5 -102.5q0 -75 -52.5 -125.5t-123.5 -50.5q-67 0 -108.5 40.5t-41.5 102.5z
M1122 1452h328l-209 -985q-52 -242 -211.5 -370t-378.5 -128q-236 0 -380 132t-144 348q0 57 25 186l170 817h327l-176 -834q-16 -78 -16 -122q0 -96 54 -151.5t169 -55.5q97 0 161.5 59.5t88.5 177.5z" />
    <glyph glyph-name="Yacute" unicode="&#xdd;" horiz-adv-x="1323" 
d="M504 606l-316 846h342l185 -537l372 537h390l-650 -848l-127 -604h-325zM1282 1825l-362 -271h-293l270 271h385z" />
    <glyph glyph-name="Thorn" unicode="&#xde;" horiz-adv-x="1243" 
d="M688 920h-133l-80 -371h168q58 0 103 14.5t71 36t42.5 51t22 54.5t5.5 51q0 164 -199 164zM358 0h-325l307 1452h328l-56 -254h156q199 0 326 -115.5t127 -300.5q0 -235 -157.5 -372.5t-416.5 -137.5h-231z" />
    <glyph glyph-name="germandbls" unicode="&#xdf;" horiz-adv-x="1275" 
d="M874 680q0 -18 11 -31.5t41 -30.5l49 -30q83 -50 127.5 -121.5t44.5 -157.5q0 -41 -13 -85.5t-43 -91t-73.5 -83.5t-111 -60.5t-148.5 -23.5q-87 0 -154.5 26.5t-105 69.5t-56 92t-18.5 101q0 21 4 45l246 16q-2 -8 -2 -22q0 -40 21 -68t73 -28q41 0 66.5 24t25.5 60
q0 48 -70 88l-51 28q-174 95 -174 248q0 188 195 279l35 16q64 33 91 65.5t27 81.5q0 46 -43.5 84.5t-130.5 38.5q-77 0 -137 -50.5t-84 -168.5l-205 -991h-307l219 1049q24 113 77 198.5t125.5 136t154.5 75t172 24.5q109 0 199 -31t147 -82.5t88 -116t31 -133.5
q0 -74 -20.5 -134.5t-59 -103t-78 -71t-90.5 -53.5l-33 -17q-62 -27 -62 -61z" />
    <glyph glyph-name="agrave" unicode="&#xe0;" horiz-adv-x="1224" 
d="M598 760q-73 0 -128.5 -46.5t-81.5 -114.5t-26 -144q0 -96 50 -149.5t129 -53.5q93 0 162 82t69 231q0 93 -47.5 144t-126.5 51zM879 1018h301l-174 -813q-19 -84 -19 -166q0 -21 2 -39h-282q-2 12 -2 37q0 43 6 84q-88 -137 -256 -137q-181 0 -290.5 129t-109.5 327
q0 262 148 432t366 170q68 0 123.5 -14.5t88 -38t50 -42.5t27.5 -38zM545 1139l-221 309h340l120 -309h-239z" />
    <glyph glyph-name="aacute" unicode="&#xe1;" horiz-adv-x="1224" 
d="M598 760q-73 0 -128.5 -46.5t-81.5 -114.5t-26 -144q0 -96 50 -149.5t129 -53.5q93 0 162 82t69 231q0 93 -47.5 144t-126.5 51zM879 1018h301l-174 -813q-19 -84 -19 -166q0 -21 2 -39h-282q-2 12 -2 37q0 43 6 84q-88 -137 -256 -137q-181 0 -290.5 129t-109.5 327
q0 262 148 432t366 170q68 0 123.5 -14.5t88 -38t50 -42.5t27.5 -38zM1126 1448l-356 -309h-264l250 309h370z" />
    <glyph glyph-name="acircumflex" unicode="&#xe2;" horiz-adv-x="1224" 
d="M555 1139h-254l307 309h289l172 -309h-233l-109 145zM598 760q-73 0 -128.5 -46.5t-81.5 -114.5t-26 -144q0 -96 50 -149.5t129 -53.5q93 0 162 82t69 231q0 93 -47.5 144t-126.5 51zM879 1018h301l-174 -813q-19 -84 -19 -166q0 -21 2 -39h-282q-2 12 -2 37q0 43 6 84
q-88 -137 -256 -137q-181 0 -290.5 129t-109.5 327q0 262 148 432t366 170q68 0 123.5 -14.5t88 -38t50 -42.5t27.5 -38z" />
    <glyph glyph-name="atilde" unicode="&#xe3;" horiz-adv-x="1224" 
d="M598 760q-73 0 -128.5 -46.5t-81.5 -114.5t-26 -144q0 -96 50 -149.5t129 -53.5q93 0 162 82t69 231q0 93 -47.5 144t-126.5 51zM879 1018h301l-174 -813q-19 -84 -19 -166q0 -21 2 -39h-282q-2 12 -2 37q0 43 6 84q-88 -137 -256 -137q-181 0 -290.5 129t-109.5 327
q0 262 148 432t366 170q68 0 123.5 -14.5t88 -38t50 -42.5t27.5 -38zM492 1141h-193q18 158 98 232.5t189 74.5q80 0 153 -47q63 -45 103 -45q69 0 86 90h192q-22 -154 -98 -230.5t-178 -76.5q-75 0 -156 47q-6 3 -21 11.5t-22.5 12.5t-19.5 9.5t-23 7.5t-22 2
q-71 0 -88 -88z" />
    <glyph glyph-name="adieresis" unicode="&#xe4;" horiz-adv-x="1224" 
d="M332 1278q0 67 52.5 120.5t123.5 53.5q62 0 101.5 -41.5t39.5 -101.5q0 -71 -54 -120.5t-122 -49.5q-61 0 -101 40.5t-40 98.5zM778 1278q0 67 52.5 120.5t121.5 53.5q62 0 103 -42t41 -101q0 -71 -54 -120.5t-122 -49.5q-62 0 -102 40.5t-40 98.5zM598 760
q-73 0 -128.5 -46.5t-81.5 -114.5t-26 -144q0 -96 50 -149.5t129 -53.5q93 0 162 82t69 231q0 93 -47.5 144t-126.5 51zM879 1018h301l-174 -813q-19 -84 -19 -166q0 -21 2 -39h-282q-2 12 -2 37q0 43 6 84q-88 -137 -256 -137q-181 0 -290.5 129t-109.5 327q0 262 148 432
t366 170q68 0 123.5 -14.5t88 -38t50 -42.5t27.5 -38z" />
    <glyph glyph-name="aring" unicode="&#xe5;" horiz-adv-x="1224" 
d="M598 760q-73 0 -128.5 -46.5t-81.5 -114.5t-26 -144q0 -96 50 -149.5t129 -53.5q93 0 162 82t69 231q0 93 -47.5 144t-126.5 51zM879 1018h301l-174 -813q-19 -84 -19 -166q0 -21 2 -39h-282q-2 12 -2 37q0 43 6 84q-88 -137 -256 -137q-181 0 -290.5 129t-109.5 327
q0 262 148 432t366 170q68 0 123.5 -14.5t88 -38t50 -42.5t27.5 -38zM731 1581q93 0 157 -56.5t64 -148.5q0 -108 -78.5 -179t-181.5 -71q-92 0 -154.5 58.5t-62.5 148.5q0 107 77.5 177.5t178.5 70.5zM633 1343q0 -31 21 -50t53 -19q34 0 57.5 24t23.5 60q0 30 -18.5 49.5
t-50.5 19.5q-33 0 -59.5 -24t-26.5 -60z" />
    <glyph glyph-name="ae" unicode="&#xe6;" horiz-adv-x="1734" 
d="M616 612q45 1 67 24t22 60q0 43 -40.5 75t-115.5 32q-68 0 -114.5 -37.5t-61.5 -91.5l-256 82q15 52 50.5 101.5t89.5 93.5t134.5 71t173.5 27q220 0 326 -109q134 109 303 109q212 0 335.5 -122t123.5 -315q0 -105 -29 -182h-680q0 -87 55 -146t156 -59q64 0 114.5 32
t76.5 83l237 -109q-53 -112 -168.5 -187t-288.5 -75q-111 0 -203.5 44.5t-156.5 127.5q-59 -73 -152.5 -119.5t-210.5 -46.5q-96 0 -172.5 25.5t-123 68t-71 95t-24.5 110.5q0 64 19.5 118t52.5 91t77.5 63.5t94.5 40t104 15.5zM317 295q0 -45 32.5 -71.5t84.5 -26.5
q68 0 132.5 51t80.5 143l6 37l-200 -8q-56 -3 -96 -36t-40 -89zM1192 801q-168 0 -221 -170h397v12q0 60 -43 109t-133 49z" />
    <glyph glyph-name="ccedilla" unicode="&#xe7;" horiz-adv-x="1134" 
d="M1085 696l-280 -78q-12 62 -60 103t-131 41q-99 0 -176.5 -80.5t-77.5 -222.5q0 -95 56 -150t147 -55q71 0 122.5 36t80.5 93l254 -96q-51 -126 -163.5 -215.5t-268.5 -102.5l-76 -78q73 -7 118.5 -53t45.5 -108q0 -36 -15.5 -72t-46 -68t-83.5 -51.5t-121 -19.5
q-58 0 -110 16.5t-85.5 41t-53.5 44.5t-28 35l115 104q64 -86 153 -86q35 0 56.5 14t21.5 40q0 27 -21 40t-52 13q-24 0 -44 -2l-49 106l95 99q-161 38 -258 165.5t-97 303.5q0 134 48.5 247.5t130 189t186.5 117.5t219 42q100 0 182 -30t135.5 -81t86.5 -112.5t44 -129.5z
" />
    <glyph glyph-name="egrave" unicode="&#xe8;" horiz-adv-x="1134" 
d="M367 631h399v14q0 60 -42.5 108t-131.5 48q-169 0 -225 -170zM1024 430l-686 -2q0 -87 55.5 -145t157.5 -58q64 0 114 32t76 83l242 -109q-56 -113 -170.5 -187.5t-288.5 -74.5q-128 0 -235 59t-171.5 168t-64.5 246q0 136 46.5 252.5t123 192.5t173 119t198.5 43
q211 0 335 -122t124 -315q0 -94 -29 -182zM539 1139l-222 309h340l121 -309h-239z" />
    <glyph glyph-name="eacute" unicode="&#xe9;" horiz-adv-x="1134" 
d="M1122 1448l-356 -309h-264l250 309h370zM367 631h399v14q0 60 -42.5 108t-131.5 48q-169 0 -225 -170zM1024 430l-686 -2q0 -87 55.5 -145t157.5 -58q64 0 114 32t76 83l242 -109q-56 -113 -170.5 -187.5t-288.5 -74.5q-128 0 -235 59t-171.5 168t-64.5 246
q0 136 46.5 252.5t123 192.5t173 119t198.5 43q211 0 335 -122t124 -315q0 -94 -29 -182z" />
    <glyph glyph-name="ecircumflex" unicode="&#xea;" horiz-adv-x="1134" 
d="M512 1139h-254l307 309h289l172 -309h-233l-109 145zM367 631h399v14q0 60 -42.5 108t-131.5 48q-169 0 -225 -170zM1024 430l-686 -2q0 -87 55.5 -145t157.5 -58q64 0 114 32t76 83l242 -109q-56 -113 -170.5 -187.5t-288.5 -74.5q-128 0 -235 59t-171.5 168t-64.5 246
q0 136 46.5 252.5t123 192.5t173 119t198.5 43q211 0 335 -122t124 -315q0 -94 -29 -182z" />
    <glyph glyph-name="edieresis" unicode="&#xeb;" horiz-adv-x="1134" 
d="M293 1278q0 67 52.5 120.5t123.5 53.5q62 0 101.5 -41.5t39.5 -101.5q0 -71 -54 -120.5t-122 -49.5q-61 0 -101 40.5t-40 98.5zM739 1278q0 67 52.5 120.5t121.5 53.5q62 0 103 -42t41 -101q0 -71 -54 -120.5t-122 -49.5q-62 0 -102 40.5t-40 98.5zM367 631h399v14
q0 60 -42.5 108t-131.5 48q-169 0 -225 -170zM1024 430l-686 -2q0 -87 55.5 -145t157.5 -58q64 0 114 32t76 83l242 -109q-56 -113 -170.5 -187.5t-288.5 -74.5q-128 0 -235 59t-171.5 168t-64.5 246q0 136 46.5 252.5t123 192.5t173 119t198.5 43q211 0 335 -122t124 -315
q0 -94 -29 -182z" />
    <glyph glyph-name="igrave" unicode="&#xec;" horiz-adv-x="575" 
d="M313 0h-313l219 1018h313zM276 1139l-221 309h340l121 -309h-240z" />
    <glyph glyph-name="iacute" unicode="&#xed;" horiz-adv-x="573" 
d="M879 1448l-357 -309h-264l250 309h371zM313 0h-313l219 1018h313z" />
    <glyph glyph-name="icircumflex" unicode="&#xee;" horiz-adv-x="573" 
d="M254 1139h-254l307 309h289l172 -309h-233l-109 145zM313 0h-313l219 1018h313z" />
    <glyph glyph-name="idieresis" unicode="&#xef;" horiz-adv-x="573" 
d="M313 0h-313l219 1018h313zM76 1278q0 66 52 117t122 51q59 0 97 -40t38 -97q0 -71 -52.5 -119.5t-117.5 -48.5q-62 0 -100.5 39.5t-38.5 97.5zM449 1278q0 67 51 117.5t121 50.5q59 0 97 -40t38 -97q0 -71 -52 -119.5t-116 -48.5q-63 0 -101 39t-38 98z" />
    <glyph glyph-name="eth" unicode="&#xf0;" horiz-adv-x="1216" 
d="M1128 1282l-149 -70q160 -190 160 -467q0 -181 -48 -329.5t-131 -245t-194 -149t-238 -52.5q-114 0 -208 38t-153.5 101.5t-91.5 144.5t-32 169q0 224 147.5 362t362.5 138q97 0 171.5 -31.5t113.5 -81.5q-12 161 -133 276l-285 -133l-74 172l160 76q-91 32 -217 35
l78 250q256 -3 458 -137l232 108zM770 485q0 84 -50 134.5t-138 50.5q-97 0 -163.5 -66t-66.5 -176q0 -78 51.5 -133t139.5 -55q96 0 161.5 68.5t65.5 176.5z" />
    <glyph glyph-name="ntilde" unicode="&#xf1;" horiz-adv-x="1196" 
d="M485 1141h-192q18 158 98 232.5t189 74.5q80 0 153 -47q63 -45 103 -45q69 0 86 90h192q-22 -154 -98 -230.5t-178 -76.5q-75 0 -156 47q-5 3 -21 12t-23 12.5t-19.5 9t-23.5 7.5t-22 2q-71 0 -88 -88zM948 0h-311l115 539q12 52 12 88q0 65 -35.5 103t-105.5 38
q-69 0 -116 -49t-65 -129l-127 -590h-311l178 848q19 93 19 170h303q0 -59 -6 -96q45 61 119.5 91.5t152.5 30.5q154 0 237 -91.5t83 -235.5q0 -50 -13 -113z" />
    <glyph glyph-name="ograve" unicode="&#xf2;" horiz-adv-x="1196" 
d="M555 1139l-221 309h340l121 -309h-240zM606 764q-109 0 -177.5 -90.5t-68.5 -212.5q0 -96 52.5 -151.5t134.5 -55.5q42 0 83.5 18.5t79 54t60.5 96.5t23 136q0 99 -50.5 151t-136.5 54zM1102 573q0 -162 -72 -299.5t-205.5 -221t-298.5 -83.5q-210 0 -341.5 136
t-131.5 341q0 132 46.5 246t125.5 191.5t184 121.5t220 44q213 0 343 -135.5t130 -340.5z" />
    <glyph glyph-name="oacute" unicode="&#xf3;" horiz-adv-x="1196" 
d="M1137 1448l-357 -309h-264l250 309h371zM606 764q-109 0 -177.5 -90.5t-68.5 -212.5q0 -96 52.5 -151.5t134.5 -55.5q42 0 83.5 18.5t79 54t60.5 96.5t23 136q0 99 -50.5 151t-136.5 54zM1102 573q0 -162 -72 -299.5t-205.5 -221t-298.5 -83.5q-210 0 -341.5 136
t-131.5 341q0 132 46.5 246t125.5 191.5t184 121.5t220 44q213 0 343 -135.5t130 -340.5z" />
    <glyph glyph-name="ocircumflex" unicode="&#xf4;" horiz-adv-x="1196" 
d="M528 1139h-254l308 309h288l172 -309h-233l-109 145zM606 764q-109 0 -177.5 -90.5t-68.5 -212.5q0 -96 52.5 -151.5t134.5 -55.5q42 0 83.5 18.5t79 54t60.5 96.5t23 136q0 99 -50.5 151t-136.5 54zM1102 573q0 -162 -72 -299.5t-205.5 -221t-298.5 -83.5
q-210 0 -341.5 136t-131.5 341q0 132 46.5 246t125.5 191.5t184 121.5t220 44q213 0 343 -135.5t130 -340.5z" />
    <glyph glyph-name="otilde" unicode="&#xf5;" horiz-adv-x="1196" 
d="M606 764q-109 0 -177.5 -90.5t-68.5 -212.5q0 -96 52.5 -151.5t134.5 -55.5q42 0 83.5 18.5t79 54t60.5 96.5t23 136q0 99 -50.5 151t-136.5 54zM1102 573q0 -162 -72 -299.5t-205.5 -221t-298.5 -83.5q-210 0 -341.5 136t-131.5 341q0 132 46.5 246t125.5 191.5
t184 121.5t220 44q213 0 343 -135.5t130 -340.5zM459 1141h-193q18 158 98 232.5t189 74.5q81 0 154 -47q63 -45 102 -45q69 0 86 90h192q-22 -154 -98 -230.5t-178 -76.5q-75 0 -156 47q-6 3 -21 11.5t-22.5 12.5t-19.5 9.5t-23 7.5t-22 2q-71 0 -88 -88z" />
    <glyph glyph-name="odieresis" unicode="&#xf6;" horiz-adv-x="1196" 
d="M311 1278q0 67 52.5 120.5t123.5 53.5q62 0 102 -41.5t40 -101.5q0 -71 -54 -120.5t-122 -49.5q-61 0 -101.5 40.5t-40.5 98.5zM758 1278q0 67 52.5 120.5t121.5 53.5q62 0 102.5 -41.5t40.5 -101.5q0 -71 -54 -120.5t-122 -49.5q-62 0 -101.5 40.5t-39.5 98.5zM606 764
q-109 0 -177.5 -90.5t-68.5 -212.5q0 -96 52.5 -151.5t134.5 -55.5q42 0 83.5 18.5t79 54t60.5 96.5t23 136q0 99 -50.5 151t-136.5 54zM1102 573q0 -162 -72 -299.5t-205.5 -221t-298.5 -83.5q-210 0 -341.5 136t-131.5 341q0 132 46.5 246t125.5 191.5t184 121.5t220 44
q213 0 343 -135.5t130 -340.5z" />
    <glyph glyph-name="divide" unicode="&#xf7;" horiz-adv-x="1214" 
d="M455 1120q0 71 51 121.5t123 50.5q71 0 121.5 -51t50.5 -121q0 -71 -51 -122.5t-121 -51.5q-72 0 -123 51.5t-51 122.5zM455 358q0 69 51 119.5t123 50.5q70 0 121 -50.5t51 -119.5q0 -71 -51 -122.5t-121 -51.5q-72 0 -123 51.5t-51 122.5zM119 610v254h1034v-254h-1034
z" />
    <glyph glyph-name="oslash" unicode="&#xf8;" horiz-adv-x="1196" 
d="M86 -76l-119 119l154 145q-68 112 -68 258q0 132 46.5 246t125.5 191.5t184 121.5t220 44q169 0 295 -95l151 146l115 -119l-156 -150q68 -117 68 -258q0 -162 -72 -299.5t-205.5 -221t-298.5 -83.5q-171 0 -295 94zM793 559q0 23 -2 39l-336 -322q37 -22 92 -22
q42 0 83.5 18.5t79 54t60.5 96.5t23 136zM606 764q-109 0 -177.5 -90.5t-68.5 -212.5q0 -29 2 -41l336 321q-44 23 -92 23z" />
    <glyph glyph-name="ugrave" unicode="&#xf9;" horiz-adv-x="1187" 
d="M205 1018h311l-123 -576q-6 -30 -6 -57q0 -63 35.5 -99t103.5 -36q69 0 113.5 48.5t62.5 129.5l127 590h312l-176 -840q-19 -88 -19 -178h-301q-2 12 -2 35t4 63q-34 -58 -103 -91.5t-143 -33.5q-159 0 -247 95.5t-88 242.5q0 53 12 109zM586 1139l-221 309h340l120 -309
h-239z" />
    <glyph glyph-name="uacute" unicode="&#xfa;" horiz-adv-x="1187" 
d="M1120 1448l-356 -309h-264l250 309h370zM205 1018h311l-123 -576q-6 -30 -6 -57q0 -63 35.5 -99t103.5 -36q69 0 113.5 48.5t62.5 129.5l127 590h312l-176 -840q-19 -88 -19 -178h-301q-2 12 -2 35t4 63q-34 -58 -103 -91.5t-143 -33.5q-159 0 -247 95.5t-88 242.5
q0 53 12 109z" />
    <glyph glyph-name="ucircumflex" unicode="&#xfb;" horiz-adv-x="1187" 
d="M561 1139h-254l307 309h289l172 -309h-233l-109 145zM205 1018h311l-123 -576q-6 -30 -6 -57q0 -63 35.5 -99t103.5 -36q69 0 113.5 48.5t62.5 129.5l127 590h312l-176 -840q-19 -88 -19 -178h-301q-2 12 -2 35t4 63q-34 -58 -103 -91.5t-143 -33.5q-159 0 -247 95.5
t-88 242.5q0 53 12 109z" />
    <glyph glyph-name="udieresis" unicode="&#xfc;" horiz-adv-x="1187" 
d="M326 1278q0 67 52.5 120.5t123.5 53.5q62 0 101.5 -41.5t39.5 -101.5q0 -71 -54 -120.5t-122 -49.5q-61 0 -101 40.5t-40 98.5zM772 1278q0 67 52.5 120.5t121.5 53.5q62 0 103 -42t41 -101q0 -71 -54.5 -120.5t-122.5 -49.5q-62 0 -101.5 40.5t-39.5 98.5zM205 1018h311
l-123 -576q-6 -30 -6 -57q0 -63 35.5 -99t103.5 -36q69 0 113.5 48.5t62.5 129.5l127 590h312l-176 -840q-19 -88 -19 -178h-301q-2 12 -2 35t4 63q-34 -58 -103 -91.5t-143 -33.5q-159 0 -247 95.5t-88 242.5q0 53 12 109z" />
    <glyph glyph-name="yacute" unicode="&#xfd;" horiz-adv-x="1105" 
d="M285 -389h-342l338 545l-211 862h325l115 -543l317 543h344zM1069 1448l-356 -309h-264l249 309h371z" />
    <glyph glyph-name="thorn" unicode="&#xfe;" horiz-adv-x="1255" 
d="M-82 -389l397 1872h314l-117 -547q42 48 108.5 75t143.5 27q192 0 295.5 -119t103.5 -309q-1 -137 -43 -256t-113 -202t-168.5 -130t-207.5 -47q-108 0 -186 38.5t-113 90.5l-103 -493h-311zM659 768q-107 0 -177 -91.5t-70 -213.5q0 -100 53 -154.5t135 -54.5
q94 0 171 82t77 227q0 98 -53 151.5t-136 53.5z" />
    <glyph glyph-name="ydieresis" unicode="&#xff;" horiz-adv-x="1105" 
d="M262 1278q0 67 52.5 120.5t123.5 53.5q62 0 102 -41.5t40 -101.5q0 -71 -54.5 -120.5t-122.5 -49.5q-61 0 -101 40.5t-40 98.5zM709 1278q0 67 52.5 120.5t121.5 53.5q62 0 102.5 -41.5t40.5 -101.5q0 -71 -54 -120.5t-122 -49.5q-62 0 -101.5 40.5t-39.5 98.5zM285 -389
h-342l338 545l-211 862h325l115 -543l317 543h344z" />
    <glyph glyph-name="Amacron" unicode="&#x100;" horiz-adv-x="1468" 
d="M987 0l-39 295h-538l-162 -295h-363l844 1452h375l219 -1452h-336zM846 1090l-273 -500h336zM1249 1579h-635l45 223h637z" />
    <glyph glyph-name="amacron" unicode="&#x101;" horiz-adv-x="1224" 
d="M598 760q-73 0 -128.5 -46.5t-81.5 -114.5t-26 -144q0 -96 50 -149.5t129 -53.5q93 0 162 82t69 231q0 93 -47.5 144t-126.5 51zM879 1018h301l-174 -813q-19 -84 -19 -166q0 -21 2 -39h-282q-2 12 -2 37q0 43 6 84q-88 -137 -256 -137q-181 0 -290.5 129t-109.5 327
q0 262 148 432t366 170q68 0 123.5 -14.5t88 -38t50 -42.5t27.5 -38zM969 1182h-584l45 215h586z" />
    <glyph glyph-name="Abreve" unicode="&#x102;" horiz-adv-x="1468" 
d="M987 0l-39 295h-538l-162 -295h-363l844 1452h375l219 -1452h-336zM846 1090l-273 -500h336zM942 1542q-133 0 -218 63.5t-85 180.5q0 21 4 39h213q-2 -10 -2 -19q0 -38 26 -60t74 -22q51 0 86.5 29t46.5 72h238q-28 -112 -129.5 -197.5t-253.5 -85.5z" />
    <glyph glyph-name="abreve" unicode="&#x103;" horiz-adv-x="1224" 
d="M598 760q-73 0 -128.5 -46.5t-81.5 -114.5t-26 -144q0 -96 50 -149.5t129 -53.5q93 0 162 82t69 231q0 93 -47.5 144t-126.5 51zM879 1018h301l-174 -813q-19 -84 -19 -166q0 -21 2 -39h-282q-2 12 -2 37q0 43 6 84q-88 -137 -256 -137q-181 0 -290.5 129t-109.5 327
q0 262 148 432t366 170q68 0 123.5 -14.5t88 -38t50 -42.5t27.5 -38zM692 1128q-143 0 -222 79t-79 192q0 21 4 49h197q-2 -6 -2 -14q0 -43 28.5 -74t90.5 -31q66 0 104 36t51 83h221q-32 -138 -132.5 -229t-260.5 -91z" />
    <glyph glyph-name="Aogonek" unicode="&#x104;" horiz-adv-x="1468" 
d="M987 0l-39 295h-538l-162 -295h-363l844 1452h375l219 -1452q-77 -27 -136 -79t-59 -116q0 -39 27.5 -60t73.5 -24q24 0 39 3l-37 -179q-27 -8 -82 -8q-100 0 -171 58t-71 155q0 152 146 250h-66zM846 1092l-273 -502h336z" />
    <glyph glyph-name="aogonek" unicode="&#x105;" horiz-adv-x="1224" 
d="M815 -463q-100 0 -171 58t-71 155q0 153 144 250h-10q-2 12 -2 33q0 46 6 88q-88 -137 -256 -137q-181 0 -290.5 129t-109.5 327q0 262 148 432t366 170q68 0 122.5 -14.5t86.5 -38t49 -42.5t27 -38l25 109h301l-174 -813q-19 -84 -19 -162q0 -20 2 -43
q-77 -27 -135.5 -79t-58.5 -116q0 -77 100 -84q24 0 39 3l-37 -179q-27 -8 -82 -8zM598 760q-73 0 -128.5 -46.5t-81.5 -114.5t-26 -144q0 -96 50 -149.5t129 -53.5q93 0 162 82t69 231q0 93 -47.5 144t-126.5 51z" />
    <glyph glyph-name="Cacute" unicode="&#x106;" horiz-adv-x="1495" 
d="M893 1481l8 2q119 0 219.5 -30t168 -77.5t118 -111t76.5 -126t37 -126.5l-318 -99q-7 35 -20 68t-38.5 68.5t-60 61.5t-87.5 43t-117 17q-81 0 -158.5 -34.5t-141 -98t-102.5 -165t-39 -224.5q0 -159 94.5 -261.5t253.5 -102.5q235 0 344 243l289 -116
q-23 -61 -57.5 -118.5t-92 -118t-128 -105.5t-170 -74t-213.5 -29q-192 0 -341.5 86.5t-230 237.5t-80.5 340q0 131 30.5 248.5t85 210t128.5 167t161.5 123.5t184.5 75t197 26zM1452 1825l-362 -271h-293l270 271h385z" />
    <glyph glyph-name="cacute" unicode="&#x107;" horiz-adv-x="1134" 
d="M1139 1448l-357 -309h-264l250 309h371zM1085 696l-280 -78q-12 62 -60 103t-131 41q-99 0 -176.5 -80.5t-77.5 -222.5q0 -95 56 -149t147 -54q71 0 122.5 36t80.5 93l254 -96q-56 -136 -180.5 -228t-298.5 -92q-136 0 -247.5 60.5t-176 171.5t-64.5 252
q0 134 48.5 247.5t130 189t186.5 117.5t219 42q100 0 182 -30t135.5 -81t86.5 -112.5t44 -129.5z" />
    <glyph glyph-name="Ccircumflex" unicode="&#x108;" horiz-adv-x="1495" 
d="M825 1554h-284l307 271h299l194 -271h-276l-90 134zM893 1481l8 2q119 0 219.5 -30t168 -77.5t118 -111t76.5 -126t37 -126.5l-318 -99q-7 35 -20 68t-38.5 68.5t-60 61.5t-87.5 43t-117 17q-81 0 -158.5 -34.5t-141 -98t-102.5 -165t-39 -224.5q0 -159 94.5 -261.5
t253.5 -102.5q235 0 344 243l289 -116q-23 -61 -57.5 -118.5t-92 -118t-128 -105.5t-170 -74t-213.5 -29q-192 0 -341.5 86.5t-230 237.5t-80.5 340q0 131 30.5 248.5t85 210t128.5 167t161.5 123.5t184.5 75t197 26z" />
    <glyph glyph-name="ccircumflex" unicode="&#x109;" horiz-adv-x="1134" 
d="M551 1139h-254l307 309h289l172 -309h-234l-108 145zM1085 696l-280 -78q-12 62 -60 103t-131 41q-99 0 -176.5 -80.5t-77.5 -222.5q0 -95 56 -149t147 -54q71 0 122.5 36t80.5 93l254 -96q-56 -136 -180.5 -228t-298.5 -92q-136 0 -247.5 60.5t-176 171.5t-64.5 252
q0 134 48.5 247.5t130 189t186.5 117.5t219 42q100 0 182 -30t135.5 -81t86.5 -112.5t44 -129.5z" />
    <glyph glyph-name="Cdotaccent" unicode="&#x10a;" horiz-adv-x="1495" 
d="M893 1481l8 2q119 0 219.5 -30t168 -77.5t118 -111t76.5 -126t37 -126.5l-318 -99q-7 35 -20 68t-38.5 68.5t-60 61.5t-87.5 43t-117 17q-81 0 -158.5 -34.5t-141 -98t-102.5 -165t-39 -224.5q0 -159 94.5 -261.5t253.5 -102.5q235 0 344 243l289 -116
q-23 -61 -57.5 -118.5t-92 -118t-128 -105.5t-170 -74t-213.5 -29q-192 0 -341.5 86.5t-230 237.5t-80.5 340q0 131 30.5 248.5t85 210t128.5 167t161.5 123.5t184.5 75t197 26zM788 1726q0 74 60 133.5t141 59.5q70 0 117 -46.5t47 -111.5q0 -85 -59 -142.5t-140 -57.5
q-71 0 -118.5 48.5t-47.5 116.5z" />
    <glyph glyph-name="cdotaccent" unicode="&#x10b;" horiz-adv-x="1134" 
d="M1085 696l-280 -78q-12 62 -60 103t-131 41q-99 0 -176.5 -80.5t-77.5 -222.5q0 -95 56 -149t147 -54q71 0 122.5 36t80.5 93l254 -96q-56 -136 -180.5 -228t-298.5 -92q-136 0 -247.5 60.5t-176 171.5t-64.5 252q0 134 48.5 247.5t130 189t186.5 117.5t219 42
q100 0 182 -30t135.5 -81t86.5 -112.5t44 -129.5zM514 1284q0 77 59 137t142 60q69 0 115.5 -46.5t46.5 -111.5q0 -85 -58.5 -143t-138.5 -58q-72 0 -119 47t-47 115z" />
    <glyph glyph-name="Ccaron" unicode="&#x10c;" horiz-adv-x="1495" 
d="M1102 1825h297l-312 -271h-299l-194 271h270l88 -133zM893 1481l8 2q119 0 219.5 -30t168 -77.5t118 -111t76.5 -126t37 -126.5l-318 -99q-7 35 -20 68t-38.5 68.5t-60 61.5t-87.5 43t-117 17q-81 0 -158.5 -34.5t-141 -98t-102.5 -165t-39 -224.5q0 -159 94.5 -261.5
t253.5 -102.5q235 0 344 243l289 -116q-23 -61 -57.5 -118.5t-92 -118t-128 -105.5t-170 -74t-213.5 -29q-192 0 -341.5 86.5t-230 237.5t-80.5 340q0 131 30.5 248.5t85 210t128.5 167t161.5 123.5t184.5 75t197 26z" />
    <glyph glyph-name="ccaron" unicode="&#x10d;" horiz-adv-x="1134" 
d="M852 1448h258l-301 -309h-291l-170 309h230l112 -148zM1085 696l-280 -78q-12 62 -60 103t-131 41q-99 0 -176.5 -80.5t-77.5 -222.5q0 -95 56 -149t147 -54q71 0 122.5 36t80.5 93l254 -96q-56 -136 -180.5 -228t-298.5 -92q-136 0 -247.5 60.5t-176 171.5t-64.5 252
q0 134 48.5 247.5t130 189t186.5 117.5t219 42q100 0 182 -30t135.5 -81t86.5 -112.5t44 -129.5z" />
    <glyph glyph-name="Dcaron" unicode="&#x10e;" horiz-adv-x="1482" 
d="M1012 1825h297l-312 -271h-299l-194 271h270l88 -133zM418 311h246q101 0 184.5 45t136.5 117.5t82 162t29 181.5q0 152 -81.5 242t-246.5 90h-174zM649 0h-614l303 1452h448q300 0 470.5 -168t170.5 -444q0 -158 -42 -294.5t-116 -235.5t-172 -169.5t-212 -105.5
t-236 -35z" />
    <glyph glyph-name="dcaron" unicode="&#x10f;" horiz-adv-x="1224" 
d="M1735 1483l-246 -424h-211l149 424h308zM1276 1483l-270 -1278q-19 -82 -19 -158q0 -35 2 -47h-282q-2 12 -2 45q0 16 6 76q-88 -137 -256 -137q-181 0 -290.5 129t-109.5 327q0 262 148 432t366 170q114 0 180 -36.5t97 -81.5l119 559h311zM598 760q-73 0 -128.5 -46.5
t-81.5 -114.5t-26 -144q0 -96 50 -149.5t129 -53.5q93 0 162 82t69 231q0 93 -47.5 144t-126.5 51z" />
    <glyph glyph-name="Dcroat" unicode="&#x110;" horiz-adv-x="1536" 
d="M33 633l47 229h190l123 590h449q300 0 470.5 -168t170.5 -444q0 -158 -42 -294.5t-116 -235.5t-172 -169.5t-212 -105.5t-236 -35h-615l131 633h-188zM473 311h246q101 0 184.5 45t136.5 117.5t82 162t29 181.5q0 152 -81.5 242t-246.5 90h-174l-61 -287h307l-47 -229
h-307z" />
    <glyph glyph-name="dcroat" unicode="&#x111;" horiz-adv-x="1224" 
d="M1276 1483l-31 -144h172l-45 -215h-172l-194 -919q-19 -82 -19 -158q0 -35 2 -47h-282q-2 12 -2 45q0 16 6 76q-88 -137 -256 -137q-181 0 -290.5 129t-109.5 327q0 262 148 432t366 170q114 0 180 -36.5t97 -81.5l43 200h-184l45 215h184l31 144h311zM598 760
q-73 0 -128.5 -46.5t-81.5 -114.5t-26 -144q0 -96 50 -149.5t129 -53.5q93 0 162 82t69 231q0 93 -47.5 144t-126.5 51z" />
    <glyph glyph-name="Emacron" unicode="&#x112;" horiz-adv-x="1183" 
d="M952 0h-919l307 1452h920l-66 -305h-596l-59 -277h540l-59 -284h-541l-59 -279h598zM1130 1579h-634l45 223h637z" />
    <glyph glyph-name="emacron" unicode="&#x113;" horiz-adv-x="1134" 
d="M942 1182h-584l45 215h586zM367 631h399v14q0 60 -42.5 108t-131.5 48q-169 0 -225 -170zM1024 430l-686 -2q0 -87 55.5 -145t157.5 -58q64 0 114 32t76 83l242 -109q-56 -113 -170.5 -187.5t-288.5 -74.5q-128 0 -235 59t-171.5 168t-64.5 246q0 136 46.5 252.5
t123 192.5t173 119t198.5 43q211 0 335 -122t124 -315q0 -94 -29 -182z" />
    <glyph glyph-name="Ebreve" unicode="&#x114;" horiz-adv-x="1183" 
d="M952 0h-919l307 1452h920l-66 -305h-596l-59 -277h540l-59 -284h-541l-59 -279h598zM811 1542q-133 0 -218 63.5t-85 180.5q0 21 4 39h213q-2 -10 -2 -19q0 -38 26 -60t74 -22q51 0 86.5 29t46.5 72h238q-28 -112 -129.5 -197.5t-253.5 -85.5z" />
    <glyph glyph-name="ebreve" unicode="&#x115;" horiz-adv-x="1134" 
d="M367 631h399v14q0 60 -42.5 108t-131.5 48q-169 0 -225 -170zM1024 430l-686 -2q0 -87 55.5 -145t157.5 -58q64 0 114 32t76 83l242 -109q-56 -113 -170.5 -187.5t-288.5 -74.5q-128 0 -235 59t-171.5 168t-64.5 246q0 136 46.5 252.5t123 192.5t173 119t198.5 43
q211 0 335 -122t124 -315q0 -94 -29 -182zM668 1128q-143 0 -222 79t-79 192q0 21 4 49h196q-2 -6 -2 -14q0 -43 28.5 -74t90.5 -31q66 0 104.5 36t51.5 83h221q-32 -138 -132.5 -229t-260.5 -91z" />
    <glyph glyph-name="Edotaccent" unicode="&#x116;" horiz-adv-x="1183" 
d="M649 1708q0 74 60 133.5t141 59.5q70 0 117 -46.5t47 -111.5q0 -85 -59 -143t-140 -58q-71 0 -118.5 48.5t-47.5 117.5zM952 0h-919l307 1452h920l-66 -305h-596l-59 -277h540l-59 -284h-541l-59 -279h598z" />
    <glyph glyph-name="edotaccent" unicode="&#x117;" horiz-adv-x="1134" 
d="M367 631h399v14q0 60 -42.5 108t-131.5 48q-169 0 -225 -170zM1024 430l-686 -2q0 -87 55.5 -145t157.5 -58q64 0 114 32t76 83l242 -109q-56 -113 -170.5 -187.5t-288.5 -74.5q-128 0 -235 59t-171.5 168t-64.5 246q0 136 46.5 252.5t123 192.5t173 119t198.5 43
q211 0 335 -122t124 -315q0 -94 -29 -182zM500 1280q0 77 58.5 137t141.5 60q70 0 116 -46.5t46 -111.5q0 -85 -58.5 -143t-137.5 -58q-72 0 -119 47t-47 115z" />
    <glyph glyph-name="Eogonek" unicode="&#x118;" horiz-adv-x="1183" 
d="M952 0q-77 -27 -135.5 -79t-58.5 -116q0 -77 100 -84q24 0 39 3l-37 -179q-27 -8 -82 -8q-100 0 -170.5 58t-70.5 155q0 155 147 250h-651l307 1452h920l-66 -305h-596l-59 -277h540l-59 -284h-541l-59 -279h598z" />
    <glyph glyph-name="eogonek" unicode="&#x119;" horiz-adv-x="1134" 
d="M1024 430l-686 -2q0 -87 55.5 -145t157.5 -58q64 0 114 32t76 83l242 -109q-89 -178 -287 -239q-69 -22 -121.5 -71t-52.5 -107q0 -86 101 -93q24 0 39 3l-37 -179q-27 -8 -82 -8q-100 0 -171 58t-71 155q0 137 117 232q-159 33 -262 158t-103 302q0 136 46.5 252.5
t123 192.5t173 119t198.5 43q211 0 335 -122t124 -315q0 -94 -29 -182zM367 631h399v14q0 60 -42.5 108t-131.5 48q-169 0 -225 -170z" />
    <glyph glyph-name="Ecaron" unicode="&#x11a;" horiz-adv-x="1183" 
d="M971 1825h297l-312 -271h-299l-194 271h270l88 -133zM952 0h-919l307 1452h920l-66 -305h-596l-59 -277h540l-59 -284h-541l-59 -279h598z" />
    <glyph glyph-name="ecaron" unicode="&#x11b;" horiz-adv-x="1134" 
d="M823 1448h258l-301 -309h-291l-170 309h230l113 -148zM367 631h399v14q0 60 -42.5 108t-131.5 48q-169 0 -225 -170zM1024 430l-686 -2q0 -87 55.5 -145t157.5 -58q64 0 114 32t76 83l242 -109q-56 -113 -170.5 -187.5t-288.5 -74.5q-128 0 -235 59t-171.5 168t-64.5 246
q0 136 46.5 252.5t123 192.5t173 119t198.5 43q211 0 335 -122t124 -315q0 -94 -29 -182z" />
    <glyph glyph-name="Gcircumflex" unicode="&#x11c;" horiz-adv-x="1568" 
d="M817 1554h-285l308 271h299l194 -271h-276l-90 134zM877 1176q-80 0 -157 -33.5t-140.5 -97t-102.5 -166.5t-39 -230q0 -171 91 -276t255 -105q144 0 234 65t127 169h-424l59 274h721l-164 -776h-243v141q-57 -76 -153.5 -120t-217.5 -44q-280 0 -448.5 182t-168.5 472
q0 194 65.5 357t175 269.5t250.5 165t294 58.5l8 2q119 0 220.5 -28t170 -73.5t120 -105.5t79 -121.5t37.5 -124.5l-318 -98q-8 44 -29 83.5t-58 77.5t-100 60.5t-144 22.5z" />
    <glyph glyph-name="gcircumflex" unicode="&#x11d;" horiz-adv-x="1230" 
d="M575 1139h-253l307 309h289l172 -309h-234l-108 145zM778 584q0 82 -49.5 131t-124.5 49q-101 0 -167 -73t-66 -187q0 -84 50 -133t132 -49q91 0 158 72.5t67 189.5zM-63 -27l272 54q0 -77 54 -128t151 -51q99 0 169 62.5t97 179.5l14 64q-31 -38 -89 -65.5t-134 -27.5
q-186 0 -299 118t-113 302q0 154 66 282t183 202.5t261 74.5q116 0 191.5 -39t105.5 -90l21 107h301l-197 -932q-22 -109 -70 -200t-118.5 -160t-169 -107.5t-215.5 -38.5q-121 0 -216.5 35.5t-151.5 93.5t-84.5 125.5t-28.5 138.5z" />
    <glyph glyph-name="Gbreve" unicode="&#x11e;" horiz-adv-x="1568" 
d="M967 1542q-133 0 -218 63.5t-85 180.5q0 21 4 39h213q-2 -10 -2 -19q0 -38 26 -60t74 -22q51 0 86.5 29t46.5 72h238q-28 -112 -129.5 -197.5t-253.5 -85.5zM877 1176q-80 0 -157 -33.5t-140.5 -97t-102.5 -166.5t-39 -230q0 -171 91 -276t255 -105q144 0 234 65t127 169
h-424l59 274h721l-164 -776h-243v141q-57 -76 -153.5 -120t-217.5 -44q-280 0 -448.5 182t-168.5 472q0 194 65.5 357t175 269.5t250.5 165t294 58.5l8 2q119 0 220.5 -28t170 -73.5t120 -105.5t79 -121.5t37.5 -124.5l-318 -98q-8 44 -29 83.5t-58 77.5t-100 60.5
t-144 22.5z" />
    <glyph glyph-name="gbreve" unicode="&#x11f;" horiz-adv-x="1230" 
d="M778 584q0 82 -49.5 131t-124.5 49q-101 0 -167 -73t-66 -187q0 -84 50 -133t132 -49q91 0 158 72.5t67 189.5zM-63 -27l272 54q0 -77 54 -128t151 -51q99 0 169 62.5t97 179.5l14 64q-31 -38 -89 -65.5t-134 -27.5q-186 0 -299 118t-113 302q0 154 66 282t183 202.5
t261 74.5q116 0 191.5 -39t105.5 -90l21 107h301l-197 -932q-22 -109 -70 -200t-118.5 -160t-169 -107.5t-215.5 -38.5q-121 0 -216.5 35.5t-151.5 93.5t-84.5 125.5t-28.5 138.5zM688 1128q-143 0 -222 79t-79 192q0 21 4 49h197q-2 -6 -2 -14q0 -43 28.5 -74t90.5 -31
q66 0 104 36t51 83h221q-32 -138 -132.5 -229t-260.5 -91z" />
    <glyph glyph-name="Gdotaccent" unicode="&#x120;" horiz-adv-x="1568" 
d="M809 1718q0 74 60 133.5t141 59.5q70 0 117 -46.5t47 -111.5q0 -85 -59 -143t-140 -58q-71 0 -118.5 48.5t-47.5 117.5zM877 1176q-80 0 -157 -33.5t-140.5 -97t-102.5 -166.5t-39 -230q0 -171 91 -276t255 -105q144 0 234 65t127 169h-424l59 274h721l-164 -776h-243
v141q-57 -76 -153.5 -120t-217.5 -44q-280 0 -448.5 182t-168.5 472q0 194 65.5 357t175 269.5t250.5 165t294 58.5l8 2q119 0 220.5 -28t170 -73.5t120 -105.5t79 -121.5t37.5 -124.5l-318 -98q-8 44 -29 83.5t-58 77.5t-100 60.5t-144 22.5z" />
    <glyph glyph-name="gdotaccent" unicode="&#x121;" horiz-adv-x="1230" 
d="M508 1280q0 77 59 137t142 60q69 0 115 -46t46 -112q0 -85 -58.5 -143t-137.5 -58q-72 0 -119 47t-47 115zM778 584q0 82 -49.5 131t-124.5 49q-101 0 -167 -73t-66 -187q0 -84 50 -133t132 -49q91 0 158 72.5t67 189.5zM-63 -27l272 54q0 -77 54 -128t151 -51
q99 0 169 62.5t97 179.5l14 64q-31 -38 -89 -65.5t-134 -27.5q-186 0 -299 118t-113 302q0 154 66 282t183 202.5t261 74.5q116 0 191.5 -39t105.5 -90l21 107h301l-197 -932q-22 -109 -70 -200t-118.5 -160t-169 -107.5t-215.5 -38.5q-121 0 -216.5 35.5t-151.5 93.5
t-84.5 125.5t-28.5 138.5z" />
    <glyph glyph-name="Gcommaaccent" unicode="&#x122;" horiz-adv-x="1568" 
d="M504 -250q0 64 49.5 109t120.5 45q81 0 125.5 -48t44.5 -120q0 -135 -88.5 -212t-214.5 -77q-32 0 -72 8l23 105q14 -2 43 -2q121 0 155 77q-20 -8 -49 -8q-65 0 -101 36t-36 87zM877 1176q-80 0 -157 -33.5t-140.5 -97t-102.5 -166.5t-39 -230q0 -171 91 -276t255 -105
q144 0 234 65t127 169h-424l59 274h721l-164 -776h-243v141q-57 -76 -153.5 -120t-217.5 -44q-280 0 -448.5 182t-168.5 472q0 194 65.5 357t175 269.5t250.5 165t294 58.5l8 2q119 0 220.5 -28t170 -73.5t120 -105.5t79 -121.5t37.5 -124.5l-318 -98q-8 44 -29 83.5
t-58 77.5t-100 60.5t-144 22.5z" />
    <glyph glyph-name="gcommaaccent" unicode="&#x123;" horiz-adv-x="1230" 
d="M854 1274q0 -64 -48.5 -110t-119.5 -46q-78 0 -124 50.5t-46 121.5q0 87 44.5 154t114.5 101t150 34q36 0 66 -6l-23 -109q-30 6 -49 6q-57 0 -98.5 -24.5t-54.5 -56.5q30 12 55 12q67 0 100 -37t33 -90zM778 584q0 82 -49.5 131t-124.5 49q-101 0 -167 -73t-66 -187
q0 -84 50 -133t132 -49q91 0 158 72.5t67 189.5zM-63 -27l272 54q0 -77 54 -128t151 -51q99 0 169 62.5t97 179.5l14 64q-31 -38 -89 -65.5t-134 -27.5q-186 0 -299 118t-113 302q0 154 66 282t183 202.5t261 74.5q116 0 191.5 -39t105.5 -90l21 107h301l-197 -932
q-22 -109 -70 -200t-118.5 -160t-169 -107.5t-215.5 -38.5q-121 0 -216.5 35.5t-151.5 93.5t-84.5 125.5t-28.5 138.5z" />
    <glyph glyph-name="Hcircumflex" unicode="&#x124;" horiz-adv-x="1507" 
d="M823 1554h-284l307 271h299l194 -271h-276l-90 134zM1217 0h-326l123 582h-535l-125 -582h-321l307 1452h324l-121 -565h536l121 565h326z" />
    <glyph glyph-name="hcircumflex" unicode="&#x125;" horiz-adv-x="1193" 
d="M946 0h-311l117 541q12 54 12 86q0 64 -37.5 102.5t-105.5 38.5q-69 0 -116 -49t-65 -129l-127 -590h-311l313 1483h314l-117 -547q45 54 113.5 81t142.5 27q154 0 236.5 -91.5t82.5 -235.5q0 -60 -16 -133zM684 1575h-285l308 270h299l194 -270h-276l-90 133z" />
    <glyph glyph-name="Hbar" unicode="&#x126;" horiz-adv-x="1552" 
d="M117 1061l41 190h164l43 201h323l-43 -201h537l43 201h325l-43 -201h162l-41 -190h-162l-225 -1061h-326l123 582h-534l-125 -582h-322l224 1061h-164zM567 887h537l37 174h-537z" />
    <glyph glyph-name="hbar" unicode="&#x127;" horiz-adv-x="1193" 
d="M946 0h-311l123 578q6 24 6 49q0 64 -37.5 102.5t-105.5 38.5q-69 0 -116 -49t-65 -129l-127 -590h-311l238 1124h-150l45 215h150l30 144h314l-31 -144h223l-45 -215h-225l-39 -188q45 54 113.5 81t142.5 27q154 0 236.5 -91.5t82.5 -235.5q0 -54 -12 -113z" />
    <glyph glyph-name="Itilde" unicode="&#x128;" horiz-adv-x="649" 
d="M358 0h-325l307 1452h328zM932 1833q-21 -152 -90.5 -223.5t-171.5 -71.5q-71 0 -156 51q-73 47 -104 47q-27 0 -46.5 -21.5t-25.5 -64.5h-191q16 150 92 218.5t181 68.5q74 0 151 -47q6 -4 25 -16.5t26.5 -16.5t21 -9t24.5 -5q59 0 73 90h191z" />
    <glyph glyph-name="itilde" unicode="&#x129;" horiz-adv-x="573" 
d="M313 0h-313l219 1018h313zM213 1141h-193q18 158 98 232.5t189 74.5q81 0 154 -47q63 -45 102 -45q69 0 86 90h193q-22 -154 -98 -230.5t-179 -76.5q-74 0 -155 47q-5 3 -21 12t-23 12.5t-19.5 9t-23.5 7.5t-22 2q-71 0 -88 -88z" />
    <glyph glyph-name="Imacron" unicode="&#x12a;" horiz-adv-x="649" 
d="M358 0h-325l307 1452h328zM838 1579h-635l45 223h637z" />
    <glyph glyph-name="imacron" unicode="&#x12b;" horiz-adv-x="575" 
d="M313 0h-313l219 1018h313zM690 1182h-584l46 215h585z" />
    <glyph glyph-name="Ibreve" unicode="&#x12c;" horiz-adv-x="649" 
d="M358 0h-325l307 1452h328zM535 1542q-133 0 -218.5 63.5t-85.5 180.5q0 16 5 39h213q-3 -15 -3 -19q0 -38 26.5 -60t74.5 -22q51 0 86.5 29t46.5 72h238q-28 -112 -129.5 -197.5t-253.5 -85.5z" />
    <glyph glyph-name="ibreve" unicode="&#x12d;" horiz-adv-x="573" 
d="M313 0h-313l219 1018h313zM403 1128q-143 0 -222 79t-79 192q0 21 4 49h197q-2 -6 -2 -14q0 -43 28.5 -74t90.5 -31q66 0 104 36t51 83h222q-32 -137 -133 -228.5t-261 -91.5z" />
    <glyph glyph-name="Iogonek" unicode="&#x12e;" horiz-adv-x="649" 
d="M184 -463q-100 0 -170.5 58t-70.5 155q0 153 145 250h-55l307 1452h328l-310 -1452q-77 -27 -135.5 -79t-58.5 -116q0 -77 100 -84q24 0 39 3l-37 -179q-27 -8 -82 -8z" />
    <glyph glyph-name="iogonek" unicode="&#x12f;" horiz-adv-x="571" 
d="M137 -463q-100 0 -170.5 58t-70.5 155q0 153 145 250h-41l217 1018h311l-217 -1018q-77 -27 -135.5 -79t-58.5 -116q0 -77 100 -84q24 0 39 3l-37 -179q-27 -8 -82 -8zM254 1315q0 83 58 139.5t143 56.5q71 0 116 -44.5t45 -112.5q0 -86 -59.5 -141.5t-140.5 -55.5
q-70 0 -116 45t-46 113z" />
    <glyph glyph-name="Idotaccent" unicode="&#x130;" horiz-adv-x="649" 
d="M358 0h-325l307 1452h328zM369 1708q0 74 59.5 133.5t140.5 59.5q70 0 117 -46.5t47 -111.5q0 -85 -58.5 -143t-139.5 -58q-71 0 -118.5 48.5t-47.5 117.5z" />
    <glyph glyph-name="dotlessi" unicode="&#x131;" horiz-adv-x="575" 
d="M313 0h-313l219 1018h313z" />
    <glyph glyph-name="IJ" unicode="&#x132;" horiz-adv-x="1247" 
d="M477 752l-309 -37l162 737h301zM948 1452h328l-221 -1046q-41 -198 -181.5 -317.5t-332.5 -119.5q-204 0 -322.5 113t-118.5 295q0 69 13 127l12 49l313 45l-22 -111q-6 -27 -6 -51q0 -69 37.5 -114.5t111.5 -45.5q67 0 113.5 48.5t62.5 124.5z" />
    <glyph glyph-name="ij" unicode="&#x133;" horiz-adv-x="1142" 
d="M254 1315q0 83 58 139.5t143 56.5q71 0 116 -44.5t45 -112.5q0 -86 -59.5 -141.5t-140.5 -55.5q-70 0 -116 45t-46 113zM311 0h-311l217 1018h311zM563 -41l228 1059h309l-240 -1129q-32 -152 -127 -230.5t-233 -78.5q-67 0 -121.5 17.5t-81.5 37.5l51 242l12 -5
q11 -5 36.5 -11t52.5 -6q97 0 114 104zM827 1315q0 83 57 139.5t142 56.5q73 0 118.5 -44.5t45.5 -112.5q0 -86 -60 -141.5t-141 -55.5q-70 0 -116 45t-46 113z" />
    <glyph glyph-name="Jcircumflex" unicode="&#x134;" horiz-adv-x="1144" 
d="M893 1554h-285l307 271h299l195 -271h-276l-91 134zM846 1452h328l-222 -1046q-41 -198 -181.5 -317.5t-332.5 -119.5q-204 0 -322 113t-118 295q0 72 14 135l11 45l313 47l-19 -96q-8 -36 -8 -80q0 -63 37.5 -107.5t110.5 -44.5q67 0 113.5 48.5t62.5 124.5z" />
    <glyph glyph-name="jcircumflex" unicode="&#x135;" horiz-adv-x="571" 
d="M256 1139h-254l307 309h289l172 -309h-233l-109 145zM-8 -41l227 1059h309l-239 -1129q-32 -152 -127 -230.5t-234 -78.5q-67 0 -121 17.5t-81 37.5l51 242l11 -5q12 -5 37 -11t52 -6q98 0 115 104z" />
    <glyph glyph-name="Kcommaaccent" unicode="&#x136;" horiz-adv-x="1419" 
d="M907 0l-280 567l-189 -172l-84 -395h-321l307 1452h324l-121 -565l618 565h447l-729 -659l413 -793h-385zM428 -246q0 64 49.5 109t120.5 45q81 0 125.5 -48t44.5 -120q0 -135 -88.5 -212t-214.5 -77q-32 0 -72 8l23 105q14 -2 43 -2q120 0 155 78q-22 -9 -49 -9
q-65 0 -101 36t-36 87z" />
    <glyph glyph-name="kcommaaccent" unicode="&#x137;" horiz-adv-x="1165" 
d="M670 0l-168 377l-133 -117l-56 -260h-311l313 1483h314l-168 -785l356 320h424l-508 -440l283 -578h-346zM276 -246q0 64 49.5 109t120.5 45q81 0 125.5 -48t44.5 -120q0 -135 -88.5 -212t-214.5 -77q-31 0 -71 8l22 105q14 -2 43 -2q121 0 156 78q-22 -9 -49 -9
q-65 0 -101.5 36t-36.5 87z" />
    <glyph glyph-name="kgreenlandic" unicode="&#x138;" horiz-adv-x="1165" 
d="M670 0l-168 377l-133 -117l-56 -260h-311l215 1020h313l-69 -322l356 320h424l-508 -440l283 -578h-346z" />
    <glyph glyph-name="Lacute" unicode="&#x139;" horiz-adv-x="1126" 
d="M1032 1825l-362 -271h-293l270 271h385zM971 0h-938l307 1452h324l-244 -1143h616z" />
    <glyph glyph-name="lacute" unicode="&#x13a;" horiz-adv-x="573" 
d="M995 1845l-362 -270h-293l270 270h385zM313 0h-311l315 1483h312z" />
    <glyph glyph-name="Lcommaaccent" unicode="&#x13b;" horiz-adv-x="1126" 
d="M317 -246q0 64 49.5 109t120.5 45q81 0 125.5 -48t44.5 -120q0 -135 -88.5 -212t-214.5 -77q-31 0 -71 8l22 105q14 -2 43 -2q121 0 156 78q-22 -9 -49 -9q-65 0 -101.5 36t-36.5 87zM971 0h-938l307 1452h324l-244 -1143h616z" />
    <glyph glyph-name="lcommaaccent" unicode="&#x13c;" horiz-adv-x="573" 
d="M-63 -246q0 64 49 109t120 45q81 0 125.5 -48t44.5 -120q0 -135 -88.5 -212t-214.5 -77q-31 0 -71 8l22 105q14 -2 43 -2q121 0 156 78q-23 -9 -49 -9q-65 0 -101 36t-36 87zM313 0h-311l315 1483h312z" />
    <glyph glyph-name="Lcaron" unicode="&#x13d;" horiz-adv-x="1128" 
d="M971 0h-938l307 1452h324l-244 -1143h616zM1219 1556l-256 -444h-220l158 444h318z" />
    <glyph glyph-name="lcaron" unicode="&#x13e;" horiz-adv-x="573" 
d="M1092 1483l-246 -424h-211l149 424h308zM313 0h-311l315 1483h312z" />
    <glyph glyph-name="Ldot" unicode="&#x13f;" horiz-adv-x="1126" 
d="M971 0h-938l307 1452h324l-244 -1143h616zM694 842q0 70 56 126t133 56q65 0 109 -44t44 -106q0 -78 -55.5 -133t-130.5 -55q-66 0 -111 46t-45 110z" />
    <glyph glyph-name="ldot" unicode="&#x140;" horiz-adv-x="878" 
d="M313 0h-311l315 1483h312zM559 676q0 77 59 136.5t142 59.5q70 0 116 -46t46 -111q0 -85 -58.5 -143t-138.5 -58q-73 0 -119.5 47t-46.5 115z" />
    <glyph glyph-name="Lslash" unicode="&#x141;" horiz-adv-x="1193" 
d="M1040 0h-938l119 567l-213 -88l53 252l213 88l136 633h323l-104 -487l282 116l-53 -250l-283 -116l-86 -406h617z" />
    <glyph glyph-name="lslash" unicode="&#x142;" horiz-adv-x="794" 
d="M422 0h-311l120 567l-184 -75l53 251l185 76l141 664h311l-112 -525l211 86l-54 -251l-211 -86z" />
    <glyph glyph-name="Nacute" unicode="&#x143;" horiz-adv-x="1550" 
d="M1425 1825l-362 -271h-293l270 271h385zM1260 0h-320l-385 952l-203 -952h-319l307 1452h369l348 -885l188 885h324z" />
    <glyph glyph-name="nacute" unicode="&#x144;" horiz-adv-x="1196" 
d="M1122 1448l-356 -309h-264l250 309h370zM948 0h-311l115 539q12 52 12 88q0 65 -35.5 103t-105.5 38q-69 0 -116 -49t-65 -129l-127 -590h-311l178 848q19 93 19 170h303q0 -59 -6 -96q45 61 119.5 91.5t152.5 30.5q154 0 237 -91.5t83 -235.5q0 -50 -13 -113z" />
    <glyph glyph-name="Ncommaaccent" unicode="&#x145;" horiz-adv-x="1550" 
d="M485 -246q0 64 49.5 109t120.5 45q81 0 125.5 -48t44.5 -120q0 -135 -88.5 -212t-214.5 -77q-31 0 -71 8l22 105q14 -2 43 -2q121 0 156 78q-23 -9 -49 -9q-65 0 -101.5 36t-36.5 87zM1260 0h-320l-385 952l-203 -952h-319l307 1452h369l348 -885l188 885h324z" />
    <glyph glyph-name="ncommaaccent" unicode="&#x146;" horiz-adv-x="1196" 
d="M283 -246q0 64 49.5 109t120.5 45q81 0 125.5 -48t44.5 -120q0 -135 -89 -212t-215 -77q-31 0 -71 8l22 105q14 -2 43 -2q121 0 156 78q-22 -9 -49 -9q-65 0 -101 36t-36 87zM948 0h-311l115 539q12 52 12 88q0 65 -35.5 103t-105.5 38q-69 0 -116 -49t-65 -129
l-127 -590h-311l178 848q19 93 19 170h303q0 -59 -6 -96q45 61 119.5 91.5t152.5 30.5q154 0 237 -91.5t83 -235.5q0 -50 -13 -113z" />
    <glyph glyph-name="Ncaron" unicode="&#x147;" horiz-adv-x="1550" 
d="M1122 1825h297l-311 -271h-299l-195 271h271l88 -133zM1260 0h-320l-385 952l-203 -952h-319l307 1452h369l348 -885l188 885h324z" />
    <glyph glyph-name="ncaron" unicode="&#x148;" horiz-adv-x="1196" 
d="M862 1448h258l-301 -309h-291l-170 309h230l112 -148zM948 0h-311l115 539q12 52 12 88q0 65 -35.5 103t-105.5 38q-69 0 -116 -49t-65 -129l-127 -590h-311l178 848q19 93 19 170h303q0 -59 -6 -96q45 61 119.5 91.5t152.5 30.5q154 0 237 -91.5t83 -235.5
q0 -50 -13 -113z" />
    <glyph glyph-name="napostrophe" unicode="&#x149;" horiz-adv-x="1196" 
d="M84 1112l25 107q35 -5 45 -5q118 0 151 78q-24 -8 -47 -8q-65 0 -101 36t-36 87q0 64 48.5 109t121.5 45q81 0 124.5 -47t43.5 -119q0 -136 -87 -212.5t-216 -76.5q-34 0 -72 6zM948 0h-311l115 539q12 52 12 88q0 65 -35.5 103t-105.5 38q-69 0 -116 -49t-65 -129
l-127 -590h-311l178 848q19 93 19 170h303q0 -59 -6 -96q45 61 119.5 91.5t152.5 30.5q154 0 237 -91.5t83 -235.5q0 -50 -13 -113z" />
    <glyph glyph-name="Eng" unicode="&#x14a;" horiz-adv-x="1550" 
d="M934 -37l6 35l-385 954l-203 -952h-319l307 1452h369l348 -885l188 885h324l-332 -1554q-31 -144 -134 -229t-245 -85q-57 0 -110 11.5t-79 22t-36 17.5l57 263q58 -29 121 -29q49 0 82 27t41 67z" />
    <glyph glyph-name="eng" unicode="&#x14b;" horiz-adv-x="1196" 
d="M563 -422q-66 0 -120.5 17t-82.5 36l52 244q51 -22 100 -22q93 0 115 104l129 602q8 32 8 68q0 64 -36.5 102.5t-104.5 38.5q-69 0 -116 -49t-65 -129l-127 -590h-311l178 848q19 97 19 170h303q0 -59 -6 -96q45 61 119.5 91.5t152.5 30.5q154 0 237 -91.5t83 -235.5
q0 -50 -13 -113l-153 -717q-33 -153 -127.5 -231t-233.5 -78z" />
    <glyph glyph-name="Omacron" unicode="&#x14c;" horiz-adv-x="1593" 
d="M1274 1579h-635l45 223h637zM106 629q0 156 42.5 293.5t117 239t173.5 174.5t214 110t236 37q293 0 471 -181.5t178 -476.5q0 -194 -65.5 -358t-175.5 -271.5t-250.5 -167t-292.5 -59.5q-191 0 -338.5 83t-228.5 233t-81 344zM1206 813q0 163 -88 260.5t-246 97.5
q-80 0 -157 -35t-139 -99t-100 -165.5t-38 -224.5q0 -165 88.5 -263.5t243.5 -98.5q64 0 126.5 22t118.5 66.5t98.5 106.5t67.5 148t25 185z" />
    <glyph glyph-name="omacron" unicode="&#x14d;" horiz-adv-x="1196" 
d="M958 1182h-583l45 215h586zM606 764q-109 0 -177.5 -90.5t-68.5 -212.5q0 -96 52.5 -151.5t134.5 -55.5q42 0 83.5 18.5t79 54t60.5 96.5t23 136q0 99 -50.5 151t-136.5 54zM1102 573q0 -162 -72 -299.5t-205.5 -221t-298.5 -83.5q-210 0 -341.5 136t-131.5 341
q0 132 46.5 246t125.5 191.5t184 121.5t220 44q213 0 343 -135.5t130 -340.5z" />
    <glyph glyph-name="Obreve" unicode="&#x14e;" horiz-adv-x="1593" 
d="M981 1542q-133 0 -218 63.5t-85 180.5q0 21 4 39h213q-2 -10 -2 -19q0 -38 26 -60t74 -22q51 0 86.5 29t46.5 72h238q-28 -112 -129.5 -197.5t-253.5 -85.5zM106 629q0 156 42.5 293.5t117 239t173.5 174.5t214 110t236 37q293 0 471 -181.5t178 -476.5
q0 -194 -65.5 -358t-175.5 -271.5t-250.5 -167t-292.5 -59.5q-191 0 -338.5 83t-228.5 233t-81 344zM1206 813q0 163 -88 260.5t-246 97.5q-80 0 -157 -35t-139 -99t-100 -165.5t-38 -224.5q0 -165 88.5 -263.5t243.5 -98.5q64 0 126.5 22t118.5 66.5t98.5 106.5t67.5 148
t25 185z" />
    <glyph glyph-name="obreve" unicode="&#x14f;" horiz-adv-x="1196" 
d="M606 764q-109 0 -177.5 -90.5t-68.5 -212.5q0 -96 52.5 -151.5t134.5 -55.5q42 0 83.5 18.5t79 54t60.5 96.5t23 136q0 99 -50.5 151t-136.5 54zM1102 573q0 -162 -72 -299.5t-205.5 -221t-298.5 -83.5q-210 0 -341.5 136t-131.5 341q0 132 46.5 246t125.5 191.5
t184 121.5t220 44q213 0 343 -135.5t130 -340.5zM670 1128q-143 0 -222 79t-79 192q0 21 4 49h196q-2 -6 -2 -14q0 -43 28.5 -74t90.5 -31q66 0 104.5 36t51.5 83h221q-32 -138 -132.5 -229t-260.5 -91z" />
    <glyph glyph-name="Ohungarumlaut" unicode="&#x150;" horiz-adv-x="1593" 
d="M1085 1825l-247 -271h-197l156 271h288zM1466 1825l-282 -271h-201l188 271h295zM106 629q0 156 42.5 293.5t117 239t173.5 174.5t214 110t236 37q293 0 471 -181.5t178 -476.5q0 -194 -65.5 -358t-175.5 -271.5t-250.5 -167t-292.5 -59.5q-191 0 -338.5 83t-228.5 233
t-81 344zM1206 813q0 163 -88 260.5t-246 97.5q-80 0 -157 -35t-139 -99t-100 -165.5t-38 -224.5q0 -165 88.5 -263.5t243.5 -98.5q64 0 126.5 22t118.5 66.5t98.5 106.5t67.5 148t25 185z" />
    <glyph glyph-name="ohungarumlaut" unicode="&#x151;" horiz-adv-x="1196" 
d="M846 1448l-275 -309h-200l176 309h299zM1212 1448l-307 -309h-205l209 309h303zM606 764q-109 0 -177.5 -90.5t-68.5 -212.5q0 -96 52.5 -151.5t134.5 -55.5q42 0 83.5 18.5t79 54t60.5 96.5t23 136q0 99 -50.5 151t-136.5 54zM1102 573q0 -162 -72 -299.5t-205.5 -221
t-298.5 -83.5q-210 0 -341.5 136t-131.5 341q0 132 46.5 246t125.5 191.5t184 121.5t220 44q213 0 343 -135.5t130 -340.5z" />
    <glyph glyph-name="OE" unicode="&#x152;" horiz-adv-x="2197" 
d="M1206 813q0 163 -88 260.5t-246 97.5q-80 0 -157 -35t-139 -99t-100 -165.5t-38 -224.5q0 -165 88.5 -263.5t243.5 -98.5q80 0 156 35.5t138 100.5t100.5 167t41.5 225zM1966 0h-919l22 102q-146 -133 -346 -133q-181 0 -322 85t-218 235t-77 340q0 156 42.5 293.5
t117 239t173.5 174.5t214 110t236 37q152 0 261 -55t165 -156l39 180h919l-65 -305h-596l-60 -277h541l-59 -284h-541l-59 -279h598z" />
    <glyph glyph-name="oe" unicode="&#x153;" horiz-adv-x="1867" 
d="M1257 -31q-105 0 -197 41t-157 115q-153 -156 -377 -156q-210 0 -341.5 136t-131.5 341q0 132 46.5 246t125.5 191.5t184 121.5t220 44q226 0 342 -148q74 71 166.5 109.5t189.5 38.5q211 0 335 -122t124 -315q0 -94 -29 -182h-686q0 -87 56 -146t157 -59q64 0 114.5 32
t76.5 83l241 -109q-53 -112 -169 -187t-290 -75zM1100 631h399q2 8 2 16q0 59 -44 106.5t-132 47.5q-169 0 -225 -170zM793 559q0 98 -51 151.5t-136 53.5q-109 0 -177.5 -90.5t-68.5 -212.5q0 -96 52.5 -151.5t134.5 -55.5q42 0 83.5 18.5t79 54t60.5 96.5t23 136z" />
    <glyph glyph-name="Racute" unicode="&#x154;" horiz-adv-x="1316" 
d="M1274 1825l-363 -271h-293l271 271h385zM809 0l-186 541h-152l-115 -541h-323l307 1452h522q203 0 313.5 -105t110.5 -272q0 -176 -96.5 -303.5t-255.5 -181.5l217 -590h-342zM528 819h185q110 0 174.5 58t64.5 151q0 69 -42 107.5t-128 38.5h-178z" />
    <glyph glyph-name="racute" unicode="&#x155;" horiz-adv-x="817" 
d="M932 1448l-357 -309h-264l250 309h371zM791 705q-61 18 -123 18q-88 0 -156 -60t-98 -198l-101 -465h-311l180 848q19 97 19 170h303q0 -66 -8 -111q87 119 254 119q66 0 106 -18z" />
    <glyph glyph-name="Rcommaaccent" unicode="&#x156;" horiz-adv-x="1316" 
d="M809 0l-186 541h-152l-115 -541h-323l307 1452h522q203 0 313.5 -105t110.5 -272q0 -176 -96.5 -303.5t-255.5 -181.5l217 -590h-342zM528 819h185q110 0 174.5 58t64.5 151q0 69 -42 107.5t-128 38.5h-178zM379 -246q0 64 49.5 109t120.5 45q81 0 125.5 -48t44.5 -120
q0 -135 -88.5 -212t-214.5 -77q-32 0 -72 8l23 105q14 -2 43 -2q120 0 155 78q-23 -9 -49 -9q-65 0 -101 36t-36 87z" />
    <glyph glyph-name="rcommaaccent" unicode="&#x157;" horiz-adv-x="817" 
d="M791 705q-61 18 -123 18q-88 0 -156 -60t-98 -198l-101 -465h-311l180 848q19 97 19 170h303q0 -66 -8 -111q87 119 254 119q66 0 106 -18zM-59 -246q0 64 49.5 109t120.5 45q81 0 125.5 -48t44.5 -120q0 -135 -89 -212t-215 -77q-31 0 -71 8l22 105q14 -2 43 -2
q121 0 156 78q-22 -9 -49 -9q-65 0 -101 36t-36 87z" />
    <glyph glyph-name="Rcaron" unicode="&#x158;" horiz-adv-x="1316" 
d="M981 1825h297l-311 -271h-299l-195 271h270l88 -133zM809 0l-186 541h-152l-115 -541h-323l307 1452h522q203 0 313.5 -105t110.5 -272q0 -176 -96.5 -303.5t-255.5 -181.5l217 -590h-342zM528 819h185q110 0 174.5 58t64.5 151q0 69 -42 107.5t-128 38.5h-178z" />
    <glyph glyph-name="rcaron" unicode="&#x159;" horiz-adv-x="817" 
d="M719 1448h258l-301 -309h-291l-170 309h229l113 -148zM791 705q-61 18 -123 18q-88 0 -156 -60t-98 -198l-101 -465h-311l180 848q19 97 19 170h303q0 -66 -8 -111q87 119 254 119q66 0 106 -18z" />
    <glyph glyph-name="Sacute" unicode="&#x15a;" horiz-adv-x="1239" 
d="M582 250q93 0 144.5 40.5t51.5 110.5q0 96 -104 140l-170 69q-144 58 -215.5 162t-71.5 238q0 139 73.5 248t193.5 166t261 57q96 0 175.5 -20.5t132.5 -56t92.5 -79t60.5 -92.5t31 -92.5t10 -83.5l-301 -49q0 17 -3 36t-16 48.5t-34.5 52t-63.5 39t-98 16.5
q-85 0 -136.5 -49t-51.5 -113q0 -92 102 -137l154 -65q165 -70 240 -171.5t75 -238.5q0 -86 -35.5 -167.5t-100.5 -146t-166.5 -104t-223.5 -39.5q-118 0 -215 30.5t-159 79t-104 111t-59.5 123.5t-17.5 121q0 31 4 55l297 52q-4 -20 -4 -47q0 -100 63.5 -170.5t188.5 -73.5
zM1292 1825l-362 -271h-293l270 271h385z" />
    <glyph glyph-name="sacute" unicode="&#x15b;" horiz-adv-x="958" 
d="M1051 1448l-357 -309h-264l250 309h371zM8 307l262 43q-2 -10 -2 -18q0 -64 36 -99.5t97 -35.5q53 0 81 24t28 60q0 58 -70 88l-98 41q-231 97 -231 297q0 141 112 241.5t285 100.5q91 0 162 -22.5t112 -56t67.5 -78.5t35.5 -84t10 -79l-266 -31q0 129 -123 129
q-45 0 -75 -25t-30 -63q0 -53 56 -73l127 -52q231 -94 231 -305q0 -63 -26.5 -123t-76 -109t-127.5 -78.5t-173 -29.5q-97 0 -172 25t-117.5 61.5t-69.5 83.5t-36 84.5t-9 71.5v12z" />
    <glyph glyph-name="Scircumflex" unicode="&#x15c;" horiz-adv-x="1239" 
d="M698 1554h-284l307 271h299l194 -271h-276l-90 134zM582 250q93 0 144.5 40.5t51.5 110.5q0 96 -104 140l-170 69q-144 58 -215.5 162t-71.5 238q0 139 73.5 248t193.5 166t261 57q96 0 175.5 -20.5t132.5 -56t92.5 -79t60.5 -92.5t31 -92.5t10 -83.5l-301 -49
q0 17 -3 36t-16 48.5t-34.5 52t-63.5 39t-98 16.5q-85 0 -136.5 -49t-51.5 -113q0 -92 102 -137l154 -65q165 -70 240 -171.5t75 -238.5q0 -86 -35.5 -167.5t-100.5 -146t-166.5 -104t-223.5 -39.5q-118 0 -215 30.5t-159 79t-104 111t-59.5 123.5t-17.5 121q0 31 4 55
l297 52q-4 -20 -4 -47q0 -100 63.5 -170.5t188.5 -73.5z" />
    <glyph glyph-name="scircumflex" unicode="&#x15d;" horiz-adv-x="958" 
d="M444 1139h-254l308 309h288l172 -309h-233l-109 145zM8 307l262 43q-2 -10 -2 -18q0 -64 36 -99.5t97 -35.5q53 0 81 24t28 60q0 58 -70 88l-98 41q-231 97 -231 297q0 141 112 241.5t285 100.5q91 0 162 -22.5t112 -56t67.5 -78.5t35.5 -84t10 -79l-266 -31
q0 129 -123 129q-45 0 -75 -25t-30 -63q0 -53 56 -73l127 -52q231 -94 231 -305q0 -63 -26.5 -123t-76 -109t-127.5 -78.5t-173 -29.5q-97 0 -172 25t-117.5 61.5t-69.5 83.5t-36 84.5t-9 71.5v12z" />
    <glyph glyph-name="Scedilla" unicode="&#x15e;" horiz-adv-x="1239" 
d="M582 250q93 0 144.5 40.5t51.5 110.5q0 96 -104 140l-170 69q-144 58 -215.5 162t-71.5 238q0 139 73.5 248t193.5 166t261 57q96 0 175.5 -20.5t132.5 -56t92.5 -79t60.5 -92.5t31 -92.5t10 -83.5l-301 -49q0 17 -3 36t-16 48.5t-34.5 52t-63.5 39t-98 16.5
q-85 0 -136.5 -49t-51.5 -113q0 -92 102 -137l154 -65q165 -70 240 -171.5t75 -238.5q0 -85 -35 -165.5t-98.5 -145t-163 -104.5t-219.5 -42l-76 -78q73 -7 118.5 -53t45.5 -108q0 -36 -15.5 -72t-46 -68t-83.5 -51.5t-121 -19.5q-58 0 -110 16.5t-85.5 41t-53.5 44.5
t-28 35l115 104q64 -86 154 -86q35 0 56 14t21 40q0 27 -21 40t-52 13q-14 0 -43 -2l-49 106l96 101q-82 18 -149 54.5t-110.5 82.5t-73 101t-42 107t-12.5 103q0 35 4 55l297 52q-4 -20 -4 -47q0 -100 63.5 -170.5t188.5 -73.5z" />
    <glyph glyph-name="scedilla" unicode="&#x15f;" horiz-adv-x="958" 
d="M8 295v12l262 43q-2 -10 -2 -18q0 -60 36.5 -97.5t96.5 -37.5q53 0 81 24t28 60q0 58 -70 88l-98 41q-231 97 -231 297q0 141 112 241.5t285 100.5q91 0 162 -22.5t112 -56t67.5 -78.5t35.5 -84t10 -79l-266 -35q0 23 -4.5 43.5t-16.5 42t-38 34.5t-64 13q-45 0 -75 -25
t-30 -63q0 -53 70 -80l113 -45q231 -92 231 -305q0 -80 -39 -152t-121.5 -124t-193.5 -62l-78 -80q73 -7 118.5 -53t45.5 -108q0 -36 -15.5 -72t-46 -68t-83.5 -51.5t-121 -19.5q-58 0 -110 16.5t-85.5 41t-53.5 44.5t-28 35l115 104q64 -86 153 -86q35 0 56.5 14t21.5 40
q0 27 -21.5 40t-52.5 13q-27 0 -43 -2l-49 106l95 97q-79 17 -136 55t-84.5 86t-39 90t-11.5 82z" />
    <glyph glyph-name="Scaron" unicode="&#x160;" horiz-adv-x="1239" 
d="M977 1825h297l-311 -271h-299l-195 271h270l88 -133zM582 250q93 0 144.5 40.5t51.5 110.5q0 96 -104 140l-170 69q-144 58 -215.5 162t-71.5 238q0 139 73.5 248t193.5 166t261 57q96 0 175.5 -20.5t132.5 -56t92.5 -79t60.5 -92.5t31 -92.5t10 -83.5l-301 -49
q0 17 -3 36t-16 48.5t-34.5 52t-63.5 39t-98 16.5q-85 0 -136.5 -49t-51.5 -113q0 -92 102 -137l154 -65q165 -70 240 -171.5t75 -238.5q0 -86 -35.5 -167.5t-100.5 -146t-166.5 -104t-223.5 -39.5q-118 0 -215 30.5t-159 79t-104 111t-59.5 123.5t-17.5 121q0 31 4 55
l297 52q-4 -20 -4 -47q0 -100 63.5 -170.5t188.5 -73.5z" />
    <glyph glyph-name="scaron" unicode="&#x161;" horiz-adv-x="958" 
d="M756 1448h258l-301 -309h-291l-170 309h229l113 -148zM8 307l262 43q-2 -10 -2 -18q0 -64 36 -99.5t97 -35.5q53 0 81 24t28 60q0 58 -70 88l-98 41q-231 97 -231 297q0 141 112 241.5t285 100.5q91 0 162 -22.5t112 -56t67.5 -78.5t35.5 -84t10 -79l-266 -31
q0 129 -123 129q-45 0 -75 -25t-30 -63q0 -53 56 -73l127 -52q231 -94 231 -305q0 -63 -26.5 -123t-76 -109t-127.5 -78.5t-173 -29.5q-97 0 -172 25t-117.5 61.5t-69.5 83.5t-36 84.5t-9 71.5v12z" />
    <glyph glyph-name="Tcommaaccent" unicode="&#x162;" horiz-adv-x="1222" 
d="M1303 1143h-406l-244 -1143h-63l-107 -109q73 -7 118.5 -53t45.5 -108q0 -36 -15.5 -72t-46 -68t-83.5 -51.5t-121 -19.5q-58 0 -110 16.5t-85.5 41t-53.5 44.5t-28 35l115 104q64 -86 154 -86q35 0 56.5 14t21.5 40q0 27 -21.5 40t-52.5 13q-10 0 -24 -1t-19 -1l-49 106
l108 115h-63l241 1143h-426l68 309h1157z" />
    <glyph glyph-name="tcommaaccent" unicode="&#x163;" horiz-adv-x="800" 
d="M121 -246q0 64 49.5 109t120.5 45q81 0 125.5 -48t44.5 -120q0 -135 -88.5 -212t-214.5 -77q-32 0 -72 8l23 105q14 -2 43 -2q120 0 155 78q-23 -9 -49 -9q-65 0 -101 36t-36 87zM553 745l-80 -372q-4 -24 -4 -35q0 -88 104 -88q34 0 76 10l-53 -246q-56 -28 -141 -28
q-142 0 -223.5 74.5t-81.5 199.5q0 36 10 88l82 397h-176l57 273h49q83 0 128 42t65 124l30 131h279l-64 -297h197l-59 -273h-195z" />
    <glyph glyph-name="Tcaron" unicode="&#x164;" horiz-adv-x="1222" 
d="M973 1825h297l-312 -271h-299l-194 271h270l88 -133zM1303 1143h-406l-244 -1143h-323l241 1143h-426l68 309h1157z" />
    <glyph glyph-name="tcaron" unicode="&#x165;" horiz-adv-x="800" 
d="M1180 1554l-246 -424h-211l149 424h308zM553 745l-80 -372q-4 -24 -4 -35q0 -88 104 -88q34 0 76 10l-53 -246q-56 -28 -141 -28q-142 0 -223.5 74.5t-81.5 199.5q0 36 10 88l82 397h-176l57 273h49q83 0 128 42t65 124l30 131h279l-64 -297h197l-59 -273h-195z" />
    <glyph glyph-name="Tbar" unicode="&#x166;" horiz-adv-x="1255" 
d="M1319 1143h-406l-82 -381h250l-49 -232h-250l-112 -530h-324l113 530h-271l52 232h268l80 381h-426l67 309h1157z" />
    <glyph glyph-name="tbar" unicode="&#x167;" horiz-adv-x="813" 
d="M565 745l-28 -133h198l-45 -213h-198l-7 -26q-4 -24 -4 -35q0 -88 105 -88q34 0 76 10l-54 -246q-14 -8 -52.5 -18t-88.5 -10q-142 0 -223.5 74.5t-81.5 199.5q0 36 10 88l10 51h-176l45 213h176l27 133h-176l57 273h49q83 0 128 42t65 124l31 131h278l-63 -297h196
l-59 -273h-195z" />
    <glyph glyph-name="Utilde" unicode="&#x168;" horiz-adv-x="1419" 
d="M1122 1452h328l-209 -985q-52 -242 -211.5 -370t-378.5 -128q-236 0 -380 132t-144 348q0 57 25 186l170 817h327l-176 -834q-16 -78 -16 -122q0 -96 54 -151.5t169 -55.5q97 0 161.5 59.5t88.5 177.5zM1329 1833q-21 -152 -90.5 -223.5t-171.5 -71.5q-71 0 -156 51
q-73 47 -104 47q-27 0 -46.5 -21.5t-25.5 -64.5h-190q16 150 91.5 218.5t180.5 68.5q75 0 152 -47q7 -4 25 -16t26 -16.5t21 -9.5t24 -5q60 0 74 90h190z" />
    <glyph glyph-name="utilde" unicode="&#x169;" horiz-adv-x="1187" 
d="M205 1018h311l-123 -576q-6 -30 -6 -57q0 -63 35.5 -99t103.5 -36q69 0 113.5 48.5t62.5 129.5l127 590h312l-176 -840q-19 -88 -19 -178h-301q-2 12 -2 35t4 63q-34 -58 -103 -91.5t-143 -33.5q-159 0 -247 95.5t-88 242.5q0 53 12 109zM510 1141h-193q18 158 98 232.5
t189 74.5q81 0 154 -47q63 -45 102 -45q69 0 86 90h193q-22 -154 -98 -230.5t-179 -76.5q-74 0 -155 47q-5 3 -21 12t-23 12.5t-19.5 9t-23.5 7.5t-22 2q-71 0 -88 -88z" />
    <glyph glyph-name="Umacron" unicode="&#x16a;" horiz-adv-x="1419" 
d="M1122 1452h328l-209 -985q-52 -242 -211.5 -370t-378.5 -128q-236 0 -380 132t-144 348q0 57 25 186l170 817h327l-176 -834q-16 -78 -16 -122q0 -96 54 -151.5t169 -55.5q97 0 161.5 59.5t88.5 177.5zM1212 1579h-634l45 223h637z" />
    <glyph glyph-name="umacron" unicode="&#x16b;" horiz-adv-x="1187" 
d="M205 1018h311l-123 -576q-6 -30 -6 -57q0 -63 35.5 -99t103.5 -36q69 0 113.5 48.5t62.5 129.5l127 590h312l-176 -840q-19 -88 -19 -178h-301q-2 12 -2 35t4 63q-34 -58 -103 -91.5t-143 -33.5q-159 0 -247 95.5t-88 242.5q0 53 12 109zM971 1182h-584l45 215h586z" />
    <glyph glyph-name="Ubreve" unicode="&#x16c;" horiz-adv-x="1419" 
d="M1122 1452h328l-209 -985q-52 -242 -211.5 -370t-378.5 -128q-236 0 -380 132t-144 348q0 57 25 186l170 817h327l-176 -834q-16 -78 -16 -122q0 -96 54 -151.5t169 -55.5q97 0 161.5 59.5t88.5 177.5zM905 1542q-133 0 -218 63.5t-85 180.5q0 21 4 39h213q-2 -10 -2 -19
q0 -38 26.5 -60t74.5 -22q51 0 86.5 29t46.5 72h237q-28 -112 -129.5 -197.5t-253.5 -85.5z" />
    <glyph glyph-name="ubreve" unicode="&#x16d;" horiz-adv-x="1187" 
d="M205 1018h311l-123 -576q-6 -30 -6 -57q0 -63 35.5 -99t103.5 -36q69 0 113.5 48.5t62.5 129.5l127 590h312l-176 -840q-19 -88 -19 -178h-301q-2 12 -2 35t4 63q-34 -58 -103 -91.5t-143 -33.5q-159 0 -247 95.5t-88 242.5q0 53 12 109zM694 1128q-143 0 -222 79
t-79 192q0 21 4 49h197q-2 -6 -2 -14q0 -43 28.5 -74t90.5 -31q66 0 104 36t51 83h221q-32 -138 -132.5 -229t-260.5 -91z" />
    <glyph glyph-name="Uring" unicode="&#x16e;" horiz-adv-x="1419" 
d="M1122 1452h328l-209 -985q-52 -242 -211.5 -370t-378.5 -128q-236 0 -380 132t-144 348q0 57 25 186l170 817h327l-176 -834q-16 -78 -16 -122q0 -96 54 -151.5t169 -55.5q97 0 161.5 59.5t88.5 177.5zM920 1860q-44 0 -76.5 -31.5t-32.5 -77.5q0 -37 26 -60.5t66 -23.5
q41 0 75 30.5t34 78.5q0 39 -26 61.5t-66 22.5zM623 1739q0 123 93 213t220 90q111 0 188.5 -72t77.5 -178q0 -131 -96 -218t-219 -87q-113 0 -188.5 72t-75.5 180z" />
    <glyph glyph-name="uring" unicode="&#x16f;" horiz-adv-x="1187" 
d="M731 1565q93 0 157 -56.5t64 -148.5q0 -108 -78.5 -179t-181.5 -71q-92 0 -154.5 58.5t-62.5 148.5q0 107 77.5 177.5t178.5 70.5zM633 1327q0 -31 21 -50.5t53 -19.5q34 0 57.5 24t23.5 60q0 30 -19 50t-50 20q-33 0 -59.5 -24t-26.5 -60zM205 1018h311l-123 -576
q-6 -30 -6 -57q0 -63 35.5 -99t103.5 -36q69 0 113.5 48.5t62.5 129.5l127 590h312l-176 -840q-19 -88 -19 -178h-301q-2 12 -2 35t4 63q-34 -58 -103 -91.5t-143 -33.5q-159 0 -247 95.5t-88 242.5q0 53 12 109z" />
    <glyph glyph-name="Uhungarumlaut" unicode="&#x170;" horiz-adv-x="1419" 
d="M1053 1825l-248 -271h-197l156 271h289zM1434 1825l-283 -271h-201l189 271h295zM1122 1452h328l-209 -985q-52 -242 -211.5 -370t-378.5 -128q-236 0 -380 132t-144 348q0 57 25 186l170 817h327l-176 -834q-16 -78 -16 -122q0 -96 54 -151.5t169 -55.5q97 0 161.5 59.5
t88.5 177.5z" />
    <glyph glyph-name="uhungarumlaut" unicode="&#x171;" horiz-adv-x="1187" 
d="M205 1018h311l-123 -576q-6 -30 -6 -57q0 -63 35.5 -99t103.5 -36q69 0 113.5 48.5t62.5 129.5l127 590h312l-176 -840q-19 -88 -19 -178h-301q-2 12 -2 35t4 63q-34 -58 -103 -91.5t-143 -33.5q-159 0 -247 95.5t-88 242.5q0 53 12 109zM864 1448l-274 -309h-201
l176 309h299zM1231 1448l-307 -309h-205l209 309h303z" />
    <glyph glyph-name="Uogonek" unicode="&#x172;" horiz-adv-x="1419" 
d="M1122 1452h328l-209 -985q-40 -190 -150.5 -310t-267.5 -165q-68 -21 -119 -69t-51 -107q0 -88 101 -95q24 0 39 3l-37 -179q-40 -8 -82 -8q-100 0 -171 58t-71 155q0 134 113 225q-191 29 -304.5 156.5t-113.5 317.5q0 71 14 137l181 866h327l-184 -872q-10 -52 -10 -84
q0 -96 55 -151.5t170 -55.5q97 0 161.5 59.5t88.5 177.5z" />
    <glyph glyph-name="uogonek" unicode="&#x173;" horiz-adv-x="1187" 
d="M205 1018h311l-123 -576q-6 -30 -6 -57q0 -63 35.5 -99t103.5 -36q69 0 113.5 48.5t62.5 129.5l127 590h312l-176 -840q-19 -88 -19 -153v-25q-77 -27 -135.5 -79t-58.5 -116q0 -77 100 -84q24 0 39 3l-37 -179q-27 -8 -82 -8q-100 0 -171 58t-71 155q0 152 146 250h-31
q-2 12 -2 35q0 26 4 63q-34 -58 -103 -91.5t-143 -33.5q-159 0 -247 95.5t-88 242.5q0 53 12 109z" />
    <glyph glyph-name="Wcircumflex" unicode="&#x174;" horiz-adv-x="2129" 
d="M1126 1554h-284l307 271h299l194 -271h-276l-90 134zM1065 1452h332l104 -938l424 938h350l-700 -1452h-326l-104 963l-500 -963h-346l-86 1452h326l43 -936z" />
    <glyph glyph-name="wcircumflex" unicode="&#x175;" horiz-adv-x="1728" 
d="M807 1139h-254l307 309h289l172 -309h-234l-108 145zM776 1018h332l70 -600l278 600h318l-514 -1018h-308l-80 657l-335 -657h-320l-96 1018h305l43 -598z" />
    <glyph glyph-name="Ycircumflex" unicode="&#x176;" horiz-adv-x="1323" 
d="M504 606l-316 846h342l185 -537l372 537h390l-650 -848l-127 -604h-325zM717 1554h-285l307 271h299l195 -271h-277l-90 134z" />
    <glyph glyph-name="ycircumflex" unicode="&#x177;" horiz-adv-x="1105" 
d="M483 1139h-254l308 309h288l172 -309h-233l-109 145zM285 -389h-342l338 545l-211 862h325l115 -543l317 543h344z" />
    <glyph glyph-name="Ydieresis" unicode="&#x178;" horiz-adv-x="1323" 
d="M444 1673q0 67 53 122.5t126 55.5q64 0 105.5 -42.5t41.5 -102.5q0 -74 -53 -125t-123 -51q-67 0 -108.5 40.5t-41.5 102.5zM922 1673q0 67 53 122.5t127 55.5q63 0 104 -42.5t41 -102.5q0 -75 -52.5 -125.5t-123.5 -50.5q-67 0 -108 40.5t-41 102.5zM504 606l-316 846
h342l185 -537l372 537h390l-650 -848l-127 -604h-325z" />
    <glyph glyph-name="Zacute" unicode="&#x179;" horiz-adv-x="1308" 
d="M1305 1825l-363 -271h-293l271 271h385zM1090 0h-1131l68 311l852 832h-658l66 309h1102l-62 -299l-874 -844h702z" />
    <glyph glyph-name="zacute" unicode="&#x17a;" horiz-adv-x="1034" 
d="M1077 1448l-356 -309h-264l250 309h370zM815 0h-854l57 274l539 480h-422l58 264h833l-55 -256l-561 -496h462z" />
    <glyph glyph-name="Zdotaccent" unicode="&#x17b;" horiz-adv-x="1308" 
d="M1090 0h-1131l68 311l852 832h-658l66 309h1102l-62 -299l-874 -844h702zM686 1708q0 74 60 133.5t141 59.5q70 0 117 -46.5t47 -111.5q0 -85 -59 -143t-140 -58q-71 0 -118.5 48.5t-47.5 117.5z" />
    <glyph glyph-name="zdotaccent" unicode="&#x17c;" horiz-adv-x="1034" 
d="M815 0h-854l57 274l539 480h-422l58 264h833l-55 -256l-561 -496h462zM465 1280q0 77 59 137t142 60q69 0 115 -46t46 -112q0 -85 -58.5 -143t-137.5 -58q-73 0 -119.5 47t-46.5 115z" />
    <glyph glyph-name="Zcaron" unicode="&#x17d;" horiz-adv-x="1308" 
d="M1018 1825h297l-311 -271h-299l-195 271h270l88 -133zM1090 0h-1131l68 311l852 832h-658l66 309h1102l-62 -299l-874 -844h702z" />
    <glyph glyph-name="zcaron" unicode="&#x17e;" horiz-adv-x="1034" 
d="M803 1448h258l-301 -309h-291l-170 309h229l113 -148zM815 0h-854l57 274l539 480h-422l58 264h833l-55 -256l-561 -496h462z" />
    <glyph glyph-name="uni018F" unicode="&#x18f;" horiz-adv-x="1599" 
d="M862 1483q156 0 284.5 -48t216 -133t135.5 -204t48 -260q0 -158 -42 -296.5t-117 -242t-176 -178.5t-221.5 -113.5t-250.5 -38.5q-143 0 -266.5 51.5t-209 140t-134.5 208t-49 252.5q0 101 12 163h1122v31q0 173 -105 267t-275 94q-75 0 -142 -23t-114.5 -59.5t-80 -74.5
t-51.5 -77l-278 137q37 75 100 145t149 129t202 94.5t243 35.5zM760 264q136 0 240.5 66t160.5 196h-745q8 -106 98 -184t246 -78z" />
    <glyph glyph-name="florin" unicode="&#x192;" horiz-adv-x="10485" 
d="M4358 782q227 -55 326.5 -148t99.5 -249q0 -183 -130 -293t-347 -110q-312 0 -549 211q-6 6 -6 10q0 8 4 12l137 164q6 6 10 6q9 0 13 -4q99 -87 193.5 -126.5t203.5 -39.5q98 0 155.5 40.5t57.5 109.5q0 44 -19.5 72.5t-81 56t-179.5 55.5q-89 21 -154 43.5t-122 55
t-92 74t-55 98.5t-20 130q0 173 128.5 283t330.5 110q278 0 479 -165q6 -6 6 -13q0 -2 -4 -10l-121 -172q-4 -8 -14 -8q-6 0 -10 4q-174 131 -340 131q-88 0 -141.5 -38t-53.5 -101q0 -47 21.5 -75.5t85 -55.5t188.5 -58zM5442 1028q89 0 172 -34.5t149.5 -98t107 -165.5
t40.5 -226t-40 -225.5t-107 -165t-150 -97.5t-172 -34q-191 0 -314 141v-399q0 -8 -5.5 -13.5t-12.5 -5.5h-221q-7 0 -13 5.5t-6 13.5v1267q0 7 5.5 12t13.5 5h221q18 0 18 -17v-114q127 151 314 151zM5652 504q0 129 -74 213t-188 84q-115 0 -191.5 -84.5t-76.5 -212.5
t76.5 -212.5t191.5 -84.5q116 0 189 82.5t73 214.5zM6519 1028q147 0 270 -69.5t193.5 -190t70.5 -264.5q0 -145 -71.5 -265.5t-195 -189.5t-271.5 -69q-147 0 -269.5 68.5t-193 188t-70.5 263.5q0 145 71 266.5t194.5 191.5t271.5 70zM6519 205q120 0 198 83.5t78 211.5
q0 129 -80 214t-200 85q-122 0 -200.5 -83t-78.5 -212q0 -128 81 -213.5t202 -85.5zM7449 1008h245q17 0 17 -17v-192q0 -6 -5 -11.5t-12 -5.5h-245v-460q0 -56 25 -81.5t79 -25.5q61 0 111 25q25 10 26 10q6 0 11.5 -5t5.5 -14v-178q0 -11 -13 -18q-87 -51 -204 -51
q-297 0 -297 303v495h-109q-5 0 -9.5 5.5t-4.5 11.5v192q0 7 4.5 12t9.5 5h109v252q0 6 5 10t11 4h223q6 0 11.5 -4t5.5 -10v-252zM8794 1145q-2 0 -7 1.5l-15 4.5t-21 6q-53 12 -88 12q-59 0 -86 -32t-27 -101v-28h381q13 0 17 -9l260 -684l237 682q4 11 15 11h233
q5 0 11 -5t6 -12q0 -4 -5 -14l-385 -993q-60 -156 -135.5 -220.5t-199.5 -64.5q-120 0 -238 59q-8 4 -8 13q0 6 2 10l74 168q3 10 14 10q1 0 4 -1t4 -1q73 -37 123 -37q40 0 67.5 20t53.5 78l-318 764h-209v-764q0 -8 -5 -13t-13 -5h-221q-8 0 -13.5 5.5t-5.5 12.5v764h-106
q-6 0 -10 5.5t-4 11.5v194q0 15 14 15h106v49q0 163 81.5 248.5t236.5 85.5q104 0 184 -25q12 -4 12 -16v-189q0 -5 -4.5 -10.5t-11.5 -5.5zM7830 1008h225q14 0 14 -17v-973q0 -18 -14 -18h-225q-5 0 -10 5.5t-5 12.5v973q0 7 5 12t10 5zM7942 1450q66 0 114 -46t48 -112
q0 -67 -48 -114.5t-114 -47.5t-112 47t-46 115q0 66 46 112t112 46zM9898 692q-65 0 -110.5 46.5t-45.5 111.5t45.5 111.5t110.5 46.5q66 0 112 -45.5t46 -110.5q0 -66 -46 -113t-112 -47zM9898 991q-59 0 -99 -41t-40 -100q0 -60 39.5 -101.5t99.5 -41.5q61 0 102 42
t41 103q0 58 -41 98.5t-102 40.5zM9935 834l45 -62h-39l-41 55h-33v-55h-30v166h71q30 0 48 -14.5t18 -40.5q0 -33 -39 -49zM9908 909h-41v-53h41q14 0 23.5 7.5t9.5 17.5q0 13 -9.5 20.5t-23.5 7.5zM2458 -12q36 0 63 27t27 65q0 51 -43 76q-367 227 -863 227
q-249 0 -538 -66q-31 -8 -50.5 -31.5t-19.5 -54.5q0 -37 24.5 -63.5t63.5 -26.5q8 0 24 3t35 8t25 6q226 47 441 47q429 0 763 -203q24 -14 48 -14zM2615 371q45 0 79 33.5t34 80.5q0 67 -53 97q-216 132 -489 202t-556 70q-306 0 -577 -82q-36 -10 -58 -40.5t-22 -67.5
q0 -46 29 -78.5t77 -32.5q21 0 33 2.5t36.5 10t53.5 14.5q199 49 424 49q254 0 498 -62.5t432 -179.5q29 -16 59 -16zM2728 836q32 -19 68 -19q57 0 97 39t40 96q0 34 -18 65.5t-50 49.5q-247 144 -558.5 214.5t-655.5 70.5q-378 0 -678 -90q-44 -13 -70 -49t-26 -80
q0 -54 38 -96t95 -42q21 0 39 6q267 80 614 80q295 0 576.5 -61t488.5 -184zM430 670q0 197 52 384.5t145.5 346t227 292t292 226.5t346 145t383.5 52t383.5 -52t345.5 -145t291.5 -226.5t226.5 -292t145 -346t52 -384.5t-52 -384t-145 -345.5t-226.5 -292t-291.5 -226
t-345.5 -144.5t-383.5 -52t-383.5 52t-346 144.5t-292 226t-227 292t-145.5 345.5t-52 384z" />
    <glyph glyph-name="uni01B5" unicode="&#x1b5;" horiz-adv-x="1333" 
d="M1098 0h-1131l68 311l307 301h-209l57 262h420l277 269h-658l66 309h1102l-62 -299l-288 -279h243l-57 -262h-459l-313 -303h702z" />
    <glyph glyph-name="uni01B6" unicode="&#x1b6;" horiz-adv-x="1044" 
d="M66 403l47 213h327l158 146h-457l56 256h831l-49 -230l-186 -172h151l-47 -213h-336l-158 -145h471l-55 -258h-854l45 219l199 184h-143z" />
    <glyph glyph-name="Aringacute" unicode="&#x1fa;" horiz-adv-x="1468" 
d="M1477 2148l-363 -270h-293l271 270h385zM846 1092l-273 -502h336zM932 1647q-44 0 -76.5 -31.5t-32.5 -77.5q0 -38 26 -62t66 -24q42 0 76.5 31t34.5 80q0 39 -26.5 61.5t-67.5 22.5zM633 1526q0 123 94 214t221 91q114 0 192.5 -72t78.5 -180q0 -132 -101 -223
l205 -1356h-336l-39 295h-538l-162 -295h-363l797 1372q-49 65 -49 154z" />
    <glyph glyph-name="aringacute" unicode="&#x1fb;" horiz-adv-x="1224" 
d="M598 760q-73 0 -128.5 -46.5t-81.5 -114.5t-26 -144q0 -96 50 -149.5t129 -53.5q93 0 162 82t69 231q0 93 -47.5 144t-126.5 51zM879 1018h301l-174 -813q-19 -84 -19 -166q0 -21 2 -39h-282q-2 12 -2 37q0 43 6 84q-88 -137 -256 -137q-181 0 -290.5 129t-109.5 327
q0 262 148 432t366 170q68 0 123.5 -14.5t88 -38t50 -42.5t27.5 -38zM1233 1948l-356 -310h-265l250 310h371zM719 1561q93 0 157 -56.5t64 -148.5q0 -108 -78.5 -179t-181.5 -71q-92 0 -154.5 58.5t-62.5 148.5q0 107 77.5 177.5t178.5 70.5zM621 1323q0 -31 20.5 -50.5
t52.5 -19.5q34 0 58 24t24 60q0 30 -19 50t-50 20q-33 0 -59.5 -24t-26.5 -60z" />
    <glyph glyph-name="AEacute" unicode="&#x1fc;" horiz-adv-x="2181" 
d="M1868 1825l-363 -271h-293l271 271h385zM1417 307h598l-65 -307h-922l66 311h-555l-265 -311h-411l1265 1452h1129l-64 -305h-596l-59 -277h539l-60 -292h-538zM766 578h385l129 604z" />
    <glyph glyph-name="aeacute" unicode="&#x1fd;" horiz-adv-x="1734" 
d="M1378 1448l-356 -309h-264l250 309h370zM616 612q45 1 67 24t22 60q0 43 -40.5 75t-115.5 32q-68 0 -114.5 -37.5t-61.5 -91.5l-256 82q15 52 50.5 101.5t89.5 93.5t134.5 71t173.5 27q220 0 326 -109q134 109 303 109q212 0 335.5 -122t123.5 -315q0 -105 -29 -182h-680
q0 -87 55 -146t156 -59q64 0 114.5 32t76.5 83l237 -109q-53 -112 -168.5 -187t-288.5 -75q-111 0 -203.5 44.5t-156.5 127.5q-59 -73 -152.5 -119.5t-210.5 -46.5q-96 0 -172.5 25.5t-123 68t-71 95t-24.5 110.5q0 64 19.5 118t52.5 91t77.5 63.5t94.5 40t104 15.5z
M317 295q0 -45 32.5 -71.5t84.5 -26.5q68 0 132.5 51t80.5 143l6 37l-200 -8q-56 -3 -96 -36t-40 -89zM1192 801q-168 0 -221 -170h397v12q0 60 -43 109t-133 49z" />
    <glyph glyph-name="Oslashacute" unicode="&#x1fe;" horiz-adv-x="1593" 
d="M1442 1825l-363 -271h-293l271 271h385zM106 629q0 156 42.5 293.5t117 239t173.5 174.5t214 110t236 37q192 0 344 -84l151 182l189 -158l-158 -188q123 -172 123 -410q0 -194 -65.5 -358t-175.5 -271.5t-250.5 -167t-292.5 -59.5q-187 0 -334 80l-148 -176l-190 156
l154 182q-130 176 -130 418zM438 647q0 -91 27 -162l553 660q-67 26 -146 26q-80 0 -157 -35t-139 -99t-100 -165.5t-38 -224.5zM1206 813q0 77 -22 145l-547 -651q61 -22 133 -22q80 0 156 35.5t138 100.5t100.5 167t41.5 225z" />
    <glyph glyph-name="oslashacute" unicode="&#x1ff;" horiz-adv-x="1196" 
d="M1143 1448l-357 -309h-264l250 309h371zM86 -76l-119 119l154 145q-68 112 -68 258q0 132 46.5 246t125.5 191.5t184 121.5t220 44q169 0 295 -95l151 146l115 -119l-156 -150q68 -117 68 -258q0 -162 -72 -299.5t-205.5 -221t-298.5 -83.5q-171 0 -295 94zM793 559
q0 23 -2 39l-336 -322q37 -22 92 -22q42 0 83.5 18.5t79 54t60.5 96.5t23 136zM606 764q-109 0 -177.5 -90.5t-68.5 -212.5q0 -29 2 -41l336 321q-44 23 -92 23z" />
    <glyph glyph-name="Scommaaccent" unicode="&#x218;" horiz-adv-x="1239" 
d="M582 250q93 0 144.5 40.5t51.5 110.5q0 96 -104 140l-170 69q-144 58 -215.5 162t-71.5 238q0 139 73.5 248t193.5 166t261 57q96 0 175.5 -20.5t132.5 -56t92.5 -79t60.5 -92.5t31 -92.5t10 -83.5l-301 -49q0 17 -3 36t-16 48.5t-34.5 52t-63.5 39t-98 16.5
q-85 0 -136.5 -49t-51.5 -113q0 -92 102 -137l154 -65q165 -70 240 -171.5t75 -238.5q0 -86 -35.5 -167.5t-100.5 -146t-166.5 -104t-223.5 -39.5q-118 0 -215 30.5t-159 79t-104 111t-59.5 123.5t-17.5 121q0 31 4 55l297 52q-4 -20 -4 -47q0 -100 63.5 -170.5t188.5 -73.5
zM303 -246q0 64 49.5 109t120.5 45q81 0 125.5 -48t44.5 -120q0 -135 -88.5 -212t-214.5 -77q-32 0 -72 8l23 105q14 -2 43 -2q120 0 155 78q-22 -9 -49 -9q-65 0 -101 36t-36 87z" />
    <glyph glyph-name="scommaaccent" unicode="&#x219;" horiz-adv-x="958" 
d="M8 307l262 43q-2 -10 -2 -18q0 -64 36 -99.5t97 -35.5q53 0 81 24t28 60q0 58 -70 88l-98 41q-231 97 -231 297q0 141 112 241.5t285 100.5q91 0 162 -22.5t112 -56t67.5 -78.5t35.5 -84t10 -79l-266 -31q0 129 -123 129q-45 0 -75 -25t-30 -63q0 -53 56 -73l127 -52
q231 -94 231 -305q0 -63 -26.5 -123t-76 -109t-127.5 -78.5t-173 -29.5q-97 0 -172 25t-117.5 61.5t-69.5 83.5t-36 84.5t-9 71.5v12zM150 -246q0 64 49 109t120 45q81 0 125.5 -48t44.5 -120q0 -135 -88.5 -212t-214.5 -77q-31 0 -71 8l22 105q14 -2 43 -2q121 0 156 78
q-23 -9 -49 -9q-65 0 -101 36t-36 87z" />
    <glyph glyph-name="uni021A" unicode="&#x21a;" horiz-adv-x="1222" 
d="M1303 1143h-406l-244 -1143h-323l241 1143h-426l68 309h1157zM276 -246q0 64 49.5 109t120.5 45q81 0 125.5 -48t44.5 -120q0 -135 -88.5 -212t-214.5 -77q-31 0 -71 8l22 105q14 -2 43 -2q121 0 156 78q-22 -9 -49 -9q-65 0 -101.5 36t-36.5 87z" />
    <glyph glyph-name="uni021B" unicode="&#x21b;" horiz-adv-x="800" 
d="M553 745l-80 -372q-4 -24 -4 -35q0 -88 104 -88q34 0 76 10l-53 -246q-56 -28 -145 -28l-93 -95q73 -7 118.5 -53t45.5 -108q0 -36 -15.5 -72t-46 -68t-83.5 -51.5t-121 -19.5q-58 0 -110 16.5t-85.5 41t-53 44.5t-27.5 35l114 104q64 -86 154 -86q35 0 56.5 14t21.5 40
q0 27 -21.5 40t-52.5 13q-10 0 -24 -1t-19 -1l-49 106l129 135q-139 70 -139 240q0 36 10 88l82 397h-176l57 273h49q83 0 128 42t65 124l30 131h279l-64 -297h197l-59 -273h-195z" />
    <glyph glyph-name="dotlessj" unicode="&#x237;" horiz-adv-x="571" 
d="M-8 -41l227 1059h309l-239 -1129q-32 -152 -127 -230.5t-234 -78.5q-67 0 -121 17.5t-81 37.5l51 242l11 -5q12 -5 37 -11t52 -6q98 0 115 104z" />
    <glyph glyph-name="uni0259" unicode="&#x259;" horiz-adv-x="1161" 
d="M41 418q0 104 18 162h719q-7 102 -63 156.5t-150 54.5q-75 0 -134.5 -32.5t-94.5 -88.5l-230 116q62 113 184.5 189t295.5 76q214 0 345.5 -135t131.5 -345q0 -141 -46 -257t-124 -191t-178 -115.5t-209 -40.5q-208 0 -336.5 128t-128.5 323zM756 387h-434q0 -68 47 -122
t151 -54q81 0 142.5 44.5t93.5 131.5z" />
    <glyph glyph-name="circumflex" unicode="&#x2c6;" horiz-adv-x="792" 
d="M213 1139h-254l307 309h289l172 -309h-233l-109 145z" />
    <glyph glyph-name="caron" unicode="&#x2c7;" horiz-adv-x="792" 
d="M537 1448h258l-301 -309h-291l-170 309h229l113 -148z" />
    <glyph glyph-name="uni02C9" unicode="&#x2c9;" horiz-adv-x="620" 
d="M563 1182h-583l45 215h585z" />
    <glyph glyph-name="breve" unicode="&#x2d8;" horiz-adv-x="837" 
d="M352 1128q-143 0 -222 79t-79 192q0 21 4 49h197q-2 -6 -2 -14q0 -43 28.5 -74t90.5 -31q66 0 104 36t51 83h221q-32 -138 -132.5 -229t-260.5 -91z" />
    <glyph glyph-name="dotaccent" unicode="&#x2d9;" horiz-adv-x="362" 
d="M-18 1280q0 77 58.5 137t141.5 60q70 0 116 -46.5t46 -111.5q0 -85 -58.5 -143t-138.5 -58q-72 0 -118.5 46.5t-46.5 115.5z" />
    <glyph glyph-name="ring" unicode="&#x2da;" horiz-adv-x="509" 
d="M258 1565q93 0 157 -56.5t64 -148.5q0 -108 -78.5 -179t-181.5 -71q-92 0 -154.5 58.5t-62.5 148.5q0 107 77.5 177.5t178.5 70.5zM160 1327q0 -31 20.5 -50.5t52.5 -19.5q34 0 58 24t24 60q0 30 -19 50t-50 20q-33 0 -59.5 -24t-26.5 -60z" />
    <glyph glyph-name="ogonek" unicode="&#x2db;" horiz-adv-x="395" 
d="M217 -463q-100 0 -171 58t-71 155q0 53 18.5 99.5t46.5 79.5t66 60.5t71.5 43.5t68.5 28l145 -61q-77 -27 -135.5 -79t-58.5 -116q0 -77 100 -84q24 0 39 3l-37 -179q-27 -8 -82 -8z" />
    <glyph glyph-name="tilde" unicode="&#x2dc;" horiz-adv-x="759" 
d="M393 1141h-192q18 158 97.5 232.5t188.5 74.5q81 0 154 -47q63 -45 102 -45q69 0 86 90h193q-22 -154 -98 -230.5t-179 -76.5q-74 0 -155 47q-5 3 -21 12t-23 12.5t-19.5 9t-23.5 7.5t-22 2q-71 0 -88 -88z" />
    <glyph glyph-name="hungarumlaut" unicode="&#x2dd;" horiz-adv-x="784" 
d="M430 1448l-274 -309h-201l176 309h299zM797 1448l-308 -309h-204l209 309h303z" />
    <glyph glyph-name="uni0394" unicode="&#x394;" horiz-adv-x="1447" 
d="M940 303l-278 801l-279 -801h557zM-61 0l546 1452h353l546 -1452h-1445z" />
    <glyph glyph-name="uni03A9" unicode="&#x3a9;" horiz-adv-x="1675" 
d="M838 1176q-98 0 -180.5 -42t-134.5 -127t-52 -196q0 -143 85.5 -239.5t213.5 -122.5v-449h-616v297h331q-154 63 -251 205t-97 338q0 190 98 338.5t256.5 226.5t346.5 78q140 0 267 -46t223 -128t153 -204t57 -265q0 -195 -98 -337.5t-252 -205.5h332v-297h-615v449
q127 26 212 122.5t85 239.5q0 166 -107 265.5t-257 99.5z" />
    <glyph glyph-name="uni03BC" unicode="&#x3bc;" horiz-adv-x="1288" 
d="M141 -389v1407h314v-578q0 -78 41.5 -127t121.5 -49q77 0 122.5 48t45.5 126v580h314v-836q0 -80 10 -182h-299q-8 36 -8 102q-37 -62 -113 -93.5t-160 -31.5q-35 0 -75 7v-373h-314z" />
    <glyph glyph-name="pi" unicode="&#x3c0;" horiz-adv-x="1458" 
d="M1155 754v-410q0 -92 94 -92q37 0 64 6v-248l-7 -3q-7 -3 -20.5 -7t-31 -8t-43 -7t-52.5 -3q-154 0 -234.5 84.5t-80.5 234.5v453h-238v-754h-313v754h-170v264h1186v-264h-154z" />
    <glyph glyph-name="Wgrave" unicode="&#x1e80;" horiz-adv-x="2129" 
d="M1106 1554l-246 271h357l155 -271h-266zM1065 1452h332l104 -938l424 938h350l-700 -1452h-326l-104 963l-500 -963h-346l-86 1452h326l43 -936z" />
    <glyph glyph-name="wgrave" unicode="&#x1e81;" horiz-adv-x="1728" 
d="M819 1139l-221 309h340l121 -309h-240zM776 1018h332l70 -600l278 600h318l-514 -1018h-308l-80 657l-335 -657h-320l-96 1018h305l43 -598z" />
    <glyph glyph-name="Wacute" unicode="&#x1e82;" horiz-adv-x="2129" 
d="M1749 1825l-363 -271h-292l270 271h385zM1065 1452h332l104 -938l424 938h350l-700 -1452h-326l-104 963l-500 -963h-346l-86 1452h326l43 -936z" />
    <glyph glyph-name="wacute" unicode="&#x1e83;" horiz-adv-x="1728" 
d="M1446 1448l-356 -309h-265l250 309h371zM776 1018h332l70 -600l278 600h318l-514 -1018h-308l-80 657l-335 -657h-320l-96 1018h305l43 -598z" />
    <glyph glyph-name="Wdieresis" unicode="&#x1e84;" horiz-adv-x="2129" 
d="M752 1673q0 67 52.5 122.5t125.5 55.5q64 0 105.5 -42.5t41.5 -102.5q0 -74 -53 -125t-123 -51q-67 0 -108 40.5t-41 102.5zM1434 1673q0 67 53 122.5t127 55.5q63 0 104 -42.5t41 -102.5q0 -75 -52.5 -125.5t-123.5 -50.5q-67 0 -108 40.5t-41 102.5zM1065 1452h332
l104 -938l424 938h350l-700 -1452h-326l-104 963l-500 -963h-346l-86 1452h326l43 -936z" />
    <glyph glyph-name="wdieresis" unicode="&#x1e85;" horiz-adv-x="1728" 
d="M588 1278q0 67 52.5 120.5t123.5 53.5q62 0 101.5 -41.5t39.5 -101.5q0 -71 -54 -120.5t-122 -49.5q-61 0 -101 40.5t-40 98.5zM1034 1278q0 67 52.5 120.5t121.5 53.5q62 0 103 -42t41 -101q0 -71 -54 -120.5t-122 -49.5q-62 0 -102 40.5t-40 98.5zM776 1018h332
l70 -600l278 600h318l-514 -1018h-308l-80 657l-335 -657h-320l-96 1018h305l43 -598z" />
    <glyph glyph-name="uni1E8A" unicode="&#x1e8a;" horiz-adv-x="1359" 
d="M655 446l-362 -446h-412l639 735l-332 717h375l191 -448l364 448h410l-637 -735l334 -717h-379zM674 1708q0 74 59.5 133.5t140.5 59.5q70 0 117 -46.5t47 -111.5q0 -85 -58.5 -143t-139.5 -58q-71 0 -118.5 48.5t-47.5 117.5z" />
    <glyph glyph-name="uni1E8B" unicode="&#x1e8b;" horiz-adv-x="1124" 
d="M504 276l-240 -276h-368l477 522l-267 496h343l131 -268l229 268h375l-473 -516l268 -502h-340zM479 1280q0 77 59 137t142 60q70 0 116 -46.5t46 -111.5q0 -85 -58.5 -143t-138.5 -58q-73 0 -119.5 47t-46.5 115z" />
    <glyph glyph-name="Ygrave" unicode="&#x1ef2;" horiz-adv-x="1323" 
d="M504 606l-316 846h342l185 -537l372 537h390l-650 -848l-127 -604h-325zM702 1554l-245 271h356l156 -271h-267z" />
    <glyph glyph-name="ygrave" unicode="&#x1ef3;" horiz-adv-x="1105" 
d="M285 -389h-342l338 545l-211 862h325l115 -543l317 543h344zM510 1139l-221 309h340l121 -309h-240z" />
    <glyph glyph-name="uni2007" unicode="&#x2007;" horiz-adv-x="1286" 
 />
    <glyph glyph-name="uni2008" unicode="&#x2008;" horiz-adv-x="593" 
 />
    <glyph glyph-name="uni200B" unicode="&#x200b;" horiz-adv-x="0" 
 />
    <glyph glyph-name="endash" unicode="&#x2013;" horiz-adv-x="1306" 
d="M1155 483h-1059l56 271h1060z" />
    <glyph glyph-name="emdash" unicode="&#x2014;" horiz-adv-x="2158" 
d="M2007 483h-1911l56 271h1912z" />
    <glyph glyph-name="quoteleft" unicode="&#x2018;" horiz-adv-x="544" 
d="M539 1044q0 -75 -55 -127.5t-136 -52.5q-83 0 -127.5 54t-44.5 129q0 165 127.5 287t298.5 128l-31 -135q-68 -5 -132 -50t-85 -110q18 9 43 9q66 0 104 -40t38 -92z" />
    <glyph glyph-name="quoteright" unicode="&#x2019;" horiz-adv-x="548" 
d="M244 1280q0 75 54.5 128.5t133.5 53.5q83 0 128.5 -53.5t45.5 -128.5q0 -165 -128.5 -288.5t-297.5 -129.5l29 137q64 3 131 48t86 110q-16 -8 -43 -8q-65 0 -102 39.5t-37 91.5z" />
    <glyph glyph-name="quotesinglbase" unicode="&#x201a;" horiz-adv-x="544" 
d="M-2 125q0 75 54.5 128.5t133.5 53.5q83 0 128.5 -53.5t45.5 -128.5q0 -165 -128.5 -288.5t-299.5 -131.5l31 139q63 2 130.5 47.5t86.5 110.5q-16 -8 -43 -8q-65 0 -102 39.5t-37 91.5z" />
    <glyph glyph-name="quotedblleft" unicode="&#x201c;" horiz-adv-x="966" 
d="M537 1047q0 -76 -54 -129.5t-135 -53.5q-83 0 -127.5 54t-44.5 129q0 165 127.5 287t298.5 128l-31 -135q-68 -5 -132 -50t-85 -110q18 9 43 9q66 0 103 -38.5t37 -90.5zM961 1047q0 -76 -54 -129.5t-135 -53.5q-83 0 -127.5 54t-44.5 129q0 165 127.5 287t298.5 128
l-31 -135q-68 -5 -132 -50t-85 -110q18 9 43 9q66 0 103 -38.5t37 -90.5z" />
    <glyph glyph-name="quotedblright" unicode="&#x201d;" horiz-adv-x="976" 
d="M244 1280q0 76 53.5 129t134.5 53q83 0 127.5 -53.5t44.5 -128.5q0 -108 -59 -203t-157 -152t-208 -61l29 137q62 2 130 47t87 109l-6 -1q-6 -2 -16.5 -3.5t-20.5 -1.5q-66 0 -102.5 38.5t-36.5 90.5zM674 1280q0 76 53.5 129t134.5 53q83 0 127.5 -53.5t44.5 -128.5
q0 -164 -128 -287t-298 -129l31 137q62 2 130 47t87 109l-6 -1q-6 -2 -16.5 -3.5t-20.5 -1.5q-66 0 -102.5 38.5t-36.5 90.5z" />
    <glyph glyph-name="quotedblbase" unicode="&#x201e;" horiz-adv-x="970" 
d="M-2 125q0 76 53.5 129t134.5 53q83 0 127.5 -54t44.5 -130q0 -164 -128 -287t-298 -129l31 137q63 3 130.5 48t86.5 110l-6 -2q-6 -2 -16.5 -4t-20.5 -2q-66 0 -102.5 39.5t-36.5 91.5zM424 125q0 76 53.5 129t134.5 53q83 0 127.5 -54t44.5 -130q0 -164 -128 -287
t-298 -129l31 137q63 3 130.5 48t86.5 110l-6 -2q-6 -2 -16.5 -4t-20.5 -2q-66 0 -102.5 39.5t-36.5 91.5z" />
    <glyph glyph-name="dagger" unicode="&#x2020;" horiz-adv-x="884" 
d="M494 1452h258l-62 -285h246l-49 -233h-248l-127 -600h-258l127 600h-246l49 233h246z" />
    <glyph glyph-name="daggerdbl" unicode="&#x2021;" horiz-adv-x="3749" 
d="M2458 -12q36 0 63 27t27 65q0 51 -43 76q-367 227 -863 227q-249 0 -538 -66q-31 -8 -50.5 -31.5t-19.5 -54.5q0 -37 24.5 -63.5t63.5 -26.5q8 0 24 3t35 8t25 6q226 47 441 47q429 0 763 -203q24 -14 48 -14zM2615 371q45 0 79 33.5t34 80.5q0 67 -53 97
q-216 132 -489 202t-556 70q-306 0 -577 -82q-36 -10 -58 -40.5t-22 -67.5q0 -46 29 -78.5t77 -32.5q21 0 33 2.5t36.5 10t53.5 14.5q199 49 424 49q254 0 498 -62.5t432 -179.5q29 -16 59 -16zM2728 836q32 -19 68 -19q57 0 97 39t40 96q0 34 -18 65.5t-50 49.5
q-247 144 -558.5 214.5t-655.5 70.5q-378 0 -678 -90q-44 -13 -70 -49t-26 -80q0 -54 38 -96t95 -42q21 0 39 6q267 80 614 80q295 0 576.5 -61t488.5 -184zM430 670q0 197 52 384.5t145.5 346t227 292t292 226.5t346 145t383.5 52t383.5 -52t345.5 -145t291.5 -226.5
t226.5 -292t145 -346t52 -384.5t-52 -384t-145 -345.5t-226.5 -292t-291.5 -226t-345.5 -144.5t-383.5 -52t-383.5 52t-346 144.5t-292 226t-227 292t-145.5 345.5t-52 384z" />
    <glyph glyph-name="bullet" unicode="&#x2022;" horiz-adv-x="1120" 
d="M137 621q0 179 124.5 304.5t301.5 125.5t302.5 -126t125.5 -304q0 -174 -126 -300t-302 -126t-301 126t-125 300z" />
    <glyph glyph-name="ellipsis" unicode="&#x2026;" horiz-adv-x="1771" 
d="M162 -29q-72 0 -119 48t-47 116q0 80 61 140.5t146 60.5q73 0 119.5 -48t46.5 -116q0 -82 -60.5 -141.5t-146.5 -59.5zM774 -29q-72 0 -118 48t-46 116q0 81 60 141t145 60q73 0 119.5 -48t46.5 -116q0 -82 -60.5 -141.5t-146.5 -59.5zM1391 -29q-73 0 -119.5 48
t-46.5 116q0 81 60 141t145 60q73 0 119 -48t46 -116q0 -82 -59.5 -141.5t-144.5 -59.5z" />
    <glyph glyph-name="perthousand" unicode="&#x2030;" horiz-adv-x="2246" 
d="M1755 -25q-136 0 -221 88q-105 -88 -240 -88q-134 0 -220.5 88.5t-86.5 219.5q0 160 112.5 266t260.5 106q129 0 219 -90q107 90 242 90q132 0 219.5 -89t87.5 -218q0 -107 -54.5 -194t-139.5 -133t-179 -46zM1659 1452l-1202 -1452h-275l1202 1452h275zM481 797
q-134 0 -220.5 88.5t-86.5 218.5q0 107 54 193.5t139 133t180 46.5q132 0 219.5 -89.5t87.5 -218.5q0 -107 -54.5 -194t-139.5 -132.5t-179 -45.5zM498 1004q54 0 95.5 41t41.5 112q0 49 -28.5 81t-76.5 32q-55 0 -96 -42t-41 -112q0 -50 28 -80.5t77 -31.5zM1311 182
q54 0 95.5 41.5t41.5 112.5q0 49 -28.5 81t-76.5 32q-55 0 -96 -42t-41 -112q0 -50 28 -81t77 -32zM1772 182q54 0 95.5 41.5t41.5 112.5q0 49 -28.5 81t-76.5 32q-55 0 -96 -42t-41 -112q0 -50 28 -81t77 -32z" />
    <glyph glyph-name="guilsinglleft" unicode="&#x2039;" horiz-adv-x="702" 
d="M539 209h-277l-205 407l367 402h301l-387 -418z" />
    <glyph glyph-name="guilsinglright" unicode="&#x203a;" horiz-adv-x="700" 
d="M166 1018h272l209 -408l-366 -401h-304l388 418z" />
    <glyph glyph-name="uni2042" unicode="&#x2042;" horiz-adv-x="1683" 
d="M1083 1452l-45 -217l211 65l31 -200l-213 -62l96 -166l-180 -114l-100 176l-164 -182l-146 120l166 181l-188 61l88 189l188 -64l39 213h217zM537 670l-45 -217l210 65l31 -201l-213 -61l96 -166l-180 -115l-100 177l-164 -183l-145 121l166 180l-189 62l88 188l189 -63
l38 213h218zM1372 670l-45 -217l211 65l31 -201l-213 -61l96 -166l-180 -115l-101 177l-163 -183l-146 121l166 180l-188 62l88 188l188 -63l39 213h217z" />
    <glyph glyph-name="fraction" unicode="&#x2044;" horiz-adv-x="378" 
d="M956 1452l-1202 -1452h-274l1202 1452h274z" />
    <glyph glyph-name="uni2051" unicode="&#x2051;" horiz-adv-x="903" 
d="M729 1452l-45 -217l211 65l31 -200l-213 -62l96 -166l-180 -114l-101 176l-163 -182l-146 120l166 181l-188 61l88 189l188 -64l39 213h217zM563 678l-45 -217l211 65l31 -200l-213 -62l96 -166l-180 -114l-101 176l-163 -183l-146 121l166 181l-188 61l88 188l188 -63
l39 213h217z" />
    <glyph glyph-name="uni2070" unicode="&#x2070;" horiz-adv-x="825" 
d="M152 987q0 63 13 127.5t43.5 129t75 114.5t112.5 81t151 31q164 0 245.5 -86t81.5 -219q0 -65 -13 -130t-43.5 -130t-75 -114.5t-112.5 -80t-151 -30.5q-157 0 -242 84.5t-85 222.5zM387 991q0 -57 21 -88t75 -31q41 0 73 30t49.5 76.5t26.5 94t9 90.5q0 115 -100 115
q-40 0 -71.5 -30t-48.5 -76.5t-25.5 -93t-8.5 -87.5z" />
    <glyph glyph-name="uni2074" unicode="&#x2074;" horiz-adv-x="796" 
d="M98 842l49 233l412 377h248l-90 -434h123l-39 -176h-121l-31 -146h-231l31 146h-351zM485 1018l43 199l-217 -199h174z" />
    <glyph glyph-name="uni2075" unicode="&#x2075;" horiz-adv-x="720" 
d="M117 948l205 21q0 -43 27 -69t69 -26q40 0 69 28t29 73q0 36 -24.5 58t-59.5 22q-51 0 -88 -37l-178 82l160 352h465l-39 -184h-312l-43 -97q40 29 115 29q108 0 168.5 -59t60.5 -158q0 -126 -91 -212.5t-234 -86.5q-140 0 -219.5 75.5t-79.5 188.5z" />
    <glyph glyph-name="uni2076" unicode="&#x2076;" horiz-adv-x="765" 
d="M864 1411l-76 -172q-81 37 -161 37q-71 0 -134 -32.5t-90 -90.5q57 41 142 41q111 0 173 -60t62 -157q0 -132 -93.5 -216.5t-233.5 -84.5q-134 0 -218.5 88t-84.5 229q0 108 40 198t107.5 148.5t153.5 90.5t180 32q137 0 233 -51zM477 1036q-39 0 -68.5 -26t-29.5 -68
q0 -35 22 -57.5t56 -22.5q42 0 71 27t29 72q0 32 -22.5 53.5t-57.5 21.5z" />
    <glyph glyph-name="uni2077" unicode="&#x2077;" horiz-adv-x="708" 
d="M854 1452l-39 -188q-34 -24 -66 -50.5t-82.5 -79t-92.5 -111t-86 -145.5t-72 -182h-246q27 99 75.5 194t97 158.5t96.5 114.5t74.5 74t31.5 25h-367l39 190h637z" />
    <glyph glyph-name="uni2078" unicode="&#x2078;" horiz-adv-x="757" 
d="M430 1219q0 -25 20 -43.5t50 -18.5q38 0 61 21.5t23 50.5q0 25 -17 43t-55 18t-60 -22.5t-22 -48.5zM352 924q0 -33 25.5 -52.5t62.5 -19.5q47 0 74 25.5t27 58.5q0 28 -20.5 49t-69.5 21q-46 0 -72.5 -26t-26.5 -56zM446 678q-160 0 -242.5 59t-82.5 156q0 76 56 130.5
t138 68.5q-44 18 -71 61.5t-27 91.5q0 94 84.5 158.5t214.5 64.5q147 0 222 -58.5t75 -152.5q0 -63 -47 -112t-121 -70q50 -15 84.5 -61t34.5 -99q0 -104 -90 -170.5t-228 -66.5z" />
    <glyph glyph-name="uni2079" unicode="&#x2079;" horiz-adv-x="765" 
d="M100 731l74 170q68 -37 166 -37q69 0 133.5 34t87.5 97q-58 -45 -141 -45q-110 0 -173 60.5t-63 154.5q0 132 94 215.5t234 83.5q134 0 218.5 -87t84.5 -226q0 -109 -39.5 -200t-106.5 -150t-153 -91t-180 -32q-136 0 -236 53zM487 1104q39 0 68 27t29 69q0 34 -22.5 58
t-55.5 24q-42 0 -70 -28.5t-28 -73.5q0 -32 22 -54t57 -22z" />
    <glyph glyph-name="uni2080" unicode="&#x2080;" horiz-adv-x="829" 
d="M-29 137q0 63 13 127.5t44 129.5t75.5 115t112.5 81t151 31q164 0 245.5 -86.5t81.5 -219.5q0 -65 -13 -130t-43.5 -130t-75 -114.5t-112.5 -80t-151 -30.5q-157 0 -242.5 84.5t-85.5 222.5zM207 141q0 -57 20.5 -87.5t75.5 -30.5q41 0 73 30t49.5 76t26.5 93.5t9 90.5
q0 115 -101 115q-40 0 -71 -30t-48 -76.5t-25.5 -93t-8.5 -87.5z" />
    <glyph glyph-name="uni2081" unicode="&#x2081;" horiz-adv-x="548" 
d="M283 -246h-236l94 445h-190l31 149q94 3 163 51t93 109h204z" />
    <glyph glyph-name="uni2082" unicode="&#x2082;" horiz-adv-x="739" 
d="M152 125l135 57q86 36 86 92q0 26 -18.5 48t-55.5 22q-49 0 -73.5 -31.5t-24.5 -83.5l-203 17q0 118 86 200t225 82q142 0 218.5 -66t76.5 -167q0 -176 -227 -270l-156 -66q-3 -1 -12 -10h309l-43 -195h-581q0 127 66.5 222t191.5 149z" />
    <glyph glyph-name="uni2083" unicode="&#x2083;" horiz-adv-x="755" 
d="M197 82l-56 143l215 101h-342l39 186h596l-45 -215l-196 -94q70 -15 112.5 -66t42.5 -123q0 -113 -93.5 -193.5t-240.5 -80.5q-143 0 -226 76t-83 180q0 4 1 14.5t1 14.5l213 12q-2 -8 -2 -17q0 -41 27 -66.5t73 -25.5q45 0 72 25t27 63q0 35 -25.5 54.5t-62.5 19.5
q-23 0 -47 -8z" />
    <glyph glyph-name="uni2084" unicode="&#x2084;" horiz-adv-x="798" 
d="M-102 -100l49 233l411 377h248l-90 -434h123l-39 -176h-121l-30 -146h-232l31 146h-350zM285 76l43 198l-217 -198h174z" />
    <glyph glyph-name="uni2085" unicode="&#x2085;" horiz-adv-x="724" 
d="M-82 6l205 21q0 -43 27 -69t69 -26q40 0 69 28t29 73q0 36 -24.5 58t-59.5 22q-51 0 -88 -37l-178 82l160 352h465l-39 -184h-311l-43 -97q40 29 114 29q108 0 169 -59t61 -158q0 -126 -91.5 -212.5t-234.5 -86.5q-140 0 -219.5 75.5t-79.5 188.5z" />
    <glyph glyph-name="uni2086" unicode="&#x2086;" horiz-adv-x="770" 
d="M666 473l-76 -172q-81 37 -162 37q-71 0 -133.5 -32.5t-89.5 -90.5q57 41 141 41q111 0 173.5 -60.5t62.5 -156.5q0 -132 -94 -216.5t-234 -84.5q-134 0 -218.5 88t-84.5 229q0 108 40 198t107.5 148.5t153.5 90.5t180 32q138 0 234 -51zM279 98q-39 0 -69 -26t-30 -68
q0 -35 22 -57.5t56 -22.5q42 0 71 27t29 72q0 33 -22 54t-57 21z" />
    <glyph glyph-name="uni2087" unicode="&#x2087;" horiz-adv-x="710" 
d="M653 508l-39 -189q-34 -24 -65.5 -50t-82.5 -79t-93 -111t-86 -145t-72 -182h-246q27 99 75.5 193.5t97 158t96.5 115t74.5 74t31.5 24.5h-367l39 191h637z" />
    <glyph glyph-name="uni2088" unicode="&#x2088;" horiz-adv-x="761" 
d="M231 276q0 -25 20 -43t50 -18q38 0 61 21.5t23 50.5q0 25 -17 43t-55 18t-60 -22.5t-22 -49.5zM154 -18q0 -33 25.5 -52.5t62.5 -19.5q47 0 73.5 25.5t26.5 58.5q0 28 -20.5 48.5t-69.5 20.5q-46 0 -72 -25.5t-26 -55.5zM248 -264q-160 0 -243 59t-83 156
q0 76 56.5 130.5t138.5 68.5q-44 19 -71.5 62t-27.5 91q0 94 84.5 158.5t214.5 64.5q147 0 222 -58.5t75 -152.5q0 -63 -47 -112t-121 -70q50 -15 84.5 -61t34.5 -99q0 -104 -89.5 -170.5t-227.5 -66.5z" />
    <glyph glyph-name="uni2089" unicode="&#x2089;" horiz-adv-x="770" 
d="M-98 -207l73 170q68 -37 166 -37q69 0 133.5 34t87.5 97q-58 -45 -141 -45q-109 0 -172 60.5t-63 154.5q0 132 93.5 215.5t233.5 83.5q134 0 218.5 -87t84.5 -226q0 -109 -39.5 -200t-106.5 -150t-153 -91t-180 -32q-135 0 -235 53zM289 166q39 0 67.5 26.5t28.5 69.5
q0 34 -22.5 58t-55.5 24q-42 0 -70 -28.5t-28 -73.5q0 -31 22.5 -53.5t57.5 -22.5z" />
    <glyph glyph-name="Euro" unicode="&#x20ac;" horiz-adv-x="1490" 
d="M125 791q21 99 45 198h174q97 227 304 360.5t450 133.5q268 0 438 -148q-32 -43 -89.5 -123.5l-72.5 -101.5q-49 44 -129.5 71t-171.5 27q-111 0 -219.5 -56.5t-177.5 -162.5h616l-131 -198h-567q-14 -38 -14 -99q0 -29 2 -41h495q-18 -31 -39.5 -64.5t-47 -72.5
t-40.5 -63h-323q45 -101 139 -153t221 -52q135 0 242 63q63 -164 90 -237q-171 -103 -375 -103q-248 0 -422 132.5t-227 349.5h-244l47 200h176q0 73 11 140h-160z" />
    <glyph glyph-name="uni2113" unicode="&#x2113;" horiz-adv-x="911" 
d="M158 291q0 29 6 63l22 109q-84 -14 -151 -19l55 269q78 7 150 26l88 424q33 154 130 237t226 83q142 0 218.5 -77t76.5 -206q0 -112 -61.5 -233t-176.5 -229.5t-262 -178.5l-30 -137q-7 -35 -7 -51q0 -129 156 -129q86 0 152 30l-56 -254q-68 -38 -176 -38
q-169 0 -264.5 84.5t-95.5 226.5zM604 1151l-53 -258q62 49 108 130.5t46 152.5q0 22 -11.5 33.5t-29.5 11.5q-45 0 -60 -70z" />
    <glyph glyph-name="trademark" unicode="&#x2122;" horiz-adv-x="1820" 
d="M819 1266h-198l-117 -561h-209l117 561h-205l39 186h612zM1700 705h-205l94 450l-258 -450h-145l-90 454l-95 -454h-202l157 747h281l80 -397l233 397h308z" />
    <glyph glyph-name="Omega" unicode="&#x2126;" horiz-adv-x="1730" 
d="M864 1176q-98 0 -180.5 -42t-134 -126.5t-51.5 -196.5q0 -143 85.5 -239.5t213.5 -122.5v-449h-617v297h332q-154 63 -251 205t-97 338q0 143 57 265t153 204t223 128t267 46q188 0 346.5 -78t256.5 -226.5t98 -338.5q0 -195 -98 -337.5t-253 -205.5h332v-297h-614v449
q127 26 212 122.5t85 239.5q0 166 -107.5 265.5t-257.5 99.5z" />
    <glyph glyph-name="uni2160" unicode="&#x2160;" horiz-adv-x="1011" 
d="M264 1452h840l-55 -268h-261l-194 -916h258l-55 -268h-840l55 268h260l195 916h-258z" />
    <glyph glyph-name="uni2161" unicode="&#x2161;" horiz-adv-x="1626" 
d="M264 1452h1454l-55 -268h-277l-194 -916h274l-55 -268h-1454l55 268h277l194 916h-274zM805 1184l-195 -916h260l195 916h-260z" />
    <glyph glyph-name="uni2162" unicode="&#x2162;" horiz-adv-x="2185" 
d="M1434 268l190 916h-250l-190 -916h250zM862 268l191 916h-250l-191 -916h250zM-43 0l55 268h279l190 916h-274l55 268h2015l-55 -268h-276l-191 -916h273l-56 -268h-2015z" />
    <glyph glyph-name="uni2163" unicode="&#x2163;" horiz-adv-x="2207" 
d="M264 1452h2036l-55 -268h-193l-457 -916h455l-55 -268h-2038l55 268h260l195 916h-258zM971 1184h-183l-194 -916h420zM1292 1184l21 -817l389 817h-410z" />
    <glyph glyph-name="uni2164" unicode="&#x2164;" horiz-adv-x="1658" 
d="M12 268h453l-43 916h-215l55 268h1489l-55 -268h-193l-456 -916h454l-55 -268h-1489zM743 1184l21 -817l389 817h-410z" />
    <glyph glyph-name="uni2165" unicode="&#x2165;" horiz-adv-x="2189" 
d="M12 268h453l-43 916h-215l55 268h2019l-55 -268h-260l-194 -916h258l-56 -268h-2017zM1645 1184h-142l-456 -916h403zM743 1184l21 -817l389 817h-410z" />
    <glyph glyph-name="uni2166" unicode="&#x2166;" horiz-adv-x="2742" 
d="M12 268h453l-43 916h-215l55 268h2572l-55 -268h-260l-195 -916h259l-56 -268h-2570zM1503 1184l-456 -916h403l195 916h-142zM1966 1184l-194 -916h231l195 916h-232zM743 1184l21 -817l389 817h-410z" />
    <glyph glyph-name="uni2167" unicode="&#x2167;" horiz-adv-x="3295" 
d="M12 268h453l-43 916h-215l55 268h3125l-55 -268h-260l-195 -916h258l-55 -268h-3123zM1503 1184l-456 -916h403l195 916h-142zM2519 1184l-195 -916h232l194 916h-231zM1966 1184l-194 -916h231l195 916h-232zM743 1184l21 -817l389 817h-410z" />
    <glyph glyph-name="uni2168" unicode="&#x2168;" horiz-adv-x="2152" 
d="M207 1184l55 268h1983l-56 -268h-178l-440 -465l244 -451h180l-56 -268h-1982l55 268h271l192 916h-268zM1147 721l-246 463h-102l-191 -916h101zM1272 1184l121 -244l225 244h-346zM1325 504l-221 -236h340z" />
    <glyph glyph-name="uni2169" unicode="&#x2169;" horiz-adv-x="1609" 
d="M12 268h174l439 453l-246 463h-172l55 268h1440l-55 -268h-158l-440 -465l243 -451h160l-55 -268h-1440zM750 1184l120 -244l226 244h-346zM803 504l-221 -236h340z" />
    <glyph glyph-name="uni216C" unicode="&#x216c;" horiz-adv-x="1329" 
d="M264 1452h797l-55 -268h-250l-193 -916h328l72 340h305l-129 -608h-1180l55 268h228l192 916h-225z" />
    <glyph glyph-name="uni216D" unicode="&#x216d;" horiz-adv-x="1615" 
d="M1542 879h-313q-1 39 -10.5 78.5t-34 84t-59.5 78.5t-94 56t-132 22q-132 0 -241.5 -66t-175.5 -189.5t-66 -280.5q0 -195 100 -300.5t270 -105.5q149 0 254.5 74.5t124.5 191.5h316q-74 -348 -109 -520h-309l27 127q-126 -160 -369 -160q-123 0 -232 42.5t-194.5 123.5
t-135.5 211t-50 293q0 184 63.5 343.5t170.5 268t249 170.5t297 62t266.5 -57t157.5 -142l35 168h311z" />
    <glyph glyph-name="uni216E" unicode="&#x216e;" horiz-adv-x="1640" 
d="M-41 0l53 268h275q61 284 192 916h-270l55 268h694q300 0 465.5 -154.5t165.5 -429.5q0 -197 -64.5 -361t-177.5 -274.5t-268.5 -171.5t-335.5 -61h-784zM803 1184l-197 -916h127q100 0 193.5 37.5t169 106.5t121 179.5t45.5 244.5q0 170 -95 259t-258 89h-106z" />
    <glyph glyph-name="uni216F" unicode="&#x216f;" horiz-adv-x="2285" 
d="M932 1452q148 -777 178 -932q99 172 284.5 490.5t256.5 441.5h727l-56 -268h-251q-20 -98 -88 -419.5t-103 -496.5h248q-29 -143 -57 -268h-748l53 268h178q107 491 156 721q-98 -162 -293 -486.5t-293 -486.5h-225q-100 537 -180 953q-33 -165 -146 -701h166l-55 -268
h-727l55 268h252l191 916h-248l55 268h670z" />
    <glyph glyph-name="arrowleft" unicode="&#x2190;" horiz-adv-x="2326" 
d="M694 111l-643 505l643 508v-372h1534v-269h-1534v-372z" />
    <glyph glyph-name="arrowup" unicode="&#x2191;" horiz-adv-x="1114" 
d="M647 1638l498 -567h-363v-1370h-268v1370h-371z" />
    <glyph glyph-name="arrowright" unicode="&#x2192;" horiz-adv-x="2322" 
d="M2275 616l-643 -505v372h-1534v269h1534v372z" />
    <glyph glyph-name="arrowdown" unicode="&#x2193;" horiz-adv-x="1114" 
d="M999 268l-501 -571l-508 571h375v1368h268v-1368h366z" />
    <glyph glyph-name="uni2196" unicode="&#x2196;" horiz-adv-x="1857" 
d="M242 1450h721l-267 -268l1022 -1020l-188 -189l-1022 1020l-266 -268v725z" />
    <glyph glyph-name="uni2197" unicode="&#x2197;" horiz-adv-x="1480" 
d="M713 1450h721v-725l-267 268l-1022 -1020l-190 189l1022 1022z" />
    <glyph glyph-name="uni2198" unicode="&#x2198;" horiz-adv-x="1853" 
d="M1665 2h-721l264 266l-1020 1022l189 189l1022 -1020l266 268v-725z" />
    <glyph glyph-name="uni2199" unicode="&#x2199;" horiz-adv-x="1478" 
d="M819 2h-721v725l267 -268l1021 1020l189 -189l-1022 -1020z" />
    <glyph glyph-name="uni21A9" unicode="&#x21a9;" horiz-adv-x="1908" 
d="M623 49l-582 500l582 504v-373h735q107 0 171 55t64 133q0 83 -63.5 135t-171.5 52h-418v268h430q222 0 363 -129t141 -326q0 -200 -139 -329t-365 -129h-747v-361z" />
    <glyph glyph-name="uni21B0" unicode="&#x21b0;" horiz-adv-x="1777" 
d="M711 481l-582 502l582 502v-369h874v-1116h-268v848h-606v-367z" />
    <glyph glyph-name="uni21B1" unicode="&#x21b1;" horiz-adv-x="1622" 
d="M455 0h-269v1116h885v369l582 -502l-582 -502v367h-616v-848z" />
    <glyph glyph-name="uni21B2" unicode="&#x21b2;" horiz-adv-x="1619" 
d="M1217 1452h268v-1116h-883v-369l-584 504l584 500v-367h615v848z" />
    <glyph glyph-name="uni21B3" unicode="&#x21b3;" horiz-adv-x="1781" 
d="M1126 971l582 -500l-582 -504v369h-884v1116h268v-848h616v367z" />
    <glyph glyph-name="uni21B4" unicode="&#x21b4;" horiz-adv-x="1812" 
d="M227 1184v268h1143v-920h369l-496 -563l-504 563h363v652h-875z" />
    <glyph glyph-name="uni21B5" unicode="&#x21b5;" horiz-adv-x="2271" 
d="M549 170l-477 555h336q0 155 60 295.5t161.5 242.5t242 162t295.5 60q190 0 346 -84l-122 -238q-103 56 -224 56q-133 0 -246 -66.5t-179 -180.5t-66 -247h348zM1915 725q0 -155 -60 -295.5t-161 -241.5t-241.5 -161t-295.5 -60q-181 0 -346 84l123 236q109 -56 223 -56
q200 0 342.5 145.5t142.5 348.5h-346l476 555l477 -555h-334z" />
    <glyph glyph-name="uni21C6" unicode="&#x21c6;" horiz-adv-x="2482" 
d="M2363 324l-581 -500v366h-1551v269h1551v368zM748 655l-582 500l582 504v-375h1548v-268h-1548v-361z" />
    <glyph glyph-name="partialdiff" unicode="&#x2202;" horiz-adv-x="1280" 
d="M510 1188q-156 0 -303 -72l-111 252q199 107 430 107q89 0 172.5 -17t177 -68.5t162 -132.5t113.5 -221t45 -323q0 -124 -22.5 -234t-70.5 -204.5t-118.5 -162.5t-171.5 -106.5t-225 -38.5q-105 0 -200 33t-170.5 94.5t-120 160t-44.5 220.5q0 111 45 204t117 151.5
t159 91t175 32.5q219 0 319 -120q-18 189 -114 271.5t-244 82.5zM625 694q-124 0 -190 -65.5t-66 -165.5q0 -93 70 -151t159 -58q71 0 125 28.5t85 78t47.5 105.5t21.5 122q-106 106 -252 106z" />
    <glyph glyph-name="Delta" unicode="&#x2206;" horiz-adv-x="1593" 
d="M979 303l-279 801l-278 -801h557zM-23 0l547 1452h353l546 -1452h-1446z" />
    <glyph glyph-name="product" unicode="&#x220f;" horiz-adv-x="1527" 
d="M1333 0h-325v1153h-441v-1153h-323v1452h1089v-1452z" />
    <glyph glyph-name="summation" unicode="&#x2211;" horiz-adv-x="1484" 
d="M231 0v297l504 426l-504 434v295h1072v-301h-627l498 -428l-517 -422h646v-301h-1072z" />
    <glyph glyph-name="minus" unicode="&#x2212;" horiz-adv-x="1314" 
d="M166 610v254h1026v-254h-1026z" />
    <glyph glyph-name="uni2215" unicode="&#x2215;" horiz-adv-x="907" 
d="M780 1329h287l-936 -1329h-283z" />
    <glyph glyph-name="uni2219" unicode="&#x2219;" horiz-adv-x="571" 
d="M102 641q0 81 61 143t148 62q74 0 123 -48.5t49 -115.5q0 -91 -61.5 -152t-147.5 -61q-75 0 -123.5 50t-48.5 122z" />
    <glyph glyph-name="radical" unicode="&#x221a;" horiz-adv-x="1357" 
d="M1559 1561h-283l-518 -1561h-271l-389 1110h287l240 -709l460 1411h474v-251z" />
    <glyph glyph-name="infinity" unicode="&#x221e;" horiz-adv-x="1744" 
d="M113 719q0 171 116 285t295 114q200 0 375 -194q187 194 369 194q178 0 294.5 -114t116.5 -285t-116.5 -284t-294.5 -113q-104 0 -194 46.5t-181 143.5q-178 -190 -369 -190q-179 0 -295 113t-116 284zM528 848q-60 0 -97.5 -37t-37.5 -94q0 -56 37 -92.5t98 -36.5
q94 0 197 125q-56 66 -102 100.5t-95 34.5zM1264 588q60 0 97.5 36.5t37.5 92.5t-38 93.5t-97 37.5q-49 0 -96.5 -33.5t-102.5 -97.5q110 -129 199 -129z" />
    <glyph glyph-name="integral" unicode="&#x222b;" horiz-adv-x="714" 
d="M186 2v1045q0 188 108.5 297.5t295.5 109.5h121v-272h-111q-45 0 -73.5 -31.5t-28.5 -87.5v-1045q0 -188 -108.5 -297.5t-295.5 -109.5h-123v272h111q46 0 75 31.5t29 87.5z" />
    <glyph glyph-name="approxequal" unicode="&#x2248;" horiz-adv-x="1347" 
d="M1098 1106l164 -133q-57 -107 -149 -165t-202 -58q-116 0 -227 63l-98 53q-50 27 -101 27q-103 0 -174 -100l-168 133q57 106 150 164.5t203 58.5q114 0 223 -59l98 -54q49 -28 109 -28q105 0 172 98zM1098 688l164 -135q-57 -107 -149 -165t-202 -58q-116 0 -227 63
l-98 53q-52 27 -103 27q-105 0 -172 -98l-168 133q56 106 148.5 163.5t202.5 57.5q116 0 225 -59l98 -54q54 -28 107 -28q108 0 174 100z" />
    <glyph glyph-name="notequal" unicode="&#x2260;" horiz-adv-x="1296" 
d="M174 819v250h588l110 180h271l-111 -180h156v-250h-309l-99 -162h408v-249h-561l-121 -197h-270l120 197h-182v249h336l98 162h-434z" />
    <glyph glyph-name="lessequal" unicode="&#x2264;" horiz-adv-x="1204" 
d="M156 207v254h899v-254h-899zM156 784v246l899 266v-252l-545 -133l545 -135v-258z" />
    <glyph glyph-name="greaterequal" unicode="&#x2265;" horiz-adv-x="1259" 
d="M1110 461v-254h-899v254h899zM1110 1030v-246l-899 -266v252l545 133l-545 137v256z" />
    <glyph glyph-name="dotmath" unicode="&#x22c5;" horiz-adv-x="571" 
d="M102 641q0 81 61 143t148 62q74 0 123 -48.5t49 -115.5q0 -91 -61.5 -152t-147.5 -61q-75 0 -123.5 50t-48.5 122z" />
    <glyph glyph-name="uni24C5" unicode="&#x24c5;" horiz-adv-x="1699" 
d="M117 725q0 154 59.5 294.5t161 242.5t241.5 162.5t295 60.5q154 0 294.5 -60.5t242 -162.5t161.5 -242.5t60 -294.5t-60 -294.5t-161.5 -242t-242 -161.5t-294.5 -60q-155 0 -295 60t-241.5 161.5t-161 242t-59.5 294.5zM297 725q0 -122 44.5 -231t121 -188t184 -125
t227.5 -46q159 0 291.5 78t208.5 213.5t76 298.5t-76 299t-208.5 214.5t-291.5 78.5q-120 0 -227.5 -46.5t-184 -125.5t-121 -188.5t-44.5 -231.5zM860 762h78q54 0 92.5 33.5t38.5 87.5q0 37 -23.5 57.5t-66.5 20.5h-76zM963 590h-140l-57 -275h-213l174 818h311
q107 0 175.5 -68.5t68.5 -167.5q0 -127 -91 -217t-228 -90z" />
    <glyph glyph-name="filledbox" unicode="&#x25a0;" horiz-adv-x="1867" 
d="M233 0v1452h1453v-1452h-1453z" />
    <glyph glyph-name="H22073" unicode="&#x25a1;" horiz-adv-x="1867" 
d="M1686 0h-1453v1452h1453v-1452zM500 1186v-922h909v922h-909z" />
    <glyph glyph-name="uni25AF" unicode="&#x25af;" horiz-adv-x="1417" 
d="M1235 0h-1002v1452h1002v-1452zM492 1221v-983h485v983h-485z" />
    <glyph glyph-name="triagup" unicode="&#x25b2;" horiz-adv-x="1812" 
d="M793 1485l856 -1485h-1719z" />
    <glyph glyph-name="uni25B3" unicode="&#x25b3;" horiz-adv-x="1810" 
d="M-70 0l861 1485l856 -1485h-1717zM791 948l-396 -682h787z" />
    <glyph glyph-name="lozenge" unicode="&#x25ca;" horiz-adv-x="1320" 
d="M684 291l252 434l-252 436l-252 -436zM864 0h-358l-430 725l430 727h358l430 -727z" />
    <glyph glyph-name="circle" unicode="&#x25cb;" horiz-adv-x="1691" 
d="M1630 725q0 -155 -60 -295.5t-161 -241.5t-241.5 -161t-295.5 -60t-295.5 60t-242 161t-161.5 241.5t-60 295.5t60 295.5t161.5 242.5t242 162t295.5 60t295.5 -60t241.5 -162t161 -242.5t60 -295.5zM1360 725q0 99 -39 191t-104.5 158.5t-155.5 106.5t-189 40
q-133 0 -246 -67t-179 -181.5t-66 -247.5t66 -247t179 -180.5t246 -66.5q99 0 189 39.5t155.5 106t104.5 158t39 190.5z" />
    <glyph glyph-name="H18533" unicode="&#x25cf;" horiz-adv-x="1691" 
d="M113 725q0 155 59.5 295.5t161 242.5t241.5 162t295 60t295.5 -60t242.5 -162t162 -242.5t60 -295.5t-60 -295.5t-162 -241.5t-242.5 -161t-295.5 -60t-295 60t-241.5 161t-161 241.5t-59.5 295.5z" />
    <glyph glyph-name="uni262E" unicode="&#x262e;" horiz-adv-x="1689" 
d="M1628 725q0 -155 -60 -295.5t-161 -241.5t-241.5 -161t-295.5 -60q-154 0 -294 60t-241.5 161t-161.5 241.5t-60 295.5t60 295.5t161.5 242.5t241.5 162t294 60q155 0 295.5 -60t241.5 -162t161 -242.5t60 -295.5zM1362 725q0 170 -104.5 306t-262.5 179v-350l348 -268
q19 68 19 133zM375 725q0 -74 16 -129l344 264v348q-157 -46 -258.5 -180.5t-101.5 -302.5zM995 240q125 35 217 127l-217 176v-303zM520 371q95 -95 215 -129v299z" />
    <glyph glyph-name="uni2713" unicode="&#x2713;" horiz-adv-x="1794" 
d="M1898 1296l-1241 -1329l-610 674l195 182l424 -463l1044 1125z" />
    <glyph glyph-name="uni2715" unicode="&#x2715;" horiz-adv-x="1794" 
d="M367 -10l-185 186l549 551l-549 545l187 184l549 -543l540 543l187 -184l-541 -543l559 -553l-184 -186l-561 553z" />
    <glyph glyph-name="uni2780" unicode="&#x2780;" horiz-adv-x="1691" 
d="M113 725q0 154 60 294.5t161.5 242.5t241.5 162.5t294 60.5t294.5 -60.5t242.5 -162.5t162.5 -242.5t60.5 -294.5t-60.5 -294.5t-162.5 -242t-242.5 -161.5t-294.5 -60t-294 60t-241.5 161.5t-161.5 242t-60 294.5zM295 725q0 -122 44.5 -231t120.5 -188t183 -125
t227 -46q160 0 293 78t209 213.5t76 298.5t-76 299t-209 214.5t-293 78.5q-120 0 -227 -46.5t-183 -125.5t-120.5 -188.5t-44.5 -231.5zM1028 352h-235v434h-193v150q97 1 152.5 53t68.5 117h207v-754z" />
    <glyph glyph-name="uni2781" unicode="&#x2781;" horiz-adv-x="1691" 
d="M870 1485q154 0 294.5 -60.5t242.5 -162.5t162.5 -242.5t60.5 -294.5t-60.5 -294.5t-162.5 -242t-242.5 -161.5t-294.5 -60t-294 60t-241.5 161.5t-161.5 242t-60 294.5t60 294.5t161.5 242.5t241.5 162.5t294 60.5zM295 725q0 -122 44.5 -231t120.5 -188t183 -125
t227 -46q160 0 293 78t209 213.5t76 298.5t-76 299t-209 214.5t-293 78.5q-120 0 -227 -46.5t-183 -125.5t-120.5 -188.5t-44.5 -231.5zM743 735l123 70q72 41 72 92q0 25 -19 47.5t-59 22.5q-45 0 -69.5 -27t-24.5 -68q0 -20 6 -38h-205q-8 36 -8 55q0 111 80 186.5
t227 75.5q140 0 221.5 -73.5t81.5 -182.5q0 -134 -172 -233l-141 -82q-6 -3 -6 -9h326v-194h-621v26q0 110 43.5 192.5t144.5 139.5z" />
    <glyph glyph-name="uni2782" unicode="&#x2782;" horiz-adv-x="1691" 
d="M113 725q0 154 60 294.5t161.5 242.5t241.5 162.5t294 60.5t294.5 -60.5t242.5 -162.5t162.5 -242.5t60.5 -294.5t-60.5 -294.5t-162.5 -242t-242.5 -161.5t-294.5 -60t-294 60t-241.5 161.5t-161.5 242t-60 294.5zM295 725q0 -122 44.5 -231t120.5 -188t183 -125
t227 -46q160 0 293 78t209 213.5t76 298.5t-76 299t-209 214.5t-293 78.5q-120 0 -227 -46.5t-183 -125.5t-120.5 -188.5t-44.5 -231.5zM549 569l211 37q2 -40 31 -68t75 -28q43 0 70 22.5t27 55.5q0 40 -27.5 61t-67.5 21q-30 0 -59 -13l-72 152l164 96h-323v189h593v-189
l-174 -106q95 -14 148 -69t53 -146q0 -110 -90 -186t-242 -76q-136 0 -222.5 73t-94.5 174z" />
    <glyph glyph-name="uni2783" unicode="&#x2783;" horiz-adv-x="1691" 
d="M113 725q0 154 60 294.5t161.5 242.5t241.5 162.5t294 60.5t294.5 -60.5t242.5 -162.5t162.5 -242.5t60.5 -294.5t-60.5 -294.5t-162.5 -242t-242.5 -161.5t-294.5 -60t-294 60t-241.5 161.5t-161.5 242t-60 294.5zM295 725q0 -122 44.5 -231t120.5 -188t183 -125
t227 -46q160 0 293 78t209 213.5t76 298.5t-76 299t-209 214.5t-293 78.5q-120 0 -227 -46.5t-183 -125.5t-120.5 -188.5t-44.5 -231.5zM500 508v213l338 399h247v-436h121v-176h-121v-143h-231v143h-354zM854 684v182l-156 -182h156z" />
    <glyph glyph-name="uni2784" unicode="&#x2784;" horiz-adv-x="1691" 
d="M113 725q0 154 60 294.5t161.5 242.5t241.5 162.5t294 60.5t294.5 -60.5t242.5 -162.5t162.5 -242.5t60.5 -294.5t-60.5 -294.5t-162.5 -242t-242.5 -161.5t-294.5 -60t-294 60t-241.5 161.5t-161.5 242t-60 294.5zM295 725q0 -122 44.5 -231t120.5 -188t183 -125
t227 -46q160 0 293 78t209 213.5t76 298.5t-76 299t-209 214.5t-293 78.5q-120 0 -227 -46.5t-183 -125.5t-120.5 -188.5t-44.5 -231.5zM539 567l204 37q3 -42 35 -67t78 -25q42 0 68 21.5t26 60.5q0 47 -27.5 70.5t-74.5 23.5q-55 0 -96 -41l-189 53l90 387h473v-184h-338
l-24 -106q53 41 145 41q124 0 195.5 -64.5t71.5 -179.5q0 -117 -85 -194.5t-235 -77.5q-130 0 -218 70t-99 175z" />
    <glyph glyph-name="uni2785" unicode="&#x2785;" horiz-adv-x="1691" 
d="M113 725q0 154 60 294.5t161.5 242.5t241.5 162.5t294 60.5t294.5 -60.5t242.5 -162.5t162.5 -242.5t60.5 -294.5t-60.5 -294.5t-162.5 -242t-242.5 -161.5t-294.5 -60t-294 60t-241.5 161.5t-161.5 242t-60 294.5zM295 725q0 -122 44.5 -231t120.5 -188t183 -125
t227 -46q160 0 293 78t209 213.5t76 298.5t-76 299t-209 214.5t-293 78.5q-120 0 -227 -46.5t-183 -125.5t-120.5 -188.5t-44.5 -231.5zM1153 1092l-39 -179q-67 23 -135 23q-51 0 -95 -12.5t-83 -46t-56 -86.5q63 57 168 57q115 0 191 -62t76 -176q0 -122 -92.5 -200
t-239.5 -78q-144 0 -240 96.5t-96 253.5q0 202 129.5 321t325.5 119q91 0 186 -30zM754 602q0 -36 28 -61t68 -25q39 0 66.5 25t27.5 61q0 39 -27.5 63.5t-66.5 24.5q-41 0 -68.5 -24.5t-27.5 -63.5z" />
    <glyph glyph-name="uni2786" unicode="&#x2786;" horiz-adv-x="1691" 
d="M113 725q0 154 60 294.5t161.5 242.5t241.5 162.5t294 60.5t294.5 -60.5t242.5 -162.5t162.5 -242.5t60.5 -294.5t-60.5 -294.5t-162.5 -242t-242.5 -161.5t-294.5 -60t-294 60t-241.5 161.5t-161.5 242t-60 294.5zM295 725q0 -122 44.5 -231t120.5 -188t183 -125
t227 -46q160 0 293 78t209 213.5t76 298.5t-76 299t-209 214.5t-293 78.5q-120 0 -227 -46.5t-183 -125.5t-120.5 -188.5t-44.5 -231.5zM1184 1083v-188q-27 -22 -53.5 -48t-65.5 -78t-69 -110.5t-56 -145.5t-35 -183h-246q6 100 35 194.5t65 158.5t71 113.5t59 73.5l24 23
h-368v190h639z" />
    <glyph glyph-name="uni2787" unicode="&#x2787;" horiz-adv-x="1691" 
d="M113 725q0 154 60 294.5t161.5 242.5t241.5 162.5t294 60.5t294.5 -60.5t242.5 -162.5t162.5 -242.5t60.5 -294.5t-60.5 -294.5t-162.5 -242t-242.5 -161.5t-294.5 -60t-294 60t-241.5 161.5t-161.5 242t-60 294.5zM295 725q0 -122 44.5 -231t120.5 -188t183 -125
t227 -46q160 0 293 78t209 213.5t76 298.5t-76 299t-209 214.5t-293 78.5q-120 0 -227 -46.5t-183 -125.5t-120.5 -188.5t-44.5 -231.5zM872 809q39 1 60.5 23t21.5 49q0 23 -21.5 43t-60.5 20t-60 -19.5t-21 -43.5q0 -27 21 -49t60 -23zM872 514q51 0 76 24t25 56
q0 29 -25.5 51.5t-75.5 22.5t-75 -22.5t-25 -51.5q0 -32 24.5 -56t75.5 -24zM872 336q-153 0 -241 62t-88 165q0 63 43.5 112t111.5 68q-62 18 -97.5 65t-35.5 103q0 94 80.5 154.5t226.5 60.5q147 0 227.5 -60t80.5 -155q0 -57 -34.5 -103.5t-98.5 -64.5
q66 -18 110.5 -65.5t44.5 -106.5q0 -108 -86.5 -171.5t-243.5 -63.5z" />
    <glyph glyph-name="uni2788" unicode="&#x2788;" horiz-adv-x="1691" 
d="M113 725q0 154 60 294.5t161.5 242.5t241.5 162.5t294 60.5t294.5 -60.5t242.5 -162.5t162.5 -242.5t60.5 -294.5t-60.5 -294.5t-162.5 -242t-242.5 -161.5t-294.5 -60t-294 60t-241.5 161.5t-161.5 242t-60 294.5zM295 725q0 -122 44.5 -231t120.5 -188t183 -125
t227 -46q160 0 293 78t209 213.5t76 298.5t-76 299t-209 214.5t-293 78.5q-120 0 -227 -46.5t-183 -125.5t-120.5 -188.5t-44.5 -231.5zM596 365l33 178q71 -23 137 -23q83 0 147 35.5t86 114.5q-64 -58 -174 -58q-69 0 -129 26t-100.5 82t-40.5 130q0 123 90 199.5
t242 76.5q143 0 238.5 -96t95.5 -250q0 -209 -122 -327.5t-315 -118.5q-103 0 -188 31zM975 858q0 37 -27 61.5t-67 24.5t-68.5 -25t-28.5 -61q0 -39 28.5 -64.5t68.5 -25.5t67 25.5t27 64.5z" />
    <glyph glyph-name="uniE000" unicode="&#xe000;" horiz-adv-x="1484" 
d="M535 -31l-496 563h369v920h1142v-268h-874v-652h360z" />
    <glyph glyph-name="uniE002" unicode="&#xe002;" horiz-adv-x="2015" 
d="M1038 725l475 555l478 -555h-330q0 -155 -60 -295.5t-161 -241.5t-241.5 -161t-295.5 -60t-295.5 60t-242.5 161t-162 241.5t-60 295.5t60 295.5t162 242.5t242.5 162t295.5 60t297 -60l-104 -247q-87 41 -193 41q-133 0 -246 -66.5t-179 -180.5t-66 -247t66 -247
t179 -180.5t246 -66.5q99 0 189 39.5t155 106t103.5 158t38.5 190.5h-351z" />
    <glyph glyph-name="commaaccent" unicode="&#xf6c3;" horiz-adv-x="380" 
d="M-18 1122l24 107q28 -4 45 -4q50 0 92.5 18.5t59.5 59.5q-27 -9 -47 -9q-65 0 -101.5 36t-36.5 87q0 64 48.5 109t121.5 45q81 0 124.5 -47t43.5 -119q0 -136 -87 -212.5t-216 -76.5q-33 0 -71 6z" />
    <glyph glyph-name="uniFB00" unicode="&#xfb00;" horiz-adv-x="1472" 
d="M414 0h-314l162 756h-172l55 262h172l27 127q40 183 149.5 269.5t272.5 86.5q47 0 99.5 -11t82.5 -28l-53 -254l-9 4q-8 4 -31 9.5t-52 5.5q-56 0 -99.5 -27.5t-56.5 -85.5l-20 -96h372l27 127q40 183 149.5 269.5t270.5 86.5q48 0 101 -11t83 -28l-53 -254l-9 4
q-8 4 -31 9.5t-52 5.5q-57 0 -100 -27.5t-56 -85.5l-20 -96h211l-58 -262h-209l-157 -756h-314l160 756h-371z" />
    <glyph glyph-name="fi" unicode="&#xfb01;" horiz-adv-x="1345" 
d="M571 756l-157 -756h-314l162 756h-172l55 262h172l33 145q39 172 147 255t269 83q47 0 99.5 -11t82.5 -28l-53 -254l-9 4q-10 4 -34 9.5t-53 5.5q-124 0 -154 -129l-18 -80h676l-218 -1018h-311l160 756h-363zM1028 1315q0 83 58 139.5t143 56.5q71 0 116.5 -44.5
t45.5 -112.5q0 -86 -60 -141.5t-141 -55.5q-70 0 -116 45t-46 113z" />
    <glyph glyph-name="fl" unicode="&#xfb02;" horiz-adv-x="1343" 
d="M571 756l-157 -756h-314l162 756h-172l55 262h172l33 145q39 172 147 255t269 83q47 0 99.5 -11t82.5 -28l-53 -254l-9 4q-10 4 -34 9.5t-53 5.5q-125 0 -154 -131l-18 -78h360l100 465h312l-316 -1483h-311l160 756h-361z" />
    <glyph glyph-name="uniFB03" unicode="&#xfb03;" horiz-adv-x="2021" 
d="M1704 1315q0 83 57 139.5t142 56.5q73 0 118 -44.5t45 -112.5q0 -86 -59.5 -141.5t-140.5 -55.5q-70 0 -116 45t-46 113zM414 0h-314l162 756h-172l55 262h172l27 127q40 183 149.5 269.5t272.5 86.5q47 0 99.5 -11t82.5 -28l-53 -254l-9 4q-8 4 -31 9.5t-52 5.5
q-56 0 -99.5 -27.5t-56.5 -85.5l-20 -96h372l27 127q40 183 149.5 269.5t270.5 86.5q48 0 101 -11t83 -28l-53 -254l-9 4q-8 4 -31 9.5t-52 5.5q-57 0 -100 -27.5t-56 -85.5l-20 -96h667l-215 -1018h-311l162 756h-359l-157 -756h-314l160 756h-371z" />
    <glyph glyph-name="uniFB04" unicode="&#xfb04;" horiz-adv-x="2035" 
d="M414 0h-314l162 756h-172l55 262h172l27 127q40 183 149.5 269.5t272.5 86.5q47 0 99.5 -11t82.5 -28l-53 -254l-9 4q-8 4 -31 9.5t-52 5.5q-56 0 -99.5 -27.5t-56.5 -85.5l-20 -96h372l27 127q40 183 149.5 269.5t270.5 86.5q48 0 101 -11t83 -28l-53 -254l-9 4
q-8 4 -31 9.5t-52 5.5q-57 0 -100 -27.5t-56 -85.5l-20 -96h372l97 465h313l-315 -1483h-312l160 756h-371l-157 -756h-314l160 756h-371z" />
    <glyph glyph-name="uniFEFF" unicode="&#xfeff;" horiz-adv-x="0" 
 />
    <glyph glyph-name="i.latn_TRK" horiz-adv-x="571" 
d="M254 1315q0 83 58 139.5t143 56.5q71 0 116 -44.5t45 -112.5q0 -86 -59.5 -141.5t-140.5 -55.5q-70 0 -116 45t-46 113zM311 0h-311l217 1018h311z" />
    <glyph glyph-name="Ldot.latn_CAT" horiz-adv-x="1148" 
d="M971 0h-938l307 1452h324l-244 -1143h616zM694 842q0 70 56 126t133 56q65 0 109 -44t44 -106q0 -78 -55.5 -133t-130.5 -55q-66 0 -111 46t-45 110z" />
    <glyph glyph-name="ldot.latn_CAT" horiz-adv-x="878" 
d="M313 0h-311l315 1483h312zM559 676q0 77 59 136.5t142 59.5q70 0 116 -46t46 -111q0 -85 -58.5 -143t-138.5 -58q-73 0 -119.5 47t-46.5 115z" />
    <glyph glyph-name="zero.dnom" horiz-adv-x="829" 
d="M4 289q0 63 13 127.5t43.5 129t75 114.5t112.5 81t151 31q164 0 246 -86t82 -219q0 -65 -13 -130t-43.5 -130t-75 -114.5t-112.5 -80t-151 -30.5q-157 0 -242.5 84.5t-85.5 222.5zM240 293q0 -57 21 -88t75 -31q41 0 73 30t49.5 76.5t26.5 94t9 90.5q0 115 -101 115
q-40 0 -71 -30t-48 -76.5t-25.5 -93t-8.5 -87.5z" />
    <glyph glyph-name="one.dnom" horiz-adv-x="546" 
d="M334 0h-236l95 444h-191l31 150q94 3 163 51t93 109h205z" />
    <glyph glyph-name="two.dnom" horiz-adv-x="739" 
d="M205 371l135 57q86 36 86 92q0 26 -18.5 48t-55.5 22q-49 0 -73.5 -31.5t-24.5 -83.5l-203 17q0 118 86 200t225 82q142 0 218.5 -66t76.5 -167q0 -177 -227 -271l-156 -65q-3 -1 -12 -10h309l-43 -195h-581q0 127 66.5 222t191.5 149z" />
    <glyph glyph-name="three.dnom" horiz-adv-x="757" 
d="M250 326l-55 143l215 100h-342l38 187h596l-45 -215l-196 -95q70 -15 112.5 -65.5t42.5 -122.5q0 -114 -93 -194t-240 -80q-143 0 -226.5 76t-83.5 180q0 4 1 14t1 14l213 13q-2 -8 -2 -17q0 -41 27.5 -66.5t73.5 -25.5q45 0 71.5 25t26.5 63q0 35 -25.5 54.5t-62.5 19.5
q-23 0 -47 -8z" />
    <glyph glyph-name="four.dnom" horiz-adv-x="798" 
d="M-49 145l49 234l412 377h247l-90 -434h123l-39 -177h-121l-30 -145h-232l31 145h-350zM338 322l43 198l-217 -198h174z" />
    <glyph glyph-name="five.dnom" horiz-adv-x="727" 
d="M-29 250l205 20q0 -43 27 -68.5t69 -25.5q40 0 69.5 27.5t29.5 72.5q0 36 -24.5 58t-59.5 22q-51 0 -88 -37l-179 82l160 353h465l-39 -185h-311l-43 -96q40 29 115 29q108 0 168.5 -59t60.5 -158q0 -126 -91.5 -212.5t-234.5 -86.5q-140 0 -219.5 75.5t-79.5 188.5z" />
    <glyph glyph-name="six.dnom" horiz-adv-x="768" 
d="M717 717l-76 -172q-81 37 -162 37q-71 0 -133.5 -32.5t-89.5 -90.5q57 41 141 41q111 0 173.5 -60.5t62.5 -156.5q0 -132 -94 -216.5t-234 -84.5q-134 0 -218.5 88t-84.5 229q0 108 40 198t107.5 148.5t153.5 90.5t180 32q138 0 234 -51zM330 342q-39 0 -69 -26t-30 -68
q0 -35 22 -57.5t56 -22.5q43 0 72 27t29 71q0 33 -22.5 54.5t-57.5 21.5z" />
    <glyph glyph-name="seven.dnom" horiz-adv-x="710" 
d="M707 756l-39 -189q-34 -24 -66 -50t-82.5 -79t-93 -111t-86.5 -145t-72 -182h-245q27 99 75.5 193.5t96.5 158t96 115t74.5 74t31.5 24.5h-366l39 191h637z" />
    <glyph glyph-name="eight.dnom" horiz-adv-x="759" 
d="M283 522q0 -25 19.5 -43t49.5 -18q38 0 61 21t23 50q0 26 -16.5 44t-54.5 18t-60 -22.5t-22 -49.5zM205 227q0 -33 25.5 -52t62.5 -19q47 0 73.5 25.5t26.5 58.5q0 28 -20.5 48.5t-69.5 20.5q-46 0 -72 -26t-26 -56zM299 -18q-160 0 -243 59t-83 156q0 76 56 130t139 68
q-44 18 -71 62t-27 92q0 94 84.5 158.5t214.5 64.5q147 0 222 -58.5t75 -152.5q0 -63 -47 -112t-121 -70q50 -15 84 -60.5t34 -99.5q0 -104 -89.5 -170.5t-227.5 -66.5z" />
    <glyph glyph-name="nine.dnom" horiz-adv-x="768" 
d="M-47 35l74 170q68 -37 166 -37q69 0 133.5 34t87.5 97q-58 -45 -142 -45q-109 0 -172 60.5t-63 154.5q0 132 94 215.5t234 83.5q134 0 218.5 -87t84.5 -226q0 -109 -39.5 -200t-106.5 -150t-153.5 -91t-180.5 -32q-135 0 -235 53zM340 408q39 0 67.5 26.5t28.5 69.5
q0 34 -22.5 58t-55.5 24q-42 0 -70 -29t-28 -74q0 -31 22.5 -53t57.5 -22z" />
    <glyph glyph-name="space.frac" horiz-adv-x="92" 
 />
    <glyph glyph-name="space.tf" 
 />
    <glyph glyph-name="comma.tf" 
d="M281 174q0 101 71 167.5t172 66.5q103 0 164.5 -68.5t61.5 -171.5q0 -154 -74.5 -280t-200 -199t-276.5 -82l37 164q86 8 174 73t108 160q-16 -8 -51 -8q-86 0 -136 50.5t-50 127.5z" />
    <glyph glyph-name="period.tf" 
d="M500 -16q-94 0 -152.5 61.5t-58.5 147.5q0 101 76 174t184 73q93 0 150 -58.5t57 -145.5q0 -101 -75.5 -176.5t-180.5 -75.5z" />
    <glyph glyph-name="colon.tf" 
d="M492 -14q-85 0 -138 54.5t-53 133.5q0 92 69.5 159.5t166.5 67.5q84 0 137 -54.5t53 -131.5q0 -93 -69 -161t-166 -68zM627 621q-85 0 -138 54.5t-53 133.5q0 93 69 160t167 67q84 0 136 -54.5t52 -131.5q0 -93 -68 -161t-165 -68z" />
    <glyph glyph-name="semicolon.tf" 
d="M295 154q0 94 64.5 153.5t158.5 59.5q93 0 148 -62.5t55 -157.5q0 -210 -144.5 -353.5t-355.5 -155.5l33 149q78 7 158.5 66.5t99.5 146.5q-16 -8 -49 -8q-76 0 -122 46.5t-46 115.5zM625 618q-87 0 -140 56t-53 135q0 91 70 159t168 68q86 0 137 -54t51 -134
q0 -93 -68 -161.5t-165 -68.5z" />
    <glyph glyph-name="section.tf" 
d="M18 8l301 19q-4 -27 -4 -47q0 -66 38.5 -101t107.5 -35q55 0 95 36.5t40 90.5q0 60 -59 101l-179 123q-106 73 -163.5 148.5t-57.5 176.5q0 115 59.5 188.5t151.5 112.5q-90 97 -90 236q0 95 43 177t111.5 135.5t153 83.5t169.5 30q195 0 306.5 -102.5t111.5 -258.5
q0 -35 -4 -67l-297 -19q4 40 4 51q0 65 -40.5 98.5t-104.5 33.5q-55 0 -95.5 -37t-40.5 -90q0 -59 54 -97l184 -123q103 -71 161 -148t58 -177q0 -117 -59.5 -191.5t-149.5 -111.5q86 -102 86 -238q0 -95 -42 -177t-110 -135.5t-152 -83.5t-169 -30q-196 0 -309 102.5
t-113 258.5q0 34 4 67zM692 569l-188 131q-72 -46 -72 -118q0 -53 47 -86l189 -131q69 41 69 120q0 53 -45 84z" />
    <glyph glyph-name="florin.tf" 
d="M303 61l141 699h-188v258h242l32 166q22 111 89 189t148.5 111.5t170.5 33.5q71 0 107.5 -7t89.5 -26v-266q-66 16 -134 16q-21 0 -43 -5.5t-46.5 -19.5t-44 -43.5t-27.5 -70.5l-17 -78h226v-258h-279l-160 -787q-18 -85 -59.5 -151t-97.5 -104.5t-118.5 -58
t-129.5 -19.5q-71 0 -109.5 6.5t-95.5 23.5v269q73 -17 143 -17q29 0 57.5 9t59.5 42.5t43 87.5z" />
    <glyph glyph-name="uni2007.tf" 
 />
    <glyph glyph-name="uni2008.tf" 
 />
    <glyph glyph-name="parenleft.case" horiz-adv-x="755" 
d="M90 502q0 385 178.5 687.5t511.5 508.5l142 -187q-106 -76 -186 -146t-156.5 -162.5t-125.5 -191t-78.5 -226t-29.5 -273.5q0 -170 59 -341t156 -308l-203 -144q-116 151 -192 356t-76 427z" />
    <glyph glyph-name="parenright.case" horiz-adv-x="757" 
d="M711 913q0 -383 -179.5 -685t-511.5 -509l-143 187q107 77 186 147t156.5 162.5t126 190t78 225t29.5 272.5q0 171 -58.5 343t-154.5 308l202 144q116 -152 192.5 -357t76.5 -428z" />
    <glyph glyph-name="hyphen.case" horiz-adv-x="862" 
d="M729 580h-612l59 280h615z" />
    <glyph glyph-name="bracketleft.case" horiz-adv-x="714" 
d="M467 -242h-510l408 1930h512l-50 -232h-254l-309 -1460h252z" />
    <glyph glyph-name="bracketright.case" horiz-adv-x="714" 
d="M399 -242h-508l50 238h249l312 1460h-254l49 232h512z" />
    <glyph glyph-name="braceleft.case" horiz-adv-x="800" 
d="M41 600l53 254q198 0 238 180l53 250q45 214 168 309t317 95h93l-50 -232h-77q-158 0 -193 -168l-63 -301q-23 -103 -88 -174t-168 -90q72 -23 109.5 -78.5t37.5 -130.5q0 -34 -6 -68l-57 -274q-7 -31 -7 -51q0 -66 39 -95.5t99 -29.5h63l-49 -232h-74q-155 0 -246.5 84
t-91.5 234q0 52 15 117l47 221q6 27 6 49q0 67 -45 99t-123 32z" />
    <glyph glyph-name="braceright.case" horiz-adv-x="800" 
d="M811 852l-53 -254q-200 0 -240 -180l-53 -250q-45 -214 -167.5 -309t-317.5 -95h-93l52 232h75q156 0 193 168l63 301q21 103 86 174t170 90q-72 23 -109.5 77.5t-37.5 129.5q0 37 8 70l55 274q7 35 7 53q0 64 -39 93.5t-99 29.5h-63l49 232h74q154 0 246 -85t92 -235
q0 -48 -13 -115l-47 -221q-6 -27 -6 -51q0 -129 168 -129z" />
    <glyph glyph-name="exclamdown.case" horiz-adv-x="591" 
d="M498 997l-140 -997h-374l284 997h230zM610 1313q0 -80 -57.5 -137.5t-136.5 -57.5q-71 0 -114.5 46t-43.5 112q0 80 58.5 137t132.5 57q71 0 116 -45t45 -112z" />
    <glyph glyph-name="guillemotleft.case" horiz-adv-x="1204" 
d="M569 311h-276l-205 408l367 401h301l-387 -418zM1047 311h-277l-205 408l367 401h301l-387 -418z" />
    <glyph glyph-name="uni00AD.case" horiz-adv-x="862" 
d="M729 580h-612l59 280h615z" />
    <glyph glyph-name="guillemotright.case" horiz-adv-x="1198" 
d="M203 1120h272l209 -407l-367 -402h-303l387 418zM674 1120h272l209 -407l-367 -402h-303l387 418z" />
    <glyph glyph-name="questiondown.case" horiz-adv-x="1093" 
d="M537 1001h237q-1 -56 -7 -97.5t-25.5 -97.5t-64.5 -104t-114 -86l-119 -65q-52 -29 -78 -74.5t-26 -93.5q0 -57 41 -98t121 -41q97 0 151 68.5t54 166.5l282 -28q-1 -133 -64 -242.5t-179 -174.5t-263 -65q-114 0 -204.5 32.5t-145.5 86t-84 118.5t-29 134q0 268 279 428
l88 51q75 42 108 80t42 102zM860 1313q0 -79 -58 -137t-136 -58q-71 0 -115.5 46.5t-44.5 111.5q0 80 58.5 137t133.5 57q71 0 116.5 -45t45.5 -112z" />
    <glyph glyph-name="endash.case" horiz-adv-x="1318" 
d="M1182 586h-1059l55 270h1061z" />
    <glyph glyph-name="emdash.case" horiz-adv-x="2170" 
d="M2034 586h-1911l55 270h1913z" />
    <glyph glyph-name="guilsinglleft.case" horiz-adv-x="727" 
d="M569 311h-276l-205 408l367 401h301l-387 -418z" />
    <glyph glyph-name="guilsinglright.case" horiz-adv-x="727" 
d="M203 1120h272l209 -407l-367 -402h-303l387 418z" />
    <glyph glyph-name="G.ss01" horiz-adv-x="1564" 
d="M897 1483q118 0 219 -27.5t170.5 -72.5t121.5 -105t80 -121t38 -125l-318 -98q-9 45 -31 84.5t-60 75t-100.5 56.5t-142.5 21q-64 0 -126.5 -21t-118.5 -65t-98.5 -105t-67.5 -146.5t-25 -184.5q0 -163 95 -268t262 -105q75 0 138.5 20.5t105 55t68.5 71.5t40 77h-463
l59 276h775q0 -167 -49 -313t-141 -257t-236 -175t-324 -64q-187 0 -338.5 87t-237.5 239t-86 338q0 156 43 293t118 238t175 174t216 109.5t239 37.5z" />
    <glyph glyph-name="Gcircumflex.ss01" horiz-adv-x="1564" 
d="M801 1554h-285l307 271h299l195 -271h-277l-90 134zM897 1483q118 0 219 -27.5t170.5 -72.5t121.5 -105t80 -121t38 -125l-318 -98q-9 45 -31 84.5t-60 75t-100.5 56.5t-142.5 21q-64 0 -126.5 -21t-118.5 -65t-98.5 -105t-67.5 -146.5t-25 -184.5q0 -163 95 -268
t262 -105q75 0 138.5 20.5t105 55t68.5 71.5t40 77h-463l59 276h775q0 -167 -49 -313t-141 -257t-236 -175t-324 -64q-187 0 -338.5 87t-237.5 239t-86 338q0 156 43 293t118 238t175 174t216 109.5t239 37.5z" />
    <glyph glyph-name="Gbreve.ss01" horiz-adv-x="1564" 
d="M975 1542q-133 0 -218 63.5t-85 180.5q0 21 4 39h213q-2 -10 -2 -19q0 -38 26 -60t74 -22q51 0 86.5 29t46.5 72h238q-28 -112 -129.5 -197.5t-253.5 -85.5zM897 1483q118 0 219 -27.5t170.5 -72.5t121.5 -105t80 -121t38 -125l-318 -98q-9 45 -31 84.5t-60 75
t-100.5 56.5t-142.5 21q-64 0 -126.5 -21t-118.5 -65t-98.5 -105t-67.5 -146.5t-25 -184.5q0 -163 95 -268t262 -105q75 0 138.5 20.5t105 55t68.5 71.5t40 77h-463l59 276h775q0 -167 -49 -313t-141 -257t-236 -175t-324 -64q-187 0 -338.5 87t-237.5 239t-86 338
q0 156 43 293t118 238t175 174t216 109.5t239 37.5z" />
    <glyph glyph-name="Gdotaccent.ss01" horiz-adv-x="1564" 
d="M788 1718q0 74 60 133.5t141 59.5q70 0 117 -46.5t47 -111.5q0 -85 -59 -143t-140 -58q-71 0 -118.5 48.5t-47.5 117.5zM897 1483q118 0 219 -27.5t170.5 -72.5t121.5 -105t80 -121t38 -125l-318 -98q-9 45 -31 84.5t-60 75t-100.5 56.5t-142.5 21q-64 0 -126.5 -21
t-118.5 -65t-98.5 -105t-67.5 -146.5t-25 -184.5q0 -163 95 -268t262 -105q75 0 138.5 20.5t105 55t68.5 71.5t40 77h-463l59 276h775q0 -167 -49 -313t-141 -257t-236 -175t-324 -64q-187 0 -338.5 87t-237.5 239t-86 338q0 156 43 293t118 238t175 174t216 109.5t239 37.5
z" />
    <glyph glyph-name="Gcommaaccent.ss01" horiz-adv-x="1564" 
d="M569 -246q0 64 49.5 109t120.5 45q81 0 125.5 -48t44.5 -120q0 -135 -88.5 -212t-214.5 -77q-31 0 -71 8l22 105q14 -2 43 -2q121 0 156 78q-22 -9 -49 -9q-65 0 -101.5 36t-36.5 87zM897 1483q118 0 219 -27.5t170.5 -72.5t121.5 -105t80 -121t38 -125l-318 -98
q-9 45 -31 84.5t-60 75t-100.5 56.5t-142.5 21q-64 0 -126.5 -21t-118.5 -65t-98.5 -105t-67.5 -146.5t-25 -184.5q0 -163 95 -268t262 -105q75 0 138.5 20.5t105 55t68.5 71.5t40 77h-463l59 276h775q0 -167 -49 -313t-141 -257t-236 -175t-324 -64q-187 0 -338.5 87
t-237.5 239t-86 338q0 156 43 293t118 238t175 174t216 109.5t239 37.5z" />
    <glyph glyph-name="r.ss03" horiz-adv-x="878" 
d="M512 922l-10 -48q21 70 81.5 116t137.5 46q82 0 133 -52.5t51 -127.5q0 -90 -66.5 -156.5t-160.5 -66.5q-82 0 -133 53t-51 129v27l-179 -842h-311l182 866q19 89 19 152h315q0 -55 -8 -96z" />
    <glyph glyph-name="racute.ss03" horiz-adv-x="880" 
d="M973 1448l-357 -309h-264l250 309h371zM512 922l-10 -48q21 70 81.5 116t137.5 46q82 0 133 -52.5t51 -127.5q0 -90 -66.5 -156.5t-160.5 -66.5q-82 0 -133 53t-51 129v27l-179 -842h-311l182 866q19 89 19 152h315q0 -55 -8 -96z" />
    <glyph glyph-name="rcommaaccent.ss03" horiz-adv-x="880" 
d="M-55 -246q0 64 49.5 109t120.5 45q81 0 125.5 -48t44.5 -120q0 -135 -88.5 -212t-214.5 -77q-32 0 -72 8l22 105q14 -2 43 -2q121 0 156 78q-23 -9 -49 -9q-65 0 -101 36t-36 87zM512 922l-10 -48q21 70 81.5 116t137.5 46q82 0 133 -52.5t51 -127.5q0 -90 -66.5 -156.5
t-160.5 -66.5q-82 0 -133 53t-51 129v27l-179 -842h-311l182 866q19 89 19 152h315q0 -55 -8 -96z" />
    <glyph glyph-name="rcaron.ss03" horiz-adv-x="880" 
d="M727 1448h258l-301 -309h-291l-170 309h230l112 -148zM512 922l-10 -48q21 70 81.5 116t137.5 46q82 0 133 -52.5t51 -127.5q0 -90 -66.5 -156.5t-160.5 -66.5q-82 0 -133 53t-51 129v27l-179 -842h-311l182 866q19 89 19 152h315q0 -55 -8 -96z" />
    <glyph glyph-name="ampersand.ss04" horiz-adv-x="1394" 
d="M1321 461h-125q-39 -216 -203 -354t-403 -138q-134 0 -240 35t-171.5 94.5t-99.5 134.5t-34 160q0 77 24 144t62.5 114t88.5 83t101.5 56t102.5 27q-76 32 -123 105.5t-47 160.5q0 91 42 168.5t110.5 127.5t152.5 78t170 28q98 0 178 -22t133 -58.5t89 -86t51.5 -103
t15.5 -111.5q0 -34 -6 -76h-305q6 30 6 45q0 69 -38 111.5t-124 42.5q-65 0 -119.5 -45t-54.5 -117q0 -69 45 -104t111 -35l-56 -260h-16q-34 0 -68 -6.5t-70.5 -23.5t-63.5 -43t-44.5 -68.5t-17.5 -96.5q0 -77 60 -133.5t171 -56.5q101 0 177.5 59.5t97.5 163.5h-160
l53 258h600z" />
    <glyph glyph-name="registered.ss06" horiz-adv-x="952" 
d="M178 1077q0 163 115 278t278 115t278.5 -115t115.5 -278t-115.5 -278t-278.5 -115t-278 115t-115 278zM289 1077q0 -120 81.5 -202t200.5 -82t200 82t81 202t-81.5 202.5t-199.5 82.5q-119 0 -200.5 -82.5t-81.5 -202.5zM588 883l-27 133h-24l-29 -133h-117l86 401h168
q54 0 87.5 -32t33.5 -83q0 -47 -27 -84.5t-71 -52.5l41 -149h-121zM557 1112h33q55 0 55 45q0 31 -37 31h-33z" />
    <glyph glyph-name="zero.numr" horiz-adv-x="825" 
d="M152 987q0 63 13 127.5t43.5 129t75 114.5t112.5 81t151 31q164 0 245.5 -86t81.5 -219q0 -65 -13 -130t-43.5 -130t-75 -114.5t-112.5 -80t-151 -30.5q-157 0 -242 84.5t-85 222.5zM387 991q0 -57 21 -88t75 -31q41 0 73 30t49.5 76.5t26.5 94t9 90.5q0 115 -100 115
q-40 0 -71.5 -30t-48.5 -76.5t-25.5 -93t-8.5 -87.5z" />
    <glyph glyph-name="one.numr" horiz-adv-x="544" 
d="M481 698h-235l94 445h-190l30 149q94 3 163 51t93 109h205z" />
    <glyph glyph-name="two.numr" horiz-adv-x="735" 
d="M350 1067l135 57q86 36 86 93q0 26 -18 47.5t-55 21.5q-49 0 -74 -31.5t-25 -83.5l-202 17q0 118 86 200t225 82q142 0 218.5 -66t76.5 -167q0 -176 -228 -270l-155 -66q-3 -1 -12 -10h309l-43 -195h-582q0 127 66.5 222t191.5 149z" />
    <glyph glyph-name="three.numr" horiz-adv-x="753" 
d="M395 1022l-55 143l215 101h-342l39 186h596l-45 -215l-197 -94q70 -15 113 -66t43 -123q0 -113 -93.5 -193.5t-240.5 -80.5q-143 0 -226 76t-83 180q0 4 1 14.5t1 14.5l213 12q-2 -8 -2 -16q0 -41 27 -67t73 -26q45 0 71.5 25t26.5 63q0 35 -25.5 54.5t-62.5 19.5
q-23 0 -47 -8z" />
    <glyph glyph-name="four.numr" horiz-adv-x="796" 
d="M98 842l49 233l412 377h248l-90 -434h123l-39 -176h-121l-31 -146h-231l31 146h-351zM485 1018l43 199l-217 -199h174z" />
    <glyph glyph-name="five.numr" horiz-adv-x="720" 
d="M117 948l205 21q0 -43 27 -69t69 -26q40 0 69 28t29 73q0 36 -24.5 58t-59.5 22q-51 0 -88 -37l-178 82l160 352h465l-39 -184h-312l-43 -97q40 29 115 29q108 0 168.5 -59t60.5 -158q0 -126 -91 -212.5t-234 -86.5q-140 0 -219.5 75.5t-79.5 188.5z" />
    <glyph glyph-name="six.numr" horiz-adv-x="765" 
d="M864 1411l-76 -172q-81 37 -161 37q-71 0 -134 -32.5t-90 -90.5q57 41 142 41q111 0 173 -60t62 -157q0 -132 -93.5 -216.5t-233.5 -84.5q-134 0 -218.5 88t-84.5 229q0 108 40 198t107.5 148.5t153.5 90.5t180 32q137 0 233 -51zM477 1036q-39 0 -68.5 -26t-29.5 -68
q0 -35 22 -57.5t56 -22.5q42 0 71 27t29 72q0 32 -22.5 53.5t-57.5 21.5z" />
    <glyph glyph-name="seven.numr" horiz-adv-x="708" 
d="M854 1452l-39 -188q-34 -24 -66 -50.5t-82.5 -79t-92.5 -111t-86 -145.5t-72 -182h-246q27 99 75.5 194t97 158.5t96.5 114.5t74.5 74t31.5 25h-367l39 190h637z" />
    <glyph glyph-name="eight.numr" horiz-adv-x="757" 
d="M430 1219q0 -25 20 -43.5t50 -18.5q38 0 61 21.5t23 50.5q0 25 -17 43t-55 18t-60 -22.5t-22 -48.5zM352 924q0 -33 25.5 -52.5t62.5 -19.5q47 0 74 25.5t27 58.5q0 28 -20.5 49t-69.5 21q-46 0 -72.5 -26t-26.5 -56zM446 678q-160 0 -242.5 59t-82.5 156q0 76 56 130.5
t138 68.5q-44 18 -71 61.5t-27 91.5q0 94 84.5 158.5t214.5 64.5q147 0 222 -58.5t75 -152.5q0 -63 -47 -112t-121 -70q50 -15 84.5 -61t34.5 -99q0 -104 -90 -170.5t-228 -66.5z" />
    <glyph glyph-name="nine.numr" horiz-adv-x="765" 
d="M100 731l74 170q68 -37 166 -37q69 0 133.5 34t87.5 97q-58 -45 -141 -45q-110 0 -173 60.5t-63 154.5q0 132 94 215.5t234 83.5q134 0 218.5 -87t84.5 -226q0 -109 -39.5 -200t-106.5 -150t-153 -91t-180 -32q-136 0 -236 53zM487 1104q39 0 68 27t29 69q0 34 -22.5 58
t-55.5 24q-42 0 -70 -28.5t-28 -73.5q0 -32 22 -54t57 -22z" />
    <glyph glyph-name="a.ordn" horiz-adv-x="878" 
d="M543 1247q-67 0 -106.5 -57t-39.5 -131q0 -63 33 -96t82 -33q55 0 98 48.5t43 143.5q0 63 -30.5 94t-79.5 31zM731 1452h234l-121 -561q-19 -87 -19 -158h-215q0 49 4 84q-19 -37 -62 -65.5t-110 -28.5q-126 0 -204 92t-78 232q0 186 104.5 303.5t255.5 117.5
q49 0 88 -10.5t60.5 -27t32 -28.5t14.5 -22z" />
    <glyph glyph-name="b.ordn" horiz-adv-x="901" 
d="M352 733h-231l217 1039h237l-77 -375q23 28 70.5 47.5t101.5 19.5q134 0 208 -83t74 -212q0 -198 -107.5 -325t-264.5 -127q-81 0 -136.5 33t-72.5 69zM590 1253q-71 0 -116.5 -58.5t-45.5 -129.5q0 -65 36.5 -98t88.5 -33q58 0 107 49.5t49 140.5q0 65 -33 97t-86 32z
" />
    <glyph glyph-name="c.ordn" horiz-adv-x="815" 
d="M897 1221l-215 -58q-7 37 -38.5 62.5t-84.5 25.5q-63 0 -113.5 -50t-50.5 -140q0 -60 36 -93.5t93 -33.5q44 0 77.5 22t51.5 56l195 -70q-37 -97 -126.5 -164t-215.5 -67q-17 0 -49 4q-131 15 -215 109.5t-84 230.5q0 125 60.5 223t154.5 147.5t202 49.5q140 0 223.5 -74
t98.5 -180z" />
    <glyph glyph-name="d.ordn" horiz-adv-x="878" 
d="M1032 1772l-192 -906q-11 -54 -11 -118v-15h-217q-2 12 -2 27q0 30 6 57q-55 -94 -172 -94q-127 0 -204.5 92.5t-77.5 231.5q0 187 104 304t254 117q81 0 126 -23.5t63 -51.5l82 379h241zM545 1249q-67 0 -106.5 -57t-39.5 -133q0 -61 33 -94t82 -33q55 0 98 48t43 142
q0 63 -31 95t-79 32z" />
    <glyph glyph-name="e.ordn" horiz-adv-x="811" 
d="M395 1182h256v8q0 36 -28.5 66t-85.5 30q-53 0 -91.5 -28.5t-50.5 -75.5zM848 1030h-473q2 -51 37.5 -86t103.5 -35q39 0 70.5 19t44.5 51l188 -80q-37 -79 -118 -132.5t-207 -53.5q-139 0 -237.5 96t-98.5 240q0 95 32.5 176.5t86.5 135t121.5 84t138.5 30.5
q152 0 241.5 -88t89.5 -226q0 -70 -20 -131z" />
    <glyph glyph-name="f.ordn" horiz-adv-x="593" 
d="M694 1249h-143l-109 -518h-241l110 518h-121l43 203h123l19 88q28 120 105.5 182t197.5 62q85 0 139 -29l-41 -194l-7 3q-7 2 -25 5.5t-39 3.5q-42 0 -69 -23t-36 -63l-6 -35h143z" />
    <glyph glyph-name="g.ordn" horiz-adv-x="884" 
d="M659 1137q0 55 -31.5 84.5t-76.5 29.5q-64 0 -106 -45t-42 -114q0 -53 32 -83t83 -30q55 0 98 44t43 114zM76 721l209 37q0 -47 36 -79t97 -32q136 0 174 148l10 41q-58 -58 -149 -58q-131 0 -211 83t-80 212q0 164 103 278.5t255 114.5q85 0 136.5 -27t66.5 -59l16 72
h232l-140 -661q-33 -158 -140.5 -255.5t-264.5 -97.5q-89 0 -158.5 25.5t-110 68t-61 90.5t-20.5 99z" />
    <glyph glyph-name="h.ordn" horiz-adv-x="862" 
d="M805 733h-242l86 400q2 10 2 30q0 41 -23.5 66.5t-66.5 25.5q-42 0 -69.5 -28t-38.5 -78l-91 -416h-241l219 1036h242l-78 -374q29 36 77 55.5t95 19.5q113 0 170 -66.5t57 -172.5q0 -44 -8 -80z" />
    <glyph glyph-name="i.ordn" horiz-adv-x="425" 
d="M297 1645q0 62 42.5 104.5t106.5 42.5q55 0 89 -33t34 -84q0 -65 -44.5 -106t-106.5 -41q-52 0 -86.5 33.5t-34.5 83.5zM360 731h-241l153 721h240z" />
    <glyph glyph-name="j.ordn" horiz-adv-x="425" 
d="M117 717l155 735h240l-166 -786q-24 -114 -93.5 -171t-170.5 -57q-96 0 -156 43l39 187l8 -4q8 -3 26.5 -8t39.5 -5q67 0 78 66zM299 1645q0 62 41.5 104.5t105.5 42.5q55 0 89 -33t34 -84q0 -65 -44 -106t-105 -41q-53 0 -87 33.5t-34 83.5z" />
    <glyph glyph-name="k.ordn" horiz-adv-x="829" 
d="M584 731l-113 242l-74 -66l-37 -176h-239l219 1038h242l-113 -524l225 207h322l-361 -315l199 -406h-270z" />
    <glyph glyph-name="l.ordn" horiz-adv-x="430" 
d="M362 731h-241l219 1038h244z" />
    <glyph glyph-name="m.ordn" horiz-adv-x="1310" 
d="M809 731h-240l84 399q2 10 2 31q0 42 -24.5 68t-67.5 26q-42 0 -70.5 -29.5t-39.5 -78.5l-91 -416h-239l125 602q12 61 12 105v14h234v-8q0 -27 -2 -60q29 42 81.5 64t104.5 22q135 0 199 -102q47 58 112.5 80t120.5 22q110 0 176 -71t66 -178q0 -16 -9 -72l-90 -418
h-239l86 399q2 10 2 29q0 42 -24.5 69t-67.5 27t-72.5 -29.5t-40.5 -80.5z" />
    <glyph glyph-name="n.ordn" horiz-adv-x="864" 
d="M807 731h-242l86 402q2 8 2 26q0 42 -23.5 69t-66.5 27q-84 0 -108 -106l-93 -418h-239l125 602q12 61 12 105v14h236v-18q0 -36 -2 -50q29 41 80.5 63.5t101.5 22.5q113 0 171 -66.5t58 -172.5q0 -44 -8 -80z" />
    <glyph glyph-name="o.ordn" horiz-adv-x="856" 
d="M551 1251q-72 0 -114 -58.5t-42 -131.5q0 -61 33 -95t84 -34q57 0 106.5 49t49.5 141q0 63 -31.5 95t-85.5 34zM905 1135q0 -174 -115.5 -299t-293.5 -125q-148 0 -243 96t-95 242q0 189 120.5 306.5t290.5 117.5q149 0 242.5 -96t93.5 -242z" />
    <glyph glyph-name="p.ordn" horiz-adv-x="903" 
d="M590 1255q-71 0 -114.5 -60t-43.5 -132q0 -64 35 -97.5t86 -33.5q58 0 108 50.5t50 143.5q0 61 -35 95t-86 34zM492 1384q25 32 73.5 55t104.5 23q133 0 208.5 -82t75.5 -213q0 -197 -109 -324.5t-265 -127.5q-78 0 -130 25t-75 57l-72 -338h-240l185 874q12 61 12 105
v14h234v-22q0 -32 -2 -46z" />
    <glyph glyph-name="q.ordn" horiz-adv-x="876" 
d="M965 1452l-213 -993h-242l68 311q-56 -49 -142 -49q-124 1 -200 93t-76 230q0 188 104 305t256 117q50 0 89 -10.5t60 -26.5t31.5 -28.5t14.5 -22.5l16 74h234zM543 1247q-67 0 -105.5 -57t-38.5 -133q0 -62 32 -94.5t81 -32.5q55 0 98 48t43 144q0 62 -30.5 93.5
t-79.5 31.5z" />
    <glyph glyph-name="r.ordn" horiz-adv-x="598" 
d="M690 1208q-49 17 -84 17q-63 0 -109 -35t-67 -133l-70 -326h-239l127 602q12 61 12 105v14h234v-18q0 -36 -2 -52q54 76 157 76q54 0 90 -18z" />
    <glyph glyph-name="s.ordn" horiz-adv-x="694" 
d="M131 950l201 31v-20q0 -37 20 -58.5t56 -21.5q33 0 50 14t17 37q0 37 -45 55l-59 25q-95 39 -134.5 92.5t-39.5 124.5q0 101 80.5 172.5t203.5 71.5q135 0 207 -61.5t72 -170.5l-205 -20v12q0 30 -16.5 51t-55.5 21q-25 0 -43 -14.5t-18 -37.5q0 -30 33 -45l88 -34
q168 -69 168 -220q0 -99 -79.5 -171t-211.5 -72q-72 0 -127 17.5t-85 42t-48 57.5t-23.5 59t-5.5 51v12z" />
    <glyph glyph-name="t.ordn" horiz-adv-x="600" 
d="M528 1241l-49 -233q-2 -8 -2 -25q0 -59 72 -59q20 0 53 8l-41 -189q-44 -22 -106 -22q-105 0 -165.5 56t-60.5 149q0 23 7 63l53 252h-123l43 211h39q56 0 87.5 29.5t45.5 87.5l20 86h215l-45 -203h140l-47 -211h-136z" />
    <glyph glyph-name="u.ordn" horiz-adv-x="864" 
d="M264 1452h242l-86 -401q-2 -8 -2 -27q0 -42 23.5 -69t66.5 -27q84 0 108 106l93 418h239l-125 -602q-12 -61 -12 -105v-14h-236v19q0 28 3 49q-29 -41 -81 -63.5t-102 -22.5q-113 0 -171 66.5t-58 172.5q0 44 8 80z" />
    <glyph glyph-name="v.ordn" horiz-adv-x="780" 
d="M954 1452l-409 -721h-242l-127 721h250l49 -420l213 420h266z" />
    <glyph glyph-name="w.ordn" horiz-adv-x="1245" 
d="M672 1452h256l43 -395l178 395h244l-361 -721h-233l-54 445l-225 -445h-246l-67 721h237l27 -393z" />
    <glyph glyph-name="x.ordn" horiz-adv-x="798" 
d="M471 905l-149 -174h-281l332 371l-189 350h267l81 -172l146 172h287l-334 -369l190 -352h-266z" />
    <glyph glyph-name="y.ordn" horiz-adv-x="784" 
d="M350 459h-262l229 379l-141 614h252l68 -362l209 362h264z" />
    <glyph glyph-name="z.ordn" horiz-adv-x="747" 
d="M705 731h-609l43 213l357 305h-281l43 203h596l-41 -197l-379 -319h316z" />
    <glyph glyph-name="numbersign.tf" 
d="M1202 1452l-119 -373h121v-217h-190l-96 -303h182v-219h-252l-109 -340h-235l108 340h-206l-109 -340h-236l109 340h-127v219h197l96 303h-191v217h261l118 373h236l-119 -373h207l119 373h235zM571 862l-96 -303h207l96 303h-207z" />
    <glyph glyph-name="dollar.tf" 
d="M569 268q89 0 139 39.5t50 106.5q0 46 -22 79t-79 56l-163 65q-138 57 -206.5 156.5t-68.5 228.5q0 185 130 308t321 141l47 238h258l-55 -263q79 -26 138 -72.5t90 -101.5t45.5 -106.5t14.5 -98.5l-288 -47q0 16 -3 34.5t-16 47t-33.5 50t-61 37.5t-93.5 16
q-82 0 -131.5 -47t-49.5 -109q0 -90 99 -131l147 -64q159 -67 231 -164.5t72 -228.5q0 -80 -31.5 -155t-89 -136t-147 -100.5t-197.5 -46.5l-49 -238h-258l56 267q-85 27 -150 75.5t-101.5 107t-54.5 118t-18 116.5q0 30 4 54l287 49q-4 -20 -4 -45q0 -98 60.5 -167
t180.5 -69z" />
    <glyph glyph-name="percent.tf" 
d="M508 1202q0 40 -24 68t-64 28q-46 0 -80.5 -35.5t-34.5 -95.5q0 -41 23.5 -68.5t62.5 -27.5q46 0 81.5 35t35.5 96zM434 1473q113 0 187.5 -76.5t74.5 -186.5q0 -136 -96 -225.5t-223 -89.5q-112 0 -186 75.5t-74 186.5q0 135 95.5 225.5t221.5 90.5zM1165 1159l-43 -207
l-1063 -671l43 206zM954 293q0 40 -23.5 68t-62.5 28q-46 0 -81 -35.5t-35 -95.5q0 -41 24 -68.5t64 -27.5q46 0 80 35t34 96zM1143 301q0 -136 -96.5 -225.5t-221.5 -89.5q-113 0 -187.5 75.5t-74.5 186.5q0 135 96.5 225t223.5 90q111 0 185.5 -76t74.5 -186z" />
    <glyph glyph-name="plus.tf" 
d="M760 608v-399h-262v399h-389v254h389v400h262v-400h389v-254h-389z" />
    <glyph glyph-name="zero.tf" 
d="M528 -31q-106 0 -192.5 31t-143.5 82.5t-96 122.5t-56 148t-17 161q0 78 11 164t36.5 181t63 183.5t95 169t127 140.5t164.5 95.5t203 35.5q105 0 191 -30.5t144 -81.5t97 -121t56.5 -147t17.5 -161q0 -93 -16.5 -196t-49.5 -214t-90 -210.5t-131.5 -179t-181.5 -126.5
t-232 -47zM344 532q0 -276 207 -276q91 0 163 69.5t111.5 175.5t59.5 214.5t20 204.5q0 63 -10 110.5t-32.5 86t-63.5 59t-99 20.5q-76 0 -138 -46t-101.5 -117.5t-66.5 -162.5t-38.5 -176t-11.5 -162z" />
    <glyph glyph-name="one.tf" 
d="M952 1452l-250 -1184h332l-57 -268h-959l58 268h305l149 711h-254l46 213q250 5 352 260h278z" />
    <glyph glyph-name="two.tf" 
d="M422 655l258 117q112 50 161.5 112t49.5 148q0 69 -47.5 117.5t-132.5 48.5q-116 0 -172 -74.5t-56 -205.5l-303 30q5 238 155 386.5t400 148.5q112 0 203.5 -37.5t149.5 -100.5t89 -141.5t31 -163.5q0 -172 -93 -289t-281 -204l-297 -137q-114 -54 -150 -136h662
l-64 -274h-1034q23 228 134.5 390.5t336.5 264.5z" />
    <glyph glyph-name="three.tf" 
d="M477 666l-112 227l438 287h-602l51 272h1001l-59 -309l-410 -264q139 -17 227.5 -122t88.5 -259q0 -102 -41.5 -197.5t-114 -169t-179.5 -118t-230 -44.5q-126 0 -227.5 40t-164.5 107t-96 151t-33 177q0 21 4 35l318 37q-2 -16 -2 -41q0 -101 54.5 -164t148.5 -63
q105 0 169 68.5t64 170.5q0 97 -53.5 147t-143.5 50q-59 0 -96 -18z" />
    <glyph glyph-name="four.tf" 
d="M-61 307l71 336l746 809h389l-187 -870h240l-55 -275h-242l-63 -307h-322l62 307h-639zM637 582l113 522l-461 -522h348z" />
    <glyph glyph-name="five.tf" 
d="M27 446l303 56q-2 -12 -2 -29q0 -95 52 -161t155 -66q102 0 172.5 67.5t70.5 188.5q0 94 -55.5 148.5t-147.5 54.5q-117 0 -192 -72l-258 127l297 692h803l-62 -274h-569l-125 -291q30 32 87.5 49.5t111.5 17.5q208 0 322 -112t114 -305q0 -157 -71 -285.5t-204.5 -205.5
t-304.5 -77q-115 0 -210 38.5t-157 104.5t-96 152t-34 182z" />
    <glyph glyph-name="six.tf" 
d="M1303 1372l-132 -242q-114 72 -264 72q-171 0 -301.5 -96.5t-183.5 -274.5q50 63 131 98.5t166 35.5q196 0 308 -115.5t112 -306.5q0 -167 -77.5 -299t-209.5 -203.5t-293 -71.5q-217 0 -363.5 151t-146.5 396q0 198 60.5 374t170 307.5t273.5 208.5t360 77
q123 0 224.5 -31t165.5 -80zM616 707q-103 0 -175 -71t-72 -181q0 -94 54 -152.5t148 -58.5q100 0 172 69.5t72 184.5q0 96 -52 152.5t-147 56.5z" />
    <glyph glyph-name="seven.tf" 
d="M1321 1452l-57 -266q-33 -21 -74 -53t-105.5 -91t-128 -127.5t-137 -167.5t-138 -207t-126.5 -249t-106 -291h-340q37 140 93.5 275.5t116.5 242t130.5 206.5t131.5 171.5t122 133t100 95.5t69 56h-673l57 272h1065z" />
    <glyph glyph-name="eight.tf" 
d="M1083 416q-2 -138 -82 -241.5t-205.5 -154.5t-275.5 -51q-137 0 -247 43.5t-178 134t-68 215.5q0 147 97 253.5t255 140.5q-77 37 -128.5 115t-51.5 171q0 195 151 318t383 123q222 0 347.5 -108t125.5 -273q0 -134 -83 -239t-222 -140q84 -36 133 -122t49 -185zM674 856
q94 0 149.5 57t55.5 140q0 67 -42 114t-120 47q-100 0 -153.5 -56t-53.5 -136q0 -65 42.5 -115.5t121.5 -50.5zM342 416q0 -84 54 -134.5t147 -50.5q101 0 165 64t64 151q0 77 -50 130t-151 53q-104 0 -165.5 -63.5t-63.5 -149.5z" />
    <glyph glyph-name="nine.tf" 
d="M436 954q0 -88 53 -145t146 -57q103 0 168 68t65 177q0 96 -54 153.5t-148 57.5q-96 0 -163 -69.5t-67 -184.5zM-29 84l123 248q132 -78 279 -78q172 0 300.5 99t164.5 272q-49 -64 -123.5 -97.5t-161.5 -33.5q-195 0 -317.5 123.5t-122.5 316.5q0 123 45 227t121.5 174
t179.5 109t219 39q230 0 374 -150t144 -411q0 -216 -62.5 -395.5t-172.5 -301.5t-262.5 -189t-329.5 -67q-112 0 -218.5 29t-179.5 86z" />
    <glyph glyph-name="less.tf" 
d="M127 625v221l899 459v-283l-592 -281l592 -284v-287z" />
    <glyph glyph-name="equal.tf" 
d="M109 819v250h1013v-250h-1013zM109 408v249h1013v-249h-1013z" />
    <glyph glyph-name="greater.tf" 
d="M1130 848v-221l-899 -457v281l590 282l-590 285v287z" />
    <glyph glyph-name="cent.tf" 
d="M381 0l47 223q-135 52 -216 171.5t-81 277.5q0 123 41.5 230t112.5 181t164 121.5t196 59.5l41 188h236l-45 -209q122 -38 194.5 -127.5t91.5 -200.5l-280 -77q-12 61 -60 102t-131 41q-99 0 -176.5 -80.5t-77.5 -222.5q0 -95 56 -149t147 -54q71 0 122.5 36t80.5 93
l254 -96q-54 -129 -168.5 -219.5t-274.5 -100.5l-39 -188h-235z" />
    <glyph glyph-name="sterling.tf" 
d="M45 590l47 225h146q-21 147 -21 203q0 203 130 332t347 129q107 0 194 -34.5t139.5 -89.5t80 -119.5t27.5 -129.5q0 -38 -5 -53l-274 -27q2 12 2 35q0 69 -47 116.5t-123 47.5q-82 0 -135 -58t-53 -166q0 -54 20 -186h379l-49 -225h-318q-10 -110 -58.5 -200t-129.5 -124
h363q80 0 132.5 42.5t61.5 111.5l260 -45q-25 -171 -142 -273t-298 -102h-799l58 260q111 16 181.5 111t86.5 219h-203z" />
    <glyph glyph-name="currency.tf" 
d="M178 713q0 113 51 207l-145 147l186 184l152 -151q92 47 203 47q117 0 200 -47l152 151l186 -184l-145 -147q53 -88 53 -207q0 -111 -53 -209l145 -144l-186 -186l-150 152q-92 -47 -202 -47q-111 0 -203 47l-152 -152l-186 186l147 146q-53 88 -53 207zM434 713
q0 -82 53.5 -134.5t137.5 -52.5t137 52.5t53 134.5t-53 134t-137 52q-85 0 -138 -52t-53 -134z" />
    <glyph glyph-name="yen.tf" 
d="M96 643l45 217h207l-215 592h330l186 -565l420 565h346l-471 -592h227l-45 -217h-378l-27 -129h379l-47 -217h-377l-62 -297h-301l64 297h-357l48 217h354l29 129h-355z" />
    <glyph glyph-name="logicalnot.tf" 
d="M1116 389h-266v399h-756v256h1022v-655z" />
    <glyph glyph-name="plusminus.tf" 
d="M735 768v-238h-262v238h-364v254h364v240h262v-240h365v-254h-365zM109 207v254h991v-254h-991z" />
    <glyph glyph-name="multiply.tf" 
d="M293 213l-184 188l333 336l-333 338l184 185l336 -338l336 338l184 -185l-336 -338l336 -336l-184 -188l-336 338z" />
    <glyph glyph-name="divide.tf" 
d="M113 610v254h1034v-254h-1034zM449 358q0 69 51 119.5t123 50.5t123 -50.5t51 -119.5q0 -71 -51 -122.5t-123 -51.5t-123 51.5t-51 122.5zM449 1120q0 71 51 121.5t123 50.5t123 -50.5t51 -121.5t-51 -122.5t-123 -51.5t-123 51.5t-51 122.5z" />
    <glyph glyph-name="perthousand.tf" 
d="M113 1198q0 119 84 199t194 80q100 0 166 -67t66 -165q0 -121 -85 -199.5t-196 -78.5q-99 0 -164 66.5t-65 164.5zM518 -18q-100 0 -164.5 67t-64.5 164q0 121 84 201t194 80q95 0 164 -66q76 66 176 66t166 -67t66 -165q0 -121 -85 -200.5t-196 -79.5q-97 0 -162 65
q-81 -65 -178 -65zM1184 1292l-47 -219l-1082 -665l47 215zM379 1321q-39 0 -69.5 -32t-30.5 -85q0 -36 20 -58t55 -22q42 0 72.5 29.5t30.5 81.5q0 38 -20.5 61.5t-57.5 24.5zM555 338q-39 0 -69.5 -32t-30.5 -85q0 -36 20 -58t55 -22q42 0 72.5 29.5t30.5 81.5
q0 38 -20.5 61.5t-57.5 24.5zM895 338q-39 0 -69.5 -32t-30.5 -85q0 -36 20 -58t55 -22q42 0 72.5 29.5t30.5 81.5q0 38 -20.5 61.5t-57.5 24.5z" />
    <glyph glyph-name="Euro.tf" 
d="M72 780l47 226h180q104 216 303.5 346.5t435.5 130.5q176 0 310 -72l-127 -256q-35 22 -96.5 36.5t-118.5 14.5q-103 0 -200.5 -53t-166.5 -147h487l-116 -226h-475q-15 -72 -17 -118h430l-117 -228h-278q78 -178 338 -178q89 0 145 16l19 -268q-91 -33 -215 -33
q-225 0 -392 124t-219 339h-229l45 228h166q3 65 14 118h-153z" />
    <glyph glyph-name="minus.tf" 
d="M109 610v254h1026v-254h-1026z" />
    <glyph glyph-name="approxequal.tf" 
d="M1024 688l164 -135q-57 -107 -149 -165t-201 -58q-117 0 -228 63l-98 53q-52 27 -102 27q-105 0 -172 -98l-168 133q56 106 148 163.5t202 57.5q116 0 225 -59l98 -54q54 -28 107 -28q108 0 174 100zM1024 1106l164 -133q-57 -107 -149 -165t-201 -58q-117 0 -228 63
l-98 53q-50 27 -100 27q-103 0 -174 -100l-168 133q57 106 149.5 164.5t202.5 58.5q114 0 223 -59l98 -54q49 -28 109 -28q105 0 172 98z" />
    <glyph glyph-name="notequal.tf" 
d="M127 819v250h586l110 180h271l-111 -180h158v-250h-312l-98 -162h410v-249h-563l-121 -197h-271l121 197h-180v249h334l98 162h-432z" />
    <glyph glyph-name="lessequal.tf" 
d="M154 207v254h899v-254h-899zM154 784v246l899 266v-252l-545 -133l545 -135v-258z" />
    <glyph glyph-name="greaterequal.tf" 
d="M1081 461v-254h-899v254h899zM1081 1030v-246l-899 -266v252l545 133l-545 137v256z" />
    <glyph glyph-name="one.ss05" horiz-adv-x="1013" 
d="M297 268l158 742h-275l41 198q131 3 228 69.5t141 174.5h280l-252 -1184h291l-57 -268h-877l58 268h264z" />
    <glyph glyph-name="florin.ss09" horiz-adv-x="874" 
d="M143 61l142 699h-189v258h242l33 166q22 111 88.5 189t148 111.5t170.5 33.5q71 0 107.5 -7t89.5 -26v-266q-66 16 -133 16q-22 0 -43.5 -5.5t-46.5 -19.5t-44.5 -43.5t-27.5 -70.5l-16 -78h225v-258h-279l-159 -787q-18 -85 -59.5 -151t-98 -104.5t-119 -58
t-129.5 -19.5q-71 0 -109.5 6.5t-95.5 23.5v269q73 -17 144 -17q21 0 42 5.5t45 19.5t43.5 43.5t28.5 70.5z" />
    <glyph glyph-name="daggerdbl.ss09" horiz-adv-x="940" 
d="M469 0h-258l61 289h-245l49 233h248l86 408h-248l49 233h248l61 289h258l-61 -289h248l-50 -233h-247l-86 -408h245l-49 -233h-248z" />
    <glyph glyph-name="caron.alt" horiz-adv-x="389" 
d="M414 1452l-246 -424h-211l149 424h308z" />
    <glyph glyph-name="commaturn" horiz-adv-x="339" 
d="M319 1274q0 -64 -48 -110t-119 -46q-78 0 -124 50.5t-46 121.5q0 87 44.5 154t114.5 101t150 34q35 0 65 -6l-22 -109q-30 6 -49 6q-58 0 -99.5 -24.5t-54.5 -56.5q30 12 55 12q67 0 100 -37t33 -90z" />
    <glyph glyph-name="dieresis.narrow" horiz-adv-x="665" 
d="M-25 1278q0 66 52.5 117t122.5 51q59 0 97 -40t38 -97q0 -71 -52.5 -119.5t-117.5 -48.5q-62 0 -101 39.5t-39 97.5zM348 1278q0 67 51 117.5t121 50.5q59 0 97 -40t38 -97q0 -71 -52 -119.5t-116 -48.5q-63 0 -101 39t-38 98z" />
    <glyph glyph-name="dieresis.uc.narrow" horiz-adv-x="712" 
d="M-23 1673q0 67 52 120.5t123 53.5q62 0 101.5 -40.5t39.5 -100.5q0 -74 -51 -123t-121 -49q-64 0 -104 38.5t-40 100.5zM387 1673q0 67 51.5 120.5t122.5 53.5q62 0 101.5 -40.5t39.5 -100.5q0 -74 -51 -123t-121 -49q-64 0 -103.5 38.5t-39.5 100.5z" />
    <glyph glyph-name="grave.uc" horiz-adv-x="561" 
d="M242 1554l-246 271h356l156 -271h-266z" />
    <glyph glyph-name="dieresis.uc" horiz-adv-x="892" 
d="M-12 1673q0 67 52.5 122.5t125.5 55.5q64 0 105.5 -42.5t41.5 -102.5q0 -74 -53 -125t-123 -51q-67 0 -108 40.5t-41 102.5zM547 1673q0 67 53 122.5t127 55.5q63 0 104 -42.5t41 -102.5q0 -75 -52.5 -125.5t-123.5 -50.5q-67 0 -108 40.5t-41 102.5z" />
    <glyph glyph-name="macron.uc" horiz-adv-x="628" 
d="M594 1579h-635l45 223h637z" />
    <glyph glyph-name="acute.uc" horiz-adv-x="561" 
d="M602 1825l-362 -271h-293l270 271h385z" />
    <glyph glyph-name="circumflex.uc" horiz-adv-x="796" 
d="M233 1554h-284l307 271h299l195 -271h-277l-90 134z" />
    <glyph glyph-name="caron.uc" horiz-adv-x="796" 
d="M530 1825h297l-311 -271h-299l-194 271h270l88 -133z" />
    <glyph glyph-name="breve.uc" horiz-adv-x="696" 
d="M324 1542q-133 0 -218.5 63.5t-85.5 180.5q0 16 5 39h213q-2 -10 -2 -19q0 -38 26 -60t74 -22q51 0 86.5 29t46.5 72h238q-28 -112 -129.5 -197.5t-253.5 -85.5z" />
    <glyph glyph-name="dotaccent.uc" horiz-adv-x="358" 
d="M-20 1708q0 74 59.5 133.5t140.5 59.5q70 0 117 -46.5t47 -111.5q0 -85 -59 -143t-140 -58q-71 0 -118 48.5t-47 117.5z" />
    <glyph glyph-name="ring.uc" horiz-adv-x="569" 
d="M276 1898q-44 0 -76 -31t-32 -77q0 -37 26 -60.5t66 -23.5q41 0 75 30.5t34 78.5q0 38 -26.5 60.5t-66.5 22.5zM-20 1778q0 123 93 213t220 90q111 0 188.5 -72t77.5 -178q0 -131 -96 -218t-219 -87q-113 0 -188.5 72t-75.5 180z" />
    <glyph glyph-name="tilde.uc" horiz-adv-x="704" 
d="M758 1833q-21 -152 -90.5 -223.5t-171.5 -71.5q-71 0 -156 51q-73 47 -104 47q-27 0 -46.5 -21.5t-25.5 -64.5h-191q16 150 92 218.5t181 68.5q74 0 151 -47q6 -4 25 -16.5t26.5 -16.5t21 -9t24.5 -5q59 0 73 90h191z" />
    <glyph glyph-name="hungarumlaut.uc" horiz-adv-x="745" 
d="M387 1825l-248 -271h-196l155 271h289zM768 1825l-283 -271h-200l188 271h295z" />
    <glyph glyph-name="caron.alt.uc" horiz-adv-x="389" 
d="M428 1452l-256 -444h-219l158 444h317z" />
    <glyph glyph-name="undercommaaccent" horiz-adv-x="339" 
d="M-16 -246q0 64 49.5 109t120.5 45q81 0 125.5 -48t44.5 -120q0 -135 -89 -212t-215 -77q-31 0 -71 8l22 105q14 -2 43 -2q121 0 156 78q-22 -9 -49 -9q-65 0 -101 36t-36 87z" />
    </font>
</defs>
</svg>
